<?xml version="1.0" encoding="utf-8" standalone="no"?>
<!DOCTYPE svg PUBLIC "-//W3C//DTD SVG 1.1//EN"
  "http://www.w3.org/Graphics/SVG/1.1/DTD/svg11.dtd">
<!-- Created with matplotlib (http://matplotlib.org/) -->
<svg height="682pt" version="1.1" viewBox="0 0 647 682" width="647pt" xmlns="http://www.w3.org/2000/svg" xmlns:xlink="http://www.w3.org/1999/xlink">
 <defs>
  <style type="text/css">
*{stroke-linecap:butt;stroke-linejoin:round;}
  </style>
 </defs>
 <g id="figure_1">
  <g id="patch_1">
   <path d="M 0 682.529356 
L 647.439125 682.529356 
L 647.439125 0 
L 0 0 
z
" style="fill:#ffffff;"/>
  </g>
  <g id="axes_1">
   <g id="patch_2">
    <path d="M 70.239125 617.987887 
L 628.239125 617.987887 
L 628.239125 74.387887 
L 70.239125 74.387887 
z
" style="fill:#eaeaf2;"/>
   </g>
   <g id="matplotlib.axis_1">
    <g id="xtick_1">
     <g id="line2d_1">
      <path clip-path="url(#p35b4dd7209)" d="M 88.239125 617.987887 
L 88.239125 74.387887 
" style="fill:none;stroke:#ffffff;stroke-linecap:round;stroke-width:2;"/>
     </g>
     <g id="text_1">
      <!-- 0 -->
      <defs>
       <path d="M 31.78125 66.40625 
Q 24.171875 66.40625 20.328125 58.90625 
Q 16.5 51.421875 16.5 36.375 
Q 16.5 21.390625 20.328125 13.890625 
Q 24.171875 6.390625 31.78125 6.390625 
Q 39.453125 6.390625 43.28125 13.890625 
Q 47.125 21.390625 47.125 36.375 
Q 47.125 51.421875 43.28125 58.90625 
Q 39.453125 66.40625 31.78125 66.40625 
z
M 31.78125 74.21875 
Q 44.046875 74.21875 50.515625 64.515625 
Q 56.984375 54.828125 56.984375 36.375 
Q 56.984375 17.96875 50.515625 8.265625 
Q 44.046875 -1.421875 31.78125 -1.421875 
Q 19.53125 -1.421875 13.0625 8.265625 
Q 6.59375 17.96875 6.59375 36.375 
Q 6.59375 54.828125 13.0625 64.515625 
Q 19.53125 74.21875 31.78125 74.21875 
z
" id="DejaVuSans-30"/>
      </defs>
      <g style="fill:#262626;" transform="translate(82.290188 647.696966)scale(0.187 -0.187)">
       <use xlink:href="#DejaVuSans-30"/>
      </g>
     </g>
    </g>
    <g id="xtick_2">
     <g id="line2d_2">
      <path clip-path="url(#p35b4dd7209)" d="M 208.239125 617.987887 
L 208.239125 74.387887 
" style="fill:none;stroke:#ffffff;stroke-linecap:round;stroke-width:2;"/>
     </g>
     <g id="text_2">
      <!-- 20 -->
      <defs>
       <path d="M 19.1875 8.296875 
L 53.609375 8.296875 
L 53.609375 0 
L 7.328125 0 
L 7.328125 8.296875 
Q 12.9375 14.109375 22.625 23.890625 
Q 32.328125 33.6875 34.8125 36.53125 
Q 39.546875 41.84375 41.421875 45.53125 
Q 43.3125 49.21875 43.3125 52.78125 
Q 43.3125 58.59375 39.234375 62.25 
Q 35.15625 65.921875 28.609375 65.921875 
Q 23.96875 65.921875 18.8125 64.3125 
Q 13.671875 62.703125 7.8125 59.421875 
L 7.8125 69.390625 
Q 13.765625 71.78125 18.9375 73 
Q 24.125 74.21875 28.421875 74.21875 
Q 39.75 74.21875 46.484375 68.546875 
Q 53.21875 62.890625 53.21875 53.421875 
Q 53.21875 48.921875 51.53125 44.890625 
Q 49.859375 40.875 45.40625 35.40625 
Q 44.1875 33.984375 37.640625 27.21875 
Q 31.109375 20.453125 19.1875 8.296875 
z
" id="DejaVuSans-32"/>
      </defs>
      <g style="fill:#262626;" transform="translate(196.34125 647.696966)scale(0.187 -0.187)">
       <use xlink:href="#DejaVuSans-32"/>
       <use x="63.623047" xlink:href="#DejaVuSans-30"/>
      </g>
     </g>
    </g>
    <g id="xtick_3">
     <g id="line2d_3">
      <path clip-path="url(#p35b4dd7209)" d="M 328.239125 617.987887 
L 328.239125 74.387887 
" style="fill:none;stroke:#ffffff;stroke-linecap:round;stroke-width:2;"/>
     </g>
     <g id="text_3">
      <!-- 40 -->
      <defs>
       <path d="M 37.796875 64.3125 
L 12.890625 25.390625 
L 37.796875 25.390625 
z
M 35.203125 72.90625 
L 47.609375 72.90625 
L 47.609375 25.390625 
L 58.015625 25.390625 
L 58.015625 17.1875 
L 47.609375 17.1875 
L 47.609375 0 
L 37.796875 0 
L 37.796875 17.1875 
L 4.890625 17.1875 
L 4.890625 26.703125 
z
" id="DejaVuSans-34"/>
      </defs>
      <g style="fill:#262626;" transform="translate(316.34125 647.696966)scale(0.187 -0.187)">
       <use xlink:href="#DejaVuSans-34"/>
       <use x="63.623047" xlink:href="#DejaVuSans-30"/>
      </g>
     </g>
    </g>
    <g id="xtick_4">
     <g id="line2d_4">
      <path clip-path="url(#p35b4dd7209)" d="M 448.239125 617.987887 
L 448.239125 74.387887 
" style="fill:none;stroke:#ffffff;stroke-linecap:round;stroke-width:2;"/>
     </g>
     <g id="text_4">
      <!-- 60 -->
      <defs>
       <path d="M 33.015625 40.375 
Q 26.375 40.375 22.484375 35.828125 
Q 18.609375 31.296875 18.609375 23.390625 
Q 18.609375 15.53125 22.484375 10.953125 
Q 26.375 6.390625 33.015625 6.390625 
Q 39.65625 6.390625 43.53125 10.953125 
Q 47.40625 15.53125 47.40625 23.390625 
Q 47.40625 31.296875 43.53125 35.828125 
Q 39.65625 40.375 33.015625 40.375 
z
M 52.59375 71.296875 
L 52.59375 62.3125 
Q 48.875 64.0625 45.09375 64.984375 
Q 41.3125 65.921875 37.59375 65.921875 
Q 27.828125 65.921875 22.671875 59.328125 
Q 17.53125 52.734375 16.796875 39.40625 
Q 19.671875 43.65625 24.015625 45.921875 
Q 28.375 48.1875 33.59375 48.1875 
Q 44.578125 48.1875 50.953125 41.515625 
Q 57.328125 34.859375 57.328125 23.390625 
Q 57.328125 12.15625 50.6875 5.359375 
Q 44.046875 -1.421875 33.015625 -1.421875 
Q 20.359375 -1.421875 13.671875 8.265625 
Q 6.984375 17.96875 6.984375 36.375 
Q 6.984375 53.65625 15.1875 63.9375 
Q 23.390625 74.21875 37.203125 74.21875 
Q 40.921875 74.21875 44.703125 73.484375 
Q 48.484375 72.75 52.59375 71.296875 
z
" id="DejaVuSans-36"/>
      </defs>
      <g style="fill:#262626;" transform="translate(436.34125 647.696966)scale(0.187 -0.187)">
       <use xlink:href="#DejaVuSans-36"/>
       <use x="63.623047" xlink:href="#DejaVuSans-30"/>
      </g>
     </g>
    </g>
    <g id="xtick_5">
     <g id="line2d_5">
      <path clip-path="url(#p35b4dd7209)" d="M 568.239125 617.987887 
L 568.239125 74.387887 
" style="fill:none;stroke:#ffffff;stroke-linecap:round;stroke-width:2;"/>
     </g>
     <g id="text_5">
      <!-- 80 -->
      <defs>
       <path d="M 31.78125 34.625 
Q 24.75 34.625 20.71875 30.859375 
Q 16.703125 27.09375 16.703125 20.515625 
Q 16.703125 13.921875 20.71875 10.15625 
Q 24.75 6.390625 31.78125 6.390625 
Q 38.8125 6.390625 42.859375 10.171875 
Q 46.921875 13.96875 46.921875 20.515625 
Q 46.921875 27.09375 42.890625 30.859375 
Q 38.875 34.625 31.78125 34.625 
z
M 21.921875 38.8125 
Q 15.578125 40.375 12.03125 44.71875 
Q 8.5 49.078125 8.5 55.328125 
Q 8.5 64.0625 14.71875 69.140625 
Q 20.953125 74.21875 31.78125 74.21875 
Q 42.671875 74.21875 48.875 69.140625 
Q 55.078125 64.0625 55.078125 55.328125 
Q 55.078125 49.078125 51.53125 44.71875 
Q 48 40.375 41.703125 38.8125 
Q 48.828125 37.15625 52.796875 32.3125 
Q 56.78125 27.484375 56.78125 20.515625 
Q 56.78125 9.90625 50.3125 4.234375 
Q 43.84375 -1.421875 31.78125 -1.421875 
Q 19.734375 -1.421875 13.25 4.234375 
Q 6.78125 9.90625 6.78125 20.515625 
Q 6.78125 27.484375 10.78125 32.3125 
Q 14.796875 37.15625 21.921875 38.8125 
z
M 18.3125 54.390625 
Q 18.3125 48.734375 21.84375 45.5625 
Q 25.390625 42.390625 31.78125 42.390625 
Q 38.140625 42.390625 41.71875 45.5625 
Q 45.3125 48.734375 45.3125 54.390625 
Q 45.3125 60.0625 41.71875 63.234375 
Q 38.140625 66.40625 31.78125 66.40625 
Q 25.390625 66.40625 21.84375 63.234375 
Q 18.3125 60.0625 18.3125 54.390625 
z
" id="DejaVuSans-38"/>
      </defs>
      <g style="fill:#262626;" transform="translate(556.34125 647.696966)scale(0.187 -0.187)">
       <use xlink:href="#DejaVuSans-38"/>
       <use x="63.623047" xlink:href="#DejaVuSans-30"/>
      </g>
     </g>
    </g>
    <g id="text_6">
     <!-- Breteau Index -->
     <defs>
      <path d="M 19.671875 34.8125 
L 19.671875 8.109375 
L 35.5 8.109375 
Q 43.453125 8.109375 47.28125 11.40625 
Q 51.125 14.703125 51.125 21.484375 
Q 51.125 28.328125 47.28125 31.5625 
Q 43.453125 34.8125 35.5 34.8125 
z
M 19.671875 64.796875 
L 19.671875 42.828125 
L 34.28125 42.828125 
Q 41.5 42.828125 45.03125 45.53125 
Q 48.578125 48.25 48.578125 53.8125 
Q 48.578125 59.328125 45.03125 62.0625 
Q 41.5 64.796875 34.28125 64.796875 
z
M 9.8125 72.90625 
L 35.015625 72.90625 
Q 46.296875 72.90625 52.390625 68.21875 
Q 58.5 63.53125 58.5 54.890625 
Q 58.5 48.1875 55.375 44.234375 
Q 52.25 40.28125 46.1875 39.3125 
Q 53.46875 37.75 57.5 32.78125 
Q 61.53125 27.828125 61.53125 20.40625 
Q 61.53125 10.640625 54.890625 5.3125 
Q 48.25 0 35.984375 0 
L 9.8125 0 
z
" id="DejaVuSans-42"/>
      <path d="M 41.109375 46.296875 
Q 39.59375 47.171875 37.8125 47.578125 
Q 36.03125 48 33.890625 48 
Q 26.265625 48 22.1875 43.046875 
Q 18.109375 38.09375 18.109375 28.8125 
L 18.109375 0 
L 9.078125 0 
L 9.078125 54.6875 
L 18.109375 54.6875 
L 18.109375 46.1875 
Q 20.953125 51.171875 25.484375 53.578125 
Q 30.03125 56 36.53125 56 
Q 37.453125 56 38.578125 55.875 
Q 39.703125 55.765625 41.0625 55.515625 
z
" id="DejaVuSans-72"/>
      <path d="M 56.203125 29.59375 
L 56.203125 25.203125 
L 14.890625 25.203125 
Q 15.484375 15.921875 20.484375 11.0625 
Q 25.484375 6.203125 34.421875 6.203125 
Q 39.59375 6.203125 44.453125 7.46875 
Q 49.3125 8.734375 54.109375 11.28125 
L 54.109375 2.78125 
Q 49.265625 0.734375 44.1875 -0.34375 
Q 39.109375 -1.421875 33.890625 -1.421875 
Q 20.796875 -1.421875 13.15625 6.1875 
Q 5.515625 13.8125 5.515625 26.8125 
Q 5.515625 40.234375 12.765625 48.109375 
Q 20.015625 56 32.328125 56 
Q 43.359375 56 49.78125 48.890625 
Q 56.203125 41.796875 56.203125 29.59375 
z
M 47.21875 32.234375 
Q 47.125 39.59375 43.09375 43.984375 
Q 39.0625 48.390625 32.421875 48.390625 
Q 24.90625 48.390625 20.390625 44.140625 
Q 15.875 39.890625 15.1875 32.171875 
z
" id="DejaVuSans-65"/>
      <path d="M 18.3125 70.21875 
L 18.3125 54.6875 
L 36.8125 54.6875 
L 36.8125 47.703125 
L 18.3125 47.703125 
L 18.3125 18.015625 
Q 18.3125 11.328125 20.140625 9.421875 
Q 21.96875 7.515625 27.59375 7.515625 
L 36.8125 7.515625 
L 36.8125 0 
L 27.59375 0 
Q 17.1875 0 13.234375 3.875 
Q 9.28125 7.765625 9.28125 18.015625 
L 9.28125 47.703125 
L 2.6875 47.703125 
L 2.6875 54.6875 
L 9.28125 54.6875 
L 9.28125 70.21875 
z
" id="DejaVuSans-74"/>
      <path d="M 34.28125 27.484375 
Q 23.390625 27.484375 19.1875 25 
Q 14.984375 22.515625 14.984375 16.5 
Q 14.984375 11.71875 18.140625 8.90625 
Q 21.296875 6.109375 26.703125 6.109375 
Q 34.1875 6.109375 38.703125 11.40625 
Q 43.21875 16.703125 43.21875 25.484375 
L 43.21875 27.484375 
z
M 52.203125 31.203125 
L 52.203125 0 
L 43.21875 0 
L 43.21875 8.296875 
Q 40.140625 3.328125 35.546875 0.953125 
Q 30.953125 -1.421875 24.3125 -1.421875 
Q 15.921875 -1.421875 10.953125 3.296875 
Q 6 8.015625 6 15.921875 
Q 6 25.140625 12.171875 29.828125 
Q 18.359375 34.515625 30.609375 34.515625 
L 43.21875 34.515625 
L 43.21875 35.40625 
Q 43.21875 41.609375 39.140625 45 
Q 35.0625 48.390625 27.6875 48.390625 
Q 23 48.390625 18.546875 47.265625 
Q 14.109375 46.140625 10.015625 43.890625 
L 10.015625 52.203125 
Q 14.9375 54.109375 19.578125 55.046875 
Q 24.21875 56 28.609375 56 
Q 40.484375 56 46.34375 49.84375 
Q 52.203125 43.703125 52.203125 31.203125 
z
" id="DejaVuSans-61"/>
      <path d="M 8.5 21.578125 
L 8.5 54.6875 
L 17.484375 54.6875 
L 17.484375 21.921875 
Q 17.484375 14.15625 20.5 10.265625 
Q 23.53125 6.390625 29.59375 6.390625 
Q 36.859375 6.390625 41.078125 11.03125 
Q 45.3125 15.671875 45.3125 23.6875 
L 45.3125 54.6875 
L 54.296875 54.6875 
L 54.296875 0 
L 45.3125 0 
L 45.3125 8.40625 
Q 42.046875 3.421875 37.71875 1 
Q 33.40625 -1.421875 27.6875 -1.421875 
Q 18.265625 -1.421875 13.375 4.4375 
Q 8.5 10.296875 8.5 21.578125 
z
M 31.109375 56 
z
" id="DejaVuSans-75"/>
      <path id="DejaVuSans-20"/>
      <path d="M 9.8125 72.90625 
L 19.671875 72.90625 
L 19.671875 0 
L 9.8125 0 
z
" id="DejaVuSans-49"/>
      <path d="M 54.890625 33.015625 
L 54.890625 0 
L 45.90625 0 
L 45.90625 32.71875 
Q 45.90625 40.484375 42.875 44.328125 
Q 39.84375 48.1875 33.796875 48.1875 
Q 26.515625 48.1875 22.3125 43.546875 
Q 18.109375 38.921875 18.109375 30.90625 
L 18.109375 0 
L 9.078125 0 
L 9.078125 54.6875 
L 18.109375 54.6875 
L 18.109375 46.1875 
Q 21.34375 51.125 25.703125 53.5625 
Q 30.078125 56 35.796875 56 
Q 45.21875 56 50.046875 50.171875 
Q 54.890625 44.34375 54.890625 33.015625 
z
" id="DejaVuSans-6e"/>
      <path d="M 45.40625 46.390625 
L 45.40625 75.984375 
L 54.390625 75.984375 
L 54.390625 0 
L 45.40625 0 
L 45.40625 8.203125 
Q 42.578125 3.328125 38.25 0.953125 
Q 33.9375 -1.421875 27.875 -1.421875 
Q 17.96875 -1.421875 11.734375 6.484375 
Q 5.515625 14.40625 5.515625 27.296875 
Q 5.515625 40.1875 11.734375 48.09375 
Q 17.96875 56 27.875 56 
Q 33.9375 56 38.25 53.625 
Q 42.578125 51.265625 45.40625 46.390625 
z
M 14.796875 27.296875 
Q 14.796875 17.390625 18.875 11.75 
Q 22.953125 6.109375 30.078125 6.109375 
Q 37.203125 6.109375 41.296875 11.75 
Q 45.40625 17.390625 45.40625 27.296875 
Q 45.40625 37.203125 41.296875 42.84375 
Q 37.203125 48.484375 30.078125 48.484375 
Q 22.953125 48.484375 18.875 42.84375 
Q 14.796875 37.203125 14.796875 27.296875 
z
" id="DejaVuSans-64"/>
      <path d="M 54.890625 54.6875 
L 35.109375 28.078125 
L 55.90625 0 
L 45.3125 0 
L 29.390625 21.484375 
L 13.484375 0 
L 2.875 0 
L 24.125 28.609375 
L 4.6875 54.6875 
L 15.28125 54.6875 
L 29.78125 35.203125 
L 44.28125 54.6875 
z
" id="DejaVuSans-78"/>
     </defs>
     <g style="fill:#262626;" transform="translate(277.282906 671.086794)scale(0.204 -0.204)">
      <use xlink:href="#DejaVuSans-42"/>
      <use x="68.603516" xlink:href="#DejaVuSans-72"/>
      <use x="109.685547" xlink:href="#DejaVuSans-65"/>
      <use x="171.208984" xlink:href="#DejaVuSans-74"/>
      <use x="210.417969" xlink:href="#DejaVuSans-65"/>
      <use x="271.941406" xlink:href="#DejaVuSans-61"/>
      <use x="333.220703" xlink:href="#DejaVuSans-75"/>
      <use x="396.599609" xlink:href="#DejaVuSans-20"/>
      <use x="428.386719" xlink:href="#DejaVuSans-49"/>
      <use x="457.878906" xlink:href="#DejaVuSans-6e"/>
      <use x="521.257812" xlink:href="#DejaVuSans-64"/>
      <use x="584.734375" xlink:href="#DejaVuSans-65"/>
      <use x="646.242188" xlink:href="#DejaVuSans-78"/>
     </g>
    </g>
   </g>
   <g id="matplotlib.axis_2">
    <g id="ytick_1">
     <g id="line2d_6">
      <path clip-path="url(#p35b4dd7209)" d="M 70.239125 596.604168 
L 628.239125 596.604168 
" style="fill:none;stroke:#ffffff;stroke-linecap:round;stroke-width:2;"/>
     </g>
     <g id="text_7">
      <!-- 0 -->
      <g style="fill:#262626;" transform="translate(42.84125 603.708707)scale(0.187 -0.187)">
       <use xlink:href="#DejaVuSans-30"/>
      </g>
     </g>
    </g>
    <g id="ytick_2">
     <g id="line2d_7">
      <path clip-path="url(#p35b4dd7209)" d="M 70.239125 484.206473 
L 628.239125 484.206473 
" style="fill:none;stroke:#ffffff;stroke-linecap:round;stroke-width:2;"/>
     </g>
     <g id="text_8">
      <!-- 10 -->
      <defs>
       <path d="M 12.40625 8.296875 
L 28.515625 8.296875 
L 28.515625 63.921875 
L 10.984375 60.40625 
L 10.984375 69.390625 
L 28.421875 72.90625 
L 38.28125 72.90625 
L 38.28125 8.296875 
L 54.390625 8.296875 
L 54.390625 0 
L 12.40625 0 
z
" id="DejaVuSans-31"/>
      </defs>
      <g style="fill:#262626;" transform="translate(30.943375 491.311012)scale(0.187 -0.187)">
       <use xlink:href="#DejaVuSans-31"/>
       <use x="63.623047" xlink:href="#DejaVuSans-30"/>
      </g>
     </g>
    </g>
    <g id="ytick_3">
     <g id="line2d_8">
      <path clip-path="url(#p35b4dd7209)" d="M 70.239125 371.808778 
L 628.239125 371.808778 
" style="fill:none;stroke:#ffffff;stroke-linecap:round;stroke-width:2;"/>
     </g>
     <g id="text_9">
      <!-- 20 -->
      <g style="fill:#262626;" transform="translate(30.943375 378.913317)scale(0.187 -0.187)">
       <use xlink:href="#DejaVuSans-32"/>
       <use x="63.623047" xlink:href="#DejaVuSans-30"/>
      </g>
     </g>
    </g>
    <g id="ytick_4">
     <g id="line2d_9">
      <path clip-path="url(#p35b4dd7209)" d="M 70.239125 259.411083 
L 628.239125 259.411083 
" style="fill:none;stroke:#ffffff;stroke-linecap:round;stroke-width:2;"/>
     </g>
     <g id="text_10">
      <!-- 30 -->
      <defs>
       <path d="M 40.578125 39.3125 
Q 47.65625 37.796875 51.625 33 
Q 55.609375 28.21875 55.609375 21.1875 
Q 55.609375 10.40625 48.1875 4.484375 
Q 40.765625 -1.421875 27.09375 -1.421875 
Q 22.515625 -1.421875 17.65625 -0.515625 
Q 12.796875 0.390625 7.625 2.203125 
L 7.625 11.71875 
Q 11.71875 9.328125 16.59375 8.109375 
Q 21.484375 6.890625 26.8125 6.890625 
Q 36.078125 6.890625 40.9375 10.546875 
Q 45.796875 14.203125 45.796875 21.1875 
Q 45.796875 27.640625 41.28125 31.265625 
Q 36.765625 34.90625 28.71875 34.90625 
L 20.21875 34.90625 
L 20.21875 43.015625 
L 29.109375 43.015625 
Q 36.375 43.015625 40.234375 45.921875 
Q 44.09375 48.828125 44.09375 54.296875 
Q 44.09375 59.90625 40.109375 62.90625 
Q 36.140625 65.921875 28.71875 65.921875 
Q 24.65625 65.921875 20.015625 65.03125 
Q 15.375 64.15625 9.8125 62.3125 
L 9.8125 71.09375 
Q 15.4375 72.65625 20.34375 73.4375 
Q 25.25 74.21875 29.59375 74.21875 
Q 40.828125 74.21875 47.359375 69.109375 
Q 53.90625 64.015625 53.90625 55.328125 
Q 53.90625 49.265625 50.4375 45.09375 
Q 46.96875 40.921875 40.578125 39.3125 
z
" id="DejaVuSans-33"/>
      </defs>
      <g style="fill:#262626;" transform="translate(30.943375 266.515622)scale(0.187 -0.187)">
       <use xlink:href="#DejaVuSans-33"/>
       <use x="63.623047" xlink:href="#DejaVuSans-30"/>
      </g>
     </g>
    </g>
    <g id="ytick_5">
     <g id="line2d_10">
      <path clip-path="url(#p35b4dd7209)" d="M 70.239125 147.013388 
L 628.239125 147.013388 
" style="fill:none;stroke:#ffffff;stroke-linecap:round;stroke-width:2;"/>
     </g>
     <g id="text_11">
      <!-- 40 -->
      <g style="fill:#262626;" transform="translate(30.943375 154.117927)scale(0.187 -0.187)">
       <use xlink:href="#DejaVuSans-34"/>
       <use x="63.623047" xlink:href="#DejaVuSans-30"/>
      </g>
     </g>
    </g>
    <g id="text_12">
     <!-- Container Density (number/area in km²) -->
     <defs>
      <path d="M 64.40625 67.28125 
L 64.40625 56.890625 
Q 59.421875 61.53125 53.78125 63.8125 
Q 48.140625 66.109375 41.796875 66.109375 
Q 29.296875 66.109375 22.65625 58.46875 
Q 16.015625 50.828125 16.015625 36.375 
Q 16.015625 21.96875 22.65625 14.328125 
Q 29.296875 6.6875 41.796875 6.6875 
Q 48.140625 6.6875 53.78125 8.984375 
Q 59.421875 11.28125 64.40625 15.921875 
L 64.40625 5.609375 
Q 59.234375 2.09375 53.4375 0.328125 
Q 47.65625 -1.421875 41.21875 -1.421875 
Q 24.65625 -1.421875 15.125 8.703125 
Q 5.609375 18.84375 5.609375 36.375 
Q 5.609375 53.953125 15.125 64.078125 
Q 24.65625 74.21875 41.21875 74.21875 
Q 47.75 74.21875 53.53125 72.484375 
Q 59.328125 70.75 64.40625 67.28125 
z
" id="DejaVuSans-43"/>
      <path d="M 30.609375 48.390625 
Q 23.390625 48.390625 19.1875 42.75 
Q 14.984375 37.109375 14.984375 27.296875 
Q 14.984375 17.484375 19.15625 11.84375 
Q 23.34375 6.203125 30.609375 6.203125 
Q 37.796875 6.203125 41.984375 11.859375 
Q 46.1875 17.53125 46.1875 27.296875 
Q 46.1875 37.015625 41.984375 42.703125 
Q 37.796875 48.390625 30.609375 48.390625 
z
M 30.609375 56 
Q 42.328125 56 49.015625 48.375 
Q 55.71875 40.765625 55.71875 27.296875 
Q 55.71875 13.875 49.015625 6.21875 
Q 42.328125 -1.421875 30.609375 -1.421875 
Q 18.84375 -1.421875 12.171875 6.21875 
Q 5.515625 13.875 5.515625 27.296875 
Q 5.515625 40.765625 12.171875 48.375 
Q 18.84375 56 30.609375 56 
z
" id="DejaVuSans-6f"/>
      <path d="M 9.421875 54.6875 
L 18.40625 54.6875 
L 18.40625 0 
L 9.421875 0 
z
M 9.421875 75.984375 
L 18.40625 75.984375 
L 18.40625 64.59375 
L 9.421875 64.59375 
z
" id="DejaVuSans-69"/>
      <path d="M 19.671875 64.796875 
L 19.671875 8.109375 
L 31.59375 8.109375 
Q 46.6875 8.109375 53.6875 14.9375 
Q 60.6875 21.78125 60.6875 36.53125 
Q 60.6875 51.171875 53.6875 57.984375 
Q 46.6875 64.796875 31.59375 64.796875 
z
M 9.8125 72.90625 
L 30.078125 72.90625 
Q 51.265625 72.90625 61.171875 64.09375 
Q 71.09375 55.28125 71.09375 36.53125 
Q 71.09375 17.671875 61.125 8.828125 
Q 51.171875 0 30.078125 0 
L 9.8125 0 
z
" id="DejaVuSans-44"/>
      <path d="M 44.28125 53.078125 
L 44.28125 44.578125 
Q 40.484375 46.53125 36.375 47.5 
Q 32.28125 48.484375 27.875 48.484375 
Q 21.1875 48.484375 17.84375 46.4375 
Q 14.5 44.390625 14.5 40.28125 
Q 14.5 37.15625 16.890625 35.375 
Q 19.28125 33.59375 26.515625 31.984375 
L 29.59375 31.296875 
Q 39.15625 29.25 43.1875 25.515625 
Q 47.21875 21.78125 47.21875 15.09375 
Q 47.21875 7.46875 41.1875 3.015625 
Q 35.15625 -1.421875 24.609375 -1.421875 
Q 20.21875 -1.421875 15.453125 -0.5625 
Q 10.6875 0.296875 5.421875 2 
L 5.421875 11.28125 
Q 10.40625 8.6875 15.234375 7.390625 
Q 20.0625 6.109375 24.8125 6.109375 
Q 31.15625 6.109375 34.5625 8.28125 
Q 37.984375 10.453125 37.984375 14.40625 
Q 37.984375 18.0625 35.515625 20.015625 
Q 33.0625 21.96875 24.703125 23.78125 
L 21.578125 24.515625 
Q 13.234375 26.265625 9.515625 29.90625 
Q 5.8125 33.546875 5.8125 39.890625 
Q 5.8125 47.609375 11.28125 51.796875 
Q 16.75 56 26.8125 56 
Q 31.78125 56 36.171875 55.265625 
Q 40.578125 54.546875 44.28125 53.078125 
z
" id="DejaVuSans-73"/>
      <path d="M 32.171875 -5.078125 
Q 28.375 -14.84375 24.75 -17.8125 
Q 21.140625 -20.796875 15.09375 -20.796875 
L 7.90625 -20.796875 
L 7.90625 -13.28125 
L 13.1875 -13.28125 
Q 16.890625 -13.28125 18.9375 -11.515625 
Q 21 -9.765625 23.484375 -3.21875 
L 25.09375 0.875 
L 2.984375 54.6875 
L 12.5 54.6875 
L 29.59375 11.921875 
L 46.6875 54.6875 
L 56.203125 54.6875 
z
" id="DejaVuSans-79"/>
      <path d="M 31 75.875 
Q 24.46875 64.65625 21.28125 53.65625 
Q 18.109375 42.671875 18.109375 31.390625 
Q 18.109375 20.125 21.3125 9.0625 
Q 24.515625 -2 31 -13.1875 
L 23.1875 -13.1875 
Q 15.875 -1.703125 12.234375 9.375 
Q 8.59375 20.453125 8.59375 31.390625 
Q 8.59375 42.28125 12.203125 53.3125 
Q 15.828125 64.359375 23.1875 75.875 
z
" id="DejaVuSans-28"/>
      <path d="M 52 44.1875 
Q 55.375 50.25 60.0625 53.125 
Q 64.75 56 71.09375 56 
Q 79.640625 56 84.28125 50.015625 
Q 88.921875 44.046875 88.921875 33.015625 
L 88.921875 0 
L 79.890625 0 
L 79.890625 32.71875 
Q 79.890625 40.578125 77.09375 44.375 
Q 74.3125 48.1875 68.609375 48.1875 
Q 61.625 48.1875 57.5625 43.546875 
Q 53.515625 38.921875 53.515625 30.90625 
L 53.515625 0 
L 44.484375 0 
L 44.484375 32.71875 
Q 44.484375 40.625 41.703125 44.40625 
Q 38.921875 48.1875 33.109375 48.1875 
Q 26.21875 48.1875 22.15625 43.53125 
Q 18.109375 38.875 18.109375 30.90625 
L 18.109375 0 
L 9.078125 0 
L 9.078125 54.6875 
L 18.109375 54.6875 
L 18.109375 46.1875 
Q 21.1875 51.21875 25.484375 53.609375 
Q 29.78125 56 35.6875 56 
Q 41.65625 56 45.828125 52.96875 
Q 50 49.953125 52 44.1875 
z
" id="DejaVuSans-6d"/>
      <path d="M 48.6875 27.296875 
Q 48.6875 37.203125 44.609375 42.84375 
Q 40.53125 48.484375 33.40625 48.484375 
Q 26.265625 48.484375 22.1875 42.84375 
Q 18.109375 37.203125 18.109375 27.296875 
Q 18.109375 17.390625 22.1875 11.75 
Q 26.265625 6.109375 33.40625 6.109375 
Q 40.53125 6.109375 44.609375 11.75 
Q 48.6875 17.390625 48.6875 27.296875 
z
M 18.109375 46.390625 
Q 20.953125 51.265625 25.265625 53.625 
Q 29.59375 56 35.59375 56 
Q 45.5625 56 51.78125 48.09375 
Q 58.015625 40.1875 58.015625 27.296875 
Q 58.015625 14.40625 51.78125 6.484375 
Q 45.5625 -1.421875 35.59375 -1.421875 
Q 29.59375 -1.421875 25.265625 0.953125 
Q 20.953125 3.328125 18.109375 8.203125 
L 18.109375 0 
L 9.078125 0 
L 9.078125 75.984375 
L 18.109375 75.984375 
z
" id="DejaVuSans-62"/>
      <path d="M 25.390625 72.90625 
L 33.6875 72.90625 
L 8.296875 -9.28125 
L 0 -9.28125 
z
" id="DejaVuSans-2f"/>
      <path d="M 9.078125 75.984375 
L 18.109375 75.984375 
L 18.109375 31.109375 
L 44.921875 54.6875 
L 56.390625 54.6875 
L 27.390625 29.109375 
L 57.625 0 
L 45.90625 0 
L 18.109375 26.703125 
L 18.109375 0 
L 9.078125 0 
z
" id="DejaVuSans-6b"/>
      <path d="M 13.09375 38.1875 
L 33.796875 38.1875 
L 33.796875 32.625 
L 4.59375 32.625 
L 4.59375 37.984375 
Q 6.25 39.5 9.328125 42.234375 
Q 26.125 57.125 26.125 61.71875 
Q 26.125 64.9375 23.578125 66.90625 
Q 21.046875 68.890625 16.890625 68.890625 
Q 14.359375 68.890625 11.375 68.03125 
Q 8.40625 67.1875 4.890625 65.484375 
L 4.890625 71.484375 
Q 8.640625 72.859375 11.890625 73.53125 
Q 15.140625 74.21875 17.921875 74.21875 
Q 25 74.21875 29.25 71 
Q 33.5 67.78125 33.5 62.5 
Q 33.5 55.71875 17.328125 41.84375 
Q 14.59375 39.5 13.09375 38.1875 
z
" id="DejaVuSans-b2"/>
      <path d="M 8.015625 75.875 
L 15.828125 75.875 
Q 23.140625 64.359375 26.78125 53.3125 
Q 30.421875 42.28125 30.421875 31.390625 
Q 30.421875 20.453125 26.78125 9.375 
Q 23.140625 -1.703125 15.828125 -13.1875 
L 8.015625 -13.1875 
Q 14.5 -2 17.703125 9.0625 
Q 20.90625 20.125 20.90625 31.390625 
Q 20.90625 42.671875 17.703125 53.65625 
Q 14.5 64.65625 8.015625 75.875 
z
" id="DejaVuSans-29"/>
     </defs>
     <g style="fill:#262626;" transform="translate(22.700813 551.177606)rotate(-90)scale(0.204 -0.204)">
      <use xlink:href="#DejaVuSans-43"/>
      <use x="69.824219" xlink:href="#DejaVuSans-6f"/>
      <use x="131.005859" xlink:href="#DejaVuSans-6e"/>
      <use x="194.384766" xlink:href="#DejaVuSans-74"/>
      <use x="233.59375" xlink:href="#DejaVuSans-61"/>
      <use x="294.873047" xlink:href="#DejaVuSans-69"/>
      <use x="322.65625" xlink:href="#DejaVuSans-6e"/>
      <use x="386.035156" xlink:href="#DejaVuSans-65"/>
      <use x="447.558594" xlink:href="#DejaVuSans-72"/>
      <use x="488.671875" xlink:href="#DejaVuSans-20"/>
      <use x="520.458984" xlink:href="#DejaVuSans-44"/>
      <use x="597.460938" xlink:href="#DejaVuSans-65"/>
      <use x="658.984375" xlink:href="#DejaVuSans-6e"/>
      <use x="722.363281" xlink:href="#DejaVuSans-73"/>
      <use x="774.462891" xlink:href="#DejaVuSans-69"/>
      <use x="802.246094" xlink:href="#DejaVuSans-74"/>
      <use x="841.455078" xlink:href="#DejaVuSans-79"/>
      <use x="900.634766" xlink:href="#DejaVuSans-20"/>
      <use x="932.421875" xlink:href="#DejaVuSans-28"/>
      <use x="971.435547" xlink:href="#DejaVuSans-6e"/>
      <use x="1034.814453" xlink:href="#DejaVuSans-75"/>
      <use x="1098.193359" xlink:href="#DejaVuSans-6d"/>
      <use x="1195.605469" xlink:href="#DejaVuSans-62"/>
      <use x="1259.082031" xlink:href="#DejaVuSans-65"/>
      <use x="1320.605469" xlink:href="#DejaVuSans-72"/>
      <use x="1361.71875" xlink:href="#DejaVuSans-2f"/>
      <use x="1395.410156" xlink:href="#DejaVuSans-61"/>
      <use x="1456.689453" xlink:href="#DejaVuSans-72"/>
      <use x="1497.771484" xlink:href="#DejaVuSans-65"/>
      <use x="1559.294922" xlink:href="#DejaVuSans-61"/>
      <use x="1620.574219" xlink:href="#DejaVuSans-20"/>
      <use x="1652.361328" xlink:href="#DejaVuSans-69"/>
      <use x="1680.144531" xlink:href="#DejaVuSans-6e"/>
      <use x="1743.523438" xlink:href="#DejaVuSans-20"/>
      <use x="1775.310547" xlink:href="#DejaVuSans-6b"/>
      <use x="1833.220703" xlink:href="#DejaVuSans-6d"/>
      <use x="1930.632812" xlink:href="#DejaVuSans-b2"/>
      <use x="1970.720703" xlink:href="#DejaVuSans-29"/>
     </g>
    </g>
   </g>
   <g id="PathCollection_1">
    <defs>
     <path d="M 0 6 
C 1.591219 6 3.117479 5.367802 4.242641 4.242641 
C 5.367802 3.117479 6 1.591219 6 0 
C 6 -1.591219 5.367802 -3.117479 4.242641 -4.242641 
C 3.117479 -5.367802 1.591219 -6 0 -6 
C -1.591219 -6 -3.117479 -5.367802 -4.242641 -4.242641 
C -5.367802 -3.117479 -6 -1.591219 -6 0 
C -6 1.591219 -5.367802 3.117479 -4.242641 4.242641 
C -3.117479 5.367802 -1.591219 6 0 6 
z
" id="mc3a079668f" style="stroke:#4c72b0;stroke-opacity:0.8;"/>
    </defs>
    <g clip-path="url(#p35b4dd7209)">
     <use style="fill:#4c72b0;fill-opacity:0.8;stroke:#4c72b0;stroke-opacity:0.8;" x="182.619125" xlink:href="#mc3a079668f" y="451.675989"/>
     <use style="fill:#4c72b0;fill-opacity:0.8;stroke:#4c72b0;stroke-opacity:0.8;" x="148.239125" xlink:href="#mc3a079668f" y="426.634442"/>
     <use style="fill:#4c72b0;fill-opacity:0.8;stroke:#4c72b0;stroke-opacity:0.8;" x="250.239125" xlink:href="#mc3a079668f" y="506.383588"/>
     <use style="fill:#4c72b0;fill-opacity:0.8;stroke:#4c72b0;stroke-opacity:0.8;" x="269.559125" xlink:href="#mc3a079668f" y="550.396533"/>
     <use style="fill:#4c72b0;fill-opacity:0.8;stroke:#4c72b0;stroke-opacity:0.8;" x="178.239125" xlink:href="#mc3a079668f" y="530.82581"/>
     <use style="fill:#4c72b0;fill-opacity:0.8;stroke:#4c72b0;stroke-opacity:0.8;" x="220.959125" xlink:href="#mc3a079668f" y="570.85518"/>
     <use style="fill:#4c72b0;fill-opacity:0.8;stroke:#4c72b0;stroke-opacity:0.8;" x="318.219125" xlink:href="#mc3a079668f" y="569.326146"/>
     <use style="fill:#4c72b0;fill-opacity:0.8;stroke:#4c72b0;stroke-opacity:0.8;" x="520.239125" xlink:href="#mc3a079668f" y="414.107829"/>
     <use style="fill:#4c72b0;fill-opacity:0.8;stroke:#4c72b0;stroke-opacity:0.8;" x="301.239125" xlink:href="#mc3a079668f" y="535.175755"/>
     <use style="fill:#4c72b0;fill-opacity:0.8;stroke:#4c72b0;stroke-opacity:0.8;" x="145.239125" xlink:href="#mc3a079668f" y="192.728086"/>
     <use style="fill:#4c72b0;fill-opacity:0.8;stroke:#4c72b0;stroke-opacity:0.8;" x="289.239125" xlink:href="#mc3a079668f" y="532.54063"/>
     <use style="fill:#4c72b0;fill-opacity:0.8;stroke:#4c72b0;stroke-opacity:0.8;" x="289.239125" xlink:href="#mc3a079668f" y="559.538418"/>
     <use style="fill:#4c72b0;fill-opacity:0.8;stroke:#4c72b0;stroke-opacity:0.8;" x="335.739125" xlink:href="#mc3a079668f" y="495.014773"/>
     <use style="fill:#4c72b0;fill-opacity:0.8;stroke:#4c72b0;stroke-opacity:0.8;" x="178.239125" xlink:href="#mc3a079668f" y="439.936026"/>
     <use style="fill:#4c72b0;fill-opacity:0.8;stroke:#4c72b0;stroke-opacity:0.8;" x="167.499125" xlink:href="#mc3a079668f" y="509.074752"/>
     <use style="fill:#4c72b0;fill-opacity:0.8;stroke:#4c72b0;stroke-opacity:0.8;" x="126.039125" xlink:href="#mc3a079668f" y="535.188013"/>
     <use style="fill:#4c72b0;fill-opacity:0.8;stroke:#4c72b0;stroke-opacity:0.8;" x="121.719125" xlink:href="#mc3a079668f" y="566.204139"/>
     <use style="fill:#4c72b0;fill-opacity:0.8;stroke:#4c72b0;stroke-opacity:0.8;" x="125.319125" xlink:href="#mc3a079668f" y="565.970373"/>
     <use style="fill:#4c72b0;fill-opacity:0.8;stroke:#4c72b0;stroke-opacity:0.8;" x="191.139125" xlink:href="#mc3a079668f" y="496.302088"/>
     <use style="fill:#4c72b0;fill-opacity:0.8;stroke:#4c72b0;stroke-opacity:0.8;" x="279.159125" xlink:href="#mc3a079668f" y="564.687854"/>
     <use style="fill:#4c72b0;fill-opacity:0.8;stroke:#4c72b0;stroke-opacity:0.8;" x="226.299125" xlink:href="#mc3a079668f" y="549.494915"/>
     <use style="fill:#4c72b0;fill-opacity:0.8;stroke:#4c72b0;stroke-opacity:0.8;" x="264.939125" xlink:href="#mc3a079668f" y="380.165944"/>
     <use style="fill:#4c72b0;fill-opacity:0.8;stroke:#4c72b0;stroke-opacity:0.8;" x="178.239125" xlink:href="#mc3a079668f" y="536.960695"/>
     <use style="fill:#4c72b0;fill-opacity:0.8;stroke:#4c72b0;stroke-opacity:0.8;" x="133.239125" xlink:href="#mc3a079668f" y="548.402794"/>
     <use style="fill:#4c72b0;fill-opacity:0.8;stroke:#4c72b0;stroke-opacity:0.8;" x="283.239125" xlink:href="#mc3a079668f" y="497.124275"/>
     <use style="fill:#4c72b0;fill-opacity:0.8;stroke:#4c72b0;stroke-opacity:0.8;" x="343.239125" xlink:href="#mc3a079668f" y="497.481339"/>
     <use style="fill:#4c72b0;fill-opacity:0.8;stroke:#4c72b0;stroke-opacity:0.8;" x="275.739125" xlink:href="#mc3a079668f" y="422.882813"/>
     <use style="fill:#4c72b0;fill-opacity:0.8;stroke:#4c72b0;stroke-opacity:0.8;" x="195.399125" xlink:href="#mc3a079668f" y="556.173724"/>
     <use style="fill:#4c72b0;fill-opacity:0.8;stroke:#4c72b0;stroke-opacity:0.8;" x="433.239125" xlink:href="#mc3a079668f" y="150.591176"/>
     <use style="fill:#4c72b0;fill-opacity:0.8;stroke:#4c72b0;stroke-opacity:0.8;" x="433.239125" xlink:href="#mc3a079668f" y="282.933057"/>
     <use style="fill:#4c72b0;fill-opacity:0.8;stroke:#4c72b0;stroke-opacity:0.8;" x="163.239125" xlink:href="#mc3a079668f" y="505.810825"/>
     <use style="fill:#4c72b0;fill-opacity:0.8;stroke:#4c72b0;stroke-opacity:0.8;" x="415.239125" xlink:href="#mc3a079668f" y="565.776018"/>
     <use style="fill:#4c72b0;fill-opacity:0.8;stroke:#4c72b0;stroke-opacity:0.8;" x="286.959125" xlink:href="#mc3a079668f" y="457.15225"/>
     <use style="fill:#4c72b0;fill-opacity:0.8;stroke:#4c72b0;stroke-opacity:0.8;" x="201.999125" xlink:href="#mc3a079668f" y="551.96788"/>
     <use style="fill:#4c72b0;fill-opacity:0.8;stroke:#4c72b0;stroke-opacity:0.8;" x="496.239125" xlink:href="#mc3a079668f" y="471.295802"/>
     <use style="fill:#4c72b0;fill-opacity:0.8;stroke:#4c72b0;stroke-opacity:0.8;" x="508.239125" xlink:href="#mc3a079668f" y="499.972242"/>
     <use style="fill:#4c72b0;fill-opacity:0.8;stroke:#4c72b0;stroke-opacity:0.8;" x="283.239125" xlink:href="#mc3a079668f" y="545.64018"/>
     <use style="fill:#4c72b0;fill-opacity:0.8;stroke:#4c72b0;stroke-opacity:0.8;" x="185.439125" xlink:href="#mc3a079668f" y="523.038392"/>
     <use style="fill:#4c72b0;fill-opacity:0.8;stroke:#4c72b0;stroke-opacity:0.8;" x="288.219125" xlink:href="#mc3a079668f" y="516.800798"/>
     <use style="fill:#4c72b0;fill-opacity:0.8;stroke:#4c72b0;stroke-opacity:0.8;" x="388.239125" xlink:href="#mc3a079668f" y="451.094451"/>
     <use style="fill:#4c72b0;fill-opacity:0.8;stroke:#4c72b0;stroke-opacity:0.8;" x="268.239125" xlink:href="#mc3a079668f" y="455.671442"/>
     <use style="fill:#4c72b0;fill-opacity:0.8;stroke:#4c72b0;stroke-opacity:0.8;" x="148.239125" xlink:href="#mc3a079668f" y="593.133794"/>
     <use style="fill:#4c72b0;fill-opacity:0.8;stroke:#4c72b0;stroke-opacity:0.8;" x="268.239125" xlink:href="#mc3a079668f" y="501.881192"/>
     <use style="fill:#4c72b0;fill-opacity:0.8;stroke:#4c72b0;stroke-opacity:0.8;" x="408.219125" xlink:href="#mc3a079668f" y="99.241981"/>
     <use style="fill:#4c72b0;fill-opacity:0.8;stroke:#4c72b0;stroke-opacity:0.8;" x="313.239125" xlink:href="#mc3a079668f" y="517.955039"/>
     <use style="fill:#4c72b0;fill-opacity:0.8;stroke:#4c72b0;stroke-opacity:0.8;" x="464.919125" xlink:href="#mc3a079668f" y="513.664822"/>
     <use style="fill:#4c72b0;fill-opacity:0.8;stroke:#4c72b0;stroke-opacity:0.8;" x="328.239125" xlink:href="#mc3a079668f" y="463.048819"/>
     <use style="fill:#4c72b0;fill-opacity:0.8;stroke:#4c72b0;stroke-opacity:0.8;" x="346.239125" xlink:href="#mc3a079668f" y="370.676693"/>
     <use style="fill:#4c72b0;fill-opacity:0.8;stroke:#4c72b0;stroke-opacity:0.8;" x="388.239125" xlink:href="#mc3a079668f" y="428.773352"/>
     <use style="fill:#4c72b0;fill-opacity:0.8;stroke:#4c72b0;stroke-opacity:0.8;" x="243.219125" xlink:href="#mc3a079668f" y="584.32783"/>
     <use style="fill:#4c72b0;fill-opacity:0.8;stroke:#4c72b0;stroke-opacity:0.8;" x="343.239125" xlink:href="#mc3a079668f" y="300.334989"/>
     <use style="fill:#4c72b0;fill-opacity:0.8;stroke:#4c72b0;stroke-opacity:0.8;" x="223.239125" xlink:href="#mc3a079668f" y="536.924301"/>
     <use style="fill:#4c72b0;fill-opacity:0.8;stroke:#4c72b0;stroke-opacity:0.8;" x="223.239125" xlink:href="#mc3a079668f" y="401.310381"/>
    </g>
   </g>
   <g id="PolyCollection_1">
    <defs>
     <path d="M 101.549798 -202.91252 
L 101.549798 -92.528186 
L 105.982714 -95.52724 
L 110.415629 -98.526294 
L 114.848545 -101.525348 
L 119.281461 -104.404818 
L 123.714376 -107.175851 
L 128.147292 -109.949061 
L 132.580208 -112.600773 
L 137.013123 -115.172494 
L 141.446039 -117.744216 
L 145.878955 -120.597703 
L 150.311871 -123.146996 
L 154.744786 -125.802941 
L 159.177702 -128.478424 
L 163.610618 -131.137405 
L 168.043533 -133.616553 
L 172.476449 -135.998147 
L 176.909365 -138.500027 
L 181.34228 -141.003755 
L 185.775196 -143.508503 
L 190.208112 -145.958291 
L 194.641028 -148.500744 
L 199.073943 -150.976658 
L 203.506859 -153.5047 
L 207.939775 -155.701879 
L 212.37269 -158.099325 
L 216.805606 -160.181609 
L 221.238522 -161.902067 
L 225.671437 -163.966679 
L 230.104353 -166.018124 
L 234.537269 -167.643798 
L 238.970185 -169.15007 
L 243.4031 -170.989635 
L 247.836016 -172.662947 
L 252.268932 -174.507046 
L 256.701847 -175.867207 
L 261.134763 -177.222074 
L 265.567679 -178.559878 
L 270.000594 -179.924008 
L 274.43351 -181.268704 
L 278.866426 -182.61592 
L 283.299342 -183.701439 
L 287.732257 -184.046152 
L 292.165173 -185.349623 
L 296.598089 -185.950016 
L 301.031004 -186.88235 
L 305.46392 -187.308445 
L 309.896836 -187.643678 
L 314.329751 -187.848356 
L 318.762667 -188.332159 
L 323.195583 -189.136426 
L 327.628499 -189.455379 
L 332.061414 -190.274809 
L 336.49433 -191.29136 
L 340.927246 -191.907535 
L 345.360161 -192.480508 
L 349.793077 -193.070208 
L 354.225993 -193.759472 
L 358.658908 -194.25266 
L 363.091824 -194.839309 
L 367.52474 -195.394415 
L 371.957656 -195.672449 
L 376.390571 -196.403107 
L 380.823487 -197.088205 
L 385.256403 -197.890735 
L 389.689318 -198.636609 
L 394.122234 -199.36815 
L 398.55515 -199.625481 
L 402.988065 -199.934111 
L 407.420981 -200.123775 
L 411.853897 -200.370698 
L 416.286813 -200.6179 
L 420.719728 -200.865101 
L 425.152644 -201.112303 
L 429.58556 -201.359504 
L 434.018475 -201.853311 
L 438.451391 -202.696229 
L 442.884307 -203.441054 
L 447.317222 -203.727737 
L 451.750138 -204.503668 
L 456.183054 -205.297414 
L 460.61597 -205.606581 
L 465.048885 -206.163393 
L 469.481801 -206.644945 
L 473.914717 -206.880549 
L 478.347632 -207.11844 
L 482.780548 -207.364728 
L 487.213464 -207.611017 
L 491.646379 -207.915648 
L 496.079295 -208.47524 
L 500.512211 -208.97931 
L 504.945127 -209.087128 
L 509.378042 -208.966729 
L 513.810958 -209.401412 
L 518.243874 -209.443619 
L 522.676789 -209.522479 
L 527.109705 -209.755691 
L 531.542621 -209.988904 
L 535.975536 -210.222116 
L 540.408452 -210.455328 
L 540.408452 -398.744963 
L 540.408452 -398.744963 
L 535.975536 -395.668369 
L 531.542621 -392.585887 
L 527.109705 -389.498814 
L 522.676789 -386.411741 
L 518.243874 -383.324668 
L 513.810958 -380.303415 
L 509.378042 -377.432337 
L 504.945127 -374.56126 
L 500.512211 -371.690183 
L 496.079295 -368.819106 
L 491.646379 -365.948029 
L 487.213464 -363.076952 
L 482.780548 -360.197633 
L 478.347632 -357.18391 
L 473.914717 -354.168677 
L 469.481801 -351.154671 
L 465.048885 -348.143228 
L 460.61597 -345.12819 
L 456.183054 -342.111407 
L 451.750138 -339.036011 
L 447.317222 -335.931103 
L 442.884307 -332.864873 
L 438.451391 -330.053427 
L 434.018475 -327.044885 
L 429.58556 -324.53914 
L 425.152644 -321.72919 
L 420.719728 -318.611376 
L 416.286813 -315.800537 
L 411.853897 -312.45735 
L 407.420981 -310.243569 
L 402.988065 -307.778356 
L 398.55515 -304.887682 
L 394.122234 -301.997008 
L 389.689318 -299.106334 
L 385.256403 -296.21566 
L 380.823487 -293.324986 
L 376.390571 -290.431057 
L 371.957656 -287.664739 
L 367.52474 -284.650394 
L 363.091824 -281.89501 
L 358.658908 -279.18907 
L 354.225993 -276.855136 
L 349.793077 -274.192658 
L 345.360161 -271.647905 
L 340.927246 -268.981489 
L 336.49433 -267.088753 
L 332.061414 -264.786724 
L 327.628499 -262.232328 
L 323.195583 -258.725249 
L 318.762667 -255.889022 
L 314.329751 -252.94287 
L 309.896836 -250.085514 
L 305.46392 -247.966602 
L 301.031004 -246.092729 
L 296.598089 -243.718044 
L 292.165173 -241.373956 
L 287.732257 -239.217546 
L 283.299342 -237.469105 
L 278.866426 -235.615032 
L 274.43351 -233.947281 
L 270.000594 -232.380108 
L 265.567679 -230.926543 
L 261.134763 -229.84717 
L 256.701847 -228.42577 
L 252.268932 -226.409202 
L 247.836016 -225.027644 
L 243.4031 -223.172544 
L 238.970185 -221.477038 
L 234.537269 -219.89217 
L 230.104353 -219.141234 
L 225.671437 -218.627674 
L 221.238522 -217.867761 
L 216.805606 -215.680852 
L 212.37269 -214.178576 
L 207.939775 -213.177979 
L 203.506859 -212.939666 
L 199.073943 -212.22332 
L 194.641028 -211.11722 
L 190.208112 -210.517796 
L 185.775196 -210.113274 
L 181.34228 -209.846206 
L 176.909365 -208.87224 
L 172.476449 -208.227828 
L 168.043533 -207.644422 
L 163.610618 -207.061017 
L 159.177702 -206.491368 
L 154.744786 -206.125974 
L 150.311871 -205.357725 
L 145.878955 -205.124692 
L 141.446039 -204.905228 
L 137.013123 -205.055407 
L 132.580208 -205.411262 
L 128.147292 -204.912388 
L 123.714376 -205.004667 
L 119.281461 -204.78091 
L 114.848545 -204.471279 
L 110.415629 -203.700684 
L 105.982714 -203.14293 
L 101.549798 -202.91252 
z
" id="mdc5fecaeca" style="stroke:#ffffff;stroke-opacity:0.15;stroke-width:2;"/>
    </defs>
    <g clip-path="url(#p35b4dd7209)">
     <use style="fill:#4c72b0;fill-opacity:0.15;stroke:#ffffff;stroke-opacity:0.15;stroke-width:2;" x="0" xlink:href="#mdc5fecaeca" y="682.529356"/>
    </g>
   </g>
   <g id="line2d_11">
    <path clip-path="url(#p35b4dd7209)" d="M 101.549798 537.042008 
L 105.982714 535.51425 
L 110.415629 533.986493 
L 114.848545 532.458735 
L 119.281461 530.930977 
L 123.714376 529.403219 
L 128.147292 527.875462 
L 132.580208 526.347704 
L 137.013123 524.819946 
L 141.446039 523.292189 
L 145.878955 521.764431 
L 150.311871 520.236673 
L 154.744786 518.708915 
L 159.177702 517.181158 
L 163.610618 515.6534 
L 168.043533 514.125642 
L 172.476449 512.597885 
L 176.909365 511.070127 
L 181.34228 509.542369 
L 185.775196 508.014611 
L 190.208112 506.486854 
L 194.641028 504.959096 
L 199.073943 503.431338 
L 203.506859 501.90358 
L 207.939775 500.375823 
L 212.37269 498.848065 
L 216.805606 497.320307 
L 221.238522 495.79255 
L 225.671437 494.264792 
L 230.104353 492.737034 
L 234.537269 491.209276 
L 238.970185 489.681519 
L 243.4031 488.153761 
L 247.836016 486.626003 
L 252.268932 485.098246 
L 256.701847 483.570488 
L 261.134763 482.04273 
L 265.567679 480.514972 
L 270.000594 478.987215 
L 274.43351 477.459457 
L 278.866426 475.931699 
L 283.299342 474.403942 
L 287.732257 472.876184 
L 292.165173 471.348426 
L 296.598089 469.820668 
L 301.031004 468.292911 
L 305.46392 466.765153 
L 309.896836 465.237395 
L 314.329751 463.709638 
L 318.762667 462.18188 
L 323.195583 460.654122 
L 327.628499 459.126364 
L 332.061414 457.598607 
L 336.49433 456.070849 
L 340.927246 454.543091 
L 345.360161 453.015333 
L 349.793077 451.487576 
L 354.225993 449.959818 
L 358.658908 448.43206 
L 363.091824 446.904303 
L 367.52474 445.376545 
L 371.957656 443.848787 
L 376.390571 442.321029 
L 380.823487 440.793272 
L 385.256403 439.265514 
L 389.689318 437.737756 
L 394.122234 436.209999 
L 398.55515 434.682241 
L 402.988065 433.154483 
L 407.420981 431.626725 
L 411.853897 430.098968 
L 416.286813 428.57121 
L 420.719728 427.043452 
L 425.152644 425.515695 
L 429.58556 423.987937 
L 434.018475 422.460179 
L 438.451391 420.932421 
L 442.884307 419.404664 
L 447.317222 417.876906 
L 451.750138 416.349148 
L 456.183054 414.821391 
L 460.61597 413.293633 
L 465.048885 411.765875 
L 469.481801 410.238117 
L 473.914717 408.71036 
L 478.347632 407.182602 
L 482.780548 405.654844 
L 487.213464 404.127086 
L 491.646379 402.599329 
L 496.079295 401.071571 
L 500.512211 399.543813 
L 504.945127 398.016056 
L 509.378042 396.488298 
L 513.810958 394.96054 
L 518.243874 393.432782 
L 522.676789 391.905025 
L 527.109705 390.377267 
L 531.542621 388.849509 
L 535.975536 387.321752 
L 540.408452 385.793994 
" style="fill:none;stroke:#4c72b0;stroke-linecap:round;stroke-width:4.5;"/>
   </g>
   <g id="patch_3">
    <path d="M 70.239125 617.987888 
L 70.239125 74.387887 
" style="fill:none;stroke:#ffffff;stroke-linecap:square;stroke-linejoin:miter;stroke-width:2.5;"/>
   </g>
   <g id="patch_4">
    <path d="M 628.239125 617.987888 
L 628.239125 74.387887 
" style="fill:none;stroke:#ffffff;stroke-linecap:square;stroke-linejoin:miter;stroke-width:2.5;"/>
   </g>
   <g id="patch_5">
    <path d="M 70.239125 617.987887 
L 628.239125 617.987887 
" style="fill:none;stroke:#ffffff;stroke-linecap:square;stroke-linejoin:miter;stroke-width:2.5;"/>
   </g>
   <g id="patch_6">
    <path d="M 70.239125 74.387887 
L 628.239125 74.387887 
" style="fill:none;stroke:#ffffff;stroke-linecap:square;stroke-linejoin:miter;stroke-width:2.5;"/>
   </g>
   <g id="text_13">
    <!-- Entire Year (53 data points) -->
    <defs>
     <path d="M 9.8125 72.90625 
L 55.90625 72.90625 
L 55.90625 64.59375 
L 19.671875 64.59375 
L 19.671875 43.015625 
L 54.390625 43.015625 
L 54.390625 34.71875 
L 19.671875 34.71875 
L 19.671875 8.296875 
L 56.78125 8.296875 
L 56.78125 0 
L 9.8125 0 
z
" id="DejaVuSans-45"/>
     <path d="M -0.203125 72.90625 
L 10.40625 72.90625 
L 30.609375 42.921875 
L 50.6875 72.90625 
L 61.28125 72.90625 
L 35.5 34.71875 
L 35.5 0 
L 25.59375 0 
L 25.59375 34.71875 
z
" id="DejaVuSans-59"/>
     <path d="M 10.796875 72.90625 
L 49.515625 72.90625 
L 49.515625 64.59375 
L 19.828125 64.59375 
L 19.828125 46.734375 
Q 21.96875 47.46875 24.109375 47.828125 
Q 26.265625 48.1875 28.421875 48.1875 
Q 40.625 48.1875 47.75 41.5 
Q 54.890625 34.8125 54.890625 23.390625 
Q 54.890625 11.625 47.5625 5.09375 
Q 40.234375 -1.421875 26.90625 -1.421875 
Q 22.3125 -1.421875 17.546875 -0.640625 
Q 12.796875 0.140625 7.71875 1.703125 
L 7.71875 11.625 
Q 12.109375 9.234375 16.796875 8.0625 
Q 21.484375 6.890625 26.703125 6.890625 
Q 35.15625 6.890625 40.078125 11.328125 
Q 45.015625 15.765625 45.015625 23.390625 
Q 45.015625 31 40.078125 35.4375 
Q 35.15625 39.890625 26.703125 39.890625 
Q 22.75 39.890625 18.8125 39.015625 
Q 14.890625 38.140625 10.796875 36.28125 
z
" id="DejaVuSans-35"/>
     <path d="M 18.109375 8.203125 
L 18.109375 -20.796875 
L 9.078125 -20.796875 
L 9.078125 54.6875 
L 18.109375 54.6875 
L 18.109375 46.390625 
Q 20.953125 51.265625 25.265625 53.625 
Q 29.59375 56 35.59375 56 
Q 45.5625 56 51.78125 48.09375 
Q 58.015625 40.1875 58.015625 27.296875 
Q 58.015625 14.40625 51.78125 6.484375 
Q 45.5625 -1.421875 35.59375 -1.421875 
Q 29.59375 -1.421875 25.265625 0.953125 
Q 20.953125 3.328125 18.109375 8.203125 
z
M 48.6875 27.296875 
Q 48.6875 37.203125 44.609375 42.84375 
Q 40.53125 48.484375 33.40625 48.484375 
Q 26.265625 48.484375 22.1875 42.84375 
Q 18.109375 37.203125 18.109375 27.296875 
Q 18.109375 17.390625 22.1875 11.75 
Q 26.265625 6.109375 33.40625 6.109375 
Q 40.53125 6.109375 44.609375 11.75 
Q 48.6875 17.390625 48.6875 27.296875 
z
" id="DejaVuSans-70"/>
    </defs>
    <g style="fill:#262626;" transform="translate(207.894219 22.700812)scale(0.204 -0.204)">
     <use xlink:href="#DejaVuSans-45"/>
     <use x="63.183594" xlink:href="#DejaVuSans-6e"/>
     <use x="126.5625" xlink:href="#DejaVuSans-74"/>
     <use x="165.771484" xlink:href="#DejaVuSans-69"/>
     <use x="193.554688" xlink:href="#DejaVuSans-72"/>
     <use x="234.636719" xlink:href="#DejaVuSans-65"/>
     <use x="296.160156" xlink:href="#DejaVuSans-20"/>
     <use x="327.947266" xlink:href="#DejaVuSans-59"/>
     <use x="388.828125" xlink:href="#DejaVuSans-65"/>
     <use x="450.351562" xlink:href="#DejaVuSans-61"/>
     <use x="511.630859" xlink:href="#DejaVuSans-72"/>
     <use x="552.744141" xlink:href="#DejaVuSans-20"/>
     <use x="584.53125" xlink:href="#DejaVuSans-28"/>
     <use x="623.544922" xlink:href="#DejaVuSans-35"/>
     <use x="687.167969" xlink:href="#DejaVuSans-33"/>
     <use x="750.791016" xlink:href="#DejaVuSans-20"/>
     <use x="782.578125" xlink:href="#DejaVuSans-64"/>
     <use x="846.054688" xlink:href="#DejaVuSans-61"/>
     <use x="907.333984" xlink:href="#DejaVuSans-74"/>
     <use x="946.542969" xlink:href="#DejaVuSans-61"/>
     <use x="1007.822266" xlink:href="#DejaVuSans-20"/>
     <use x="1039.609375" xlink:href="#DejaVuSans-70"/>
     <use x="1103.085938" xlink:href="#DejaVuSans-6f"/>
     <use x="1164.267578" xlink:href="#DejaVuSans-69"/>
     <use x="1192.050781" xlink:href="#DejaVuSans-6e"/>
     <use x="1255.429688" xlink:href="#DejaVuSans-74"/>
     <use x="1294.638672" xlink:href="#DejaVuSans-73"/>
     <use x="1346.738281" xlink:href="#DejaVuSans-29"/>
    </g>
    <!-- Pearson: 0.3416, p-value: 0.0123 -->
    <defs>
     <path d="M 19.671875 64.796875 
L 19.671875 37.40625 
L 32.078125 37.40625 
Q 38.96875 37.40625 42.71875 40.96875 
Q 46.484375 44.53125 46.484375 51.125 
Q 46.484375 57.671875 42.71875 61.234375 
Q 38.96875 64.796875 32.078125 64.796875 
z
M 9.8125 72.90625 
L 32.078125 72.90625 
Q 44.34375 72.90625 50.609375 67.359375 
Q 56.890625 61.8125 56.890625 51.125 
Q 56.890625 40.328125 50.609375 34.8125 
Q 44.34375 29.296875 32.078125 29.296875 
L 19.671875 29.296875 
L 19.671875 0 
L 9.8125 0 
z
" id="DejaVuSans-50"/>
     <path d="M 11.71875 12.40625 
L 22.015625 12.40625 
L 22.015625 0 
L 11.71875 0 
z
M 11.71875 51.703125 
L 22.015625 51.703125 
L 22.015625 39.3125 
L 11.71875 39.3125 
z
" id="DejaVuSans-3a"/>
     <path d="M 10.6875 12.40625 
L 21 12.40625 
L 21 0 
L 10.6875 0 
z
" id="DejaVuSans-2e"/>
     <path d="M 11.71875 12.40625 
L 22.015625 12.40625 
L 22.015625 4 
L 14.015625 -11.625 
L 7.71875 -11.625 
L 11.71875 4 
z
" id="DejaVuSans-2c"/>
     <path d="M 4.890625 31.390625 
L 31.203125 31.390625 
L 31.203125 23.390625 
L 4.890625 23.390625 
z
" id="DejaVuSans-2d"/>
     <path d="M 2.984375 54.6875 
L 12.5 54.6875 
L 29.59375 8.796875 
L 46.6875 54.6875 
L 56.203125 54.6875 
L 35.6875 0 
L 23.484375 0 
z
" id="DejaVuSans-76"/>
     <path d="M 9.421875 75.984375 
L 18.40625 75.984375 
L 18.40625 0 
L 9.421875 0 
z
" id="DejaVuSans-6c"/>
    </defs>
    <g style="fill:#262626;" transform="translate(179.120656 45.54435)scale(0.204 -0.204)">
     <use xlink:href="#DejaVuSans-50"/>
     <use x="60.255859" xlink:href="#DejaVuSans-65"/>
     <use x="121.779297" xlink:href="#DejaVuSans-61"/>
     <use x="183.058594" xlink:href="#DejaVuSans-72"/>
     <use x="224.171875" xlink:href="#DejaVuSans-73"/>
     <use x="276.271484" xlink:href="#DejaVuSans-6f"/>
     <use x="337.453125" xlink:href="#DejaVuSans-6e"/>
     <use x="400.832031" xlink:href="#DejaVuSans-3a"/>
     <use x="434.523438" xlink:href="#DejaVuSans-20"/>
     <use x="466.310547" xlink:href="#DejaVuSans-30"/>
     <use x="529.933594" xlink:href="#DejaVuSans-2e"/>
     <use x="561.720703" xlink:href="#DejaVuSans-33"/>
     <use x="625.34375" xlink:href="#DejaVuSans-34"/>
     <use x="688.966797" xlink:href="#DejaVuSans-31"/>
     <use x="752.589844" xlink:href="#DejaVuSans-36"/>
     <use x="816.212891" xlink:href="#DejaVuSans-2c"/>
     <use x="848" xlink:href="#DejaVuSans-20"/>
     <use x="879.787109" xlink:href="#DejaVuSans-70"/>
     <use x="943.263672" xlink:href="#DejaVuSans-2d"/>
     <use x="979.316406" xlink:href="#DejaVuSans-76"/>
     <use x="1038.496094" xlink:href="#DejaVuSans-61"/>
     <use x="1099.775391" xlink:href="#DejaVuSans-6c"/>
     <use x="1127.558594" xlink:href="#DejaVuSans-75"/>
     <use x="1190.9375" xlink:href="#DejaVuSans-65"/>
     <use x="1252.460938" xlink:href="#DejaVuSans-3a"/>
     <use x="1286.152344" xlink:href="#DejaVuSans-20"/>
     <use x="1317.939453" xlink:href="#DejaVuSans-30"/>
     <use x="1381.5625" xlink:href="#DejaVuSans-2e"/>
     <use x="1413.349609" xlink:href="#DejaVuSans-30"/>
     <use x="1476.972656" xlink:href="#DejaVuSans-31"/>
     <use x="1540.595703" xlink:href="#DejaVuSans-32"/>
     <use x="1604.21875" xlink:href="#DejaVuSans-33"/>
    </g>
    <!-- Spearman: 0.3579, p-value: 0.0085 -->
    <defs>
     <path d="M 53.515625 70.515625 
L 53.515625 60.890625 
Q 47.90625 63.578125 42.921875 64.890625 
Q 37.9375 66.21875 33.296875 66.21875 
Q 25.25 66.21875 20.875 63.09375 
Q 16.5 59.96875 16.5 54.203125 
Q 16.5 49.359375 19.40625 46.890625 
Q 22.3125 44.4375 30.421875 42.921875 
L 36.375 41.703125 
Q 47.40625 39.59375 52.65625 34.296875 
Q 57.90625 29 57.90625 20.125 
Q 57.90625 9.515625 50.796875 4.046875 
Q 43.703125 -1.421875 29.984375 -1.421875 
Q 24.8125 -1.421875 18.96875 -0.25 
Q 13.140625 0.921875 6.890625 3.21875 
L 6.890625 13.375 
Q 12.890625 10.015625 18.65625 8.296875 
Q 24.421875 6.59375 29.984375 6.59375 
Q 38.421875 6.59375 43.015625 9.90625 
Q 47.609375 13.234375 47.609375 19.390625 
Q 47.609375 24.75 44.3125 27.78125 
Q 41.015625 30.8125 33.5 32.328125 
L 27.484375 33.5 
Q 16.453125 35.6875 11.515625 40.375 
Q 6.59375 45.0625 6.59375 53.421875 
Q 6.59375 63.09375 13.40625 68.65625 
Q 20.21875 74.21875 32.171875 74.21875 
Q 37.3125 74.21875 42.625 73.28125 
Q 47.953125 72.359375 53.515625 70.515625 
z
" id="DejaVuSans-53"/>
     <path d="M 8.203125 72.90625 
L 55.078125 72.90625 
L 55.078125 68.703125 
L 28.609375 0 
L 18.3125 0 
L 43.21875 64.59375 
L 8.203125 64.59375 
z
" id="DejaVuSans-37"/>
     <path d="M 10.984375 1.515625 
L 10.984375 10.5 
Q 14.703125 8.734375 18.5 7.8125 
Q 22.3125 6.890625 25.984375 6.890625 
Q 35.75 6.890625 40.890625 13.453125 
Q 46.046875 20.015625 46.78125 33.40625 
Q 43.953125 29.203125 39.59375 26.953125 
Q 35.25 24.703125 29.984375 24.703125 
Q 19.046875 24.703125 12.671875 31.3125 
Q 6.296875 37.9375 6.296875 49.421875 
Q 6.296875 60.640625 12.9375 67.421875 
Q 19.578125 74.21875 30.609375 74.21875 
Q 43.265625 74.21875 49.921875 64.515625 
Q 56.59375 54.828125 56.59375 36.375 
Q 56.59375 19.140625 48.40625 8.859375 
Q 40.234375 -1.421875 26.421875 -1.421875 
Q 22.703125 -1.421875 18.890625 -0.6875 
Q 15.09375 0.046875 10.984375 1.515625 
z
M 30.609375 32.421875 
Q 37.25 32.421875 41.125 36.953125 
Q 45.015625 41.5 45.015625 49.421875 
Q 45.015625 57.28125 41.125 61.84375 
Q 37.25 66.40625 30.609375 66.40625 
Q 23.96875 66.40625 20.09375 61.84375 
Q 16.21875 57.28125 16.21875 49.421875 
Q 16.21875 41.5 20.09375 36.953125 
Q 23.96875 32.421875 30.609375 32.421875 
z
" id="DejaVuSans-39"/>
    </defs>
    <g style="fill:#262626;" transform="translate(167.6855 68.387887)scale(0.204 -0.204)">
     <use xlink:href="#DejaVuSans-53"/>
     <use x="63.476562" xlink:href="#DejaVuSans-70"/>
     <use x="126.953125" xlink:href="#DejaVuSans-65"/>
     <use x="188.476562" xlink:href="#DejaVuSans-61"/>
     <use x="249.755859" xlink:href="#DejaVuSans-72"/>
     <use x="290.853516" xlink:href="#DejaVuSans-6d"/>
     <use x="388.265625" xlink:href="#DejaVuSans-61"/>
     <use x="449.544922" xlink:href="#DejaVuSans-6e"/>
     <use x="512.923828" xlink:href="#DejaVuSans-3a"/>
     <use x="546.615234" xlink:href="#DejaVuSans-20"/>
     <use x="578.402344" xlink:href="#DejaVuSans-30"/>
     <use x="642.025391" xlink:href="#DejaVuSans-2e"/>
     <use x="673.8125" xlink:href="#DejaVuSans-33"/>
     <use x="737.435547" xlink:href="#DejaVuSans-35"/>
     <use x="801.058594" xlink:href="#DejaVuSans-37"/>
     <use x="864.681641" xlink:href="#DejaVuSans-39"/>
     <use x="928.304688" xlink:href="#DejaVuSans-2c"/>
     <use x="960.091797" xlink:href="#DejaVuSans-20"/>
     <use x="991.878906" xlink:href="#DejaVuSans-70"/>
     <use x="1055.355469" xlink:href="#DejaVuSans-2d"/>
     <use x="1091.408203" xlink:href="#DejaVuSans-76"/>
     <use x="1150.587891" xlink:href="#DejaVuSans-61"/>
     <use x="1211.867188" xlink:href="#DejaVuSans-6c"/>
     <use x="1239.650391" xlink:href="#DejaVuSans-75"/>
     <use x="1303.029297" xlink:href="#DejaVuSans-65"/>
     <use x="1364.552734" xlink:href="#DejaVuSans-3a"/>
     <use x="1398.244141" xlink:href="#DejaVuSans-20"/>
     <use x="1430.03125" xlink:href="#DejaVuSans-30"/>
     <use x="1493.654297" xlink:href="#DejaVuSans-2e"/>
     <use x="1525.441406" xlink:href="#DejaVuSans-30"/>
     <use x="1589.064453" xlink:href="#DejaVuSans-30"/>
     <use x="1652.6875" xlink:href="#DejaVuSans-38"/>
     <use x="1716.310547" xlink:href="#DejaVuSans-35"/>
    </g>
   </g>
  </g>
 </g>
 <defs>
  <clipPath id="p35b4dd7209">
   <rect height="543.6" width="558" x="70.239125" y="74.387887"/>
  </clipPath>
 </defs>
</svg>
