<?xml version="1.0" encoding="utf-8" standalone="no"?>
<!DOCTYPE svg PUBLIC "-//W3C//DTD SVG 1.1//EN"
  "http://www.w3.org/Graphics/SVG/1.1/DTD/svg11.dtd">
<!-- Created with matplotlib (http://matplotlib.org/) -->
<svg height="705pt" version="1.1" viewBox="0 0 647 705" width="647pt" xmlns="http://www.w3.org/2000/svg" xmlns:xlink="http://www.w3.org/1999/xlink">
 <defs>
  <style type="text/css">
*{stroke-linecap:butt;stroke-linejoin:round;}
  </style>
 </defs>
 <g id="figure_1">
  <g id="patch_1">
   <path d="M 0 705.372894 
L 647.439125 705.372894 
L 647.439125 0 
L 0 0 
z
" style="fill:#ffffff;"/>
  </g>
  <g id="axes_1">
   <g id="patch_2">
    <path d="M 70.239125 640.831425 
L 628.239125 640.831425 
L 628.239125 97.231425 
L 70.239125 97.231425 
z
" style="fill:#eaeaf2;"/>
   </g>
   <g id="matplotlib.axis_1">
    <g id="xtick_1">
     <g id="line2d_1">
      <path clip-path="url(#pb7c27ee1fc)" d="M 88.239125 640.831425 
L 88.239125 97.231425 
" style="fill:none;stroke:#ffffff;stroke-linecap:round;stroke-width:2;"/>
     </g>
     <g id="text_1">
      <!-- 0 -->
      <defs>
       <path d="M 31.78125 66.40625 
Q 24.171875 66.40625 20.328125 58.90625 
Q 16.5 51.421875 16.5 36.375 
Q 16.5 21.390625 20.328125 13.890625 
Q 24.171875 6.390625 31.78125 6.390625 
Q 39.453125 6.390625 43.28125 13.890625 
Q 47.125 21.390625 47.125 36.375 
Q 47.125 51.421875 43.28125 58.90625 
Q 39.453125 66.40625 31.78125 66.40625 
z
M 31.78125 74.21875 
Q 44.046875 74.21875 50.515625 64.515625 
Q 56.984375 54.828125 56.984375 36.375 
Q 56.984375 17.96875 50.515625 8.265625 
Q 44.046875 -1.421875 31.78125 -1.421875 
Q 19.53125 -1.421875 13.0625 8.265625 
Q 6.59375 17.96875 6.59375 36.375 
Q 6.59375 54.828125 13.0625 64.515625 
Q 19.53125 74.21875 31.78125 74.21875 
z
" id="DejaVuSans-30"/>
      </defs>
      <g style="fill:#262626;" transform="translate(82.290188 670.540503)scale(0.187 -0.187)">
       <use xlink:href="#DejaVuSans-30"/>
      </g>
     </g>
    </g>
    <g id="xtick_2">
     <g id="line2d_2">
      <path clip-path="url(#pb7c27ee1fc)" d="M 208.239125 640.831425 
L 208.239125 97.231425 
" style="fill:none;stroke:#ffffff;stroke-linecap:round;stroke-width:2;"/>
     </g>
     <g id="text_2">
      <!-- 20 -->
      <defs>
       <path d="M 19.1875 8.296875 
L 53.609375 8.296875 
L 53.609375 0 
L 7.328125 0 
L 7.328125 8.296875 
Q 12.9375 14.109375 22.625 23.890625 
Q 32.328125 33.6875 34.8125 36.53125 
Q 39.546875 41.84375 41.421875 45.53125 
Q 43.3125 49.21875 43.3125 52.78125 
Q 43.3125 58.59375 39.234375 62.25 
Q 35.15625 65.921875 28.609375 65.921875 
Q 23.96875 65.921875 18.8125 64.3125 
Q 13.671875 62.703125 7.8125 59.421875 
L 7.8125 69.390625 
Q 13.765625 71.78125 18.9375 73 
Q 24.125 74.21875 28.421875 74.21875 
Q 39.75 74.21875 46.484375 68.546875 
Q 53.21875 62.890625 53.21875 53.421875 
Q 53.21875 48.921875 51.53125 44.890625 
Q 49.859375 40.875 45.40625 35.40625 
Q 44.1875 33.984375 37.640625 27.21875 
Q 31.109375 20.453125 19.1875 8.296875 
z
" id="DejaVuSans-32"/>
      </defs>
      <g style="fill:#262626;" transform="translate(196.34125 670.540503)scale(0.187 -0.187)">
       <use xlink:href="#DejaVuSans-32"/>
       <use x="63.623047" xlink:href="#DejaVuSans-30"/>
      </g>
     </g>
    </g>
    <g id="xtick_3">
     <g id="line2d_3">
      <path clip-path="url(#pb7c27ee1fc)" d="M 328.239125 640.831425 
L 328.239125 97.231425 
" style="fill:none;stroke:#ffffff;stroke-linecap:round;stroke-width:2;"/>
     </g>
     <g id="text_3">
      <!-- 40 -->
      <defs>
       <path d="M 37.796875 64.3125 
L 12.890625 25.390625 
L 37.796875 25.390625 
z
M 35.203125 72.90625 
L 47.609375 72.90625 
L 47.609375 25.390625 
L 58.015625 25.390625 
L 58.015625 17.1875 
L 47.609375 17.1875 
L 47.609375 0 
L 37.796875 0 
L 37.796875 17.1875 
L 4.890625 17.1875 
L 4.890625 26.703125 
z
" id="DejaVuSans-34"/>
      </defs>
      <g style="fill:#262626;" transform="translate(316.34125 670.540503)scale(0.187 -0.187)">
       <use xlink:href="#DejaVuSans-34"/>
       <use x="63.623047" xlink:href="#DejaVuSans-30"/>
      </g>
     </g>
    </g>
    <g id="xtick_4">
     <g id="line2d_4">
      <path clip-path="url(#pb7c27ee1fc)" d="M 448.239125 640.831425 
L 448.239125 97.231425 
" style="fill:none;stroke:#ffffff;stroke-linecap:round;stroke-width:2;"/>
     </g>
     <g id="text_4">
      <!-- 60 -->
      <defs>
       <path d="M 33.015625 40.375 
Q 26.375 40.375 22.484375 35.828125 
Q 18.609375 31.296875 18.609375 23.390625 
Q 18.609375 15.53125 22.484375 10.953125 
Q 26.375 6.390625 33.015625 6.390625 
Q 39.65625 6.390625 43.53125 10.953125 
Q 47.40625 15.53125 47.40625 23.390625 
Q 47.40625 31.296875 43.53125 35.828125 
Q 39.65625 40.375 33.015625 40.375 
z
M 52.59375 71.296875 
L 52.59375 62.3125 
Q 48.875 64.0625 45.09375 64.984375 
Q 41.3125 65.921875 37.59375 65.921875 
Q 27.828125 65.921875 22.671875 59.328125 
Q 17.53125 52.734375 16.796875 39.40625 
Q 19.671875 43.65625 24.015625 45.921875 
Q 28.375 48.1875 33.59375 48.1875 
Q 44.578125 48.1875 50.953125 41.515625 
Q 57.328125 34.859375 57.328125 23.390625 
Q 57.328125 12.15625 50.6875 5.359375 
Q 44.046875 -1.421875 33.015625 -1.421875 
Q 20.359375 -1.421875 13.671875 8.265625 
Q 6.984375 17.96875 6.984375 36.375 
Q 6.984375 53.65625 15.1875 63.9375 
Q 23.390625 74.21875 37.203125 74.21875 
Q 40.921875 74.21875 44.703125 73.484375 
Q 48.484375 72.75 52.59375 71.296875 
z
" id="DejaVuSans-36"/>
      </defs>
      <g style="fill:#262626;" transform="translate(436.34125 670.540503)scale(0.187 -0.187)">
       <use xlink:href="#DejaVuSans-36"/>
       <use x="63.623047" xlink:href="#DejaVuSans-30"/>
      </g>
     </g>
    </g>
    <g id="xtick_5">
     <g id="line2d_5">
      <path clip-path="url(#pb7c27ee1fc)" d="M 568.239125 640.831425 
L 568.239125 97.231425 
" style="fill:none;stroke:#ffffff;stroke-linecap:round;stroke-width:2;"/>
     </g>
     <g id="text_5">
      <!-- 80 -->
      <defs>
       <path d="M 31.78125 34.625 
Q 24.75 34.625 20.71875 30.859375 
Q 16.703125 27.09375 16.703125 20.515625 
Q 16.703125 13.921875 20.71875 10.15625 
Q 24.75 6.390625 31.78125 6.390625 
Q 38.8125 6.390625 42.859375 10.171875 
Q 46.921875 13.96875 46.921875 20.515625 
Q 46.921875 27.09375 42.890625 30.859375 
Q 38.875 34.625 31.78125 34.625 
z
M 21.921875 38.8125 
Q 15.578125 40.375 12.03125 44.71875 
Q 8.5 49.078125 8.5 55.328125 
Q 8.5 64.0625 14.71875 69.140625 
Q 20.953125 74.21875 31.78125 74.21875 
Q 42.671875 74.21875 48.875 69.140625 
Q 55.078125 64.0625 55.078125 55.328125 
Q 55.078125 49.078125 51.53125 44.71875 
Q 48 40.375 41.703125 38.8125 
Q 48.828125 37.15625 52.796875 32.3125 
Q 56.78125 27.484375 56.78125 20.515625 
Q 56.78125 9.90625 50.3125 4.234375 
Q 43.84375 -1.421875 31.78125 -1.421875 
Q 19.734375 -1.421875 13.25 4.234375 
Q 6.78125 9.90625 6.78125 20.515625 
Q 6.78125 27.484375 10.78125 32.3125 
Q 14.796875 37.15625 21.921875 38.8125 
z
M 18.3125 54.390625 
Q 18.3125 48.734375 21.84375 45.5625 
Q 25.390625 42.390625 31.78125 42.390625 
Q 38.140625 42.390625 41.71875 45.5625 
Q 45.3125 48.734375 45.3125 54.390625 
Q 45.3125 60.0625 41.71875 63.234375 
Q 38.140625 66.40625 31.78125 66.40625 
Q 25.390625 66.40625 21.84375 63.234375 
Q 18.3125 60.0625 18.3125 54.390625 
z
" id="DejaVuSans-38"/>
      </defs>
      <g style="fill:#262626;" transform="translate(556.34125 670.540503)scale(0.187 -0.187)">
       <use xlink:href="#DejaVuSans-38"/>
       <use x="63.623047" xlink:href="#DejaVuSans-30"/>
      </g>
     </g>
    </g>
    <g id="text_6">
     <!-- Breteau Index -->
     <defs>
      <path d="M 19.671875 34.8125 
L 19.671875 8.109375 
L 35.5 8.109375 
Q 43.453125 8.109375 47.28125 11.40625 
Q 51.125 14.703125 51.125 21.484375 
Q 51.125 28.328125 47.28125 31.5625 
Q 43.453125 34.8125 35.5 34.8125 
z
M 19.671875 64.796875 
L 19.671875 42.828125 
L 34.28125 42.828125 
Q 41.5 42.828125 45.03125 45.53125 
Q 48.578125 48.25 48.578125 53.8125 
Q 48.578125 59.328125 45.03125 62.0625 
Q 41.5 64.796875 34.28125 64.796875 
z
M 9.8125 72.90625 
L 35.015625 72.90625 
Q 46.296875 72.90625 52.390625 68.21875 
Q 58.5 63.53125 58.5 54.890625 
Q 58.5 48.1875 55.375 44.234375 
Q 52.25 40.28125 46.1875 39.3125 
Q 53.46875 37.75 57.5 32.78125 
Q 61.53125 27.828125 61.53125 20.40625 
Q 61.53125 10.640625 54.890625 5.3125 
Q 48.25 0 35.984375 0 
L 9.8125 0 
z
" id="DejaVuSans-42"/>
      <path d="M 41.109375 46.296875 
Q 39.59375 47.171875 37.8125 47.578125 
Q 36.03125 48 33.890625 48 
Q 26.265625 48 22.1875 43.046875 
Q 18.109375 38.09375 18.109375 28.8125 
L 18.109375 0 
L 9.078125 0 
L 9.078125 54.6875 
L 18.109375 54.6875 
L 18.109375 46.1875 
Q 20.953125 51.171875 25.484375 53.578125 
Q 30.03125 56 36.53125 56 
Q 37.453125 56 38.578125 55.875 
Q 39.703125 55.765625 41.0625 55.515625 
z
" id="DejaVuSans-72"/>
      <path d="M 56.203125 29.59375 
L 56.203125 25.203125 
L 14.890625 25.203125 
Q 15.484375 15.921875 20.484375 11.0625 
Q 25.484375 6.203125 34.421875 6.203125 
Q 39.59375 6.203125 44.453125 7.46875 
Q 49.3125 8.734375 54.109375 11.28125 
L 54.109375 2.78125 
Q 49.265625 0.734375 44.1875 -0.34375 
Q 39.109375 -1.421875 33.890625 -1.421875 
Q 20.796875 -1.421875 13.15625 6.1875 
Q 5.515625 13.8125 5.515625 26.8125 
Q 5.515625 40.234375 12.765625 48.109375 
Q 20.015625 56 32.328125 56 
Q 43.359375 56 49.78125 48.890625 
Q 56.203125 41.796875 56.203125 29.59375 
z
M 47.21875 32.234375 
Q 47.125 39.59375 43.09375 43.984375 
Q 39.0625 48.390625 32.421875 48.390625 
Q 24.90625 48.390625 20.390625 44.140625 
Q 15.875 39.890625 15.1875 32.171875 
z
" id="DejaVuSans-65"/>
      <path d="M 18.3125 70.21875 
L 18.3125 54.6875 
L 36.8125 54.6875 
L 36.8125 47.703125 
L 18.3125 47.703125 
L 18.3125 18.015625 
Q 18.3125 11.328125 20.140625 9.421875 
Q 21.96875 7.515625 27.59375 7.515625 
L 36.8125 7.515625 
L 36.8125 0 
L 27.59375 0 
Q 17.1875 0 13.234375 3.875 
Q 9.28125 7.765625 9.28125 18.015625 
L 9.28125 47.703125 
L 2.6875 47.703125 
L 2.6875 54.6875 
L 9.28125 54.6875 
L 9.28125 70.21875 
z
" id="DejaVuSans-74"/>
      <path d="M 34.28125 27.484375 
Q 23.390625 27.484375 19.1875 25 
Q 14.984375 22.515625 14.984375 16.5 
Q 14.984375 11.71875 18.140625 8.90625 
Q 21.296875 6.109375 26.703125 6.109375 
Q 34.1875 6.109375 38.703125 11.40625 
Q 43.21875 16.703125 43.21875 25.484375 
L 43.21875 27.484375 
z
M 52.203125 31.203125 
L 52.203125 0 
L 43.21875 0 
L 43.21875 8.296875 
Q 40.140625 3.328125 35.546875 0.953125 
Q 30.953125 -1.421875 24.3125 -1.421875 
Q 15.921875 -1.421875 10.953125 3.296875 
Q 6 8.015625 6 15.921875 
Q 6 25.140625 12.171875 29.828125 
Q 18.359375 34.515625 30.609375 34.515625 
L 43.21875 34.515625 
L 43.21875 35.40625 
Q 43.21875 41.609375 39.140625 45 
Q 35.0625 48.390625 27.6875 48.390625 
Q 23 48.390625 18.546875 47.265625 
Q 14.109375 46.140625 10.015625 43.890625 
L 10.015625 52.203125 
Q 14.9375 54.109375 19.578125 55.046875 
Q 24.21875 56 28.609375 56 
Q 40.484375 56 46.34375 49.84375 
Q 52.203125 43.703125 52.203125 31.203125 
z
" id="DejaVuSans-61"/>
      <path d="M 8.5 21.578125 
L 8.5 54.6875 
L 17.484375 54.6875 
L 17.484375 21.921875 
Q 17.484375 14.15625 20.5 10.265625 
Q 23.53125 6.390625 29.59375 6.390625 
Q 36.859375 6.390625 41.078125 11.03125 
Q 45.3125 15.671875 45.3125 23.6875 
L 45.3125 54.6875 
L 54.296875 54.6875 
L 54.296875 0 
L 45.3125 0 
L 45.3125 8.40625 
Q 42.046875 3.421875 37.71875 1 
Q 33.40625 -1.421875 27.6875 -1.421875 
Q 18.265625 -1.421875 13.375 4.4375 
Q 8.5 10.296875 8.5 21.578125 
z
M 31.109375 56 
z
" id="DejaVuSans-75"/>
      <path id="DejaVuSans-20"/>
      <path d="M 9.8125 72.90625 
L 19.671875 72.90625 
L 19.671875 0 
L 9.8125 0 
z
" id="DejaVuSans-49"/>
      <path d="M 54.890625 33.015625 
L 54.890625 0 
L 45.90625 0 
L 45.90625 32.71875 
Q 45.90625 40.484375 42.875 44.328125 
Q 39.84375 48.1875 33.796875 48.1875 
Q 26.515625 48.1875 22.3125 43.546875 
Q 18.109375 38.921875 18.109375 30.90625 
L 18.109375 0 
L 9.078125 0 
L 9.078125 54.6875 
L 18.109375 54.6875 
L 18.109375 46.1875 
Q 21.34375 51.125 25.703125 53.5625 
Q 30.078125 56 35.796875 56 
Q 45.21875 56 50.046875 50.171875 
Q 54.890625 44.34375 54.890625 33.015625 
z
" id="DejaVuSans-6e"/>
      <path d="M 45.40625 46.390625 
L 45.40625 75.984375 
L 54.390625 75.984375 
L 54.390625 0 
L 45.40625 0 
L 45.40625 8.203125 
Q 42.578125 3.328125 38.25 0.953125 
Q 33.9375 -1.421875 27.875 -1.421875 
Q 17.96875 -1.421875 11.734375 6.484375 
Q 5.515625 14.40625 5.515625 27.296875 
Q 5.515625 40.1875 11.734375 48.09375 
Q 17.96875 56 27.875 56 
Q 33.9375 56 38.25 53.625 
Q 42.578125 51.265625 45.40625 46.390625 
z
M 14.796875 27.296875 
Q 14.796875 17.390625 18.875 11.75 
Q 22.953125 6.109375 30.078125 6.109375 
Q 37.203125 6.109375 41.296875 11.75 
Q 45.40625 17.390625 45.40625 27.296875 
Q 45.40625 37.203125 41.296875 42.84375 
Q 37.203125 48.484375 30.078125 48.484375 
Q 22.953125 48.484375 18.875 42.84375 
Q 14.796875 37.203125 14.796875 27.296875 
z
" id="DejaVuSans-64"/>
      <path d="M 54.890625 54.6875 
L 35.109375 28.078125 
L 55.90625 0 
L 45.3125 0 
L 29.390625 21.484375 
L 13.484375 0 
L 2.875 0 
L 24.125 28.609375 
L 4.6875 54.6875 
L 15.28125 54.6875 
L 29.78125 35.203125 
L 44.28125 54.6875 
z
" id="DejaVuSans-78"/>
     </defs>
     <g style="fill:#262626;" transform="translate(277.282906 693.930331)scale(0.204 -0.204)">
      <use xlink:href="#DejaVuSans-42"/>
      <use x="68.603516" xlink:href="#DejaVuSans-72"/>
      <use x="109.685547" xlink:href="#DejaVuSans-65"/>
      <use x="171.208984" xlink:href="#DejaVuSans-74"/>
      <use x="210.417969" xlink:href="#DejaVuSans-65"/>
      <use x="271.941406" xlink:href="#DejaVuSans-61"/>
      <use x="333.220703" xlink:href="#DejaVuSans-75"/>
      <use x="396.599609" xlink:href="#DejaVuSans-20"/>
      <use x="428.386719" xlink:href="#DejaVuSans-49"/>
      <use x="457.878906" xlink:href="#DejaVuSans-6e"/>
      <use x="521.257812" xlink:href="#DejaVuSans-64"/>
      <use x="584.734375" xlink:href="#DejaVuSans-65"/>
      <use x="646.242188" xlink:href="#DejaVuSans-78"/>
     </g>
    </g>
   </g>
   <g id="matplotlib.axis_2">
    <g id="ytick_1">
     <g id="line2d_6">
      <path clip-path="url(#pb7c27ee1fc)" d="M 70.239125 623.295941 
L 628.239125 623.295941 
" style="fill:none;stroke:#ffffff;stroke-linecap:round;stroke-width:2;"/>
     </g>
     <g id="text_7">
      <!-- 0 -->
      <g style="fill:#262626;" transform="translate(42.84125 630.40048)scale(0.187 -0.187)">
       <use xlink:href="#DejaVuSans-30"/>
      </g>
     </g>
    </g>
    <g id="ytick_2">
     <g id="line2d_7">
      <path clip-path="url(#pb7c27ee1fc)" d="M 70.239125 506.392715 
L 628.239125 506.392715 
" style="fill:none;stroke:#ffffff;stroke-linecap:round;stroke-width:2;"/>
     </g>
     <g id="text_8">
      <!-- 20 -->
      <g style="fill:#262626;" transform="translate(30.943375 513.497254)scale(0.187 -0.187)">
       <use xlink:href="#DejaVuSans-32"/>
       <use x="63.623047" xlink:href="#DejaVuSans-30"/>
      </g>
     </g>
    </g>
    <g id="ytick_3">
     <g id="line2d_8">
      <path clip-path="url(#pb7c27ee1fc)" d="M 70.239125 389.48949 
L 628.239125 389.48949 
" style="fill:none;stroke:#ffffff;stroke-linecap:round;stroke-width:2;"/>
     </g>
     <g id="text_9">
      <!-- 40 -->
      <g style="fill:#262626;" transform="translate(30.943375 396.594029)scale(0.187 -0.187)">
       <use xlink:href="#DejaVuSans-34"/>
       <use x="63.623047" xlink:href="#DejaVuSans-30"/>
      </g>
     </g>
    </g>
    <g id="ytick_4">
     <g id="line2d_9">
      <path clip-path="url(#pb7c27ee1fc)" d="M 70.239125 272.586264 
L 628.239125 272.586264 
" style="fill:none;stroke:#ffffff;stroke-linecap:round;stroke-width:2;"/>
     </g>
     <g id="text_10">
      <!-- 60 -->
      <g style="fill:#262626;" transform="translate(30.943375 279.690803)scale(0.187 -0.187)">
       <use xlink:href="#DejaVuSans-36"/>
       <use x="63.623047" xlink:href="#DejaVuSans-30"/>
      </g>
     </g>
    </g>
    <g id="ytick_5">
     <g id="line2d_10">
      <path clip-path="url(#pb7c27ee1fc)" d="M 70.239125 155.683038 
L 628.239125 155.683038 
" style="fill:none;stroke:#ffffff;stroke-linecap:round;stroke-width:2;"/>
     </g>
     <g id="text_11">
      <!-- 80 -->
      <g style="fill:#262626;" transform="translate(30.943375 162.787577)scale(0.187 -0.187)">
       <use xlink:href="#DejaVuSans-38"/>
       <use x="63.623047" xlink:href="#DejaVuSans-30"/>
      </g>
     </g>
    </g>
    <g id="text_12">
     <!-- Predicted Breteau Index -->
     <defs>
      <path d="M 19.671875 64.796875 
L 19.671875 37.40625 
L 32.078125 37.40625 
Q 38.96875 37.40625 42.71875 40.96875 
Q 46.484375 44.53125 46.484375 51.125 
Q 46.484375 57.671875 42.71875 61.234375 
Q 38.96875 64.796875 32.078125 64.796875 
z
M 9.8125 72.90625 
L 32.078125 72.90625 
Q 44.34375 72.90625 50.609375 67.359375 
Q 56.890625 61.8125 56.890625 51.125 
Q 56.890625 40.328125 50.609375 34.8125 
Q 44.34375 29.296875 32.078125 29.296875 
L 19.671875 29.296875 
L 19.671875 0 
L 9.8125 0 
z
" id="DejaVuSans-50"/>
      <path d="M 9.421875 54.6875 
L 18.40625 54.6875 
L 18.40625 0 
L 9.421875 0 
z
M 9.421875 75.984375 
L 18.40625 75.984375 
L 18.40625 64.59375 
L 9.421875 64.59375 
z
" id="DejaVuSans-69"/>
      <path d="M 48.78125 52.59375 
L 48.78125 44.1875 
Q 44.96875 46.296875 41.140625 47.34375 
Q 37.3125 48.390625 33.40625 48.390625 
Q 24.65625 48.390625 19.8125 42.84375 
Q 14.984375 37.3125 14.984375 27.296875 
Q 14.984375 17.28125 19.8125 11.734375 
Q 24.65625 6.203125 33.40625 6.203125 
Q 37.3125 6.203125 41.140625 7.25 
Q 44.96875 8.296875 48.78125 10.40625 
L 48.78125 2.09375 
Q 45.015625 0.34375 40.984375 -0.53125 
Q 36.96875 -1.421875 32.421875 -1.421875 
Q 20.0625 -1.421875 12.78125 6.34375 
Q 5.515625 14.109375 5.515625 27.296875 
Q 5.515625 40.671875 12.859375 48.328125 
Q 20.21875 56 33.015625 56 
Q 37.15625 56 41.109375 55.140625 
Q 45.0625 54.296875 48.78125 52.59375 
z
" id="DejaVuSans-63"/>
     </defs>
     <g style="fill:#262626;" transform="translate(22.700812 492.511988)rotate(-90)scale(0.204 -0.204)">
      <use xlink:href="#DejaVuSans-50"/>
      <use x="60.287109" xlink:href="#DejaVuSans-72"/>
      <use x="101.369141" xlink:href="#DejaVuSans-65"/>
      <use x="162.892578" xlink:href="#DejaVuSans-64"/>
      <use x="226.369141" xlink:href="#DejaVuSans-69"/>
      <use x="254.152344" xlink:href="#DejaVuSans-63"/>
      <use x="309.132812" xlink:href="#DejaVuSans-74"/>
      <use x="348.341797" xlink:href="#DejaVuSans-65"/>
      <use x="409.865234" xlink:href="#DejaVuSans-64"/>
      <use x="473.341797" xlink:href="#DejaVuSans-20"/>
      <use x="505.128906" xlink:href="#DejaVuSans-42"/>
      <use x="573.732422" xlink:href="#DejaVuSans-72"/>
      <use x="614.814453" xlink:href="#DejaVuSans-65"/>
      <use x="676.337891" xlink:href="#DejaVuSans-74"/>
      <use x="715.546875" xlink:href="#DejaVuSans-65"/>
      <use x="777.070312" xlink:href="#DejaVuSans-61"/>
      <use x="838.349609" xlink:href="#DejaVuSans-75"/>
      <use x="901.728516" xlink:href="#DejaVuSans-20"/>
      <use x="933.515625" xlink:href="#DejaVuSans-49"/>
      <use x="963.007812" xlink:href="#DejaVuSans-6e"/>
      <use x="1026.386719" xlink:href="#DejaVuSans-64"/>
      <use x="1089.863281" xlink:href="#DejaVuSans-65"/>
      <use x="1151.371094" xlink:href="#DejaVuSans-78"/>
     </g>
    </g>
   </g>
   <g id="PathCollection_1">
    <defs>
     <path d="M 0 6 
C 1.591219 6 3.117479 5.367802 4.242641 4.242641 
C 5.367802 3.117479 6 1.591219 6 0 
C 6 -1.591219 5.367802 -3.117479 4.242641 -4.242641 
C 3.117479 -5.367802 1.591219 -6 0 -6 
C -1.591219 -6 -3.117479 -5.367802 -4.242641 -4.242641 
C -5.367802 -3.117479 -6 -1.591219 -6 0 
C -6 1.591219 -5.367802 3.117479 -4.242641 4.242641 
C -3.117479 5.367802 -1.591219 6 0 6 
z
" id="m3bcf89ab57" style="stroke:#4c72b0;stroke-opacity:0.8;"/>
    </defs>
    <g clip-path="url(#pb7c27ee1fc)">
     <use style="fill:#4c72b0;fill-opacity:0.8;stroke:#4c72b0;stroke-opacity:0.8;" x="170.739125" xlink:href="#m3bcf89ab57" y="441.346822"/>
     <use style="fill:#4c72b0;fill-opacity:0.8;stroke:#4c72b0;stroke-opacity:0.8;" x="275.739125" xlink:href="#m3bcf89ab57" y="450.423668"/>
     <use style="fill:#4c72b0;fill-opacity:0.8;stroke:#4c72b0;stroke-opacity:0.8;" x="363.219125" xlink:href="#m3bcf89ab57" y="455.232126"/>
     <use style="fill:#4c72b0;fill-opacity:0.8;stroke:#4c72b0;stroke-opacity:0.8;" x="163.239125" xlink:href="#m3bcf89ab57" y="595.567455"/>
     <use style="fill:#4c72b0;fill-opacity:0.8;stroke:#4c72b0;stroke-opacity:0.8;" x="164.079125" xlink:href="#m3bcf89ab57" y="519.62782"/>
     <use style="fill:#4c72b0;fill-opacity:0.8;stroke:#4c72b0;stroke-opacity:0.8;" x="123.219125" xlink:href="#m3bcf89ab57" y="584.293303"/>
     <use style="fill:#4c72b0;fill-opacity:0.8;stroke:#4c72b0;stroke-opacity:0.8;" x="123.219125" xlink:href="#m3bcf89ab57" y="624.270144"/>
     <use style="fill:#4c72b0;fill-opacity:0.8;stroke:#4c72b0;stroke-opacity:0.8;" x="123.519125" xlink:href="#m3bcf89ab57" y="550.106203"/>
     <use style="fill:#4c72b0;fill-opacity:0.8;stroke:#4c72b0;stroke-opacity:0.8;" x="183.219125" xlink:href="#m3bcf89ab57" y="483.786921"/>
     <use style="fill:#4c72b0;fill-opacity:0.8;stroke:#4c72b0;stroke-opacity:0.8;" x="272.499125" xlink:href="#m3bcf89ab57" y="447.012413"/>
     <use style="fill:#4c72b0;fill-opacity:0.8;stroke:#4c72b0;stroke-opacity:0.8;" x="209.499125" xlink:href="#m3bcf89ab57" y="493.637005"/>
     <use style="fill:#4c72b0;fill-opacity:0.8;stroke:#4c72b0;stroke-opacity:0.8;" x="269.919125" xlink:href="#m3bcf89ab57" y="467.289367"/>
     <use style="fill:#4c72b0;fill-opacity:0.8;stroke:#4c72b0;stroke-opacity:0.8;" x="133.239125" xlink:href="#m3bcf89ab57" y="517.368449"/>
     <use style="fill:#4c72b0;fill-opacity:0.8;stroke:#4c72b0;stroke-opacity:0.8;" x="283.239125" xlink:href="#m3bcf89ab57" y="421.28451"/>
     <use style="fill:#4c72b0;fill-opacity:0.8;stroke:#4c72b0;stroke-opacity:0.8;" x="343.239125" xlink:href="#m3bcf89ab57" y="434.231976"/>
     <use style="fill:#4c72b0;fill-opacity:0.8;stroke:#4c72b0;stroke-opacity:0.8;" x="275.739125" xlink:href="#m3bcf89ab57" y="471.351661"/>
     <use style="fill:#4c72b0;fill-opacity:0.8;stroke:#4c72b0;stroke-opacity:0.8;" x="208.239125" xlink:href="#m3bcf89ab57" y="431.433043"/>
     <use style="fill:#4c72b0;fill-opacity:0.8;stroke:#4c72b0;stroke-opacity:0.8;" x="433.239125" xlink:href="#m3bcf89ab57" y="276.503482"/>
     <use style="fill:#4c72b0;fill-opacity:0.8;stroke:#4c72b0;stroke-opacity:0.8;" x="433.239125" xlink:href="#m3bcf89ab57" y="265.77783"/>
     <use style="fill:#4c72b0;fill-opacity:0.8;stroke:#4c72b0;stroke-opacity:0.8;" x="163.239125" xlink:href="#m3bcf89ab57" y="538.309701"/>
     <use style="fill:#4c72b0;fill-opacity:0.8;stroke:#4c72b0;stroke-opacity:0.8;" x="478.239125" xlink:href="#m3bcf89ab57" y="369.496174"/>
     <use style="fill:#4c72b0;fill-opacity:0.8;stroke:#4c72b0;stroke-opacity:0.8;" x="260.739125" xlink:href="#m3bcf89ab57" y="462.52674"/>
     <use style="fill:#4c72b0;fill-opacity:0.8;stroke:#4c72b0;stroke-opacity:0.8;" x="178.239125" xlink:href="#m3bcf89ab57" y="430.152871"/>
     <use style="fill:#4c72b0;fill-opacity:0.8;stroke:#4c72b0;stroke-opacity:0.8;" x="186.759125" xlink:href="#m3bcf89ab57" y="512.479995"/>
     <use style="fill:#4c72b0;fill-opacity:0.8;stroke:#4c72b0;stroke-opacity:0.8;" x="408.219125" xlink:href="#m3bcf89ab57" y="320.863136"/>
     <use style="fill:#4c72b0;fill-opacity:0.8;stroke:#4c72b0;stroke-opacity:0.8;" x="313.239125" xlink:href="#m3bcf89ab57" y="459.279801"/>
     <use style="fill:#4c72b0;fill-opacity:0.8;stroke:#4c72b0;stroke-opacity:0.8;" x="398.199125" xlink:href="#m3bcf89ab57" y="406.070104"/>
     <use style="fill:#4c72b0;fill-opacity:0.8;stroke:#4c72b0;stroke-opacity:0.8;" x="343.239125" xlink:href="#m3bcf89ab57" y="437.936991"/>
     <use style="fill:#4c72b0;fill-opacity:0.8;stroke:#4c72b0;stroke-opacity:0.8;" x="223.239125" xlink:href="#m3bcf89ab57" y="388.879353"/>
    </g>
   </g>
   <g id="PolyCollection_1">
    <defs>
     <path d="M 105.246193 -180.544432 
L 105.246193 -119.450004 
L 109.195343 -122.361537 
L 113.144493 -125.459034 
L 117.093643 -128.277598 
L 121.042794 -131.422236 
L 124.991944 -134.566875 
L 128.941094 -137.711513 
L 132.890244 -140.516133 
L 136.839394 -143.311333 
L 140.788544 -146.295746 
L 144.737694 -149.336567 
L 148.686845 -152.599663 
L 152.635995 -155.668478 
L 156.585145 -158.512268 
L 160.534295 -161.673972 
L 164.483445 -165.02172 
L 168.432595 -167.775444 
L 172.381745 -170.532593 
L 176.330896 -173.797507 
L 180.280046 -177.185459 
L 184.229196 -179.963362 
L 188.178346 -182.741265 
L 192.127496 -185.52514 
L 196.076646 -188.321227 
L 200.025796 -191.499231 
L 203.974947 -194.223238 
L 207.924097 -196.748623 
L 211.873247 -199.633462 
L 215.822397 -202.5275 
L 219.771547 -205.098442 
L 223.720697 -207.760352 
L 227.669847 -210.572139 
L 231.618998 -213.350574 
L 235.568148 -215.911287 
L 239.517298 -218.598641 
L 243.466448 -221.03457 
L 247.415598 -223.679652 
L 251.364748 -226.150873 
L 255.313898 -228.578291 
L 259.263049 -231.370446 
L 263.212199 -233.817422 
L 267.161349 -236.659806 
L 271.110499 -239.076492 
L 275.059649 -241.634441 
L 279.008799 -244.071457 
L 282.957949 -246.29788 
L 286.9071 -249.022888 
L 290.85625 -251.422693 
L 294.8054 -253.675443 
L 298.75455 -255.950992 
L 302.7037 -258.235379 
L 306.65285 -260.602902 
L 310.602 -262.951695 
L 314.55115 -265.257605 
L 318.500301 -267.624805 
L 322.449451 -269.939777 
L 326.398601 -271.973687 
L 330.347751 -273.842617 
L 334.296901 -275.863973 
L 338.246051 -278.044664 
L 342.195201 -280.206778 
L 346.144352 -282.389952 
L 350.093502 -284.544643 
L 354.042652 -286.641985 
L 357.991802 -288.887709 
L 361.940952 -291.039536 
L 365.890102 -293.166892 
L 369.839252 -295.243057 
L 373.788403 -297.337554 
L 377.737553 -299.432051 
L 381.686703 -301.529616 
L 385.635853 -303.63233 
L 389.585003 -305.636153 
L 393.534153 -307.630395 
L 397.483303 -309.59094 
L 401.432454 -311.527499 
L 405.381604 -313.454117 
L 409.330754 -315.50539 
L 413.279904 -317.566138 
L 417.229054 -319.551043 
L 421.178204 -321.541221 
L 425.127354 -323.646906 
L 429.076505 -325.602102 
L 433.025655 -327.501513 
L 436.974805 -329.484119 
L 440.923955 -331.466725 
L 444.873105 -333.366748 
L 448.822255 -335.237221 
L 452.771405 -337.350732 
L 456.720556 -339.286753 
L 460.669706 -341.325661 
L 464.618856 -343.386344 
L 468.568006 -345.371138 
L 472.517156 -347.263505 
L 476.466306 -349.006434 
L 480.415456 -350.874535 
L 484.364607 -352.800739 
L 488.313757 -354.729174 
L 492.262907 -356.614193 
L 496.212057 -358.468647 
L 496.212057 -448.758016 
L 496.212057 -448.758016 
L 492.262907 -445.391239 
L 488.313757 -442.095343 
L 484.364607 -438.799447 
L 480.415456 -435.534703 
L 476.466306 -432.350079 
L 472.517156 -429.165456 
L 468.568006 -425.987032 
L 464.618856 -422.812982 
L 460.669706 -419.638933 
L 456.720556 -416.574458 
L 452.771405 -413.51385 
L 448.822255 -410.453241 
L 444.873105 -407.392632 
L 440.923955 -404.356579 
L 436.974805 -401.340583 
L 433.025655 -398.324587 
L 429.076505 -395.271967 
L 425.127354 -392.30445 
L 421.178204 -389.292086 
L 417.229054 -385.941483 
L 413.279904 -382.877037 
L 409.330754 -379.811563 
L 405.381604 -376.743885 
L 401.432454 -373.502356 
L 397.483303 -370.258035 
L 393.534153 -367.003825 
L 389.585003 -363.772706 
L 385.635853 -360.534537 
L 381.686703 -357.294918 
L 377.737553 -354.053249 
L 373.788403 -351.075169 
L 369.839252 -348.183314 
L 365.890102 -345.01356 
L 361.940952 -341.843806 
L 357.991802 -338.661495 
L 354.042652 -335.6506 
L 350.093502 -332.480906 
L 346.144352 -329.522034 
L 342.195201 -326.545673 
L 338.246051 -323.379741 
L 334.296901 -320.033218 
L 330.347751 -317.229109 
L 326.398601 -314.725516 
L 322.449451 -312.201004 
L 318.500301 -309.163888 
L 314.55115 -306.126199 
L 310.602 -303.088791 
L 306.65285 -300.049964 
L 302.7037 -297.011022 
L 298.75455 -294.057842 
L 294.8054 -291.301713 
L 290.85625 -288.561139 
L 286.9071 -285.318503 
L 282.957949 -283.238215 
L 279.008799 -280.0535 
L 275.059649 -277.687132 
L 271.110499 -274.924013 
L 267.161349 -272.154627 
L 263.212199 -269.98743 
L 259.263049 -267.378185 
L 255.313898 -264.600893 
L 251.364748 -261.758564 
L 247.415598 -259.069037 
L 243.466448 -256.089821 
L 239.517298 -253.612249 
L 235.568148 -251.306657 
L 231.618998 -248.8473 
L 227.669847 -246.232321 
L 223.720697 -243.908932 
L 219.771547 -241.512048 
L 215.822397 -239.045493 
L 211.873247 -236.435752 
L 207.924097 -234.081396 
L 203.974947 -232.076567 
L 200.025796 -229.918663 
L 196.076646 -228.028915 
L 192.127496 -225.875937 
L 188.178346 -223.719726 
L 184.229196 -221.556054 
L 180.280046 -219.201312 
L 176.330896 -217.00859 
L 172.381745 -215.260015 
L 168.432595 -213.437576 
L 164.483445 -211.640251 
L 160.534295 -209.466545 
L 156.585145 -207.663102 
L 152.635995 -205.476104 
L 148.686845 -203.429314 
L 144.737694 -201.423976 
L 140.788544 -199.722694 
L 136.839394 -197.899274 
L 132.890244 -195.881573 
L 128.941094 -193.680172 
L 124.991944 -191.422077 
L 121.042794 -189.152949 
L 117.093643 -186.88382 
L 113.144493 -184.621003 
L 109.195343 -182.684202 
L 105.246193 -180.544432 
z
" id="m6c3b83f306" style="stroke:#ffffff;stroke-opacity:0.15;stroke-width:2;"/>
    </defs>
    <g clip-path="url(#pb7c27ee1fc)">
     <use style="fill:#4c72b0;fill-opacity:0.15;stroke:#ffffff;stroke-opacity:0.15;stroke-width:2;" x="0" xlink:href="#m6c3b83f306" y="705.372894"/>
    </g>
   </g>
   <g id="line2d_11">
    <path clip-path="url(#pb7c27ee1fc)" d="M 105.246193 557.961264 
L 109.195343 555.368099 
L 113.144493 552.774934 
L 117.093643 550.181769 
L 121.042794 547.588604 
L 124.991944 544.995439 
L 128.941094 542.402273 
L 132.890244 539.809108 
L 136.839394 537.215943 
L 140.788544 534.622778 
L 144.737694 532.029613 
L 148.686845 529.436447 
L 152.635995 526.843282 
L 156.585145 524.250117 
L 160.534295 521.656952 
L 164.483445 519.063787 
L 168.432595 516.470621 
L 172.381745 513.877456 
L 176.330896 511.284291 
L 180.280046 508.691126 
L 184.229196 506.097961 
L 188.178346 503.504796 
L 192.127496 500.91163 
L 196.076646 498.318465 
L 200.025796 495.7253 
L 203.974947 493.132135 
L 207.924097 490.53897 
L 211.873247 487.945804 
L 215.822397 485.352639 
L 219.771547 482.759474 
L 223.720697 480.166309 
L 227.669847 477.573144 
L 231.618998 474.979979 
L 235.568148 472.386813 
L 239.517298 469.793648 
L 243.466448 467.200483 
L 247.415598 464.607318 
L 251.364748 462.014153 
L 255.313898 459.420987 
L 259.263049 456.827822 
L 263.212199 454.234657 
L 267.161349 451.641492 
L 271.110499 449.048327 
L 275.059649 446.455162 
L 279.008799 443.861996 
L 282.957949 441.268831 
L 286.9071 438.675666 
L 290.85625 436.082501 
L 294.8054 433.489336 
L 298.75455 430.89617 
L 302.7037 428.303005 
L 306.65285 425.70984 
L 310.602 423.116675 
L 314.55115 420.52351 
L 318.500301 417.930345 
L 322.449451 415.337179 
L 326.398601 412.744014 
L 330.347751 410.150849 
L 334.296901 407.557684 
L 338.246051 404.964519 
L 342.195201 402.371353 
L 346.144352 399.778188 
L 350.093502 397.185023 
L 354.042652 394.591858 
L 357.991802 391.998693 
L 361.940952 389.405528 
L 365.890102 386.812362 
L 369.839252 384.219197 
L 373.788403 381.626032 
L 377.737553 379.032867 
L 381.686703 376.439702 
L 385.635853 373.846536 
L 389.585003 371.253371 
L 393.534153 368.660206 
L 397.483303 366.067041 
L 401.432454 363.473876 
L 405.381604 360.88071 
L 409.330754 358.287545 
L 413.279904 355.69438 
L 417.229054 353.101215 
L 421.178204 350.50805 
L 425.127354 347.914885 
L 429.076505 345.321719 
L 433.025655 342.728554 
L 436.974805 340.135389 
L 440.923955 337.542224 
L 444.873105 334.949059 
L 448.822255 332.355893 
L 452.771405 329.762728 
L 456.720556 327.169563 
L 460.669706 324.576398 
L 464.618856 321.983233 
L 468.568006 319.390068 
L 472.517156 316.796902 
L 476.466306 314.203737 
L 480.415456 311.610572 
L 484.364607 309.017407 
L 488.313757 306.424242 
L 492.262907 303.831076 
L 496.212057 301.237911 
" style="fill:none;stroke:#4c72b0;stroke-linecap:round;stroke-width:4.5;"/>
   </g>
   <g id="line2d_12">
    <path clip-path="url(#pb7c27ee1fc)" d="M 70.239125 640.831425 
L 628.239125 97.231425 
" style="fill:none;stroke:#808080;stroke-dasharray:11.1,4.8;stroke-dashoffset:0;stroke-width:3;"/>
   </g>
   <g id="patch_3">
    <path d="M 70.239125 640.831425 
L 70.239125 97.231425 
" style="fill:none;stroke:#ffffff;stroke-linecap:square;stroke-linejoin:miter;stroke-width:2.5;"/>
   </g>
   <g id="patch_4">
    <path d="M 628.239125 640.831425 
L 628.239125 97.231425 
" style="fill:none;stroke:#ffffff;stroke-linecap:square;stroke-linejoin:miter;stroke-width:2.5;"/>
   </g>
   <g id="patch_5">
    <path d="M 70.239125 640.831425 
L 628.239125 640.831425 
" style="fill:none;stroke:#ffffff;stroke-linecap:square;stroke-linejoin:miter;stroke-width:2.5;"/>
   </g>
   <g id="patch_6">
    <path d="M 70.239125 97.231425 
L 628.239125 97.231425 
" style="fill:none;stroke:#ffffff;stroke-linecap:square;stroke-linejoin:miter;stroke-width:2.5;"/>
   </g>
   <g id="text_13">
    <!-- Dengue Season (29 data points), Linear Regression -->
    <defs>
     <path d="M 19.671875 64.796875 
L 19.671875 8.109375 
L 31.59375 8.109375 
Q 46.6875 8.109375 53.6875 14.9375 
Q 60.6875 21.78125 60.6875 36.53125 
Q 60.6875 51.171875 53.6875 57.984375 
Q 46.6875 64.796875 31.59375 64.796875 
z
M 9.8125 72.90625 
L 30.078125 72.90625 
Q 51.265625 72.90625 61.171875 64.09375 
Q 71.09375 55.28125 71.09375 36.53125 
Q 71.09375 17.671875 61.125 8.828125 
Q 51.171875 0 30.078125 0 
L 9.8125 0 
z
" id="DejaVuSans-44"/>
     <path d="M 45.40625 27.984375 
Q 45.40625 37.75 41.375 43.109375 
Q 37.359375 48.484375 30.078125 48.484375 
Q 22.859375 48.484375 18.828125 43.109375 
Q 14.796875 37.75 14.796875 27.984375 
Q 14.796875 18.265625 18.828125 12.890625 
Q 22.859375 7.515625 30.078125 7.515625 
Q 37.359375 7.515625 41.375 12.890625 
Q 45.40625 18.265625 45.40625 27.984375 
z
M 54.390625 6.78125 
Q 54.390625 -7.171875 48.1875 -13.984375 
Q 42 -20.796875 29.203125 -20.796875 
Q 24.46875 -20.796875 20.265625 -20.09375 
Q 16.0625 -19.390625 12.109375 -17.921875 
L 12.109375 -9.1875 
Q 16.0625 -11.328125 19.921875 -12.34375 
Q 23.78125 -13.375 27.78125 -13.375 
Q 36.625 -13.375 41.015625 -8.765625 
Q 45.40625 -4.15625 45.40625 5.171875 
L 45.40625 9.625 
Q 42.625 4.78125 38.28125 2.390625 
Q 33.9375 0 27.875 0 
Q 17.828125 0 11.671875 7.65625 
Q 5.515625 15.328125 5.515625 27.984375 
Q 5.515625 40.671875 11.671875 48.328125 
Q 17.828125 56 27.875 56 
Q 33.9375 56 38.28125 53.609375 
Q 42.625 51.21875 45.40625 46.390625 
L 45.40625 54.6875 
L 54.390625 54.6875 
z
" id="DejaVuSans-67"/>
     <path d="M 53.515625 70.515625 
L 53.515625 60.890625 
Q 47.90625 63.578125 42.921875 64.890625 
Q 37.9375 66.21875 33.296875 66.21875 
Q 25.25 66.21875 20.875 63.09375 
Q 16.5 59.96875 16.5 54.203125 
Q 16.5 49.359375 19.40625 46.890625 
Q 22.3125 44.4375 30.421875 42.921875 
L 36.375 41.703125 
Q 47.40625 39.59375 52.65625 34.296875 
Q 57.90625 29 57.90625 20.125 
Q 57.90625 9.515625 50.796875 4.046875 
Q 43.703125 -1.421875 29.984375 -1.421875 
Q 24.8125 -1.421875 18.96875 -0.25 
Q 13.140625 0.921875 6.890625 3.21875 
L 6.890625 13.375 
Q 12.890625 10.015625 18.65625 8.296875 
Q 24.421875 6.59375 29.984375 6.59375 
Q 38.421875 6.59375 43.015625 9.90625 
Q 47.609375 13.234375 47.609375 19.390625 
Q 47.609375 24.75 44.3125 27.78125 
Q 41.015625 30.8125 33.5 32.328125 
L 27.484375 33.5 
Q 16.453125 35.6875 11.515625 40.375 
Q 6.59375 45.0625 6.59375 53.421875 
Q 6.59375 63.09375 13.40625 68.65625 
Q 20.21875 74.21875 32.171875 74.21875 
Q 37.3125 74.21875 42.625 73.28125 
Q 47.953125 72.359375 53.515625 70.515625 
z
" id="DejaVuSans-53"/>
     <path d="M 44.28125 53.078125 
L 44.28125 44.578125 
Q 40.484375 46.53125 36.375 47.5 
Q 32.28125 48.484375 27.875 48.484375 
Q 21.1875 48.484375 17.84375 46.4375 
Q 14.5 44.390625 14.5 40.28125 
Q 14.5 37.15625 16.890625 35.375 
Q 19.28125 33.59375 26.515625 31.984375 
L 29.59375 31.296875 
Q 39.15625 29.25 43.1875 25.515625 
Q 47.21875 21.78125 47.21875 15.09375 
Q 47.21875 7.46875 41.1875 3.015625 
Q 35.15625 -1.421875 24.609375 -1.421875 
Q 20.21875 -1.421875 15.453125 -0.5625 
Q 10.6875 0.296875 5.421875 2 
L 5.421875 11.28125 
Q 10.40625 8.6875 15.234375 7.390625 
Q 20.0625 6.109375 24.8125 6.109375 
Q 31.15625 6.109375 34.5625 8.28125 
Q 37.984375 10.453125 37.984375 14.40625 
Q 37.984375 18.0625 35.515625 20.015625 
Q 33.0625 21.96875 24.703125 23.78125 
L 21.578125 24.515625 
Q 13.234375 26.265625 9.515625 29.90625 
Q 5.8125 33.546875 5.8125 39.890625 
Q 5.8125 47.609375 11.28125 51.796875 
Q 16.75 56 26.8125 56 
Q 31.78125 56 36.171875 55.265625 
Q 40.578125 54.546875 44.28125 53.078125 
z
" id="DejaVuSans-73"/>
     <path d="M 30.609375 48.390625 
Q 23.390625 48.390625 19.1875 42.75 
Q 14.984375 37.109375 14.984375 27.296875 
Q 14.984375 17.484375 19.15625 11.84375 
Q 23.34375 6.203125 30.609375 6.203125 
Q 37.796875 6.203125 41.984375 11.859375 
Q 46.1875 17.53125 46.1875 27.296875 
Q 46.1875 37.015625 41.984375 42.703125 
Q 37.796875 48.390625 30.609375 48.390625 
z
M 30.609375 56 
Q 42.328125 56 49.015625 48.375 
Q 55.71875 40.765625 55.71875 27.296875 
Q 55.71875 13.875 49.015625 6.21875 
Q 42.328125 -1.421875 30.609375 -1.421875 
Q 18.84375 -1.421875 12.171875 6.21875 
Q 5.515625 13.875 5.515625 27.296875 
Q 5.515625 40.765625 12.171875 48.375 
Q 18.84375 56 30.609375 56 
z
" id="DejaVuSans-6f"/>
     <path d="M 31 75.875 
Q 24.46875 64.65625 21.28125 53.65625 
Q 18.109375 42.671875 18.109375 31.390625 
Q 18.109375 20.125 21.3125 9.0625 
Q 24.515625 -2 31 -13.1875 
L 23.1875 -13.1875 
Q 15.875 -1.703125 12.234375 9.375 
Q 8.59375 20.453125 8.59375 31.390625 
Q 8.59375 42.28125 12.203125 53.3125 
Q 15.828125 64.359375 23.1875 75.875 
z
" id="DejaVuSans-28"/>
     <path d="M 10.984375 1.515625 
L 10.984375 10.5 
Q 14.703125 8.734375 18.5 7.8125 
Q 22.3125 6.890625 25.984375 6.890625 
Q 35.75 6.890625 40.890625 13.453125 
Q 46.046875 20.015625 46.78125 33.40625 
Q 43.953125 29.203125 39.59375 26.953125 
Q 35.25 24.703125 29.984375 24.703125 
Q 19.046875 24.703125 12.671875 31.3125 
Q 6.296875 37.9375 6.296875 49.421875 
Q 6.296875 60.640625 12.9375 67.421875 
Q 19.578125 74.21875 30.609375 74.21875 
Q 43.265625 74.21875 49.921875 64.515625 
Q 56.59375 54.828125 56.59375 36.375 
Q 56.59375 19.140625 48.40625 8.859375 
Q 40.234375 -1.421875 26.421875 -1.421875 
Q 22.703125 -1.421875 18.890625 -0.6875 
Q 15.09375 0.046875 10.984375 1.515625 
z
M 30.609375 32.421875 
Q 37.25 32.421875 41.125 36.953125 
Q 45.015625 41.5 45.015625 49.421875 
Q 45.015625 57.28125 41.125 61.84375 
Q 37.25 66.40625 30.609375 66.40625 
Q 23.96875 66.40625 20.09375 61.84375 
Q 16.21875 57.28125 16.21875 49.421875 
Q 16.21875 41.5 20.09375 36.953125 
Q 23.96875 32.421875 30.609375 32.421875 
z
" id="DejaVuSans-39"/>
     <path d="M 18.109375 8.203125 
L 18.109375 -20.796875 
L 9.078125 -20.796875 
L 9.078125 54.6875 
L 18.109375 54.6875 
L 18.109375 46.390625 
Q 20.953125 51.265625 25.265625 53.625 
Q 29.59375 56 35.59375 56 
Q 45.5625 56 51.78125 48.09375 
Q 58.015625 40.1875 58.015625 27.296875 
Q 58.015625 14.40625 51.78125 6.484375 
Q 45.5625 -1.421875 35.59375 -1.421875 
Q 29.59375 -1.421875 25.265625 0.953125 
Q 20.953125 3.328125 18.109375 8.203125 
z
M 48.6875 27.296875 
Q 48.6875 37.203125 44.609375 42.84375 
Q 40.53125 48.484375 33.40625 48.484375 
Q 26.265625 48.484375 22.1875 42.84375 
Q 18.109375 37.203125 18.109375 27.296875 
Q 18.109375 17.390625 22.1875 11.75 
Q 26.265625 6.109375 33.40625 6.109375 
Q 40.53125 6.109375 44.609375 11.75 
Q 48.6875 17.390625 48.6875 27.296875 
z
" id="DejaVuSans-70"/>
     <path d="M 8.015625 75.875 
L 15.828125 75.875 
Q 23.140625 64.359375 26.78125 53.3125 
Q 30.421875 42.28125 30.421875 31.390625 
Q 30.421875 20.453125 26.78125 9.375 
Q 23.140625 -1.703125 15.828125 -13.1875 
L 8.015625 -13.1875 
Q 14.5 -2 17.703125 9.0625 
Q 20.90625 20.125 20.90625 31.390625 
Q 20.90625 42.671875 17.703125 53.65625 
Q 14.5 64.65625 8.015625 75.875 
z
" id="DejaVuSans-29"/>
     <path d="M 11.71875 12.40625 
L 22.015625 12.40625 
L 22.015625 4 
L 14.015625 -11.625 
L 7.71875 -11.625 
L 11.71875 4 
z
" id="DejaVuSans-2c"/>
     <path d="M 9.8125 72.90625 
L 19.671875 72.90625 
L 19.671875 8.296875 
L 55.171875 8.296875 
L 55.171875 0 
L 9.8125 0 
z
" id="DejaVuSans-4c"/>
     <path d="M 44.390625 34.1875 
Q 47.5625 33.109375 50.5625 29.59375 
Q 53.5625 26.078125 56.59375 19.921875 
L 66.609375 0 
L 56 0 
L 46.6875 18.703125 
Q 43.0625 26.03125 39.671875 28.421875 
Q 36.28125 30.8125 30.421875 30.8125 
L 19.671875 30.8125 
L 19.671875 0 
L 9.8125 0 
L 9.8125 72.90625 
L 32.078125 72.90625 
Q 44.578125 72.90625 50.734375 67.671875 
Q 56.890625 62.453125 56.890625 51.90625 
Q 56.890625 45.015625 53.6875 40.46875 
Q 50.484375 35.9375 44.390625 34.1875 
z
M 19.671875 64.796875 
L 19.671875 38.921875 
L 32.078125 38.921875 
Q 39.203125 38.921875 42.84375 42.21875 
Q 46.484375 45.515625 46.484375 51.90625 
Q 46.484375 58.296875 42.84375 61.546875 
Q 39.203125 64.796875 32.078125 64.796875 
z
" id="DejaVuSans-52"/>
    </defs>
    <g style="fill:#262626;" transform="translate(86.308625 22.700812)scale(0.204 -0.204)">
     <use xlink:href="#DejaVuSans-44"/>
     <use x="77.001953" xlink:href="#DejaVuSans-65"/>
     <use x="138.525391" xlink:href="#DejaVuSans-6e"/>
     <use x="201.904297" xlink:href="#DejaVuSans-67"/>
     <use x="265.380859" xlink:href="#DejaVuSans-75"/>
     <use x="328.759766" xlink:href="#DejaVuSans-65"/>
     <use x="390.283203" xlink:href="#DejaVuSans-20"/>
     <use x="422.070312" xlink:href="#DejaVuSans-53"/>
     <use x="485.546875" xlink:href="#DejaVuSans-65"/>
     <use x="547.070312" xlink:href="#DejaVuSans-61"/>
     <use x="608.349609" xlink:href="#DejaVuSans-73"/>
     <use x="660.449219" xlink:href="#DejaVuSans-6f"/>
     <use x="721.630859" xlink:href="#DejaVuSans-6e"/>
     <use x="785.009766" xlink:href="#DejaVuSans-20"/>
     <use x="816.796875" xlink:href="#DejaVuSans-28"/>
     <use x="855.810547" xlink:href="#DejaVuSans-32"/>
     <use x="919.433594" xlink:href="#DejaVuSans-39"/>
     <use x="983.056641" xlink:href="#DejaVuSans-20"/>
     <use x="1014.84375" xlink:href="#DejaVuSans-64"/>
     <use x="1078.320312" xlink:href="#DejaVuSans-61"/>
     <use x="1139.599609" xlink:href="#DejaVuSans-74"/>
     <use x="1178.808594" xlink:href="#DejaVuSans-61"/>
     <use x="1240.087891" xlink:href="#DejaVuSans-20"/>
     <use x="1271.875" xlink:href="#DejaVuSans-70"/>
     <use x="1335.351562" xlink:href="#DejaVuSans-6f"/>
     <use x="1396.533203" xlink:href="#DejaVuSans-69"/>
     <use x="1424.316406" xlink:href="#DejaVuSans-6e"/>
     <use x="1487.695312" xlink:href="#DejaVuSans-74"/>
     <use x="1526.904297" xlink:href="#DejaVuSans-73"/>
     <use x="1579.003906" xlink:href="#DejaVuSans-29"/>
     <use x="1618.017578" xlink:href="#DejaVuSans-2c"/>
     <use x="1649.804688" xlink:href="#DejaVuSans-20"/>
     <use x="1681.591797" xlink:href="#DejaVuSans-4c"/>
     <use x="1737.304688" xlink:href="#DejaVuSans-69"/>
     <use x="1765.087891" xlink:href="#DejaVuSans-6e"/>
     <use x="1828.466797" xlink:href="#DejaVuSans-65"/>
     <use x="1889.990234" xlink:href="#DejaVuSans-61"/>
     <use x="1951.269531" xlink:href="#DejaVuSans-72"/>
     <use x="1992.382812" xlink:href="#DejaVuSans-20"/>
     <use x="2024.169922" xlink:href="#DejaVuSans-52"/>
     <use x="2093.589844" xlink:href="#DejaVuSans-65"/>
     <use x="2155.113281" xlink:href="#DejaVuSans-67"/>
     <use x="2218.589844" xlink:href="#DejaVuSans-72"/>
     <use x="2259.671875" xlink:href="#DejaVuSans-65"/>
     <use x="2321.195312" xlink:href="#DejaVuSans-73"/>
     <use x="2373.294922" xlink:href="#DejaVuSans-73"/>
     <use x="2425.394531" xlink:href="#DejaVuSans-69"/>
     <use x="2453.177734" xlink:href="#DejaVuSans-6f"/>
     <use x="2514.359375" xlink:href="#DejaVuSans-6e"/>
    </g>
    <!-- R-squared: 0.674 -->
    <defs>
     <path d="M 4.890625 31.390625 
L 31.203125 31.390625 
L 31.203125 23.390625 
L 4.890625 23.390625 
z
" id="DejaVuSans-2d"/>
     <path d="M 14.796875 27.296875 
Q 14.796875 17.390625 18.875 11.75 
Q 22.953125 6.109375 30.078125 6.109375 
Q 37.203125 6.109375 41.296875 11.75 
Q 45.40625 17.390625 45.40625 27.296875 
Q 45.40625 37.203125 41.296875 42.84375 
Q 37.203125 48.484375 30.078125 48.484375 
Q 22.953125 48.484375 18.875 42.84375 
Q 14.796875 37.203125 14.796875 27.296875 
z
M 45.40625 8.203125 
Q 42.578125 3.328125 38.25 0.953125 
Q 33.9375 -1.421875 27.875 -1.421875 
Q 17.96875 -1.421875 11.734375 6.484375 
Q 5.515625 14.40625 5.515625 27.296875 
Q 5.515625 40.1875 11.734375 48.09375 
Q 17.96875 56 27.875 56 
Q 33.9375 56 38.25 53.625 
Q 42.578125 51.265625 45.40625 46.390625 
L 45.40625 54.6875 
L 54.390625 54.6875 
L 54.390625 -20.796875 
L 45.40625 -20.796875 
z
" id="DejaVuSans-71"/>
     <path d="M 11.71875 12.40625 
L 22.015625 12.40625 
L 22.015625 0 
L 11.71875 0 
z
M 11.71875 51.703125 
L 22.015625 51.703125 
L 22.015625 39.3125 
L 11.71875 39.3125 
z
" id="DejaVuSans-3a"/>
     <path d="M 10.6875 12.40625 
L 21 12.40625 
L 21 0 
L 10.6875 0 
z
" id="DejaVuSans-2e"/>
     <path d="M 8.203125 72.90625 
L 55.078125 72.90625 
L 55.078125 68.703125 
L 28.609375 0 
L 18.3125 0 
L 43.21875 64.59375 
L 8.203125 64.59375 
z
" id="DejaVuSans-37"/>
    </defs>
    <g style="fill:#262626;" transform="translate(261.154156 45.54435)scale(0.204 -0.204)">
     <use xlink:href="#DejaVuSans-52"/>
     <use x="69.419922" xlink:href="#DejaVuSans-2d"/>
     <use x="105.503906" xlink:href="#DejaVuSans-73"/>
     <use x="157.603516" xlink:href="#DejaVuSans-71"/>
     <use x="221.080078" xlink:href="#DejaVuSans-75"/>
     <use x="284.458984" xlink:href="#DejaVuSans-61"/>
     <use x="345.738281" xlink:href="#DejaVuSans-72"/>
     <use x="386.820312" xlink:href="#DejaVuSans-65"/>
     <use x="448.34375" xlink:href="#DejaVuSans-64"/>
     <use x="511.820312" xlink:href="#DejaVuSans-3a"/>
     <use x="545.511719" xlink:href="#DejaVuSans-20"/>
     <use x="577.298828" xlink:href="#DejaVuSans-30"/>
     <use x="640.921875" xlink:href="#DejaVuSans-2e"/>
     <use x="672.708984" xlink:href="#DejaVuSans-36"/>
     <use x="736.332031" xlink:href="#DejaVuSans-37"/>
     <use x="799.955078" xlink:href="#DejaVuSans-34"/>
    </g>
    <!-- Pearson: 0.821, p-value: 0.0 -->
    <defs>
     <path d="M 12.40625 8.296875 
L 28.515625 8.296875 
L 28.515625 63.921875 
L 10.984375 60.40625 
L 10.984375 69.390625 
L 28.421875 72.90625 
L 38.28125 72.90625 
L 38.28125 8.296875 
L 54.390625 8.296875 
L 54.390625 0 
L 12.40625 0 
z
" id="DejaVuSans-31"/>
     <path d="M 2.984375 54.6875 
L 12.5 54.6875 
L 29.59375 8.796875 
L 46.6875 54.6875 
L 56.203125 54.6875 
L 35.6875 0 
L 23.484375 0 
z
" id="DejaVuSans-76"/>
     <path d="M 9.421875 75.984375 
L 18.40625 75.984375 
L 18.40625 0 
L 9.421875 0 
z
" id="DejaVuSans-6c"/>
    </defs>
    <g style="fill:#262626;" transform="translate(205.079656 68.387887)scale(0.204 -0.204)">
     <use xlink:href="#DejaVuSans-50"/>
     <use x="60.255859" xlink:href="#DejaVuSans-65"/>
     <use x="121.779297" xlink:href="#DejaVuSans-61"/>
     <use x="183.058594" xlink:href="#DejaVuSans-72"/>
     <use x="224.171875" xlink:href="#DejaVuSans-73"/>
     <use x="276.271484" xlink:href="#DejaVuSans-6f"/>
     <use x="337.453125" xlink:href="#DejaVuSans-6e"/>
     <use x="400.832031" xlink:href="#DejaVuSans-3a"/>
     <use x="434.523438" xlink:href="#DejaVuSans-20"/>
     <use x="466.310547" xlink:href="#DejaVuSans-30"/>
     <use x="529.933594" xlink:href="#DejaVuSans-2e"/>
     <use x="561.720703" xlink:href="#DejaVuSans-38"/>
     <use x="625.34375" xlink:href="#DejaVuSans-32"/>
     <use x="688.966797" xlink:href="#DejaVuSans-31"/>
     <use x="752.589844" xlink:href="#DejaVuSans-2c"/>
     <use x="784.376953" xlink:href="#DejaVuSans-20"/>
     <use x="816.164062" xlink:href="#DejaVuSans-70"/>
     <use x="879.640625" xlink:href="#DejaVuSans-2d"/>
     <use x="915.693359" xlink:href="#DejaVuSans-76"/>
     <use x="974.873047" xlink:href="#DejaVuSans-61"/>
     <use x="1036.152344" xlink:href="#DejaVuSans-6c"/>
     <use x="1063.935547" xlink:href="#DejaVuSans-75"/>
     <use x="1127.314453" xlink:href="#DejaVuSans-65"/>
     <use x="1188.837891" xlink:href="#DejaVuSans-3a"/>
     <use x="1222.529297" xlink:href="#DejaVuSans-20"/>
     <use x="1254.316406" xlink:href="#DejaVuSans-30"/>
     <use x="1317.939453" xlink:href="#DejaVuSans-2e"/>
     <use x="1349.726562" xlink:href="#DejaVuSans-30"/>
    </g>
    <!-- Spearman: 0.8089, p-value: 0.0 -->
    <defs>
     <path d="M 52 44.1875 
Q 55.375 50.25 60.0625 53.125 
Q 64.75 56 71.09375 56 
Q 79.640625 56 84.28125 50.015625 
Q 88.921875 44.046875 88.921875 33.015625 
L 88.921875 0 
L 79.890625 0 
L 79.890625 32.71875 
Q 79.890625 40.578125 77.09375 44.375 
Q 74.3125 48.1875 68.609375 48.1875 
Q 61.625 48.1875 57.5625 43.546875 
Q 53.515625 38.921875 53.515625 30.90625 
L 53.515625 0 
L 44.484375 0 
L 44.484375 32.71875 
Q 44.484375 40.625 41.703125 44.40625 
Q 38.921875 48.1875 33.109375 48.1875 
Q 26.21875 48.1875 22.15625 43.53125 
Q 18.109375 38.875 18.109375 30.90625 
L 18.109375 0 
L 9.078125 0 
L 9.078125 54.6875 
L 18.109375 54.6875 
L 18.109375 46.1875 
Q 21.1875 51.21875 25.484375 53.609375 
Q 29.78125 56 35.6875 56 
Q 41.65625 56 45.828125 52.96875 
Q 50 49.953125 52 44.1875 
z
" id="DejaVuSans-6d"/>
    </defs>
    <g style="fill:#262626;" transform="translate(187.15475 91.231425)scale(0.204 -0.204)">
     <use xlink:href="#DejaVuSans-53"/>
     <use x="63.476562" xlink:href="#DejaVuSans-70"/>
     <use x="126.953125" xlink:href="#DejaVuSans-65"/>
     <use x="188.476562" xlink:href="#DejaVuSans-61"/>
     <use x="249.755859" xlink:href="#DejaVuSans-72"/>
     <use x="290.853516" xlink:href="#DejaVuSans-6d"/>
     <use x="388.265625" xlink:href="#DejaVuSans-61"/>
     <use x="449.544922" xlink:href="#DejaVuSans-6e"/>
     <use x="512.923828" xlink:href="#DejaVuSans-3a"/>
     <use x="546.615234" xlink:href="#DejaVuSans-20"/>
     <use x="578.402344" xlink:href="#DejaVuSans-30"/>
     <use x="642.025391" xlink:href="#DejaVuSans-2e"/>
     <use x="673.8125" xlink:href="#DejaVuSans-38"/>
     <use x="737.435547" xlink:href="#DejaVuSans-30"/>
     <use x="801.058594" xlink:href="#DejaVuSans-38"/>
     <use x="864.681641" xlink:href="#DejaVuSans-39"/>
     <use x="928.304688" xlink:href="#DejaVuSans-2c"/>
     <use x="960.091797" xlink:href="#DejaVuSans-20"/>
     <use x="991.878906" xlink:href="#DejaVuSans-70"/>
     <use x="1055.355469" xlink:href="#DejaVuSans-2d"/>
     <use x="1091.408203" xlink:href="#DejaVuSans-76"/>
     <use x="1150.587891" xlink:href="#DejaVuSans-61"/>
     <use x="1211.867188" xlink:href="#DejaVuSans-6c"/>
     <use x="1239.650391" xlink:href="#DejaVuSans-75"/>
     <use x="1303.029297" xlink:href="#DejaVuSans-65"/>
     <use x="1364.552734" xlink:href="#DejaVuSans-3a"/>
     <use x="1398.244141" xlink:href="#DejaVuSans-20"/>
     <use x="1430.03125" xlink:href="#DejaVuSans-30"/>
     <use x="1493.654297" xlink:href="#DejaVuSans-2e"/>
     <use x="1525.441406" xlink:href="#DejaVuSans-30"/>
    </g>
   </g>
  </g>
 </g>
 <defs>
  <clipPath id="pb7c27ee1fc">
   <rect height="543.6" width="558" x="70.239125" y="97.231425"/>
  </clipPath>
 </defs>
</svg>
