<?xml version="1.0" encoding="utf-8" standalone="no"?>
<!DOCTYPE svg PUBLIC "-//W3C//DTD SVG 1.1//EN"
  "http://www.w3.org/Graphics/SVG/1.1/DTD/svg11.dtd">
<!-- Created with matplotlib (http://matplotlib.org/) -->
<svg height="669pt" version="1.1" viewBox="0 0 614 669" width="614pt" xmlns="http://www.w3.org/2000/svg" xmlns:xlink="http://www.w3.org/1999/xlink">
 <defs>
  <style type="text/css">
*{stroke-linecap:butt;stroke-linejoin:round;}
  </style>
 </defs>
 <g id="figure_1">
  <g id="patch_1">
   <path d="M 0 669.3071 
L 614.8135 669.3071 
L 614.8135 0 
L 0 0 
z
" style="fill:#ffffff;"/>
  </g>
  <g id="axes_1">
   <g id="patch_2">
    <path d="M 49.6135 614.3886 
L 607.6135 614.3886 
L 607.6135 70.7886 
L 49.6135 70.7886 
z
" style="fill:#eaeaf2;"/>
   </g>
   <g id="matplotlib.axis_1">
    <g id="xtick_1">
     <g id="line2d_1">
      <path clip-path="url(#p38264bc815)" d="M 110.958026 614.3886 
L 110.958026 70.7886 
" style="fill:none;stroke:#ffffff;stroke-linecap:round;stroke-width:1.6;"/>
     </g>
     <g id="line2d_2"/>
     <g id="text_1">
      <!-- 10 -->
      <defs>
       <path d="M 12.40625 8.296875 
L 28.515625 8.296875 
L 28.515625 63.921875 
L 10.984375 60.40625 
L 10.984375 69.390625 
L 28.421875 72.90625 
L 38.28125 72.90625 
L 38.28125 8.296875 
L 54.390625 8.296875 
L 54.390625 0 
L 12.40625 0 
z
" id="DejaVuSans-31"/>
       <path d="M 31.78125 66.40625 
Q 24.171875 66.40625 20.328125 58.90625 
Q 16.5 51.421875 16.5 36.375 
Q 16.5 21.390625 20.328125 13.890625 
Q 24.171875 6.390625 31.78125 6.390625 
Q 39.453125 6.390625 43.28125 13.890625 
Q 47.125 21.390625 47.125 36.375 
Q 47.125 51.421875 43.28125 58.90625 
Q 39.453125 66.40625 31.78125 66.40625 
z
M 31.78125 74.21875 
Q 44.046875 74.21875 50.515625 64.515625 
Q 56.984375 54.828125 56.984375 36.375 
Q 56.984375 17.96875 50.515625 8.265625 
Q 44.046875 -1.421875 31.78125 -1.421875 
Q 19.53125 -1.421875 13.0625 8.265625 
Q 6.59375 17.96875 6.59375 36.375 
Q 6.59375 54.828125 13.0625 64.515625 
Q 19.53125 74.21875 31.78125 74.21875 
z
" id="DejaVuSans-30"/>
      </defs>
      <g style="fill:#262626;" transform="translate(100.778026 637.7461)scale(0.16 -0.16)">
       <use xlink:href="#DejaVuSans-31"/>
       <use x="63.623047" xlink:href="#DejaVuSans-30"/>
      </g>
     </g>
    </g>
    <g id="xtick_2">
     <g id="line2d_3">
      <path clip-path="url(#p38264bc815)" d="M 196.598582 614.3886 
L 196.598582 70.7886 
" style="fill:none;stroke:#ffffff;stroke-linecap:round;stroke-width:1.6;"/>
     </g>
     <g id="line2d_4"/>
     <g id="text_2">
      <!-- 20 -->
      <defs>
       <path d="M 19.1875 8.296875 
L 53.609375 8.296875 
L 53.609375 0 
L 7.328125 0 
L 7.328125 8.296875 
Q 12.9375 14.109375 22.625 23.890625 
Q 32.328125 33.6875 34.8125 36.53125 
Q 39.546875 41.84375 41.421875 45.53125 
Q 43.3125 49.21875 43.3125 52.78125 
Q 43.3125 58.59375 39.234375 62.25 
Q 35.15625 65.921875 28.609375 65.921875 
Q 23.96875 65.921875 18.8125 64.3125 
Q 13.671875 62.703125 7.8125 59.421875 
L 7.8125 69.390625 
Q 13.765625 71.78125 18.9375 73 
Q 24.125 74.21875 28.421875 74.21875 
Q 39.75 74.21875 46.484375 68.546875 
Q 53.21875 62.890625 53.21875 53.421875 
Q 53.21875 48.921875 51.53125 44.890625 
Q 49.859375 40.875 45.40625 35.40625 
Q 44.1875 33.984375 37.640625 27.21875 
Q 31.109375 20.453125 19.1875 8.296875 
z
" id="DejaVuSans-32"/>
      </defs>
      <g style="fill:#262626;" transform="translate(186.418582 637.7461)scale(0.16 -0.16)">
       <use xlink:href="#DejaVuSans-32"/>
       <use x="63.623047" xlink:href="#DejaVuSans-30"/>
      </g>
     </g>
    </g>
    <g id="xtick_3">
     <g id="line2d_5">
      <path clip-path="url(#p38264bc815)" d="M 282.239139 614.3886 
L 282.239139 70.7886 
" style="fill:none;stroke:#ffffff;stroke-linecap:round;stroke-width:1.6;"/>
     </g>
     <g id="line2d_6"/>
     <g id="text_3">
      <!-- 30 -->
      <defs>
       <path d="M 40.578125 39.3125 
Q 47.65625 37.796875 51.625 33 
Q 55.609375 28.21875 55.609375 21.1875 
Q 55.609375 10.40625 48.1875 4.484375 
Q 40.765625 -1.421875 27.09375 -1.421875 
Q 22.515625 -1.421875 17.65625 -0.515625 
Q 12.796875 0.390625 7.625 2.203125 
L 7.625 11.71875 
Q 11.71875 9.328125 16.59375 8.109375 
Q 21.484375 6.890625 26.8125 6.890625 
Q 36.078125 6.890625 40.9375 10.546875 
Q 45.796875 14.203125 45.796875 21.1875 
Q 45.796875 27.640625 41.28125 31.265625 
Q 36.765625 34.90625 28.71875 34.90625 
L 20.21875 34.90625 
L 20.21875 43.015625 
L 29.109375 43.015625 
Q 36.375 43.015625 40.234375 45.921875 
Q 44.09375 48.828125 44.09375 54.296875 
Q 44.09375 59.90625 40.109375 62.90625 
Q 36.140625 65.921875 28.71875 65.921875 
Q 24.65625 65.921875 20.015625 65.03125 
Q 15.375 64.15625 9.8125 62.3125 
L 9.8125 71.09375 
Q 15.4375 72.65625 20.34375 73.4375 
Q 25.25 74.21875 29.59375 74.21875 
Q 40.828125 74.21875 47.359375 69.109375 
Q 53.90625 64.015625 53.90625 55.328125 
Q 53.90625 49.265625 50.4375 45.09375 
Q 46.96875 40.921875 40.578125 39.3125 
z
" id="DejaVuSans-33"/>
      </defs>
      <g style="fill:#262626;" transform="translate(272.059139 637.7461)scale(0.16 -0.16)">
       <use xlink:href="#DejaVuSans-33"/>
       <use x="63.623047" xlink:href="#DejaVuSans-30"/>
      </g>
     </g>
    </g>
    <g id="xtick_4">
     <g id="line2d_7">
      <path clip-path="url(#p38264bc815)" d="M 367.879695 614.3886 
L 367.879695 70.7886 
" style="fill:none;stroke:#ffffff;stroke-linecap:round;stroke-width:1.6;"/>
     </g>
     <g id="line2d_8"/>
     <g id="text_4">
      <!-- 40 -->
      <defs>
       <path d="M 37.796875 64.3125 
L 12.890625 25.390625 
L 37.796875 25.390625 
z
M 35.203125 72.90625 
L 47.609375 72.90625 
L 47.609375 25.390625 
L 58.015625 25.390625 
L 58.015625 17.1875 
L 47.609375 17.1875 
L 47.609375 0 
L 37.796875 0 
L 37.796875 17.1875 
L 4.890625 17.1875 
L 4.890625 26.703125 
z
" id="DejaVuSans-34"/>
      </defs>
      <g style="fill:#262626;" transform="translate(357.699695 637.7461)scale(0.16 -0.16)">
       <use xlink:href="#DejaVuSans-34"/>
       <use x="63.623047" xlink:href="#DejaVuSans-30"/>
      </g>
     </g>
    </g>
    <g id="xtick_5">
     <g id="line2d_9">
      <path clip-path="url(#p38264bc815)" d="M 453.520252 614.3886 
L 453.520252 70.7886 
" style="fill:none;stroke:#ffffff;stroke-linecap:round;stroke-width:1.6;"/>
     </g>
     <g id="line2d_10"/>
     <g id="text_5">
      <!-- 50 -->
      <defs>
       <path d="M 10.796875 72.90625 
L 49.515625 72.90625 
L 49.515625 64.59375 
L 19.828125 64.59375 
L 19.828125 46.734375 
Q 21.96875 47.46875 24.109375 47.828125 
Q 26.265625 48.1875 28.421875 48.1875 
Q 40.625 48.1875 47.75 41.5 
Q 54.890625 34.8125 54.890625 23.390625 
Q 54.890625 11.625 47.5625 5.09375 
Q 40.234375 -1.421875 26.90625 -1.421875 
Q 22.3125 -1.421875 17.546875 -0.640625 
Q 12.796875 0.140625 7.71875 1.703125 
L 7.71875 11.625 
Q 12.109375 9.234375 16.796875 8.0625 
Q 21.484375 6.890625 26.703125 6.890625 
Q 35.15625 6.890625 40.078125 11.328125 
Q 45.015625 15.765625 45.015625 23.390625 
Q 45.015625 31 40.078125 35.4375 
Q 35.15625 39.890625 26.703125 39.890625 
Q 22.75 39.890625 18.8125 39.015625 
Q 14.890625 38.140625 10.796875 36.28125 
z
" id="DejaVuSans-35"/>
      </defs>
      <g style="fill:#262626;" transform="translate(443.340252 637.7461)scale(0.16 -0.16)">
       <use xlink:href="#DejaVuSans-35"/>
       <use x="63.623047" xlink:href="#DejaVuSans-30"/>
      </g>
     </g>
    </g>
    <g id="xtick_6">
     <g id="line2d_11">
      <path clip-path="url(#p38264bc815)" d="M 539.160808 614.3886 
L 539.160808 70.7886 
" style="fill:none;stroke:#ffffff;stroke-linecap:round;stroke-width:1.6;"/>
     </g>
     <g id="line2d_12"/>
     <g id="text_6">
      <!-- 60 -->
      <defs>
       <path d="M 33.015625 40.375 
Q 26.375 40.375 22.484375 35.828125 
Q 18.609375 31.296875 18.609375 23.390625 
Q 18.609375 15.53125 22.484375 10.953125 
Q 26.375 6.390625 33.015625 6.390625 
Q 39.65625 6.390625 43.53125 10.953125 
Q 47.40625 15.53125 47.40625 23.390625 
Q 47.40625 31.296875 43.53125 35.828125 
Q 39.65625 40.375 33.015625 40.375 
z
M 52.59375 71.296875 
L 52.59375 62.3125 
Q 48.875 64.0625 45.09375 64.984375 
Q 41.3125 65.921875 37.59375 65.921875 
Q 27.828125 65.921875 22.671875 59.328125 
Q 17.53125 52.734375 16.796875 39.40625 
Q 19.671875 43.65625 24.015625 45.921875 
Q 28.375 48.1875 33.59375 48.1875 
Q 44.578125 48.1875 50.953125 41.515625 
Q 57.328125 34.859375 57.328125 23.390625 
Q 57.328125 12.15625 50.6875 5.359375 
Q 44.046875 -1.421875 33.015625 -1.421875 
Q 20.359375 -1.421875 13.671875 8.265625 
Q 6.984375 17.96875 6.984375 36.375 
Q 6.984375 53.65625 15.1875 63.9375 
Q 23.390625 74.21875 37.203125 74.21875 
Q 40.921875 74.21875 44.703125 73.484375 
Q 48.484375 72.75 52.59375 71.296875 
z
" id="DejaVuSans-36"/>
      </defs>
      <g style="fill:#262626;" transform="translate(528.980808 637.7461)scale(0.16 -0.16)">
       <use xlink:href="#DejaVuSans-36"/>
       <use x="63.623047" xlink:href="#DejaVuSans-30"/>
      </g>
     </g>
    </g>
    <g id="text_7">
     <!-- Breteau Index -->
     <defs>
      <path d="M 19.671875 34.8125 
L 19.671875 8.109375 
L 35.5 8.109375 
Q 43.453125 8.109375 47.28125 11.40625 
Q 51.125 14.703125 51.125 21.484375 
Q 51.125 28.328125 47.28125 31.5625 
Q 43.453125 34.8125 35.5 34.8125 
z
M 19.671875 64.796875 
L 19.671875 42.828125 
L 34.28125 42.828125 
Q 41.5 42.828125 45.03125 45.53125 
Q 48.578125 48.25 48.578125 53.8125 
Q 48.578125 59.328125 45.03125 62.0625 
Q 41.5 64.796875 34.28125 64.796875 
z
M 9.8125 72.90625 
L 35.015625 72.90625 
Q 46.296875 72.90625 52.390625 68.21875 
Q 58.5 63.53125 58.5 54.890625 
Q 58.5 48.1875 55.375 44.234375 
Q 52.25 40.28125 46.1875 39.3125 
Q 53.46875 37.75 57.5 32.78125 
Q 61.53125 27.828125 61.53125 20.40625 
Q 61.53125 10.640625 54.890625 5.3125 
Q 48.25 0 35.984375 0 
L 9.8125 0 
z
" id="DejaVuSans-42"/>
      <path d="M 41.109375 46.296875 
Q 39.59375 47.171875 37.8125 47.578125 
Q 36.03125 48 33.890625 48 
Q 26.265625 48 22.1875 43.046875 
Q 18.109375 38.09375 18.109375 28.8125 
L 18.109375 0 
L 9.078125 0 
L 9.078125 54.6875 
L 18.109375 54.6875 
L 18.109375 46.1875 
Q 20.953125 51.171875 25.484375 53.578125 
Q 30.03125 56 36.53125 56 
Q 37.453125 56 38.578125 55.875 
Q 39.703125 55.765625 41.0625 55.515625 
z
" id="DejaVuSans-72"/>
      <path d="M 56.203125 29.59375 
L 56.203125 25.203125 
L 14.890625 25.203125 
Q 15.484375 15.921875 20.484375 11.0625 
Q 25.484375 6.203125 34.421875 6.203125 
Q 39.59375 6.203125 44.453125 7.46875 
Q 49.3125 8.734375 54.109375 11.28125 
L 54.109375 2.78125 
Q 49.265625 0.734375 44.1875 -0.34375 
Q 39.109375 -1.421875 33.890625 -1.421875 
Q 20.796875 -1.421875 13.15625 6.1875 
Q 5.515625 13.8125 5.515625 26.8125 
Q 5.515625 40.234375 12.765625 48.109375 
Q 20.015625 56 32.328125 56 
Q 43.359375 56 49.78125 48.890625 
Q 56.203125 41.796875 56.203125 29.59375 
z
M 47.21875 32.234375 
Q 47.125 39.59375 43.09375 43.984375 
Q 39.0625 48.390625 32.421875 48.390625 
Q 24.90625 48.390625 20.390625 44.140625 
Q 15.875 39.890625 15.1875 32.171875 
z
" id="DejaVuSans-65"/>
      <path d="M 18.3125 70.21875 
L 18.3125 54.6875 
L 36.8125 54.6875 
L 36.8125 47.703125 
L 18.3125 47.703125 
L 18.3125 18.015625 
Q 18.3125 11.328125 20.140625 9.421875 
Q 21.96875 7.515625 27.59375 7.515625 
L 36.8125 7.515625 
L 36.8125 0 
L 27.59375 0 
Q 17.1875 0 13.234375 3.875 
Q 9.28125 7.765625 9.28125 18.015625 
L 9.28125 47.703125 
L 2.6875 47.703125 
L 2.6875 54.6875 
L 9.28125 54.6875 
L 9.28125 70.21875 
z
" id="DejaVuSans-74"/>
      <path d="M 34.28125 27.484375 
Q 23.390625 27.484375 19.1875 25 
Q 14.984375 22.515625 14.984375 16.5 
Q 14.984375 11.71875 18.140625 8.90625 
Q 21.296875 6.109375 26.703125 6.109375 
Q 34.1875 6.109375 38.703125 11.40625 
Q 43.21875 16.703125 43.21875 25.484375 
L 43.21875 27.484375 
z
M 52.203125 31.203125 
L 52.203125 0 
L 43.21875 0 
L 43.21875 8.296875 
Q 40.140625 3.328125 35.546875 0.953125 
Q 30.953125 -1.421875 24.3125 -1.421875 
Q 15.921875 -1.421875 10.953125 3.296875 
Q 6 8.015625 6 15.921875 
Q 6 25.140625 12.171875 29.828125 
Q 18.359375 34.515625 30.609375 34.515625 
L 43.21875 34.515625 
L 43.21875 35.40625 
Q 43.21875 41.609375 39.140625 45 
Q 35.0625 48.390625 27.6875 48.390625 
Q 23 48.390625 18.546875 47.265625 
Q 14.109375 46.140625 10.015625 43.890625 
L 10.015625 52.203125 
Q 14.9375 54.109375 19.578125 55.046875 
Q 24.21875 56 28.609375 56 
Q 40.484375 56 46.34375 49.84375 
Q 52.203125 43.703125 52.203125 31.203125 
z
" id="DejaVuSans-61"/>
      <path d="M 8.5 21.578125 
L 8.5 54.6875 
L 17.484375 54.6875 
L 17.484375 21.921875 
Q 17.484375 14.15625 20.5 10.265625 
Q 23.53125 6.390625 29.59375 6.390625 
Q 36.859375 6.390625 41.078125 11.03125 
Q 45.3125 15.671875 45.3125 23.6875 
L 45.3125 54.6875 
L 54.296875 54.6875 
L 54.296875 0 
L 45.3125 0 
L 45.3125 8.40625 
Q 42.046875 3.421875 37.71875 1 
Q 33.40625 -1.421875 27.6875 -1.421875 
Q 18.265625 -1.421875 13.375 4.4375 
Q 8.5 10.296875 8.5 21.578125 
z
M 31.109375 56 
z
" id="DejaVuSans-75"/>
      <path id="DejaVuSans-20"/>
      <path d="M 9.8125 72.90625 
L 19.671875 72.90625 
L 19.671875 0 
L 9.8125 0 
z
" id="DejaVuSans-49"/>
      <path d="M 54.890625 33.015625 
L 54.890625 0 
L 45.90625 0 
L 45.90625 32.71875 
Q 45.90625 40.484375 42.875 44.328125 
Q 39.84375 48.1875 33.796875 48.1875 
Q 26.515625 48.1875 22.3125 43.546875 
Q 18.109375 38.921875 18.109375 30.90625 
L 18.109375 0 
L 9.078125 0 
L 9.078125 54.6875 
L 18.109375 54.6875 
L 18.109375 46.1875 
Q 21.34375 51.125 25.703125 53.5625 
Q 30.078125 56 35.796875 56 
Q 45.21875 56 50.046875 50.171875 
Q 54.890625 44.34375 54.890625 33.015625 
z
" id="DejaVuSans-6e"/>
      <path d="M 45.40625 46.390625 
L 45.40625 75.984375 
L 54.390625 75.984375 
L 54.390625 0 
L 45.40625 0 
L 45.40625 8.203125 
Q 42.578125 3.328125 38.25 0.953125 
Q 33.9375 -1.421875 27.875 -1.421875 
Q 17.96875 -1.421875 11.734375 6.484375 
Q 5.515625 14.40625 5.515625 27.296875 
Q 5.515625 40.1875 11.734375 48.09375 
Q 17.96875 56 27.875 56 
Q 33.9375 56 38.25 53.625 
Q 42.578125 51.265625 45.40625 46.390625 
z
M 14.796875 27.296875 
Q 14.796875 17.390625 18.875 11.75 
Q 22.953125 6.109375 30.078125 6.109375 
Q 37.203125 6.109375 41.296875 11.75 
Q 45.40625 17.390625 45.40625 27.296875 
Q 45.40625 37.203125 41.296875 42.84375 
Q 37.203125 48.484375 30.078125 48.484375 
Q 22.953125 48.484375 18.875 42.84375 
Q 14.796875 37.203125 14.796875 27.296875 
z
" id="DejaVuSans-64"/>
      <path d="M 54.890625 54.6875 
L 35.109375 28.078125 
L 55.90625 0 
L 45.3125 0 
L 29.390625 21.484375 
L 13.484375 0 
L 2.875 0 
L 24.125 28.609375 
L 4.6875 54.6875 
L 15.28125 54.6875 
L 29.78125 35.203125 
L 44.28125 54.6875 
z
" id="DejaVuSans-78"/>
     </defs>
     <g style="fill:#262626;" transform="translate(266.533625 658.44685)scale(0.176 -0.176)">
      <use xlink:href="#DejaVuSans-42"/>
      <use x="68.603516" xlink:href="#DejaVuSans-72"/>
      <use x="109.685547" xlink:href="#DejaVuSans-65"/>
      <use x="171.208984" xlink:href="#DejaVuSans-74"/>
      <use x="210.417969" xlink:href="#DejaVuSans-65"/>
      <use x="271.941406" xlink:href="#DejaVuSans-61"/>
      <use x="333.220703" xlink:href="#DejaVuSans-75"/>
      <use x="396.599609" xlink:href="#DejaVuSans-20"/>
      <use x="428.386719" xlink:href="#DejaVuSans-49"/>
      <use x="457.878906" xlink:href="#DejaVuSans-6e"/>
      <use x="521.257812" xlink:href="#DejaVuSans-64"/>
      <use x="584.734375" xlink:href="#DejaVuSans-65"/>
      <use x="646.242188" xlink:href="#DejaVuSans-78"/>
     </g>
    </g>
   </g>
   <g id="matplotlib.axis_2">
    <g id="ytick_1">
     <g id="line2d_13">
      <path clip-path="url(#p38264bc815)" d="M 49.6135 573.776652 
L 607.6135 573.776652 
" style="fill:none;stroke:#ffffff;stroke-linecap:round;stroke-width:1.6;"/>
     </g>
     <g id="line2d_14"/>
     <g id="text_8">
      <!-- 0 -->
      <g style="fill:#262626;" transform="translate(28.2335 579.855402)scale(0.16 -0.16)">
       <use xlink:href="#DejaVuSans-30"/>
      </g>
     </g>
    </g>
    <g id="ytick_2">
     <g id="line2d_15">
      <path clip-path="url(#p38264bc815)" d="M 49.6135 476.528483 
L 607.6135 476.528483 
" style="fill:none;stroke:#ffffff;stroke-linecap:round;stroke-width:1.6;"/>
     </g>
     <g id="line2d_16"/>
     <g id="text_9">
      <!-- 1 -->
      <g style="fill:#262626;" transform="translate(28.2335 482.607233)scale(0.16 -0.16)">
       <use xlink:href="#DejaVuSans-31"/>
      </g>
     </g>
    </g>
    <g id="ytick_3">
     <g id="line2d_17">
      <path clip-path="url(#p38264bc815)" d="M 49.6135 379.280314 
L 607.6135 379.280314 
" style="fill:none;stroke:#ffffff;stroke-linecap:round;stroke-width:1.6;"/>
     </g>
     <g id="line2d_18"/>
     <g id="text_10">
      <!-- 2 -->
      <g style="fill:#262626;" transform="translate(28.2335 385.359064)scale(0.16 -0.16)">
       <use xlink:href="#DejaVuSans-32"/>
      </g>
     </g>
    </g>
    <g id="ytick_4">
     <g id="line2d_19">
      <path clip-path="url(#p38264bc815)" d="M 49.6135 282.032145 
L 607.6135 282.032145 
" style="fill:none;stroke:#ffffff;stroke-linecap:round;stroke-width:1.6;"/>
     </g>
     <g id="line2d_20"/>
     <g id="text_11">
      <!-- 3 -->
      <g style="fill:#262626;" transform="translate(28.2335 288.110895)scale(0.16 -0.16)">
       <use xlink:href="#DejaVuSans-33"/>
      </g>
     </g>
    </g>
    <g id="ytick_5">
     <g id="line2d_21">
      <path clip-path="url(#p38264bc815)" d="M 49.6135 184.783977 
L 607.6135 184.783977 
" style="fill:none;stroke:#ffffff;stroke-linecap:round;stroke-width:1.6;"/>
     </g>
     <g id="line2d_22"/>
     <g id="text_12">
      <!-- 4 -->
      <g style="fill:#262626;" transform="translate(28.2335 190.862727)scale(0.16 -0.16)">
       <use xlink:href="#DejaVuSans-34"/>
      </g>
     </g>
    </g>
    <g id="ytick_6">
     <g id="line2d_23">
      <path clip-path="url(#p38264bc815)" d="M 49.6135 87.535808 
L 607.6135 87.535808 
" style="fill:none;stroke:#ffffff;stroke-linecap:round;stroke-width:1.6;"/>
     </g>
     <g id="line2d_24"/>
     <g id="text_13">
      <!-- 5 -->
      <g style="fill:#262626;" transform="translate(28.2335 93.614558)scale(0.16 -0.16)">
       <use xlink:href="#DejaVuSans-35"/>
      </g>
     </g>
    </g>
    <g id="text_14">
     <!-- Normalized Total Breeding Site Counts by Area -->
     <defs>
      <path d="M 9.8125 72.90625 
L 23.09375 72.90625 
L 55.421875 11.921875 
L 55.421875 72.90625 
L 64.984375 72.90625 
L 64.984375 0 
L 51.703125 0 
L 19.390625 60.984375 
L 19.390625 0 
L 9.8125 0 
z
" id="DejaVuSans-4e"/>
      <path d="M 30.609375 48.390625 
Q 23.390625 48.390625 19.1875 42.75 
Q 14.984375 37.109375 14.984375 27.296875 
Q 14.984375 17.484375 19.15625 11.84375 
Q 23.34375 6.203125 30.609375 6.203125 
Q 37.796875 6.203125 41.984375 11.859375 
Q 46.1875 17.53125 46.1875 27.296875 
Q 46.1875 37.015625 41.984375 42.703125 
Q 37.796875 48.390625 30.609375 48.390625 
z
M 30.609375 56 
Q 42.328125 56 49.015625 48.375 
Q 55.71875 40.765625 55.71875 27.296875 
Q 55.71875 13.875 49.015625 6.21875 
Q 42.328125 -1.421875 30.609375 -1.421875 
Q 18.84375 -1.421875 12.171875 6.21875 
Q 5.515625 13.875 5.515625 27.296875 
Q 5.515625 40.765625 12.171875 48.375 
Q 18.84375 56 30.609375 56 
z
" id="DejaVuSans-6f"/>
      <path d="M 52 44.1875 
Q 55.375 50.25 60.0625 53.125 
Q 64.75 56 71.09375 56 
Q 79.640625 56 84.28125 50.015625 
Q 88.921875 44.046875 88.921875 33.015625 
L 88.921875 0 
L 79.890625 0 
L 79.890625 32.71875 
Q 79.890625 40.578125 77.09375 44.375 
Q 74.3125 48.1875 68.609375 48.1875 
Q 61.625 48.1875 57.5625 43.546875 
Q 53.515625 38.921875 53.515625 30.90625 
L 53.515625 0 
L 44.484375 0 
L 44.484375 32.71875 
Q 44.484375 40.625 41.703125 44.40625 
Q 38.921875 48.1875 33.109375 48.1875 
Q 26.21875 48.1875 22.15625 43.53125 
Q 18.109375 38.875 18.109375 30.90625 
L 18.109375 0 
L 9.078125 0 
L 9.078125 54.6875 
L 18.109375 54.6875 
L 18.109375 46.1875 
Q 21.1875 51.21875 25.484375 53.609375 
Q 29.78125 56 35.6875 56 
Q 41.65625 56 45.828125 52.96875 
Q 50 49.953125 52 44.1875 
z
" id="DejaVuSans-6d"/>
      <path d="M 9.421875 75.984375 
L 18.40625 75.984375 
L 18.40625 0 
L 9.421875 0 
z
" id="DejaVuSans-6c"/>
      <path d="M 9.421875 54.6875 
L 18.40625 54.6875 
L 18.40625 0 
L 9.421875 0 
z
M 9.421875 75.984375 
L 18.40625 75.984375 
L 18.40625 64.59375 
L 9.421875 64.59375 
z
" id="DejaVuSans-69"/>
      <path d="M 5.515625 54.6875 
L 48.1875 54.6875 
L 48.1875 46.484375 
L 14.40625 7.171875 
L 48.1875 7.171875 
L 48.1875 0 
L 4.296875 0 
L 4.296875 8.203125 
L 38.09375 47.515625 
L 5.515625 47.515625 
z
" id="DejaVuSans-7a"/>
      <path d="M -0.296875 72.90625 
L 61.375 72.90625 
L 61.375 64.59375 
L 35.5 64.59375 
L 35.5 0 
L 25.59375 0 
L 25.59375 64.59375 
L -0.296875 64.59375 
z
" id="DejaVuSans-54"/>
      <path d="M 45.40625 27.984375 
Q 45.40625 37.75 41.375 43.109375 
Q 37.359375 48.484375 30.078125 48.484375 
Q 22.859375 48.484375 18.828125 43.109375 
Q 14.796875 37.75 14.796875 27.984375 
Q 14.796875 18.265625 18.828125 12.890625 
Q 22.859375 7.515625 30.078125 7.515625 
Q 37.359375 7.515625 41.375 12.890625 
Q 45.40625 18.265625 45.40625 27.984375 
z
M 54.390625 6.78125 
Q 54.390625 -7.171875 48.1875 -13.984375 
Q 42 -20.796875 29.203125 -20.796875 
Q 24.46875 -20.796875 20.265625 -20.09375 
Q 16.0625 -19.390625 12.109375 -17.921875 
L 12.109375 -9.1875 
Q 16.0625 -11.328125 19.921875 -12.34375 
Q 23.78125 -13.375 27.78125 -13.375 
Q 36.625 -13.375 41.015625 -8.765625 
Q 45.40625 -4.15625 45.40625 5.171875 
L 45.40625 9.625 
Q 42.625 4.78125 38.28125 2.390625 
Q 33.9375 0 27.875 0 
Q 17.828125 0 11.671875 7.65625 
Q 5.515625 15.328125 5.515625 27.984375 
Q 5.515625 40.671875 11.671875 48.328125 
Q 17.828125 56 27.875 56 
Q 33.9375 56 38.28125 53.609375 
Q 42.625 51.21875 45.40625 46.390625 
L 45.40625 54.6875 
L 54.390625 54.6875 
z
" id="DejaVuSans-67"/>
      <path d="M 53.515625 70.515625 
L 53.515625 60.890625 
Q 47.90625 63.578125 42.921875 64.890625 
Q 37.9375 66.21875 33.296875 66.21875 
Q 25.25 66.21875 20.875 63.09375 
Q 16.5 59.96875 16.5 54.203125 
Q 16.5 49.359375 19.40625 46.890625 
Q 22.3125 44.4375 30.421875 42.921875 
L 36.375 41.703125 
Q 47.40625 39.59375 52.65625 34.296875 
Q 57.90625 29 57.90625 20.125 
Q 57.90625 9.515625 50.796875 4.046875 
Q 43.703125 -1.421875 29.984375 -1.421875 
Q 24.8125 -1.421875 18.96875 -0.25 
Q 13.140625 0.921875 6.890625 3.21875 
L 6.890625 13.375 
Q 12.890625 10.015625 18.65625 8.296875 
Q 24.421875 6.59375 29.984375 6.59375 
Q 38.421875 6.59375 43.015625 9.90625 
Q 47.609375 13.234375 47.609375 19.390625 
Q 47.609375 24.75 44.3125 27.78125 
Q 41.015625 30.8125 33.5 32.328125 
L 27.484375 33.5 
Q 16.453125 35.6875 11.515625 40.375 
Q 6.59375 45.0625 6.59375 53.421875 
Q 6.59375 63.09375 13.40625 68.65625 
Q 20.21875 74.21875 32.171875 74.21875 
Q 37.3125 74.21875 42.625 73.28125 
Q 47.953125 72.359375 53.515625 70.515625 
z
" id="DejaVuSans-53"/>
      <path d="M 64.40625 67.28125 
L 64.40625 56.890625 
Q 59.421875 61.53125 53.78125 63.8125 
Q 48.140625 66.109375 41.796875 66.109375 
Q 29.296875 66.109375 22.65625 58.46875 
Q 16.015625 50.828125 16.015625 36.375 
Q 16.015625 21.96875 22.65625 14.328125 
Q 29.296875 6.6875 41.796875 6.6875 
Q 48.140625 6.6875 53.78125 8.984375 
Q 59.421875 11.28125 64.40625 15.921875 
L 64.40625 5.609375 
Q 59.234375 2.09375 53.4375 0.328125 
Q 47.65625 -1.421875 41.21875 -1.421875 
Q 24.65625 -1.421875 15.125 8.703125 
Q 5.609375 18.84375 5.609375 36.375 
Q 5.609375 53.953125 15.125 64.078125 
Q 24.65625 74.21875 41.21875 74.21875 
Q 47.75 74.21875 53.53125 72.484375 
Q 59.328125 70.75 64.40625 67.28125 
z
" id="DejaVuSans-43"/>
      <path d="M 44.28125 53.078125 
L 44.28125 44.578125 
Q 40.484375 46.53125 36.375 47.5 
Q 32.28125 48.484375 27.875 48.484375 
Q 21.1875 48.484375 17.84375 46.4375 
Q 14.5 44.390625 14.5 40.28125 
Q 14.5 37.15625 16.890625 35.375 
Q 19.28125 33.59375 26.515625 31.984375 
L 29.59375 31.296875 
Q 39.15625 29.25 43.1875 25.515625 
Q 47.21875 21.78125 47.21875 15.09375 
Q 47.21875 7.46875 41.1875 3.015625 
Q 35.15625 -1.421875 24.609375 -1.421875 
Q 20.21875 -1.421875 15.453125 -0.5625 
Q 10.6875 0.296875 5.421875 2 
L 5.421875 11.28125 
Q 10.40625 8.6875 15.234375 7.390625 
Q 20.0625 6.109375 24.8125 6.109375 
Q 31.15625 6.109375 34.5625 8.28125 
Q 37.984375 10.453125 37.984375 14.40625 
Q 37.984375 18.0625 35.515625 20.015625 
Q 33.0625 21.96875 24.703125 23.78125 
L 21.578125 24.515625 
Q 13.234375 26.265625 9.515625 29.90625 
Q 5.8125 33.546875 5.8125 39.890625 
Q 5.8125 47.609375 11.28125 51.796875 
Q 16.75 56 26.8125 56 
Q 31.78125 56 36.171875 55.265625 
Q 40.578125 54.546875 44.28125 53.078125 
z
" id="DejaVuSans-73"/>
      <path d="M 48.6875 27.296875 
Q 48.6875 37.203125 44.609375 42.84375 
Q 40.53125 48.484375 33.40625 48.484375 
Q 26.265625 48.484375 22.1875 42.84375 
Q 18.109375 37.203125 18.109375 27.296875 
Q 18.109375 17.390625 22.1875 11.75 
Q 26.265625 6.109375 33.40625 6.109375 
Q 40.53125 6.109375 44.609375 11.75 
Q 48.6875 17.390625 48.6875 27.296875 
z
M 18.109375 46.390625 
Q 20.953125 51.265625 25.265625 53.625 
Q 29.59375 56 35.59375 56 
Q 45.5625 56 51.78125 48.09375 
Q 58.015625 40.1875 58.015625 27.296875 
Q 58.015625 14.40625 51.78125 6.484375 
Q 45.5625 -1.421875 35.59375 -1.421875 
Q 29.59375 -1.421875 25.265625 0.953125 
Q 20.953125 3.328125 18.109375 8.203125 
L 18.109375 0 
L 9.078125 0 
L 9.078125 75.984375 
L 18.109375 75.984375 
z
" id="DejaVuSans-62"/>
      <path d="M 32.171875 -5.078125 
Q 28.375 -14.84375 24.75 -17.8125 
Q 21.140625 -20.796875 15.09375 -20.796875 
L 7.90625 -20.796875 
L 7.90625 -13.28125 
L 13.1875 -13.28125 
Q 16.890625 -13.28125 18.9375 -11.515625 
Q 21 -9.765625 23.484375 -3.21875 
L 25.09375 0.875 
L 2.984375 54.6875 
L 12.5 54.6875 
L 29.59375 11.921875 
L 46.6875 54.6875 
L 56.203125 54.6875 
z
" id="DejaVuSans-79"/>
      <path d="M 34.1875 63.1875 
L 20.796875 26.90625 
L 47.609375 26.90625 
z
M 28.609375 72.90625 
L 39.796875 72.90625 
L 67.578125 0 
L 57.328125 0 
L 50.6875 18.703125 
L 17.828125 18.703125 
L 11.1875 0 
L 0.78125 0 
z
" id="DejaVuSans-41"/>
     </defs>
     <g style="fill:#262626;" transform="translate(20.57325 549.978475)rotate(-90)scale(0.176 -0.176)">
      <use xlink:href="#DejaVuSans-4e"/>
      <use x="74.804688" xlink:href="#DejaVuSans-6f"/>
      <use x="135.986328" xlink:href="#DejaVuSans-72"/>
      <use x="177.083984" xlink:href="#DejaVuSans-6d"/>
      <use x="274.496094" xlink:href="#DejaVuSans-61"/>
      <use x="335.775391" xlink:href="#DejaVuSans-6c"/>
      <use x="363.558594" xlink:href="#DejaVuSans-69"/>
      <use x="391.341797" xlink:href="#DejaVuSans-7a"/>
      <use x="443.832031" xlink:href="#DejaVuSans-65"/>
      <use x="505.355469" xlink:href="#DejaVuSans-64"/>
      <use x="568.832031" xlink:href="#DejaVuSans-20"/>
      <use x="600.619141" xlink:href="#DejaVuSans-54"/>
      <use x="661.4375" xlink:href="#DejaVuSans-6f"/>
      <use x="722.619141" xlink:href="#DejaVuSans-74"/>
      <use x="761.828125" xlink:href="#DejaVuSans-61"/>
      <use x="823.107422" xlink:href="#DejaVuSans-6c"/>
      <use x="850.890625" xlink:href="#DejaVuSans-20"/>
      <use x="882.677734" xlink:href="#DejaVuSans-42"/>
      <use x="951.28125" xlink:href="#DejaVuSans-72"/>
      <use x="992.363281" xlink:href="#DejaVuSans-65"/>
      <use x="1053.886719" xlink:href="#DejaVuSans-65"/>
      <use x="1115.410156" xlink:href="#DejaVuSans-64"/>
      <use x="1178.886719" xlink:href="#DejaVuSans-69"/>
      <use x="1206.669922" xlink:href="#DejaVuSans-6e"/>
      <use x="1270.048828" xlink:href="#DejaVuSans-67"/>
      <use x="1333.525391" xlink:href="#DejaVuSans-20"/>
      <use x="1365.3125" xlink:href="#DejaVuSans-53"/>
      <use x="1428.789062" xlink:href="#DejaVuSans-69"/>
      <use x="1456.572266" xlink:href="#DejaVuSans-74"/>
      <use x="1495.78125" xlink:href="#DejaVuSans-65"/>
      <use x="1557.304688" xlink:href="#DejaVuSans-20"/>
      <use x="1589.091797" xlink:href="#DejaVuSans-43"/>
      <use x="1658.916016" xlink:href="#DejaVuSans-6f"/>
      <use x="1720.097656" xlink:href="#DejaVuSans-75"/>
      <use x="1783.476562" xlink:href="#DejaVuSans-6e"/>
      <use x="1846.855469" xlink:href="#DejaVuSans-74"/>
      <use x="1886.064453" xlink:href="#DejaVuSans-73"/>
      <use x="1938.164062" xlink:href="#DejaVuSans-20"/>
      <use x="1969.951172" xlink:href="#DejaVuSans-62"/>
      <use x="2033.427734" xlink:href="#DejaVuSans-79"/>
      <use x="2092.607422" xlink:href="#DejaVuSans-20"/>
      <use x="2124.394531" xlink:href="#DejaVuSans-41"/>
      <use x="2192.802734" xlink:href="#DejaVuSans-72"/>
      <use x="2233.884766" xlink:href="#DejaVuSans-65"/>
      <use x="2295.408203" xlink:href="#DejaVuSans-61"/>
     </g>
    </g>
   </g>
   <g id="PathCollection_1">
    <defs>
     <path d="M 0 5.6 
C 1.485137 5.6 2.909647 5.009949 3.959798 3.959798 
C 5.009949 2.909647 5.6 1.485137 5.6 0 
C 5.6 -1.485137 5.009949 -2.909647 3.959798 -3.959798 
C 2.909647 -5.009949 1.485137 -5.6 0 -5.6 
C -1.485137 -5.6 -2.909647 -5.009949 -3.959798 -3.959798 
C -5.009949 -2.909647 -5.6 -1.485137 -5.6 0 
C -5.6 1.485137 -5.009949 2.909647 -3.959798 3.959798 
C -2.909647 5.009949 -1.485137 5.6 0 5.6 
z
" id="m5ccf73a3cb"/>
    </defs>
    <g clip-path="url(#p38264bc815)">
     <use style="fill:#4c72b0;fill-opacity:0.8;" x="143.073234" xlink:href="#m5ccf73a3cb" y="434.450091"/>
     <use style="fill:#4c72b0;fill-opacity:0.8;" x="292.944208" xlink:href="#m5ccf73a3cb" y="529.354988"/>
     <use style="fill:#4c72b0;fill-opacity:0.8;" x="417.80814" xlink:href="#m5ccf73a3cb" y="476.113788"/>
     <use style="fill:#4c72b0;fill-opacity:0.8;" x="132.368165" xlink:href="#m5ccf73a3cb" y="423.163889"/>
     <use style="fill:#4c72b0;fill-opacity:0.8;" x="133.567132" xlink:href="#m5ccf73a3cb" y="489.630335"/>
     <use style="fill:#4c72b0;fill-opacity:0.8;" x="75.245913" xlink:href="#m5ccf73a3cb" y="514.734293"/>
     <use style="fill:#4c72b0;fill-opacity:0.8;" x="75.245913" xlink:href="#m5ccf73a3cb" y="544.551614"/>
     <use style="fill:#4c72b0;fill-opacity:0.8;" x="75.674116" xlink:href="#m5ccf73a3cb" y="544.326884"/>
     <use style="fill:#4c72b0;fill-opacity:0.8;" x="160.88647" xlink:href="#m5ccf73a3cb" y="477.351347"/>
     <use style="fill:#4c72b0;fill-opacity:0.8;" x="288.319618" xlink:href="#m5ccf73a3cb" y="543.093936"/>
     <use style="fill:#4c72b0;fill-opacity:0.8;" x="198.397034" xlink:href="#m5ccf73a3cb" y="528.488219"/>
     <use style="fill:#4c72b0;fill-opacity:0.8;" x="284.637074" xlink:href="#m5ccf73a3cb" y="365.70398"/>
     <use style="fill:#4c72b0;fill-opacity:0.8;" x="89.547886" xlink:href="#m5ccf73a3cb" y="527.438309"/>
     <use style="fill:#4c72b0;fill-opacity:0.8;" x="303.649278" xlink:href="#m5ccf73a3cb" y="478.141755"/>
     <use style="fill:#4c72b0;fill-opacity:0.8;" x="389.289834" xlink:href="#m5ccf73a3cb" y="478.485019"/>
     <use style="fill:#4c72b0;fill-opacity:0.8;" x="292.944208" xlink:href="#m5ccf73a3cb" y="406.769799"/>
     <use style="fill:#4c72b0;fill-opacity:0.8;" x="196.598582" xlink:href="#m5ccf73a3cb" y="534.908886"/>
     <use style="fill:#4c72b0;fill-opacity:0.8;" x="517.750669" xlink:href="#m5ccf73a3cb" y="145.002503"/>
     <use style="fill:#4c72b0;fill-opacity:0.8;" x="517.750669" xlink:href="#m5ccf73a3cb" y="272.22924"/>
     <use style="fill:#4c72b0;fill-opacity:0.8;" x="132.368165" xlink:href="#m5ccf73a3cb" y="486.492561"/>
     <use style="fill:#4c72b0;fill-opacity:0.8;" x="581.981087" xlink:href="#m5ccf73a3cb" y="544.140041"/>
     <use style="fill:#4c72b0;fill-opacity:0.8;" x="271.534069" xlink:href="#m5ccf73a3cb" y="439.714689"/>
     <use style="fill:#4c72b0;fill-opacity:0.8;" x="153.778304" xlink:href="#m5ccf73a3cb" y="530.865601"/>
     <use style="fill:#4c72b0;fill-opacity:0.8;" x="165.939263" xlink:href="#m5ccf73a3cb" y="503.054267"/>
     <use style="fill:#4c72b0;fill-opacity:0.8;" x="482.038557" xlink:href="#m5ccf73a3cb" y="95.638005"/>
     <use style="fill:#4c72b0;fill-opacity:0.8;" x="346.469556" xlink:href="#m5ccf73a3cb" y="498.16739"/>
     <use style="fill:#4c72b0;fill-opacity:0.8;" x="467.736584" xlink:href="#m5ccf73a3cb" y="494.042994"/>
     <use style="fill:#4c72b0;fill-opacity:0.8;" x="389.289834" xlink:href="#m5ccf73a3cb" y="356.581497"/>
     <use style="fill:#4c72b0;fill-opacity:0.8;" x="218.008721" xlink:href="#m5ccf73a3cb" y="386.031163"/>
    </g>
   </g>
   <g id="PolyCollection_1">
    <path clip-path="url(#p38264bc815)" d="M 49.6135 484.546423 
L 49.6135 589.679509 
L 55.249864 585.899667 
L 60.886227 582.113776 
L 66.522591 578.320695 
L 72.158955 574.857501 
L 77.795318 570.86135 
L 83.431682 566.982687 
L 89.068045 563.190745 
L 94.704409 559.382741 
L 100.340773 555.236429 
L 105.977136 551.580388 
L 111.6135 547.377492 
L 117.249864 543.809311 
L 122.886227 540.24113 
L 128.522591 536.681165 
L 134.158955 532.866981 
L 139.795318 529.2971 
L 145.431682 525.99745 
L 151.068045 522.434291 
L 156.704409 519.201899 
L 162.340773 515.399195 
L 167.977136 512.931251 
L 173.6135 509.911726 
L 179.249864 507.060707 
L 184.886227 504.397866 
L 190.522591 501.846541 
L 196.158955 499.973234 
L 201.795318 498.05705 
L 207.431682 495.802664 
L 213.068045 494.151927 
L 218.704409 492.524486 
L 224.340773 491.367994 
L 229.977136 490.335698 
L 235.6135 489.561712 
L 241.249864 487.944477 
L 246.886227 487.332787 
L 252.522591 487.049981 
L 258.158955 486.218283 
L 263.795318 485.157929 
L 269.431682 484.119057 
L 275.068045 483.61186 
L 280.704409 483.338479 
L 286.340773 482.69761 
L 291.977136 482.165904 
L 297.6135 481.665455 
L 303.249864 480.947273 
L 308.886227 480.777074 
L 314.522591 480.29718 
L 320.158955 480.165453 
L 325.795318 480.033725 
L 331.431682 479.901998 
L 337.068045 479.770271 
L 342.704409 479.765166 
L 348.340773 479.404976 
L 353.977136 478.88693 
L 359.6135 478.368884 
L 365.249864 477.841699 
L 370.886227 477.312682 
L 376.522591 477.488461 
L 382.158955 476.929947 
L 387.795318 476.473473 
L 393.431682 476.471192 
L 399.068045 476.460795 
L 404.704409 476.372766 
L 410.340773 476.402291 
L 415.977136 476.431816 
L 421.6135 476.437483 
L 427.249864 476.175649 
L 432.886227 475.848325 
L 438.522591 475.518477 
L 444.158955 475.188628 
L 449.795318 474.858779 
L 455.431682 474.601149 
L 461.068045 474.564753 
L 466.704409 474.248662 
L 472.340773 473.932571 
L 477.977136 473.61648 
L 483.6135 473.300389 
L 489.249864 472.984298 
L 494.886227 472.668207 
L 500.522591 472.35008 
L 506.158955 472.026211 
L 511.795318 471.702343 
L 517.431682 471.632517 
L 523.068045 471.91182 
L 528.704409 472.191124 
L 534.340773 472.466843 
L 539.977136 472.739038 
L 545.6135 473.011233 
L 551.249864 473.283428 
L 556.886227 473.289316 
L 562.522591 472.881313 
L 568.158955 472.47331 
L 573.795318 472.054991 
L 579.431682 471.63522 
L 585.068045 471.215448 
L 590.704409 470.795676 
L 596.340773 470.375904 
L 601.977136 469.956133 
L 607.6135 469.536361 
L 607.6135 175.659376 
L 607.6135 175.659376 
L 601.977136 179.956858 
L 596.340773 184.25434 
L 590.704409 188.551822 
L 585.068045 192.849303 
L 579.431682 197.146785 
L 573.795318 201.447144 
L 568.158955 205.750261 
L 562.522591 210.053377 
L 556.886227 214.356494 
L 551.249864 218.381017 
L 545.6135 222.344268 
L 539.977136 226.307519 
L 534.340773 230.235663 
L 528.704409 234.114562 
L 523.068045 238.135857 
L 517.431682 242.146268 
L 511.795318 246.099014 
L 506.158955 250.051759 
L 500.522591 253.999798 
L 494.886227 257.894365 
L 489.249864 261.788933 
L 483.6135 265.6835 
L 477.977136 269.578067 
L 472.340773 273.472635 
L 466.704409 277.367202 
L 461.068045 281.2655 
L 455.431682 285.164938 
L 449.795318 289.064376 
L 444.158955 292.963814 
L 438.522591 296.942057 
L 432.886227 301.001071 
L 427.249864 305.06167 
L 421.6135 309.149302 
L 415.977136 313.338377 
L 410.340773 317.295992 
L 404.704409 321.25097 
L 399.068045 325.204176 
L 393.431682 329.157382 
L 387.795318 333.000644 
L 382.158955 336.76189 
L 376.522591 341.016999 
L 370.886227 344.975558 
L 365.249864 348.93558 
L 359.6135 352.889098 
L 353.977136 356.97996 
L 348.340773 361.18694 
L 342.704409 365.393919 
L 337.068045 369.600899 
L 331.431682 373.59208 
L 325.795318 377.196362 
L 320.158955 381.136766 
L 314.522591 385.330949 
L 308.886227 389.111224 
L 303.249864 392.922842 
L 297.6135 396.388513 
L 291.977136 400.046563 
L 286.340773 403.478538 
L 280.704409 407.115255 
L 275.068045 410.608982 
L 269.431682 414.56373 
L 263.795318 418.541593 
L 258.158955 422.071454 
L 252.522591 425.534601 
L 246.886227 429.309679 
L 241.249864 433.200024 
L 235.6135 436.716297 
L 229.977136 440.672537 
L 224.340773 443.524557 
L 218.704409 446.545463 
L 213.068045 449.477978 
L 207.431682 452.311312 
L 201.795318 455.010215 
L 196.158955 457.960858 
L 190.522591 460.17506 
L 184.886227 462.620912 
L 179.249864 464.427271 
L 173.6135 466.463943 
L 167.977136 468.379472 
L 162.340773 469.61237 
L 156.704409 470.899449 
L 151.068045 472.040567 
L 145.431682 472.589833 
L 139.795318 474.228223 
L 134.158955 474.761871 
L 128.522591 475.355964 
L 122.886227 476.350917 
L 117.249864 476.98271 
L 111.6135 477.897147 
L 105.977136 478.387802 
L 100.340773 479.753565 
L 94.704409 480.712205 
L 89.068045 481.192302 
L 83.431682 481.565346 
L 77.795318 482.583355 
L 72.158955 482.743772 
L 66.522591 482.736016 
L 60.886227 483.103052 
L 55.249864 483.790663 
L 49.6135 484.546423 
z
" style="fill:#4c72b0;fill-opacity:0.15;"/>
   </g>
   <g id="line2d_25">
    <path clip-path="url(#p38264bc815)" d="M 49.6135 536.462046 
L 55.249864 534.237374 
L 60.886227 532.012702 
L 66.522591 529.78803 
L 72.158955 527.563359 
L 77.795318 525.338687 
L 83.431682 523.114015 
L 89.068045 520.889343 
L 94.704409 518.664671 
L 100.340773 516.439999 
L 105.977136 514.215327 
L 111.6135 511.990656 
L 117.249864 509.765984 
L 122.886227 507.541312 
L 128.522591 505.31664 
L 134.158955 503.091968 
L 139.795318 500.867296 
L 145.431682 498.642625 
L 151.068045 496.417953 
L 156.704409 494.193281 
L 162.340773 491.968609 
L 167.977136 489.743937 
L 173.6135 487.519265 
L 179.249864 485.294594 
L 184.886227 483.069922 
L 190.522591 480.84525 
L 196.158955 478.620578 
L 201.795318 476.395906 
L 207.431682 474.171234 
L 213.068045 471.946562 
L 218.704409 469.721891 
L 224.340773 467.497219 
L 229.977136 465.272547 
L 235.6135 463.047875 
L 241.249864 460.823203 
L 246.886227 458.598531 
L 252.522591 456.37386 
L 258.158955 454.149188 
L 263.795318 451.924516 
L 269.431682 449.699844 
L 275.068045 447.475172 
L 280.704409 445.2505 
L 286.340773 443.025828 
L 291.977136 440.801157 
L 297.6135 438.576485 
L 303.249864 436.351813 
L 308.886227 434.127141 
L 314.522591 431.902469 
L 320.158955 429.677797 
L 325.795318 427.453126 
L 331.431682 425.228454 
L 337.068045 423.003782 
L 342.704409 420.77911 
L 348.340773 418.554438 
L 353.977136 416.329766 
L 359.6135 414.105094 
L 365.249864 411.880423 
L 370.886227 409.655751 
L 376.522591 407.431079 
L 382.158955 405.206407 
L 387.795318 402.981735 
L 393.431682 400.757063 
L 399.068045 398.532392 
L 404.704409 396.30772 
L 410.340773 394.083048 
L 415.977136 391.858376 
L 421.6135 389.633704 
L 427.249864 387.409032 
L 432.886227 385.184361 
L 438.522591 382.959689 
L 444.158955 380.735017 
L 449.795318 378.510345 
L 455.431682 376.285673 
L 461.068045 374.061001 
L 466.704409 371.836329 
L 472.340773 369.611658 
L 477.977136 367.386986 
L 483.6135 365.162314 
L 489.249864 362.937642 
L 494.886227 360.71297 
L 500.522591 358.488298 
L 506.158955 356.263627 
L 511.795318 354.038955 
L 517.431682 351.814283 
L 523.068045 349.589611 
L 528.704409 347.364939 
L 534.340773 345.140267 
L 539.977136 342.915595 
L 545.6135 340.690924 
L 551.249864 338.466252 
L 556.886227 336.24158 
L 562.522591 334.016908 
L 568.158955 331.792236 
L 573.795318 329.567564 
L 579.431682 327.342893 
L 585.068045 325.118221 
L 590.704409 322.893549 
L 596.340773 320.668877 
L 601.977136 318.444205 
L 607.6135 316.219533 
" style="fill:none;stroke:#4c72b0;stroke-linecap:round;stroke-width:4.2;"/>
   </g>
   <g id="patch_3">
    <path d="M 49.6135 614.3886 
L 49.6135 70.7886 
" style="fill:none;"/>
   </g>
   <g id="patch_4">
    <path d="M 607.6135 614.3886 
L 607.6135 70.7886 
" style="fill:none;"/>
   </g>
   <g id="patch_5">
    <path d="M 49.6135 614.3886 
L 607.6135 614.3886 
" style="fill:none;"/>
   </g>
   <g id="patch_6">
    <path d="M 49.6135 70.7886 
L 607.6135 70.7886 
" style="fill:none;"/>
   </g>
   <g id="text_15">
    <!-- Dengue season (29 data points) -->
    <defs>
     <path d="M 19.671875 64.796875 
L 19.671875 8.109375 
L 31.59375 8.109375 
Q 46.6875 8.109375 53.6875 14.9375 
Q 60.6875 21.78125 60.6875 36.53125 
Q 60.6875 51.171875 53.6875 57.984375 
Q 46.6875 64.796875 31.59375 64.796875 
z
M 9.8125 72.90625 
L 30.078125 72.90625 
Q 51.265625 72.90625 61.171875 64.09375 
Q 71.09375 55.28125 71.09375 36.53125 
Q 71.09375 17.671875 61.125 8.828125 
Q 51.171875 0 30.078125 0 
L 9.8125 0 
z
" id="DejaVuSans-44"/>
     <path d="M 31 75.875 
Q 24.46875 64.65625 21.28125 53.65625 
Q 18.109375 42.671875 18.109375 31.390625 
Q 18.109375 20.125 21.3125 9.0625 
Q 24.515625 -2 31 -13.1875 
L 23.1875 -13.1875 
Q 15.875 -1.703125 12.234375 9.375 
Q 8.59375 20.453125 8.59375 31.390625 
Q 8.59375 42.28125 12.203125 53.3125 
Q 15.828125 64.359375 23.1875 75.875 
z
" id="DejaVuSans-28"/>
     <path d="M 10.984375 1.515625 
L 10.984375 10.5 
Q 14.703125 8.734375 18.5 7.8125 
Q 22.3125 6.890625 25.984375 6.890625 
Q 35.75 6.890625 40.890625 13.453125 
Q 46.046875 20.015625 46.78125 33.40625 
Q 43.953125 29.203125 39.59375 26.953125 
Q 35.25 24.703125 29.984375 24.703125 
Q 19.046875 24.703125 12.671875 31.3125 
Q 6.296875 37.9375 6.296875 49.421875 
Q 6.296875 60.640625 12.9375 67.421875 
Q 19.578125 74.21875 30.609375 74.21875 
Q 43.265625 74.21875 49.921875 64.515625 
Q 56.59375 54.828125 56.59375 36.375 
Q 56.59375 19.140625 48.40625 8.859375 
Q 40.234375 -1.421875 26.421875 -1.421875 
Q 22.703125 -1.421875 18.890625 -0.6875 
Q 15.09375 0.046875 10.984375 1.515625 
z
M 30.609375 32.421875 
Q 37.25 32.421875 41.125 36.953125 
Q 45.015625 41.5 45.015625 49.421875 
Q 45.015625 57.28125 41.125 61.84375 
Q 37.25 66.40625 30.609375 66.40625 
Q 23.96875 66.40625 20.09375 61.84375 
Q 16.21875 57.28125 16.21875 49.421875 
Q 16.21875 41.5 20.09375 36.953125 
Q 23.96875 32.421875 30.609375 32.421875 
z
" id="DejaVuSans-39"/>
     <path d="M 18.109375 8.203125 
L 18.109375 -20.796875 
L 9.078125 -20.796875 
L 9.078125 54.6875 
L 18.109375 54.6875 
L 18.109375 46.390625 
Q 20.953125 51.265625 25.265625 53.625 
Q 29.59375 56 35.59375 56 
Q 45.5625 56 51.78125 48.09375 
Q 58.015625 40.1875 58.015625 27.296875 
Q 58.015625 14.40625 51.78125 6.484375 
Q 45.5625 -1.421875 35.59375 -1.421875 
Q 29.59375 -1.421875 25.265625 0.953125 
Q 20.953125 3.328125 18.109375 8.203125 
z
M 48.6875 27.296875 
Q 48.6875 37.203125 44.609375 42.84375 
Q 40.53125 48.484375 33.40625 48.484375 
Q 26.265625 48.484375 22.1875 42.84375 
Q 18.109375 37.203125 18.109375 27.296875 
Q 18.109375 17.390625 22.1875 11.75 
Q 26.265625 6.109375 33.40625 6.109375 
Q 40.53125 6.109375 44.609375 11.75 
Q 48.6875 17.390625 48.6875 27.296875 
z
" id="DejaVuSans-70"/>
     <path d="M 8.015625 75.875 
L 15.828125 75.875 
Q 23.140625 64.359375 26.78125 53.3125 
Q 30.421875 42.28125 30.421875 31.390625 
Q 30.421875 20.453125 26.78125 9.375 
Q 23.140625 -1.703125 15.828125 -13.1875 
L 8.015625 -13.1875 
Q 14.5 -2 17.703125 9.0625 
Q 20.90625 20.125 20.90625 31.390625 
Q 20.90625 42.671875 17.703125 53.65625 
Q 14.5 64.65625 8.015625 75.875 
z
" id="DejaVuSans-29"/>
    </defs>
    <g style="fill:#262626;" transform="translate(174.376 21.789)scale(0.192 -0.192)">
     <use xlink:href="#DejaVuSans-44"/>
     <use x="77.001953" xlink:href="#DejaVuSans-65"/>
     <use x="138.525391" xlink:href="#DejaVuSans-6e"/>
     <use x="201.904297" xlink:href="#DejaVuSans-67"/>
     <use x="265.380859" xlink:href="#DejaVuSans-75"/>
     <use x="328.759766" xlink:href="#DejaVuSans-65"/>
     <use x="390.283203" xlink:href="#DejaVuSans-20"/>
     <use x="422.070312" xlink:href="#DejaVuSans-73"/>
     <use x="474.169922" xlink:href="#DejaVuSans-65"/>
     <use x="535.693359" xlink:href="#DejaVuSans-61"/>
     <use x="596.972656" xlink:href="#DejaVuSans-73"/>
     <use x="649.072266" xlink:href="#DejaVuSans-6f"/>
     <use x="710.253906" xlink:href="#DejaVuSans-6e"/>
     <use x="773.632812" xlink:href="#DejaVuSans-20"/>
     <use x="805.419922" xlink:href="#DejaVuSans-28"/>
     <use x="844.433594" xlink:href="#DejaVuSans-32"/>
     <use x="908.056641" xlink:href="#DejaVuSans-39"/>
     <use x="971.679688" xlink:href="#DejaVuSans-20"/>
     <use x="1003.466797" xlink:href="#DejaVuSans-64"/>
     <use x="1066.943359" xlink:href="#DejaVuSans-61"/>
     <use x="1128.222656" xlink:href="#DejaVuSans-74"/>
     <use x="1167.431641" xlink:href="#DejaVuSans-61"/>
     <use x="1228.710938" xlink:href="#DejaVuSans-20"/>
     <use x="1260.498047" xlink:href="#DejaVuSans-70"/>
     <use x="1323.974609" xlink:href="#DejaVuSans-6f"/>
     <use x="1385.15625" xlink:href="#DejaVuSans-69"/>
     <use x="1412.939453" xlink:href="#DejaVuSans-6e"/>
     <use x="1476.318359" xlink:href="#DejaVuSans-74"/>
     <use x="1515.527344" xlink:href="#DejaVuSans-73"/>
     <use x="1567.626953" xlink:href="#DejaVuSans-29"/>
    </g>
    <!-- Pearson: 0.5242, p-value: 0.0035 -->
    <defs>
     <path d="M 19.671875 64.796875 
L 19.671875 37.40625 
L 32.078125 37.40625 
Q 38.96875 37.40625 42.71875 40.96875 
Q 46.484375 44.53125 46.484375 51.125 
Q 46.484375 57.671875 42.71875 61.234375 
Q 38.96875 64.796875 32.078125 64.796875 
z
M 9.8125 72.90625 
L 32.078125 72.90625 
Q 44.34375 72.90625 50.609375 67.359375 
Q 56.890625 61.8125 56.890625 51.125 
Q 56.890625 40.328125 50.609375 34.8125 
Q 44.34375 29.296875 32.078125 29.296875 
L 19.671875 29.296875 
L 19.671875 0 
L 9.8125 0 
z
" id="DejaVuSans-50"/>
     <path d="M 11.71875 12.40625 
L 22.015625 12.40625 
L 22.015625 0 
L 11.71875 0 
z
M 11.71875 51.703125 
L 22.015625 51.703125 
L 22.015625 39.3125 
L 11.71875 39.3125 
z
" id="DejaVuSans-3a"/>
     <path d="M 10.6875 12.40625 
L 21 12.40625 
L 21 0 
L 10.6875 0 
z
" id="DejaVuSans-2e"/>
     <path d="M 11.71875 12.40625 
L 22.015625 12.40625 
L 22.015625 4 
L 14.015625 -11.625 
L 7.71875 -11.625 
L 11.71875 4 
z
" id="DejaVuSans-2c"/>
     <path d="M 4.890625 31.390625 
L 31.203125 31.390625 
L 31.203125 23.390625 
L 4.890625 23.390625 
z
" id="DejaVuSans-2d"/>
     <path d="M 2.984375 54.6875 
L 12.5 54.6875 
L 29.59375 8.796875 
L 46.6875 54.6875 
L 56.203125 54.6875 
L 35.6875 0 
L 23.484375 0 
z
" id="DejaVuSans-76"/>
    </defs>
    <g style="fill:#262626;" transform="translate(168.502 43.2888)scale(0.192 -0.192)">
     <use xlink:href="#DejaVuSans-50"/>
     <use x="60.255859" xlink:href="#DejaVuSans-65"/>
     <use x="121.779297" xlink:href="#DejaVuSans-61"/>
     <use x="183.058594" xlink:href="#DejaVuSans-72"/>
     <use x="224.171875" xlink:href="#DejaVuSans-73"/>
     <use x="276.271484" xlink:href="#DejaVuSans-6f"/>
     <use x="337.453125" xlink:href="#DejaVuSans-6e"/>
     <use x="400.832031" xlink:href="#DejaVuSans-3a"/>
     <use x="434.523438" xlink:href="#DejaVuSans-20"/>
     <use x="466.310547" xlink:href="#DejaVuSans-30"/>
     <use x="529.933594" xlink:href="#DejaVuSans-2e"/>
     <use x="561.720703" xlink:href="#DejaVuSans-35"/>
     <use x="625.34375" xlink:href="#DejaVuSans-32"/>
     <use x="688.966797" xlink:href="#DejaVuSans-34"/>
     <use x="752.589844" xlink:href="#DejaVuSans-32"/>
     <use x="816.212891" xlink:href="#DejaVuSans-2c"/>
     <use x="848" xlink:href="#DejaVuSans-20"/>
     <use x="879.787109" xlink:href="#DejaVuSans-70"/>
     <use x="943.263672" xlink:href="#DejaVuSans-2d"/>
     <use x="979.316406" xlink:href="#DejaVuSans-76"/>
     <use x="1038.496094" xlink:href="#DejaVuSans-61"/>
     <use x="1099.775391" xlink:href="#DejaVuSans-6c"/>
     <use x="1127.558594" xlink:href="#DejaVuSans-75"/>
     <use x="1190.9375" xlink:href="#DejaVuSans-65"/>
     <use x="1252.460938" xlink:href="#DejaVuSans-3a"/>
     <use x="1286.152344" xlink:href="#DejaVuSans-20"/>
     <use x="1317.939453" xlink:href="#DejaVuSans-30"/>
     <use x="1381.5625" xlink:href="#DejaVuSans-2e"/>
     <use x="1413.349609" xlink:href="#DejaVuSans-30"/>
     <use x="1476.972656" xlink:href="#DejaVuSans-30"/>
     <use x="1540.595703" xlink:href="#DejaVuSans-33"/>
     <use x="1604.21875" xlink:href="#DejaVuSans-35"/>
    </g>
    <!-- Spearman: 0.4202, p-value: 0.0232 -->
    <g style="fill:#262626;" transform="translate(157.7395 64.7886)scale(0.192 -0.192)">
     <use xlink:href="#DejaVuSans-53"/>
     <use x="63.476562" xlink:href="#DejaVuSans-70"/>
     <use x="126.953125" xlink:href="#DejaVuSans-65"/>
     <use x="188.476562" xlink:href="#DejaVuSans-61"/>
     <use x="249.755859" xlink:href="#DejaVuSans-72"/>
     <use x="290.853516" xlink:href="#DejaVuSans-6d"/>
     <use x="388.265625" xlink:href="#DejaVuSans-61"/>
     <use x="449.544922" xlink:href="#DejaVuSans-6e"/>
     <use x="512.923828" xlink:href="#DejaVuSans-3a"/>
     <use x="546.615234" xlink:href="#DejaVuSans-20"/>
     <use x="578.402344" xlink:href="#DejaVuSans-30"/>
     <use x="642.025391" xlink:href="#DejaVuSans-2e"/>
     <use x="673.8125" xlink:href="#DejaVuSans-34"/>
     <use x="737.435547" xlink:href="#DejaVuSans-32"/>
     <use x="801.058594" xlink:href="#DejaVuSans-30"/>
     <use x="864.681641" xlink:href="#DejaVuSans-32"/>
     <use x="928.304688" xlink:href="#DejaVuSans-2c"/>
     <use x="960.091797" xlink:href="#DejaVuSans-20"/>
     <use x="991.878906" xlink:href="#DejaVuSans-70"/>
     <use x="1055.355469" xlink:href="#DejaVuSans-2d"/>
     <use x="1091.408203" xlink:href="#DejaVuSans-76"/>
     <use x="1150.587891" xlink:href="#DejaVuSans-61"/>
     <use x="1211.867188" xlink:href="#DejaVuSans-6c"/>
     <use x="1239.650391" xlink:href="#DejaVuSans-75"/>
     <use x="1303.029297" xlink:href="#DejaVuSans-65"/>
     <use x="1364.552734" xlink:href="#DejaVuSans-3a"/>
     <use x="1398.244141" xlink:href="#DejaVuSans-20"/>
     <use x="1430.03125" xlink:href="#DejaVuSans-30"/>
     <use x="1493.654297" xlink:href="#DejaVuSans-2e"/>
     <use x="1525.441406" xlink:href="#DejaVuSans-30"/>
     <use x="1589.064453" xlink:href="#DejaVuSans-32"/>
     <use x="1652.6875" xlink:href="#DejaVuSans-33"/>
     <use x="1716.310547" xlink:href="#DejaVuSans-32"/>
    </g>
   </g>
  </g>
 </g>
 <defs>
  <clipPath id="p38264bc815">
   <rect height="543.6" width="558" x="49.6135" y="70.7886"/>
  </clipPath>
 </defs>
</svg>
