<?xml version="1.0" encoding="utf-8" standalone="no"?>
<!DOCTYPE svg PUBLIC "-//W3C//DTD SVG 1.1//EN"
  "http://www.w3.org/Graphics/SVG/1.1/DTD/svg11.dtd">
<!-- Created with matplotlib (http://matplotlib.org/) -->
<svg height="669pt" version="1.1" viewBox="0 0 614 669" width="614pt" xmlns="http://www.w3.org/2000/svg" xmlns:xlink="http://www.w3.org/1999/xlink">
 <defs>
  <style type="text/css">
*{stroke-linecap:butt;stroke-linejoin:round;}
  </style>
 </defs>
 <g id="figure_1">
  <g id="patch_1">
   <path d="M 0 669.3071 
L 614.8135 669.3071 
L 614.8135 0 
L 0 0 
z
" style="fill:#ffffff;"/>
  </g>
  <g id="axes_1">
   <g id="patch_2">
    <path d="M 49.6135 614.3886 
L 607.6135 614.3886 
L 607.6135 70.7886 
L 49.6135 70.7886 
z
" style="fill:#eaeaf2;"/>
   </g>
   <g id="matplotlib.axis_1">
    <g id="xtick_1">
     <g id="line2d_1">
      <path clip-path="url(#p60b37d9853)" d="M 108.961807 614.3886 
L 108.961807 70.7886 
" style="fill:none;stroke:#ffffff;stroke-linecap:round;stroke-width:1.6;"/>
     </g>
     <g id="line2d_2"/>
     <g id="text_1">
      <!-- 10 -->
      <defs>
       <path d="M 12.40625 8.296875 
L 28.515625 8.296875 
L 28.515625 63.921875 
L 10.984375 60.40625 
L 10.984375 69.390625 
L 28.421875 72.90625 
L 38.28125 72.90625 
L 38.28125 8.296875 
L 54.390625 8.296875 
L 54.390625 0 
L 12.40625 0 
z
" id="DejaVuSans-31"/>
       <path d="M 31.78125 66.40625 
Q 24.171875 66.40625 20.328125 58.90625 
Q 16.5 51.421875 16.5 36.375 
Q 16.5 21.390625 20.328125 13.890625 
Q 24.171875 6.390625 31.78125 6.390625 
Q 39.453125 6.390625 43.28125 13.890625 
Q 47.125 21.390625 47.125 36.375 
Q 47.125 51.421875 43.28125 58.90625 
Q 39.453125 66.40625 31.78125 66.40625 
z
M 31.78125 74.21875 
Q 44.046875 74.21875 50.515625 64.515625 
Q 56.984375 54.828125 56.984375 36.375 
Q 56.984375 17.96875 50.515625 8.265625 
Q 44.046875 -1.421875 31.78125 -1.421875 
Q 19.53125 -1.421875 13.0625 8.265625 
Q 6.59375 17.96875 6.59375 36.375 
Q 6.59375 54.828125 13.0625 64.515625 
Q 19.53125 74.21875 31.78125 74.21875 
z
" id="DejaVuSans-30"/>
      </defs>
      <g style="fill:#262626;" transform="translate(98.781807 637.7461)scale(0.16 -0.16)">
       <use xlink:href="#DejaVuSans-31"/>
       <use x="63.623047" xlink:href="#DejaVuSans-30"/>
      </g>
     </g>
    </g>
    <g id="xtick_2">
     <g id="line2d_3">
      <path clip-path="url(#p60b37d9853)" d="M 185.256247 614.3886 
L 185.256247 70.7886 
" style="fill:none;stroke:#ffffff;stroke-linecap:round;stroke-width:1.6;"/>
     </g>
     <g id="line2d_4"/>
     <g id="text_2">
      <!-- 20 -->
      <defs>
       <path d="M 19.1875 8.296875 
L 53.609375 8.296875 
L 53.609375 0 
L 7.328125 0 
L 7.328125 8.296875 
Q 12.9375 14.109375 22.625 23.890625 
Q 32.328125 33.6875 34.8125 36.53125 
Q 39.546875 41.84375 41.421875 45.53125 
Q 43.3125 49.21875 43.3125 52.78125 
Q 43.3125 58.59375 39.234375 62.25 
Q 35.15625 65.921875 28.609375 65.921875 
Q 23.96875 65.921875 18.8125 64.3125 
Q 13.671875 62.703125 7.8125 59.421875 
L 7.8125 69.390625 
Q 13.765625 71.78125 18.9375 73 
Q 24.125 74.21875 28.421875 74.21875 
Q 39.75 74.21875 46.484375 68.546875 
Q 53.21875 62.890625 53.21875 53.421875 
Q 53.21875 48.921875 51.53125 44.890625 
Q 49.859375 40.875 45.40625 35.40625 
Q 44.1875 33.984375 37.640625 27.21875 
Q 31.109375 20.453125 19.1875 8.296875 
z
" id="DejaVuSans-32"/>
      </defs>
      <g style="fill:#262626;" transform="translate(175.076247 637.7461)scale(0.16 -0.16)">
       <use xlink:href="#DejaVuSans-32"/>
       <use x="63.623047" xlink:href="#DejaVuSans-30"/>
      </g>
     </g>
    </g>
    <g id="xtick_3">
     <g id="line2d_5">
      <path clip-path="url(#p60b37d9853)" d="M 261.550687 614.3886 
L 261.550687 70.7886 
" style="fill:none;stroke:#ffffff;stroke-linecap:round;stroke-width:1.6;"/>
     </g>
     <g id="line2d_6"/>
     <g id="text_3">
      <!-- 30 -->
      <defs>
       <path d="M 40.578125 39.3125 
Q 47.65625 37.796875 51.625 33 
Q 55.609375 28.21875 55.609375 21.1875 
Q 55.609375 10.40625 48.1875 4.484375 
Q 40.765625 -1.421875 27.09375 -1.421875 
Q 22.515625 -1.421875 17.65625 -0.515625 
Q 12.796875 0.390625 7.625 2.203125 
L 7.625 11.71875 
Q 11.71875 9.328125 16.59375 8.109375 
Q 21.484375 6.890625 26.8125 6.890625 
Q 36.078125 6.890625 40.9375 10.546875 
Q 45.796875 14.203125 45.796875 21.1875 
Q 45.796875 27.640625 41.28125 31.265625 
Q 36.765625 34.90625 28.71875 34.90625 
L 20.21875 34.90625 
L 20.21875 43.015625 
L 29.109375 43.015625 
Q 36.375 43.015625 40.234375 45.921875 
Q 44.09375 48.828125 44.09375 54.296875 
Q 44.09375 59.90625 40.109375 62.90625 
Q 36.140625 65.921875 28.71875 65.921875 
Q 24.65625 65.921875 20.015625 65.03125 
Q 15.375 64.15625 9.8125 62.3125 
L 9.8125 71.09375 
Q 15.4375 72.65625 20.34375 73.4375 
Q 25.25 74.21875 29.59375 74.21875 
Q 40.828125 74.21875 47.359375 69.109375 
Q 53.90625 64.015625 53.90625 55.328125 
Q 53.90625 49.265625 50.4375 45.09375 
Q 46.96875 40.921875 40.578125 39.3125 
z
" id="DejaVuSans-33"/>
      </defs>
      <g style="fill:#262626;" transform="translate(251.370687 637.7461)scale(0.16 -0.16)">
       <use xlink:href="#DejaVuSans-33"/>
       <use x="63.623047" xlink:href="#DejaVuSans-30"/>
      </g>
     </g>
    </g>
    <g id="xtick_4">
     <g id="line2d_7">
      <path clip-path="url(#p60b37d9853)" d="M 337.845127 614.3886 
L 337.845127 70.7886 
" style="fill:none;stroke:#ffffff;stroke-linecap:round;stroke-width:1.6;"/>
     </g>
     <g id="line2d_8"/>
     <g id="text_4">
      <!-- 40 -->
      <defs>
       <path d="M 37.796875 64.3125 
L 12.890625 25.390625 
L 37.796875 25.390625 
z
M 35.203125 72.90625 
L 47.609375 72.90625 
L 47.609375 25.390625 
L 58.015625 25.390625 
L 58.015625 17.1875 
L 47.609375 17.1875 
L 47.609375 0 
L 37.796875 0 
L 37.796875 17.1875 
L 4.890625 17.1875 
L 4.890625 26.703125 
z
" id="DejaVuSans-34"/>
      </defs>
      <g style="fill:#262626;" transform="translate(327.665127 637.7461)scale(0.16 -0.16)">
       <use xlink:href="#DejaVuSans-34"/>
       <use x="63.623047" xlink:href="#DejaVuSans-30"/>
      </g>
     </g>
    </g>
    <g id="xtick_5">
     <g id="line2d_9">
      <path clip-path="url(#p60b37d9853)" d="M 414.139567 614.3886 
L 414.139567 70.7886 
" style="fill:none;stroke:#ffffff;stroke-linecap:round;stroke-width:1.6;"/>
     </g>
     <g id="line2d_10"/>
     <g id="text_5">
      <!-- 50 -->
      <defs>
       <path d="M 10.796875 72.90625 
L 49.515625 72.90625 
L 49.515625 64.59375 
L 19.828125 64.59375 
L 19.828125 46.734375 
Q 21.96875 47.46875 24.109375 47.828125 
Q 26.265625 48.1875 28.421875 48.1875 
Q 40.625 48.1875 47.75 41.5 
Q 54.890625 34.8125 54.890625 23.390625 
Q 54.890625 11.625 47.5625 5.09375 
Q 40.234375 -1.421875 26.90625 -1.421875 
Q 22.3125 -1.421875 17.546875 -0.640625 
Q 12.796875 0.140625 7.71875 1.703125 
L 7.71875 11.625 
Q 12.109375 9.234375 16.796875 8.0625 
Q 21.484375 6.890625 26.703125 6.890625 
Q 35.15625 6.890625 40.078125 11.328125 
Q 45.015625 15.765625 45.015625 23.390625 
Q 45.015625 31 40.078125 35.4375 
Q 35.15625 39.890625 26.703125 39.890625 
Q 22.75 39.890625 18.8125 39.015625 
Q 14.890625 38.140625 10.796875 36.28125 
z
" id="DejaVuSans-35"/>
      </defs>
      <g style="fill:#262626;" transform="translate(403.959567 637.7461)scale(0.16 -0.16)">
       <use xlink:href="#DejaVuSans-35"/>
       <use x="63.623047" xlink:href="#DejaVuSans-30"/>
      </g>
     </g>
    </g>
    <g id="xtick_6">
     <g id="line2d_11">
      <path clip-path="url(#p60b37d9853)" d="M 490.434007 614.3886 
L 490.434007 70.7886 
" style="fill:none;stroke:#ffffff;stroke-linecap:round;stroke-width:1.6;"/>
     </g>
     <g id="line2d_12"/>
     <g id="text_6">
      <!-- 60 -->
      <defs>
       <path d="M 33.015625 40.375 
Q 26.375 40.375 22.484375 35.828125 
Q 18.609375 31.296875 18.609375 23.390625 
Q 18.609375 15.53125 22.484375 10.953125 
Q 26.375 6.390625 33.015625 6.390625 
Q 39.65625 6.390625 43.53125 10.953125 
Q 47.40625 15.53125 47.40625 23.390625 
Q 47.40625 31.296875 43.53125 35.828125 
Q 39.65625 40.375 33.015625 40.375 
z
M 52.59375 71.296875 
L 52.59375 62.3125 
Q 48.875 64.0625 45.09375 64.984375 
Q 41.3125 65.921875 37.59375 65.921875 
Q 27.828125 65.921875 22.671875 59.328125 
Q 17.53125 52.734375 16.796875 39.40625 
Q 19.671875 43.65625 24.015625 45.921875 
Q 28.375 48.1875 33.59375 48.1875 
Q 44.578125 48.1875 50.953125 41.515625 
Q 57.328125 34.859375 57.328125 23.390625 
Q 57.328125 12.15625 50.6875 5.359375 
Q 44.046875 -1.421875 33.015625 -1.421875 
Q 20.359375 -1.421875 13.671875 8.265625 
Q 6.984375 17.96875 6.984375 36.375 
Q 6.984375 53.65625 15.1875 63.9375 
Q 23.390625 74.21875 37.203125 74.21875 
Q 40.921875 74.21875 44.703125 73.484375 
Q 48.484375 72.75 52.59375 71.296875 
z
" id="DejaVuSans-36"/>
      </defs>
      <g style="fill:#262626;" transform="translate(480.254007 637.7461)scale(0.16 -0.16)">
       <use xlink:href="#DejaVuSans-36"/>
       <use x="63.623047" xlink:href="#DejaVuSans-30"/>
      </g>
     </g>
    </g>
    <g id="xtick_7">
     <g id="line2d_13">
      <path clip-path="url(#p60b37d9853)" d="M 566.728447 614.3886 
L 566.728447 70.7886 
" style="fill:none;stroke:#ffffff;stroke-linecap:round;stroke-width:1.6;"/>
     </g>
     <g id="line2d_14"/>
     <g id="text_7">
      <!-- 70 -->
      <defs>
       <path d="M 8.203125 72.90625 
L 55.078125 72.90625 
L 55.078125 68.703125 
L 28.609375 0 
L 18.3125 0 
L 43.21875 64.59375 
L 8.203125 64.59375 
z
" id="DejaVuSans-37"/>
      </defs>
      <g style="fill:#262626;" transform="translate(556.548447 637.7461)scale(0.16 -0.16)">
       <use xlink:href="#DejaVuSans-37"/>
       <use x="63.623047" xlink:href="#DejaVuSans-30"/>
      </g>
     </g>
    </g>
    <g id="text_8">
     <!-- Breteau Index -->
     <defs>
      <path d="M 19.671875 34.8125 
L 19.671875 8.109375 
L 35.5 8.109375 
Q 43.453125 8.109375 47.28125 11.40625 
Q 51.125 14.703125 51.125 21.484375 
Q 51.125 28.328125 47.28125 31.5625 
Q 43.453125 34.8125 35.5 34.8125 
z
M 19.671875 64.796875 
L 19.671875 42.828125 
L 34.28125 42.828125 
Q 41.5 42.828125 45.03125 45.53125 
Q 48.578125 48.25 48.578125 53.8125 
Q 48.578125 59.328125 45.03125 62.0625 
Q 41.5 64.796875 34.28125 64.796875 
z
M 9.8125 72.90625 
L 35.015625 72.90625 
Q 46.296875 72.90625 52.390625 68.21875 
Q 58.5 63.53125 58.5 54.890625 
Q 58.5 48.1875 55.375 44.234375 
Q 52.25 40.28125 46.1875 39.3125 
Q 53.46875 37.75 57.5 32.78125 
Q 61.53125 27.828125 61.53125 20.40625 
Q 61.53125 10.640625 54.890625 5.3125 
Q 48.25 0 35.984375 0 
L 9.8125 0 
z
" id="DejaVuSans-42"/>
      <path d="M 41.109375 46.296875 
Q 39.59375 47.171875 37.8125 47.578125 
Q 36.03125 48 33.890625 48 
Q 26.265625 48 22.1875 43.046875 
Q 18.109375 38.09375 18.109375 28.8125 
L 18.109375 0 
L 9.078125 0 
L 9.078125 54.6875 
L 18.109375 54.6875 
L 18.109375 46.1875 
Q 20.953125 51.171875 25.484375 53.578125 
Q 30.03125 56 36.53125 56 
Q 37.453125 56 38.578125 55.875 
Q 39.703125 55.765625 41.0625 55.515625 
z
" id="DejaVuSans-72"/>
      <path d="M 56.203125 29.59375 
L 56.203125 25.203125 
L 14.890625 25.203125 
Q 15.484375 15.921875 20.484375 11.0625 
Q 25.484375 6.203125 34.421875 6.203125 
Q 39.59375 6.203125 44.453125 7.46875 
Q 49.3125 8.734375 54.109375 11.28125 
L 54.109375 2.78125 
Q 49.265625 0.734375 44.1875 -0.34375 
Q 39.109375 -1.421875 33.890625 -1.421875 
Q 20.796875 -1.421875 13.15625 6.1875 
Q 5.515625 13.8125 5.515625 26.8125 
Q 5.515625 40.234375 12.765625 48.109375 
Q 20.015625 56 32.328125 56 
Q 43.359375 56 49.78125 48.890625 
Q 56.203125 41.796875 56.203125 29.59375 
z
M 47.21875 32.234375 
Q 47.125 39.59375 43.09375 43.984375 
Q 39.0625 48.390625 32.421875 48.390625 
Q 24.90625 48.390625 20.390625 44.140625 
Q 15.875 39.890625 15.1875 32.171875 
z
" id="DejaVuSans-65"/>
      <path d="M 18.3125 70.21875 
L 18.3125 54.6875 
L 36.8125 54.6875 
L 36.8125 47.703125 
L 18.3125 47.703125 
L 18.3125 18.015625 
Q 18.3125 11.328125 20.140625 9.421875 
Q 21.96875 7.515625 27.59375 7.515625 
L 36.8125 7.515625 
L 36.8125 0 
L 27.59375 0 
Q 17.1875 0 13.234375 3.875 
Q 9.28125 7.765625 9.28125 18.015625 
L 9.28125 47.703125 
L 2.6875 47.703125 
L 2.6875 54.6875 
L 9.28125 54.6875 
L 9.28125 70.21875 
z
" id="DejaVuSans-74"/>
      <path d="M 34.28125 27.484375 
Q 23.390625 27.484375 19.1875 25 
Q 14.984375 22.515625 14.984375 16.5 
Q 14.984375 11.71875 18.140625 8.90625 
Q 21.296875 6.109375 26.703125 6.109375 
Q 34.1875 6.109375 38.703125 11.40625 
Q 43.21875 16.703125 43.21875 25.484375 
L 43.21875 27.484375 
z
M 52.203125 31.203125 
L 52.203125 0 
L 43.21875 0 
L 43.21875 8.296875 
Q 40.140625 3.328125 35.546875 0.953125 
Q 30.953125 -1.421875 24.3125 -1.421875 
Q 15.921875 -1.421875 10.953125 3.296875 
Q 6 8.015625 6 15.921875 
Q 6 25.140625 12.171875 29.828125 
Q 18.359375 34.515625 30.609375 34.515625 
L 43.21875 34.515625 
L 43.21875 35.40625 
Q 43.21875 41.609375 39.140625 45 
Q 35.0625 48.390625 27.6875 48.390625 
Q 23 48.390625 18.546875 47.265625 
Q 14.109375 46.140625 10.015625 43.890625 
L 10.015625 52.203125 
Q 14.9375 54.109375 19.578125 55.046875 
Q 24.21875 56 28.609375 56 
Q 40.484375 56 46.34375 49.84375 
Q 52.203125 43.703125 52.203125 31.203125 
z
" id="DejaVuSans-61"/>
      <path d="M 8.5 21.578125 
L 8.5 54.6875 
L 17.484375 54.6875 
L 17.484375 21.921875 
Q 17.484375 14.15625 20.5 10.265625 
Q 23.53125 6.390625 29.59375 6.390625 
Q 36.859375 6.390625 41.078125 11.03125 
Q 45.3125 15.671875 45.3125 23.6875 
L 45.3125 54.6875 
L 54.296875 54.6875 
L 54.296875 0 
L 45.3125 0 
L 45.3125 8.40625 
Q 42.046875 3.421875 37.71875 1 
Q 33.40625 -1.421875 27.6875 -1.421875 
Q 18.265625 -1.421875 13.375 4.4375 
Q 8.5 10.296875 8.5 21.578125 
z
M 31.109375 56 
z
" id="DejaVuSans-75"/>
      <path id="DejaVuSans-20"/>
      <path d="M 9.8125 72.90625 
L 19.671875 72.90625 
L 19.671875 0 
L 9.8125 0 
z
" id="DejaVuSans-49"/>
      <path d="M 54.890625 33.015625 
L 54.890625 0 
L 45.90625 0 
L 45.90625 32.71875 
Q 45.90625 40.484375 42.875 44.328125 
Q 39.84375 48.1875 33.796875 48.1875 
Q 26.515625 48.1875 22.3125 43.546875 
Q 18.109375 38.921875 18.109375 30.90625 
L 18.109375 0 
L 9.078125 0 
L 9.078125 54.6875 
L 18.109375 54.6875 
L 18.109375 46.1875 
Q 21.34375 51.125 25.703125 53.5625 
Q 30.078125 56 35.796875 56 
Q 45.21875 56 50.046875 50.171875 
Q 54.890625 44.34375 54.890625 33.015625 
z
" id="DejaVuSans-6e"/>
      <path d="M 45.40625 46.390625 
L 45.40625 75.984375 
L 54.390625 75.984375 
L 54.390625 0 
L 45.40625 0 
L 45.40625 8.203125 
Q 42.578125 3.328125 38.25 0.953125 
Q 33.9375 -1.421875 27.875 -1.421875 
Q 17.96875 -1.421875 11.734375 6.484375 
Q 5.515625 14.40625 5.515625 27.296875 
Q 5.515625 40.1875 11.734375 48.09375 
Q 17.96875 56 27.875 56 
Q 33.9375 56 38.25 53.625 
Q 42.578125 51.265625 45.40625 46.390625 
z
M 14.796875 27.296875 
Q 14.796875 17.390625 18.875 11.75 
Q 22.953125 6.109375 30.078125 6.109375 
Q 37.203125 6.109375 41.296875 11.75 
Q 45.40625 17.390625 45.40625 27.296875 
Q 45.40625 37.203125 41.296875 42.84375 
Q 37.203125 48.484375 30.078125 48.484375 
Q 22.953125 48.484375 18.875 42.84375 
Q 14.796875 37.203125 14.796875 27.296875 
z
" id="DejaVuSans-64"/>
      <path d="M 54.890625 54.6875 
L 35.109375 28.078125 
L 55.90625 0 
L 45.3125 0 
L 29.390625 21.484375 
L 13.484375 0 
L 2.875 0 
L 24.125 28.609375 
L 4.6875 54.6875 
L 15.28125 54.6875 
L 29.78125 35.203125 
L 44.28125 54.6875 
z
" id="DejaVuSans-78"/>
     </defs>
     <g style="fill:#262626;" transform="translate(266.533625 658.44685)scale(0.176 -0.176)">
      <use xlink:href="#DejaVuSans-42"/>
      <use x="68.603516" xlink:href="#DejaVuSans-72"/>
      <use x="109.685547" xlink:href="#DejaVuSans-65"/>
      <use x="171.208984" xlink:href="#DejaVuSans-74"/>
      <use x="210.417969" xlink:href="#DejaVuSans-65"/>
      <use x="271.941406" xlink:href="#DejaVuSans-61"/>
      <use x="333.220703" xlink:href="#DejaVuSans-75"/>
      <use x="396.599609" xlink:href="#DejaVuSans-20"/>
      <use x="428.386719" xlink:href="#DejaVuSans-49"/>
      <use x="457.878906" xlink:href="#DejaVuSans-6e"/>
      <use x="521.257812" xlink:href="#DejaVuSans-64"/>
      <use x="584.734375" xlink:href="#DejaVuSans-65"/>
      <use x="646.242188" xlink:href="#DejaVuSans-78"/>
     </g>
    </g>
   </g>
   <g id="matplotlib.axis_2">
    <g id="ytick_1">
     <g id="line2d_15">
      <path clip-path="url(#p60b37d9853)" d="M 49.6135 593.014678 
L 607.6135 593.014678 
" style="fill:none;stroke:#ffffff;stroke-linecap:round;stroke-width:1.6;"/>
     </g>
     <g id="line2d_16"/>
     <g id="text_9">
      <!-- 0 -->
      <g style="fill:#262626;" transform="translate(28.2335 599.093428)scale(0.16 -0.16)">
       <use xlink:href="#DejaVuSans-30"/>
      </g>
     </g>
    </g>
    <g id="ytick_2">
     <g id="line2d_17">
      <path clip-path="url(#p60b37d9853)" d="M 49.6135 491.852693 
L 607.6135 491.852693 
" style="fill:none;stroke:#ffffff;stroke-linecap:round;stroke-width:1.6;"/>
     </g>
     <g id="line2d_18"/>
     <g id="text_10">
      <!-- 1 -->
      <g style="fill:#262626;" transform="translate(28.2335 497.931443)scale(0.16 -0.16)">
       <use xlink:href="#DejaVuSans-31"/>
      </g>
     </g>
    </g>
    <g id="ytick_3">
     <g id="line2d_19">
      <path clip-path="url(#p60b37d9853)" d="M 49.6135 390.690709 
L 607.6135 390.690709 
" style="fill:none;stroke:#ffffff;stroke-linecap:round;stroke-width:1.6;"/>
     </g>
     <g id="line2d_20"/>
     <g id="text_11">
      <!-- 2 -->
      <g style="fill:#262626;" transform="translate(28.2335 396.769459)scale(0.16 -0.16)">
       <use xlink:href="#DejaVuSans-32"/>
      </g>
     </g>
    </g>
    <g id="ytick_4">
     <g id="line2d_21">
      <path clip-path="url(#p60b37d9853)" d="M 49.6135 289.528725 
L 607.6135 289.528725 
" style="fill:none;stroke:#ffffff;stroke-linecap:round;stroke-width:1.6;"/>
     </g>
     <g id="line2d_22"/>
     <g id="text_12">
      <!-- 3 -->
      <g style="fill:#262626;" transform="translate(28.2335 295.607475)scale(0.16 -0.16)">
       <use xlink:href="#DejaVuSans-33"/>
      </g>
     </g>
    </g>
    <g id="ytick_5">
     <g id="line2d_23">
      <path clip-path="url(#p60b37d9853)" d="M 49.6135 188.36674 
L 607.6135 188.36674 
" style="fill:none;stroke:#ffffff;stroke-linecap:round;stroke-width:1.6;"/>
     </g>
     <g id="line2d_24"/>
     <g id="text_13">
      <!-- 4 -->
      <g style="fill:#262626;" transform="translate(28.2335 194.44549)scale(0.16 -0.16)">
       <use xlink:href="#DejaVuSans-34"/>
      </g>
     </g>
    </g>
    <g id="ytick_6">
     <g id="line2d_25">
      <path clip-path="url(#p60b37d9853)" d="M 49.6135 87.204756 
L 607.6135 87.204756 
" style="fill:none;stroke:#ffffff;stroke-linecap:round;stroke-width:1.6;"/>
     </g>
     <g id="line2d_26"/>
     <g id="text_14">
      <!-- 5 -->
      <g style="fill:#262626;" transform="translate(28.2335 93.283506)scale(0.16 -0.16)">
       <use xlink:href="#DejaVuSans-35"/>
      </g>
     </g>
    </g>
    <g id="text_15">
     <!-- Normalized Total Breeding Site Counts by Area -->
     <defs>
      <path d="M 9.8125 72.90625 
L 23.09375 72.90625 
L 55.421875 11.921875 
L 55.421875 72.90625 
L 64.984375 72.90625 
L 64.984375 0 
L 51.703125 0 
L 19.390625 60.984375 
L 19.390625 0 
L 9.8125 0 
z
" id="DejaVuSans-4e"/>
      <path d="M 30.609375 48.390625 
Q 23.390625 48.390625 19.1875 42.75 
Q 14.984375 37.109375 14.984375 27.296875 
Q 14.984375 17.484375 19.15625 11.84375 
Q 23.34375 6.203125 30.609375 6.203125 
Q 37.796875 6.203125 41.984375 11.859375 
Q 46.1875 17.53125 46.1875 27.296875 
Q 46.1875 37.015625 41.984375 42.703125 
Q 37.796875 48.390625 30.609375 48.390625 
z
M 30.609375 56 
Q 42.328125 56 49.015625 48.375 
Q 55.71875 40.765625 55.71875 27.296875 
Q 55.71875 13.875 49.015625 6.21875 
Q 42.328125 -1.421875 30.609375 -1.421875 
Q 18.84375 -1.421875 12.171875 6.21875 
Q 5.515625 13.875 5.515625 27.296875 
Q 5.515625 40.765625 12.171875 48.375 
Q 18.84375 56 30.609375 56 
z
" id="DejaVuSans-6f"/>
      <path d="M 52 44.1875 
Q 55.375 50.25 60.0625 53.125 
Q 64.75 56 71.09375 56 
Q 79.640625 56 84.28125 50.015625 
Q 88.921875 44.046875 88.921875 33.015625 
L 88.921875 0 
L 79.890625 0 
L 79.890625 32.71875 
Q 79.890625 40.578125 77.09375 44.375 
Q 74.3125 48.1875 68.609375 48.1875 
Q 61.625 48.1875 57.5625 43.546875 
Q 53.515625 38.921875 53.515625 30.90625 
L 53.515625 0 
L 44.484375 0 
L 44.484375 32.71875 
Q 44.484375 40.625 41.703125 44.40625 
Q 38.921875 48.1875 33.109375 48.1875 
Q 26.21875 48.1875 22.15625 43.53125 
Q 18.109375 38.875 18.109375 30.90625 
L 18.109375 0 
L 9.078125 0 
L 9.078125 54.6875 
L 18.109375 54.6875 
L 18.109375 46.1875 
Q 21.1875 51.21875 25.484375 53.609375 
Q 29.78125 56 35.6875 56 
Q 41.65625 56 45.828125 52.96875 
Q 50 49.953125 52 44.1875 
z
" id="DejaVuSans-6d"/>
      <path d="M 9.421875 75.984375 
L 18.40625 75.984375 
L 18.40625 0 
L 9.421875 0 
z
" id="DejaVuSans-6c"/>
      <path d="M 9.421875 54.6875 
L 18.40625 54.6875 
L 18.40625 0 
L 9.421875 0 
z
M 9.421875 75.984375 
L 18.40625 75.984375 
L 18.40625 64.59375 
L 9.421875 64.59375 
z
" id="DejaVuSans-69"/>
      <path d="M 5.515625 54.6875 
L 48.1875 54.6875 
L 48.1875 46.484375 
L 14.40625 7.171875 
L 48.1875 7.171875 
L 48.1875 0 
L 4.296875 0 
L 4.296875 8.203125 
L 38.09375 47.515625 
L 5.515625 47.515625 
z
" id="DejaVuSans-7a"/>
      <path d="M -0.296875 72.90625 
L 61.375 72.90625 
L 61.375 64.59375 
L 35.5 64.59375 
L 35.5 0 
L 25.59375 0 
L 25.59375 64.59375 
L -0.296875 64.59375 
z
" id="DejaVuSans-54"/>
      <path d="M 45.40625 27.984375 
Q 45.40625 37.75 41.375 43.109375 
Q 37.359375 48.484375 30.078125 48.484375 
Q 22.859375 48.484375 18.828125 43.109375 
Q 14.796875 37.75 14.796875 27.984375 
Q 14.796875 18.265625 18.828125 12.890625 
Q 22.859375 7.515625 30.078125 7.515625 
Q 37.359375 7.515625 41.375 12.890625 
Q 45.40625 18.265625 45.40625 27.984375 
z
M 54.390625 6.78125 
Q 54.390625 -7.171875 48.1875 -13.984375 
Q 42 -20.796875 29.203125 -20.796875 
Q 24.46875 -20.796875 20.265625 -20.09375 
Q 16.0625 -19.390625 12.109375 -17.921875 
L 12.109375 -9.1875 
Q 16.0625 -11.328125 19.921875 -12.34375 
Q 23.78125 -13.375 27.78125 -13.375 
Q 36.625 -13.375 41.015625 -8.765625 
Q 45.40625 -4.15625 45.40625 5.171875 
L 45.40625 9.625 
Q 42.625 4.78125 38.28125 2.390625 
Q 33.9375 0 27.875 0 
Q 17.828125 0 11.671875 7.65625 
Q 5.515625 15.328125 5.515625 27.984375 
Q 5.515625 40.671875 11.671875 48.328125 
Q 17.828125 56 27.875 56 
Q 33.9375 56 38.28125 53.609375 
Q 42.625 51.21875 45.40625 46.390625 
L 45.40625 54.6875 
L 54.390625 54.6875 
z
" id="DejaVuSans-67"/>
      <path d="M 53.515625 70.515625 
L 53.515625 60.890625 
Q 47.90625 63.578125 42.921875 64.890625 
Q 37.9375 66.21875 33.296875 66.21875 
Q 25.25 66.21875 20.875 63.09375 
Q 16.5 59.96875 16.5 54.203125 
Q 16.5 49.359375 19.40625 46.890625 
Q 22.3125 44.4375 30.421875 42.921875 
L 36.375 41.703125 
Q 47.40625 39.59375 52.65625 34.296875 
Q 57.90625 29 57.90625 20.125 
Q 57.90625 9.515625 50.796875 4.046875 
Q 43.703125 -1.421875 29.984375 -1.421875 
Q 24.8125 -1.421875 18.96875 -0.25 
Q 13.140625 0.921875 6.890625 3.21875 
L 6.890625 13.375 
Q 12.890625 10.015625 18.65625 8.296875 
Q 24.421875 6.59375 29.984375 6.59375 
Q 38.421875 6.59375 43.015625 9.90625 
Q 47.609375 13.234375 47.609375 19.390625 
Q 47.609375 24.75 44.3125 27.78125 
Q 41.015625 30.8125 33.5 32.328125 
L 27.484375 33.5 
Q 16.453125 35.6875 11.515625 40.375 
Q 6.59375 45.0625 6.59375 53.421875 
Q 6.59375 63.09375 13.40625 68.65625 
Q 20.21875 74.21875 32.171875 74.21875 
Q 37.3125 74.21875 42.625 73.28125 
Q 47.953125 72.359375 53.515625 70.515625 
z
" id="DejaVuSans-53"/>
      <path d="M 64.40625 67.28125 
L 64.40625 56.890625 
Q 59.421875 61.53125 53.78125 63.8125 
Q 48.140625 66.109375 41.796875 66.109375 
Q 29.296875 66.109375 22.65625 58.46875 
Q 16.015625 50.828125 16.015625 36.375 
Q 16.015625 21.96875 22.65625 14.328125 
Q 29.296875 6.6875 41.796875 6.6875 
Q 48.140625 6.6875 53.78125 8.984375 
Q 59.421875 11.28125 64.40625 15.921875 
L 64.40625 5.609375 
Q 59.234375 2.09375 53.4375 0.328125 
Q 47.65625 -1.421875 41.21875 -1.421875 
Q 24.65625 -1.421875 15.125 8.703125 
Q 5.609375 18.84375 5.609375 36.375 
Q 5.609375 53.953125 15.125 64.078125 
Q 24.65625 74.21875 41.21875 74.21875 
Q 47.75 74.21875 53.53125 72.484375 
Q 59.328125 70.75 64.40625 67.28125 
z
" id="DejaVuSans-43"/>
      <path d="M 44.28125 53.078125 
L 44.28125 44.578125 
Q 40.484375 46.53125 36.375 47.5 
Q 32.28125 48.484375 27.875 48.484375 
Q 21.1875 48.484375 17.84375 46.4375 
Q 14.5 44.390625 14.5 40.28125 
Q 14.5 37.15625 16.890625 35.375 
Q 19.28125 33.59375 26.515625 31.984375 
L 29.59375 31.296875 
Q 39.15625 29.25 43.1875 25.515625 
Q 47.21875 21.78125 47.21875 15.09375 
Q 47.21875 7.46875 41.1875 3.015625 
Q 35.15625 -1.421875 24.609375 -1.421875 
Q 20.21875 -1.421875 15.453125 -0.5625 
Q 10.6875 0.296875 5.421875 2 
L 5.421875 11.28125 
Q 10.40625 8.6875 15.234375 7.390625 
Q 20.0625 6.109375 24.8125 6.109375 
Q 31.15625 6.109375 34.5625 8.28125 
Q 37.984375 10.453125 37.984375 14.40625 
Q 37.984375 18.0625 35.515625 20.015625 
Q 33.0625 21.96875 24.703125 23.78125 
L 21.578125 24.515625 
Q 13.234375 26.265625 9.515625 29.90625 
Q 5.8125 33.546875 5.8125 39.890625 
Q 5.8125 47.609375 11.28125 51.796875 
Q 16.75 56 26.8125 56 
Q 31.78125 56 36.171875 55.265625 
Q 40.578125 54.546875 44.28125 53.078125 
z
" id="DejaVuSans-73"/>
      <path d="M 48.6875 27.296875 
Q 48.6875 37.203125 44.609375 42.84375 
Q 40.53125 48.484375 33.40625 48.484375 
Q 26.265625 48.484375 22.1875 42.84375 
Q 18.109375 37.203125 18.109375 27.296875 
Q 18.109375 17.390625 22.1875 11.75 
Q 26.265625 6.109375 33.40625 6.109375 
Q 40.53125 6.109375 44.609375 11.75 
Q 48.6875 17.390625 48.6875 27.296875 
z
M 18.109375 46.390625 
Q 20.953125 51.265625 25.265625 53.625 
Q 29.59375 56 35.59375 56 
Q 45.5625 56 51.78125 48.09375 
Q 58.015625 40.1875 58.015625 27.296875 
Q 58.015625 14.40625 51.78125 6.484375 
Q 45.5625 -1.421875 35.59375 -1.421875 
Q 29.59375 -1.421875 25.265625 0.953125 
Q 20.953125 3.328125 18.109375 8.203125 
L 18.109375 0 
L 9.078125 0 
L 9.078125 75.984375 
L 18.109375 75.984375 
z
" id="DejaVuSans-62"/>
      <path d="M 32.171875 -5.078125 
Q 28.375 -14.84375 24.75 -17.8125 
Q 21.140625 -20.796875 15.09375 -20.796875 
L 7.90625 -20.796875 
L 7.90625 -13.28125 
L 13.1875 -13.28125 
Q 16.890625 -13.28125 18.9375 -11.515625 
Q 21 -9.765625 23.484375 -3.21875 
L 25.09375 0.875 
L 2.984375 54.6875 
L 12.5 54.6875 
L 29.59375 11.921875 
L 46.6875 54.6875 
L 56.203125 54.6875 
z
" id="DejaVuSans-79"/>
      <path d="M 34.1875 63.1875 
L 20.796875 26.90625 
L 47.609375 26.90625 
z
M 28.609375 72.90625 
L 39.796875 72.90625 
L 67.578125 0 
L 57.328125 0 
L 50.6875 18.703125 
L 17.828125 18.703125 
L 11.1875 0 
L 0.78125 0 
z
" id="DejaVuSans-41"/>
     </defs>
     <g style="fill:#262626;" transform="translate(20.57325 549.978475)rotate(-90)scale(0.176 -0.176)">
      <use xlink:href="#DejaVuSans-4e"/>
      <use x="74.804688" xlink:href="#DejaVuSans-6f"/>
      <use x="135.986328" xlink:href="#DejaVuSans-72"/>
      <use x="177.083984" xlink:href="#DejaVuSans-6d"/>
      <use x="274.496094" xlink:href="#DejaVuSans-61"/>
      <use x="335.775391" xlink:href="#DejaVuSans-6c"/>
      <use x="363.558594" xlink:href="#DejaVuSans-69"/>
      <use x="391.341797" xlink:href="#DejaVuSans-7a"/>
      <use x="443.832031" xlink:href="#DejaVuSans-65"/>
      <use x="505.355469" xlink:href="#DejaVuSans-64"/>
      <use x="568.832031" xlink:href="#DejaVuSans-20"/>
      <use x="600.619141" xlink:href="#DejaVuSans-54"/>
      <use x="661.4375" xlink:href="#DejaVuSans-6f"/>
      <use x="722.619141" xlink:href="#DejaVuSans-74"/>
      <use x="761.828125" xlink:href="#DejaVuSans-61"/>
      <use x="823.107422" xlink:href="#DejaVuSans-6c"/>
      <use x="850.890625" xlink:href="#DejaVuSans-20"/>
      <use x="882.677734" xlink:href="#DejaVuSans-42"/>
      <use x="951.28125" xlink:href="#DejaVuSans-72"/>
      <use x="992.363281" xlink:href="#DejaVuSans-65"/>
      <use x="1053.886719" xlink:href="#DejaVuSans-65"/>
      <use x="1115.410156" xlink:href="#DejaVuSans-64"/>
      <use x="1178.886719" xlink:href="#DejaVuSans-69"/>
      <use x="1206.669922" xlink:href="#DejaVuSans-6e"/>
      <use x="1270.048828" xlink:href="#DejaVuSans-67"/>
      <use x="1333.525391" xlink:href="#DejaVuSans-20"/>
      <use x="1365.3125" xlink:href="#DejaVuSans-53"/>
      <use x="1428.789062" xlink:href="#DejaVuSans-69"/>
      <use x="1456.572266" xlink:href="#DejaVuSans-74"/>
      <use x="1495.78125" xlink:href="#DejaVuSans-65"/>
      <use x="1557.304688" xlink:href="#DejaVuSans-20"/>
      <use x="1589.091797" xlink:href="#DejaVuSans-43"/>
      <use x="1658.916016" xlink:href="#DejaVuSans-6f"/>
      <use x="1720.097656" xlink:href="#DejaVuSans-75"/>
      <use x="1783.476562" xlink:href="#DejaVuSans-6e"/>
      <use x="1846.855469" xlink:href="#DejaVuSans-74"/>
      <use x="1886.064453" xlink:href="#DejaVuSans-73"/>
      <use x="1938.164062" xlink:href="#DejaVuSans-20"/>
      <use x="1969.951172" xlink:href="#DejaVuSans-62"/>
      <use x="2033.427734" xlink:href="#DejaVuSans-79"/>
      <use x="2092.607422" xlink:href="#DejaVuSans-20"/>
      <use x="2124.394531" xlink:href="#DejaVuSans-41"/>
      <use x="2192.802734" xlink:href="#DejaVuSans-72"/>
      <use x="2233.884766" xlink:href="#DejaVuSans-65"/>
      <use x="2295.408203" xlink:href="#DejaVuSans-61"/>
     </g>
    </g>
   </g>
   <g id="PathCollection_1">
    <defs>
     <path d="M 0 5.6 
C 1.485137 5.6 2.909647 5.009949 3.959798 3.959798 
C 5.009949 2.909647 5.6 1.485137 5.6 0 
C 5.6 -1.485137 5.009949 -2.909647 3.959798 -3.959798 
C 2.909647 -5.009949 1.485137 -5.6 0 -5.6 
C -1.485137 -5.6 -2.909647 -5.009949 -3.959798 -3.959798 
C -5.009949 -2.909647 -5.6 -1.485137 -5.6 0 
C -5.6 1.485137 -5.009949 2.909647 -3.959798 3.959798 
C -2.909647 5.009949 -1.485137 5.6 0 5.6 
z
" id="mf8b2be8b9c"/>
    </defs>
    <g clip-path="url(#p60b37d9853)">
     <use style="fill:#4c72b0;fill-opacity:0.8;" x="152.678521" xlink:href="#mf8b2be8b9c" y="448.080829"/>
     <use style="fill:#4c72b0;fill-opacity:0.8;" x="108.961807" xlink:href="#mf8b2be8b9c" y="423.038302"/>
     <use style="fill:#4c72b0;fill-opacity:0.8;" x="238.662355" xlink:href="#mf8b2be8b9c" y="502.790568"/>
     <use style="fill:#4c72b0;fill-opacity:0.8;" x="263.229165" xlink:href="#mf8b2be8b9c" y="546.805235"/>
     <use style="fill:#4c72b0;fill-opacity:0.8;" x="147.109027" xlink:href="#mf8b2be8b9c" y="527.233746"/>
     <use style="fill:#4c72b0;fill-opacity:0.8;" x="201.430668" xlink:href="#mf8b2be8b9c" y="567.264682"/>
     <use style="fill:#4c72b0;fill-opacity:0.8;" x="325.103956" xlink:href="#mf8b2be8b9c" y="565.735588"/>
     <use style="fill:#4c72b0;fill-opacity:0.8;" x="581.987335" xlink:href="#mf8b2be8b9c" y="410.511199"/>
     <use style="fill:#4c72b0;fill-opacity:0.8;" x="303.512629" xlink:href="#mf8b2be8b9c" y="531.583861"/>
     <use style="fill:#4c72b0;fill-opacity:0.8;" x="105.147085" xlink:href="#mf8b2be8b9c" y="189.122794"/>
     <use style="fill:#4c72b0;fill-opacity:0.8;" x="288.253741" xlink:href="#mf8b2be8b9c" y="528.948634"/>
     <use style="fill:#4c72b0;fill-opacity:0.8;" x="288.253741" xlink:href="#mf8b2be8b9c" y="555.947478"/>
     <use style="fill:#4c72b0;fill-opacity:0.8;" x="347.381932" xlink:href="#mf8b2be8b9c" y="491.421308"/>
     <use style="fill:#4c72b0;fill-opacity:0.8;" x="147.109027" xlink:href="#mf8b2be8b9c" y="436.340407"/>
     <use style="fill:#4c72b0;fill-opacity:0.8;" x="133.452322" xlink:href="#mf8b2be8b9c" y="505.481838"/>
     <use style="fill:#4c72b0;fill-opacity:0.8;" x="80.732864" xlink:href="#mf8b2be8b9c" y="531.59612"/>
     <use style="fill:#4c72b0;fill-opacity:0.8;" x="75.239665" xlink:href="#mf8b2be8b9c" y="562.613459"/>
     <use style="fill:#4c72b0;fill-opacity:0.8;" x="79.817331" xlink:href="#mf8b2be8b9c" y="562.379684"/>
     <use style="fill:#4c72b0;fill-opacity:0.8;" x="163.512332" xlink:href="#mf8b2be8b9c" y="492.708673"/>
     <use style="fill:#4c72b0;fill-opacity:0.8;" x="275.436275" xlink:href="#mf8b2be8b9c" y="561.097115"/>
     <use style="fill:#4c72b0;fill-opacity:0.8;" x="208.220874" xlink:href="#mf8b2be8b9c" y="545.903582"/>
     <use style="fill:#4c72b0;fill-opacity:0.8;" x="257.354493" xlink:href="#mf8b2be8b9c" y="376.567986"/>
     <use style="fill:#4c72b0;fill-opacity:0.8;" x="147.109027" xlink:href="#mf8b2be8b9c" y="533.368871"/>
     <use style="fill:#4c72b0;fill-opacity:0.8;" x="89.888197" xlink:href="#mf8b2be8b9c" y="544.811418"/>
     <use style="fill:#4c72b0;fill-opacity:0.8;" x="280.624297" xlink:href="#mf8b2be8b9c" y="493.530892"/>
     <use style="fill:#4c72b0;fill-opacity:0.8;" x="356.918737" xlink:href="#mf8b2be8b9c" y="493.887971"/>
     <use style="fill:#4c72b0;fill-opacity:0.8;" x="271.087492" xlink:href="#mf8b2be8b9c" y="419.286526"/>
     <use style="fill:#4c72b0;fill-opacity:0.8;" x="168.929237" xlink:href="#mf8b2be8b9c" y="552.582652"/>
     <use style="fill:#4c72b0;fill-opacity:0.8;" x="471.360397" xlink:href="#mf8b2be8b9c" y="146.984236"/>
     <use style="fill:#4c72b0;fill-opacity:0.8;" x="471.360397" xlink:href="#mf8b2be8b9c" y="279.331295"/>
     <use style="fill:#4c72b0;fill-opacity:0.8;" x="128.035417" xlink:href="#mf8b2be8b9c" y="502.217782"/>
     <use style="fill:#4c72b0;fill-opacity:0.8;" x="448.472065" xlink:href="#mf8b2be8b9c" y="562.185321"/>
     <use style="fill:#4c72b0;fill-opacity:0.8;" x="285.354553" xlink:href="#mf8b2be8b9c" y="453.557304"/>
     <use style="fill:#4c72b0;fill-opacity:0.8;" x="177.321625" xlink:href="#mf8b2be8b9c" y="548.376644"/>
     <use style="fill:#4c72b0;fill-opacity:0.8;" x="551.469559" xlink:href="#mf8b2be8b9c" y="467.701409"/>
     <use style="fill:#4c72b0;fill-opacity:0.8;" x="566.728447" xlink:href="#mf8b2be8b9c" y="496.378971"/>
     <use style="fill:#4c72b0;fill-opacity:0.8;" x="280.624297" xlink:href="#mf8b2be8b9c" y="542.048696"/>
     <use style="fill:#4c72b0;fill-opacity:0.8;" x="156.26436" xlink:href="#mf8b2be8b9c" y="519.446024"/>
     <use style="fill:#4c72b0;fill-opacity:0.8;" x="286.956736" xlink:href="#mf8b2be8b9c" y="513.208185"/>
     <use style="fill:#4c72b0;fill-opacity:0.8;" x="414.139567" xlink:href="#mf8b2be8b9c" y="447.499268"/>
     <use style="fill:#4c72b0;fill-opacity:0.8;" x="261.550687" xlink:href="#mf8b2be8b9c" y="452.076438"/>
     <use style="fill:#4c72b0;fill-opacity:0.8;" x="108.961807" xlink:href="#mf8b2be8b9c" y="589.544168"/>
     <use style="fill:#4c72b0;fill-opacity:0.8;" x="261.550687" xlink:href="#mf8b2be8b9c" y="498.287996"/>
     <use style="fill:#4c72b0;fill-opacity:0.8;" x="439.545616" xlink:href="#mf8b2be8b9c" y="95.633032"/>
     <use style="fill:#4c72b0;fill-opacity:0.8;" x="318.771517" xlink:href="#mf8b2be8b9c" y="514.362471"/>
     <use style="fill:#4c72b0;fill-opacity:0.8;" x="511.643862" xlink:href="#mf8b2be8b9c" y="510.072087"/>
     <use style="fill:#4c72b0;fill-opacity:0.8;" x="337.845127" xlink:href="#mf8b2be8b9c" y="459.454104"/>
     <use style="fill:#4c72b0;fill-opacity:0.8;" x="360.733459" xlink:href="#mf8b2be8b9c" y="367.078363"/>
     <use style="fill:#4c72b0;fill-opacity:0.8;" x="414.139567" xlink:href="#mf8b2be8b9c" y="425.177295"/>
     <use style="fill:#4c72b0;fill-opacity:0.8;" x="229.735906" xlink:href="#mf8b2be8b9c" y="580.73786"/>
     <use style="fill:#4c72b0;fill-opacity:0.8;" x="356.918737" xlink:href="#mf8b2be8b9c" y="296.733908"/>
     <use style="fill:#4c72b0;fill-opacity:0.8;" x="204.329857" xlink:href="#mf8b2be8b9c" y="533.332476"/>
     <use style="fill:#4c72b0;fill-opacity:0.8;" x="204.329857" xlink:href="#mf8b2be8b9c" y="397.71325"/>
    </g>
   </g>
   <g id="PolyCollection_1">
    <path clip-path="url(#p60b37d9853)" d="M 49.6135 475.113339 
L 49.6135 584.178296 
L 55.249864 581.600093 
L 60.886227 578.299875 
L 66.522591 575.857604 
L 72.158955 573.338364 
L 77.795318 570.063264 
L 83.431682 567.193826 
L 89.068045 564.642096 
L 94.704409 561.888436 
L 100.340773 558.444847 
L 105.977136 555.220961 
L 111.6135 552.58481 
L 117.249864 549.776472 
L 122.886227 546.902366 
L 128.522591 543.906642 
L 134.158955 541.514218 
L 139.795318 539.542168 
L 145.431682 537.292295 
L 151.068045 534.249223 
L 156.704409 532.640527 
L 162.340773 530.33462 
L 167.977136 528.130639 
L 173.6135 526.251007 
L 179.249864 524.213922 
L 184.886227 521.771485 
L 190.522591 520.192346 
L 196.158955 518.627028 
L 201.795318 516.992061 
L 207.431682 515.113464 
L 213.068045 513.203824 
L 218.704409 511.329228 
L 224.340773 509.567806 
L 229.977136 507.714817 
L 235.6135 506.990279 
L 241.249864 505.862145 
L 246.886227 504.489969 
L 252.522591 503.099733 
L 258.158955 501.707746 
L 263.795318 500.407038 
L 269.431682 499.112887 
L 275.068045 497.933835 
L 280.704409 496.698734 
L 286.340773 495.804936 
L 291.977136 494.807724 
L 297.6135 493.671232 
L 303.249864 492.241541 
L 308.886227 491.703109 
L 314.522591 491.157116 
L 320.158955 490.265058 
L 325.795318 489.213335 
L 331.431682 489.095349 
L 337.068045 488.229744 
L 342.704409 487.21075 
L 348.340773 486.243605 
L 353.977136 485.5856 
L 359.6135 485.211588 
L 365.249864 485.319023 
L 370.886227 484.345633 
L 376.522591 484.308034 
L 382.158955 484.261844 
L 387.795318 484.20918 
L 393.431682 483.919145 
L 399.068045 482.958694 
L 404.704409 481.97687 
L 410.340773 481.637368 
L 415.977136 481.125376 
L 421.6135 480.102568 
L 427.249864 479.418351 
L 432.886227 479.290807 
L 438.522591 479.163263 
L 444.158955 478.553487 
L 449.795318 477.854918 
L 455.431682 477.511043 
L 461.068045 477.019735 
L 466.704409 476.945596 
L 472.340773 476.871457 
L 477.977136 476.797319 
L 483.6135 476.812557 
L 489.249864 476.927621 
L 494.886227 477.042686 
L 500.522591 477.157049 
L 506.158955 477.264798 
L 511.795318 477.147471 
L 517.431682 476.7921 
L 523.068045 476.430188 
L 528.704409 476.069239 
L 534.340773 475.718679 
L 539.977136 475.368118 
L 545.6135 475.017557 
L 551.249864 474.666996 
L 556.886227 474.316435 
L 562.522591 474.039122 
L 568.158955 473.930849 
L 573.795318 473.822576 
L 579.431682 473.714303 
L 585.068045 473.60603 
L 590.704409 473.497757 
L 596.340773 473.389484 
L 601.977136 473.281211 
L 607.6135 473.172938 
L 607.6135 271.902421 
L 607.6135 271.902421 
L 601.977136 275.109354 
L 596.340773 278.318196 
L 590.704409 281.527374 
L 585.068045 284.736552 
L 579.431682 287.94573 
L 573.795318 291.154909 
L 568.158955 294.364087 
L 562.522591 297.54266 
L 556.886227 300.66493 
L 551.249864 303.787199 
L 545.6135 306.909469 
L 539.977136 310.031739 
L 534.340773 313.154009 
L 528.704409 316.276278 
L 523.068045 319.398548 
L 517.431682 322.509361 
L 511.795318 325.619119 
L 506.158955 328.730459 
L 500.522591 331.854784 
L 494.886227 334.979108 
L 489.249864 338.103433 
L 483.6135 341.227757 
L 477.977136 344.352082 
L 472.340773 347.476406 
L 466.704409 350.600731 
L 461.068045 353.785458 
L 455.431682 357.059908 
L 449.795318 360.334358 
L 444.158955 363.608807 
L 438.522591 366.199369 
L 432.886227 369.290857 
L 427.249864 372.113574 
L 421.6135 374.940075 
L 415.977136 377.597417 
L 410.340773 380.25003 
L 404.704409 383.344293 
L 399.068045 386.004165 
L 393.431682 389.047908 
L 387.795318 391.86109 
L 382.158955 394.687269 
L 376.522591 397.46404 
L 370.886227 400.142586 
L 365.249864 402.43141 
L 359.6135 405.858965 
L 353.977136 408.029944 
L 348.340773 409.892939 
L 342.704409 412.503034 
L 337.068045 415.341042 
L 331.431682 418.402011 
L 325.795318 421.220186 
L 320.158955 423.558548 
L 314.522591 426.491705 
L 308.886227 428.962607 
L 303.249864 431.845491 
L 297.6135 434.271064 
L 291.977136 436.209909 
L 286.340773 439.168694 
L 280.704409 441.313747 
L 275.068045 443.060894 
L 269.431682 445.620214 
L 263.795318 447.749108 
L 258.158955 449.655612 
L 252.522591 451.319828 
L 246.886227 453.19305 
L 241.249864 454.405672 
L 235.6135 456.150116 
L 229.977136 457.094525 
L 224.340773 458.359562 
L 218.704409 459.747423 
L 213.068045 460.422531 
L 207.431682 461.209218 
L 201.795318 462.140934 
L 196.158955 462.638273 
L 190.522591 463.546158 
L 184.886227 464.473985 
L 179.249864 465.402657 
L 173.6135 466.468099 
L 167.977136 467.208276 
L 162.340773 468.104395 
L 156.704409 468.921551 
L 151.068045 469.313231 
L 145.431682 469.595709 
L 139.795318 469.699494 
L 134.158955 469.356527 
L 128.522591 469.605207 
L 122.886227 470.212018 
L 117.249864 470.654029 
L 111.6135 470.909451 
L 105.977136 471.90133 
L 100.340773 472.214561 
L 94.704409 472.541496 
L 89.068045 473.427975 
L 83.431682 474.324951 
L 77.795318 474.456349 
L 72.158955 474.587747 
L 66.522591 474.719145 
L 60.886227 474.850543 
L 55.249864 474.981941 
L 49.6135 475.113339 
z
" style="fill:#4c72b0;fill-opacity:0.15;"/>
   </g>
   <g id="line2d_27">
    <path clip-path="url(#p60b37d9853)" d="M 49.6135 533.444597 
L 55.249864 531.916892 
L 60.886227 530.389188 
L 66.522591 528.861483 
L 72.158955 527.333778 
L 77.795318 525.806074 
L 83.431682 524.278369 
L 89.068045 522.750665 
L 94.704409 521.22296 
L 100.340773 519.695256 
L 105.977136 518.167551 
L 111.6135 516.639847 
L 117.249864 515.112142 
L 122.886227 513.584438 
L 128.522591 512.056733 
L 134.158955 510.529028 
L 139.795318 509.001324 
L 145.431682 507.473619 
L 151.068045 505.945915 
L 156.704409 504.41821 
L 162.340773 502.890506 
L 167.977136 501.362801 
L 173.6135 499.835097 
L 179.249864 498.307392 
L 184.886227 496.779688 
L 190.522591 495.251983 
L 196.158955 493.724278 
L 201.795318 492.196574 
L 207.431682 490.668869 
L 213.068045 489.141165 
L 218.704409 487.61346 
L 224.340773 486.085756 
L 229.977136 484.558051 
L 235.6135 483.030347 
L 241.249864 481.502642 
L 246.886227 479.974938 
L 252.522591 478.447233 
L 258.158955 476.919528 
L 263.795318 475.391824 
L 269.431682 473.864119 
L 275.068045 472.336415 
L 280.704409 470.80871 
L 286.340773 469.281006 
L 291.977136 467.753301 
L 297.6135 466.225597 
L 303.249864 464.697892 
L 308.886227 463.170188 
L 314.522591 461.642483 
L 320.158955 460.114779 
L 325.795318 458.587074 
L 331.431682 457.059369 
L 337.068045 455.531665 
L 342.704409 454.00396 
L 348.340773 452.476256 
L 353.977136 450.948551 
L 359.6135 449.420847 
L 365.249864 447.893142 
L 370.886227 446.365438 
L 376.522591 444.837733 
L 382.158955 443.310029 
L 387.795318 441.782324 
L 393.431682 440.254619 
L 399.068045 438.726915 
L 404.704409 437.19921 
L 410.340773 435.671506 
L 415.977136 434.143801 
L 421.6135 432.616097 
L 427.249864 431.088392 
L 432.886227 429.560688 
L 438.522591 428.032983 
L 444.158955 426.505279 
L 449.795318 424.977574 
L 455.431682 423.449869 
L 461.068045 421.922165 
L 466.704409 420.39446 
L 472.340773 418.866756 
L 477.977136 417.339051 
L 483.6135 415.811347 
L 489.249864 414.283642 
L 494.886227 412.755938 
L 500.522591 411.228233 
L 506.158955 409.700529 
L 511.795318 408.172824 
L 517.431682 406.645119 
L 523.068045 405.117415 
L 528.704409 403.58971 
L 534.340773 402.062006 
L 539.977136 400.534301 
L 545.6135 399.006597 
L 551.249864 397.478892 
L 556.886227 395.951188 
L 562.522591 394.423483 
L 568.158955 392.895779 
L 573.795318 391.368074 
L 579.431682 389.84037 
L 585.068045 388.312665 
L 590.704409 386.78496 
L 596.340773 385.257256 
L 601.977136 383.729551 
L 607.6135 382.201847 
" style="fill:none;stroke:#4c72b0;stroke-linecap:round;stroke-width:4.2;"/>
   </g>
   <g id="patch_3">
    <path d="M 49.6135 614.3886 
L 49.6135 70.7886 
" style="fill:none;"/>
   </g>
   <g id="patch_4">
    <path d="M 607.6135 614.3886 
L 607.6135 70.7886 
" style="fill:none;"/>
   </g>
   <g id="patch_5">
    <path d="M 49.6135 614.3886 
L 607.6135 614.3886 
" style="fill:none;"/>
   </g>
   <g id="patch_6">
    <path d="M 49.6135 70.7886 
L 607.6135 70.7886 
" style="fill:none;"/>
   </g>
   <g id="text_16">
    <!-- Entire year (53 data points) -->
    <defs>
     <path d="M 9.8125 72.90625 
L 55.90625 72.90625 
L 55.90625 64.59375 
L 19.671875 64.59375 
L 19.671875 43.015625 
L 54.390625 43.015625 
L 54.390625 34.71875 
L 19.671875 34.71875 
L 19.671875 8.296875 
L 56.78125 8.296875 
L 56.78125 0 
L 9.8125 0 
z
" id="DejaVuSans-45"/>
     <path d="M 31 75.875 
Q 24.46875 64.65625 21.28125 53.65625 
Q 18.109375 42.671875 18.109375 31.390625 
Q 18.109375 20.125 21.3125 9.0625 
Q 24.515625 -2 31 -13.1875 
L 23.1875 -13.1875 
Q 15.875 -1.703125 12.234375 9.375 
Q 8.59375 20.453125 8.59375 31.390625 
Q 8.59375 42.28125 12.203125 53.3125 
Q 15.828125 64.359375 23.1875 75.875 
z
" id="DejaVuSans-28"/>
     <path d="M 18.109375 8.203125 
L 18.109375 -20.796875 
L 9.078125 -20.796875 
L 9.078125 54.6875 
L 18.109375 54.6875 
L 18.109375 46.390625 
Q 20.953125 51.265625 25.265625 53.625 
Q 29.59375 56 35.59375 56 
Q 45.5625 56 51.78125 48.09375 
Q 58.015625 40.1875 58.015625 27.296875 
Q 58.015625 14.40625 51.78125 6.484375 
Q 45.5625 -1.421875 35.59375 -1.421875 
Q 29.59375 -1.421875 25.265625 0.953125 
Q 20.953125 3.328125 18.109375 8.203125 
z
M 48.6875 27.296875 
Q 48.6875 37.203125 44.609375 42.84375 
Q 40.53125 48.484375 33.40625 48.484375 
Q 26.265625 48.484375 22.1875 42.84375 
Q 18.109375 37.203125 18.109375 27.296875 
Q 18.109375 17.390625 22.1875 11.75 
Q 26.265625 6.109375 33.40625 6.109375 
Q 40.53125 6.109375 44.609375 11.75 
Q 48.6875 17.390625 48.6875 27.296875 
z
" id="DejaVuSans-70"/>
     <path d="M 8.015625 75.875 
L 15.828125 75.875 
Q 23.140625 64.359375 26.78125 53.3125 
Q 30.421875 42.28125 30.421875 31.390625 
Q 30.421875 20.453125 26.78125 9.375 
Q 23.140625 -1.703125 15.828125 -13.1875 
L 8.015625 -13.1875 
Q 14.5 -2 17.703125 9.0625 
Q 20.90625 20.125 20.90625 31.390625 
Q 20.90625 42.671875 17.703125 53.65625 
Q 14.5 64.65625 8.015625 75.875 
z
" id="DejaVuSans-29"/>
    </defs>
    <g style="fill:#262626;" transform="translate(195.745 21.789)scale(0.192 -0.192)">
     <use xlink:href="#DejaVuSans-45"/>
     <use x="63.183594" xlink:href="#DejaVuSans-6e"/>
     <use x="126.5625" xlink:href="#DejaVuSans-74"/>
     <use x="165.771484" xlink:href="#DejaVuSans-69"/>
     <use x="193.554688" xlink:href="#DejaVuSans-72"/>
     <use x="234.636719" xlink:href="#DejaVuSans-65"/>
     <use x="296.160156" xlink:href="#DejaVuSans-20"/>
     <use x="327.947266" xlink:href="#DejaVuSans-79"/>
     <use x="387.126953" xlink:href="#DejaVuSans-65"/>
     <use x="448.650391" xlink:href="#DejaVuSans-61"/>
     <use x="509.929688" xlink:href="#DejaVuSans-72"/>
     <use x="551.042969" xlink:href="#DejaVuSans-20"/>
     <use x="582.830078" xlink:href="#DejaVuSans-28"/>
     <use x="621.84375" xlink:href="#DejaVuSans-35"/>
     <use x="685.466797" xlink:href="#DejaVuSans-33"/>
     <use x="749.089844" xlink:href="#DejaVuSans-20"/>
     <use x="780.876953" xlink:href="#DejaVuSans-64"/>
     <use x="844.353516" xlink:href="#DejaVuSans-61"/>
     <use x="905.632812" xlink:href="#DejaVuSans-74"/>
     <use x="944.841797" xlink:href="#DejaVuSans-61"/>
     <use x="1006.121094" xlink:href="#DejaVuSans-20"/>
     <use x="1037.908203" xlink:href="#DejaVuSans-70"/>
     <use x="1101.384766" xlink:href="#DejaVuSans-6f"/>
     <use x="1162.566406" xlink:href="#DejaVuSans-69"/>
     <use x="1190.349609" xlink:href="#DejaVuSans-6e"/>
     <use x="1253.728516" xlink:href="#DejaVuSans-74"/>
     <use x="1292.9375" xlink:href="#DejaVuSans-73"/>
     <use x="1345.037109" xlink:href="#DejaVuSans-29"/>
    </g>
    <!-- Pearson: 0.3416, p-value: 0.0123 -->
    <defs>
     <path d="M 19.671875 64.796875 
L 19.671875 37.40625 
L 32.078125 37.40625 
Q 38.96875 37.40625 42.71875 40.96875 
Q 46.484375 44.53125 46.484375 51.125 
Q 46.484375 57.671875 42.71875 61.234375 
Q 38.96875 64.796875 32.078125 64.796875 
z
M 9.8125 72.90625 
L 32.078125 72.90625 
Q 44.34375 72.90625 50.609375 67.359375 
Q 56.890625 61.8125 56.890625 51.125 
Q 56.890625 40.328125 50.609375 34.8125 
Q 44.34375 29.296875 32.078125 29.296875 
L 19.671875 29.296875 
L 19.671875 0 
L 9.8125 0 
z
" id="DejaVuSans-50"/>
     <path d="M 11.71875 12.40625 
L 22.015625 12.40625 
L 22.015625 0 
L 11.71875 0 
z
M 11.71875 51.703125 
L 22.015625 51.703125 
L 22.015625 39.3125 
L 11.71875 39.3125 
z
" id="DejaVuSans-3a"/>
     <path d="M 10.6875 12.40625 
L 21 12.40625 
L 21 0 
L 10.6875 0 
z
" id="DejaVuSans-2e"/>
     <path d="M 11.71875 12.40625 
L 22.015625 12.40625 
L 22.015625 4 
L 14.015625 -11.625 
L 7.71875 -11.625 
L 11.71875 4 
z
" id="DejaVuSans-2c"/>
     <path d="M 4.890625 31.390625 
L 31.203125 31.390625 
L 31.203125 23.390625 
L 4.890625 23.390625 
z
" id="DejaVuSans-2d"/>
     <path d="M 2.984375 54.6875 
L 12.5 54.6875 
L 29.59375 8.796875 
L 46.6875 54.6875 
L 56.203125 54.6875 
L 35.6875 0 
L 23.484375 0 
z
" id="DejaVuSans-76"/>
    </defs>
    <g style="fill:#262626;" transform="translate(168.502 43.2888)scale(0.192 -0.192)">
     <use xlink:href="#DejaVuSans-50"/>
     <use x="60.255859" xlink:href="#DejaVuSans-65"/>
     <use x="121.779297" xlink:href="#DejaVuSans-61"/>
     <use x="183.058594" xlink:href="#DejaVuSans-72"/>
     <use x="224.171875" xlink:href="#DejaVuSans-73"/>
     <use x="276.271484" xlink:href="#DejaVuSans-6f"/>
     <use x="337.453125" xlink:href="#DejaVuSans-6e"/>
     <use x="400.832031" xlink:href="#DejaVuSans-3a"/>
     <use x="434.523438" xlink:href="#DejaVuSans-20"/>
     <use x="466.310547" xlink:href="#DejaVuSans-30"/>
     <use x="529.933594" xlink:href="#DejaVuSans-2e"/>
     <use x="561.720703" xlink:href="#DejaVuSans-33"/>
     <use x="625.34375" xlink:href="#DejaVuSans-34"/>
     <use x="688.966797" xlink:href="#DejaVuSans-31"/>
     <use x="752.589844" xlink:href="#DejaVuSans-36"/>
     <use x="816.212891" xlink:href="#DejaVuSans-2c"/>
     <use x="848" xlink:href="#DejaVuSans-20"/>
     <use x="879.787109" xlink:href="#DejaVuSans-70"/>
     <use x="943.263672" xlink:href="#DejaVuSans-2d"/>
     <use x="979.316406" xlink:href="#DejaVuSans-76"/>
     <use x="1038.496094" xlink:href="#DejaVuSans-61"/>
     <use x="1099.775391" xlink:href="#DejaVuSans-6c"/>
     <use x="1127.558594" xlink:href="#DejaVuSans-75"/>
     <use x="1190.9375" xlink:href="#DejaVuSans-65"/>
     <use x="1252.460938" xlink:href="#DejaVuSans-3a"/>
     <use x="1286.152344" xlink:href="#DejaVuSans-20"/>
     <use x="1317.939453" xlink:href="#DejaVuSans-30"/>
     <use x="1381.5625" xlink:href="#DejaVuSans-2e"/>
     <use x="1413.349609" xlink:href="#DejaVuSans-30"/>
     <use x="1476.972656" xlink:href="#DejaVuSans-31"/>
     <use x="1540.595703" xlink:href="#DejaVuSans-32"/>
     <use x="1604.21875" xlink:href="#DejaVuSans-33"/>
    </g>
    <!-- Spearman: 0.3579, p-value: 0.0085 -->
    <defs>
     <path d="M 10.984375 1.515625 
L 10.984375 10.5 
Q 14.703125 8.734375 18.5 7.8125 
Q 22.3125 6.890625 25.984375 6.890625 
Q 35.75 6.890625 40.890625 13.453125 
Q 46.046875 20.015625 46.78125 33.40625 
Q 43.953125 29.203125 39.59375 26.953125 
Q 35.25 24.703125 29.984375 24.703125 
Q 19.046875 24.703125 12.671875 31.3125 
Q 6.296875 37.9375 6.296875 49.421875 
Q 6.296875 60.640625 12.9375 67.421875 
Q 19.578125 74.21875 30.609375 74.21875 
Q 43.265625 74.21875 49.921875 64.515625 
Q 56.59375 54.828125 56.59375 36.375 
Q 56.59375 19.140625 48.40625 8.859375 
Q 40.234375 -1.421875 26.421875 -1.421875 
Q 22.703125 -1.421875 18.890625 -0.6875 
Q 15.09375 0.046875 10.984375 1.515625 
z
M 30.609375 32.421875 
Q 37.25 32.421875 41.125 36.953125 
Q 45.015625 41.5 45.015625 49.421875 
Q 45.015625 57.28125 41.125 61.84375 
Q 37.25 66.40625 30.609375 66.40625 
Q 23.96875 66.40625 20.09375 61.84375 
Q 16.21875 57.28125 16.21875 49.421875 
Q 16.21875 41.5 20.09375 36.953125 
Q 23.96875 32.421875 30.609375 32.421875 
z
" id="DejaVuSans-39"/>
     <path d="M 31.78125 34.625 
Q 24.75 34.625 20.71875 30.859375 
Q 16.703125 27.09375 16.703125 20.515625 
Q 16.703125 13.921875 20.71875 10.15625 
Q 24.75 6.390625 31.78125 6.390625 
Q 38.8125 6.390625 42.859375 10.171875 
Q 46.921875 13.96875 46.921875 20.515625 
Q 46.921875 27.09375 42.890625 30.859375 
Q 38.875 34.625 31.78125 34.625 
z
M 21.921875 38.8125 
Q 15.578125 40.375 12.03125 44.71875 
Q 8.5 49.078125 8.5 55.328125 
Q 8.5 64.0625 14.71875 69.140625 
Q 20.953125 74.21875 31.78125 74.21875 
Q 42.671875 74.21875 48.875 69.140625 
Q 55.078125 64.0625 55.078125 55.328125 
Q 55.078125 49.078125 51.53125 44.71875 
Q 48 40.375 41.703125 38.8125 
Q 48.828125 37.15625 52.796875 32.3125 
Q 56.78125 27.484375 56.78125 20.515625 
Q 56.78125 9.90625 50.3125 4.234375 
Q 43.84375 -1.421875 31.78125 -1.421875 
Q 19.734375 -1.421875 13.25 4.234375 
Q 6.78125 9.90625 6.78125 20.515625 
Q 6.78125 27.484375 10.78125 32.3125 
Q 14.796875 37.15625 21.921875 38.8125 
z
M 18.3125 54.390625 
Q 18.3125 48.734375 21.84375 45.5625 
Q 25.390625 42.390625 31.78125 42.390625 
Q 38.140625 42.390625 41.71875 45.5625 
Q 45.3125 48.734375 45.3125 54.390625 
Q 45.3125 60.0625 41.71875 63.234375 
Q 38.140625 66.40625 31.78125 66.40625 
Q 25.390625 66.40625 21.84375 63.234375 
Q 18.3125 60.0625 18.3125 54.390625 
z
" id="DejaVuSans-38"/>
    </defs>
    <g style="fill:#262626;" transform="translate(157.7395 64.7886)scale(0.192 -0.192)">
     <use xlink:href="#DejaVuSans-53"/>
     <use x="63.476562" xlink:href="#DejaVuSans-70"/>
     <use x="126.953125" xlink:href="#DejaVuSans-65"/>
     <use x="188.476562" xlink:href="#DejaVuSans-61"/>
     <use x="249.755859" xlink:href="#DejaVuSans-72"/>
     <use x="290.853516" xlink:href="#DejaVuSans-6d"/>
     <use x="388.265625" xlink:href="#DejaVuSans-61"/>
     <use x="449.544922" xlink:href="#DejaVuSans-6e"/>
     <use x="512.923828" xlink:href="#DejaVuSans-3a"/>
     <use x="546.615234" xlink:href="#DejaVuSans-20"/>
     <use x="578.402344" xlink:href="#DejaVuSans-30"/>
     <use x="642.025391" xlink:href="#DejaVuSans-2e"/>
     <use x="673.8125" xlink:href="#DejaVuSans-33"/>
     <use x="737.435547" xlink:href="#DejaVuSans-35"/>
     <use x="801.058594" xlink:href="#DejaVuSans-37"/>
     <use x="864.681641" xlink:href="#DejaVuSans-39"/>
     <use x="928.304688" xlink:href="#DejaVuSans-2c"/>
     <use x="960.091797" xlink:href="#DejaVuSans-20"/>
     <use x="991.878906" xlink:href="#DejaVuSans-70"/>
     <use x="1055.355469" xlink:href="#DejaVuSans-2d"/>
     <use x="1091.408203" xlink:href="#DejaVuSans-76"/>
     <use x="1150.587891" xlink:href="#DejaVuSans-61"/>
     <use x="1211.867188" xlink:href="#DejaVuSans-6c"/>
     <use x="1239.650391" xlink:href="#DejaVuSans-75"/>
     <use x="1303.029297" xlink:href="#DejaVuSans-65"/>
     <use x="1364.552734" xlink:href="#DejaVuSans-3a"/>
     <use x="1398.244141" xlink:href="#DejaVuSans-20"/>
     <use x="1430.03125" xlink:href="#DejaVuSans-30"/>
     <use x="1493.654297" xlink:href="#DejaVuSans-2e"/>
     <use x="1525.441406" xlink:href="#DejaVuSans-30"/>
     <use x="1589.064453" xlink:href="#DejaVuSans-30"/>
     <use x="1652.6875" xlink:href="#DejaVuSans-38"/>
     <use x="1716.310547" xlink:href="#DejaVuSans-35"/>
    </g>
   </g>
  </g>
 </g>
 <defs>
  <clipPath id="p60b37d9853">
   <rect height="543.6" width="558" x="49.6135" y="70.7886"/>
  </clipPath>
 </defs>
</svg>
