<?xml version="1.0" encoding="utf-8" standalone="no"?>
<!DOCTYPE svg PUBLIC "-//W3C//DTD SVG 1.1//EN"
  "http://www.w3.org/Graphics/SVG/1.1/DTD/svg11.dtd">
<!-- Created with matplotlib (http://matplotlib.org/) -->
<svg height="690pt" version="1.1" viewBox="0 0 624 690" width="624pt" xmlns="http://www.w3.org/2000/svg" xmlns:xlink="http://www.w3.org/1999/xlink">
 <defs>
  <style type="text/css">
*{stroke-linecap:butt;stroke-linejoin:round;}
  </style>
 </defs>
 <g id="figure_1">
  <g id="patch_1">
   <path d="M 0 690.8069 
L 624.9935 690.8069 
L 624.9935 0 
L 0 0 
z
" style="fill:#ffffff;"/>
  </g>
  <g id="axes_1">
   <g id="patch_2">
    <path d="M 59.7935 635.8884 
L 617.7935 635.8884 
L 617.7935 92.2884 
L 59.7935 92.2884 
z
" style="fill:#eaeaf2;"/>
   </g>
   <g id="matplotlib.axis_1">
    <g id="xtick_1">
     <g id="line2d_1">
      <path clip-path="url(#p59b9e96b46)" d="M 121.138026 635.8884 
L 121.138026 92.2884 
" style="fill:none;stroke:#ffffff;stroke-linecap:round;stroke-width:1.6;"/>
     </g>
     <g id="line2d_2"/>
     <g id="text_1">
      <!-- 10 -->
      <defs>
       <path d="M 12.40625 8.296875 
L 28.515625 8.296875 
L 28.515625 63.921875 
L 10.984375 60.40625 
L 10.984375 69.390625 
L 28.421875 72.90625 
L 38.28125 72.90625 
L 38.28125 8.296875 
L 54.390625 8.296875 
L 54.390625 0 
L 12.40625 0 
z
" id="DejaVuSans-31"/>
       <path d="M 31.78125 66.40625 
Q 24.171875 66.40625 20.328125 58.90625 
Q 16.5 51.421875 16.5 36.375 
Q 16.5 21.390625 20.328125 13.890625 
Q 24.171875 6.390625 31.78125 6.390625 
Q 39.453125 6.390625 43.28125 13.890625 
Q 47.125 21.390625 47.125 36.375 
Q 47.125 51.421875 43.28125 58.90625 
Q 39.453125 66.40625 31.78125 66.40625 
z
M 31.78125 74.21875 
Q 44.046875 74.21875 50.515625 64.515625 
Q 56.984375 54.828125 56.984375 36.375 
Q 56.984375 17.96875 50.515625 8.265625 
Q 44.046875 -1.421875 31.78125 -1.421875 
Q 19.53125 -1.421875 13.0625 8.265625 
Q 6.59375 17.96875 6.59375 36.375 
Q 6.59375 54.828125 13.0625 64.515625 
Q 19.53125 74.21875 31.78125 74.21875 
z
" id="DejaVuSans-30"/>
      </defs>
      <g style="fill:#262626;" transform="translate(110.958026 659.2459)scale(0.16 -0.16)">
       <use xlink:href="#DejaVuSans-31"/>
       <use x="63.623047" xlink:href="#DejaVuSans-30"/>
      </g>
     </g>
    </g>
    <g id="xtick_2">
     <g id="line2d_3">
      <path clip-path="url(#p59b9e96b46)" d="M 206.778582 635.8884 
L 206.778582 92.2884 
" style="fill:none;stroke:#ffffff;stroke-linecap:round;stroke-width:1.6;"/>
     </g>
     <g id="line2d_4"/>
     <g id="text_2">
      <!-- 20 -->
      <defs>
       <path d="M 19.1875 8.296875 
L 53.609375 8.296875 
L 53.609375 0 
L 7.328125 0 
L 7.328125 8.296875 
Q 12.9375 14.109375 22.625 23.890625 
Q 32.328125 33.6875 34.8125 36.53125 
Q 39.546875 41.84375 41.421875 45.53125 
Q 43.3125 49.21875 43.3125 52.78125 
Q 43.3125 58.59375 39.234375 62.25 
Q 35.15625 65.921875 28.609375 65.921875 
Q 23.96875 65.921875 18.8125 64.3125 
Q 13.671875 62.703125 7.8125 59.421875 
L 7.8125 69.390625 
Q 13.765625 71.78125 18.9375 73 
Q 24.125 74.21875 28.421875 74.21875 
Q 39.75 74.21875 46.484375 68.546875 
Q 53.21875 62.890625 53.21875 53.421875 
Q 53.21875 48.921875 51.53125 44.890625 
Q 49.859375 40.875 45.40625 35.40625 
Q 44.1875 33.984375 37.640625 27.21875 
Q 31.109375 20.453125 19.1875 8.296875 
z
" id="DejaVuSans-32"/>
      </defs>
      <g style="fill:#262626;" transform="translate(196.598582 659.2459)scale(0.16 -0.16)">
       <use xlink:href="#DejaVuSans-32"/>
       <use x="63.623047" xlink:href="#DejaVuSans-30"/>
      </g>
     </g>
    </g>
    <g id="xtick_3">
     <g id="line2d_5">
      <path clip-path="url(#p59b9e96b46)" d="M 292.419139 635.8884 
L 292.419139 92.2884 
" style="fill:none;stroke:#ffffff;stroke-linecap:round;stroke-width:1.6;"/>
     </g>
     <g id="line2d_6"/>
     <g id="text_3">
      <!-- 30 -->
      <defs>
       <path d="M 40.578125 39.3125 
Q 47.65625 37.796875 51.625 33 
Q 55.609375 28.21875 55.609375 21.1875 
Q 55.609375 10.40625 48.1875 4.484375 
Q 40.765625 -1.421875 27.09375 -1.421875 
Q 22.515625 -1.421875 17.65625 -0.515625 
Q 12.796875 0.390625 7.625 2.203125 
L 7.625 11.71875 
Q 11.71875 9.328125 16.59375 8.109375 
Q 21.484375 6.890625 26.8125 6.890625 
Q 36.078125 6.890625 40.9375 10.546875 
Q 45.796875 14.203125 45.796875 21.1875 
Q 45.796875 27.640625 41.28125 31.265625 
Q 36.765625 34.90625 28.71875 34.90625 
L 20.21875 34.90625 
L 20.21875 43.015625 
L 29.109375 43.015625 
Q 36.375 43.015625 40.234375 45.921875 
Q 44.09375 48.828125 44.09375 54.296875 
Q 44.09375 59.90625 40.109375 62.90625 
Q 36.140625 65.921875 28.71875 65.921875 
Q 24.65625 65.921875 20.015625 65.03125 
Q 15.375 64.15625 9.8125 62.3125 
L 9.8125 71.09375 
Q 15.4375 72.65625 20.34375 73.4375 
Q 25.25 74.21875 29.59375 74.21875 
Q 40.828125 74.21875 47.359375 69.109375 
Q 53.90625 64.015625 53.90625 55.328125 
Q 53.90625 49.265625 50.4375 45.09375 
Q 46.96875 40.921875 40.578125 39.3125 
z
" id="DejaVuSans-33"/>
      </defs>
      <g style="fill:#262626;" transform="translate(282.239139 659.2459)scale(0.16 -0.16)">
       <use xlink:href="#DejaVuSans-33"/>
       <use x="63.623047" xlink:href="#DejaVuSans-30"/>
      </g>
     </g>
    </g>
    <g id="xtick_4">
     <g id="line2d_7">
      <path clip-path="url(#p59b9e96b46)" d="M 378.059695 635.8884 
L 378.059695 92.2884 
" style="fill:none;stroke:#ffffff;stroke-linecap:round;stroke-width:1.6;"/>
     </g>
     <g id="line2d_8"/>
     <g id="text_4">
      <!-- 40 -->
      <defs>
       <path d="M 37.796875 64.3125 
L 12.890625 25.390625 
L 37.796875 25.390625 
z
M 35.203125 72.90625 
L 47.609375 72.90625 
L 47.609375 25.390625 
L 58.015625 25.390625 
L 58.015625 17.1875 
L 47.609375 17.1875 
L 47.609375 0 
L 37.796875 0 
L 37.796875 17.1875 
L 4.890625 17.1875 
L 4.890625 26.703125 
z
" id="DejaVuSans-34"/>
      </defs>
      <g style="fill:#262626;" transform="translate(367.879695 659.2459)scale(0.16 -0.16)">
       <use xlink:href="#DejaVuSans-34"/>
       <use x="63.623047" xlink:href="#DejaVuSans-30"/>
      </g>
     </g>
    </g>
    <g id="xtick_5">
     <g id="line2d_9">
      <path clip-path="url(#p59b9e96b46)" d="M 463.700252 635.8884 
L 463.700252 92.2884 
" style="fill:none;stroke:#ffffff;stroke-linecap:round;stroke-width:1.6;"/>
     </g>
     <g id="line2d_10"/>
     <g id="text_5">
      <!-- 50 -->
      <defs>
       <path d="M 10.796875 72.90625 
L 49.515625 72.90625 
L 49.515625 64.59375 
L 19.828125 64.59375 
L 19.828125 46.734375 
Q 21.96875 47.46875 24.109375 47.828125 
Q 26.265625 48.1875 28.421875 48.1875 
Q 40.625 48.1875 47.75 41.5 
Q 54.890625 34.8125 54.890625 23.390625 
Q 54.890625 11.625 47.5625 5.09375 
Q 40.234375 -1.421875 26.90625 -1.421875 
Q 22.3125 -1.421875 17.546875 -0.640625 
Q 12.796875 0.140625 7.71875 1.703125 
L 7.71875 11.625 
Q 12.109375 9.234375 16.796875 8.0625 
Q 21.484375 6.890625 26.703125 6.890625 
Q 35.15625 6.890625 40.078125 11.328125 
Q 45.015625 15.765625 45.015625 23.390625 
Q 45.015625 31 40.078125 35.4375 
Q 35.15625 39.890625 26.703125 39.890625 
Q 22.75 39.890625 18.8125 39.015625 
Q 14.890625 38.140625 10.796875 36.28125 
z
" id="DejaVuSans-35"/>
      </defs>
      <g style="fill:#262626;" transform="translate(453.520252 659.2459)scale(0.16 -0.16)">
       <use xlink:href="#DejaVuSans-35"/>
       <use x="63.623047" xlink:href="#DejaVuSans-30"/>
      </g>
     </g>
    </g>
    <g id="xtick_6">
     <g id="line2d_11">
      <path clip-path="url(#p59b9e96b46)" d="M 549.340808 635.8884 
L 549.340808 92.2884 
" style="fill:none;stroke:#ffffff;stroke-linecap:round;stroke-width:1.6;"/>
     </g>
     <g id="line2d_12"/>
     <g id="text_6">
      <!-- 60 -->
      <defs>
       <path d="M 33.015625 40.375 
Q 26.375 40.375 22.484375 35.828125 
Q 18.609375 31.296875 18.609375 23.390625 
Q 18.609375 15.53125 22.484375 10.953125 
Q 26.375 6.390625 33.015625 6.390625 
Q 39.65625 6.390625 43.53125 10.953125 
Q 47.40625 15.53125 47.40625 23.390625 
Q 47.40625 31.296875 43.53125 35.828125 
Q 39.65625 40.375 33.015625 40.375 
z
M 52.59375 71.296875 
L 52.59375 62.3125 
Q 48.875 64.0625 45.09375 64.984375 
Q 41.3125 65.921875 37.59375 65.921875 
Q 27.828125 65.921875 22.671875 59.328125 
Q 17.53125 52.734375 16.796875 39.40625 
Q 19.671875 43.65625 24.015625 45.921875 
Q 28.375 48.1875 33.59375 48.1875 
Q 44.578125 48.1875 50.953125 41.515625 
Q 57.328125 34.859375 57.328125 23.390625 
Q 57.328125 12.15625 50.6875 5.359375 
Q 44.046875 -1.421875 33.015625 -1.421875 
Q 20.359375 -1.421875 13.671875 8.265625 
Q 6.984375 17.96875 6.984375 36.375 
Q 6.984375 53.65625 15.1875 63.9375 
Q 23.390625 74.21875 37.203125 74.21875 
Q 40.921875 74.21875 44.703125 73.484375 
Q 48.484375 72.75 52.59375 71.296875 
z
" id="DejaVuSans-36"/>
      </defs>
      <g style="fill:#262626;" transform="translate(539.160808 659.2459)scale(0.16 -0.16)">
       <use xlink:href="#DejaVuSans-36"/>
       <use x="63.623047" xlink:href="#DejaVuSans-30"/>
      </g>
     </g>
    </g>
    <g id="text_7">
     <!-- Breteau Index -->
     <defs>
      <path d="M 19.671875 34.8125 
L 19.671875 8.109375 
L 35.5 8.109375 
Q 43.453125 8.109375 47.28125 11.40625 
Q 51.125 14.703125 51.125 21.484375 
Q 51.125 28.328125 47.28125 31.5625 
Q 43.453125 34.8125 35.5 34.8125 
z
M 19.671875 64.796875 
L 19.671875 42.828125 
L 34.28125 42.828125 
Q 41.5 42.828125 45.03125 45.53125 
Q 48.578125 48.25 48.578125 53.8125 
Q 48.578125 59.328125 45.03125 62.0625 
Q 41.5 64.796875 34.28125 64.796875 
z
M 9.8125 72.90625 
L 35.015625 72.90625 
Q 46.296875 72.90625 52.390625 68.21875 
Q 58.5 63.53125 58.5 54.890625 
Q 58.5 48.1875 55.375 44.234375 
Q 52.25 40.28125 46.1875 39.3125 
Q 53.46875 37.75 57.5 32.78125 
Q 61.53125 27.828125 61.53125 20.40625 
Q 61.53125 10.640625 54.890625 5.3125 
Q 48.25 0 35.984375 0 
L 9.8125 0 
z
" id="DejaVuSans-42"/>
      <path d="M 41.109375 46.296875 
Q 39.59375 47.171875 37.8125 47.578125 
Q 36.03125 48 33.890625 48 
Q 26.265625 48 22.1875 43.046875 
Q 18.109375 38.09375 18.109375 28.8125 
L 18.109375 0 
L 9.078125 0 
L 9.078125 54.6875 
L 18.109375 54.6875 
L 18.109375 46.1875 
Q 20.953125 51.171875 25.484375 53.578125 
Q 30.03125 56 36.53125 56 
Q 37.453125 56 38.578125 55.875 
Q 39.703125 55.765625 41.0625 55.515625 
z
" id="DejaVuSans-72"/>
      <path d="M 56.203125 29.59375 
L 56.203125 25.203125 
L 14.890625 25.203125 
Q 15.484375 15.921875 20.484375 11.0625 
Q 25.484375 6.203125 34.421875 6.203125 
Q 39.59375 6.203125 44.453125 7.46875 
Q 49.3125 8.734375 54.109375 11.28125 
L 54.109375 2.78125 
Q 49.265625 0.734375 44.1875 -0.34375 
Q 39.109375 -1.421875 33.890625 -1.421875 
Q 20.796875 -1.421875 13.15625 6.1875 
Q 5.515625 13.8125 5.515625 26.8125 
Q 5.515625 40.234375 12.765625 48.109375 
Q 20.015625 56 32.328125 56 
Q 43.359375 56 49.78125 48.890625 
Q 56.203125 41.796875 56.203125 29.59375 
z
M 47.21875 32.234375 
Q 47.125 39.59375 43.09375 43.984375 
Q 39.0625 48.390625 32.421875 48.390625 
Q 24.90625 48.390625 20.390625 44.140625 
Q 15.875 39.890625 15.1875 32.171875 
z
" id="DejaVuSans-65"/>
      <path d="M 18.3125 70.21875 
L 18.3125 54.6875 
L 36.8125 54.6875 
L 36.8125 47.703125 
L 18.3125 47.703125 
L 18.3125 18.015625 
Q 18.3125 11.328125 20.140625 9.421875 
Q 21.96875 7.515625 27.59375 7.515625 
L 36.8125 7.515625 
L 36.8125 0 
L 27.59375 0 
Q 17.1875 0 13.234375 3.875 
Q 9.28125 7.765625 9.28125 18.015625 
L 9.28125 47.703125 
L 2.6875 47.703125 
L 2.6875 54.6875 
L 9.28125 54.6875 
L 9.28125 70.21875 
z
" id="DejaVuSans-74"/>
      <path d="M 34.28125 27.484375 
Q 23.390625 27.484375 19.1875 25 
Q 14.984375 22.515625 14.984375 16.5 
Q 14.984375 11.71875 18.140625 8.90625 
Q 21.296875 6.109375 26.703125 6.109375 
Q 34.1875 6.109375 38.703125 11.40625 
Q 43.21875 16.703125 43.21875 25.484375 
L 43.21875 27.484375 
z
M 52.203125 31.203125 
L 52.203125 0 
L 43.21875 0 
L 43.21875 8.296875 
Q 40.140625 3.328125 35.546875 0.953125 
Q 30.953125 -1.421875 24.3125 -1.421875 
Q 15.921875 -1.421875 10.953125 3.296875 
Q 6 8.015625 6 15.921875 
Q 6 25.140625 12.171875 29.828125 
Q 18.359375 34.515625 30.609375 34.515625 
L 43.21875 34.515625 
L 43.21875 35.40625 
Q 43.21875 41.609375 39.140625 45 
Q 35.0625 48.390625 27.6875 48.390625 
Q 23 48.390625 18.546875 47.265625 
Q 14.109375 46.140625 10.015625 43.890625 
L 10.015625 52.203125 
Q 14.9375 54.109375 19.578125 55.046875 
Q 24.21875 56 28.609375 56 
Q 40.484375 56 46.34375 49.84375 
Q 52.203125 43.703125 52.203125 31.203125 
z
" id="DejaVuSans-61"/>
      <path d="M 8.5 21.578125 
L 8.5 54.6875 
L 17.484375 54.6875 
L 17.484375 21.921875 
Q 17.484375 14.15625 20.5 10.265625 
Q 23.53125 6.390625 29.59375 6.390625 
Q 36.859375 6.390625 41.078125 11.03125 
Q 45.3125 15.671875 45.3125 23.6875 
L 45.3125 54.6875 
L 54.296875 54.6875 
L 54.296875 0 
L 45.3125 0 
L 45.3125 8.40625 
Q 42.046875 3.421875 37.71875 1 
Q 33.40625 -1.421875 27.6875 -1.421875 
Q 18.265625 -1.421875 13.375 4.4375 
Q 8.5 10.296875 8.5 21.578125 
z
M 31.109375 56 
z
" id="DejaVuSans-75"/>
      <path id="DejaVuSans-20"/>
      <path d="M 9.8125 72.90625 
L 19.671875 72.90625 
L 19.671875 0 
L 9.8125 0 
z
" id="DejaVuSans-49"/>
      <path d="M 54.890625 33.015625 
L 54.890625 0 
L 45.90625 0 
L 45.90625 32.71875 
Q 45.90625 40.484375 42.875 44.328125 
Q 39.84375 48.1875 33.796875 48.1875 
Q 26.515625 48.1875 22.3125 43.546875 
Q 18.109375 38.921875 18.109375 30.90625 
L 18.109375 0 
L 9.078125 0 
L 9.078125 54.6875 
L 18.109375 54.6875 
L 18.109375 46.1875 
Q 21.34375 51.125 25.703125 53.5625 
Q 30.078125 56 35.796875 56 
Q 45.21875 56 50.046875 50.171875 
Q 54.890625 44.34375 54.890625 33.015625 
z
" id="DejaVuSans-6e"/>
      <path d="M 45.40625 46.390625 
L 45.40625 75.984375 
L 54.390625 75.984375 
L 54.390625 0 
L 45.40625 0 
L 45.40625 8.203125 
Q 42.578125 3.328125 38.25 0.953125 
Q 33.9375 -1.421875 27.875 -1.421875 
Q 17.96875 -1.421875 11.734375 6.484375 
Q 5.515625 14.40625 5.515625 27.296875 
Q 5.515625 40.1875 11.734375 48.09375 
Q 17.96875 56 27.875 56 
Q 33.9375 56 38.25 53.625 
Q 42.578125 51.265625 45.40625 46.390625 
z
M 14.796875 27.296875 
Q 14.796875 17.390625 18.875 11.75 
Q 22.953125 6.109375 30.078125 6.109375 
Q 37.203125 6.109375 41.296875 11.75 
Q 45.40625 17.390625 45.40625 27.296875 
Q 45.40625 37.203125 41.296875 42.84375 
Q 37.203125 48.484375 30.078125 48.484375 
Q 22.953125 48.484375 18.875 42.84375 
Q 14.796875 37.203125 14.796875 27.296875 
z
" id="DejaVuSans-64"/>
      <path d="M 54.890625 54.6875 
L 35.109375 28.078125 
L 55.90625 0 
L 45.3125 0 
L 29.390625 21.484375 
L 13.484375 0 
L 2.875 0 
L 24.125 28.609375 
L 4.6875 54.6875 
L 15.28125 54.6875 
L 29.78125 35.203125 
L 44.28125 54.6875 
z
" id="DejaVuSans-78"/>
     </defs>
     <g style="fill:#262626;" transform="translate(276.713625 679.94665)scale(0.176 -0.176)">
      <use xlink:href="#DejaVuSans-42"/>
      <use x="68.603516" xlink:href="#DejaVuSans-72"/>
      <use x="109.685547" xlink:href="#DejaVuSans-65"/>
      <use x="171.208984" xlink:href="#DejaVuSans-74"/>
      <use x="210.417969" xlink:href="#DejaVuSans-65"/>
      <use x="271.941406" xlink:href="#DejaVuSans-61"/>
      <use x="333.220703" xlink:href="#DejaVuSans-75"/>
      <use x="396.599609" xlink:href="#DejaVuSans-20"/>
      <use x="428.386719" xlink:href="#DejaVuSans-49"/>
      <use x="457.878906" xlink:href="#DejaVuSans-6e"/>
      <use x="521.257812" xlink:href="#DejaVuSans-64"/>
      <use x="584.734375" xlink:href="#DejaVuSans-65"/>
      <use x="646.242188" xlink:href="#DejaVuSans-78"/>
     </g>
    </g>
   </g>
   <g id="matplotlib.axis_2">
    <g id="ytick_1">
     <g id="line2d_13">
      <path clip-path="url(#p59b9e96b46)" d="M 59.7935 611.179309 
L 617.7935 611.179309 
" style="fill:none;stroke:#ffffff;stroke-linecap:round;stroke-width:1.6;"/>
     </g>
     <g id="line2d_14"/>
     <g id="text_8">
      <!-- 0 -->
      <g style="fill:#262626;" transform="translate(38.4135 617.258059)scale(0.16 -0.16)">
       <use xlink:href="#DejaVuSans-30"/>
      </g>
     </g>
    </g>
    <g id="ytick_2">
     <g id="line2d_15">
      <path clip-path="url(#p59b9e96b46)" d="M 59.7935 545.2884 
L 617.7935 545.2884 
" style="fill:none;stroke:#ffffff;stroke-linecap:round;stroke-width:1.6;"/>
     </g>
     <g id="line2d_16"/>
     <g id="text_9">
      <!-- 10 -->
      <g style="fill:#262626;" transform="translate(28.2335 551.36715)scale(0.16 -0.16)">
       <use xlink:href="#DejaVuSans-31"/>
       <use x="63.623047" xlink:href="#DejaVuSans-30"/>
      </g>
     </g>
    </g>
    <g id="ytick_3">
     <g id="line2d_17">
      <path clip-path="url(#p59b9e96b46)" d="M 59.7935 479.397491 
L 617.7935 479.397491 
" style="fill:none;stroke:#ffffff;stroke-linecap:round;stroke-width:1.6;"/>
     </g>
     <g id="line2d_18"/>
     <g id="text_10">
      <!-- 20 -->
      <g style="fill:#262626;" transform="translate(28.2335 485.476241)scale(0.16 -0.16)">
       <use xlink:href="#DejaVuSans-32"/>
       <use x="63.623047" xlink:href="#DejaVuSans-30"/>
      </g>
     </g>
    </g>
    <g id="ytick_4">
     <g id="line2d_19">
      <path clip-path="url(#p59b9e96b46)" d="M 59.7935 413.506582 
L 617.7935 413.506582 
" style="fill:none;stroke:#ffffff;stroke-linecap:round;stroke-width:1.6;"/>
     </g>
     <g id="line2d_20"/>
     <g id="text_11">
      <!-- 30 -->
      <g style="fill:#262626;" transform="translate(28.2335 419.585332)scale(0.16 -0.16)">
       <use xlink:href="#DejaVuSans-33"/>
       <use x="63.623047" xlink:href="#DejaVuSans-30"/>
      </g>
     </g>
    </g>
    <g id="ytick_5">
     <g id="line2d_21">
      <path clip-path="url(#p59b9e96b46)" d="M 59.7935 347.615673 
L 617.7935 347.615673 
" style="fill:none;stroke:#ffffff;stroke-linecap:round;stroke-width:1.6;"/>
     </g>
     <g id="line2d_22"/>
     <g id="text_12">
      <!-- 40 -->
      <g style="fill:#262626;" transform="translate(28.2335 353.694423)scale(0.16 -0.16)">
       <use xlink:href="#DejaVuSans-34"/>
       <use x="63.623047" xlink:href="#DejaVuSans-30"/>
      </g>
     </g>
    </g>
    <g id="ytick_6">
     <g id="line2d_23">
      <path clip-path="url(#p59b9e96b46)" d="M 59.7935 281.724764 
L 617.7935 281.724764 
" style="fill:none;stroke:#ffffff;stroke-linecap:round;stroke-width:1.6;"/>
     </g>
     <g id="line2d_24"/>
     <g id="text_13">
      <!-- 50 -->
      <g style="fill:#262626;" transform="translate(28.2335 287.803514)scale(0.16 -0.16)">
       <use xlink:href="#DejaVuSans-35"/>
       <use x="63.623047" xlink:href="#DejaVuSans-30"/>
      </g>
     </g>
    </g>
    <g id="ytick_7">
     <g id="line2d_25">
      <path clip-path="url(#p59b9e96b46)" d="M 59.7935 215.833855 
L 617.7935 215.833855 
" style="fill:none;stroke:#ffffff;stroke-linecap:round;stroke-width:1.6;"/>
     </g>
     <g id="line2d_26"/>
     <g id="text_14">
      <!-- 60 -->
      <g style="fill:#262626;" transform="translate(28.2335 221.912605)scale(0.16 -0.16)">
       <use xlink:href="#DejaVuSans-36"/>
       <use x="63.623047" xlink:href="#DejaVuSans-30"/>
      </g>
     </g>
    </g>
    <g id="ytick_8">
     <g id="line2d_27">
      <path clip-path="url(#p59b9e96b46)" d="M 59.7935 149.942945 
L 617.7935 149.942945 
" style="fill:none;stroke:#ffffff;stroke-linecap:round;stroke-width:1.6;"/>
     </g>
     <g id="line2d_28"/>
     <g id="text_15">
      <!-- 70 -->
      <defs>
       <path d="M 8.203125 72.90625 
L 55.078125 72.90625 
L 55.078125 68.703125 
L 28.609375 0 
L 18.3125 0 
L 43.21875 64.59375 
L 8.203125 64.59375 
z
" id="DejaVuSans-37"/>
      </defs>
      <g style="fill:#262626;" transform="translate(28.2335 156.021695)scale(0.16 -0.16)">
       <use xlink:href="#DejaVuSans-37"/>
       <use x="63.623047" xlink:href="#DejaVuSans-30"/>
      </g>
     </g>
    </g>
    <g id="text_16">
     <!-- Predicted Breteau Index -->
     <defs>
      <path d="M 19.671875 64.796875 
L 19.671875 37.40625 
L 32.078125 37.40625 
Q 38.96875 37.40625 42.71875 40.96875 
Q 46.484375 44.53125 46.484375 51.125 
Q 46.484375 57.671875 42.71875 61.234375 
Q 38.96875 64.796875 32.078125 64.796875 
z
M 9.8125 72.90625 
L 32.078125 72.90625 
Q 44.34375 72.90625 50.609375 67.359375 
Q 56.890625 61.8125 56.890625 51.125 
Q 56.890625 40.328125 50.609375 34.8125 
Q 44.34375 29.296875 32.078125 29.296875 
L 19.671875 29.296875 
L 19.671875 0 
L 9.8125 0 
z
" id="DejaVuSans-50"/>
      <path d="M 9.421875 54.6875 
L 18.40625 54.6875 
L 18.40625 0 
L 9.421875 0 
z
M 9.421875 75.984375 
L 18.40625 75.984375 
L 18.40625 64.59375 
L 9.421875 64.59375 
z
" id="DejaVuSans-69"/>
      <path d="M 48.78125 52.59375 
L 48.78125 44.1875 
Q 44.96875 46.296875 41.140625 47.34375 
Q 37.3125 48.390625 33.40625 48.390625 
Q 24.65625 48.390625 19.8125 42.84375 
Q 14.984375 37.3125 14.984375 27.296875 
Q 14.984375 17.28125 19.8125 11.734375 
Q 24.65625 6.203125 33.40625 6.203125 
Q 37.3125 6.203125 41.140625 7.25 
Q 44.96875 8.296875 48.78125 10.40625 
L 48.78125 2.09375 
Q 45.015625 0.34375 40.984375 -0.53125 
Q 36.96875 -1.421875 32.421875 -1.421875 
Q 20.0625 -1.421875 12.78125 6.34375 
Q 5.515625 14.109375 5.515625 27.296875 
Q 5.515625 40.671875 12.859375 48.328125 
Q 20.21875 56 33.015625 56 
Q 37.15625 56 41.109375 55.140625 
Q 45.0625 54.296875 48.78125 52.59375 
z
" id="DejaVuSans-63"/>
     </defs>
     <g style="fill:#262626;" transform="translate(20.57325 470.62065)rotate(-90)scale(0.176 -0.176)">
      <use xlink:href="#DejaVuSans-50"/>
      <use x="60.287109" xlink:href="#DejaVuSans-72"/>
      <use x="101.369141" xlink:href="#DejaVuSans-65"/>
      <use x="162.892578" xlink:href="#DejaVuSans-64"/>
      <use x="226.369141" xlink:href="#DejaVuSans-69"/>
      <use x="254.152344" xlink:href="#DejaVuSans-63"/>
      <use x="309.132812" xlink:href="#DejaVuSans-74"/>
      <use x="348.341797" xlink:href="#DejaVuSans-65"/>
      <use x="409.865234" xlink:href="#DejaVuSans-64"/>
      <use x="473.341797" xlink:href="#DejaVuSans-20"/>
      <use x="505.128906" xlink:href="#DejaVuSans-42"/>
      <use x="573.732422" xlink:href="#DejaVuSans-72"/>
      <use x="614.814453" xlink:href="#DejaVuSans-65"/>
      <use x="676.337891" xlink:href="#DejaVuSans-74"/>
      <use x="715.546875" xlink:href="#DejaVuSans-65"/>
      <use x="777.070312" xlink:href="#DejaVuSans-61"/>
      <use x="838.349609" xlink:href="#DejaVuSans-75"/>
      <use x="901.728516" xlink:href="#DejaVuSans-20"/>
      <use x="933.515625" xlink:href="#DejaVuSans-49"/>
      <use x="963.007812" xlink:href="#DejaVuSans-6e"/>
      <use x="1026.386719" xlink:href="#DejaVuSans-64"/>
      <use x="1089.863281" xlink:href="#DejaVuSans-65"/>
      <use x="1151.371094" xlink:href="#DejaVuSans-78"/>
     </g>
    </g>
   </g>
   <g id="PathCollection_1">
    <defs>
     <path d="M 0 5.6 
C 1.485137 5.6 2.909647 5.009949 3.959798 3.959798 
C 5.009949 2.909647 5.6 1.485137 5.6 0 
C 5.6 -1.485137 5.009949 -2.909647 3.959798 -3.959798 
C 2.909647 -5.009949 1.485137 -5.6 0 -5.6 
C -1.485137 -5.6 -2.909647 -5.009949 -3.959798 -3.959798 
C -5.009949 -2.909647 -5.6 -1.485137 -5.6 0 
C -5.6 1.485137 -5.009949 2.909647 -3.959798 3.959798 
C -2.909647 5.009949 -1.485137 5.6 0 5.6 
z
" id="m18fc27c112"/>
    </defs>
    <g clip-path="url(#p59b9e96b46)">
     <use style="fill:#4c72b0;fill-opacity:0.8;" x="153.253234" xlink:href="#m18fc27c112" y="454.706156"/>
     <use style="fill:#4c72b0;fill-opacity:0.8;" x="303.124208" xlink:href="#m18fc27c112" y="536.166321"/>
     <use style="fill:#4c72b0;fill-opacity:0.8;" x="427.98814" xlink:href="#m18fc27c112" y="292.293353"/>
     <use style="fill:#4c72b0;fill-opacity:0.8;" x="142.548165" xlink:href="#m18fc27c112" y="492.003652"/>
     <use style="fill:#4c72b0;fill-opacity:0.8;" x="143.747132" xlink:href="#m18fc27c112" y="516.658042"/>
     <use style="fill:#4c72b0;fill-opacity:0.8;" x="85.425913" xlink:href="#m18fc27c112" y="523.842683"/>
     <use style="fill:#4c72b0;fill-opacity:0.8;" x="85.425913" xlink:href="#m18fc27c112" y="517.060381"/>
     <use style="fill:#4c72b0;fill-opacity:0.8;" x="85.854116" xlink:href="#m18fc27c112" y="550.986065"/>
     <use style="fill:#4c72b0;fill-opacity:0.8;" x="171.06647" xlink:href="#m18fc27c112" y="514.938401"/>
     <use style="fill:#4c72b0;fill-opacity:0.8;" x="298.499618" xlink:href="#m18fc27c112" y="475.224399"/>
     <use style="fill:#4c72b0;fill-opacity:0.8;" x="208.577034" xlink:href="#m18fc27c112" y="487.263748"/>
     <use style="fill:#4c72b0;fill-opacity:0.8;" x="294.817074" xlink:href="#m18fc27c112" y="406.126916"/>
     <use style="fill:#4c72b0;fill-opacity:0.8;" x="99.727886" xlink:href="#m18fc27c112" y="541.235188"/>
     <use style="fill:#4c72b0;fill-opacity:0.8;" x="313.829278" xlink:href="#m18fc27c112" y="356.858081"/>
     <use style="fill:#4c72b0;fill-opacity:0.8;" x="399.469834" xlink:href="#m18fc27c112" y="477.609347"/>
     <use style="fill:#4c72b0;fill-opacity:0.8;" x="303.124208" xlink:href="#m18fc27c112" y="494.533222"/>
     <use style="fill:#4c72b0;fill-opacity:0.8;" x="206.778582" xlink:href="#m18fc27c112" y="411.018977"/>
     <use style="fill:#4c72b0;fill-opacity:0.8;" x="527.930669" xlink:href="#m18fc27c112" y="285.778923"/>
     <use style="fill:#4c72b0;fill-opacity:0.8;" x="527.930669" xlink:href="#m18fc27c112" y="294.629601"/>
     <use style="fill:#4c72b0;fill-opacity:0.8;" x="142.548165" xlink:href="#m18fc27c112" y="444.895268"/>
     <use style="fill:#4c72b0;fill-opacity:0.8;" x="592.161087" xlink:href="#m18fc27c112" y="361.462941"/>
     <use style="fill:#4c72b0;fill-opacity:0.8;" x="281.714069" xlink:href="#m18fc27c112" y="500.853239"/>
     <use style="fill:#4c72b0;fill-opacity:0.8;" x="163.958304" xlink:href="#m18fc27c112" y="385.543507"/>
     <use style="fill:#4c72b0;fill-opacity:0.8;" x="176.119263" xlink:href="#m18fc27c112" y="479.704752"/>
     <use style="fill:#4c72b0;fill-opacity:0.8;" x="492.218557" xlink:href="#m18fc27c112" y="429.806162"/>
     <use style="fill:#4c72b0;fill-opacity:0.8;" x="356.649556" xlink:href="#m18fc27c112" y="446.080509"/>
     <use style="fill:#4c72b0;fill-opacity:0.8;" x="477.916584" xlink:href="#m18fc27c112" y="371.973291"/>
     <use style="fill:#4c72b0;fill-opacity:0.8;" x="399.469834" xlink:href="#m18fc27c112" y="347.949095"/>
     <use style="fill:#4c72b0;fill-opacity:0.8;" x="228.188721" xlink:href="#m18fc27c112" y="395.279208"/>
    </g>
   </g>
   <g id="PolyCollection_1">
    <path clip-path="url(#p59b9e96b46)" d="M 59.7935 494.125316 
L 59.7935 552.549659 
L 65.429864 549.6674 
L 71.066227 546.776454 
L 76.702591 543.967909 
L 82.338955 541.731366 
L 87.975318 539.047657 
L 93.611682 536.681334 
L 99.248045 534.301222 
L 104.884409 531.258478 
L 110.520773 528.739513 
L 116.157136 525.800346 
L 121.7935 523.423981 
L 127.429864 521.22019 
L 133.066227 519.016399 
L 138.702591 516.661069 
L 144.338955 513.91788 
L 149.975318 511.294682 
L 155.611682 508.895954 
L 161.248045 506.872931 
L 166.884409 504.40799 
L 172.520773 501.881388 
L 178.157136 499.490117 
L 183.7935 496.944544 
L 189.429864 494.522982 
L 195.066227 492.314497 
L 200.702591 490.427318 
L 206.338955 488.297971 
L 211.975318 485.825333 
L 217.611682 483.604661 
L 223.248045 481.637914 
L 228.884409 479.767043 
L 234.520773 477.41718 
L 240.157136 475.417488 
L 245.7935 472.946924 
L 251.429864 471.341773 
L 257.066227 468.938961 
L 262.702591 467.188259 
L 268.338955 465.703391 
L 273.975318 463.942731 
L 279.611682 462.108033 
L 285.248045 460.578189 
L 290.884409 458.910635 
L 296.520773 457.279283 
L 302.157136 455.199455 
L 307.7935 453.713421 
L 313.429864 451.85587 
L 319.066227 450.010312 
L 324.702591 448.484129 
L 330.338955 446.957947 
L 335.975318 445.431764 
L 341.611682 443.905582 
L 347.248045 442.379399 
L 352.884409 440.853217 
L 358.520773 439.367127 
L 364.157136 438.086672 
L 369.7935 436.42303 
L 375.429864 434.69286 
L 381.066227 432.827367 
L 386.702591 431.003626 
L 392.338955 429.481397 
L 397.975318 427.802248 
L 403.611682 425.932832 
L 409.248045 424.068352 
L 414.884409 422.902476 
L 420.520773 421.805233 
L 426.157136 420.617102 
L 431.7935 419.174987 
L 437.429864 417.543133 
L 443.066227 415.714582 
L 448.702591 414.271869 
L 454.338955 412.896224 
L 459.975318 411.635795 
L 465.611682 410.267739 
L 471.248045 408.795853 
L 476.884409 407.285464 
L 482.520773 405.888183 
L 488.157136 404.487169 
L 493.7935 402.877077 
L 499.429864 401.303065 
L 505.066227 400.025389 
L 510.702591 398.597621 
L 516.338955 397.048779 
L 521.975318 395.495649 
L 527.611682 393.978477 
L 533.248045 392.82108 
L 538.884409 391.663683 
L 544.520773 390.252202 
L 550.157136 388.941223 
L 555.7935 387.362584 
L 561.429864 385.917624 
L 567.066227 384.472664 
L 572.702591 383.027551 
L 578.338955 381.576835 
L 583.975318 380.126119 
L 589.611682 378.66046 
L 595.248045 377.038707 
L 600.884409 375.416953 
L 606.520773 373.795199 
L 612.157136 372.173445 
L 617.7935 370.551691 
L 617.7935 261.821124 
L 617.7935 261.821124 
L 612.157136 264.615082 
L 606.520773 267.457903 
L 600.884409 270.294763 
L 595.248045 273.132426 
L 589.611682 275.895455 
L 583.975318 278.605708 
L 578.338955 281.315962 
L 572.702591 284.026216 
L 567.066227 286.736469 
L 561.429864 289.446723 
L 555.7935 292.156977 
L 550.157136 294.867231 
L 544.520773 297.578148 
L 538.884409 300.291041 
L 533.248045 303.003933 
L 527.611682 305.702537 
L 521.975318 308.206016 
L 516.338955 310.796912 
L 510.702591 313.569569 
L 505.066227 316.236633 
L 499.429864 318.745434 
L 493.7935 321.257878 
L 488.157136 323.813142 
L 482.520773 326.405272 
L 476.884409 328.96265 
L 471.248045 331.633536 
L 465.611682 334.333622 
L 459.975318 337.409187 
L 454.338955 340.34554 
L 448.702591 342.90344 
L 443.066227 345.32958 
L 437.429864 347.756393 
L 431.7935 350.346717 
L 426.157136 353.022435 
L 420.520773 355.692222 
L 414.884409 358.12353 
L 409.248045 360.96171 
L 403.611682 363.707407 
L 397.975318 366.29939 
L 392.338955 368.737413 
L 386.702591 371.175436 
L 381.066227 373.620848 
L 375.429864 376.070012 
L 369.7935 378.519811 
L 364.157136 381.292065 
L 358.520773 383.986873 
L 352.884409 386.801092 
L 347.248045 389.385356 
L 341.611682 391.762273 
L 335.975318 394.135811 
L 330.338955 396.511989 
L 324.702591 398.891506 
L 319.066227 401.31651 
L 313.429864 403.893137 
L 307.7935 406.321815 
L 302.157136 409.051981 
L 296.520773 411.786303 
L 290.884409 414.118139 
L 285.248045 416.305844 
L 279.611682 418.88286 
L 273.975318 421.290618 
L 268.338955 423.775951 
L 262.702591 425.970072 
L 257.066227 428.097892 
L 251.429864 430.447675 
L 245.7935 432.961241 
L 240.157136 434.976889 
L 234.520773 437.364208 
L 228.884409 439.507589 
L 223.248045 441.944956 
L 217.611682 444.544331 
L 211.975318 446.622435 
L 206.338955 448.759676 
L 200.702591 450.727639 
L 195.066227 452.781105 
L 189.429864 454.797138 
L 183.7935 456.771571 
L 178.157136 458.727623 
L 172.520773 460.624296 
L 166.884409 462.776629 
L 161.248045 464.658608 
L 155.611682 466.359447 
L 149.975318 468.19448 
L 144.338955 469.724649 
L 138.702591 471.478143 
L 133.066227 473.344767 
L 127.429864 475.20981 
L 121.7935 476.841181 
L 116.157136 478.661089 
L 110.520773 480.266633 
L 104.884409 482.127036 
L 99.248045 484.068997 
L 93.611682 485.616069 
L 87.975318 487.113518 
L 82.338955 488.480537 
L 76.702591 489.975513 
L 71.066227 491.318369 
L 65.429864 492.661226 
L 59.7935 494.125316 
z
" style="fill:#4c72b0;fill-opacity:0.15;"/>
   </g>
   <g id="line2d_29">
    <path clip-path="url(#p59b9e96b46)" d="M 59.7935 523.580215 
L 65.429864 521.459639 
L 71.066227 519.339063 
L 76.702591 517.218487 
L 82.338955 515.097911 
L 87.975318 512.977335 
L 93.611682 510.856759 
L 99.248045 508.736183 
L 104.884409 506.615607 
L 110.520773 504.495031 
L 116.157136 502.374455 
L 121.7935 500.253879 
L 127.429864 498.133303 
L 133.066227 496.012727 
L 138.702591 493.892151 
L 144.338955 491.771575 
L 149.975318 489.650999 
L 155.611682 487.530422 
L 161.248045 485.409846 
L 166.884409 483.28927 
L 172.520773 481.168694 
L 178.157136 479.048118 
L 183.7935 476.927542 
L 189.429864 474.806966 
L 195.066227 472.68639 
L 200.702591 470.565814 
L 206.338955 468.445238 
L 211.975318 466.324662 
L 217.611682 464.204086 
L 223.248045 462.08351 
L 228.884409 459.962934 
L 234.520773 457.842358 
L 240.157136 455.721782 
L 245.7935 453.601206 
L 251.429864 451.48063 
L 257.066227 449.360054 
L 262.702591 447.239478 
L 268.338955 445.118902 
L 273.975318 442.998326 
L 279.611682 440.87775 
L 285.248045 438.757174 
L 290.884409 436.636598 
L 296.520773 434.516022 
L 302.157136 432.395446 
L 307.7935 430.27487 
L 313.429864 428.154294 
L 319.066227 426.033718 
L 324.702591 423.913142 
L 330.338955 421.792566 
L 335.975318 419.67199 
L 341.611682 417.551414 
L 347.248045 415.430838 
L 352.884409 413.310262 
L 358.520773 411.189686 
L 364.157136 409.06911 
L 369.7935 406.948534 
L 375.429864 404.827958 
L 381.066227 402.707382 
L 386.702591 400.586805 
L 392.338955 398.466229 
L 397.975318 396.345653 
L 403.611682 394.225077 
L 409.248045 392.104501 
L 414.884409 389.983925 
L 420.520773 387.863349 
L 426.157136 385.742773 
L 431.7935 383.622197 
L 437.429864 381.501621 
L 443.066227 379.381045 
L 448.702591 377.260469 
L 454.338955 375.139893 
L 459.975318 373.019317 
L 465.611682 370.898741 
L 471.248045 368.778165 
L 476.884409 366.657589 
L 482.520773 364.537013 
L 488.157136 362.416437 
L 493.7935 360.295861 
L 499.429864 358.175285 
L 505.066227 356.054709 
L 510.702591 353.934133 
L 516.338955 351.813557 
L 521.975318 349.692981 
L 527.611682 347.572405 
L 533.248045 345.451829 
L 538.884409 343.331253 
L 544.520773 341.210677 
L 550.157136 339.090101 
L 555.7935 336.969525 
L 561.429864 334.848949 
L 567.066227 332.728373 
L 572.702591 330.607797 
L 578.338955 328.487221 
L 583.975318 326.366645 
L 589.611682 324.246069 
L 595.248045 322.125493 
L 600.884409 320.004917 
L 606.520773 317.884341 
L 612.157136 315.763764 
L 617.7935 313.643188 
" style="fill:none;stroke:#4c72b0;stroke-linecap:round;stroke-width:4.2;"/>
   </g>
   <g id="line2d_30">
    <path clip-path="url(#p59b9e96b46)" d="M 35.497469 611.179309 
L 625.9935 156.85811 
" style="fill:none;stroke:#808080;stroke-dasharray:11.1,4.8;stroke-dashoffset:0;stroke-width:3;"/>
   </g>
   <g id="patch_3">
    <path d="M 59.7935 635.8884 
L 59.7935 92.2884 
" style="fill:none;"/>
   </g>
   <g id="patch_4">
    <path d="M 617.7935 635.8884 
L 617.7935 92.2884 
" style="fill:none;"/>
   </g>
   <g id="patch_5">
    <path d="M 59.7935 635.8884 
L 617.7935 635.8884 
" style="fill:none;"/>
   </g>
   <g id="patch_6">
    <path d="M 59.7935 92.2884 
L 617.7935 92.2884 
" style="fill:none;"/>
   </g>
   <g id="text_17">
    <!-- Dengue season (29 data points), Gradient Boosting -->
    <defs>
     <path d="M 19.671875 64.796875 
L 19.671875 8.109375 
L 31.59375 8.109375 
Q 46.6875 8.109375 53.6875 14.9375 
Q 60.6875 21.78125 60.6875 36.53125 
Q 60.6875 51.171875 53.6875 57.984375 
Q 46.6875 64.796875 31.59375 64.796875 
z
M 9.8125 72.90625 
L 30.078125 72.90625 
Q 51.265625 72.90625 61.171875 64.09375 
Q 71.09375 55.28125 71.09375 36.53125 
Q 71.09375 17.671875 61.125 8.828125 
Q 51.171875 0 30.078125 0 
L 9.8125 0 
z
" id="DejaVuSans-44"/>
     <path d="M 45.40625 27.984375 
Q 45.40625 37.75 41.375 43.109375 
Q 37.359375 48.484375 30.078125 48.484375 
Q 22.859375 48.484375 18.828125 43.109375 
Q 14.796875 37.75 14.796875 27.984375 
Q 14.796875 18.265625 18.828125 12.890625 
Q 22.859375 7.515625 30.078125 7.515625 
Q 37.359375 7.515625 41.375 12.890625 
Q 45.40625 18.265625 45.40625 27.984375 
z
M 54.390625 6.78125 
Q 54.390625 -7.171875 48.1875 -13.984375 
Q 42 -20.796875 29.203125 -20.796875 
Q 24.46875 -20.796875 20.265625 -20.09375 
Q 16.0625 -19.390625 12.109375 -17.921875 
L 12.109375 -9.1875 
Q 16.0625 -11.328125 19.921875 -12.34375 
Q 23.78125 -13.375 27.78125 -13.375 
Q 36.625 -13.375 41.015625 -8.765625 
Q 45.40625 -4.15625 45.40625 5.171875 
L 45.40625 9.625 
Q 42.625 4.78125 38.28125 2.390625 
Q 33.9375 0 27.875 0 
Q 17.828125 0 11.671875 7.65625 
Q 5.515625 15.328125 5.515625 27.984375 
Q 5.515625 40.671875 11.671875 48.328125 
Q 17.828125 56 27.875 56 
Q 33.9375 56 38.28125 53.609375 
Q 42.625 51.21875 45.40625 46.390625 
L 45.40625 54.6875 
L 54.390625 54.6875 
z
" id="DejaVuSans-67"/>
     <path d="M 44.28125 53.078125 
L 44.28125 44.578125 
Q 40.484375 46.53125 36.375 47.5 
Q 32.28125 48.484375 27.875 48.484375 
Q 21.1875 48.484375 17.84375 46.4375 
Q 14.5 44.390625 14.5 40.28125 
Q 14.5 37.15625 16.890625 35.375 
Q 19.28125 33.59375 26.515625 31.984375 
L 29.59375 31.296875 
Q 39.15625 29.25 43.1875 25.515625 
Q 47.21875 21.78125 47.21875 15.09375 
Q 47.21875 7.46875 41.1875 3.015625 
Q 35.15625 -1.421875 24.609375 -1.421875 
Q 20.21875 -1.421875 15.453125 -0.5625 
Q 10.6875 0.296875 5.421875 2 
L 5.421875 11.28125 
Q 10.40625 8.6875 15.234375 7.390625 
Q 20.0625 6.109375 24.8125 6.109375 
Q 31.15625 6.109375 34.5625 8.28125 
Q 37.984375 10.453125 37.984375 14.40625 
Q 37.984375 18.0625 35.515625 20.015625 
Q 33.0625 21.96875 24.703125 23.78125 
L 21.578125 24.515625 
Q 13.234375 26.265625 9.515625 29.90625 
Q 5.8125 33.546875 5.8125 39.890625 
Q 5.8125 47.609375 11.28125 51.796875 
Q 16.75 56 26.8125 56 
Q 31.78125 56 36.171875 55.265625 
Q 40.578125 54.546875 44.28125 53.078125 
z
" id="DejaVuSans-73"/>
     <path d="M 30.609375 48.390625 
Q 23.390625 48.390625 19.1875 42.75 
Q 14.984375 37.109375 14.984375 27.296875 
Q 14.984375 17.484375 19.15625 11.84375 
Q 23.34375 6.203125 30.609375 6.203125 
Q 37.796875 6.203125 41.984375 11.859375 
Q 46.1875 17.53125 46.1875 27.296875 
Q 46.1875 37.015625 41.984375 42.703125 
Q 37.796875 48.390625 30.609375 48.390625 
z
M 30.609375 56 
Q 42.328125 56 49.015625 48.375 
Q 55.71875 40.765625 55.71875 27.296875 
Q 55.71875 13.875 49.015625 6.21875 
Q 42.328125 -1.421875 30.609375 -1.421875 
Q 18.84375 -1.421875 12.171875 6.21875 
Q 5.515625 13.875 5.515625 27.296875 
Q 5.515625 40.765625 12.171875 48.375 
Q 18.84375 56 30.609375 56 
z
" id="DejaVuSans-6f"/>
     <path d="M 31 75.875 
Q 24.46875 64.65625 21.28125 53.65625 
Q 18.109375 42.671875 18.109375 31.390625 
Q 18.109375 20.125 21.3125 9.0625 
Q 24.515625 -2 31 -13.1875 
L 23.1875 -13.1875 
Q 15.875 -1.703125 12.234375 9.375 
Q 8.59375 20.453125 8.59375 31.390625 
Q 8.59375 42.28125 12.203125 53.3125 
Q 15.828125 64.359375 23.1875 75.875 
z
" id="DejaVuSans-28"/>
     <path d="M 10.984375 1.515625 
L 10.984375 10.5 
Q 14.703125 8.734375 18.5 7.8125 
Q 22.3125 6.890625 25.984375 6.890625 
Q 35.75 6.890625 40.890625 13.453125 
Q 46.046875 20.015625 46.78125 33.40625 
Q 43.953125 29.203125 39.59375 26.953125 
Q 35.25 24.703125 29.984375 24.703125 
Q 19.046875 24.703125 12.671875 31.3125 
Q 6.296875 37.9375 6.296875 49.421875 
Q 6.296875 60.640625 12.9375 67.421875 
Q 19.578125 74.21875 30.609375 74.21875 
Q 43.265625 74.21875 49.921875 64.515625 
Q 56.59375 54.828125 56.59375 36.375 
Q 56.59375 19.140625 48.40625 8.859375 
Q 40.234375 -1.421875 26.421875 -1.421875 
Q 22.703125 -1.421875 18.890625 -0.6875 
Q 15.09375 0.046875 10.984375 1.515625 
z
M 30.609375 32.421875 
Q 37.25 32.421875 41.125 36.953125 
Q 45.015625 41.5 45.015625 49.421875 
Q 45.015625 57.28125 41.125 61.84375 
Q 37.25 66.40625 30.609375 66.40625 
Q 23.96875 66.40625 20.09375 61.84375 
Q 16.21875 57.28125 16.21875 49.421875 
Q 16.21875 41.5 20.09375 36.953125 
Q 23.96875 32.421875 30.609375 32.421875 
z
" id="DejaVuSans-39"/>
     <path d="M 18.109375 8.203125 
L 18.109375 -20.796875 
L 9.078125 -20.796875 
L 9.078125 54.6875 
L 18.109375 54.6875 
L 18.109375 46.390625 
Q 20.953125 51.265625 25.265625 53.625 
Q 29.59375 56 35.59375 56 
Q 45.5625 56 51.78125 48.09375 
Q 58.015625 40.1875 58.015625 27.296875 
Q 58.015625 14.40625 51.78125 6.484375 
Q 45.5625 -1.421875 35.59375 -1.421875 
Q 29.59375 -1.421875 25.265625 0.953125 
Q 20.953125 3.328125 18.109375 8.203125 
z
M 48.6875 27.296875 
Q 48.6875 37.203125 44.609375 42.84375 
Q 40.53125 48.484375 33.40625 48.484375 
Q 26.265625 48.484375 22.1875 42.84375 
Q 18.109375 37.203125 18.109375 27.296875 
Q 18.109375 17.390625 22.1875 11.75 
Q 26.265625 6.109375 33.40625 6.109375 
Q 40.53125 6.109375 44.609375 11.75 
Q 48.6875 17.390625 48.6875 27.296875 
z
" id="DejaVuSans-70"/>
     <path d="M 8.015625 75.875 
L 15.828125 75.875 
Q 23.140625 64.359375 26.78125 53.3125 
Q 30.421875 42.28125 30.421875 31.390625 
Q 30.421875 20.453125 26.78125 9.375 
Q 23.140625 -1.703125 15.828125 -13.1875 
L 8.015625 -13.1875 
Q 14.5 -2 17.703125 9.0625 
Q 20.90625 20.125 20.90625 31.390625 
Q 20.90625 42.671875 17.703125 53.65625 
Q 14.5 64.65625 8.015625 75.875 
z
" id="DejaVuSans-29"/>
     <path d="M 11.71875 12.40625 
L 22.015625 12.40625 
L 22.015625 4 
L 14.015625 -11.625 
L 7.71875 -11.625 
L 11.71875 4 
z
" id="DejaVuSans-2c"/>
     <path d="M 59.515625 10.40625 
L 59.515625 29.984375 
L 43.40625 29.984375 
L 43.40625 38.09375 
L 69.28125 38.09375 
L 69.28125 6.78125 
Q 63.578125 2.734375 56.6875 0.65625 
Q 49.8125 -1.421875 42 -1.421875 
Q 24.90625 -1.421875 15.25 8.5625 
Q 5.609375 18.5625 5.609375 36.375 
Q 5.609375 54.25 15.25 64.234375 
Q 24.90625 74.21875 42 74.21875 
Q 49.125 74.21875 55.546875 72.453125 
Q 61.96875 70.703125 67.390625 67.28125 
L 67.390625 56.78125 
Q 61.921875 61.421875 55.765625 63.765625 
Q 49.609375 66.109375 42.828125 66.109375 
Q 29.4375 66.109375 22.71875 58.640625 
Q 16.015625 51.171875 16.015625 36.375 
Q 16.015625 21.625 22.71875 14.15625 
Q 29.4375 6.6875 42.828125 6.6875 
Q 48.046875 6.6875 52.140625 7.59375 
Q 56.25 8.5 59.515625 10.40625 
z
" id="DejaVuSans-47"/>
    </defs>
    <g style="fill:#262626;" transform="translate(91.6745 21.789)scale(0.192 -0.192)">
     <use xlink:href="#DejaVuSans-44"/>
     <use x="77.001953" xlink:href="#DejaVuSans-65"/>
     <use x="138.525391" xlink:href="#DejaVuSans-6e"/>
     <use x="201.904297" xlink:href="#DejaVuSans-67"/>
     <use x="265.380859" xlink:href="#DejaVuSans-75"/>
     <use x="328.759766" xlink:href="#DejaVuSans-65"/>
     <use x="390.283203" xlink:href="#DejaVuSans-20"/>
     <use x="422.070312" xlink:href="#DejaVuSans-73"/>
     <use x="474.169922" xlink:href="#DejaVuSans-65"/>
     <use x="535.693359" xlink:href="#DejaVuSans-61"/>
     <use x="596.972656" xlink:href="#DejaVuSans-73"/>
     <use x="649.072266" xlink:href="#DejaVuSans-6f"/>
     <use x="710.253906" xlink:href="#DejaVuSans-6e"/>
     <use x="773.632812" xlink:href="#DejaVuSans-20"/>
     <use x="805.419922" xlink:href="#DejaVuSans-28"/>
     <use x="844.433594" xlink:href="#DejaVuSans-32"/>
     <use x="908.056641" xlink:href="#DejaVuSans-39"/>
     <use x="971.679688" xlink:href="#DejaVuSans-20"/>
     <use x="1003.466797" xlink:href="#DejaVuSans-64"/>
     <use x="1066.943359" xlink:href="#DejaVuSans-61"/>
     <use x="1128.222656" xlink:href="#DejaVuSans-74"/>
     <use x="1167.431641" xlink:href="#DejaVuSans-61"/>
     <use x="1228.710938" xlink:href="#DejaVuSans-20"/>
     <use x="1260.498047" xlink:href="#DejaVuSans-70"/>
     <use x="1323.974609" xlink:href="#DejaVuSans-6f"/>
     <use x="1385.15625" xlink:href="#DejaVuSans-69"/>
     <use x="1412.939453" xlink:href="#DejaVuSans-6e"/>
     <use x="1476.318359" xlink:href="#DejaVuSans-74"/>
     <use x="1515.527344" xlink:href="#DejaVuSans-73"/>
     <use x="1567.626953" xlink:href="#DejaVuSans-29"/>
     <use x="1606.640625" xlink:href="#DejaVuSans-2c"/>
     <use x="1638.427734" xlink:href="#DejaVuSans-20"/>
     <use x="1670.214844" xlink:href="#DejaVuSans-47"/>
     <use x="1747.705078" xlink:href="#DejaVuSans-72"/>
     <use x="1788.818359" xlink:href="#DejaVuSans-61"/>
     <use x="1850.097656" xlink:href="#DejaVuSans-64"/>
     <use x="1913.574219" xlink:href="#DejaVuSans-69"/>
     <use x="1941.357422" xlink:href="#DejaVuSans-65"/>
     <use x="2002.880859" xlink:href="#DejaVuSans-6e"/>
     <use x="2066.259766" xlink:href="#DejaVuSans-74"/>
     <use x="2105.46875" xlink:href="#DejaVuSans-20"/>
     <use x="2137.255859" xlink:href="#DejaVuSans-42"/>
     <use x="2205.859375" xlink:href="#DejaVuSans-6f"/>
     <use x="2267.041016" xlink:href="#DejaVuSans-6f"/>
     <use x="2328.222656" xlink:href="#DejaVuSans-73"/>
     <use x="2380.322266" xlink:href="#DejaVuSans-74"/>
     <use x="2419.53125" xlink:href="#DejaVuSans-69"/>
     <use x="2447.314453" xlink:href="#DejaVuSans-6e"/>
     <use x="2510.693359" xlink:href="#DejaVuSans-67"/>
    </g>
    <!-- R-squared: 0.4937 -->
    <defs>
     <path d="M 44.390625 34.1875 
Q 47.5625 33.109375 50.5625 29.59375 
Q 53.5625 26.078125 56.59375 19.921875 
L 66.609375 0 
L 56 0 
L 46.6875 18.703125 
Q 43.0625 26.03125 39.671875 28.421875 
Q 36.28125 30.8125 30.421875 30.8125 
L 19.671875 30.8125 
L 19.671875 0 
L 9.8125 0 
L 9.8125 72.90625 
L 32.078125 72.90625 
Q 44.578125 72.90625 50.734375 67.671875 
Q 56.890625 62.453125 56.890625 51.90625 
Q 56.890625 45.015625 53.6875 40.46875 
Q 50.484375 35.9375 44.390625 34.1875 
z
M 19.671875 64.796875 
L 19.671875 38.921875 
L 32.078125 38.921875 
Q 39.203125 38.921875 42.84375 42.21875 
Q 46.484375 45.515625 46.484375 51.90625 
Q 46.484375 58.296875 42.84375 61.546875 
Q 39.203125 64.796875 32.078125 64.796875 
z
" id="DejaVuSans-52"/>
     <path d="M 4.890625 31.390625 
L 31.203125 31.390625 
L 31.203125 23.390625 
L 4.890625 23.390625 
z
" id="DejaVuSans-2d"/>
     <path d="M 14.796875 27.296875 
Q 14.796875 17.390625 18.875 11.75 
Q 22.953125 6.109375 30.078125 6.109375 
Q 37.203125 6.109375 41.296875 11.75 
Q 45.40625 17.390625 45.40625 27.296875 
Q 45.40625 37.203125 41.296875 42.84375 
Q 37.203125 48.484375 30.078125 48.484375 
Q 22.953125 48.484375 18.875 42.84375 
Q 14.796875 37.203125 14.796875 27.296875 
z
M 45.40625 8.203125 
Q 42.578125 3.328125 38.25 0.953125 
Q 33.9375 -1.421875 27.875 -1.421875 
Q 17.96875 -1.421875 11.734375 6.484375 
Q 5.515625 14.40625 5.515625 27.296875 
Q 5.515625 40.1875 11.734375 48.09375 
Q 17.96875 56 27.875 56 
Q 33.9375 56 38.25 53.625 
Q 42.578125 51.265625 45.40625 46.390625 
L 45.40625 54.6875 
L 54.390625 54.6875 
L 54.390625 -20.796875 
L 45.40625 -20.796875 
z
" id="DejaVuSans-71"/>
     <path d="M 11.71875 12.40625 
L 22.015625 12.40625 
L 22.015625 0 
L 11.71875 0 
z
M 11.71875 51.703125 
L 22.015625 51.703125 
L 22.015625 39.3125 
L 11.71875 39.3125 
z
" id="DejaVuSans-3a"/>
     <path d="M 10.6875 12.40625 
L 21 12.40625 
L 21 0 
L 10.6875 0 
z
" id="DejaVuSans-2e"/>
    </defs>
    <g style="fill:#262626;" transform="translate(249.782 43.2888)scale(0.192 -0.192)">
     <use xlink:href="#DejaVuSans-52"/>
     <use x="69.419922" xlink:href="#DejaVuSans-2d"/>
     <use x="105.503906" xlink:href="#DejaVuSans-73"/>
     <use x="157.603516" xlink:href="#DejaVuSans-71"/>
     <use x="221.080078" xlink:href="#DejaVuSans-75"/>
     <use x="284.458984" xlink:href="#DejaVuSans-61"/>
     <use x="345.738281" xlink:href="#DejaVuSans-72"/>
     <use x="386.820312" xlink:href="#DejaVuSans-65"/>
     <use x="448.34375" xlink:href="#DejaVuSans-64"/>
     <use x="511.820312" xlink:href="#DejaVuSans-3a"/>
     <use x="545.511719" xlink:href="#DejaVuSans-20"/>
     <use x="577.298828" xlink:href="#DejaVuSans-30"/>
     <use x="640.921875" xlink:href="#DejaVuSans-2e"/>
     <use x="672.708984" xlink:href="#DejaVuSans-34"/>
     <use x="736.332031" xlink:href="#DejaVuSans-39"/>
     <use x="799.955078" xlink:href="#DejaVuSans-33"/>
     <use x="863.578125" xlink:href="#DejaVuSans-37"/>
    </g>
    <!-- Pearson: 0.7201, p-value: 0.0 -->
    <defs>
     <path d="M 2.984375 54.6875 
L 12.5 54.6875 
L 29.59375 8.796875 
L 46.6875 54.6875 
L 56.203125 54.6875 
L 35.6875 0 
L 23.484375 0 
z
" id="DejaVuSans-76"/>
     <path d="M 9.421875 75.984375 
L 18.40625 75.984375 
L 18.40625 0 
L 9.421875 0 
z
" id="DejaVuSans-6c"/>
    </defs>
    <g style="fill:#262626;" transform="translate(197.006 64.7886)scale(0.192 -0.192)">
     <use xlink:href="#DejaVuSans-50"/>
     <use x="60.255859" xlink:href="#DejaVuSans-65"/>
     <use x="121.779297" xlink:href="#DejaVuSans-61"/>
     <use x="183.058594" xlink:href="#DejaVuSans-72"/>
     <use x="224.171875" xlink:href="#DejaVuSans-73"/>
     <use x="276.271484" xlink:href="#DejaVuSans-6f"/>
     <use x="337.453125" xlink:href="#DejaVuSans-6e"/>
     <use x="400.832031" xlink:href="#DejaVuSans-3a"/>
     <use x="434.523438" xlink:href="#DejaVuSans-20"/>
     <use x="466.310547" xlink:href="#DejaVuSans-30"/>
     <use x="529.933594" xlink:href="#DejaVuSans-2e"/>
     <use x="561.720703" xlink:href="#DejaVuSans-37"/>
     <use x="625.34375" xlink:href="#DejaVuSans-32"/>
     <use x="688.966797" xlink:href="#DejaVuSans-30"/>
     <use x="752.589844" xlink:href="#DejaVuSans-31"/>
     <use x="816.212891" xlink:href="#DejaVuSans-2c"/>
     <use x="848" xlink:href="#DejaVuSans-20"/>
     <use x="879.787109" xlink:href="#DejaVuSans-70"/>
     <use x="943.263672" xlink:href="#DejaVuSans-2d"/>
     <use x="979.316406" xlink:href="#DejaVuSans-76"/>
     <use x="1038.496094" xlink:href="#DejaVuSans-61"/>
     <use x="1099.775391" xlink:href="#DejaVuSans-6c"/>
     <use x="1127.558594" xlink:href="#DejaVuSans-75"/>
     <use x="1190.9375" xlink:href="#DejaVuSans-65"/>
     <use x="1252.460938" xlink:href="#DejaVuSans-3a"/>
     <use x="1286.152344" xlink:href="#DejaVuSans-20"/>
     <use x="1317.939453" xlink:href="#DejaVuSans-30"/>
     <use x="1381.5625" xlink:href="#DejaVuSans-2e"/>
     <use x="1413.349609" xlink:href="#DejaVuSans-30"/>
    </g>
    <!-- Spearman: 0.7096, p-value: 0.0 -->
    <defs>
     <path d="M 53.515625 70.515625 
L 53.515625 60.890625 
Q 47.90625 63.578125 42.921875 64.890625 
Q 37.9375 66.21875 33.296875 66.21875 
Q 25.25 66.21875 20.875 63.09375 
Q 16.5 59.96875 16.5 54.203125 
Q 16.5 49.359375 19.40625 46.890625 
Q 22.3125 44.4375 30.421875 42.921875 
L 36.375 41.703125 
Q 47.40625 39.59375 52.65625 34.296875 
Q 57.90625 29 57.90625 20.125 
Q 57.90625 9.515625 50.796875 4.046875 
Q 43.703125 -1.421875 29.984375 -1.421875 
Q 24.8125 -1.421875 18.96875 -0.25 
Q 13.140625 0.921875 6.890625 3.21875 
L 6.890625 13.375 
Q 12.890625 10.015625 18.65625 8.296875 
Q 24.421875 6.59375 29.984375 6.59375 
Q 38.421875 6.59375 43.015625 9.90625 
Q 47.609375 13.234375 47.609375 19.390625 
Q 47.609375 24.75 44.3125 27.78125 
Q 41.015625 30.8125 33.5 32.328125 
L 27.484375 33.5 
Q 16.453125 35.6875 11.515625 40.375 
Q 6.59375 45.0625 6.59375 53.421875 
Q 6.59375 63.09375 13.40625 68.65625 
Q 20.21875 74.21875 32.171875 74.21875 
Q 37.3125 74.21875 42.625 73.28125 
Q 47.953125 72.359375 53.515625 70.515625 
z
" id="DejaVuSans-53"/>
     <path d="M 52 44.1875 
Q 55.375 50.25 60.0625 53.125 
Q 64.75 56 71.09375 56 
Q 79.640625 56 84.28125 50.015625 
Q 88.921875 44.046875 88.921875 33.015625 
L 88.921875 0 
L 79.890625 0 
L 79.890625 32.71875 
Q 79.890625 40.578125 77.09375 44.375 
Q 74.3125 48.1875 68.609375 48.1875 
Q 61.625 48.1875 57.5625 43.546875 
Q 53.515625 38.921875 53.515625 30.90625 
L 53.515625 0 
L 44.484375 0 
L 44.484375 32.71875 
Q 44.484375 40.625 41.703125 44.40625 
Q 38.921875 48.1875 33.109375 48.1875 
Q 26.21875 48.1875 22.15625 43.53125 
Q 18.109375 38.875 18.109375 30.90625 
L 18.109375 0 
L 9.078125 0 
L 9.078125 54.6875 
L 18.109375 54.6875 
L 18.109375 46.1875 
Q 21.1875 51.21875 25.484375 53.609375 
Q 29.78125 56 35.6875 56 
Q 41.65625 56 45.828125 52.96875 
Q 50 49.953125 52 44.1875 
z
" id="DejaVuSans-6d"/>
    </defs>
    <g style="fill:#262626;" transform="translate(186.2435 86.2884)scale(0.192 -0.192)">
     <use xlink:href="#DejaVuSans-53"/>
     <use x="63.476562" xlink:href="#DejaVuSans-70"/>
     <use x="126.953125" xlink:href="#DejaVuSans-65"/>
     <use x="188.476562" xlink:href="#DejaVuSans-61"/>
     <use x="249.755859" xlink:href="#DejaVuSans-72"/>
     <use x="290.853516" xlink:href="#DejaVuSans-6d"/>
     <use x="388.265625" xlink:href="#DejaVuSans-61"/>
     <use x="449.544922" xlink:href="#DejaVuSans-6e"/>
     <use x="512.923828" xlink:href="#DejaVuSans-3a"/>
     <use x="546.615234" xlink:href="#DejaVuSans-20"/>
     <use x="578.402344" xlink:href="#DejaVuSans-30"/>
     <use x="642.025391" xlink:href="#DejaVuSans-2e"/>
     <use x="673.8125" xlink:href="#DejaVuSans-37"/>
     <use x="737.435547" xlink:href="#DejaVuSans-30"/>
     <use x="801.058594" xlink:href="#DejaVuSans-39"/>
     <use x="864.681641" xlink:href="#DejaVuSans-36"/>
     <use x="928.304688" xlink:href="#DejaVuSans-2c"/>
     <use x="960.091797" xlink:href="#DejaVuSans-20"/>
     <use x="991.878906" xlink:href="#DejaVuSans-70"/>
     <use x="1055.355469" xlink:href="#DejaVuSans-2d"/>
     <use x="1091.408203" xlink:href="#DejaVuSans-76"/>
     <use x="1150.587891" xlink:href="#DejaVuSans-61"/>
     <use x="1211.867188" xlink:href="#DejaVuSans-6c"/>
     <use x="1239.650391" xlink:href="#DejaVuSans-75"/>
     <use x="1303.029297" xlink:href="#DejaVuSans-65"/>
     <use x="1364.552734" xlink:href="#DejaVuSans-3a"/>
     <use x="1398.244141" xlink:href="#DejaVuSans-20"/>
     <use x="1430.03125" xlink:href="#DejaVuSans-30"/>
     <use x="1493.654297" xlink:href="#DejaVuSans-2e"/>
     <use x="1525.441406" xlink:href="#DejaVuSans-30"/>
    </g>
   </g>
  </g>
 </g>
 <defs>
  <clipPath id="p59b9e96b46">
   <rect height="543.6" width="558" x="59.7935" y="92.2884"/>
  </clipPath>
 </defs>
</svg>
