<?xml version="1.0" encoding="utf-8" standalone="no"?>
<!DOCTYPE svg PUBLIC "-//W3C//DTD SVG 1.1//EN"
  "http://www.w3.org/Graphics/SVG/1.1/DTD/svg11.dtd">
<!-- Created with matplotlib (http://matplotlib.org/) -->
<svg height="612pt" version="1.1" viewBox="0 0 667 612" width="667pt" xmlns="http://www.w3.org/2000/svg" xmlns:xlink="http://www.w3.org/1999/xlink">
 <defs>
  <style type="text/css">
*{stroke-linecap:butt;stroke-linejoin:round;}
  </style>
 </defs>
 <g id="figure_1">
  <g id="patch_1">
   <path d="M 0 612.0351 
L 667.843567 612.0351 
L 667.843567 0 
L 0 0 
z
" style="fill:#ffffff;"/>
  </g>
  <g id="axes_1">
   <g id="patch_2">
    <path d="M 64.8785 557.1166 
L 536.911317 557.1166 
L 536.911317 70.7886 
L 64.8785 70.7886 
z
" style="fill:#eaeaf2;"/>
   </g>
   <g id="matplotlib.axis_1">
    <g id="xtick_1">
     <g id="line2d_1">
      <path clip-path="url(#p6805b30992)" d="M 86.202085 557.1166 
L 86.202085 70.7886 
" style="fill:none;stroke:#ffffff;stroke-linecap:round;stroke-width:1.6;"/>
     </g>
     <g id="line2d_2"/>
     <g id="text_1">
      <!-- 0 -->
      <defs>
       <path d="M 31.78125 66.40625 
Q 24.171875 66.40625 20.328125 58.90625 
Q 16.5 51.421875 16.5 36.375 
Q 16.5 21.390625 20.328125 13.890625 
Q 24.171875 6.390625 31.78125 6.390625 
Q 39.453125 6.390625 43.28125 13.890625 
Q 47.125 21.390625 47.125 36.375 
Q 47.125 51.421875 43.28125 58.90625 
Q 39.453125 66.40625 31.78125 66.40625 
z
M 31.78125 74.21875 
Q 44.046875 74.21875 50.515625 64.515625 
Q 56.984375 54.828125 56.984375 36.375 
Q 56.984375 17.96875 50.515625 8.265625 
Q 44.046875 -1.421875 31.78125 -1.421875 
Q 19.53125 -1.421875 13.0625 8.265625 
Q 6.59375 17.96875 6.59375 36.375 
Q 6.59375 54.828125 13.0625 64.515625 
Q 19.53125 74.21875 31.78125 74.21875 
z
" id="DejaVuSans-30"/>
      </defs>
      <g style="fill:#262626;" transform="translate(81.112085 580.4741)scale(0.16 -0.16)">
       <use xlink:href="#DejaVuSans-30"/>
      </g>
     </g>
    </g>
    <g id="xtick_2">
     <g id="line2d_3">
      <path clip-path="url(#p6805b30992)" d="M 141.149585 557.1166 
L 141.149585 70.7886 
" style="fill:none;stroke:#ffffff;stroke-linecap:round;stroke-width:1.6;"/>
     </g>
     <g id="line2d_4"/>
     <g id="text_2">
      <!-- 20 -->
      <defs>
       <path d="M 19.1875 8.296875 
L 53.609375 8.296875 
L 53.609375 0 
L 7.328125 0 
L 7.328125 8.296875 
Q 12.9375 14.109375 22.625 23.890625 
Q 32.328125 33.6875 34.8125 36.53125 
Q 39.546875 41.84375 41.421875 45.53125 
Q 43.3125 49.21875 43.3125 52.78125 
Q 43.3125 58.59375 39.234375 62.25 
Q 35.15625 65.921875 28.609375 65.921875 
Q 23.96875 65.921875 18.8125 64.3125 
Q 13.671875 62.703125 7.8125 59.421875 
L 7.8125 69.390625 
Q 13.765625 71.78125 18.9375 73 
Q 24.125 74.21875 28.421875 74.21875 
Q 39.75 74.21875 46.484375 68.546875 
Q 53.21875 62.890625 53.21875 53.421875 
Q 53.21875 48.921875 51.53125 44.890625 
Q 49.859375 40.875 45.40625 35.40625 
Q 44.1875 33.984375 37.640625 27.21875 
Q 31.109375 20.453125 19.1875 8.296875 
z
" id="DejaVuSans-32"/>
      </defs>
      <g style="fill:#262626;" transform="translate(130.969585 580.4741)scale(0.16 -0.16)">
       <use xlink:href="#DejaVuSans-32"/>
       <use x="63.623047" xlink:href="#DejaVuSans-30"/>
      </g>
     </g>
    </g>
    <g id="xtick_3">
     <g id="line2d_5">
      <path clip-path="url(#p6805b30992)" d="M 196.097085 557.1166 
L 196.097085 70.7886 
" style="fill:none;stroke:#ffffff;stroke-linecap:round;stroke-width:1.6;"/>
     </g>
     <g id="line2d_6"/>
     <g id="text_3">
      <!-- 40 -->
      <defs>
       <path d="M 37.796875 64.3125 
L 12.890625 25.390625 
L 37.796875 25.390625 
z
M 35.203125 72.90625 
L 47.609375 72.90625 
L 47.609375 25.390625 
L 58.015625 25.390625 
L 58.015625 17.1875 
L 47.609375 17.1875 
L 47.609375 0 
L 37.796875 0 
L 37.796875 17.1875 
L 4.890625 17.1875 
L 4.890625 26.703125 
z
" id="DejaVuSans-34"/>
      </defs>
      <g style="fill:#262626;" transform="translate(185.917085 580.4741)scale(0.16 -0.16)">
       <use xlink:href="#DejaVuSans-34"/>
       <use x="63.623047" xlink:href="#DejaVuSans-30"/>
      </g>
     </g>
    </g>
    <g id="xtick_4">
     <g id="line2d_7">
      <path clip-path="url(#p6805b30992)" d="M 251.044585 557.1166 
L 251.044585 70.7886 
" style="fill:none;stroke:#ffffff;stroke-linecap:round;stroke-width:1.6;"/>
     </g>
     <g id="line2d_8"/>
     <g id="text_4">
      <!-- 60 -->
      <defs>
       <path d="M 33.015625 40.375 
Q 26.375 40.375 22.484375 35.828125 
Q 18.609375 31.296875 18.609375 23.390625 
Q 18.609375 15.53125 22.484375 10.953125 
Q 26.375 6.390625 33.015625 6.390625 
Q 39.65625 6.390625 43.53125 10.953125 
Q 47.40625 15.53125 47.40625 23.390625 
Q 47.40625 31.296875 43.53125 35.828125 
Q 39.65625 40.375 33.015625 40.375 
z
M 52.59375 71.296875 
L 52.59375 62.3125 
Q 48.875 64.0625 45.09375 64.984375 
Q 41.3125 65.921875 37.59375 65.921875 
Q 27.828125 65.921875 22.671875 59.328125 
Q 17.53125 52.734375 16.796875 39.40625 
Q 19.671875 43.65625 24.015625 45.921875 
Q 28.375 48.1875 33.59375 48.1875 
Q 44.578125 48.1875 50.953125 41.515625 
Q 57.328125 34.859375 57.328125 23.390625 
Q 57.328125 12.15625 50.6875 5.359375 
Q 44.046875 -1.421875 33.015625 -1.421875 
Q 20.359375 -1.421875 13.671875 8.265625 
Q 6.984375 17.96875 6.984375 36.375 
Q 6.984375 53.65625 15.1875 63.9375 
Q 23.390625 74.21875 37.203125 74.21875 
Q 40.921875 74.21875 44.703125 73.484375 
Q 48.484375 72.75 52.59375 71.296875 
z
" id="DejaVuSans-36"/>
      </defs>
      <g style="fill:#262626;" transform="translate(240.864585 580.4741)scale(0.16 -0.16)">
       <use xlink:href="#DejaVuSans-36"/>
       <use x="63.623047" xlink:href="#DejaVuSans-30"/>
      </g>
     </g>
    </g>
    <g id="xtick_5">
     <g id="line2d_9">
      <path clip-path="url(#p6805b30992)" d="M 305.992085 557.1166 
L 305.992085 70.7886 
" style="fill:none;stroke:#ffffff;stroke-linecap:round;stroke-width:1.6;"/>
     </g>
     <g id="line2d_10"/>
     <g id="text_5">
      <!-- 80 -->
      <defs>
       <path d="M 31.78125 34.625 
Q 24.75 34.625 20.71875 30.859375 
Q 16.703125 27.09375 16.703125 20.515625 
Q 16.703125 13.921875 20.71875 10.15625 
Q 24.75 6.390625 31.78125 6.390625 
Q 38.8125 6.390625 42.859375 10.171875 
Q 46.921875 13.96875 46.921875 20.515625 
Q 46.921875 27.09375 42.890625 30.859375 
Q 38.875 34.625 31.78125 34.625 
z
M 21.921875 38.8125 
Q 15.578125 40.375 12.03125 44.71875 
Q 8.5 49.078125 8.5 55.328125 
Q 8.5 64.0625 14.71875 69.140625 
Q 20.953125 74.21875 31.78125 74.21875 
Q 42.671875 74.21875 48.875 69.140625 
Q 55.078125 64.0625 55.078125 55.328125 
Q 55.078125 49.078125 51.53125 44.71875 
Q 48 40.375 41.703125 38.8125 
Q 48.828125 37.15625 52.796875 32.3125 
Q 56.78125 27.484375 56.78125 20.515625 
Q 56.78125 9.90625 50.3125 4.234375 
Q 43.84375 -1.421875 31.78125 -1.421875 
Q 19.734375 -1.421875 13.25 4.234375 
Q 6.78125 9.90625 6.78125 20.515625 
Q 6.78125 27.484375 10.78125 32.3125 
Q 14.796875 37.15625 21.921875 38.8125 
z
M 18.3125 54.390625 
Q 18.3125 48.734375 21.84375 45.5625 
Q 25.390625 42.390625 31.78125 42.390625 
Q 38.140625 42.390625 41.71875 45.5625 
Q 45.3125 48.734375 45.3125 54.390625 
Q 45.3125 60.0625 41.71875 63.234375 
Q 38.140625 66.40625 31.78125 66.40625 
Q 25.390625 66.40625 21.84375 63.234375 
Q 18.3125 60.0625 18.3125 54.390625 
z
" id="DejaVuSans-38"/>
      </defs>
      <g style="fill:#262626;" transform="translate(295.812085 580.4741)scale(0.16 -0.16)">
       <use xlink:href="#DejaVuSans-38"/>
       <use x="63.623047" xlink:href="#DejaVuSans-30"/>
      </g>
     </g>
    </g>
    <g id="xtick_6">
     <g id="line2d_11">
      <path clip-path="url(#p6805b30992)" d="M 360.939585 557.1166 
L 360.939585 70.7886 
" style="fill:none;stroke:#ffffff;stroke-linecap:round;stroke-width:1.6;"/>
     </g>
     <g id="line2d_12"/>
     <g id="text_6">
      <!-- 100 -->
      <defs>
       <path d="M 12.40625 8.296875 
L 28.515625 8.296875 
L 28.515625 63.921875 
L 10.984375 60.40625 
L 10.984375 69.390625 
L 28.421875 72.90625 
L 38.28125 72.90625 
L 38.28125 8.296875 
L 54.390625 8.296875 
L 54.390625 0 
L 12.40625 0 
z
" id="DejaVuSans-31"/>
      </defs>
      <g style="fill:#262626;" transform="translate(345.669585 580.4741)scale(0.16 -0.16)">
       <use xlink:href="#DejaVuSans-31"/>
       <use x="63.623047" xlink:href="#DejaVuSans-30"/>
       <use x="127.246094" xlink:href="#DejaVuSans-30"/>
      </g>
     </g>
    </g>
    <g id="xtick_7">
     <g id="line2d_13">
      <path clip-path="url(#p6805b30992)" d="M 415.887084 557.1166 
L 415.887084 70.7886 
" style="fill:none;stroke:#ffffff;stroke-linecap:round;stroke-width:1.6;"/>
     </g>
     <g id="line2d_14"/>
     <g id="text_7">
      <!-- 120 -->
      <g style="fill:#262626;" transform="translate(400.617084 580.4741)scale(0.16 -0.16)">
       <use xlink:href="#DejaVuSans-31"/>
       <use x="63.623047" xlink:href="#DejaVuSans-32"/>
       <use x="127.246094" xlink:href="#DejaVuSans-30"/>
      </g>
     </g>
    </g>
    <g id="xtick_8">
     <g id="line2d_15">
      <path clip-path="url(#p6805b30992)" d="M 470.834584 557.1166 
L 470.834584 70.7886 
" style="fill:none;stroke:#ffffff;stroke-linecap:round;stroke-width:1.6;"/>
     </g>
     <g id="line2d_16"/>
     <g id="text_8">
      <!-- 140 -->
      <g style="fill:#262626;" transform="translate(455.564584 580.4741)scale(0.16 -0.16)">
       <use xlink:href="#DejaVuSans-31"/>
       <use x="63.623047" xlink:href="#DejaVuSans-34"/>
       <use x="127.246094" xlink:href="#DejaVuSans-30"/>
      </g>
     </g>
    </g>
    <g id="xtick_9">
     <g id="line2d_17">
      <path clip-path="url(#p6805b30992)" d="M 525.782084 557.1166 
L 525.782084 70.7886 
" style="fill:none;stroke:#ffffff;stroke-linecap:round;stroke-width:1.6;"/>
     </g>
     <g id="line2d_18"/>
     <g id="text_9">
      <!-- 160 -->
      <g style="fill:#262626;" transform="translate(510.512084 580.4741)scale(0.16 -0.16)">
       <use xlink:href="#DejaVuSans-31"/>
       <use x="63.623047" xlink:href="#DejaVuSans-36"/>
       <use x="127.246094" xlink:href="#DejaVuSans-30"/>
      </g>
     </g>
    </g>
    <g id="text_10">
     <!-- Absolute Error -->
     <defs>
      <path d="M 34.1875 63.1875 
L 20.796875 26.90625 
L 47.609375 26.90625 
z
M 28.609375 72.90625 
L 39.796875 72.90625 
L 67.578125 0 
L 57.328125 0 
L 50.6875 18.703125 
L 17.828125 18.703125 
L 11.1875 0 
L 0.78125 0 
z
" id="DejaVuSans-41"/>
      <path d="M 48.6875 27.296875 
Q 48.6875 37.203125 44.609375 42.84375 
Q 40.53125 48.484375 33.40625 48.484375 
Q 26.265625 48.484375 22.1875 42.84375 
Q 18.109375 37.203125 18.109375 27.296875 
Q 18.109375 17.390625 22.1875 11.75 
Q 26.265625 6.109375 33.40625 6.109375 
Q 40.53125 6.109375 44.609375 11.75 
Q 48.6875 17.390625 48.6875 27.296875 
z
M 18.109375 46.390625 
Q 20.953125 51.265625 25.265625 53.625 
Q 29.59375 56 35.59375 56 
Q 45.5625 56 51.78125 48.09375 
Q 58.015625 40.1875 58.015625 27.296875 
Q 58.015625 14.40625 51.78125 6.484375 
Q 45.5625 -1.421875 35.59375 -1.421875 
Q 29.59375 -1.421875 25.265625 0.953125 
Q 20.953125 3.328125 18.109375 8.203125 
L 18.109375 0 
L 9.078125 0 
L 9.078125 75.984375 
L 18.109375 75.984375 
z
" id="DejaVuSans-62"/>
      <path d="M 44.28125 53.078125 
L 44.28125 44.578125 
Q 40.484375 46.53125 36.375 47.5 
Q 32.28125 48.484375 27.875 48.484375 
Q 21.1875 48.484375 17.84375 46.4375 
Q 14.5 44.390625 14.5 40.28125 
Q 14.5 37.15625 16.890625 35.375 
Q 19.28125 33.59375 26.515625 31.984375 
L 29.59375 31.296875 
Q 39.15625 29.25 43.1875 25.515625 
Q 47.21875 21.78125 47.21875 15.09375 
Q 47.21875 7.46875 41.1875 3.015625 
Q 35.15625 -1.421875 24.609375 -1.421875 
Q 20.21875 -1.421875 15.453125 -0.5625 
Q 10.6875 0.296875 5.421875 2 
L 5.421875 11.28125 
Q 10.40625 8.6875 15.234375 7.390625 
Q 20.0625 6.109375 24.8125 6.109375 
Q 31.15625 6.109375 34.5625 8.28125 
Q 37.984375 10.453125 37.984375 14.40625 
Q 37.984375 18.0625 35.515625 20.015625 
Q 33.0625 21.96875 24.703125 23.78125 
L 21.578125 24.515625 
Q 13.234375 26.265625 9.515625 29.90625 
Q 5.8125 33.546875 5.8125 39.890625 
Q 5.8125 47.609375 11.28125 51.796875 
Q 16.75 56 26.8125 56 
Q 31.78125 56 36.171875 55.265625 
Q 40.578125 54.546875 44.28125 53.078125 
z
" id="DejaVuSans-73"/>
      <path d="M 30.609375 48.390625 
Q 23.390625 48.390625 19.1875 42.75 
Q 14.984375 37.109375 14.984375 27.296875 
Q 14.984375 17.484375 19.15625 11.84375 
Q 23.34375 6.203125 30.609375 6.203125 
Q 37.796875 6.203125 41.984375 11.859375 
Q 46.1875 17.53125 46.1875 27.296875 
Q 46.1875 37.015625 41.984375 42.703125 
Q 37.796875 48.390625 30.609375 48.390625 
z
M 30.609375 56 
Q 42.328125 56 49.015625 48.375 
Q 55.71875 40.765625 55.71875 27.296875 
Q 55.71875 13.875 49.015625 6.21875 
Q 42.328125 -1.421875 30.609375 -1.421875 
Q 18.84375 -1.421875 12.171875 6.21875 
Q 5.515625 13.875 5.515625 27.296875 
Q 5.515625 40.765625 12.171875 48.375 
Q 18.84375 56 30.609375 56 
z
" id="DejaVuSans-6f"/>
      <path d="M 9.421875 75.984375 
L 18.40625 75.984375 
L 18.40625 0 
L 9.421875 0 
z
" id="DejaVuSans-6c"/>
      <path d="M 8.5 21.578125 
L 8.5 54.6875 
L 17.484375 54.6875 
L 17.484375 21.921875 
Q 17.484375 14.15625 20.5 10.265625 
Q 23.53125 6.390625 29.59375 6.390625 
Q 36.859375 6.390625 41.078125 11.03125 
Q 45.3125 15.671875 45.3125 23.6875 
L 45.3125 54.6875 
L 54.296875 54.6875 
L 54.296875 0 
L 45.3125 0 
L 45.3125 8.40625 
Q 42.046875 3.421875 37.71875 1 
Q 33.40625 -1.421875 27.6875 -1.421875 
Q 18.265625 -1.421875 13.375 4.4375 
Q 8.5 10.296875 8.5 21.578125 
z
M 31.109375 56 
z
" id="DejaVuSans-75"/>
      <path d="M 18.3125 70.21875 
L 18.3125 54.6875 
L 36.8125 54.6875 
L 36.8125 47.703125 
L 18.3125 47.703125 
L 18.3125 18.015625 
Q 18.3125 11.328125 20.140625 9.421875 
Q 21.96875 7.515625 27.59375 7.515625 
L 36.8125 7.515625 
L 36.8125 0 
L 27.59375 0 
Q 17.1875 0 13.234375 3.875 
Q 9.28125 7.765625 9.28125 18.015625 
L 9.28125 47.703125 
L 2.6875 47.703125 
L 2.6875 54.6875 
L 9.28125 54.6875 
L 9.28125 70.21875 
z
" id="DejaVuSans-74"/>
      <path d="M 56.203125 29.59375 
L 56.203125 25.203125 
L 14.890625 25.203125 
Q 15.484375 15.921875 20.484375 11.0625 
Q 25.484375 6.203125 34.421875 6.203125 
Q 39.59375 6.203125 44.453125 7.46875 
Q 49.3125 8.734375 54.109375 11.28125 
L 54.109375 2.78125 
Q 49.265625 0.734375 44.1875 -0.34375 
Q 39.109375 -1.421875 33.890625 -1.421875 
Q 20.796875 -1.421875 13.15625 6.1875 
Q 5.515625 13.8125 5.515625 26.8125 
Q 5.515625 40.234375 12.765625 48.109375 
Q 20.015625 56 32.328125 56 
Q 43.359375 56 49.78125 48.890625 
Q 56.203125 41.796875 56.203125 29.59375 
z
M 47.21875 32.234375 
Q 47.125 39.59375 43.09375 43.984375 
Q 39.0625 48.390625 32.421875 48.390625 
Q 24.90625 48.390625 20.390625 44.140625 
Q 15.875 39.890625 15.1875 32.171875 
z
" id="DejaVuSans-65"/>
      <path id="DejaVuSans-20"/>
      <path d="M 9.8125 72.90625 
L 55.90625 72.90625 
L 55.90625 64.59375 
L 19.671875 64.59375 
L 19.671875 43.015625 
L 54.390625 43.015625 
L 54.390625 34.71875 
L 19.671875 34.71875 
L 19.671875 8.296875 
L 56.78125 8.296875 
L 56.78125 0 
L 9.8125 0 
z
" id="DejaVuSans-45"/>
      <path d="M 41.109375 46.296875 
Q 39.59375 47.171875 37.8125 47.578125 
Q 36.03125 48 33.890625 48 
Q 26.265625 48 22.1875 43.046875 
Q 18.109375 38.09375 18.109375 28.8125 
L 18.109375 0 
L 9.078125 0 
L 9.078125 54.6875 
L 18.109375 54.6875 
L 18.109375 46.1875 
Q 20.953125 51.171875 25.484375 53.578125 
Q 30.03125 56 36.53125 56 
Q 37.453125 56 38.578125 55.875 
Q 39.703125 55.765625 41.0625 55.515625 
z
" id="DejaVuSans-72"/>
     </defs>
     <g style="fill:#262626;" transform="translate(237.842909 601.17485)scale(0.176 -0.176)">
      <use xlink:href="#DejaVuSans-41"/>
      <use x="68.408203" xlink:href="#DejaVuSans-62"/>
      <use x="131.884766" xlink:href="#DejaVuSans-73"/>
      <use x="183.984375" xlink:href="#DejaVuSans-6f"/>
      <use x="245.166016" xlink:href="#DejaVuSans-6c"/>
      <use x="272.949219" xlink:href="#DejaVuSans-75"/>
      <use x="336.328125" xlink:href="#DejaVuSans-74"/>
      <use x="375.537109" xlink:href="#DejaVuSans-65"/>
      <use x="437.060547" xlink:href="#DejaVuSans-20"/>
      <use x="468.847656" xlink:href="#DejaVuSans-45"/>
      <use x="532.03125" xlink:href="#DejaVuSans-72"/>
      <use x="573.128906" xlink:href="#DejaVuSans-72"/>
      <use x="614.210938" xlink:href="#DejaVuSans-6f"/>
      <use x="675.392578" xlink:href="#DejaVuSans-72"/>
     </g>
    </g>
   </g>
   <g id="matplotlib.axis_2">
    <g id="ytick_1">
     <g id="line2d_19">
      <path clip-path="url(#p6805b30992)" d="M 64.8785 550.909388 
L 536.911317 550.909388 
" style="fill:none;stroke:#ffffff;stroke-linecap:round;stroke-width:1.6;"/>
     </g>
     <g id="line2d_20"/>
     <g id="text_11">
      <!-- 0.0 -->
      <defs>
       <path d="M 10.6875 12.40625 
L 21 12.40625 
L 21 0 
L 10.6875 0 
z
" id="DejaVuSans-2e"/>
      </defs>
      <g style="fill:#262626;" transform="translate(28.2335 556.988138)scale(0.16 -0.16)">
       <use xlink:href="#DejaVuSans-30"/>
       <use x="63.623047" xlink:href="#DejaVuSans-2e"/>
       <use x="95.410156" xlink:href="#DejaVuSans-30"/>
      </g>
     </g>
    </g>
    <g id="ytick_2">
     <g id="line2d_21">
      <path clip-path="url(#p6805b30992)" d="M 64.8785 459.770725 
L 536.911317 459.770725 
" style="fill:none;stroke:#ffffff;stroke-linecap:round;stroke-width:1.6;"/>
     </g>
     <g id="line2d_22"/>
     <g id="text_12">
      <!-- 0.5 -->
      <defs>
       <path d="M 10.796875 72.90625 
L 49.515625 72.90625 
L 49.515625 64.59375 
L 19.828125 64.59375 
L 19.828125 46.734375 
Q 21.96875 47.46875 24.109375 47.828125 
Q 26.265625 48.1875 28.421875 48.1875 
Q 40.625 48.1875 47.75 41.5 
Q 54.890625 34.8125 54.890625 23.390625 
Q 54.890625 11.625 47.5625 5.09375 
Q 40.234375 -1.421875 26.90625 -1.421875 
Q 22.3125 -1.421875 17.546875 -0.640625 
Q 12.796875 0.140625 7.71875 1.703125 
L 7.71875 11.625 
Q 12.109375 9.234375 16.796875 8.0625 
Q 21.484375 6.890625 26.703125 6.890625 
Q 35.15625 6.890625 40.078125 11.328125 
Q 45.015625 15.765625 45.015625 23.390625 
Q 45.015625 31 40.078125 35.4375 
Q 35.15625 39.890625 26.703125 39.890625 
Q 22.75 39.890625 18.8125 39.015625 
Q 14.890625 38.140625 10.796875 36.28125 
z
" id="DejaVuSans-35"/>
      </defs>
      <g style="fill:#262626;" transform="translate(28.2335 465.849475)scale(0.16 -0.16)">
       <use xlink:href="#DejaVuSans-30"/>
       <use x="63.623047" xlink:href="#DejaVuSans-2e"/>
       <use x="95.410156" xlink:href="#DejaVuSans-35"/>
      </g>
     </g>
    </g>
    <g id="ytick_3">
     <g id="line2d_23">
      <path clip-path="url(#p6805b30992)" d="M 64.8785 368.632063 
L 536.911317 368.632063 
" style="fill:none;stroke:#ffffff;stroke-linecap:round;stroke-width:1.6;"/>
     </g>
     <g id="line2d_24"/>
     <g id="text_13">
      <!-- 1.0 -->
      <g style="fill:#262626;" transform="translate(28.2335 374.710813)scale(0.16 -0.16)">
       <use xlink:href="#DejaVuSans-31"/>
       <use x="63.623047" xlink:href="#DejaVuSans-2e"/>
       <use x="95.410156" xlink:href="#DejaVuSans-30"/>
      </g>
     </g>
    </g>
    <g id="ytick_4">
     <g id="line2d_25">
      <path clip-path="url(#p6805b30992)" d="M 64.8785 277.4934 
L 536.911317 277.4934 
" style="fill:none;stroke:#ffffff;stroke-linecap:round;stroke-width:1.6;"/>
     </g>
     <g id="line2d_26"/>
     <g id="text_14">
      <!-- 1.5 -->
      <g style="fill:#262626;" transform="translate(28.2335 283.57215)scale(0.16 -0.16)">
       <use xlink:href="#DejaVuSans-31"/>
       <use x="63.623047" xlink:href="#DejaVuSans-2e"/>
       <use x="95.410156" xlink:href="#DejaVuSans-35"/>
      </g>
     </g>
    </g>
    <g id="ytick_5">
     <g id="line2d_27">
      <path clip-path="url(#p6805b30992)" d="M 64.8785 186.354738 
L 536.911317 186.354738 
" style="fill:none;stroke:#ffffff;stroke-linecap:round;stroke-width:1.6;"/>
     </g>
     <g id="line2d_28"/>
     <g id="text_15">
      <!-- 2.0 -->
      <g style="fill:#262626;" transform="translate(28.2335 192.433488)scale(0.16 -0.16)">
       <use xlink:href="#DejaVuSans-32"/>
       <use x="63.623047" xlink:href="#DejaVuSans-2e"/>
       <use x="95.410156" xlink:href="#DejaVuSans-30"/>
      </g>
     </g>
    </g>
    <g id="ytick_6">
     <g id="line2d_29">
      <path clip-path="url(#p6805b30992)" d="M 64.8785 95.216075 
L 536.911317 95.216075 
" style="fill:none;stroke:#ffffff;stroke-linecap:round;stroke-width:1.6;"/>
     </g>
     <g id="line2d_30"/>
     <g id="text_16">
      <!-- 2.5 -->
      <g style="fill:#262626;" transform="translate(28.2335 101.294825)scale(0.16 -0.16)">
       <use xlink:href="#DejaVuSans-32"/>
       <use x="63.623047" xlink:href="#DejaVuSans-2e"/>
       <use x="95.410156" xlink:href="#DejaVuSans-35"/>
      </g>
     </g>
    </g>
    <g id="text_17">
     <!-- GSV Density -->
     <defs>
      <path d="M 59.515625 10.40625 
L 59.515625 29.984375 
L 43.40625 29.984375 
L 43.40625 38.09375 
L 69.28125 38.09375 
L 69.28125 6.78125 
Q 63.578125 2.734375 56.6875 0.65625 
Q 49.8125 -1.421875 42 -1.421875 
Q 24.90625 -1.421875 15.25 8.5625 
Q 5.609375 18.5625 5.609375 36.375 
Q 5.609375 54.25 15.25 64.234375 
Q 24.90625 74.21875 42 74.21875 
Q 49.125 74.21875 55.546875 72.453125 
Q 61.96875 70.703125 67.390625 67.28125 
L 67.390625 56.78125 
Q 61.921875 61.421875 55.765625 63.765625 
Q 49.609375 66.109375 42.828125 66.109375 
Q 29.4375 66.109375 22.71875 58.640625 
Q 16.015625 51.171875 16.015625 36.375 
Q 16.015625 21.625 22.71875 14.15625 
Q 29.4375 6.6875 42.828125 6.6875 
Q 48.046875 6.6875 52.140625 7.59375 
Q 56.25 8.5 59.515625 10.40625 
z
" id="DejaVuSans-47"/>
      <path d="M 53.515625 70.515625 
L 53.515625 60.890625 
Q 47.90625 63.578125 42.921875 64.890625 
Q 37.9375 66.21875 33.296875 66.21875 
Q 25.25 66.21875 20.875 63.09375 
Q 16.5 59.96875 16.5 54.203125 
Q 16.5 49.359375 19.40625 46.890625 
Q 22.3125 44.4375 30.421875 42.921875 
L 36.375 41.703125 
Q 47.40625 39.59375 52.65625 34.296875 
Q 57.90625 29 57.90625 20.125 
Q 57.90625 9.515625 50.796875 4.046875 
Q 43.703125 -1.421875 29.984375 -1.421875 
Q 24.8125 -1.421875 18.96875 -0.25 
Q 13.140625 0.921875 6.890625 3.21875 
L 6.890625 13.375 
Q 12.890625 10.015625 18.65625 8.296875 
Q 24.421875 6.59375 29.984375 6.59375 
Q 38.421875 6.59375 43.015625 9.90625 
Q 47.609375 13.234375 47.609375 19.390625 
Q 47.609375 24.75 44.3125 27.78125 
Q 41.015625 30.8125 33.5 32.328125 
L 27.484375 33.5 
Q 16.453125 35.6875 11.515625 40.375 
Q 6.59375 45.0625 6.59375 53.421875 
Q 6.59375 63.09375 13.40625 68.65625 
Q 20.21875 74.21875 32.171875 74.21875 
Q 37.3125 74.21875 42.625 73.28125 
Q 47.953125 72.359375 53.515625 70.515625 
z
" id="DejaVuSans-53"/>
      <path d="M 28.609375 0 
L 0.78125 72.90625 
L 11.078125 72.90625 
L 34.1875 11.53125 
L 57.328125 72.90625 
L 67.578125 72.90625 
L 39.796875 0 
z
" id="DejaVuSans-56"/>
      <path d="M 19.671875 64.796875 
L 19.671875 8.109375 
L 31.59375 8.109375 
Q 46.6875 8.109375 53.6875 14.9375 
Q 60.6875 21.78125 60.6875 36.53125 
Q 60.6875 51.171875 53.6875 57.984375 
Q 46.6875 64.796875 31.59375 64.796875 
z
M 9.8125 72.90625 
L 30.078125 72.90625 
Q 51.265625 72.90625 61.171875 64.09375 
Q 71.09375 55.28125 71.09375 36.53125 
Q 71.09375 17.671875 61.125 8.828125 
Q 51.171875 0 30.078125 0 
L 9.8125 0 
z
" id="DejaVuSans-44"/>
      <path d="M 54.890625 33.015625 
L 54.890625 0 
L 45.90625 0 
L 45.90625 32.71875 
Q 45.90625 40.484375 42.875 44.328125 
Q 39.84375 48.1875 33.796875 48.1875 
Q 26.515625 48.1875 22.3125 43.546875 
Q 18.109375 38.921875 18.109375 30.90625 
L 18.109375 0 
L 9.078125 0 
L 9.078125 54.6875 
L 18.109375 54.6875 
L 18.109375 46.1875 
Q 21.34375 51.125 25.703125 53.5625 
Q 30.078125 56 35.796875 56 
Q 45.21875 56 50.046875 50.171875 
Q 54.890625 44.34375 54.890625 33.015625 
z
" id="DejaVuSans-6e"/>
      <path d="M 9.421875 54.6875 
L 18.40625 54.6875 
L 18.40625 0 
L 9.421875 0 
z
M 9.421875 75.984375 
L 18.40625 75.984375 
L 18.40625 64.59375 
L 9.421875 64.59375 
z
" id="DejaVuSans-69"/>
      <path d="M 32.171875 -5.078125 
Q 28.375 -14.84375 24.75 -17.8125 
Q 21.140625 -20.796875 15.09375 -20.796875 
L 7.90625 -20.796875 
L 7.90625 -13.28125 
L 13.1875 -13.28125 
Q 16.890625 -13.28125 18.9375 -11.515625 
Q 21 -9.765625 23.484375 -3.21875 
L 25.09375 0.875 
L 2.984375 54.6875 
L 12.5 54.6875 
L 29.59375 11.921875 
L 46.6875 54.6875 
L 56.203125 54.6875 
z
" id="DejaVuSans-79"/>
     </defs>
     <g style="fill:#262626;" transform="translate(20.57325 368.629475)rotate(-90)scale(0.176 -0.176)">
      <use xlink:href="#DejaVuSans-47"/>
      <use x="77.490234" xlink:href="#DejaVuSans-53"/>
      <use x="140.966797" xlink:href="#DejaVuSans-56"/>
      <use x="209.375" xlink:href="#DejaVuSans-20"/>
      <use x="241.162109" xlink:href="#DejaVuSans-44"/>
      <use x="318.164062" xlink:href="#DejaVuSans-65"/>
      <use x="379.6875" xlink:href="#DejaVuSans-6e"/>
      <use x="443.066406" xlink:href="#DejaVuSans-73"/>
      <use x="495.166016" xlink:href="#DejaVuSans-69"/>
      <use x="522.949219" xlink:href="#DejaVuSans-74"/>
      <use x="562.158203" xlink:href="#DejaVuSans-79"/>
     </g>
    </g>
   </g>
   <g id="PathCollection_1">
    <defs>
     <path d="M 0 5.6 
C 1.485137 5.6 2.909647 5.009949 3.959798 3.959798 
C 5.009949 2.909647 5.6 1.485137 5.6 0 
C 5.6 -1.485137 5.009949 -2.909647 3.959798 -3.959798 
C 2.909647 -5.009949 1.485137 -5.6 0 -5.6 
C -1.485137 -5.6 -2.909647 -5.009949 -3.959798 -3.959798 
C -5.009949 -2.909647 -5.6 -1.485137 -5.6 0 
C -5.6 1.485137 -5.009949 2.909647 -3.959798 3.959798 
C -2.909647 5.009949 -1.485137 5.6 0 5.6 
z
" id="mbaa3d84df4" style="stroke:#2ecc71;stroke-width:0.48;"/>
    </defs>
    <g clip-path="url(#p6805b30992)">
     <use style="fill:#2ecc71;stroke:#2ecc71;stroke-width:0.48;" x="92.348051" xlink:href="#mbaa3d84df4" y="243.721205"/>
     <use style="fill:#2ecc71;stroke:#2ecc71;stroke-width:0.48;" x="91.986554" xlink:href="#mbaa3d84df4" y="287.243118"/>
     <use style="fill:#2ecc71;stroke:#2ecc71;stroke-width:0.48;" x="107.831541" xlink:href="#mbaa3d84df4" y="412.745646"/>
     <use style="fill:#2ecc71;stroke:#2ecc71;stroke-width:0.48;" x="104.735339" xlink:href="#mbaa3d84df4" y="516.454857"/>
     <use style="fill:#2ecc71;stroke:#2ecc71;stroke-width:0.48;" x="98.769775" xlink:href="#mbaa3d84df4" y="198.608675"/>
     <use style="fill:#2ecc71;stroke:#2ecc71;stroke-width:0.48;" x="87.901449" xlink:href="#mbaa3d84df4" y="259.520601"/>
     <use style="fill:#2ecc71;stroke:#2ecc71;stroke-width:0.48;" x="103.372007" xlink:href="#mbaa3d84df4" y="374.962874"/>
     <use style="fill:#2ecc71;stroke:#2ecc71;stroke-width:0.48;" x="104.888617" xlink:href="#mbaa3d84df4" y="254.506775"/>
     <use style="fill:#2ecc71;stroke:#2ecc71;stroke-width:0.48;" x="86.366254" xlink:href="#mbaa3d84df4" y="263.174017"/>
     <use style="fill:#2ecc71;stroke:#2ecc71;stroke-width:0.48;" x="95.55258" xlink:href="#mbaa3d84df4" y="530.650948"/>
     <use style="fill:#2ecc71;stroke:#2ecc71;stroke-width:0.48;" x="103.197061" xlink:href="#mbaa3d84df4" y="466.299163"/>
     <use style="fill:#2ecc71;stroke:#2ecc71;stroke-width:0.48;" x="93.1422" xlink:href="#mbaa3d84df4" y="350.071747"/>
     <use style="fill:#2ecc71;stroke:#2ecc71;stroke-width:0.48;" x="102.498383" xlink:href="#mbaa3d84df4" y="362.704345"/>
     <use style="fill:#2ecc71;stroke:#2ecc71;stroke-width:0.48;" x="100.158775" xlink:href="#mbaa3d84df4" y="376.856538"/>
     <use style="fill:#2ecc71;stroke:#2ecc71;stroke-width:0.48;" x="98.172833" xlink:href="#mbaa3d84df4" y="370.070406"/>
     <use style="fill:#2ecc71;stroke:#2ecc71;stroke-width:0.48;" x="100.213037" xlink:href="#mbaa3d84df4" y="433.374188"/>
     <use style="fill:#2ecc71;stroke:#2ecc71;stroke-width:0.48;" x="96.969525" xlink:href="#mbaa3d84df4" y="305.120036"/>
     <use style="fill:#2ecc71;stroke:#2ecc71;stroke-width:0.48;" x="101.332703" xlink:href="#mbaa3d84df4" y="353.800535"/>
     <use style="fill:#2ecc71;stroke:#2ecc71;stroke-width:0.48;" x="87.83214" xlink:href="#mbaa3d84df4" y="427.156749"/>
     <use style="fill:#2ecc71;stroke:#2ecc71;stroke-width:0.48;" x="88.611841" xlink:href="#mbaa3d84df4" y="334.331384"/>
     <use style="fill:#2ecc71;stroke:#2ecc71;stroke-width:0.48;" x="92.62247" xlink:href="#mbaa3d84df4" y="466.060971"/>
     <use style="fill:#2ecc71;stroke:#2ecc71;stroke-width:0.48;" x="94.764534" xlink:href="#mbaa3d84df4" y="395.527723"/>
     <use style="fill:#2ecc71;stroke:#2ecc71;stroke-width:0.48;" x="96.15125" xlink:href="#mbaa3d84df4" y="400.728537"/>
     <use style="fill:#2ecc71;stroke:#2ecc71;stroke-width:0.48;" x="104.056063" xlink:href="#mbaa3d84df4" y="404.471994"/>
     <use style="fill:#2ecc71;stroke:#2ecc71;stroke-width:0.48;" x="97.222038" xlink:href="#mbaa3d84df4" y="525.831226"/>
     <use style="fill:#2ecc71;stroke:#2ecc71;stroke-width:0.48;" x="104.636035" xlink:href="#mbaa3d84df4" y="477.786925"/>
     <use style="fill:#2ecc71;stroke:#2ecc71;stroke-width:0.48;" x="98.015755" xlink:href="#mbaa3d84df4" y="426.576452"/>
     <use style="fill:#2ecc71;stroke:#2ecc71;stroke-width:0.48;" x="91.930414" xlink:href="#mbaa3d84df4" y="391.444147"/>
     <use style="fill:#2ecc71;stroke:#2ecc71;stroke-width:0.48;" x="102.465472" xlink:href="#mbaa3d84df4" y="424.508338"/>
     <use style="fill:#2ecc71;stroke:#2ecc71;stroke-width:0.48;" x="98.479385" xlink:href="#mbaa3d84df4" y="374.962034"/>
     <use style="fill:#2ecc71;stroke:#2ecc71;stroke-width:0.48;" x="106.919862" xlink:href="#mbaa3d84df4" y="325.006686"/>
     <use style="fill:#2ecc71;stroke:#2ecc71;stroke-width:0.48;" x="98.005878" xlink:href="#mbaa3d84df4" y="330.191555"/>
     <use style="fill:#2ecc71;stroke:#2ecc71;stroke-width:0.48;" x="107.732668" xlink:href="#mbaa3d84df4" y="235.52797"/>
     <use style="fill:#2ecc71;stroke:#2ecc71;stroke-width:0.48;" x="102.258134" xlink:href="#mbaa3d84df4" y="333.416946"/>
     <use style="fill:#2ecc71;stroke:#2ecc71;stroke-width:0.48;" x="97.131152" xlink:href="#mbaa3d84df4" y="456.812765"/>
     <use style="fill:#2ecc71;stroke:#2ecc71;stroke-width:0.48;" x="100.718314" xlink:href="#mbaa3d84df4" y="252.407841"/>
     <use style="fill:#2ecc71;stroke:#2ecc71;stroke-width:0.48;" x="105.378723" xlink:href="#mbaa3d84df4" y="497.991917"/>
     <use style="fill:#2ecc71;stroke:#2ecc71;stroke-width:0.48;" x="91.379631" xlink:href="#mbaa3d84df4" y="497.303896"/>
     <use style="fill:#2ecc71;stroke:#2ecc71;stroke-width:0.48;" x="93.690608" xlink:href="#mbaa3d84df4" y="483.862144"/>
     <use style="fill:#2ecc71;stroke:#2ecc71;stroke-width:0.48;" x="99.008597" xlink:href="#mbaa3d84df4" y="433.446402"/>
    </g>
   </g>
   <g id="PathCollection_2">
    <defs>
     <path d="M -0 7.919596 
L 7.919596 0 
L 0 -7.919596 
L -7.919596 -0 
z
" id="m0c67bcb54c" style="stroke:#34495e;stroke-width:0.48;"/>
    </defs>
    <g clip-path="url(#p6805b30992)">
     <use style="fill:#34495e;stroke:#34495e;stroke-width:0.48;" x="141.259757" xlink:href="#m0c67bcb54c" y="317.645398"/>
     <use style="fill:#34495e;stroke:#34495e;stroke-width:0.48;" x="128.545152" xlink:href="#m0c67bcb54c" y="254.057744"/>
     <use style="fill:#34495e;stroke:#34495e;stroke-width:0.48;" x="120.881813" xlink:href="#m0c67bcb54c" y="271.764684"/>
     <use style="fill:#34495e;stroke:#34495e;stroke-width:0.48;" x="113.462122" xlink:href="#m0c67bcb54c" y="330.440623"/>
     <use style="fill:#34495e;stroke:#34495e;stroke-width:0.48;" x="123.025478" xlink:href="#m0c67bcb54c" y="210.690192"/>
     <use style="fill:#34495e;stroke:#34495e;stroke-width:0.48;" x="124.869647" xlink:href="#m0c67bcb54c" y="317.175784"/>
     <use style="fill:#34495e;stroke:#34495e;stroke-width:0.48;" x="120.775986" xlink:href="#m0c67bcb54c" y="378.648447"/>
     <use style="fill:#34495e;stroke:#34495e;stroke-width:0.48;" x="153.286628" xlink:href="#m0c67bcb54c" y="297.378199"/>
     <use style="fill:#34495e;stroke:#34495e;stroke-width:0.48;" x="108.195386" xlink:href="#m0c67bcb54c" y="527.446943"/>
     <use style="fill:#34495e;stroke:#34495e;stroke-width:0.48;" x="116.072975" xlink:href="#m0c67bcb54c" y="520.785457"/>
     <use style="fill:#34495e;stroke:#34495e;stroke-width:0.48;" x="126.246913" xlink:href="#m0c67bcb54c" y="505.221241"/>
     <use style="fill:#34495e;stroke:#34495e;stroke-width:0.48;" x="113.587939" xlink:href="#m0c67bcb54c" y="513.331878"/>
     <use style="fill:#34495e;stroke:#34495e;stroke-width:0.48;" x="118.20794" xlink:href="#m0c67bcb54c" y="529.181903"/>
     <use style="fill:#34495e;stroke:#34495e;stroke-width:0.48;" x="148.289868" xlink:href="#m0c67bcb54c" y="338.048619"/>
     <use style="fill:#34495e;stroke:#34495e;stroke-width:0.48;" x="117.768363" xlink:href="#m0c67bcb54c" y="293.963238"/>
     <use style="fill:#34495e;stroke:#34495e;stroke-width:0.48;" x="151.377091" xlink:href="#m0c67bcb54c" y="340.057787"/>
     <use style="fill:#34495e;stroke:#34495e;stroke-width:0.48;" x="119.360256" xlink:href="#m0c67bcb54c" y="239.928421"/>
     <use style="fill:#34495e;stroke:#34495e;stroke-width:0.48;" x="139.562622" xlink:href="#m0c67bcb54c" y="277.200914"/>
     <use style="fill:#34495e;stroke:#34495e;stroke-width:0.48;" x="115.312324" xlink:href="#m0c67bcb54c" y="229.392439"/>
     <use style="fill:#34495e;stroke:#34495e;stroke-width:0.48;" x="126.893124" xlink:href="#m0c67bcb54c" y="218.364414"/>
     <use style="fill:#34495e;stroke:#34495e;stroke-width:0.48;" x="118.390757" xlink:href="#m0c67bcb54c" y="255.074264"/>
     <use style="fill:#34495e;stroke:#34495e;stroke-width:0.48;" x="135.353092" xlink:href="#m0c67bcb54c" y="223.326082"/>
     <use style="fill:#34495e;stroke:#34495e;stroke-width:0.48;" x="108.142122" xlink:href="#m0c67bcb54c" y="408.783896"/>
     <use style="fill:#34495e;stroke:#34495e;stroke-width:0.48;" x="148.779281" xlink:href="#m0c67bcb54c" y="513.195718"/>
     <use style="fill:#34495e;stroke:#34495e;stroke-width:0.48;" x="114.879807" xlink:href="#m0c67bcb54c" y="525.981778"/>
     <use style="fill:#34495e;stroke:#34495e;stroke-width:0.48;" x="138.548243" xlink:href="#m0c67bcb54c" y="441.088719"/>
     <use style="fill:#34495e;stroke:#34495e;stroke-width:0.48;" x="147.153309" xlink:href="#m0c67bcb54c" y="327.994477"/>
     <use style="fill:#34495e;stroke:#34495e;stroke-width:0.48;" x="114.999474" xlink:href="#m0c67bcb54c" y="311.423811"/>
     <use style="fill:#34495e;stroke:#34495e;stroke-width:0.48;" x="129.57006" xlink:href="#m0c67bcb54c" y="258.890848"/>
     <use style="fill:#34495e;stroke:#34495e;stroke-width:0.48;" x="124.675798" xlink:href="#m0c67bcb54c" y="333.065755"/>
     <use style="fill:#34495e;stroke:#34495e;stroke-width:0.48;" x="150.165428" xlink:href="#m0c67bcb54c" y="416.615663"/>
     <use style="fill:#34495e;stroke:#34495e;stroke-width:0.48;" x="121.661286" xlink:href="#m0c67bcb54c" y="341.598442"/>
     <use style="fill:#34495e;stroke:#34495e;stroke-width:0.48;" x="125.485032" xlink:href="#m0c67bcb54c" y="412.312688"/>
     <use style="fill:#34495e;stroke:#34495e;stroke-width:0.48;" x="144.721709" xlink:href="#m0c67bcb54c" y="432.596867"/>
     <use style="fill:#34495e;stroke:#34495e;stroke-width:0.48;" x="130.039373" xlink:href="#m0c67bcb54c" y="254.467882"/>
     <use style="fill:#34495e;stroke:#34495e;stroke-width:0.48;" x="125.076712" xlink:href="#m0c67bcb54c" y="401.449483"/>
     <use style="fill:#34495e;stroke:#34495e;stroke-width:0.48;" x="120.380834" xlink:href="#m0c67bcb54c" y="360.994426"/>
     <use style="fill:#34495e;stroke:#34495e;stroke-width:0.48;" x="121.063364" xlink:href="#m0c67bcb54c" y="421.231981"/>
     <use style="fill:#34495e;stroke:#34495e;stroke-width:0.48;" x="120.997246" xlink:href="#m0c67bcb54c" y="479.274798"/>
     <use style="fill:#34495e;stroke:#34495e;stroke-width:0.48;" x="121.939433" xlink:href="#m0c67bcb54c" y="428.045641"/>
     <use style="fill:#34495e;stroke:#34495e;stroke-width:0.48;" x="133.274195" xlink:href="#m0c67bcb54c" y="442.250866"/>
     <use style="fill:#34495e;stroke:#34495e;stroke-width:0.48;" x="118.867127" xlink:href="#m0c67bcb54c" y="450.435225"/>
     <use style="fill:#34495e;stroke:#34495e;stroke-width:0.48;" x="134.970619" xlink:href="#m0c67bcb54c" y="416.118333"/>
     <use style="fill:#34495e;stroke:#34495e;stroke-width:0.48;" x="123.491373" xlink:href="#m0c67bcb54c" y="431.442112"/>
     <use style="fill:#34495e;stroke:#34495e;stroke-width:0.48;" x="141.455108" xlink:href="#m0c67bcb54c" y="447.906431"/>
     <use style="fill:#34495e;stroke:#34495e;stroke-width:0.48;" x="130.491483" xlink:href="#m0c67bcb54c" y="434.163297"/>
     <use style="fill:#34495e;stroke:#34495e;stroke-width:0.48;" x="148.867881" xlink:href="#m0c67bcb54c" y="361.126526"/>
     <use style="fill:#34495e;stroke:#34495e;stroke-width:0.48;" x="129.173231" xlink:href="#m0c67bcb54c" y="357.182823"/>
     <use style="fill:#34495e;stroke:#34495e;stroke-width:0.48;" x="124.644013" xlink:href="#m0c67bcb54c" y="350.099081"/>
     <use style="fill:#34495e;stroke:#34495e;stroke-width:0.48;" x="126.176634" xlink:href="#m0c67bcb54c" y="340.538669"/>
     <use style="fill:#34495e;stroke:#34495e;stroke-width:0.48;" x="144.886145" xlink:href="#m0c67bcb54c" y="345.483536"/>
     <use style="fill:#34495e;stroke:#34495e;stroke-width:0.48;" x="131.556041" xlink:href="#m0c67bcb54c" y="238.046821"/>
     <use style="fill:#34495e;stroke:#34495e;stroke-width:0.48;" x="121.685852" xlink:href="#m0c67bcb54c" y="435.051181"/>
     <use style="fill:#34495e;stroke:#34495e;stroke-width:0.48;" x="142.497933" xlink:href="#m0c67bcb54c" y="446.649595"/>
     <use style="fill:#34495e;stroke:#34495e;stroke-width:0.48;" x="151.467786" xlink:href="#m0c67bcb54c" y="404.326537"/>
     <use style="fill:#34495e;stroke:#34495e;stroke-width:0.48;" x="115.032991" xlink:href="#m0c67bcb54c" y="426.554544"/>
     <use style="fill:#34495e;stroke:#34495e;stroke-width:0.48;" x="128.788444" xlink:href="#m0c67bcb54c" y="434.204725"/>
     <use style="fill:#34495e;stroke:#34495e;stroke-width:0.48;" x="141.614009" xlink:href="#m0c67bcb54c" y="360.534287"/>
     <use style="fill:#34495e;stroke:#34495e;stroke-width:0.48;" x="139.787265" xlink:href="#m0c67bcb54c" y="345.756832"/>
     <use style="fill:#34495e;stroke:#34495e;stroke-width:0.48;" x="128.67373" xlink:href="#m0c67bcb54c" y="455.340157"/>
     <use style="fill:#34495e;stroke:#34495e;stroke-width:0.48;" x="133.170571" xlink:href="#m0c67bcb54c" y="424.268026"/>
     <use style="fill:#34495e;stroke:#34495e;stroke-width:0.48;" x="136.303575" xlink:href="#m0c67bcb54c" y="409.192552"/>
     <use style="fill:#34495e;stroke:#34495e;stroke-width:0.48;" x="148.772541" xlink:href="#m0c67bcb54c" y="423.903978"/>
     <use style="fill:#34495e;stroke:#34495e;stroke-width:0.48;" x="111.959223" xlink:href="#m0c67bcb54c" y="377.380294"/>
     <use style="fill:#34495e;stroke:#34495e;stroke-width:0.48;" x="114.543666" xlink:href="#m0c67bcb54c" y="251.669104"/>
     <use style="fill:#34495e;stroke:#34495e;stroke-width:0.48;" x="140.095973" xlink:href="#m0c67bcb54c" y="191.111867"/>
     <use style="fill:#34495e;stroke:#34495e;stroke-width:0.48;" x="128.121267" xlink:href="#m0c67bcb54c" y="287.94267"/>
     <use style="fill:#34495e;stroke:#34495e;stroke-width:0.48;" x="113.597904" xlink:href="#m0c67bcb54c" y="508.998908"/>
     <use style="fill:#34495e;stroke:#34495e;stroke-width:0.48;" x="138.42918" xlink:href="#m0c67bcb54c" y="334.31319"/>
     <use style="fill:#34495e;stroke:#34495e;stroke-width:0.48;" x="153.074595" xlink:href="#m0c67bcb54c" y="430.143827"/>
     <use style="fill:#34495e;stroke:#34495e;stroke-width:0.48;" x="121.894932" xlink:href="#m0c67bcb54c" y="413.058371"/>
     <use style="fill:#34495e;stroke:#34495e;stroke-width:0.48;" x="110.529623" xlink:href="#m0c67bcb54c" y="426.415299"/>
     <use style="fill:#34495e;stroke:#34495e;stroke-width:0.48;" x="116.563926" xlink:href="#m0c67bcb54c" y="407.045619"/>
     <use style="fill:#34495e;stroke:#34495e;stroke-width:0.48;" x="111.825634" xlink:href="#m0c67bcb54c" y="289.779179"/>
     <use style="fill:#34495e;stroke:#34495e;stroke-width:0.48;" x="141.019998" xlink:href="#m0c67bcb54c" y="501.6752"/>
     <use style="fill:#34495e;stroke:#34495e;stroke-width:0.48;" x="136.504401" xlink:href="#m0c67bcb54c" y="517.294585"/>
     <use style="fill:#34495e;stroke:#34495e;stroke-width:0.48;" x="121.01331" xlink:href="#m0c67bcb54c" y="499.138204"/>
     <use style="fill:#34495e;stroke:#34495e;stroke-width:0.48;" x="112.997228" xlink:href="#m0c67bcb54c" y="505.091229"/>
     <use style="fill:#34495e;stroke:#34495e;stroke-width:0.48;" x="119.272128" xlink:href="#m0c67bcb54c" y="470.643377"/>
    </g>
   </g>
   <g id="PathCollection_3">
    <defs>
     <path d="M -5.6 5.6 
L 5.6 5.6 
L 5.6 -5.6 
L -5.6 -5.6 
z
" id="m5e021ca15f" style="stroke:#e74c3c;stroke-width:0.48;"/>
    </defs>
    <g clip-path="url(#p6805b30992)">
     <use style="fill:#e74c3c;stroke:#e74c3c;stroke-width:0.48;" x="159.733047" xlink:href="#m5e021ca15f" y="342.149532"/>
     <use style="fill:#e74c3c;stroke:#e74c3c;stroke-width:0.48;" x="179.565779" xlink:href="#m5e021ca15f" y="284.652328"/>
     <use style="fill:#e74c3c;stroke:#e74c3c;stroke-width:0.48;" x="168.918634" xlink:href="#m5e021ca15f" y="97.183097"/>
     <use style="fill:#e74c3c;stroke:#e74c3c;stroke-width:0.48;" x="189.469952" xlink:href="#m5e021ca15f" y="353.474673"/>
     <use style="fill:#e74c3c;stroke:#e74c3c;stroke-width:0.48;" x="193.760971" xlink:href="#m5e021ca15f" y="384.063825"/>
     <use style="fill:#e74c3c;stroke:#e74c3c;stroke-width:0.48;" x="176.125803" xlink:href="#m5e021ca15f" y="518.328262"/>
     <use style="fill:#e74c3c;stroke:#e74c3c;stroke-width:0.48;" x="206.569761" xlink:href="#m5e021ca15f" y="247.372947"/>
     <use style="fill:#e74c3c;stroke:#e74c3c;stroke-width:0.48;" x="164.532794" xlink:href="#m5e021ca15f" y="154.894061"/>
     <use style="fill:#e74c3c;stroke:#e74c3c;stroke-width:0.48;" x="183.129749" xlink:href="#m5e021ca15f" y="384.140656"/>
     <use style="fill:#e74c3c;stroke:#e74c3c;stroke-width:0.48;" x="215.387532" xlink:href="#m5e021ca15f" y="316.459495"/>
     <use style="fill:#e74c3c;stroke:#e74c3c;stroke-width:0.48;" x="161.840711" xlink:href="#m5e021ca15f" y="452.604648"/>
     <use style="fill:#e74c3c;stroke:#e74c3c;stroke-width:0.48;" x="166.831695" xlink:href="#m5e021ca15f" y="489.492078"/>
     <use style="fill:#e74c3c;stroke:#e74c3c;stroke-width:0.48;" x="514.600147" xlink:href="#m5e021ca15f" y="298.699984"/>
     <use style="fill:#e74c3c;stroke:#e74c3c;stroke-width:0.48;" x="250.543195" xlink:href="#m5e021ca15f" y="352.441357"/>
     <use style="fill:#e74c3c;stroke:#e74c3c;stroke-width:0.48;" x="205.871912" xlink:href="#m5e021ca15f" y="477.303466"/>
     <use style="fill:#e74c3c;stroke:#e74c3c;stroke-width:0.48;" x="190.254224" xlink:href="#m5e021ca15f" y="468.143044"/>
     <use style="fill:#e74c3c;stroke:#e74c3c;stroke-width:0.48;" x="154.803595" xlink:href="#m5e021ca15f" y="311.711057"/>
     <use style="fill:#e74c3c;stroke:#e74c3c;stroke-width:0.48;" x="167.65828" xlink:href="#m5e021ca15f" y="427.534074"/>
     <use style="fill:#e74c3c;stroke:#e74c3c;stroke-width:0.48;" x="243.75495" xlink:href="#m5e021ca15f" y="263.311033"/>
     <use style="fill:#e74c3c;stroke:#e74c3c;stroke-width:0.48;" x="184.247049" xlink:href="#m5e021ca15f" y="454.353725"/>
     <use style="fill:#e74c3c;stroke:#e74c3c;stroke-width:0.48;" x="195.210744" xlink:href="#m5e021ca15f" y="378.831225"/>
     <use style="fill:#e74c3c;stroke:#e74c3c;stroke-width:0.48;" x="156.518363" xlink:href="#m5e021ca15f" y="245.954763"/>
     <use style="fill:#e74c3c;stroke:#e74c3c;stroke-width:0.48;" x="184.859653" xlink:href="#m5e021ca15f" y="284.175584"/>
     <use style="fill:#e74c3c;stroke:#e74c3c;stroke-width:0.48;" x="233.998564" xlink:href="#m5e021ca15f" y="313.376203"/>
     <use style="fill:#e74c3c;stroke:#e74c3c;stroke-width:0.48;" x="184.563793" xlink:href="#m5e021ca15f" y="253.50084"/>
     <use style="fill:#e74c3c;stroke:#e74c3c;stroke-width:0.48;" x="177.579359" xlink:href="#m5e021ca15f" y="346.235973"/>
     <use style="fill:#e74c3c;stroke:#e74c3c;stroke-width:0.48;" x="157.49463" xlink:href="#m5e021ca15f" y="266.537464"/>
     <use style="fill:#e74c3c;stroke:#e74c3c;stroke-width:0.48;" x="188.199298" xlink:href="#m5e021ca15f" y="334.264695"/>
     <use style="fill:#e74c3c;stroke:#e74c3c;stroke-width:0.48;" x="233.078272" xlink:href="#m5e021ca15f" y="439.809225"/>
     <use style="fill:#e74c3c;stroke:#e74c3c;stroke-width:0.48;" x="164.820697" xlink:href="#m5e021ca15f" y="327.823244"/>
     <use style="fill:#e74c3c;stroke:#e74c3c;stroke-width:0.48;" x="269.536409" xlink:href="#m5e021ca15f" y="340.637866"/>
     <use style="fill:#e74c3c;stroke:#e74c3c;stroke-width:0.48;" x="346.734543" xlink:href="#m5e021ca15f" y="311.961798"/>
     <use style="fill:#e74c3c;stroke:#e74c3c;stroke-width:0.48;" x="206.406003" xlink:href="#m5e021ca15f" y="387.378494"/>
     <use style="fill:#e74c3c;stroke:#e74c3c;stroke-width:0.48;" x="170.354251" xlink:href="#m5e021ca15f" y="496.495732"/>
     <use style="fill:#e74c3c;stroke:#e74c3c;stroke-width:0.48;" x="296.928828" xlink:href="#m5e021ca15f" y="308.727404"/>
     <use style="fill:#e74c3c;stroke:#e74c3c;stroke-width:0.48;" x="492.04504" xlink:href="#m5e021ca15f" y="224.535527"/>
     <use style="fill:#e74c3c;stroke:#e74c3c;stroke-width:0.48;" x="220.159229" xlink:href="#m5e021ca15f" y="172.254039"/>
     <use style="fill:#e74c3c;stroke:#e74c3c;stroke-width:0.48;" x="159.428759" xlink:href="#m5e021ca15f" y="428.341247"/>
     <use style="fill:#e74c3c;stroke:#e74c3c;stroke-width:0.48;" x="162.242409" xlink:href="#m5e021ca15f" y="452.239677"/>
     <use style="fill:#e74c3c;stroke:#e74c3c;stroke-width:0.48;" x="191.944387" xlink:href="#m5e021ca15f" y="484.293147"/>
    </g>
   </g>
   <g id="PolyCollection_1">
    <path clip-path="url(#p6805b30992)" d="M 64.8785 373.726129 
L 64.8785 417.272657 
L 69.646508 415.147285 
L 74.414517 412.865046 
L 79.182525 410.694741 
L 83.950533 408.593317 
L 88.718541 406.675748 
L 93.48655 404.617569 
L 98.254558 402.630465 
L 103.022566 400.642737 
L 107.790574 398.796813 
L 112.558583 397.114909 
L 117.326591 395.054256 
L 122.094599 393.156129 
L 126.862607 391.664906 
L 131.630616 389.864222 
L 136.398624 388.441602 
L 141.166632 386.835233 
L 145.93464 385.197342 
L 150.702649 383.60668 
L 155.470657 382.369086 
L 160.238665 380.54085 
L 165.006673 379.131978 
L 169.774682 377.843916 
L 174.54269 376.675239 
L 179.310698 375.182534 
L 184.078706 373.956835 
L 188.846715 372.987022 
L 193.614723 372.121823 
L 198.382731 371.341303 
L 203.150739 370.542305 
L 207.918748 369.587178 
L 212.686756 368.364739 
L 217.454764 367.175769 
L 222.222772 366.097103 
L 226.990781 365.198608 
L 231.758789 364.374938 
L 236.526797 363.620371 
L 241.294805 362.936367 
L 246.062814 362.520721 
L 250.830822 362.153294 
L 255.59883 361.662519 
L 260.366839 360.749215 
L 265.134847 359.679566 
L 269.902855 359.179636 
L 274.670863 358.53755 
L 279.438872 357.731051 
L 284.20688 357.142738 
L 288.974888 356.364254 
L 293.742896 355.580649 
L 298.510905 354.788194 
L 303.278913 353.995738 
L 308.046921 353.203283 
L 312.814929 352.473294 
L 317.582938 352.046216 
L 322.350946 351.621878 
L 327.118954 351.057961 
L 331.886962 350.442419 
L 336.654971 350.044807 
L 341.422979 349.647195 
L 346.190987 349.246119 
L 350.958995 348.662698 
L 355.727004 348.098246 
L 360.495012 347.345536 
L 365.26302 346.591813 
L 370.031028 345.83809 
L 374.799037 345.289078 
L 379.567045 344.856991 
L 384.335053 344.424184 
L 389.103061 343.9913 
L 393.87107 343.558415 
L 398.639078 343.12553 
L 403.407086 342.692645 
L 408.175094 342.259761 
L 412.943103 341.826876 
L 417.711111 341.393991 
L 422.479119 340.961106 
L 427.247127 340.528222 
L 432.015136 340.095337 
L 436.783144 339.657055 
L 441.551152 339.216953 
L 446.319161 338.776851 
L 451.087169 338.336749 
L 455.855177 337.896648 
L 460.623185 337.456546 
L 465.391194 336.809659 
L 470.159202 336.099353 
L 474.92721 335.389046 
L 479.695218 334.90259 
L 484.463227 334.442574 
L 489.231235 333.982557 
L 493.999243 333.522541 
L 498.767251 333.062524 
L 503.53526 332.602508 
L 508.303268 332.142492 
L 513.071276 331.682475 
L 517.839284 331.222459 
L 522.607293 330.757973 
L 527.375301 330.292051 
L 532.143309 329.82613 
L 536.911317 329.360208 
L 536.911317 170.915906 
L 536.911317 170.915906 
L 532.143309 173.319923 
L 527.375301 175.723939 
L 522.607293 178.127955 
L 517.839284 180.531971 
L 513.071276 182.935987 
L 508.303268 185.210181 
L 503.53526 187.594864 
L 498.767251 189.980112 
L 493.999243 192.367615 
L 489.231235 194.755119 
L 484.463227 197.142622 
L 479.695218 199.532084 
L 474.92721 201.867091 
L 470.159202 204.236084 
L 465.391194 206.694825 
L 460.623185 209.080138 
L 455.855177 211.467642 
L 451.087169 213.855145 
L 446.319161 216.242648 
L 441.551152 218.630151 
L 436.783144 221.017655 
L 432.015136 223.405158 
L 427.247127 225.792661 
L 422.479119 228.180165 
L 417.711111 230.567668 
L 412.943103 232.955171 
L 408.175094 235.342674 
L 403.407086 237.730178 
L 398.639078 240.117681 
L 393.87107 242.505184 
L 389.103061 244.890962 
L 384.335053 247.133952 
L 379.567045 249.376942 
L 374.799037 251.626444 
L 370.031028 254.192387 
L 365.26302 256.850388 
L 360.495012 259.435151 
L 355.727004 262.068884 
L 350.958995 264.613719 
L 346.190987 266.843263 
L 341.422979 269.072807 
L 336.654971 271.302352 
L 331.886962 273.567031 
L 327.118954 275.949351 
L 322.350946 278.085079 
L 317.582938 280.220806 
L 312.814929 282.931259 
L 308.046921 285.394839 
L 303.278913 287.581029 
L 298.510905 289.776245 
L 293.742896 292.088625 
L 288.974888 294.707349 
L 284.20688 297.306269 
L 279.438872 299.748753 
L 274.670863 302.119638 
L 269.902855 304.26598 
L 265.134847 306.505466 
L 260.366839 308.863593 
L 255.59883 311.364066 
L 250.830822 313.865756 
L 246.062814 316.112238 
L 241.294805 318.186181 
L 236.526797 320.597574 
L 231.758789 322.88455 
L 226.990781 325.099976 
L 222.222772 326.985317 
L 217.454764 329.060157 
L 212.686756 331.046848 
L 207.918748 332.912305 
L 203.150739 334.562412 
L 198.382731 336.417411 
L 193.614723 338.557735 
L 188.846715 340.703817 
L 184.078706 342.709089 
L 179.310698 344.561745 
L 174.54269 346.520042 
L 169.774682 348.032114 
L 165.006673 349.606099 
L 160.238665 351.889289 
L 155.470657 353.25159 
L 150.702649 354.889694 
L 145.93464 356.247116 
L 141.166632 357.859859 
L 136.398624 358.98635 
L 131.630616 360.06686 
L 126.862607 361.08955 
L 122.094599 362.370869 
L 117.326591 363.080096 
L 112.558583 364.36143 
L 107.790574 365.594473 
L 103.022566 366.627767 
L 98.254558 367.94889 
L 93.48655 368.747698 
L 88.718541 369.505404 
L 83.950533 370.291958 
L 79.182525 371.454515 
L 74.414517 372.229492 
L 69.646508 373.05915 
L 64.8785 373.726129 
z
" style="fill:#4c72b0;fill-opacity:0.15;"/>
   </g>
   <g id="line2d_31">
    <path clip-path="url(#p6805b30992)" d="M 64.8785 396.350012 
L 69.646508 394.85465 
L 74.414517 393.359287 
L 79.182525 391.863924 
L 83.950533 390.368562 
L 88.718541 388.873199 
L 93.48655 387.377836 
L 98.254558 385.882474 
L 103.022566 384.387111 
L 107.790574 382.891749 
L 112.558583 381.396386 
L 117.326591 379.901023 
L 122.094599 378.405661 
L 126.862607 376.910298 
L 131.630616 375.414936 
L 136.398624 373.919573 
L 141.166632 372.42421 
L 145.93464 370.928848 
L 150.702649 369.433485 
L 155.470657 367.938123 
L 160.238665 366.44276 
L 165.006673 364.947397 
L 169.774682 363.452035 
L 174.54269 361.956672 
L 179.310698 360.461309 
L 184.078706 358.965947 
L 188.846715 357.470584 
L 193.614723 355.975222 
L 198.382731 354.479859 
L 203.150739 352.984496 
L 207.918748 351.489134 
L 212.686756 349.993771 
L 217.454764 348.498409 
L 222.222772 347.003046 
L 226.990781 345.507683 
L 231.758789 344.012321 
L 236.526797 342.516958 
L 241.294805 341.021596 
L 246.062814 339.526233 
L 250.830822 338.03087 
L 255.59883 336.535508 
L 260.366839 335.040145 
L 265.134847 333.544782 
L 269.902855 332.04942 
L 274.670863 330.554057 
L 279.438872 329.058695 
L 284.20688 327.563332 
L 288.974888 326.067969 
L 293.742896 324.572607 
L 298.510905 323.077244 
L 303.278913 321.581882 
L 308.046921 320.086519 
L 312.814929 318.591156 
L 317.582938 317.095794 
L 322.350946 315.600431 
L 327.118954 314.105069 
L 331.886962 312.609706 
L 336.654971 311.114343 
L 341.422979 309.618981 
L 346.190987 308.123618 
L 350.958995 306.628255 
L 355.727004 305.132893 
L 360.495012 303.63753 
L 365.26302 302.142168 
L 370.031028 300.646805 
L 374.799037 299.151442 
L 379.567045 297.65608 
L 384.335053 296.160717 
L 389.103061 294.665355 
L 393.87107 293.169992 
L 398.639078 291.674629 
L 403.407086 290.179267 
L 408.175094 288.683904 
L 412.943103 287.188541 
L 417.711111 285.693179 
L 422.479119 284.197816 
L 427.247127 282.702454 
L 432.015136 281.207091 
L 436.783144 279.711728 
L 441.551152 278.216366 
L 446.319161 276.721003 
L 451.087169 275.225641 
L 455.855177 273.730278 
L 460.623185 272.234915 
L 465.391194 270.739553 
L 470.159202 269.24419 
L 474.92721 267.748828 
L 479.695218 266.253465 
L 484.463227 264.758102 
L 489.231235 263.26274 
L 493.999243 261.767377 
L 498.767251 260.272014 
L 503.53526 258.776652 
L 508.303268 257.281289 
L 513.071276 255.785927 
L 517.839284 254.290564 
L 522.607293 252.795201 
L 527.375301 251.299839 
L 532.143309 249.804476 
L 536.911317 248.309114 
" style="fill:none;stroke:#4c72b0;stroke-linecap:round;stroke-width:4.2;"/>
   </g>
   <g id="patch_3">
    <path d="M 64.8785 557.1166 
L 64.8785 70.7886 
" style="fill:none;"/>
   </g>
   <g id="patch_4">
    <path d="M 64.8785 557.1166 
L 536.911317 557.1166 
" style="fill:none;"/>
   </g>
   <g id="text_18">
    <!-- Residual Analysis -->
    <defs>
     <path d="M 44.390625 34.1875 
Q 47.5625 33.109375 50.5625 29.59375 
Q 53.5625 26.078125 56.59375 19.921875 
L 66.609375 0 
L 56 0 
L 46.6875 18.703125 
Q 43.0625 26.03125 39.671875 28.421875 
Q 36.28125 30.8125 30.421875 30.8125 
L 19.671875 30.8125 
L 19.671875 0 
L 9.8125 0 
L 9.8125 72.90625 
L 32.078125 72.90625 
Q 44.578125 72.90625 50.734375 67.671875 
Q 56.890625 62.453125 56.890625 51.90625 
Q 56.890625 45.015625 53.6875 40.46875 
Q 50.484375 35.9375 44.390625 34.1875 
z
M 19.671875 64.796875 
L 19.671875 38.921875 
L 32.078125 38.921875 
Q 39.203125 38.921875 42.84375 42.21875 
Q 46.484375 45.515625 46.484375 51.90625 
Q 46.484375 58.296875 42.84375 61.546875 
Q 39.203125 64.796875 32.078125 64.796875 
z
" id="DejaVuSans-52"/>
     <path d="M 45.40625 46.390625 
L 45.40625 75.984375 
L 54.390625 75.984375 
L 54.390625 0 
L 45.40625 0 
L 45.40625 8.203125 
Q 42.578125 3.328125 38.25 0.953125 
Q 33.9375 -1.421875 27.875 -1.421875 
Q 17.96875 -1.421875 11.734375 6.484375 
Q 5.515625 14.40625 5.515625 27.296875 
Q 5.515625 40.1875 11.734375 48.09375 
Q 17.96875 56 27.875 56 
Q 33.9375 56 38.25 53.625 
Q 42.578125 51.265625 45.40625 46.390625 
z
M 14.796875 27.296875 
Q 14.796875 17.390625 18.875 11.75 
Q 22.953125 6.109375 30.078125 6.109375 
Q 37.203125 6.109375 41.296875 11.75 
Q 45.40625 17.390625 45.40625 27.296875 
Q 45.40625 37.203125 41.296875 42.84375 
Q 37.203125 48.484375 30.078125 48.484375 
Q 22.953125 48.484375 18.875 42.84375 
Q 14.796875 37.203125 14.796875 27.296875 
z
" id="DejaVuSans-64"/>
     <path d="M 34.28125 27.484375 
Q 23.390625 27.484375 19.1875 25 
Q 14.984375 22.515625 14.984375 16.5 
Q 14.984375 11.71875 18.140625 8.90625 
Q 21.296875 6.109375 26.703125 6.109375 
Q 34.1875 6.109375 38.703125 11.40625 
Q 43.21875 16.703125 43.21875 25.484375 
L 43.21875 27.484375 
z
M 52.203125 31.203125 
L 52.203125 0 
L 43.21875 0 
L 43.21875 8.296875 
Q 40.140625 3.328125 35.546875 0.953125 
Q 30.953125 -1.421875 24.3125 -1.421875 
Q 15.921875 -1.421875 10.953125 3.296875 
Q 6 8.015625 6 15.921875 
Q 6 25.140625 12.171875 29.828125 
Q 18.359375 34.515625 30.609375 34.515625 
L 43.21875 34.515625 
L 43.21875 35.40625 
Q 43.21875 41.609375 39.140625 45 
Q 35.0625 48.390625 27.6875 48.390625 
Q 23 48.390625 18.546875 47.265625 
Q 14.109375 46.140625 10.015625 43.890625 
L 10.015625 52.203125 
Q 14.9375 54.109375 19.578125 55.046875 
Q 24.21875 56 28.609375 56 
Q 40.484375 56 46.34375 49.84375 
Q 52.203125 43.703125 52.203125 31.203125 
z
" id="DejaVuSans-61"/>
    </defs>
    <g style="fill:#262626;" transform="translate(217.323909 21.789)scale(0.192 -0.192)">
     <use xlink:href="#DejaVuSans-52"/>
     <use x="69.419922" xlink:href="#DejaVuSans-65"/>
     <use x="130.943359" xlink:href="#DejaVuSans-73"/>
     <use x="183.042969" xlink:href="#DejaVuSans-69"/>
     <use x="210.826172" xlink:href="#DejaVuSans-64"/>
     <use x="274.302734" xlink:href="#DejaVuSans-75"/>
     <use x="337.681641" xlink:href="#DejaVuSans-61"/>
     <use x="398.960938" xlink:href="#DejaVuSans-6c"/>
     <use x="426.744141" xlink:href="#DejaVuSans-20"/>
     <use x="458.53125" xlink:href="#DejaVuSans-41"/>
     <use x="526.939453" xlink:href="#DejaVuSans-6e"/>
     <use x="590.318359" xlink:href="#DejaVuSans-61"/>
     <use x="651.597656" xlink:href="#DejaVuSans-6c"/>
     <use x="679.380859" xlink:href="#DejaVuSans-79"/>
     <use x="738.560547" xlink:href="#DejaVuSans-73"/>
     <use x="790.660156" xlink:href="#DejaVuSans-69"/>
     <use x="818.443359" xlink:href="#DejaVuSans-73"/>
    </g>
    <!-- Pearson: 0.1975, p-value: 0.0126 -->
    <defs>
     <path d="M 19.671875 64.796875 
L 19.671875 37.40625 
L 32.078125 37.40625 
Q 38.96875 37.40625 42.71875 40.96875 
Q 46.484375 44.53125 46.484375 51.125 
Q 46.484375 57.671875 42.71875 61.234375 
Q 38.96875 64.796875 32.078125 64.796875 
z
M 9.8125 72.90625 
L 32.078125 72.90625 
Q 44.34375 72.90625 50.609375 67.359375 
Q 56.890625 61.8125 56.890625 51.125 
Q 56.890625 40.328125 50.609375 34.8125 
Q 44.34375 29.296875 32.078125 29.296875 
L 19.671875 29.296875 
L 19.671875 0 
L 9.8125 0 
z
" id="DejaVuSans-50"/>
     <path d="M 11.71875 12.40625 
L 22.015625 12.40625 
L 22.015625 0 
L 11.71875 0 
z
M 11.71875 51.703125 
L 22.015625 51.703125 
L 22.015625 39.3125 
L 11.71875 39.3125 
z
" id="DejaVuSans-3a"/>
     <path d="M 10.984375 1.515625 
L 10.984375 10.5 
Q 14.703125 8.734375 18.5 7.8125 
Q 22.3125 6.890625 25.984375 6.890625 
Q 35.75 6.890625 40.890625 13.453125 
Q 46.046875 20.015625 46.78125 33.40625 
Q 43.953125 29.203125 39.59375 26.953125 
Q 35.25 24.703125 29.984375 24.703125 
Q 19.046875 24.703125 12.671875 31.3125 
Q 6.296875 37.9375 6.296875 49.421875 
Q 6.296875 60.640625 12.9375 67.421875 
Q 19.578125 74.21875 30.609375 74.21875 
Q 43.265625 74.21875 49.921875 64.515625 
Q 56.59375 54.828125 56.59375 36.375 
Q 56.59375 19.140625 48.40625 8.859375 
Q 40.234375 -1.421875 26.421875 -1.421875 
Q 22.703125 -1.421875 18.890625 -0.6875 
Q 15.09375 0.046875 10.984375 1.515625 
z
M 30.609375 32.421875 
Q 37.25 32.421875 41.125 36.953125 
Q 45.015625 41.5 45.015625 49.421875 
Q 45.015625 57.28125 41.125 61.84375 
Q 37.25 66.40625 30.609375 66.40625 
Q 23.96875 66.40625 20.09375 61.84375 
Q 16.21875 57.28125 16.21875 49.421875 
Q 16.21875 41.5 20.09375 36.953125 
Q 23.96875 32.421875 30.609375 32.421875 
z
" id="DejaVuSans-39"/>
     <path d="M 8.203125 72.90625 
L 55.078125 72.90625 
L 55.078125 68.703125 
L 28.609375 0 
L 18.3125 0 
L 43.21875 64.59375 
L 8.203125 64.59375 
z
" id="DejaVuSans-37"/>
     <path d="M 11.71875 12.40625 
L 22.015625 12.40625 
L 22.015625 4 
L 14.015625 -11.625 
L 7.71875 -11.625 
L 11.71875 4 
z
" id="DejaVuSans-2c"/>
     <path d="M 18.109375 8.203125 
L 18.109375 -20.796875 
L 9.078125 -20.796875 
L 9.078125 54.6875 
L 18.109375 54.6875 
L 18.109375 46.390625 
Q 20.953125 51.265625 25.265625 53.625 
Q 29.59375 56 35.59375 56 
Q 45.5625 56 51.78125 48.09375 
Q 58.015625 40.1875 58.015625 27.296875 
Q 58.015625 14.40625 51.78125 6.484375 
Q 45.5625 -1.421875 35.59375 -1.421875 
Q 29.59375 -1.421875 25.265625 0.953125 
Q 20.953125 3.328125 18.109375 8.203125 
z
M 48.6875 27.296875 
Q 48.6875 37.203125 44.609375 42.84375 
Q 40.53125 48.484375 33.40625 48.484375 
Q 26.265625 48.484375 22.1875 42.84375 
Q 18.109375 37.203125 18.109375 27.296875 
Q 18.109375 17.390625 22.1875 11.75 
Q 26.265625 6.109375 33.40625 6.109375 
Q 40.53125 6.109375 44.609375 11.75 
Q 48.6875 17.390625 48.6875 27.296875 
z
" id="DejaVuSans-70"/>
     <path d="M 4.890625 31.390625 
L 31.203125 31.390625 
L 31.203125 23.390625 
L 4.890625 23.390625 
z
" id="DejaVuSans-2d"/>
     <path d="M 2.984375 54.6875 
L 12.5 54.6875 
L 29.59375 8.796875 
L 46.6875 54.6875 
L 56.203125 54.6875 
L 35.6875 0 
L 23.484375 0 
z
" id="DejaVuSans-76"/>
    </defs>
    <g style="fill:#262626;" transform="translate(140.783409 43.2888)scale(0.192 -0.192)">
     <use xlink:href="#DejaVuSans-50"/>
     <use x="60.255859" xlink:href="#DejaVuSans-65"/>
     <use x="121.779297" xlink:href="#DejaVuSans-61"/>
     <use x="183.058594" xlink:href="#DejaVuSans-72"/>
     <use x="224.171875" xlink:href="#DejaVuSans-73"/>
     <use x="276.271484" xlink:href="#DejaVuSans-6f"/>
     <use x="337.453125" xlink:href="#DejaVuSans-6e"/>
     <use x="400.832031" xlink:href="#DejaVuSans-3a"/>
     <use x="434.523438" xlink:href="#DejaVuSans-20"/>
     <use x="466.310547" xlink:href="#DejaVuSans-30"/>
     <use x="529.933594" xlink:href="#DejaVuSans-2e"/>
     <use x="561.720703" xlink:href="#DejaVuSans-31"/>
     <use x="625.34375" xlink:href="#DejaVuSans-39"/>
     <use x="688.966797" xlink:href="#DejaVuSans-37"/>
     <use x="752.589844" xlink:href="#DejaVuSans-35"/>
     <use x="816.212891" xlink:href="#DejaVuSans-2c"/>
     <use x="848" xlink:href="#DejaVuSans-20"/>
     <use x="879.787109" xlink:href="#DejaVuSans-70"/>
     <use x="943.263672" xlink:href="#DejaVuSans-2d"/>
     <use x="979.316406" xlink:href="#DejaVuSans-76"/>
     <use x="1038.496094" xlink:href="#DejaVuSans-61"/>
     <use x="1099.775391" xlink:href="#DejaVuSans-6c"/>
     <use x="1127.558594" xlink:href="#DejaVuSans-75"/>
     <use x="1190.9375" xlink:href="#DejaVuSans-65"/>
     <use x="1252.460938" xlink:href="#DejaVuSans-3a"/>
     <use x="1286.152344" xlink:href="#DejaVuSans-20"/>
     <use x="1317.939453" xlink:href="#DejaVuSans-30"/>
     <use x="1381.5625" xlink:href="#DejaVuSans-2e"/>
     <use x="1413.349609" xlink:href="#DejaVuSans-30"/>
     <use x="1476.972656" xlink:href="#DejaVuSans-31"/>
     <use x="1540.595703" xlink:href="#DejaVuSans-32"/>
     <use x="1604.21875" xlink:href="#DejaVuSans-36"/>
    </g>
    <!-- Spearman: 0.1361, p-value: 0.0872 -->
    <defs>
     <path d="M 52 44.1875 
Q 55.375 50.25 60.0625 53.125 
Q 64.75 56 71.09375 56 
Q 79.640625 56 84.28125 50.015625 
Q 88.921875 44.046875 88.921875 33.015625 
L 88.921875 0 
L 79.890625 0 
L 79.890625 32.71875 
Q 79.890625 40.578125 77.09375 44.375 
Q 74.3125 48.1875 68.609375 48.1875 
Q 61.625 48.1875 57.5625 43.546875 
Q 53.515625 38.921875 53.515625 30.90625 
L 53.515625 0 
L 44.484375 0 
L 44.484375 32.71875 
Q 44.484375 40.625 41.703125 44.40625 
Q 38.921875 48.1875 33.109375 48.1875 
Q 26.21875 48.1875 22.15625 43.53125 
Q 18.109375 38.875 18.109375 30.90625 
L 18.109375 0 
L 9.078125 0 
L 9.078125 54.6875 
L 18.109375 54.6875 
L 18.109375 46.1875 
Q 21.1875 51.21875 25.484375 53.609375 
Q 29.78125 56 35.6875 56 
Q 41.65625 56 45.828125 52.96875 
Q 50 49.953125 52 44.1875 
z
" id="DejaVuSans-6d"/>
     <path d="M 40.578125 39.3125 
Q 47.65625 37.796875 51.625 33 
Q 55.609375 28.21875 55.609375 21.1875 
Q 55.609375 10.40625 48.1875 4.484375 
Q 40.765625 -1.421875 27.09375 -1.421875 
Q 22.515625 -1.421875 17.65625 -0.515625 
Q 12.796875 0.390625 7.625 2.203125 
L 7.625 11.71875 
Q 11.71875 9.328125 16.59375 8.109375 
Q 21.484375 6.890625 26.8125 6.890625 
Q 36.078125 6.890625 40.9375 10.546875 
Q 45.796875 14.203125 45.796875 21.1875 
Q 45.796875 27.640625 41.28125 31.265625 
Q 36.765625 34.90625 28.71875 34.90625 
L 20.21875 34.90625 
L 20.21875 43.015625 
L 29.109375 43.015625 
Q 36.375 43.015625 40.234375 45.921875 
Q 44.09375 48.828125 44.09375 54.296875 
Q 44.09375 59.90625 40.109375 62.90625 
Q 36.140625 65.921875 28.71875 65.921875 
Q 24.65625 65.921875 20.015625 65.03125 
Q 15.375 64.15625 9.8125 62.3125 
L 9.8125 71.09375 
Q 15.4375 72.65625 20.34375 73.4375 
Q 25.25 74.21875 29.59375 74.21875 
Q 40.828125 74.21875 47.359375 69.109375 
Q 53.90625 64.015625 53.90625 55.328125 
Q 53.90625 49.265625 50.4375 45.09375 
Q 46.96875 40.921875 40.578125 39.3125 
z
" id="DejaVuSans-33"/>
    </defs>
    <g style="fill:#262626;" transform="translate(130.020909 64.7886)scale(0.192 -0.192)">
     <use xlink:href="#DejaVuSans-53"/>
     <use x="63.476562" xlink:href="#DejaVuSans-70"/>
     <use x="126.953125" xlink:href="#DejaVuSans-65"/>
     <use x="188.476562" xlink:href="#DejaVuSans-61"/>
     <use x="249.755859" xlink:href="#DejaVuSans-72"/>
     <use x="290.853516" xlink:href="#DejaVuSans-6d"/>
     <use x="388.265625" xlink:href="#DejaVuSans-61"/>
     <use x="449.544922" xlink:href="#DejaVuSans-6e"/>
     <use x="512.923828" xlink:href="#DejaVuSans-3a"/>
     <use x="546.615234" xlink:href="#DejaVuSans-20"/>
     <use x="578.402344" xlink:href="#DejaVuSans-30"/>
     <use x="642.025391" xlink:href="#DejaVuSans-2e"/>
     <use x="673.8125" xlink:href="#DejaVuSans-31"/>
     <use x="737.435547" xlink:href="#DejaVuSans-33"/>
     <use x="801.058594" xlink:href="#DejaVuSans-36"/>
     <use x="864.681641" xlink:href="#DejaVuSans-31"/>
     <use x="928.304688" xlink:href="#DejaVuSans-2c"/>
     <use x="960.091797" xlink:href="#DejaVuSans-20"/>
     <use x="991.878906" xlink:href="#DejaVuSans-70"/>
     <use x="1055.355469" xlink:href="#DejaVuSans-2d"/>
     <use x="1091.408203" xlink:href="#DejaVuSans-76"/>
     <use x="1150.587891" xlink:href="#DejaVuSans-61"/>
     <use x="1211.867188" xlink:href="#DejaVuSans-6c"/>
     <use x="1239.650391" xlink:href="#DejaVuSans-75"/>
     <use x="1303.029297" xlink:href="#DejaVuSans-65"/>
     <use x="1364.552734" xlink:href="#DejaVuSans-3a"/>
     <use x="1398.244141" xlink:href="#DejaVuSans-20"/>
     <use x="1430.03125" xlink:href="#DejaVuSans-30"/>
     <use x="1493.654297" xlink:href="#DejaVuSans-2e"/>
     <use x="1525.441406" xlink:href="#DejaVuSans-30"/>
     <use x="1589.064453" xlink:href="#DejaVuSans-38"/>
     <use x="1652.6875" xlink:href="#DejaVuSans-37"/>
     <use x="1716.310547" xlink:href="#DejaVuSans-32"/>
    </g>
   </g>
  </g>
  <g id="legend_1">
   <g id="text_19">
    <!-- error_category -->
    <defs>
     <path d="M 50.984375 -16.609375 
L 50.984375 -23.578125 
L -0.984375 -23.578125 
L -0.984375 -16.609375 
z
" id="DejaVuSans-5f"/>
     <path d="M 48.78125 52.59375 
L 48.78125 44.1875 
Q 44.96875 46.296875 41.140625 47.34375 
Q 37.3125 48.390625 33.40625 48.390625 
Q 24.65625 48.390625 19.8125 42.84375 
Q 14.984375 37.3125 14.984375 27.296875 
Q 14.984375 17.28125 19.8125 11.734375 
Q 24.65625 6.203125 33.40625 6.203125 
Q 37.3125 6.203125 41.140625 7.25 
Q 44.96875 8.296875 48.78125 10.40625 
L 48.78125 2.09375 
Q 45.015625 0.34375 40.984375 -0.53125 
Q 36.96875 -1.421875 32.421875 -1.421875 
Q 20.0625 -1.421875 12.78125 6.34375 
Q 5.515625 14.109375 5.515625 27.296875 
Q 5.515625 40.671875 12.859375 48.328125 
Q 20.21875 56 33.015625 56 
Q 37.15625 56 41.109375 55.140625 
Q 45.0625 54.296875 48.78125 52.59375 
z
" id="DejaVuSans-63"/>
     <path d="M 45.40625 27.984375 
Q 45.40625 37.75 41.375 43.109375 
Q 37.359375 48.484375 30.078125 48.484375 
Q 22.859375 48.484375 18.828125 43.109375 
Q 14.796875 37.75 14.796875 27.984375 
Q 14.796875 18.265625 18.828125 12.890625 
Q 22.859375 7.515625 30.078125 7.515625 
Q 37.359375 7.515625 41.375 12.890625 
Q 45.40625 18.265625 45.40625 27.984375 
z
M 54.390625 6.78125 
Q 54.390625 -7.171875 48.1875 -13.984375 
Q 42 -20.796875 29.203125 -20.796875 
Q 24.46875 -20.796875 20.265625 -20.09375 
Q 16.0625 -19.390625 12.109375 -17.921875 
L 12.109375 -9.1875 
Q 16.0625 -11.328125 19.921875 -12.34375 
Q 23.78125 -13.375 27.78125 -13.375 
Q 36.625 -13.375 41.015625 -8.765625 
Q 45.40625 -4.15625 45.40625 5.171875 
L 45.40625 9.625 
Q 42.625 4.78125 38.28125 2.390625 
Q 33.9375 0 27.875 0 
Q 17.828125 0 11.671875 7.65625 
Q 5.515625 15.328125 5.515625 27.984375 
Q 5.515625 40.671875 11.671875 48.328125 
Q 17.828125 56 27.875 56 
Q 33.9375 56 38.28125 53.609375 
Q 42.625 51.21875 45.40625 46.390625 
L 45.40625 54.6875 
L 54.390625 54.6875 
z
" id="DejaVuSans-67"/>
    </defs>
    <g style="fill:#262626;" transform="translate(542.527255 274.710037)scale(0.1496 -0.1496)">
     <use xlink:href="#DejaVuSans-65"/>
     <use x="61.523438" xlink:href="#DejaVuSans-72"/>
     <use x="102.621094" xlink:href="#DejaVuSans-72"/>
     <use x="143.703125" xlink:href="#DejaVuSans-6f"/>
     <use x="204.884766" xlink:href="#DejaVuSans-72"/>
     <use x="245.998047" xlink:href="#DejaVuSans-5f"/>
     <use x="295.998047" xlink:href="#DejaVuSans-63"/>
     <use x="350.978516" xlink:href="#DejaVuSans-61"/>
     <use x="412.257812" xlink:href="#DejaVuSans-74"/>
     <use x="451.466797" xlink:href="#DejaVuSans-65"/>
     <use x="512.990234" xlink:href="#DejaVuSans-67"/>
     <use x="576.466797" xlink:href="#DejaVuSans-6f"/>
     <use x="637.648438" xlink:href="#DejaVuSans-72"/>
     <use x="678.761719" xlink:href="#DejaVuSans-79"/>
    </g>
   </g>
   <g id="PathCollection_4">
    <g>
     <use style="fill:#2ecc71;stroke:#2ecc71;stroke-width:0.48;" x="558.011067" xlink:href="#mbaa3d84df4" y="294.194825"/>
    </g>
   </g>
   <g id="text_20">
    <!-- Good -->
    <g style="fill:#262626;" transform="translate(586.811067 298.394825)scale(0.16 -0.16)">
     <use xlink:href="#DejaVuSans-47"/>
     <use x="77.490234" xlink:href="#DejaVuSans-6f"/>
     <use x="138.671875" xlink:href="#DejaVuSans-6f"/>
     <use x="199.853516" xlink:href="#DejaVuSans-64"/>
    </g>
   </g>
   <g id="PathCollection_5">
    <g>
     <use style="fill:#34495e;stroke:#34495e;stroke-width:0.48;" x="558.011067" xlink:href="#m0c67bcb54c" y="317.679825"/>
    </g>
   </g>
   <g id="text_21">
    <!-- Average -->
    <g style="fill:#262626;" transform="translate(586.811067 321.879825)scale(0.16 -0.16)">
     <use xlink:href="#DejaVuSans-41"/>
     <use x="68.330078" xlink:href="#DejaVuSans-76"/>
     <use x="127.509766" xlink:href="#DejaVuSans-65"/>
     <use x="189.033203" xlink:href="#DejaVuSans-72"/>
     <use x="230.146484" xlink:href="#DejaVuSans-61"/>
     <use x="291.425781" xlink:href="#DejaVuSans-67"/>
     <use x="354.902344" xlink:href="#DejaVuSans-65"/>
    </g>
   </g>
   <g id="PathCollection_6">
    <g>
     <use style="fill:#e74c3c;stroke:#e74c3c;stroke-width:0.48;" x="558.011067" xlink:href="#m5e021ca15f" y="341.164825"/>
    </g>
   </g>
   <g id="text_22">
    <!-- Bad -->
    <defs>
     <path d="M 19.671875 34.8125 
L 19.671875 8.109375 
L 35.5 8.109375 
Q 43.453125 8.109375 47.28125 11.40625 
Q 51.125 14.703125 51.125 21.484375 
Q 51.125 28.328125 47.28125 31.5625 
Q 43.453125 34.8125 35.5 34.8125 
z
M 19.671875 64.796875 
L 19.671875 42.828125 
L 34.28125 42.828125 
Q 41.5 42.828125 45.03125 45.53125 
Q 48.578125 48.25 48.578125 53.8125 
Q 48.578125 59.328125 45.03125 62.0625 
Q 41.5 64.796875 34.28125 64.796875 
z
M 9.8125 72.90625 
L 35.015625 72.90625 
Q 46.296875 72.90625 52.390625 68.21875 
Q 58.5 63.53125 58.5 54.890625 
Q 58.5 48.1875 55.375 44.234375 
Q 52.25 40.28125 46.1875 39.3125 
Q 53.46875 37.75 57.5 32.78125 
Q 61.53125 27.828125 61.53125 20.40625 
Q 61.53125 10.640625 54.890625 5.3125 
Q 48.25 0 35.984375 0 
L 9.8125 0 
z
" id="DejaVuSans-42"/>
    </defs>
    <g style="fill:#262626;" transform="translate(586.811067 345.364825)scale(0.16 -0.16)">
     <use xlink:href="#DejaVuSans-42"/>
     <use x="68.603516" xlink:href="#DejaVuSans-61"/>
     <use x="129.882812" xlink:href="#DejaVuSans-64"/>
    </g>
   </g>
  </g>
 </g>
 <defs>
  <clipPath id="p6805b30992">
   <rect height="486.328" width="472.032817" x="64.8785" y="70.7886"/>
  </clipPath>
 </defs>
</svg>
