<?xml version="1.0" encoding="utf-8" standalone="no"?>
<!DOCTYPE svg PUBLIC "-//W3C//DTD SVG 1.1//EN"
  "http://www.w3.org/Graphics/SVG/1.1/DTD/svg11.dtd">
<!-- Created with matplotlib (http://matplotlib.org/) -->
<svg height="612pt" version="1.1" viewBox="0 0 571 612" width="571pt" xmlns="http://www.w3.org/2000/svg" xmlns:xlink="http://www.w3.org/1999/xlink">
 <defs>
  <style type="text/css">
*{stroke-linecap:butt;stroke-linejoin:round;}
  </style>
 </defs>
 <g id="figure_1">
  <g id="patch_1">
   <path d="M 0 612.0351 
L 571.27795 612.0351 
L 571.27795 0 
L 0 0 
z
" style="fill:#ffffff;"/>
  </g>
  <g id="axes_1">
   <g id="patch_2">
    <path d="M 64.8785 557.1166 
L 553.38995 557.1166 
L 553.38995 70.7886 
L 64.8785 70.7886 
z
" style="fill:#eaeaf2;"/>
   </g>
   <g id="matplotlib.axis_1">
    <g id="xtick_1">
     <g id="line2d_1">
      <path clip-path="url(#p9138039902)" d="M 115.469098 557.1166 
L 115.469098 70.7886 
" style="fill:none;stroke:#ffffff;stroke-linecap:round;stroke-width:1.6;"/>
     </g>
     <g id="line2d_2"/>
     <g id="text_1">
      <!-- 60 -->
      <defs>
       <path d="M 33.015625 40.375 
Q 26.375 40.375 22.484375 35.828125 
Q 18.609375 31.296875 18.609375 23.390625 
Q 18.609375 15.53125 22.484375 10.953125 
Q 26.375 6.390625 33.015625 6.390625 
Q 39.65625 6.390625 43.53125 10.953125 
Q 47.40625 15.53125 47.40625 23.390625 
Q 47.40625 31.296875 43.53125 35.828125 
Q 39.65625 40.375 33.015625 40.375 
z
M 52.59375 71.296875 
L 52.59375 62.3125 
Q 48.875 64.0625 45.09375 64.984375 
Q 41.3125 65.921875 37.59375 65.921875 
Q 27.828125 65.921875 22.671875 59.328125 
Q 17.53125 52.734375 16.796875 39.40625 
Q 19.671875 43.65625 24.015625 45.921875 
Q 28.375 48.1875 33.59375 48.1875 
Q 44.578125 48.1875 50.953125 41.515625 
Q 57.328125 34.859375 57.328125 23.390625 
Q 57.328125 12.15625 50.6875 5.359375 
Q 44.046875 -1.421875 33.015625 -1.421875 
Q 20.359375 -1.421875 13.671875 8.265625 
Q 6.984375 17.96875 6.984375 36.375 
Q 6.984375 53.65625 15.1875 63.9375 
Q 23.390625 74.21875 37.203125 74.21875 
Q 40.921875 74.21875 44.703125 73.484375 
Q 48.484375 72.75 52.59375 71.296875 
z
" id="DejaVuSans-36"/>
       <path d="M 31.78125 66.40625 
Q 24.171875 66.40625 20.328125 58.90625 
Q 16.5 51.421875 16.5 36.375 
Q 16.5 21.390625 20.328125 13.890625 
Q 24.171875 6.390625 31.78125 6.390625 
Q 39.453125 6.390625 43.28125 13.890625 
Q 47.125 21.390625 47.125 36.375 
Q 47.125 51.421875 43.28125 58.90625 
Q 39.453125 66.40625 31.78125 66.40625 
z
M 31.78125 74.21875 
Q 44.046875 74.21875 50.515625 64.515625 
Q 56.984375 54.828125 56.984375 36.375 
Q 56.984375 17.96875 50.515625 8.265625 
Q 44.046875 -1.421875 31.78125 -1.421875 
Q 19.53125 -1.421875 13.0625 8.265625 
Q 6.59375 17.96875 6.59375 36.375 
Q 6.59375 54.828125 13.0625 64.515625 
Q 19.53125 74.21875 31.78125 74.21875 
z
" id="DejaVuSans-30"/>
      </defs>
      <g style="fill:#262626;" transform="translate(105.289098 580.4741)scale(0.16 -0.16)">
       <use xlink:href="#DejaVuSans-36"/>
       <use x="63.623047" xlink:href="#DejaVuSans-30"/>
      </g>
     </g>
    </g>
    <g id="xtick_2">
     <g id="line2d_3">
      <path clip-path="url(#p9138039902)" d="M 202.129362 557.1166 
L 202.129362 70.7886 
" style="fill:none;stroke:#ffffff;stroke-linecap:round;stroke-width:1.6;"/>
     </g>
     <g id="line2d_4"/>
     <g id="text_2">
      <!-- 80 -->
      <defs>
       <path d="M 31.78125 34.625 
Q 24.75 34.625 20.71875 30.859375 
Q 16.703125 27.09375 16.703125 20.515625 
Q 16.703125 13.921875 20.71875 10.15625 
Q 24.75 6.390625 31.78125 6.390625 
Q 38.8125 6.390625 42.859375 10.171875 
Q 46.921875 13.96875 46.921875 20.515625 
Q 46.921875 27.09375 42.890625 30.859375 
Q 38.875 34.625 31.78125 34.625 
z
M 21.921875 38.8125 
Q 15.578125 40.375 12.03125 44.71875 
Q 8.5 49.078125 8.5 55.328125 
Q 8.5 64.0625 14.71875 69.140625 
Q 20.953125 74.21875 31.78125 74.21875 
Q 42.671875 74.21875 48.875 69.140625 
Q 55.078125 64.0625 55.078125 55.328125 
Q 55.078125 49.078125 51.53125 44.71875 
Q 48 40.375 41.703125 38.8125 
Q 48.828125 37.15625 52.796875 32.3125 
Q 56.78125 27.484375 56.78125 20.515625 
Q 56.78125 9.90625 50.3125 4.234375 
Q 43.84375 -1.421875 31.78125 -1.421875 
Q 19.734375 -1.421875 13.25 4.234375 
Q 6.78125 9.90625 6.78125 20.515625 
Q 6.78125 27.484375 10.78125 32.3125 
Q 14.796875 37.15625 21.921875 38.8125 
z
M 18.3125 54.390625 
Q 18.3125 48.734375 21.84375 45.5625 
Q 25.390625 42.390625 31.78125 42.390625 
Q 38.140625 42.390625 41.71875 45.5625 
Q 45.3125 48.734375 45.3125 54.390625 
Q 45.3125 60.0625 41.71875 63.234375 
Q 38.140625 66.40625 31.78125 66.40625 
Q 25.390625 66.40625 21.84375 63.234375 
Q 18.3125 60.0625 18.3125 54.390625 
z
" id="DejaVuSans-38"/>
      </defs>
      <g style="fill:#262626;" transform="translate(191.949362 580.4741)scale(0.16 -0.16)">
       <use xlink:href="#DejaVuSans-38"/>
       <use x="63.623047" xlink:href="#DejaVuSans-30"/>
      </g>
     </g>
    </g>
    <g id="xtick_3">
     <g id="line2d_5">
      <path clip-path="url(#p9138039902)" d="M 288.789626 557.1166 
L 288.789626 70.7886 
" style="fill:none;stroke:#ffffff;stroke-linecap:round;stroke-width:1.6;"/>
     </g>
     <g id="line2d_6"/>
     <g id="text_3">
      <!-- 100 -->
      <defs>
       <path d="M 12.40625 8.296875 
L 28.515625 8.296875 
L 28.515625 63.921875 
L 10.984375 60.40625 
L 10.984375 69.390625 
L 28.421875 72.90625 
L 38.28125 72.90625 
L 38.28125 8.296875 
L 54.390625 8.296875 
L 54.390625 0 
L 12.40625 0 
z
" id="DejaVuSans-31"/>
      </defs>
      <g style="fill:#262626;" transform="translate(273.519626 580.4741)scale(0.16 -0.16)">
       <use xlink:href="#DejaVuSans-31"/>
       <use x="63.623047" xlink:href="#DejaVuSans-30"/>
       <use x="127.246094" xlink:href="#DejaVuSans-30"/>
      </g>
     </g>
    </g>
    <g id="xtick_4">
     <g id="line2d_7">
      <path clip-path="url(#p9138039902)" d="M 375.449889 557.1166 
L 375.449889 70.7886 
" style="fill:none;stroke:#ffffff;stroke-linecap:round;stroke-width:1.6;"/>
     </g>
     <g id="line2d_8"/>
     <g id="text_4">
      <!-- 120 -->
      <defs>
       <path d="M 19.1875 8.296875 
L 53.609375 8.296875 
L 53.609375 0 
L 7.328125 0 
L 7.328125 8.296875 
Q 12.9375 14.109375 22.625 23.890625 
Q 32.328125 33.6875 34.8125 36.53125 
Q 39.546875 41.84375 41.421875 45.53125 
Q 43.3125 49.21875 43.3125 52.78125 
Q 43.3125 58.59375 39.234375 62.25 
Q 35.15625 65.921875 28.609375 65.921875 
Q 23.96875 65.921875 18.8125 64.3125 
Q 13.671875 62.703125 7.8125 59.421875 
L 7.8125 69.390625 
Q 13.765625 71.78125 18.9375 73 
Q 24.125 74.21875 28.421875 74.21875 
Q 39.75 74.21875 46.484375 68.546875 
Q 53.21875 62.890625 53.21875 53.421875 
Q 53.21875 48.921875 51.53125 44.890625 
Q 49.859375 40.875 45.40625 35.40625 
Q 44.1875 33.984375 37.640625 27.21875 
Q 31.109375 20.453125 19.1875 8.296875 
z
" id="DejaVuSans-32"/>
      </defs>
      <g style="fill:#262626;" transform="translate(360.179889 580.4741)scale(0.16 -0.16)">
       <use xlink:href="#DejaVuSans-31"/>
       <use x="63.623047" xlink:href="#DejaVuSans-32"/>
       <use x="127.246094" xlink:href="#DejaVuSans-30"/>
      </g>
     </g>
    </g>
    <g id="xtick_5">
     <g id="line2d_9">
      <path clip-path="url(#p9138039902)" d="M 462.110153 557.1166 
L 462.110153 70.7886 
" style="fill:none;stroke:#ffffff;stroke-linecap:round;stroke-width:1.6;"/>
     </g>
     <g id="line2d_10"/>
     <g id="text_5">
      <!-- 140 -->
      <defs>
       <path d="M 37.796875 64.3125 
L 12.890625 25.390625 
L 37.796875 25.390625 
z
M 35.203125 72.90625 
L 47.609375 72.90625 
L 47.609375 25.390625 
L 58.015625 25.390625 
L 58.015625 17.1875 
L 47.609375 17.1875 
L 47.609375 0 
L 37.796875 0 
L 37.796875 17.1875 
L 4.890625 17.1875 
L 4.890625 26.703125 
z
" id="DejaVuSans-34"/>
      </defs>
      <g style="fill:#262626;" transform="translate(446.840153 580.4741)scale(0.16 -0.16)">
       <use xlink:href="#DejaVuSans-31"/>
       <use x="63.623047" xlink:href="#DejaVuSans-34"/>
       <use x="127.246094" xlink:href="#DejaVuSans-30"/>
      </g>
     </g>
    </g>
    <g id="xtick_6">
     <g id="line2d_11">
      <path clip-path="url(#p9138039902)" d="M 548.770417 557.1166 
L 548.770417 70.7886 
" style="fill:none;stroke:#ffffff;stroke-linecap:round;stroke-width:1.6;"/>
     </g>
     <g id="line2d_12"/>
     <g id="text_6">
      <!-- 160 -->
      <g style="fill:#262626;" transform="translate(533.500417 580.4741)scale(0.16 -0.16)">
       <use xlink:href="#DejaVuSans-31"/>
       <use x="63.623047" xlink:href="#DejaVuSans-36"/>
       <use x="127.246094" xlink:href="#DejaVuSans-30"/>
      </g>
     </g>
    </g>
    <g id="text_7">
     <!-- Absolute Error -->
     <defs>
      <path d="M 34.1875 63.1875 
L 20.796875 26.90625 
L 47.609375 26.90625 
z
M 28.609375 72.90625 
L 39.796875 72.90625 
L 67.578125 0 
L 57.328125 0 
L 50.6875 18.703125 
L 17.828125 18.703125 
L 11.1875 0 
L 0.78125 0 
z
" id="DejaVuSans-41"/>
      <path d="M 48.6875 27.296875 
Q 48.6875 37.203125 44.609375 42.84375 
Q 40.53125 48.484375 33.40625 48.484375 
Q 26.265625 48.484375 22.1875 42.84375 
Q 18.109375 37.203125 18.109375 27.296875 
Q 18.109375 17.390625 22.1875 11.75 
Q 26.265625 6.109375 33.40625 6.109375 
Q 40.53125 6.109375 44.609375 11.75 
Q 48.6875 17.390625 48.6875 27.296875 
z
M 18.109375 46.390625 
Q 20.953125 51.265625 25.265625 53.625 
Q 29.59375 56 35.59375 56 
Q 45.5625 56 51.78125 48.09375 
Q 58.015625 40.1875 58.015625 27.296875 
Q 58.015625 14.40625 51.78125 6.484375 
Q 45.5625 -1.421875 35.59375 -1.421875 
Q 29.59375 -1.421875 25.265625 0.953125 
Q 20.953125 3.328125 18.109375 8.203125 
L 18.109375 0 
L 9.078125 0 
L 9.078125 75.984375 
L 18.109375 75.984375 
z
" id="DejaVuSans-62"/>
      <path d="M 44.28125 53.078125 
L 44.28125 44.578125 
Q 40.484375 46.53125 36.375 47.5 
Q 32.28125 48.484375 27.875 48.484375 
Q 21.1875 48.484375 17.84375 46.4375 
Q 14.5 44.390625 14.5 40.28125 
Q 14.5 37.15625 16.890625 35.375 
Q 19.28125 33.59375 26.515625 31.984375 
L 29.59375 31.296875 
Q 39.15625 29.25 43.1875 25.515625 
Q 47.21875 21.78125 47.21875 15.09375 
Q 47.21875 7.46875 41.1875 3.015625 
Q 35.15625 -1.421875 24.609375 -1.421875 
Q 20.21875 -1.421875 15.453125 -0.5625 
Q 10.6875 0.296875 5.421875 2 
L 5.421875 11.28125 
Q 10.40625 8.6875 15.234375 7.390625 
Q 20.0625 6.109375 24.8125 6.109375 
Q 31.15625 6.109375 34.5625 8.28125 
Q 37.984375 10.453125 37.984375 14.40625 
Q 37.984375 18.0625 35.515625 20.015625 
Q 33.0625 21.96875 24.703125 23.78125 
L 21.578125 24.515625 
Q 13.234375 26.265625 9.515625 29.90625 
Q 5.8125 33.546875 5.8125 39.890625 
Q 5.8125 47.609375 11.28125 51.796875 
Q 16.75 56 26.8125 56 
Q 31.78125 56 36.171875 55.265625 
Q 40.578125 54.546875 44.28125 53.078125 
z
" id="DejaVuSans-73"/>
      <path d="M 30.609375 48.390625 
Q 23.390625 48.390625 19.1875 42.75 
Q 14.984375 37.109375 14.984375 27.296875 
Q 14.984375 17.484375 19.15625 11.84375 
Q 23.34375 6.203125 30.609375 6.203125 
Q 37.796875 6.203125 41.984375 11.859375 
Q 46.1875 17.53125 46.1875 27.296875 
Q 46.1875 37.015625 41.984375 42.703125 
Q 37.796875 48.390625 30.609375 48.390625 
z
M 30.609375 56 
Q 42.328125 56 49.015625 48.375 
Q 55.71875 40.765625 55.71875 27.296875 
Q 55.71875 13.875 49.015625 6.21875 
Q 42.328125 -1.421875 30.609375 -1.421875 
Q 18.84375 -1.421875 12.171875 6.21875 
Q 5.515625 13.875 5.515625 27.296875 
Q 5.515625 40.765625 12.171875 48.375 
Q 18.84375 56 30.609375 56 
z
" id="DejaVuSans-6f"/>
      <path d="M 9.421875 75.984375 
L 18.40625 75.984375 
L 18.40625 0 
L 9.421875 0 
z
" id="DejaVuSans-6c"/>
      <path d="M 8.5 21.578125 
L 8.5 54.6875 
L 17.484375 54.6875 
L 17.484375 21.921875 
Q 17.484375 14.15625 20.5 10.265625 
Q 23.53125 6.390625 29.59375 6.390625 
Q 36.859375 6.390625 41.078125 11.03125 
Q 45.3125 15.671875 45.3125 23.6875 
L 45.3125 54.6875 
L 54.296875 54.6875 
L 54.296875 0 
L 45.3125 0 
L 45.3125 8.40625 
Q 42.046875 3.421875 37.71875 1 
Q 33.40625 -1.421875 27.6875 -1.421875 
Q 18.265625 -1.421875 13.375 4.4375 
Q 8.5 10.296875 8.5 21.578125 
z
M 31.109375 56 
z
" id="DejaVuSans-75"/>
      <path d="M 18.3125 70.21875 
L 18.3125 54.6875 
L 36.8125 54.6875 
L 36.8125 47.703125 
L 18.3125 47.703125 
L 18.3125 18.015625 
Q 18.3125 11.328125 20.140625 9.421875 
Q 21.96875 7.515625 27.59375 7.515625 
L 36.8125 7.515625 
L 36.8125 0 
L 27.59375 0 
Q 17.1875 0 13.234375 3.875 
Q 9.28125 7.765625 9.28125 18.015625 
L 9.28125 47.703125 
L 2.6875 47.703125 
L 2.6875 54.6875 
L 9.28125 54.6875 
L 9.28125 70.21875 
z
" id="DejaVuSans-74"/>
      <path d="M 56.203125 29.59375 
L 56.203125 25.203125 
L 14.890625 25.203125 
Q 15.484375 15.921875 20.484375 11.0625 
Q 25.484375 6.203125 34.421875 6.203125 
Q 39.59375 6.203125 44.453125 7.46875 
Q 49.3125 8.734375 54.109375 11.28125 
L 54.109375 2.78125 
Q 49.265625 0.734375 44.1875 -0.34375 
Q 39.109375 -1.421875 33.890625 -1.421875 
Q 20.796875 -1.421875 13.15625 6.1875 
Q 5.515625 13.8125 5.515625 26.8125 
Q 5.515625 40.234375 12.765625 48.109375 
Q 20.015625 56 32.328125 56 
Q 43.359375 56 49.78125 48.890625 
Q 56.203125 41.796875 56.203125 29.59375 
z
M 47.21875 32.234375 
Q 47.125 39.59375 43.09375 43.984375 
Q 39.0625 48.390625 32.421875 48.390625 
Q 24.90625 48.390625 20.390625 44.140625 
Q 15.875 39.890625 15.1875 32.171875 
z
" id="DejaVuSans-65"/>
      <path id="DejaVuSans-20"/>
      <path d="M 9.8125 72.90625 
L 55.90625 72.90625 
L 55.90625 64.59375 
L 19.671875 64.59375 
L 19.671875 43.015625 
L 54.390625 43.015625 
L 54.390625 34.71875 
L 19.671875 34.71875 
L 19.671875 8.296875 
L 56.78125 8.296875 
L 56.78125 0 
L 9.8125 0 
z
" id="DejaVuSans-45"/>
      <path d="M 41.109375 46.296875 
Q 39.59375 47.171875 37.8125 47.578125 
Q 36.03125 48 33.890625 48 
Q 26.265625 48 22.1875 43.046875 
Q 18.109375 38.09375 18.109375 28.8125 
L 18.109375 0 
L 9.078125 0 
L 9.078125 54.6875 
L 18.109375 54.6875 
L 18.109375 46.1875 
Q 20.953125 51.171875 25.484375 53.578125 
Q 30.03125 56 36.53125 56 
Q 37.453125 56 38.578125 55.875 
Q 39.703125 55.765625 41.0625 55.515625 
z
" id="DejaVuSans-72"/>
     </defs>
     <g style="fill:#262626;" transform="translate(246.082225 601.17485)scale(0.176 -0.176)">
      <use xlink:href="#DejaVuSans-41"/>
      <use x="68.408203" xlink:href="#DejaVuSans-62"/>
      <use x="131.884766" xlink:href="#DejaVuSans-73"/>
      <use x="183.984375" xlink:href="#DejaVuSans-6f"/>
      <use x="245.166016" xlink:href="#DejaVuSans-6c"/>
      <use x="272.949219" xlink:href="#DejaVuSans-75"/>
      <use x="336.328125" xlink:href="#DejaVuSans-74"/>
      <use x="375.537109" xlink:href="#DejaVuSans-65"/>
      <use x="437.060547" xlink:href="#DejaVuSans-20"/>
      <use x="468.847656" xlink:href="#DejaVuSans-45"/>
      <use x="532.03125" xlink:href="#DejaVuSans-72"/>
      <use x="573.128906" xlink:href="#DejaVuSans-72"/>
      <use x="614.210938" xlink:href="#DejaVuSans-6f"/>
      <use x="675.392578" xlink:href="#DejaVuSans-72"/>
     </g>
    </g>
   </g>
   <g id="matplotlib.axis_2">
    <g id="ytick_1">
     <g id="line2d_13">
      <path clip-path="url(#p9138039902)" d="M 64.8785 534.550192 
L 553.38995 534.550192 
" style="fill:none;stroke:#ffffff;stroke-linecap:round;stroke-width:1.6;"/>
     </g>
     <g id="line2d_14"/>
     <g id="text_8">
      <!-- 0.6 -->
      <defs>
       <path d="M 10.6875 12.40625 
L 21 12.40625 
L 21 0 
L 10.6875 0 
z
" id="DejaVuSans-2e"/>
      </defs>
      <g style="fill:#262626;" transform="translate(28.2335 540.628942)scale(0.16 -0.16)">
       <use xlink:href="#DejaVuSans-30"/>
       <use x="63.623047" xlink:href="#DejaVuSans-2e"/>
       <use x="95.410156" xlink:href="#DejaVuSans-36"/>
      </g>
     </g>
    </g>
    <g id="ytick_2">
     <g id="line2d_15">
      <path clip-path="url(#p9138039902)" d="M 64.8785 478.256901 
L 553.38995 478.256901 
" style="fill:none;stroke:#ffffff;stroke-linecap:round;stroke-width:1.6;"/>
     </g>
     <g id="line2d_16"/>
     <g id="text_9">
      <!-- 0.8 -->
      <g style="fill:#262626;" transform="translate(28.2335 484.335651)scale(0.16 -0.16)">
       <use xlink:href="#DejaVuSans-30"/>
       <use x="63.623047" xlink:href="#DejaVuSans-2e"/>
       <use x="95.410156" xlink:href="#DejaVuSans-38"/>
      </g>
     </g>
    </g>
    <g id="ytick_3">
     <g id="line2d_17">
      <path clip-path="url(#p9138039902)" d="M 64.8785 421.963609 
L 553.38995 421.963609 
" style="fill:none;stroke:#ffffff;stroke-linecap:round;stroke-width:1.6;"/>
     </g>
     <g id="line2d_18"/>
     <g id="text_10">
      <!-- 1.0 -->
      <g style="fill:#262626;" transform="translate(28.2335 428.042359)scale(0.16 -0.16)">
       <use xlink:href="#DejaVuSans-31"/>
       <use x="63.623047" xlink:href="#DejaVuSans-2e"/>
       <use x="95.410156" xlink:href="#DejaVuSans-30"/>
      </g>
     </g>
    </g>
    <g id="ytick_4">
     <g id="line2d_19">
      <path clip-path="url(#p9138039902)" d="M 64.8785 365.670318 
L 553.38995 365.670318 
" style="fill:none;stroke:#ffffff;stroke-linecap:round;stroke-width:1.6;"/>
     </g>
     <g id="line2d_20"/>
     <g id="text_11">
      <!-- 1.2 -->
      <g style="fill:#262626;" transform="translate(28.2335 371.749068)scale(0.16 -0.16)">
       <use xlink:href="#DejaVuSans-31"/>
       <use x="63.623047" xlink:href="#DejaVuSans-2e"/>
       <use x="95.410156" xlink:href="#DejaVuSans-32"/>
      </g>
     </g>
    </g>
    <g id="ytick_5">
     <g id="line2d_21">
      <path clip-path="url(#p9138039902)" d="M 64.8785 309.377026 
L 553.38995 309.377026 
" style="fill:none;stroke:#ffffff;stroke-linecap:round;stroke-width:1.6;"/>
     </g>
     <g id="line2d_22"/>
     <g id="text_12">
      <!-- 1.4 -->
      <g style="fill:#262626;" transform="translate(28.2335 315.455776)scale(0.16 -0.16)">
       <use xlink:href="#DejaVuSans-31"/>
       <use x="63.623047" xlink:href="#DejaVuSans-2e"/>
       <use x="95.410156" xlink:href="#DejaVuSans-34"/>
      </g>
     </g>
    </g>
    <g id="ytick_6">
     <g id="line2d_23">
      <path clip-path="url(#p9138039902)" d="M 64.8785 253.083734 
L 553.38995 253.083734 
" style="fill:none;stroke:#ffffff;stroke-linecap:round;stroke-width:1.6;"/>
     </g>
     <g id="line2d_24"/>
     <g id="text_13">
      <!-- 1.6 -->
      <g style="fill:#262626;" transform="translate(28.2335 259.162484)scale(0.16 -0.16)">
       <use xlink:href="#DejaVuSans-31"/>
       <use x="63.623047" xlink:href="#DejaVuSans-2e"/>
       <use x="95.410156" xlink:href="#DejaVuSans-36"/>
      </g>
     </g>
    </g>
    <g id="ytick_7">
     <g id="line2d_25">
      <path clip-path="url(#p9138039902)" d="M 64.8785 196.790443 
L 553.38995 196.790443 
" style="fill:none;stroke:#ffffff;stroke-linecap:round;stroke-width:1.6;"/>
     </g>
     <g id="line2d_26"/>
     <g id="text_14">
      <!-- 1.8 -->
      <g style="fill:#262626;" transform="translate(28.2335 202.869193)scale(0.16 -0.16)">
       <use xlink:href="#DejaVuSans-31"/>
       <use x="63.623047" xlink:href="#DejaVuSans-2e"/>
       <use x="95.410156" xlink:href="#DejaVuSans-38"/>
      </g>
     </g>
    </g>
    <g id="ytick_8">
     <g id="line2d_27">
      <path clip-path="url(#p9138039902)" d="M 64.8785 140.497151 
L 553.38995 140.497151 
" style="fill:none;stroke:#ffffff;stroke-linecap:round;stroke-width:1.6;"/>
     </g>
     <g id="line2d_28"/>
     <g id="text_15">
      <!-- 2.0 -->
      <g style="fill:#262626;" transform="translate(28.2335 146.575901)scale(0.16 -0.16)">
       <use xlink:href="#DejaVuSans-32"/>
       <use x="63.623047" xlink:href="#DejaVuSans-2e"/>
       <use x="95.410156" xlink:href="#DejaVuSans-30"/>
      </g>
     </g>
    </g>
    <g id="ytick_9">
     <g id="line2d_29">
      <path clip-path="url(#p9138039902)" d="M 64.8785 84.20386 
L 553.38995 84.20386 
" style="fill:none;stroke:#ffffff;stroke-linecap:round;stroke-width:1.6;"/>
     </g>
     <g id="line2d_30"/>
     <g id="text_16">
      <!-- 2.2 -->
      <g style="fill:#262626;" transform="translate(28.2335 90.28261)scale(0.16 -0.16)">
       <use xlink:href="#DejaVuSans-32"/>
       <use x="63.623047" xlink:href="#DejaVuSans-2e"/>
       <use x="95.410156" xlink:href="#DejaVuSans-32"/>
      </g>
     </g>
    </g>
    <g id="text_17">
     <!-- GSV Density -->
     <defs>
      <path d="M 59.515625 10.40625 
L 59.515625 29.984375 
L 43.40625 29.984375 
L 43.40625 38.09375 
L 69.28125 38.09375 
L 69.28125 6.78125 
Q 63.578125 2.734375 56.6875 0.65625 
Q 49.8125 -1.421875 42 -1.421875 
Q 24.90625 -1.421875 15.25 8.5625 
Q 5.609375 18.5625 5.609375 36.375 
Q 5.609375 54.25 15.25 64.234375 
Q 24.90625 74.21875 42 74.21875 
Q 49.125 74.21875 55.546875 72.453125 
Q 61.96875 70.703125 67.390625 67.28125 
L 67.390625 56.78125 
Q 61.921875 61.421875 55.765625 63.765625 
Q 49.609375 66.109375 42.828125 66.109375 
Q 29.4375 66.109375 22.71875 58.640625 
Q 16.015625 51.171875 16.015625 36.375 
Q 16.015625 21.625 22.71875 14.15625 
Q 29.4375 6.6875 42.828125 6.6875 
Q 48.046875 6.6875 52.140625 7.59375 
Q 56.25 8.5 59.515625 10.40625 
z
" id="DejaVuSans-47"/>
      <path d="M 53.515625 70.515625 
L 53.515625 60.890625 
Q 47.90625 63.578125 42.921875 64.890625 
Q 37.9375 66.21875 33.296875 66.21875 
Q 25.25 66.21875 20.875 63.09375 
Q 16.5 59.96875 16.5 54.203125 
Q 16.5 49.359375 19.40625 46.890625 
Q 22.3125 44.4375 30.421875 42.921875 
L 36.375 41.703125 
Q 47.40625 39.59375 52.65625 34.296875 
Q 57.90625 29 57.90625 20.125 
Q 57.90625 9.515625 50.796875 4.046875 
Q 43.703125 -1.421875 29.984375 -1.421875 
Q 24.8125 -1.421875 18.96875 -0.25 
Q 13.140625 0.921875 6.890625 3.21875 
L 6.890625 13.375 
Q 12.890625 10.015625 18.65625 8.296875 
Q 24.421875 6.59375 29.984375 6.59375 
Q 38.421875 6.59375 43.015625 9.90625 
Q 47.609375 13.234375 47.609375 19.390625 
Q 47.609375 24.75 44.3125 27.78125 
Q 41.015625 30.8125 33.5 32.328125 
L 27.484375 33.5 
Q 16.453125 35.6875 11.515625 40.375 
Q 6.59375 45.0625 6.59375 53.421875 
Q 6.59375 63.09375 13.40625 68.65625 
Q 20.21875 74.21875 32.171875 74.21875 
Q 37.3125 74.21875 42.625 73.28125 
Q 47.953125 72.359375 53.515625 70.515625 
z
" id="DejaVuSans-53"/>
      <path d="M 28.609375 0 
L 0.78125 72.90625 
L 11.078125 72.90625 
L 34.1875 11.53125 
L 57.328125 72.90625 
L 67.578125 72.90625 
L 39.796875 0 
z
" id="DejaVuSans-56"/>
      <path d="M 19.671875 64.796875 
L 19.671875 8.109375 
L 31.59375 8.109375 
Q 46.6875 8.109375 53.6875 14.9375 
Q 60.6875 21.78125 60.6875 36.53125 
Q 60.6875 51.171875 53.6875 57.984375 
Q 46.6875 64.796875 31.59375 64.796875 
z
M 9.8125 72.90625 
L 30.078125 72.90625 
Q 51.265625 72.90625 61.171875 64.09375 
Q 71.09375 55.28125 71.09375 36.53125 
Q 71.09375 17.671875 61.125 8.828125 
Q 51.171875 0 30.078125 0 
L 9.8125 0 
z
" id="DejaVuSans-44"/>
      <path d="M 54.890625 33.015625 
L 54.890625 0 
L 45.90625 0 
L 45.90625 32.71875 
Q 45.90625 40.484375 42.875 44.328125 
Q 39.84375 48.1875 33.796875 48.1875 
Q 26.515625 48.1875 22.3125 43.546875 
Q 18.109375 38.921875 18.109375 30.90625 
L 18.109375 0 
L 9.078125 0 
L 9.078125 54.6875 
L 18.109375 54.6875 
L 18.109375 46.1875 
Q 21.34375 51.125 25.703125 53.5625 
Q 30.078125 56 35.796875 56 
Q 45.21875 56 50.046875 50.171875 
Q 54.890625 44.34375 54.890625 33.015625 
z
" id="DejaVuSans-6e"/>
      <path d="M 9.421875 54.6875 
L 18.40625 54.6875 
L 18.40625 0 
L 9.421875 0 
z
M 9.421875 75.984375 
L 18.40625 75.984375 
L 18.40625 64.59375 
L 9.421875 64.59375 
z
" id="DejaVuSans-69"/>
      <path d="M 32.171875 -5.078125 
Q 28.375 -14.84375 24.75 -17.8125 
Q 21.140625 -20.796875 15.09375 -20.796875 
L 7.90625 -20.796875 
L 7.90625 -13.28125 
L 13.1875 -13.28125 
Q 16.890625 -13.28125 18.9375 -11.515625 
Q 21 -9.765625 23.484375 -3.21875 
L 25.09375 0.875 
L 2.984375 54.6875 
L 12.5 54.6875 
L 29.59375 11.921875 
L 46.6875 54.6875 
L 56.203125 54.6875 
z
" id="DejaVuSans-79"/>
     </defs>
     <g style="fill:#262626;" transform="translate(20.57325 368.629475)rotate(-90)scale(0.176 -0.176)">
      <use xlink:href="#DejaVuSans-47"/>
      <use x="77.490234" xlink:href="#DejaVuSans-53"/>
      <use x="140.966797" xlink:href="#DejaVuSans-56"/>
      <use x="209.375" xlink:href="#DejaVuSans-20"/>
      <use x="241.162109" xlink:href="#DejaVuSans-44"/>
      <use x="318.164062" xlink:href="#DejaVuSans-65"/>
      <use x="379.6875" xlink:href="#DejaVuSans-6e"/>
      <use x="443.066406" xlink:href="#DejaVuSans-73"/>
      <use x="495.166016" xlink:href="#DejaVuSans-69"/>
      <use x="522.949219" xlink:href="#DejaVuSans-74"/>
      <use x="562.158203" xlink:href="#DejaVuSans-79"/>
     </g>
    </g>
   </g>
   <g id="PathCollection_1">
    <defs>
     <path d="M -5.6 5.6 
L 5.6 5.6 
L 5.6 -5.6 
L -5.6 -5.6 
z
" id="m53fc211295" style="stroke:#4c72b0;stroke-width:0.48;"/>
    </defs>
    <g clip-path="url(#p9138039902)">
     <use style="fill:#4c72b0;stroke:#4c72b0;stroke-width:0.48;" x="531.134861" xlink:href="#m53fc211295" y="313.976867"/>
     <use style="fill:#4c72b0;stroke:#4c72b0;stroke-width:0.48;" x="114.678332" xlink:href="#m53fc211295" y="396.96247"/>
     <use style="fill:#4c72b0;stroke:#4c72b0;stroke-width:0.48;" x="103.972275" xlink:href="#m53fc211295" y="259.33045"/>
     <use style="fill:#4c72b0;stroke:#4c72b0;stroke-width:0.48;" x="88.585024" xlink:href="#m53fc211295" y="336.639385"/>
     <use style="fill:#4c72b0;stroke:#4c72b0;stroke-width:0.48;" x="87.133589" xlink:href="#m53fc211295" y="531.872967"/>
     <use style="fill:#4c72b0;stroke:#4c72b0;stroke-width:0.48;" x="144.633416" xlink:href="#m53fc211295" y="378.735921"/>
     <use style="fill:#4c72b0;stroke:#4c72b0;stroke-width:0.48;" x="266.386193" xlink:href="#m53fc211295" y="334.45531"/>
     <use style="fill:#4c72b0;stroke:#4c72b0;stroke-width:0.48;" x="187.835277" xlink:href="#m53fc211295" y="329.460868"/>
     <use style="fill:#4c72b0;stroke:#4c72b0;stroke-width:0.48;" x="495.562151" xlink:href="#m53fc211295" y="199.45463"/>
    </g>
   </g>
   <g id="PolyCollection_1">
    <path clip-path="url(#p9138039902)" d="M 64.8785 309.528421 
L 64.8785 479.20084 
L 69.812959 476.900781 
L 74.747418 474.449198 
L 79.681877 470.924214 
L 84.616336 465.863084 
L 89.550795 461.348476 
L 94.485255 458.589964 
L 99.419714 455.720893 
L 104.354173 450.929584 
L 109.288632 447.844768 
L 114.223091 443.898673 
L 119.15755 439.955388 
L 124.092009 437.781387 
L 129.026468 435.068015 
L 133.960927 432.877442 
L 138.895386 430.620235 
L 143.829845 428.583999 
L 148.764305 426.172456 
L 153.698764 423.948566 
L 158.633223 421.724676 
L 163.567682 419.500786 
L 168.502141 417.276896 
L 173.4366 414.556501 
L 178.371059 411.843941 
L 183.305518 410.285576 
L 188.239977 408.381336 
L 193.174436 406.157446 
L 198.108895 403.932381 
L 203.043355 401.720238 
L 207.977814 399.825325 
L 212.912273 397.627166 
L 217.846732 396.062193 
L 222.781191 393.603444 
L 227.71565 391.433224 
L 232.650109 389.334406 
L 237.584568 387.583841 
L 242.519027 385.627976 
L 247.453486 382.821013 
L 252.387945 381.465838 
L 257.322405 379.427082 
L 262.256864 377.083281 
L 267.191323 375.131365 
L 272.125782 373.757993 
L 277.060241 372.285144 
L 281.9947 371.01125 
L 286.929159 369.637878 
L 291.863618 368.260544 
L 296.798077 366.77315 
L 301.732536 365.856763 
L 306.666995 364.328507 
L 311.601455 362.770603 
L 316.535914 361.213399 
L 321.470373 360.023252 
L 326.404832 358.650903 
L 331.339291 357.276641 
L 336.27375 355.90416 
L 341.208209 354.530788 
L 346.142668 353.235551 
L 351.077127 351.845946 
L 356.011586 350.900781 
L 360.946045 350.101347 
L 365.880505 349.495622 
L 370.814964 348.57811 
L 375.749423 347.283612 
L 380.683882 345.93768 
L 385.618341 345.389219 
L 390.5528 344.814749 
L 395.487259 343.65495 
L 400.421718 343.712125 
L 405.356177 342.097236 
L 410.290636 340.92732 
L 415.225095 339.68252 
L 420.159555 338.085181 
L 425.094014 336.4711 
L 430.028473 334.929295 
L 434.962932 333.424301 
L 439.897391 331.919306 
L 444.83185 331.826691 
L 449.766309 331.356304 
L 454.700768 330.03779 
L 459.635227 329.287996 
L 464.569686 329.262901 
L 469.504145 329.237805 
L 474.438605 329.21271 
L 479.373064 329.187614 
L 484.307523 329.162519 
L 489.241982 329.137423 
L 494.176441 329.112328 
L 499.1109 329.086857 
L 504.045359 329.049171 
L 508.979818 329.336821 
L 513.914277 329.806191 
L 518.848736 330.27556 
L 523.783195 329.820483 
L 528.717655 329.348935 
L 533.652114 328.893394 
L 538.586573 328.812167 
L 543.521032 328.852396 
L 548.455491 329.065314 
L 553.38995 329.278233 
L 553.38995 92.894418 
L 553.38995 92.894418 
L 548.455491 96.447124 
L 543.521032 100.38204 
L 538.586573 104.316956 
L 533.652114 108.251872 
L 528.717655 112.186787 
L 523.783195 116.121703 
L 518.848736 119.869806 
L 513.914277 123.532728 
L 508.979818 127.19565 
L 504.045359 130.858573 
L 499.1109 134.521495 
L 494.176441 138.184417 
L 489.241982 141.84734 
L 484.307523 145.510262 
L 479.373064 149.173184 
L 474.438605 152.836107 
L 469.504145 156.499029 
L 464.569686 160.161951 
L 459.635227 163.824874 
L 454.700768 167.487796 
L 449.766309 171.150719 
L 444.83185 174.813641 
L 439.897391 178.476563 
L 434.962932 182.139486 
L 430.028473 185.802408 
L 425.094014 189.46533 
L 420.159555 193.128253 
L 415.225095 196.791175 
L 410.290636 200.454097 
L 405.356177 204.11702 
L 400.421718 207.779942 
L 395.487259 211.442864 
L 390.5528 215.105787 
L 385.618341 218.768709 
L 380.683882 222.431631 
L 375.749423 225.291285 
L 370.814964 227.959351 
L 365.880505 230.627417 
L 360.946045 233.295483 
L 356.011586 235.963549 
L 351.077127 238.631615 
L 346.142668 241.299682 
L 341.208209 243.967748 
L 336.27375 246.635814 
L 331.339291 249.30942 
L 326.404832 251.035729 
L 321.470373 254.640012 
L 316.535914 257.308078 
L 311.601455 260.17762 
L 306.666995 261.975905 
L 301.732536 263.560244 
L 296.798077 265.134518 
L 291.863618 266.711248 
L 286.929159 269.29359 
L 281.9947 270.342313 
L 277.060241 271.706634 
L 272.125782 274.555394 
L 267.191323 276.215449 
L 262.256864 279.479447 
L 257.322405 281.554242 
L 252.387945 283.048807 
L 247.453486 284.537787 
L 242.519027 285.828205 
L 237.584568 287.115642 
L 232.650109 288.431262 
L 227.71565 289.38641 
L 222.781191 291.016848 
L 217.846732 292.635168 
L 212.912273 293.821012 
L 207.977814 295.249784 
L 203.043355 297.073942 
L 198.108895 298.199361 
L 193.174436 300.523421 
L 188.239977 301.789749 
L 183.305518 302.692686 
L 178.371059 303.840351 
L 173.4366 305.050624 
L 168.502141 306.003037 
L 163.567682 306.372584 
L 158.633223 306.833966 
L 153.698764 307.449658 
L 148.764305 308.117665 
L 143.829845 308.317757 
L 138.895386 308.626355 
L 133.960927 308.460732 
L 129.026468 309.305577 
L 124.092009 310.111491 
L 119.15755 310.198444 
L 114.223091 310.177289 
L 109.288632 310.337374 
L 104.354173 310.23984 
L 99.419714 310.164974 
L 94.485255 310.458299 
L 89.550795 309.958338 
L 84.616336 310.069394 
L 79.681877 310.461029 
L 74.747418 309.705513 
L 69.812959 309.601693 
L 64.8785 309.528421 
z
" style="fill:#4c72b0;fill-opacity:0.15;"/>
   </g>
   <g id="line2d_31">
    <path clip-path="url(#p9138039902)" d="M 64.8785 389.641803 
L 69.812959 388.178361 
L 74.747418 386.71492 
L 79.681877 385.251478 
L 84.616336 383.788036 
L 89.550795 382.324594 
L 94.485255 380.861153 
L 99.419714 379.397711 
L 104.354173 377.934269 
L 109.288632 376.470827 
L 114.223091 375.007386 
L 119.15755 373.543944 
L 124.092009 372.080502 
L 129.026468 370.61706 
L 133.960927 369.153619 
L 138.895386 367.690177 
L 143.829845 366.226735 
L 148.764305 364.763293 
L 153.698764 363.299852 
L 158.633223 361.83641 
L 163.567682 360.372968 
L 168.502141 358.909526 
L 173.4366 357.446085 
L 178.371059 355.982643 
L 183.305518 354.519201 
L 188.239977 353.055759 
L 193.174436 351.592318 
L 198.108895 350.128876 
L 203.043355 348.665434 
L 207.977814 347.201992 
L 212.912273 345.738551 
L 217.846732 344.275109 
L 222.781191 342.811667 
L 227.71565 341.348225 
L 232.650109 339.884784 
L 237.584568 338.421342 
L 242.519027 336.9579 
L 247.453486 335.494458 
L 252.387945 334.031017 
L 257.322405 332.567575 
L 262.256864 331.104133 
L 267.191323 329.640691 
L 272.125782 328.17725 
L 277.060241 326.713808 
L 281.9947 325.250366 
L 286.929159 323.786924 
L 291.863618 322.323483 
L 296.798077 320.860041 
L 301.732536 319.396599 
L 306.666995 317.933157 
L 311.601455 316.469716 
L 316.535914 315.006274 
L 321.470373 313.542832 
L 326.404832 312.07939 
L 331.339291 310.615949 
L 336.27375 309.152507 
L 341.208209 307.689065 
L 346.142668 306.225623 
L 351.077127 304.762181 
L 356.011586 303.29874 
L 360.946045 301.835298 
L 365.880505 300.371856 
L 370.814964 298.908414 
L 375.749423 297.444973 
L 380.683882 295.981531 
L 385.618341 294.518089 
L 390.5528 293.054647 
L 395.487259 291.591206 
L 400.421718 290.127764 
L 405.356177 288.664322 
L 410.290636 287.20088 
L 415.225095 285.737439 
L 420.159555 284.273997 
L 425.094014 282.810555 
L 430.028473 281.347113 
L 434.962932 279.883672 
L 439.897391 278.42023 
L 444.83185 276.956788 
L 449.766309 275.493346 
L 454.700768 274.029905 
L 459.635227 272.566463 
L 464.569686 271.103021 
L 469.504145 269.639579 
L 474.438605 268.176138 
L 479.373064 266.712696 
L 484.307523 265.249254 
L 489.241982 263.785812 
L 494.176441 262.322371 
L 499.1109 260.858929 
L 504.045359 259.395487 
L 508.979818 257.932045 
L 513.914277 256.468604 
L 518.848736 255.005162 
L 523.783195 253.54172 
L 528.717655 252.078278 
L 533.652114 250.614837 
L 538.586573 249.151395 
L 543.521032 247.687953 
L 548.455491 246.224511 
L 553.38995 244.76107 
" style="fill:none;stroke:#4c72b0;stroke-linecap:round;stroke-width:4.2;"/>
   </g>
   <g id="patch_3">
    <path d="M 64.8785 557.1166 
L 64.8785 70.7886 
" style="fill:none;"/>
   </g>
   <g id="patch_4">
    <path d="M 64.8785 557.1166 
L 553.38995 557.1166 
" style="fill:none;"/>
   </g>
   <g id="text_18">
    <!-- Residual Analysis -->
    <defs>
     <path d="M 44.390625 34.1875 
Q 47.5625 33.109375 50.5625 29.59375 
Q 53.5625 26.078125 56.59375 19.921875 
L 66.609375 0 
L 56 0 
L 46.6875 18.703125 
Q 43.0625 26.03125 39.671875 28.421875 
Q 36.28125 30.8125 30.421875 30.8125 
L 19.671875 30.8125 
L 19.671875 0 
L 9.8125 0 
L 9.8125 72.90625 
L 32.078125 72.90625 
Q 44.578125 72.90625 50.734375 67.671875 
Q 56.890625 62.453125 56.890625 51.90625 
Q 56.890625 45.015625 53.6875 40.46875 
Q 50.484375 35.9375 44.390625 34.1875 
z
M 19.671875 64.796875 
L 19.671875 38.921875 
L 32.078125 38.921875 
Q 39.203125 38.921875 42.84375 42.21875 
Q 46.484375 45.515625 46.484375 51.90625 
Q 46.484375 58.296875 42.84375 61.546875 
Q 39.203125 64.796875 32.078125 64.796875 
z
" id="DejaVuSans-52"/>
     <path d="M 45.40625 46.390625 
L 45.40625 75.984375 
L 54.390625 75.984375 
L 54.390625 0 
L 45.40625 0 
L 45.40625 8.203125 
Q 42.578125 3.328125 38.25 0.953125 
Q 33.9375 -1.421875 27.875 -1.421875 
Q 17.96875 -1.421875 11.734375 6.484375 
Q 5.515625 14.40625 5.515625 27.296875 
Q 5.515625 40.1875 11.734375 48.09375 
Q 17.96875 56 27.875 56 
Q 33.9375 56 38.25 53.625 
Q 42.578125 51.265625 45.40625 46.390625 
z
M 14.796875 27.296875 
Q 14.796875 17.390625 18.875 11.75 
Q 22.953125 6.109375 30.078125 6.109375 
Q 37.203125 6.109375 41.296875 11.75 
Q 45.40625 17.390625 45.40625 27.296875 
Q 45.40625 37.203125 41.296875 42.84375 
Q 37.203125 48.484375 30.078125 48.484375 
Q 22.953125 48.484375 18.875 42.84375 
Q 14.796875 37.203125 14.796875 27.296875 
z
" id="DejaVuSans-64"/>
     <path d="M 34.28125 27.484375 
Q 23.390625 27.484375 19.1875 25 
Q 14.984375 22.515625 14.984375 16.5 
Q 14.984375 11.71875 18.140625 8.90625 
Q 21.296875 6.109375 26.703125 6.109375 
Q 34.1875 6.109375 38.703125 11.40625 
Q 43.21875 16.703125 43.21875 25.484375 
L 43.21875 27.484375 
z
M 52.203125 31.203125 
L 52.203125 0 
L 43.21875 0 
L 43.21875 8.296875 
Q 40.140625 3.328125 35.546875 0.953125 
Q 30.953125 -1.421875 24.3125 -1.421875 
Q 15.921875 -1.421875 10.953125 3.296875 
Q 6 8.015625 6 15.921875 
Q 6 25.140625 12.171875 29.828125 
Q 18.359375 34.515625 30.609375 34.515625 
L 43.21875 34.515625 
L 43.21875 35.40625 
Q 43.21875 41.609375 39.140625 45 
Q 35.0625 48.390625 27.6875 48.390625 
Q 23 48.390625 18.546875 47.265625 
Q 14.109375 46.140625 10.015625 43.890625 
L 10.015625 52.203125 
Q 14.9375 54.109375 19.578125 55.046875 
Q 24.21875 56 28.609375 56 
Q 40.484375 56 46.34375 49.84375 
Q 52.203125 43.703125 52.203125 31.203125 
z
" id="DejaVuSans-61"/>
    </defs>
    <g style="fill:#262626;" transform="translate(225.563225 21.789)scale(0.192 -0.192)">
     <use xlink:href="#DejaVuSans-52"/>
     <use x="69.419922" xlink:href="#DejaVuSans-65"/>
     <use x="130.943359" xlink:href="#DejaVuSans-73"/>
     <use x="183.042969" xlink:href="#DejaVuSans-69"/>
     <use x="210.826172" xlink:href="#DejaVuSans-64"/>
     <use x="274.302734" xlink:href="#DejaVuSans-75"/>
     <use x="337.681641" xlink:href="#DejaVuSans-61"/>
     <use x="398.960938" xlink:href="#DejaVuSans-6c"/>
     <use x="426.744141" xlink:href="#DejaVuSans-20"/>
     <use x="458.53125" xlink:href="#DejaVuSans-41"/>
     <use x="526.939453" xlink:href="#DejaVuSans-6e"/>
     <use x="590.318359" xlink:href="#DejaVuSans-61"/>
     <use x="651.597656" xlink:href="#DejaVuSans-6c"/>
     <use x="679.380859" xlink:href="#DejaVuSans-79"/>
     <use x="738.560547" xlink:href="#DejaVuSans-73"/>
     <use x="790.660156" xlink:href="#DejaVuSans-69"/>
     <use x="818.443359" xlink:href="#DejaVuSans-73"/>
    </g>
    <!-- Pearson: 0.5558, p-value: 0.1203 -->
    <defs>
     <path d="M 19.671875 64.796875 
L 19.671875 37.40625 
L 32.078125 37.40625 
Q 38.96875 37.40625 42.71875 40.96875 
Q 46.484375 44.53125 46.484375 51.125 
Q 46.484375 57.671875 42.71875 61.234375 
Q 38.96875 64.796875 32.078125 64.796875 
z
M 9.8125 72.90625 
L 32.078125 72.90625 
Q 44.34375 72.90625 50.609375 67.359375 
Q 56.890625 61.8125 56.890625 51.125 
Q 56.890625 40.328125 50.609375 34.8125 
Q 44.34375 29.296875 32.078125 29.296875 
L 19.671875 29.296875 
L 19.671875 0 
L 9.8125 0 
z
" id="DejaVuSans-50"/>
     <path d="M 11.71875 12.40625 
L 22.015625 12.40625 
L 22.015625 0 
L 11.71875 0 
z
M 11.71875 51.703125 
L 22.015625 51.703125 
L 22.015625 39.3125 
L 11.71875 39.3125 
z
" id="DejaVuSans-3a"/>
     <path d="M 10.796875 72.90625 
L 49.515625 72.90625 
L 49.515625 64.59375 
L 19.828125 64.59375 
L 19.828125 46.734375 
Q 21.96875 47.46875 24.109375 47.828125 
Q 26.265625 48.1875 28.421875 48.1875 
Q 40.625 48.1875 47.75 41.5 
Q 54.890625 34.8125 54.890625 23.390625 
Q 54.890625 11.625 47.5625 5.09375 
Q 40.234375 -1.421875 26.90625 -1.421875 
Q 22.3125 -1.421875 17.546875 -0.640625 
Q 12.796875 0.140625 7.71875 1.703125 
L 7.71875 11.625 
Q 12.109375 9.234375 16.796875 8.0625 
Q 21.484375 6.890625 26.703125 6.890625 
Q 35.15625 6.890625 40.078125 11.328125 
Q 45.015625 15.765625 45.015625 23.390625 
Q 45.015625 31 40.078125 35.4375 
Q 35.15625 39.890625 26.703125 39.890625 
Q 22.75 39.890625 18.8125 39.015625 
Q 14.890625 38.140625 10.796875 36.28125 
z
" id="DejaVuSans-35"/>
     <path d="M 11.71875 12.40625 
L 22.015625 12.40625 
L 22.015625 4 
L 14.015625 -11.625 
L 7.71875 -11.625 
L 11.71875 4 
z
" id="DejaVuSans-2c"/>
     <path d="M 18.109375 8.203125 
L 18.109375 -20.796875 
L 9.078125 -20.796875 
L 9.078125 54.6875 
L 18.109375 54.6875 
L 18.109375 46.390625 
Q 20.953125 51.265625 25.265625 53.625 
Q 29.59375 56 35.59375 56 
Q 45.5625 56 51.78125 48.09375 
Q 58.015625 40.1875 58.015625 27.296875 
Q 58.015625 14.40625 51.78125 6.484375 
Q 45.5625 -1.421875 35.59375 -1.421875 
Q 29.59375 -1.421875 25.265625 0.953125 
Q 20.953125 3.328125 18.109375 8.203125 
z
M 48.6875 27.296875 
Q 48.6875 37.203125 44.609375 42.84375 
Q 40.53125 48.484375 33.40625 48.484375 
Q 26.265625 48.484375 22.1875 42.84375 
Q 18.109375 37.203125 18.109375 27.296875 
Q 18.109375 17.390625 22.1875 11.75 
Q 26.265625 6.109375 33.40625 6.109375 
Q 40.53125 6.109375 44.609375 11.75 
Q 48.6875 17.390625 48.6875 27.296875 
z
" id="DejaVuSans-70"/>
     <path d="M 4.890625 31.390625 
L 31.203125 31.390625 
L 31.203125 23.390625 
L 4.890625 23.390625 
z
" id="DejaVuSans-2d"/>
     <path d="M 2.984375 54.6875 
L 12.5 54.6875 
L 29.59375 8.796875 
L 46.6875 54.6875 
L 56.203125 54.6875 
L 35.6875 0 
L 23.484375 0 
z
" id="DejaVuSans-76"/>
     <path d="M 40.578125 39.3125 
Q 47.65625 37.796875 51.625 33 
Q 55.609375 28.21875 55.609375 21.1875 
Q 55.609375 10.40625 48.1875 4.484375 
Q 40.765625 -1.421875 27.09375 -1.421875 
Q 22.515625 -1.421875 17.65625 -0.515625 
Q 12.796875 0.390625 7.625 2.203125 
L 7.625 11.71875 
Q 11.71875 9.328125 16.59375 8.109375 
Q 21.484375 6.890625 26.8125 6.890625 
Q 36.078125 6.890625 40.9375 10.546875 
Q 45.796875 14.203125 45.796875 21.1875 
Q 45.796875 27.640625 41.28125 31.265625 
Q 36.765625 34.90625 28.71875 34.90625 
L 20.21875 34.90625 
L 20.21875 43.015625 
L 29.109375 43.015625 
Q 36.375 43.015625 40.234375 45.921875 
Q 44.09375 48.828125 44.09375 54.296875 
Q 44.09375 59.90625 40.109375 62.90625 
Q 36.140625 65.921875 28.71875 65.921875 
Q 24.65625 65.921875 20.015625 65.03125 
Q 15.375 64.15625 9.8125 62.3125 
L 9.8125 71.09375 
Q 15.4375 72.65625 20.34375 73.4375 
Q 25.25 74.21875 29.59375 74.21875 
Q 40.828125 74.21875 47.359375 69.109375 
Q 53.90625 64.015625 53.90625 55.328125 
Q 53.90625 49.265625 50.4375 45.09375 
Q 46.96875 40.921875 40.578125 39.3125 
z
" id="DejaVuSans-33"/>
    </defs>
    <g style="fill:#262626;" transform="translate(149.022725 43.2888)scale(0.192 -0.192)">
     <use xlink:href="#DejaVuSans-50"/>
     <use x="60.255859" xlink:href="#DejaVuSans-65"/>
     <use x="121.779297" xlink:href="#DejaVuSans-61"/>
     <use x="183.058594" xlink:href="#DejaVuSans-72"/>
     <use x="224.171875" xlink:href="#DejaVuSans-73"/>
     <use x="276.271484" xlink:href="#DejaVuSans-6f"/>
     <use x="337.453125" xlink:href="#DejaVuSans-6e"/>
     <use x="400.832031" xlink:href="#DejaVuSans-3a"/>
     <use x="434.523438" xlink:href="#DejaVuSans-20"/>
     <use x="466.310547" xlink:href="#DejaVuSans-30"/>
     <use x="529.933594" xlink:href="#DejaVuSans-2e"/>
     <use x="561.720703" xlink:href="#DejaVuSans-35"/>
     <use x="625.34375" xlink:href="#DejaVuSans-35"/>
     <use x="688.966797" xlink:href="#DejaVuSans-35"/>
     <use x="752.589844" xlink:href="#DejaVuSans-38"/>
     <use x="816.212891" xlink:href="#DejaVuSans-2c"/>
     <use x="848" xlink:href="#DejaVuSans-20"/>
     <use x="879.787109" xlink:href="#DejaVuSans-70"/>
     <use x="943.263672" xlink:href="#DejaVuSans-2d"/>
     <use x="979.316406" xlink:href="#DejaVuSans-76"/>
     <use x="1038.496094" xlink:href="#DejaVuSans-61"/>
     <use x="1099.775391" xlink:href="#DejaVuSans-6c"/>
     <use x="1127.558594" xlink:href="#DejaVuSans-75"/>
     <use x="1190.9375" xlink:href="#DejaVuSans-65"/>
     <use x="1252.460938" xlink:href="#DejaVuSans-3a"/>
     <use x="1286.152344" xlink:href="#DejaVuSans-20"/>
     <use x="1317.939453" xlink:href="#DejaVuSans-30"/>
     <use x="1381.5625" xlink:href="#DejaVuSans-2e"/>
     <use x="1413.349609" xlink:href="#DejaVuSans-31"/>
     <use x="1476.972656" xlink:href="#DejaVuSans-32"/>
     <use x="1540.595703" xlink:href="#DejaVuSans-30"/>
     <use x="1604.21875" xlink:href="#DejaVuSans-33"/>
    </g>
    <!-- Spearman: 0.6167, p-value: 0.0769 -->
    <defs>
     <path d="M 52 44.1875 
Q 55.375 50.25 60.0625 53.125 
Q 64.75 56 71.09375 56 
Q 79.640625 56 84.28125 50.015625 
Q 88.921875 44.046875 88.921875 33.015625 
L 88.921875 0 
L 79.890625 0 
L 79.890625 32.71875 
Q 79.890625 40.578125 77.09375 44.375 
Q 74.3125 48.1875 68.609375 48.1875 
Q 61.625 48.1875 57.5625 43.546875 
Q 53.515625 38.921875 53.515625 30.90625 
L 53.515625 0 
L 44.484375 0 
L 44.484375 32.71875 
Q 44.484375 40.625 41.703125 44.40625 
Q 38.921875 48.1875 33.109375 48.1875 
Q 26.21875 48.1875 22.15625 43.53125 
Q 18.109375 38.875 18.109375 30.90625 
L 18.109375 0 
L 9.078125 0 
L 9.078125 54.6875 
L 18.109375 54.6875 
L 18.109375 46.1875 
Q 21.1875 51.21875 25.484375 53.609375 
Q 29.78125 56 35.6875 56 
Q 41.65625 56 45.828125 52.96875 
Q 50 49.953125 52 44.1875 
z
" id="DejaVuSans-6d"/>
     <path d="M 8.203125 72.90625 
L 55.078125 72.90625 
L 55.078125 68.703125 
L 28.609375 0 
L 18.3125 0 
L 43.21875 64.59375 
L 8.203125 64.59375 
z
" id="DejaVuSans-37"/>
     <path d="M 10.984375 1.515625 
L 10.984375 10.5 
Q 14.703125 8.734375 18.5 7.8125 
Q 22.3125 6.890625 25.984375 6.890625 
Q 35.75 6.890625 40.890625 13.453125 
Q 46.046875 20.015625 46.78125 33.40625 
Q 43.953125 29.203125 39.59375 26.953125 
Q 35.25 24.703125 29.984375 24.703125 
Q 19.046875 24.703125 12.671875 31.3125 
Q 6.296875 37.9375 6.296875 49.421875 
Q 6.296875 60.640625 12.9375 67.421875 
Q 19.578125 74.21875 30.609375 74.21875 
Q 43.265625 74.21875 49.921875 64.515625 
Q 56.59375 54.828125 56.59375 36.375 
Q 56.59375 19.140625 48.40625 8.859375 
Q 40.234375 -1.421875 26.421875 -1.421875 
Q 22.703125 -1.421875 18.890625 -0.6875 
Q 15.09375 0.046875 10.984375 1.515625 
z
M 30.609375 32.421875 
Q 37.25 32.421875 41.125 36.953125 
Q 45.015625 41.5 45.015625 49.421875 
Q 45.015625 57.28125 41.125 61.84375 
Q 37.25 66.40625 30.609375 66.40625 
Q 23.96875 66.40625 20.09375 61.84375 
Q 16.21875 57.28125 16.21875 49.421875 
Q 16.21875 41.5 20.09375 36.953125 
Q 23.96875 32.421875 30.609375 32.421875 
z
" id="DejaVuSans-39"/>
    </defs>
    <g style="fill:#262626;" transform="translate(138.260225 64.7886)scale(0.192 -0.192)">
     <use xlink:href="#DejaVuSans-53"/>
     <use x="63.476562" xlink:href="#DejaVuSans-70"/>
     <use x="126.953125" xlink:href="#DejaVuSans-65"/>
     <use x="188.476562" xlink:href="#DejaVuSans-61"/>
     <use x="249.755859" xlink:href="#DejaVuSans-72"/>
     <use x="290.853516" xlink:href="#DejaVuSans-6d"/>
     <use x="388.265625" xlink:href="#DejaVuSans-61"/>
     <use x="449.544922" xlink:href="#DejaVuSans-6e"/>
     <use x="512.923828" xlink:href="#DejaVuSans-3a"/>
     <use x="546.615234" xlink:href="#DejaVuSans-20"/>
     <use x="578.402344" xlink:href="#DejaVuSans-30"/>
     <use x="642.025391" xlink:href="#DejaVuSans-2e"/>
     <use x="673.8125" xlink:href="#DejaVuSans-36"/>
     <use x="737.435547" xlink:href="#DejaVuSans-31"/>
     <use x="801.058594" xlink:href="#DejaVuSans-36"/>
     <use x="864.681641" xlink:href="#DejaVuSans-37"/>
     <use x="928.304688" xlink:href="#DejaVuSans-2c"/>
     <use x="960.091797" xlink:href="#DejaVuSans-20"/>
     <use x="991.878906" xlink:href="#DejaVuSans-70"/>
     <use x="1055.355469" xlink:href="#DejaVuSans-2d"/>
     <use x="1091.408203" xlink:href="#DejaVuSans-76"/>
     <use x="1150.587891" xlink:href="#DejaVuSans-61"/>
     <use x="1211.867188" xlink:href="#DejaVuSans-6c"/>
     <use x="1239.650391" xlink:href="#DejaVuSans-75"/>
     <use x="1303.029297" xlink:href="#DejaVuSans-65"/>
     <use x="1364.552734" xlink:href="#DejaVuSans-3a"/>
     <use x="1398.244141" xlink:href="#DejaVuSans-20"/>
     <use x="1430.03125" xlink:href="#DejaVuSans-30"/>
     <use x="1493.654297" xlink:href="#DejaVuSans-2e"/>
     <use x="1525.441406" xlink:href="#DejaVuSans-30"/>
     <use x="1589.064453" xlink:href="#DejaVuSans-37"/>
     <use x="1652.6875" xlink:href="#DejaVuSans-36"/>
     <use x="1716.310547" xlink:href="#DejaVuSans-39"/>
    </g>
   </g>
  </g>
  <g id="legend_1"/>
 </g>
 <defs>
  <clipPath id="p9138039902">
   <rect height="486.328" width="488.51145" x="64.8785" y="70.7886"/>
  </clipPath>
 </defs>
</svg>
