<?xml version="1.0" encoding="utf-8" standalone="no"?>
<!DOCTYPE svg PUBLIC "-//W3C//DTD SVG 1.1//EN"
  "http://www.w3.org/Graphics/SVG/1.1/DTD/svg11.dtd">
<!-- Created with matplotlib (http://matplotlib.org/) -->
<svg height="612pt" version="1.1" viewBox="0 0 668 612" width="668pt" xmlns="http://www.w3.org/2000/svg" xmlns:xlink="http://www.w3.org/1999/xlink">
 <defs>
  <style type="text/css">
*{stroke-linecap:butt;stroke-linejoin:round;}
  </style>
 </defs>
 <g id="figure_1">
  <g id="patch_1">
   <path d="M 0 612.0351 
L 668.993317 612.0351 
L 668.993317 0 
L 0 0 
z
" style="fill:#ffffff;"/>
  </g>
  <g id="axes_1">
   <g id="patch_2">
    <path d="M 59.7935 557.1166 
L 538.061067 557.1166 
L 538.061067 70.7886 
L 59.7935 70.7886 
z
" style="fill:#eaeaf2;"/>
   </g>
   <g id="matplotlib.axis_1">
    <g id="xtick_1">
     <g id="line2d_1">
      <path clip-path="url(#pe37a8a125b)" d="M 76.562984 557.1166 
L 76.562984 70.7886 
" style="fill:none;stroke:#ffffff;stroke-linecap:round;stroke-width:1.6;"/>
     </g>
     <g id="line2d_2"/>
     <g id="text_1">
      <!-- 0 -->
      <defs>
       <path d="M 31.78125 66.40625 
Q 24.171875 66.40625 20.328125 58.90625 
Q 16.5 51.421875 16.5 36.375 
Q 16.5 21.390625 20.328125 13.890625 
Q 24.171875 6.390625 31.78125 6.390625 
Q 39.453125 6.390625 43.28125 13.890625 
Q 47.125 21.390625 47.125 36.375 
Q 47.125 51.421875 43.28125 58.90625 
Q 39.453125 66.40625 31.78125 66.40625 
z
M 31.78125 74.21875 
Q 44.046875 74.21875 50.515625 64.515625 
Q 56.984375 54.828125 56.984375 36.375 
Q 56.984375 17.96875 50.515625 8.265625 
Q 44.046875 -1.421875 31.78125 -1.421875 
Q 19.53125 -1.421875 13.0625 8.265625 
Q 6.59375 17.96875 6.59375 36.375 
Q 6.59375 54.828125 13.0625 64.515625 
Q 19.53125 74.21875 31.78125 74.21875 
z
" id="DejaVuSans-30"/>
      </defs>
      <g style="fill:#262626;" transform="translate(71.472984 580.4741)scale(0.16 -0.16)">
       <use xlink:href="#DejaVuSans-30"/>
      </g>
     </g>
    </g>
    <g id="xtick_2">
     <g id="line2d_3">
      <path clip-path="url(#pe37a8a125b)" d="M 162.422525 557.1166 
L 162.422525 70.7886 
" style="fill:none;stroke:#ffffff;stroke-linecap:round;stroke-width:1.6;"/>
     </g>
     <g id="line2d_4"/>
     <g id="text_2">
      <!-- 20 -->
      <defs>
       <path d="M 19.1875 8.296875 
L 53.609375 8.296875 
L 53.609375 0 
L 7.328125 0 
L 7.328125 8.296875 
Q 12.9375 14.109375 22.625 23.890625 
Q 32.328125 33.6875 34.8125 36.53125 
Q 39.546875 41.84375 41.421875 45.53125 
Q 43.3125 49.21875 43.3125 52.78125 
Q 43.3125 58.59375 39.234375 62.25 
Q 35.15625 65.921875 28.609375 65.921875 
Q 23.96875 65.921875 18.8125 64.3125 
Q 13.671875 62.703125 7.8125 59.421875 
L 7.8125 69.390625 
Q 13.765625 71.78125 18.9375 73 
Q 24.125 74.21875 28.421875 74.21875 
Q 39.75 74.21875 46.484375 68.546875 
Q 53.21875 62.890625 53.21875 53.421875 
Q 53.21875 48.921875 51.53125 44.890625 
Q 49.859375 40.875 45.40625 35.40625 
Q 44.1875 33.984375 37.640625 27.21875 
Q 31.109375 20.453125 19.1875 8.296875 
z
" id="DejaVuSans-32"/>
      </defs>
      <g style="fill:#262626;" transform="translate(152.242525 580.4741)scale(0.16 -0.16)">
       <use xlink:href="#DejaVuSans-32"/>
       <use x="63.623047" xlink:href="#DejaVuSans-30"/>
      </g>
     </g>
    </g>
    <g id="xtick_3">
     <g id="line2d_5">
      <path clip-path="url(#pe37a8a125b)" d="M 248.282066 557.1166 
L 248.282066 70.7886 
" style="fill:none;stroke:#ffffff;stroke-linecap:round;stroke-width:1.6;"/>
     </g>
     <g id="line2d_6"/>
     <g id="text_3">
      <!-- 40 -->
      <defs>
       <path d="M 37.796875 64.3125 
L 12.890625 25.390625 
L 37.796875 25.390625 
z
M 35.203125 72.90625 
L 47.609375 72.90625 
L 47.609375 25.390625 
L 58.015625 25.390625 
L 58.015625 17.1875 
L 47.609375 17.1875 
L 47.609375 0 
L 37.796875 0 
L 37.796875 17.1875 
L 4.890625 17.1875 
L 4.890625 26.703125 
z
" id="DejaVuSans-34"/>
      </defs>
      <g style="fill:#262626;" transform="translate(238.102066 580.4741)scale(0.16 -0.16)">
       <use xlink:href="#DejaVuSans-34"/>
       <use x="63.623047" xlink:href="#DejaVuSans-30"/>
      </g>
     </g>
    </g>
    <g id="xtick_4">
     <g id="line2d_7">
      <path clip-path="url(#pe37a8a125b)" d="M 334.141607 557.1166 
L 334.141607 70.7886 
" style="fill:none;stroke:#ffffff;stroke-linecap:round;stroke-width:1.6;"/>
     </g>
     <g id="line2d_8"/>
     <g id="text_4">
      <!-- 60 -->
      <defs>
       <path d="M 33.015625 40.375 
Q 26.375 40.375 22.484375 35.828125 
Q 18.609375 31.296875 18.609375 23.390625 
Q 18.609375 15.53125 22.484375 10.953125 
Q 26.375 6.390625 33.015625 6.390625 
Q 39.65625 6.390625 43.53125 10.953125 
Q 47.40625 15.53125 47.40625 23.390625 
Q 47.40625 31.296875 43.53125 35.828125 
Q 39.65625 40.375 33.015625 40.375 
z
M 52.59375 71.296875 
L 52.59375 62.3125 
Q 48.875 64.0625 45.09375 64.984375 
Q 41.3125 65.921875 37.59375 65.921875 
Q 27.828125 65.921875 22.671875 59.328125 
Q 17.53125 52.734375 16.796875 39.40625 
Q 19.671875 43.65625 24.015625 45.921875 
Q 28.375 48.1875 33.59375 48.1875 
Q 44.578125 48.1875 50.953125 41.515625 
Q 57.328125 34.859375 57.328125 23.390625 
Q 57.328125 12.15625 50.6875 5.359375 
Q 44.046875 -1.421875 33.015625 -1.421875 
Q 20.359375 -1.421875 13.671875 8.265625 
Q 6.984375 17.96875 6.984375 36.375 
Q 6.984375 53.65625 15.1875 63.9375 
Q 23.390625 74.21875 37.203125 74.21875 
Q 40.921875 74.21875 44.703125 73.484375 
Q 48.484375 72.75 52.59375 71.296875 
z
" id="DejaVuSans-36"/>
      </defs>
      <g style="fill:#262626;" transform="translate(323.961607 580.4741)scale(0.16 -0.16)">
       <use xlink:href="#DejaVuSans-36"/>
       <use x="63.623047" xlink:href="#DejaVuSans-30"/>
      </g>
     </g>
    </g>
    <g id="xtick_5">
     <g id="line2d_9">
      <path clip-path="url(#pe37a8a125b)" d="M 420.001149 557.1166 
L 420.001149 70.7886 
" style="fill:none;stroke:#ffffff;stroke-linecap:round;stroke-width:1.6;"/>
     </g>
     <g id="line2d_10"/>
     <g id="text_5">
      <!-- 80 -->
      <defs>
       <path d="M 31.78125 34.625 
Q 24.75 34.625 20.71875 30.859375 
Q 16.703125 27.09375 16.703125 20.515625 
Q 16.703125 13.921875 20.71875 10.15625 
Q 24.75 6.390625 31.78125 6.390625 
Q 38.8125 6.390625 42.859375 10.171875 
Q 46.921875 13.96875 46.921875 20.515625 
Q 46.921875 27.09375 42.890625 30.859375 
Q 38.875 34.625 31.78125 34.625 
z
M 21.921875 38.8125 
Q 15.578125 40.375 12.03125 44.71875 
Q 8.5 49.078125 8.5 55.328125 
Q 8.5 64.0625 14.71875 69.140625 
Q 20.953125 74.21875 31.78125 74.21875 
Q 42.671875 74.21875 48.875 69.140625 
Q 55.078125 64.0625 55.078125 55.328125 
Q 55.078125 49.078125 51.53125 44.71875 
Q 48 40.375 41.703125 38.8125 
Q 48.828125 37.15625 52.796875 32.3125 
Q 56.78125 27.484375 56.78125 20.515625 
Q 56.78125 9.90625 50.3125 4.234375 
Q 43.84375 -1.421875 31.78125 -1.421875 
Q 19.734375 -1.421875 13.25 4.234375 
Q 6.78125 9.90625 6.78125 20.515625 
Q 6.78125 27.484375 10.78125 32.3125 
Q 14.796875 37.15625 21.921875 38.8125 
z
M 18.3125 54.390625 
Q 18.3125 48.734375 21.84375 45.5625 
Q 25.390625 42.390625 31.78125 42.390625 
Q 38.140625 42.390625 41.71875 45.5625 
Q 45.3125 48.734375 45.3125 54.390625 
Q 45.3125 60.0625 41.71875 63.234375 
Q 38.140625 66.40625 31.78125 66.40625 
Q 25.390625 66.40625 21.84375 63.234375 
Q 18.3125 60.0625 18.3125 54.390625 
z
" id="DejaVuSans-38"/>
      </defs>
      <g style="fill:#262626;" transform="translate(409.821149 580.4741)scale(0.16 -0.16)">
       <use xlink:href="#DejaVuSans-38"/>
       <use x="63.623047" xlink:href="#DejaVuSans-30"/>
      </g>
     </g>
    </g>
    <g id="xtick_6">
     <g id="line2d_11">
      <path clip-path="url(#pe37a8a125b)" d="M 505.86069 557.1166 
L 505.86069 70.7886 
" style="fill:none;stroke:#ffffff;stroke-linecap:round;stroke-width:1.6;"/>
     </g>
     <g id="line2d_12"/>
     <g id="text_6">
      <!-- 100 -->
      <defs>
       <path d="M 12.40625 8.296875 
L 28.515625 8.296875 
L 28.515625 63.921875 
L 10.984375 60.40625 
L 10.984375 69.390625 
L 28.421875 72.90625 
L 38.28125 72.90625 
L 38.28125 8.296875 
L 54.390625 8.296875 
L 54.390625 0 
L 12.40625 0 
z
" id="DejaVuSans-31"/>
      </defs>
      <g style="fill:#262626;" transform="translate(490.59069 580.4741)scale(0.16 -0.16)">
       <use xlink:href="#DejaVuSans-31"/>
       <use x="63.623047" xlink:href="#DejaVuSans-30"/>
       <use x="127.246094" xlink:href="#DejaVuSans-30"/>
      </g>
     </g>
    </g>
    <g id="text_7">
     <!-- Absolute Error -->
     <defs>
      <path d="M 34.1875 63.1875 
L 20.796875 26.90625 
L 47.609375 26.90625 
z
M 28.609375 72.90625 
L 39.796875 72.90625 
L 67.578125 0 
L 57.328125 0 
L 50.6875 18.703125 
L 17.828125 18.703125 
L 11.1875 0 
L 0.78125 0 
z
" id="DejaVuSans-41"/>
      <path d="M 48.6875 27.296875 
Q 48.6875 37.203125 44.609375 42.84375 
Q 40.53125 48.484375 33.40625 48.484375 
Q 26.265625 48.484375 22.1875 42.84375 
Q 18.109375 37.203125 18.109375 27.296875 
Q 18.109375 17.390625 22.1875 11.75 
Q 26.265625 6.109375 33.40625 6.109375 
Q 40.53125 6.109375 44.609375 11.75 
Q 48.6875 17.390625 48.6875 27.296875 
z
M 18.109375 46.390625 
Q 20.953125 51.265625 25.265625 53.625 
Q 29.59375 56 35.59375 56 
Q 45.5625 56 51.78125 48.09375 
Q 58.015625 40.1875 58.015625 27.296875 
Q 58.015625 14.40625 51.78125 6.484375 
Q 45.5625 -1.421875 35.59375 -1.421875 
Q 29.59375 -1.421875 25.265625 0.953125 
Q 20.953125 3.328125 18.109375 8.203125 
L 18.109375 0 
L 9.078125 0 
L 9.078125 75.984375 
L 18.109375 75.984375 
z
" id="DejaVuSans-62"/>
      <path d="M 44.28125 53.078125 
L 44.28125 44.578125 
Q 40.484375 46.53125 36.375 47.5 
Q 32.28125 48.484375 27.875 48.484375 
Q 21.1875 48.484375 17.84375 46.4375 
Q 14.5 44.390625 14.5 40.28125 
Q 14.5 37.15625 16.890625 35.375 
Q 19.28125 33.59375 26.515625 31.984375 
L 29.59375 31.296875 
Q 39.15625 29.25 43.1875 25.515625 
Q 47.21875 21.78125 47.21875 15.09375 
Q 47.21875 7.46875 41.1875 3.015625 
Q 35.15625 -1.421875 24.609375 -1.421875 
Q 20.21875 -1.421875 15.453125 -0.5625 
Q 10.6875 0.296875 5.421875 2 
L 5.421875 11.28125 
Q 10.40625 8.6875 15.234375 7.390625 
Q 20.0625 6.109375 24.8125 6.109375 
Q 31.15625 6.109375 34.5625 8.28125 
Q 37.984375 10.453125 37.984375 14.40625 
Q 37.984375 18.0625 35.515625 20.015625 
Q 33.0625 21.96875 24.703125 23.78125 
L 21.578125 24.515625 
Q 13.234375 26.265625 9.515625 29.90625 
Q 5.8125 33.546875 5.8125 39.890625 
Q 5.8125 47.609375 11.28125 51.796875 
Q 16.75 56 26.8125 56 
Q 31.78125 56 36.171875 55.265625 
Q 40.578125 54.546875 44.28125 53.078125 
z
" id="DejaVuSans-73"/>
      <path d="M 30.609375 48.390625 
Q 23.390625 48.390625 19.1875 42.75 
Q 14.984375 37.109375 14.984375 27.296875 
Q 14.984375 17.484375 19.15625 11.84375 
Q 23.34375 6.203125 30.609375 6.203125 
Q 37.796875 6.203125 41.984375 11.859375 
Q 46.1875 17.53125 46.1875 27.296875 
Q 46.1875 37.015625 41.984375 42.703125 
Q 37.796875 48.390625 30.609375 48.390625 
z
M 30.609375 56 
Q 42.328125 56 49.015625 48.375 
Q 55.71875 40.765625 55.71875 27.296875 
Q 55.71875 13.875 49.015625 6.21875 
Q 42.328125 -1.421875 30.609375 -1.421875 
Q 18.84375 -1.421875 12.171875 6.21875 
Q 5.515625 13.875 5.515625 27.296875 
Q 5.515625 40.765625 12.171875 48.375 
Q 18.84375 56 30.609375 56 
z
" id="DejaVuSans-6f"/>
      <path d="M 9.421875 75.984375 
L 18.40625 75.984375 
L 18.40625 0 
L 9.421875 0 
z
" id="DejaVuSans-6c"/>
      <path d="M 8.5 21.578125 
L 8.5 54.6875 
L 17.484375 54.6875 
L 17.484375 21.921875 
Q 17.484375 14.15625 20.5 10.265625 
Q 23.53125 6.390625 29.59375 6.390625 
Q 36.859375 6.390625 41.078125 11.03125 
Q 45.3125 15.671875 45.3125 23.6875 
L 45.3125 54.6875 
L 54.296875 54.6875 
L 54.296875 0 
L 45.3125 0 
L 45.3125 8.40625 
Q 42.046875 3.421875 37.71875 1 
Q 33.40625 -1.421875 27.6875 -1.421875 
Q 18.265625 -1.421875 13.375 4.4375 
Q 8.5 10.296875 8.5 21.578125 
z
M 31.109375 56 
z
" id="DejaVuSans-75"/>
      <path d="M 18.3125 70.21875 
L 18.3125 54.6875 
L 36.8125 54.6875 
L 36.8125 47.703125 
L 18.3125 47.703125 
L 18.3125 18.015625 
Q 18.3125 11.328125 20.140625 9.421875 
Q 21.96875 7.515625 27.59375 7.515625 
L 36.8125 7.515625 
L 36.8125 0 
L 27.59375 0 
Q 17.1875 0 13.234375 3.875 
Q 9.28125 7.765625 9.28125 18.015625 
L 9.28125 47.703125 
L 2.6875 47.703125 
L 2.6875 54.6875 
L 9.28125 54.6875 
L 9.28125 70.21875 
z
" id="DejaVuSans-74"/>
      <path d="M 56.203125 29.59375 
L 56.203125 25.203125 
L 14.890625 25.203125 
Q 15.484375 15.921875 20.484375 11.0625 
Q 25.484375 6.203125 34.421875 6.203125 
Q 39.59375 6.203125 44.453125 7.46875 
Q 49.3125 8.734375 54.109375 11.28125 
L 54.109375 2.78125 
Q 49.265625 0.734375 44.1875 -0.34375 
Q 39.109375 -1.421875 33.890625 -1.421875 
Q 20.796875 -1.421875 13.15625 6.1875 
Q 5.515625 13.8125 5.515625 26.8125 
Q 5.515625 40.234375 12.765625 48.109375 
Q 20.015625 56 32.328125 56 
Q 43.359375 56 49.78125 48.890625 
Q 56.203125 41.796875 56.203125 29.59375 
z
M 47.21875 32.234375 
Q 47.125 39.59375 43.09375 43.984375 
Q 39.0625 48.390625 32.421875 48.390625 
Q 24.90625 48.390625 20.390625 44.140625 
Q 15.875 39.890625 15.1875 32.171875 
z
" id="DejaVuSans-65"/>
      <path id="DejaVuSans-20"/>
      <path d="M 9.8125 72.90625 
L 55.90625 72.90625 
L 55.90625 64.59375 
L 19.671875 64.59375 
L 19.671875 43.015625 
L 54.390625 43.015625 
L 54.390625 34.71875 
L 19.671875 34.71875 
L 19.671875 8.296875 
L 56.78125 8.296875 
L 56.78125 0 
L 9.8125 0 
z
" id="DejaVuSans-45"/>
      <path d="M 41.109375 46.296875 
Q 39.59375 47.171875 37.8125 47.578125 
Q 36.03125 48 33.890625 48 
Q 26.265625 48 22.1875 43.046875 
Q 18.109375 38.09375 18.109375 28.8125 
L 18.109375 0 
L 9.078125 0 
L 9.078125 54.6875 
L 18.109375 54.6875 
L 18.109375 46.1875 
Q 20.953125 51.171875 25.484375 53.578125 
Q 30.03125 56 36.53125 56 
Q 37.453125 56 38.578125 55.875 
Q 39.703125 55.765625 41.0625 55.515625 
z
" id="DejaVuSans-72"/>
     </defs>
     <g style="fill:#262626;" transform="translate(235.875283 601.17485)scale(0.176 -0.176)">
      <use xlink:href="#DejaVuSans-41"/>
      <use x="68.408203" xlink:href="#DejaVuSans-62"/>
      <use x="131.884766" xlink:href="#DejaVuSans-73"/>
      <use x="183.984375" xlink:href="#DejaVuSans-6f"/>
      <use x="245.166016" xlink:href="#DejaVuSans-6c"/>
      <use x="272.949219" xlink:href="#DejaVuSans-75"/>
      <use x="336.328125" xlink:href="#DejaVuSans-74"/>
      <use x="375.537109" xlink:href="#DejaVuSans-65"/>
      <use x="437.060547" xlink:href="#DejaVuSans-20"/>
      <use x="468.847656" xlink:href="#DejaVuSans-45"/>
      <use x="532.03125" xlink:href="#DejaVuSans-72"/>
      <use x="573.128906" xlink:href="#DejaVuSans-72"/>
      <use x="614.210938" xlink:href="#DejaVuSans-6f"/>
      <use x="675.392578" xlink:href="#DejaVuSans-72"/>
     </g>
    </g>
   </g>
   <g id="matplotlib.axis_2">
    <g id="ytick_1">
     <g id="line2d_13">
      <path clip-path="url(#pe37a8a125b)" d="M 59.7935 545.84943 
L 538.061067 545.84943 
" style="fill:none;stroke:#ffffff;stroke-linecap:round;stroke-width:1.6;"/>
     </g>
     <g id="line2d_14"/>
     <g id="text_8">
      <!-- 0 -->
      <g style="fill:#262626;" transform="translate(38.4135 551.92818)scale(0.16 -0.16)">
       <use xlink:href="#DejaVuSans-30"/>
      </g>
     </g>
    </g>
    <g id="ytick_2">
     <g id="line2d_15">
      <path clip-path="url(#pe37a8a125b)" d="M 59.7935 481.478543 
L 538.061067 481.478543 
" style="fill:none;stroke:#ffffff;stroke-linecap:round;stroke-width:1.6;"/>
     </g>
     <g id="line2d_16"/>
     <g id="text_9">
      <!-- 5 -->
      <defs>
       <path d="M 10.796875 72.90625 
L 49.515625 72.90625 
L 49.515625 64.59375 
L 19.828125 64.59375 
L 19.828125 46.734375 
Q 21.96875 47.46875 24.109375 47.828125 
Q 26.265625 48.1875 28.421875 48.1875 
Q 40.625 48.1875 47.75 41.5 
Q 54.890625 34.8125 54.890625 23.390625 
Q 54.890625 11.625 47.5625 5.09375 
Q 40.234375 -1.421875 26.90625 -1.421875 
Q 22.3125 -1.421875 17.546875 -0.640625 
Q 12.796875 0.140625 7.71875 1.703125 
L 7.71875 11.625 
Q 12.109375 9.234375 16.796875 8.0625 
Q 21.484375 6.890625 26.703125 6.890625 
Q 35.15625 6.890625 40.078125 11.328125 
Q 45.015625 15.765625 45.015625 23.390625 
Q 45.015625 31 40.078125 35.4375 
Q 35.15625 39.890625 26.703125 39.890625 
Q 22.75 39.890625 18.8125 39.015625 
Q 14.890625 38.140625 10.796875 36.28125 
z
" id="DejaVuSans-35"/>
      </defs>
      <g style="fill:#262626;" transform="translate(38.4135 487.557293)scale(0.16 -0.16)">
       <use xlink:href="#DejaVuSans-35"/>
      </g>
     </g>
    </g>
    <g id="ytick_3">
     <g id="line2d_17">
      <path clip-path="url(#pe37a8a125b)" d="M 59.7935 417.107655 
L 538.061067 417.107655 
" style="fill:none;stroke:#ffffff;stroke-linecap:round;stroke-width:1.6;"/>
     </g>
     <g id="line2d_18"/>
     <g id="text_10">
      <!-- 10 -->
      <g style="fill:#262626;" transform="translate(28.2335 423.186405)scale(0.16 -0.16)">
       <use xlink:href="#DejaVuSans-31"/>
       <use x="63.623047" xlink:href="#DejaVuSans-30"/>
      </g>
     </g>
    </g>
    <g id="ytick_4">
     <g id="line2d_19">
      <path clip-path="url(#pe37a8a125b)" d="M 59.7935 352.736768 
L 538.061067 352.736768 
" style="fill:none;stroke:#ffffff;stroke-linecap:round;stroke-width:1.6;"/>
     </g>
     <g id="line2d_20"/>
     <g id="text_11">
      <!-- 15 -->
      <g style="fill:#262626;" transform="translate(28.2335 358.815518)scale(0.16 -0.16)">
       <use xlink:href="#DejaVuSans-31"/>
       <use x="63.623047" xlink:href="#DejaVuSans-35"/>
      </g>
     </g>
    </g>
    <g id="ytick_5">
     <g id="line2d_21">
      <path clip-path="url(#pe37a8a125b)" d="M 59.7935 288.365881 
L 538.061067 288.365881 
" style="fill:none;stroke:#ffffff;stroke-linecap:round;stroke-width:1.6;"/>
     </g>
     <g id="line2d_22"/>
     <g id="text_12">
      <!-- 20 -->
      <g style="fill:#262626;" transform="translate(28.2335 294.444631)scale(0.16 -0.16)">
       <use xlink:href="#DejaVuSans-32"/>
       <use x="63.623047" xlink:href="#DejaVuSans-30"/>
      </g>
     </g>
    </g>
    <g id="ytick_6">
     <g id="line2d_23">
      <path clip-path="url(#pe37a8a125b)" d="M 59.7935 223.994994 
L 538.061067 223.994994 
" style="fill:none;stroke:#ffffff;stroke-linecap:round;stroke-width:1.6;"/>
     </g>
     <g id="line2d_24"/>
     <g id="text_13">
      <!-- 25 -->
      <g style="fill:#262626;" transform="translate(28.2335 230.073744)scale(0.16 -0.16)">
       <use xlink:href="#DejaVuSans-32"/>
       <use x="63.623047" xlink:href="#DejaVuSans-35"/>
      </g>
     </g>
    </g>
    <g id="ytick_7">
     <g id="line2d_25">
      <path clip-path="url(#pe37a8a125b)" d="M 59.7935 159.624107 
L 538.061067 159.624107 
" style="fill:none;stroke:#ffffff;stroke-linecap:round;stroke-width:1.6;"/>
     </g>
     <g id="line2d_26"/>
     <g id="text_14">
      <!-- 30 -->
      <defs>
       <path d="M 40.578125 39.3125 
Q 47.65625 37.796875 51.625 33 
Q 55.609375 28.21875 55.609375 21.1875 
Q 55.609375 10.40625 48.1875 4.484375 
Q 40.765625 -1.421875 27.09375 -1.421875 
Q 22.515625 -1.421875 17.65625 -0.515625 
Q 12.796875 0.390625 7.625 2.203125 
L 7.625 11.71875 
Q 11.71875 9.328125 16.59375 8.109375 
Q 21.484375 6.890625 26.8125 6.890625 
Q 36.078125 6.890625 40.9375 10.546875 
Q 45.796875 14.203125 45.796875 21.1875 
Q 45.796875 27.640625 41.28125 31.265625 
Q 36.765625 34.90625 28.71875 34.90625 
L 20.21875 34.90625 
L 20.21875 43.015625 
L 29.109375 43.015625 
Q 36.375 43.015625 40.234375 45.921875 
Q 44.09375 48.828125 44.09375 54.296875 
Q 44.09375 59.90625 40.109375 62.90625 
Q 36.140625 65.921875 28.71875 65.921875 
Q 24.65625 65.921875 20.015625 65.03125 
Q 15.375 64.15625 9.8125 62.3125 
L 9.8125 71.09375 
Q 15.4375 72.65625 20.34375 73.4375 
Q 25.25 74.21875 29.59375 74.21875 
Q 40.828125 74.21875 47.359375 69.109375 
Q 53.90625 64.015625 53.90625 55.328125 
Q 53.90625 49.265625 50.4375 45.09375 
Q 46.96875 40.921875 40.578125 39.3125 
z
" id="DejaVuSans-33"/>
      </defs>
      <g style="fill:#262626;" transform="translate(28.2335 165.702857)scale(0.16 -0.16)">
       <use xlink:href="#DejaVuSans-33"/>
       <use x="63.623047" xlink:href="#DejaVuSans-30"/>
      </g>
     </g>
    </g>
    <g id="ytick_8">
     <g id="line2d_27">
      <path clip-path="url(#pe37a8a125b)" d="M 59.7935 95.25322 
L 538.061067 95.25322 
" style="fill:none;stroke:#ffffff;stroke-linecap:round;stroke-width:1.6;"/>
     </g>
     <g id="line2d_28"/>
     <g id="text_15">
      <!-- 35 -->
      <g style="fill:#262626;" transform="translate(28.2335 101.33197)scale(0.16 -0.16)">
       <use xlink:href="#DejaVuSans-33"/>
       <use x="63.623047" xlink:href="#DejaVuSans-35"/>
      </g>
     </g>
    </g>
    <g id="text_16">
     <!-- Population Density -->
     <defs>
      <path d="M 19.671875 64.796875 
L 19.671875 37.40625 
L 32.078125 37.40625 
Q 38.96875 37.40625 42.71875 40.96875 
Q 46.484375 44.53125 46.484375 51.125 
Q 46.484375 57.671875 42.71875 61.234375 
Q 38.96875 64.796875 32.078125 64.796875 
z
M 9.8125 72.90625 
L 32.078125 72.90625 
Q 44.34375 72.90625 50.609375 67.359375 
Q 56.890625 61.8125 56.890625 51.125 
Q 56.890625 40.328125 50.609375 34.8125 
Q 44.34375 29.296875 32.078125 29.296875 
L 19.671875 29.296875 
L 19.671875 0 
L 9.8125 0 
z
" id="DejaVuSans-50"/>
      <path d="M 18.109375 8.203125 
L 18.109375 -20.796875 
L 9.078125 -20.796875 
L 9.078125 54.6875 
L 18.109375 54.6875 
L 18.109375 46.390625 
Q 20.953125 51.265625 25.265625 53.625 
Q 29.59375 56 35.59375 56 
Q 45.5625 56 51.78125 48.09375 
Q 58.015625 40.1875 58.015625 27.296875 
Q 58.015625 14.40625 51.78125 6.484375 
Q 45.5625 -1.421875 35.59375 -1.421875 
Q 29.59375 -1.421875 25.265625 0.953125 
Q 20.953125 3.328125 18.109375 8.203125 
z
M 48.6875 27.296875 
Q 48.6875 37.203125 44.609375 42.84375 
Q 40.53125 48.484375 33.40625 48.484375 
Q 26.265625 48.484375 22.1875 42.84375 
Q 18.109375 37.203125 18.109375 27.296875 
Q 18.109375 17.390625 22.1875 11.75 
Q 26.265625 6.109375 33.40625 6.109375 
Q 40.53125 6.109375 44.609375 11.75 
Q 48.6875 17.390625 48.6875 27.296875 
z
" id="DejaVuSans-70"/>
      <path d="M 34.28125 27.484375 
Q 23.390625 27.484375 19.1875 25 
Q 14.984375 22.515625 14.984375 16.5 
Q 14.984375 11.71875 18.140625 8.90625 
Q 21.296875 6.109375 26.703125 6.109375 
Q 34.1875 6.109375 38.703125 11.40625 
Q 43.21875 16.703125 43.21875 25.484375 
L 43.21875 27.484375 
z
M 52.203125 31.203125 
L 52.203125 0 
L 43.21875 0 
L 43.21875 8.296875 
Q 40.140625 3.328125 35.546875 0.953125 
Q 30.953125 -1.421875 24.3125 -1.421875 
Q 15.921875 -1.421875 10.953125 3.296875 
Q 6 8.015625 6 15.921875 
Q 6 25.140625 12.171875 29.828125 
Q 18.359375 34.515625 30.609375 34.515625 
L 43.21875 34.515625 
L 43.21875 35.40625 
Q 43.21875 41.609375 39.140625 45 
Q 35.0625 48.390625 27.6875 48.390625 
Q 23 48.390625 18.546875 47.265625 
Q 14.109375 46.140625 10.015625 43.890625 
L 10.015625 52.203125 
Q 14.9375 54.109375 19.578125 55.046875 
Q 24.21875 56 28.609375 56 
Q 40.484375 56 46.34375 49.84375 
Q 52.203125 43.703125 52.203125 31.203125 
z
" id="DejaVuSans-61"/>
      <path d="M 9.421875 54.6875 
L 18.40625 54.6875 
L 18.40625 0 
L 9.421875 0 
z
M 9.421875 75.984375 
L 18.40625 75.984375 
L 18.40625 64.59375 
L 9.421875 64.59375 
z
" id="DejaVuSans-69"/>
      <path d="M 54.890625 33.015625 
L 54.890625 0 
L 45.90625 0 
L 45.90625 32.71875 
Q 45.90625 40.484375 42.875 44.328125 
Q 39.84375 48.1875 33.796875 48.1875 
Q 26.515625 48.1875 22.3125 43.546875 
Q 18.109375 38.921875 18.109375 30.90625 
L 18.109375 0 
L 9.078125 0 
L 9.078125 54.6875 
L 18.109375 54.6875 
L 18.109375 46.1875 
Q 21.34375 51.125 25.703125 53.5625 
Q 30.078125 56 35.796875 56 
Q 45.21875 56 50.046875 50.171875 
Q 54.890625 44.34375 54.890625 33.015625 
z
" id="DejaVuSans-6e"/>
      <path d="M 19.671875 64.796875 
L 19.671875 8.109375 
L 31.59375 8.109375 
Q 46.6875 8.109375 53.6875 14.9375 
Q 60.6875 21.78125 60.6875 36.53125 
Q 60.6875 51.171875 53.6875 57.984375 
Q 46.6875 64.796875 31.59375 64.796875 
z
M 9.8125 72.90625 
L 30.078125 72.90625 
Q 51.265625 72.90625 61.171875 64.09375 
Q 71.09375 55.28125 71.09375 36.53125 
Q 71.09375 17.671875 61.125 8.828125 
Q 51.171875 0 30.078125 0 
L 9.8125 0 
z
" id="DejaVuSans-44"/>
      <path d="M 32.171875 -5.078125 
Q 28.375 -14.84375 24.75 -17.8125 
Q 21.140625 -20.796875 15.09375 -20.796875 
L 7.90625 -20.796875 
L 7.90625 -13.28125 
L 13.1875 -13.28125 
Q 16.890625 -13.28125 18.9375 -11.515625 
Q 21 -9.765625 23.484375 -3.21875 
L 25.09375 0.875 
L 2.984375 54.6875 
L 12.5 54.6875 
L 29.59375 11.921875 
L 46.6875 54.6875 
L 56.203125 54.6875 
z
" id="DejaVuSans-79"/>
     </defs>
     <g style="fill:#262626;" transform="translate(20.57325 396.748225)rotate(-90)scale(0.176 -0.176)">
      <use xlink:href="#DejaVuSans-50"/>
      <use x="60.255859" xlink:href="#DejaVuSans-6f"/>
      <use x="121.4375" xlink:href="#DejaVuSans-70"/>
      <use x="184.914062" xlink:href="#DejaVuSans-75"/>
      <use x="248.292969" xlink:href="#DejaVuSans-6c"/>
      <use x="276.076172" xlink:href="#DejaVuSans-61"/>
      <use x="337.355469" xlink:href="#DejaVuSans-74"/>
      <use x="376.564453" xlink:href="#DejaVuSans-69"/>
      <use x="404.347656" xlink:href="#DejaVuSans-6f"/>
      <use x="465.529297" xlink:href="#DejaVuSans-6e"/>
      <use x="528.908203" xlink:href="#DejaVuSans-20"/>
      <use x="560.695312" xlink:href="#DejaVuSans-44"/>
      <use x="637.697266" xlink:href="#DejaVuSans-65"/>
      <use x="699.220703" xlink:href="#DejaVuSans-6e"/>
      <use x="762.599609" xlink:href="#DejaVuSans-73"/>
      <use x="814.699219" xlink:href="#DejaVuSans-69"/>
      <use x="842.482422" xlink:href="#DejaVuSans-74"/>
      <use x="881.691406" xlink:href="#DejaVuSans-79"/>
     </g>
    </g>
   </g>
   <g id="PathCollection_1">
    <defs>
     <path d="M 0 5.6 
C 1.485137 5.6 2.909647 5.009949 3.959798 3.959798 
C 5.009949 2.909647 5.6 1.485137 5.6 0 
C 5.6 -1.485137 5.009949 -2.909647 3.959798 -3.959798 
C 2.909647 -5.009949 1.485137 -5.6 0 -5.6 
C -1.485137 -5.6 -2.909647 -5.009949 -3.959798 -3.959798 
C -5.009949 -2.909647 -5.6 -1.485137 -5.6 0 
C -5.6 1.485137 -5.009949 2.909647 -3.959798 3.959798 
C -2.909647 5.009949 -1.485137 5.6 0 5.6 
z
" id="m20557c7a7d" style="stroke:#2ecc71;stroke-width:0.48;"/>
    </defs>
    <g clip-path="url(#pe37a8a125b)">
     <use style="fill:#2ecc71;stroke:#2ecc71;stroke-width:0.48;" x="109.461086" xlink:href="#m20557c7a7d" y="444.476059"/>
     <use style="fill:#2ecc71;stroke:#2ecc71;stroke-width:0.48;" x="99.095233" xlink:href="#m20557c7a7d" y="428.433355"/>
     <use style="fill:#2ecc71;stroke:#2ecc71;stroke-width:0.48;" x="92.29395" xlink:href="#m20557c7a7d" y="423.318564"/>
     <use style="fill:#2ecc71;stroke:#2ecc71;stroke-width:0.48;" x="118.924204" xlink:href="#m20557c7a7d" y="497.925262"/>
     <use style="fill:#2ecc71;stroke:#2ecc71;stroke-width:0.48;" x="84.345528" xlink:href="#m20557c7a7d" y="438.419086"/>
     <use style="fill:#2ecc71;stroke:#2ecc71;stroke-width:0.48;" x="81.582495" xlink:href="#m20557c7a7d" y="375.916169"/>
     <use style="fill:#2ecc71;stroke:#2ecc71;stroke-width:0.48;" x="103.252744" xlink:href="#m20557c7a7d" y="453.357944"/>
     <use style="fill:#2ecc71;stroke:#2ecc71;stroke-width:0.48;" x="111.542736" xlink:href="#m20557c7a7d" y="399.308964"/>
     <use style="fill:#2ecc71;stroke:#2ecc71;stroke-width:0.48;" x="116.370791" xlink:href="#m20557c7a7d" y="473.236698"/>
     <use style="fill:#2ecc71;stroke:#2ecc71;stroke-width:0.48;" x="103.516438" xlink:href="#m20557c7a7d" y="104.319542"/>
     <use style="fill:#2ecc71;stroke:#2ecc71;stroke-width:0.48;" x="113.978874" xlink:href="#m20557c7a7d" y="252.651961"/>
     <use style="fill:#2ecc71;stroke:#2ecc71;stroke-width:0.48;" x="105.679746" xlink:href="#m20557c7a7d" y="413.084539"/>
    </g>
   </g>
   <g id="PathCollection_2">
    <defs>
     <path d="M -0 7.919596 
L 7.919596 0 
L 0 -7.919596 
L -7.919596 -0 
z
" id="m54941ec83c" style="stroke:#34495e;stroke-width:0.48;"/>
    </defs>
    <g clip-path="url(#pe37a8a125b)">
     <use style="fill:#34495e;stroke:#34495e;stroke-width:0.48;" x="219.590246" xlink:href="#m54941ec83c" y="394.985374"/>
     <use style="fill:#34495e;stroke:#34495e;stroke-width:0.48;" x="211.001238" xlink:href="#m54941ec83c" y="421.204179"/>
     <use style="fill:#34495e;stroke:#34495e;stroke-width:0.48;" x="204.570114" xlink:href="#m54941ec83c" y="340.681493"/>
     <use style="fill:#34495e;stroke:#34495e;stroke-width:0.48;" x="199.027989" xlink:href="#m54941ec83c" y="449.141497"/>
     <use style="fill:#34495e;stroke:#34495e;stroke-width:0.48;" x="214.993064" xlink:href="#m54941ec83c" y="445.245539"/>
     <use style="fill:#34495e;stroke:#34495e;stroke-width:0.48;" x="152.086264" xlink:href="#m54941ec83c" y="468.357447"/>
     <use style="fill:#34495e;stroke:#34495e;stroke-width:0.48;" x="241.176329" xlink:href="#m54941ec83c" y="489.77565"/>
     <use style="fill:#34495e;stroke:#34495e;stroke-width:0.48;" x="158.879029" xlink:href="#m54941ec83c" y="272.898523"/>
     <use style="fill:#34495e;stroke:#34495e;stroke-width:0.48;" x="134.424374" xlink:href="#m54941ec83c" y="345.109733"/>
     <use style="fill:#34495e;stroke:#34495e;stroke-width:0.48;" x="187.45836" xlink:href="#m54941ec83c" y="407.318369"/>
     <use style="fill:#34495e;stroke:#34495e;stroke-width:0.48;" x="149.270757" xlink:href="#m54941ec83c" y="463.420168"/>
     <use style="fill:#34495e;stroke:#34495e;stroke-width:0.48;" x="122.167957" xlink:href="#m54941ec83c" y="485.660506"/>
     <use style="fill:#34495e;stroke:#34495e;stroke-width:0.48;" x="136.12545" xlink:href="#m54941ec83c" y="454.284919"/>
     <use style="fill:#34495e;stroke:#34495e;stroke-width:0.48;" x="136.039839" xlink:href="#m54941ec83c" y="459.82382"/>
     <use style="fill:#34495e;stroke:#34495e;stroke-width:0.48;" x="219.687575" xlink:href="#m54941ec83c" y="481.321056"/>
     <use style="fill:#34495e;stroke:#34495e;stroke-width:0.48;" x="231.287496" xlink:href="#m54941ec83c" y="388.544368"/>
     <use style="fill:#34495e;stroke:#34495e;stroke-width:0.48;" x="174.66337" xlink:href="#m54941ec83c" y="463.802057"/>
     <use style="fill:#34495e;stroke:#34495e;stroke-width:0.48;" x="172.64187" xlink:href="#m54941ec83c" y="444.311503"/>
     <use style="fill:#34495e;stroke:#34495e;stroke-width:0.48;" x="124.806686" xlink:href="#m54941ec83c" y="436.723556"/>
     <use style="fill:#34495e;stroke:#34495e;stroke-width:0.48;" x="226.443287" xlink:href="#m54941ec83c" y="369.518904"/>
     <use style="fill:#34495e;stroke:#34495e;stroke-width:0.48;" x="200.81455" xlink:href="#m54941ec83c" y="452.816752"/>
     <use style="fill:#34495e;stroke:#34495e;stroke-width:0.48;" x="149.189219" xlink:href="#m54941ec83c" y="424.233777"/>
     <use style="fill:#34495e;stroke:#34495e;stroke-width:0.48;" x="146.067334" xlink:href="#m54941ec83c" y="370.149486"/>
    </g>
   </g>
   <g id="PathCollection_3">
    <defs>
     <path d="M -5.6 5.6 
L 5.6 5.6 
L 5.6 -5.6 
L -5.6 -5.6 
z
" id="m7214164c75" style="stroke:#e74c3c;stroke-width:0.48;"/>
    </defs>
    <g clip-path="url(#pe37a8a125b)">
     <use style="fill:#e74c3c;stroke:#e74c3c;stroke-width:0.48;" x="368.590963" xlink:href="#m7214164c75" y="494.244175"/>
     <use style="fill:#e74c3c;stroke:#e74c3c;stroke-width:0.48;" x="243.898606" xlink:href="#m7214164c75" y="455.427553"/>
     <use style="fill:#e74c3c;stroke:#e74c3c;stroke-width:0.48;" x="300.669315" xlink:href="#m7214164c75" y="268.311916"/>
     <use style="fill:#e74c3c;stroke:#e74c3c;stroke-width:0.48;" x="514.285783" xlink:href="#m7214164c75" y="97.724687"/>
     <use style="fill:#e74c3c;stroke:#e74c3c;stroke-width:0.48;" x="275.247599" xlink:href="#m7214164c75" y="393.492443"/>
     <use style="fill:#e74c3c;stroke:#e74c3c;stroke-width:0.48;" x="268.656237" xlink:href="#m7214164c75" y="467.439837"/>
     <use style="fill:#e74c3c;stroke:#e74c3c;stroke-width:0.48;" x="294.329231" xlink:href="#m7214164c75" y="459.055021"/>
     <use style="fill:#e74c3c;stroke:#e74c3c;stroke-width:0.48;" x="302.485569" xlink:href="#m7214164c75" y="463.215317"/>
     <use style="fill:#e74c3c;stroke:#e74c3c;stroke-width:0.48;" x="299.176632" xlink:href="#m7214164c75" y="434.838744"/>
     <use style="fill:#e74c3c;stroke:#e74c3c;stroke-width:0.48;" x="257.71667" xlink:href="#m7214164c75" y="394.237011"/>
     <use style="fill:#e74c3c;stroke:#e74c3c;stroke-width:0.48;" x="258.551791" xlink:href="#m7214164c75" y="173.727962"/>
     <use style="fill:#e74c3c;stroke:#e74c3c;stroke-width:0.48;" x="270.609938" xlink:href="#m7214164c75" y="457.319688"/>
    </g>
   </g>
   <g id="PolyCollection_1">
    <path clip-path="url(#pe37a8a125b)" d="M 59.7935 361.634185 
L 59.7935 483.785271 
L 64.624486 480.749655 
L 69.455471 477.977542 
L 74.286457 475.759199 
L 79.117442 473.272704 
L 83.948428 470.490083 
L 88.779413 467.706389 
L 93.610399 465.185586 
L 98.441384 462.215367 
L 103.27237 459.293526 
L 108.103355 456.810709 
L 112.934341 454.348548 
L 117.765326 452.764648 
L 122.596312 450.039481 
L 127.427297 447.849462 
L 132.258283 445.753029 
L 137.089268 443.567421 
L 141.920254 441.820025 
L 146.751239 439.71888 
L 151.582225 437.876823 
L 156.41321 435.8951 
L 161.244196 434.188118 
L 166.075181 432.951826 
L 170.906167 431.68189 
L 175.737153 430.235256 
L 180.568138 429.601161 
L 185.399124 429.373327 
L 190.230109 429.523429 
L 195.061095 429.761844 
L 199.89208 430.043945 
L 204.723066 430.185777 
L 209.554051 430.483507 
L 214.385037 431.072415 
L 219.216022 431.326854 
L 224.047008 431.762484 
L 228.877993 432.114837 
L 233.708979 432.744016 
L 238.539964 434.392115 
L 243.37095 435.81227 
L 248.201935 437.075477 
L 253.032921 438.430489 
L 257.863906 439.62694 
L 262.694892 440.838458 
L 267.525877 442.038998 
L 272.356863 443.24151 
L 277.187849 444.379468 
L 282.018834 446.004019 
L 286.84982 447.800989 
L 291.680805 449.354091 
L 296.511791 451.354417 
L 301.342776 452.535285 
L 306.173762 453.844632 
L 311.004747 454.993819 
L 315.835733 455.982552 
L 320.666718 457.600435 
L 325.497704 458.792413 
L 330.328689 460.796736 
L 335.159675 462.785608 
L 339.99066 464.806005 
L 344.821646 466.817686 
L 349.652631 468.804598 
L 354.483617 470.814515 
L 359.314602 472.82804 
L 364.145588 474.841429 
L 368.976573 476.840574 
L 373.807559 478.843134 
L 378.638544 480.851736 
L 383.46953 482.277027 
L 388.300516 483.863511 
L 393.131501 485.532044 
L 397.962487 487.200451 
L 402.793472 488.868858 
L 407.624458 490.528655 
L 412.455443 491.919191 
L 417.286429 493.095981 
L 422.117414 494.27277 
L 426.9484 495.449559 
L 431.779385 496.626349 
L 436.610371 497.803138 
L 441.441356 498.979927 
L 446.272342 500.540819 
L 451.103327 502.390618 
L 455.934313 504.240417 
L 460.765298 506.090216 
L 465.596284 507.940015 
L 470.427269 509.789814 
L 475.258255 511.638641 
L 480.08924 513.487354 
L 484.920226 515.336067 
L 489.751212 517.184779 
L 494.582197 519.033492 
L 499.413183 520.882205 
L 504.244168 522.730918 
L 509.075154 524.57963 
L 513.906139 526.428343 
L 518.737125 528.277056 
L 523.56811 530.11776 
L 528.399096 531.749517 
L 533.230081 533.381273 
L 538.061067 535.010782 
L 538.061067 179.818031 
L 538.061067 179.818031 
L 533.230081 183.029529 
L 528.399096 186.241027 
L 523.56811 189.452525 
L 518.737125 192.664023 
L 513.906139 195.87552 
L 509.075154 198.948249 
L 504.244168 201.618442 
L 499.413183 204.288635 
L 494.582197 206.958828 
L 489.751212 209.629021 
L 484.920226 212.299214 
L 480.08924 214.969408 
L 475.258255 217.769223 
L 470.427269 220.891176 
L 465.596284 224.013129 
L 460.765298 227.14131 
L 455.934313 230.082347 
L 451.103327 232.899764 
L 446.272342 235.717181 
L 441.441356 238.534597 
L 436.610371 241.352014 
L 431.779385 244.270275 
L 426.9484 247.332618 
L 422.117414 250.394961 
L 417.286429 253.457304 
L 412.455443 256.519647 
L 407.624458 259.58199 
L 402.793472 262.644333 
L 397.962487 265.706676 
L 393.131501 268.769019 
L 388.300516 271.831362 
L 383.46953 274.893705 
L 378.638544 277.956048 
L 373.807559 280.630457 
L 368.976573 283.268117 
L 364.145588 285.905776 
L 359.314602 288.543436 
L 354.483617 291.181096 
L 349.652631 293.818755 
L 344.821646 296.456415 
L 339.99066 299.098042 
L 335.159675 301.744074 
L 330.328689 304.470724 
L 325.497704 308.065526 
L 320.666718 311.67235 
L 315.835733 314.669099 
L 311.004747 317.074437 
L 306.173762 319.869916 
L 301.342776 322.448295 
L 296.511791 325.415582 
L 291.680805 328.528702 
L 286.84982 331.086829 
L 282.018834 333.536257 
L 277.187849 336.207621 
L 272.356863 338.778691 
L 267.525877 341.716754 
L 262.694892 344.818717 
L 257.863906 347.334958 
L 253.032921 349.392867 
L 248.201935 351.620647 
L 243.37095 353.849732 
L 238.539964 356.342234 
L 233.708979 359.046189 
L 228.877993 361.524992 
L 224.047008 363.241144 
L 219.216022 365.22128 
L 214.385037 367.593521 
L 209.554051 370.152311 
L 204.723066 371.587295 
L 199.89208 373.785629 
L 195.061095 375.727463 
L 190.230109 377.034657 
L 185.399124 378.059343 
L 180.568138 379.045763 
L 175.737153 380.518373 
L 170.906167 381.419074 
L 166.075181 382.823387 
L 161.244196 382.292586 
L 156.41321 382.140584 
L 151.582225 381.830832 
L 146.751239 381.727602 
L 141.920254 381.353457 
L 137.089268 380.441747 
L 132.258283 379.079378 
L 127.427297 378.758969 
L 122.596312 377.989773 
L 117.765326 375.945079 
L 112.934341 374.806724 
L 108.103355 373.947313 
L 103.27237 372.837063 
L 98.441384 371.14247 
L 93.610399 370.685675 
L 88.779413 369.456951 
L 83.948428 367.98953 
L 79.117442 367.276207 
L 74.286457 365.979785 
L 69.455471 364.521742 
L 64.624486 363.068734 
L 59.7935 361.634185 
z
" style="fill:#4c72b0;fill-opacity:0.15;"/>
   </g>
   <g id="line2d_29">
    <path clip-path="url(#pe37a8a125b)" d="M 59.7935 435.075565 
L 64.624486 433.940602 
L 69.455471 432.805639 
L 74.286457 431.670677 
L 79.117442 430.535714 
L 83.948428 429.400751 
L 88.779413 428.265788 
L 93.610399 427.130826 
L 98.441384 425.995863 
L 103.27237 424.8609 
L 108.103355 423.725937 
L 112.934341 422.590974 
L 117.765326 421.456012 
L 122.596312 420.321049 
L 127.427297 419.186086 
L 132.258283 418.051123 
L 137.089268 416.916161 
L 141.920254 415.781198 
L 146.751239 414.646235 
L 151.582225 413.511272 
L 156.41321 412.376309 
L 161.244196 411.241347 
L 166.075181 410.106384 
L 170.906167 408.971421 
L 175.737153 407.836458 
L 180.568138 406.701496 
L 185.399124 405.566533 
L 190.230109 404.43157 
L 195.061095 403.296607 
L 199.89208 402.161645 
L 204.723066 401.026682 
L 209.554051 399.891719 
L 214.385037 398.756756 
L 219.216022 397.621793 
L 224.047008 396.486831 
L 228.877993 395.351868 
L 233.708979 394.216905 
L 238.539964 393.081942 
L 243.37095 391.94698 
L 248.201935 390.812017 
L 253.032921 389.677054 
L 257.863906 388.542091 
L 262.694892 387.407128 
L 267.525877 386.272166 
L 272.356863 385.137203 
L 277.187849 384.00224 
L 282.018834 382.867277 
L 286.84982 381.732315 
L 291.680805 380.597352 
L 296.511791 379.462389 
L 301.342776 378.327426 
L 306.173762 377.192464 
L 311.004747 376.057501 
L 315.835733 374.922538 
L 320.666718 373.787575 
L 325.497704 372.652612 
L 330.328689 371.51765 
L 335.159675 370.382687 
L 339.99066 369.247724 
L 344.821646 368.112761 
L 349.652631 366.977799 
L 354.483617 365.842836 
L 359.314602 364.707873 
L 364.145588 363.57291 
L 368.976573 362.437947 
L 373.807559 361.302985 
L 378.638544 360.168022 
L 383.46953 359.033059 
L 388.300516 357.898096 
L 393.131501 356.763134 
L 397.962487 355.628171 
L 402.793472 354.493208 
L 407.624458 353.358245 
L 412.455443 352.223283 
L 417.286429 351.08832 
L 422.117414 349.953357 
L 426.9484 348.818394 
L 431.779385 347.683431 
L 436.610371 346.548469 
L 441.441356 345.413506 
L 446.272342 344.278543 
L 451.103327 343.14358 
L 455.934313 342.008618 
L 460.765298 340.873655 
L 465.596284 339.738692 
L 470.427269 338.603729 
L 475.258255 337.468766 
L 480.08924 336.333804 
L 484.920226 335.198841 
L 489.751212 334.063878 
L 494.582197 332.928915 
L 499.413183 331.793953 
L 504.244168 330.65899 
L 509.075154 329.524027 
L 513.906139 328.389064 
L 518.737125 327.254102 
L 523.56811 326.119139 
L 528.399096 324.984176 
L 533.230081 323.849213 
L 538.061067 322.71425 
" style="fill:none;stroke:#4c72b0;stroke-linecap:round;stroke-width:4.2;"/>
   </g>
   <g id="patch_3">
    <path d="M 59.7935 557.1166 
L 59.7935 70.7886 
" style="fill:none;"/>
   </g>
   <g id="patch_4">
    <path d="M 59.7935 557.1166 
L 538.061067 557.1166 
" style="fill:none;"/>
   </g>
   <g id="text_17">
    <!-- Residual Analysis -->
    <defs>
     <path d="M 44.390625 34.1875 
Q 47.5625 33.109375 50.5625 29.59375 
Q 53.5625 26.078125 56.59375 19.921875 
L 66.609375 0 
L 56 0 
L 46.6875 18.703125 
Q 43.0625 26.03125 39.671875 28.421875 
Q 36.28125 30.8125 30.421875 30.8125 
L 19.671875 30.8125 
L 19.671875 0 
L 9.8125 0 
L 9.8125 72.90625 
L 32.078125 72.90625 
Q 44.578125 72.90625 50.734375 67.671875 
Q 56.890625 62.453125 56.890625 51.90625 
Q 56.890625 45.015625 53.6875 40.46875 
Q 50.484375 35.9375 44.390625 34.1875 
z
M 19.671875 64.796875 
L 19.671875 38.921875 
L 32.078125 38.921875 
Q 39.203125 38.921875 42.84375 42.21875 
Q 46.484375 45.515625 46.484375 51.90625 
Q 46.484375 58.296875 42.84375 61.546875 
Q 39.203125 64.796875 32.078125 64.796875 
z
" id="DejaVuSans-52"/>
     <path d="M 45.40625 46.390625 
L 45.40625 75.984375 
L 54.390625 75.984375 
L 54.390625 0 
L 45.40625 0 
L 45.40625 8.203125 
Q 42.578125 3.328125 38.25 0.953125 
Q 33.9375 -1.421875 27.875 -1.421875 
Q 17.96875 -1.421875 11.734375 6.484375 
Q 5.515625 14.40625 5.515625 27.296875 
Q 5.515625 40.1875 11.734375 48.09375 
Q 17.96875 56 27.875 56 
Q 33.9375 56 38.25 53.625 
Q 42.578125 51.265625 45.40625 46.390625 
z
M 14.796875 27.296875 
Q 14.796875 17.390625 18.875 11.75 
Q 22.953125 6.109375 30.078125 6.109375 
Q 37.203125 6.109375 41.296875 11.75 
Q 45.40625 17.390625 45.40625 27.296875 
Q 45.40625 37.203125 41.296875 42.84375 
Q 37.203125 48.484375 30.078125 48.484375 
Q 22.953125 48.484375 18.875 42.84375 
Q 14.796875 37.203125 14.796875 27.296875 
z
" id="DejaVuSans-64"/>
    </defs>
    <g style="fill:#262626;" transform="translate(215.356283 21.789)scale(0.192 -0.192)">
     <use xlink:href="#DejaVuSans-52"/>
     <use x="69.419922" xlink:href="#DejaVuSans-65"/>
     <use x="130.943359" xlink:href="#DejaVuSans-73"/>
     <use x="183.042969" xlink:href="#DejaVuSans-69"/>
     <use x="210.826172" xlink:href="#DejaVuSans-64"/>
     <use x="274.302734" xlink:href="#DejaVuSans-75"/>
     <use x="337.681641" xlink:href="#DejaVuSans-61"/>
     <use x="398.960938" xlink:href="#DejaVuSans-6c"/>
     <use x="426.744141" xlink:href="#DejaVuSans-20"/>
     <use x="458.53125" xlink:href="#DejaVuSans-41"/>
     <use x="526.939453" xlink:href="#DejaVuSans-6e"/>
     <use x="590.318359" xlink:href="#DejaVuSans-61"/>
     <use x="651.597656" xlink:href="#DejaVuSans-6c"/>
     <use x="679.380859" xlink:href="#DejaVuSans-79"/>
     <use x="738.560547" xlink:href="#DejaVuSans-73"/>
     <use x="790.660156" xlink:href="#DejaVuSans-69"/>
     <use x="818.443359" xlink:href="#DejaVuSans-73"/>
    </g>
    <!-- Pearson: 0.2183, p-value: 0.1405 -->
    <defs>
     <path d="M 11.71875 12.40625 
L 22.015625 12.40625 
L 22.015625 0 
L 11.71875 0 
z
M 11.71875 51.703125 
L 22.015625 51.703125 
L 22.015625 39.3125 
L 11.71875 39.3125 
z
" id="DejaVuSans-3a"/>
     <path d="M 10.6875 12.40625 
L 21 12.40625 
L 21 0 
L 10.6875 0 
z
" id="DejaVuSans-2e"/>
     <path d="M 11.71875 12.40625 
L 22.015625 12.40625 
L 22.015625 4 
L 14.015625 -11.625 
L 7.71875 -11.625 
L 11.71875 4 
z
" id="DejaVuSans-2c"/>
     <path d="M 4.890625 31.390625 
L 31.203125 31.390625 
L 31.203125 23.390625 
L 4.890625 23.390625 
z
" id="DejaVuSans-2d"/>
     <path d="M 2.984375 54.6875 
L 12.5 54.6875 
L 29.59375 8.796875 
L 46.6875 54.6875 
L 56.203125 54.6875 
L 35.6875 0 
L 23.484375 0 
z
" id="DejaVuSans-76"/>
    </defs>
    <g style="fill:#262626;" transform="translate(138.815783 43.2888)scale(0.192 -0.192)">
     <use xlink:href="#DejaVuSans-50"/>
     <use x="60.255859" xlink:href="#DejaVuSans-65"/>
     <use x="121.779297" xlink:href="#DejaVuSans-61"/>
     <use x="183.058594" xlink:href="#DejaVuSans-72"/>
     <use x="224.171875" xlink:href="#DejaVuSans-73"/>
     <use x="276.271484" xlink:href="#DejaVuSans-6f"/>
     <use x="337.453125" xlink:href="#DejaVuSans-6e"/>
     <use x="400.832031" xlink:href="#DejaVuSans-3a"/>
     <use x="434.523438" xlink:href="#DejaVuSans-20"/>
     <use x="466.310547" xlink:href="#DejaVuSans-30"/>
     <use x="529.933594" xlink:href="#DejaVuSans-2e"/>
     <use x="561.720703" xlink:href="#DejaVuSans-32"/>
     <use x="625.34375" xlink:href="#DejaVuSans-31"/>
     <use x="688.966797" xlink:href="#DejaVuSans-38"/>
     <use x="752.589844" xlink:href="#DejaVuSans-33"/>
     <use x="816.212891" xlink:href="#DejaVuSans-2c"/>
     <use x="848" xlink:href="#DejaVuSans-20"/>
     <use x="879.787109" xlink:href="#DejaVuSans-70"/>
     <use x="943.263672" xlink:href="#DejaVuSans-2d"/>
     <use x="979.316406" xlink:href="#DejaVuSans-76"/>
     <use x="1038.496094" xlink:href="#DejaVuSans-61"/>
     <use x="1099.775391" xlink:href="#DejaVuSans-6c"/>
     <use x="1127.558594" xlink:href="#DejaVuSans-75"/>
     <use x="1190.9375" xlink:href="#DejaVuSans-65"/>
     <use x="1252.460938" xlink:href="#DejaVuSans-3a"/>
     <use x="1286.152344" xlink:href="#DejaVuSans-20"/>
     <use x="1317.939453" xlink:href="#DejaVuSans-30"/>
     <use x="1381.5625" xlink:href="#DejaVuSans-2e"/>
     <use x="1413.349609" xlink:href="#DejaVuSans-31"/>
     <use x="1476.972656" xlink:href="#DejaVuSans-34"/>
     <use x="1540.595703" xlink:href="#DejaVuSans-30"/>
     <use x="1604.21875" xlink:href="#DejaVuSans-35"/>
    </g>
    <!-- Spearman: -0.0401, p-value: 0.7889 -->
    <defs>
     <path d="M 53.515625 70.515625 
L 53.515625 60.890625 
Q 47.90625 63.578125 42.921875 64.890625 
Q 37.9375 66.21875 33.296875 66.21875 
Q 25.25 66.21875 20.875 63.09375 
Q 16.5 59.96875 16.5 54.203125 
Q 16.5 49.359375 19.40625 46.890625 
Q 22.3125 44.4375 30.421875 42.921875 
L 36.375 41.703125 
Q 47.40625 39.59375 52.65625 34.296875 
Q 57.90625 29 57.90625 20.125 
Q 57.90625 9.515625 50.796875 4.046875 
Q 43.703125 -1.421875 29.984375 -1.421875 
Q 24.8125 -1.421875 18.96875 -0.25 
Q 13.140625 0.921875 6.890625 3.21875 
L 6.890625 13.375 
Q 12.890625 10.015625 18.65625 8.296875 
Q 24.421875 6.59375 29.984375 6.59375 
Q 38.421875 6.59375 43.015625 9.90625 
Q 47.609375 13.234375 47.609375 19.390625 
Q 47.609375 24.75 44.3125 27.78125 
Q 41.015625 30.8125 33.5 32.328125 
L 27.484375 33.5 
Q 16.453125 35.6875 11.515625 40.375 
Q 6.59375 45.0625 6.59375 53.421875 
Q 6.59375 63.09375 13.40625 68.65625 
Q 20.21875 74.21875 32.171875 74.21875 
Q 37.3125 74.21875 42.625 73.28125 
Q 47.953125 72.359375 53.515625 70.515625 
z
" id="DejaVuSans-53"/>
     <path d="M 52 44.1875 
Q 55.375 50.25 60.0625 53.125 
Q 64.75 56 71.09375 56 
Q 79.640625 56 84.28125 50.015625 
Q 88.921875 44.046875 88.921875 33.015625 
L 88.921875 0 
L 79.890625 0 
L 79.890625 32.71875 
Q 79.890625 40.578125 77.09375 44.375 
Q 74.3125 48.1875 68.609375 48.1875 
Q 61.625 48.1875 57.5625 43.546875 
Q 53.515625 38.921875 53.515625 30.90625 
L 53.515625 0 
L 44.484375 0 
L 44.484375 32.71875 
Q 44.484375 40.625 41.703125 44.40625 
Q 38.921875 48.1875 33.109375 48.1875 
Q 26.21875 48.1875 22.15625 43.53125 
Q 18.109375 38.875 18.109375 30.90625 
L 18.109375 0 
L 9.078125 0 
L 9.078125 54.6875 
L 18.109375 54.6875 
L 18.109375 46.1875 
Q 21.1875 51.21875 25.484375 53.609375 
Q 29.78125 56 35.6875 56 
Q 41.65625 56 45.828125 52.96875 
Q 50 49.953125 52 44.1875 
z
" id="DejaVuSans-6d"/>
     <path d="M 8.203125 72.90625 
L 55.078125 72.90625 
L 55.078125 68.703125 
L 28.609375 0 
L 18.3125 0 
L 43.21875 64.59375 
L 8.203125 64.59375 
z
" id="DejaVuSans-37"/>
     <path d="M 10.984375 1.515625 
L 10.984375 10.5 
Q 14.703125 8.734375 18.5 7.8125 
Q 22.3125 6.890625 25.984375 6.890625 
Q 35.75 6.890625 40.890625 13.453125 
Q 46.046875 20.015625 46.78125 33.40625 
Q 43.953125 29.203125 39.59375 26.953125 
Q 35.25 24.703125 29.984375 24.703125 
Q 19.046875 24.703125 12.671875 31.3125 
Q 6.296875 37.9375 6.296875 49.421875 
Q 6.296875 60.640625 12.9375 67.421875 
Q 19.578125 74.21875 30.609375 74.21875 
Q 43.265625 74.21875 49.921875 64.515625 
Q 56.59375 54.828125 56.59375 36.375 
Q 56.59375 19.140625 48.40625 8.859375 
Q 40.234375 -1.421875 26.421875 -1.421875 
Q 22.703125 -1.421875 18.890625 -0.6875 
Q 15.09375 0.046875 10.984375 1.515625 
z
M 30.609375 32.421875 
Q 37.25 32.421875 41.125 36.953125 
Q 45.015625 41.5 45.015625 49.421875 
Q 45.015625 57.28125 41.125 61.84375 
Q 37.25 66.40625 30.609375 66.40625 
Q 23.96875 66.40625 20.09375 61.84375 
Q 16.21875 57.28125 16.21875 49.421875 
Q 16.21875 41.5 20.09375 36.953125 
Q 23.96875 32.421875 30.609375 32.421875 
z
" id="DejaVuSans-39"/>
    </defs>
    <g style="fill:#262626;" transform="translate(124.589783 64.7886)scale(0.192 -0.192)">
     <use xlink:href="#DejaVuSans-53"/>
     <use x="63.476562" xlink:href="#DejaVuSans-70"/>
     <use x="126.953125" xlink:href="#DejaVuSans-65"/>
     <use x="188.476562" xlink:href="#DejaVuSans-61"/>
     <use x="249.755859" xlink:href="#DejaVuSans-72"/>
     <use x="290.853516" xlink:href="#DejaVuSans-6d"/>
     <use x="388.265625" xlink:href="#DejaVuSans-61"/>
     <use x="449.544922" xlink:href="#DejaVuSans-6e"/>
     <use x="512.923828" xlink:href="#DejaVuSans-3a"/>
     <use x="546.615234" xlink:href="#DejaVuSans-20"/>
     <use x="578.402344" xlink:href="#DejaVuSans-2d"/>
     <use x="614.486328" xlink:href="#DejaVuSans-30"/>
     <use x="678.109375" xlink:href="#DejaVuSans-2e"/>
     <use x="709.896484" xlink:href="#DejaVuSans-30"/>
     <use x="773.519531" xlink:href="#DejaVuSans-34"/>
     <use x="837.142578" xlink:href="#DejaVuSans-30"/>
     <use x="900.765625" xlink:href="#DejaVuSans-31"/>
     <use x="964.388672" xlink:href="#DejaVuSans-2c"/>
     <use x="996.175781" xlink:href="#DejaVuSans-20"/>
     <use x="1027.962891" xlink:href="#DejaVuSans-70"/>
     <use x="1091.439453" xlink:href="#DejaVuSans-2d"/>
     <use x="1127.492188" xlink:href="#DejaVuSans-76"/>
     <use x="1186.671875" xlink:href="#DejaVuSans-61"/>
     <use x="1247.951172" xlink:href="#DejaVuSans-6c"/>
     <use x="1275.734375" xlink:href="#DejaVuSans-75"/>
     <use x="1339.113281" xlink:href="#DejaVuSans-65"/>
     <use x="1400.636719" xlink:href="#DejaVuSans-3a"/>
     <use x="1434.328125" xlink:href="#DejaVuSans-20"/>
     <use x="1466.115234" xlink:href="#DejaVuSans-30"/>
     <use x="1529.738281" xlink:href="#DejaVuSans-2e"/>
     <use x="1561.525391" xlink:href="#DejaVuSans-37"/>
     <use x="1625.148438" xlink:href="#DejaVuSans-38"/>
     <use x="1688.771484" xlink:href="#DejaVuSans-38"/>
     <use x="1752.394531" xlink:href="#DejaVuSans-39"/>
    </g>
   </g>
  </g>
  <g id="legend_1">
   <g id="text_18">
    <!-- error_category -->
    <defs>
     <path d="M 50.984375 -16.609375 
L 50.984375 -23.578125 
L -0.984375 -23.578125 
L -0.984375 -16.609375 
z
" id="DejaVuSans-5f"/>
     <path d="M 48.78125 52.59375 
L 48.78125 44.1875 
Q 44.96875 46.296875 41.140625 47.34375 
Q 37.3125 48.390625 33.40625 48.390625 
Q 24.65625 48.390625 19.8125 42.84375 
Q 14.984375 37.3125 14.984375 27.296875 
Q 14.984375 17.28125 19.8125 11.734375 
Q 24.65625 6.203125 33.40625 6.203125 
Q 37.3125 6.203125 41.140625 7.25 
Q 44.96875 8.296875 48.78125 10.40625 
L 48.78125 2.09375 
Q 45.015625 0.34375 40.984375 -0.53125 
Q 36.96875 -1.421875 32.421875 -1.421875 
Q 20.0625 -1.421875 12.78125 6.34375 
Q 5.515625 14.109375 5.515625 27.296875 
Q 5.515625 40.671875 12.859375 48.328125 
Q 20.21875 56 33.015625 56 
Q 37.15625 56 41.109375 55.140625 
Q 45.0625 54.296875 48.78125 52.59375 
z
" id="DejaVuSans-63"/>
     <path d="M 45.40625 27.984375 
Q 45.40625 37.75 41.375 43.109375 
Q 37.359375 48.484375 30.078125 48.484375 
Q 22.859375 48.484375 18.828125 43.109375 
Q 14.796875 37.75 14.796875 27.984375 
Q 14.796875 18.265625 18.828125 12.890625 
Q 22.859375 7.515625 30.078125 7.515625 
Q 37.359375 7.515625 41.375 12.890625 
Q 45.40625 18.265625 45.40625 27.984375 
z
M 54.390625 6.78125 
Q 54.390625 -7.171875 48.1875 -13.984375 
Q 42 -20.796875 29.203125 -20.796875 
Q 24.46875 -20.796875 20.265625 -20.09375 
Q 16.0625 -19.390625 12.109375 -17.921875 
L 12.109375 -9.1875 
Q 16.0625 -11.328125 19.921875 -12.34375 
Q 23.78125 -13.375 27.78125 -13.375 
Q 36.625 -13.375 41.015625 -8.765625 
Q 45.40625 -4.15625 45.40625 5.171875 
L 45.40625 9.625 
Q 42.625 4.78125 38.28125 2.390625 
Q 33.9375 0 27.875 0 
Q 17.828125 0 11.671875 7.65625 
Q 5.515625 15.328125 5.515625 27.984375 
Q 5.515625 40.671875 11.671875 48.328125 
Q 17.828125 56 27.875 56 
Q 33.9375 56 38.28125 53.609375 
Q 42.625 51.21875 45.40625 46.390625 
L 45.40625 54.6875 
L 54.390625 54.6875 
z
" id="DejaVuSans-67"/>
    </defs>
    <g style="fill:#262626;" transform="translate(543.677004 274.710037)scale(0.1496 -0.1496)">
     <use xlink:href="#DejaVuSans-65"/>
     <use x="61.523438" xlink:href="#DejaVuSans-72"/>
     <use x="102.621094" xlink:href="#DejaVuSans-72"/>
     <use x="143.703125" xlink:href="#DejaVuSans-6f"/>
     <use x="204.884766" xlink:href="#DejaVuSans-72"/>
     <use x="245.998047" xlink:href="#DejaVuSans-5f"/>
     <use x="295.998047" xlink:href="#DejaVuSans-63"/>
     <use x="350.978516" xlink:href="#DejaVuSans-61"/>
     <use x="412.257812" xlink:href="#DejaVuSans-74"/>
     <use x="451.466797" xlink:href="#DejaVuSans-65"/>
     <use x="512.990234" xlink:href="#DejaVuSans-67"/>
     <use x="576.466797" xlink:href="#DejaVuSans-6f"/>
     <use x="637.648438" xlink:href="#DejaVuSans-72"/>
     <use x="678.761719" xlink:href="#DejaVuSans-79"/>
    </g>
   </g>
   <g id="PathCollection_4">
    <g>
     <use style="fill:#2ecc71;stroke:#2ecc71;stroke-width:0.48;" x="559.160817" xlink:href="#m20557c7a7d" y="294.194825"/>
    </g>
   </g>
   <g id="text_19">
    <!-- Good -->
    <defs>
     <path d="M 59.515625 10.40625 
L 59.515625 29.984375 
L 43.40625 29.984375 
L 43.40625 38.09375 
L 69.28125 38.09375 
L 69.28125 6.78125 
Q 63.578125 2.734375 56.6875 0.65625 
Q 49.8125 -1.421875 42 -1.421875 
Q 24.90625 -1.421875 15.25 8.5625 
Q 5.609375 18.5625 5.609375 36.375 
Q 5.609375 54.25 15.25 64.234375 
Q 24.90625 74.21875 42 74.21875 
Q 49.125 74.21875 55.546875 72.453125 
Q 61.96875 70.703125 67.390625 67.28125 
L 67.390625 56.78125 
Q 61.921875 61.421875 55.765625 63.765625 
Q 49.609375 66.109375 42.828125 66.109375 
Q 29.4375 66.109375 22.71875 58.640625 
Q 16.015625 51.171875 16.015625 36.375 
Q 16.015625 21.625 22.71875 14.15625 
Q 29.4375 6.6875 42.828125 6.6875 
Q 48.046875 6.6875 52.140625 7.59375 
Q 56.25 8.5 59.515625 10.40625 
z
" id="DejaVuSans-47"/>
    </defs>
    <g style="fill:#262626;" transform="translate(587.960817 298.394825)scale(0.16 -0.16)">
     <use xlink:href="#DejaVuSans-47"/>
     <use x="77.490234" xlink:href="#DejaVuSans-6f"/>
     <use x="138.671875" xlink:href="#DejaVuSans-6f"/>
     <use x="199.853516" xlink:href="#DejaVuSans-64"/>
    </g>
   </g>
   <g id="PathCollection_5">
    <g>
     <use style="fill:#34495e;stroke:#34495e;stroke-width:0.48;" x="559.160817" xlink:href="#m54941ec83c" y="317.679825"/>
    </g>
   </g>
   <g id="text_20">
    <!-- Average -->
    <g style="fill:#262626;" transform="translate(587.960817 321.879825)scale(0.16 -0.16)">
     <use xlink:href="#DejaVuSans-41"/>
     <use x="68.330078" xlink:href="#DejaVuSans-76"/>
     <use x="127.509766" xlink:href="#DejaVuSans-65"/>
     <use x="189.033203" xlink:href="#DejaVuSans-72"/>
     <use x="230.146484" xlink:href="#DejaVuSans-61"/>
     <use x="291.425781" xlink:href="#DejaVuSans-67"/>
     <use x="354.902344" xlink:href="#DejaVuSans-65"/>
    </g>
   </g>
   <g id="PathCollection_6">
    <g>
     <use style="fill:#e74c3c;stroke:#e74c3c;stroke-width:0.48;" x="559.160817" xlink:href="#m7214164c75" y="341.164825"/>
    </g>
   </g>
   <g id="text_21">
    <!-- Bad -->
    <defs>
     <path d="M 19.671875 34.8125 
L 19.671875 8.109375 
L 35.5 8.109375 
Q 43.453125 8.109375 47.28125 11.40625 
Q 51.125 14.703125 51.125 21.484375 
Q 51.125 28.328125 47.28125 31.5625 
Q 43.453125 34.8125 35.5 34.8125 
z
M 19.671875 64.796875 
L 19.671875 42.828125 
L 34.28125 42.828125 
Q 41.5 42.828125 45.03125 45.53125 
Q 48.578125 48.25 48.578125 53.8125 
Q 48.578125 59.328125 45.03125 62.0625 
Q 41.5 64.796875 34.28125 64.796875 
z
M 9.8125 72.90625 
L 35.015625 72.90625 
Q 46.296875 72.90625 52.390625 68.21875 
Q 58.5 63.53125 58.5 54.890625 
Q 58.5 48.1875 55.375 44.234375 
Q 52.25 40.28125 46.1875 39.3125 
Q 53.46875 37.75 57.5 32.78125 
Q 61.53125 27.828125 61.53125 20.40625 
Q 61.53125 10.640625 54.890625 5.3125 
Q 48.25 0 35.984375 0 
L 9.8125 0 
z
" id="DejaVuSans-42"/>
    </defs>
    <g style="fill:#262626;" transform="translate(587.960817 345.364825)scale(0.16 -0.16)">
     <use xlink:href="#DejaVuSans-42"/>
     <use x="68.603516" xlink:href="#DejaVuSans-61"/>
     <use x="129.882812" xlink:href="#DejaVuSans-64"/>
    </g>
   </g>
  </g>
 </g>
 <defs>
  <clipPath id="pe37a8a125b">
   <rect height="486.328" width="478.267567" x="59.7935" y="70.7886"/>
  </clipPath>
 </defs>
</svg>
