<?xml version="1.0" encoding="utf-8" standalone="no"?>
<!DOCTYPE svg PUBLIC "-//W3C//DTD SVG 1.1//EN"
  "http://www.w3.org/Graphics/SVG/1.1/DTD/svg11.dtd">
<!-- Created with matplotlib (http://matplotlib.org/) -->
<svg height="690pt" version="1.1" viewBox="0 0 635 690" width="635pt" xmlns="http://www.w3.org/2000/svg" xmlns:xlink="http://www.w3.org/1999/xlink">
 <defs>
  <style type="text/css">
*{stroke-linecap:butt;stroke-linejoin:round;}
  </style>
 </defs>
 <g id="figure_1">
  <g id="patch_1">
   <path d="M 0 690.8069 
L 635.1735 690.8069 
L 635.1735 0 
L 0 0 
z
" style="fill:#ffffff;"/>
  </g>
  <g id="axes_1">
   <g id="patch_2">
    <path d="M 69.9735 635.8884 
L 627.9735 635.8884 
L 627.9735 92.2884 
L 69.9735 92.2884 
z
" style="fill:#eaeaf2;"/>
   </g>
   <g id="matplotlib.axis_1">
    <g id="xtick_1">
     <g id="line2d_1">
      <path clip-path="url(#p9e5ad860b5)" d="M 157.56192 635.8884 
L 157.56192 92.2884 
" style="fill:none;stroke:#ffffff;stroke-linecap:round;stroke-width:1.6;"/>
     </g>
     <g id="line2d_2"/>
     <g id="text_1">
      <!-- 20 -->
      <defs>
       <path d="M 19.1875 8.296875 
L 53.609375 8.296875 
L 53.609375 0 
L 7.328125 0 
L 7.328125 8.296875 
Q 12.9375 14.109375 22.625 23.890625 
Q 32.328125 33.6875 34.8125 36.53125 
Q 39.546875 41.84375 41.421875 45.53125 
Q 43.3125 49.21875 43.3125 52.78125 
Q 43.3125 58.59375 39.234375 62.25 
Q 35.15625 65.921875 28.609375 65.921875 
Q 23.96875 65.921875 18.8125 64.3125 
Q 13.671875 62.703125 7.8125 59.421875 
L 7.8125 69.390625 
Q 13.765625 71.78125 18.9375 73 
Q 24.125 74.21875 28.421875 74.21875 
Q 39.75 74.21875 46.484375 68.546875 
Q 53.21875 62.890625 53.21875 53.421875 
Q 53.21875 48.921875 51.53125 44.890625 
Q 49.859375 40.875 45.40625 35.40625 
Q 44.1875 33.984375 37.640625 27.21875 
Q 31.109375 20.453125 19.1875 8.296875 
z
" id="DejaVuSans-32"/>
       <path d="M 31.78125 66.40625 
Q 24.171875 66.40625 20.328125 58.90625 
Q 16.5 51.421875 16.5 36.375 
Q 16.5 21.390625 20.328125 13.890625 
Q 24.171875 6.390625 31.78125 6.390625 
Q 39.453125 6.390625 43.28125 13.890625 
Q 47.125 21.390625 47.125 36.375 
Q 47.125 51.421875 43.28125 58.90625 
Q 39.453125 66.40625 31.78125 66.40625 
z
M 31.78125 74.21875 
Q 44.046875 74.21875 50.515625 64.515625 
Q 56.984375 54.828125 56.984375 36.375 
Q 56.984375 17.96875 50.515625 8.265625 
Q 44.046875 -1.421875 31.78125 -1.421875 
Q 19.53125 -1.421875 13.0625 8.265625 
Q 6.59375 17.96875 6.59375 36.375 
Q 6.59375 54.828125 13.0625 64.515625 
Q 19.53125 74.21875 31.78125 74.21875 
z
" id="DejaVuSans-30"/>
      </defs>
      <g style="fill:#262626;" transform="translate(147.38192 659.2459)scale(0.16 -0.16)">
       <use xlink:href="#DejaVuSans-32"/>
       <use x="63.623047" xlink:href="#DejaVuSans-30"/>
      </g>
     </g>
    </g>
    <g id="xtick_2">
     <g id="line2d_3">
      <path clip-path="url(#p9e5ad860b5)" d="M 253.963872 635.8884 
L 253.963872 92.2884 
" style="fill:none;stroke:#ffffff;stroke-linecap:round;stroke-width:1.6;"/>
     </g>
     <g id="line2d_4"/>
     <g id="text_2">
      <!-- 40 -->
      <defs>
       <path d="M 37.796875 64.3125 
L 12.890625 25.390625 
L 37.796875 25.390625 
z
M 35.203125 72.90625 
L 47.609375 72.90625 
L 47.609375 25.390625 
L 58.015625 25.390625 
L 58.015625 17.1875 
L 47.609375 17.1875 
L 47.609375 0 
L 37.796875 0 
L 37.796875 17.1875 
L 4.890625 17.1875 
L 4.890625 26.703125 
z
" id="DejaVuSans-34"/>
      </defs>
      <g style="fill:#262626;" transform="translate(243.783872 659.2459)scale(0.16 -0.16)">
       <use xlink:href="#DejaVuSans-34"/>
       <use x="63.623047" xlink:href="#DejaVuSans-30"/>
      </g>
     </g>
    </g>
    <g id="xtick_3">
     <g id="line2d_5">
      <path clip-path="url(#p9e5ad860b5)" d="M 350.365825 635.8884 
L 350.365825 92.2884 
" style="fill:none;stroke:#ffffff;stroke-linecap:round;stroke-width:1.6;"/>
     </g>
     <g id="line2d_6"/>
     <g id="text_3">
      <!-- 60 -->
      <defs>
       <path d="M 33.015625 40.375 
Q 26.375 40.375 22.484375 35.828125 
Q 18.609375 31.296875 18.609375 23.390625 
Q 18.609375 15.53125 22.484375 10.953125 
Q 26.375 6.390625 33.015625 6.390625 
Q 39.65625 6.390625 43.53125 10.953125 
Q 47.40625 15.53125 47.40625 23.390625 
Q 47.40625 31.296875 43.53125 35.828125 
Q 39.65625 40.375 33.015625 40.375 
z
M 52.59375 71.296875 
L 52.59375 62.3125 
Q 48.875 64.0625 45.09375 64.984375 
Q 41.3125 65.921875 37.59375 65.921875 
Q 27.828125 65.921875 22.671875 59.328125 
Q 17.53125 52.734375 16.796875 39.40625 
Q 19.671875 43.65625 24.015625 45.921875 
Q 28.375 48.1875 33.59375 48.1875 
Q 44.578125 48.1875 50.953125 41.515625 
Q 57.328125 34.859375 57.328125 23.390625 
Q 57.328125 12.15625 50.6875 5.359375 
Q 44.046875 -1.421875 33.015625 -1.421875 
Q 20.359375 -1.421875 13.671875 8.265625 
Q 6.984375 17.96875 6.984375 36.375 
Q 6.984375 53.65625 15.1875 63.9375 
Q 23.390625 74.21875 37.203125 74.21875 
Q 40.921875 74.21875 44.703125 73.484375 
Q 48.484375 72.75 52.59375 71.296875 
z
" id="DejaVuSans-36"/>
      </defs>
      <g style="fill:#262626;" transform="translate(340.185825 659.2459)scale(0.16 -0.16)">
       <use xlink:href="#DejaVuSans-36"/>
       <use x="63.623047" xlink:href="#DejaVuSans-30"/>
      </g>
     </g>
    </g>
    <g id="xtick_4">
     <g id="line2d_7">
      <path clip-path="url(#p9e5ad860b5)" d="M 446.767777 635.8884 
L 446.767777 92.2884 
" style="fill:none;stroke:#ffffff;stroke-linecap:round;stroke-width:1.6;"/>
     </g>
     <g id="line2d_8"/>
     <g id="text_4">
      <!-- 80 -->
      <defs>
       <path d="M 31.78125 34.625 
Q 24.75 34.625 20.71875 30.859375 
Q 16.703125 27.09375 16.703125 20.515625 
Q 16.703125 13.921875 20.71875 10.15625 
Q 24.75 6.390625 31.78125 6.390625 
Q 38.8125 6.390625 42.859375 10.171875 
Q 46.921875 13.96875 46.921875 20.515625 
Q 46.921875 27.09375 42.890625 30.859375 
Q 38.875 34.625 31.78125 34.625 
z
M 21.921875 38.8125 
Q 15.578125 40.375 12.03125 44.71875 
Q 8.5 49.078125 8.5 55.328125 
Q 8.5 64.0625 14.71875 69.140625 
Q 20.953125 74.21875 31.78125 74.21875 
Q 42.671875 74.21875 48.875 69.140625 
Q 55.078125 64.0625 55.078125 55.328125 
Q 55.078125 49.078125 51.53125 44.71875 
Q 48 40.375 41.703125 38.8125 
Q 48.828125 37.15625 52.796875 32.3125 
Q 56.78125 27.484375 56.78125 20.515625 
Q 56.78125 9.90625 50.3125 4.234375 
Q 43.84375 -1.421875 31.78125 -1.421875 
Q 19.734375 -1.421875 13.25 4.234375 
Q 6.78125 9.90625 6.78125 20.515625 
Q 6.78125 27.484375 10.78125 32.3125 
Q 14.796875 37.15625 21.921875 38.8125 
z
M 18.3125 54.390625 
Q 18.3125 48.734375 21.84375 45.5625 
Q 25.390625 42.390625 31.78125 42.390625 
Q 38.140625 42.390625 41.71875 45.5625 
Q 45.3125 48.734375 45.3125 54.390625 
Q 45.3125 60.0625 41.71875 63.234375 
Q 38.140625 66.40625 31.78125 66.40625 
Q 25.390625 66.40625 21.84375 63.234375 
Q 18.3125 60.0625 18.3125 54.390625 
z
" id="DejaVuSans-38"/>
      </defs>
      <g style="fill:#262626;" transform="translate(436.587777 659.2459)scale(0.16 -0.16)">
       <use xlink:href="#DejaVuSans-38"/>
       <use x="63.623047" xlink:href="#DejaVuSans-30"/>
      </g>
     </g>
    </g>
    <g id="xtick_5">
     <g id="line2d_9">
      <path clip-path="url(#p9e5ad860b5)" d="M 543.169729 635.8884 
L 543.169729 92.2884 
" style="fill:none;stroke:#ffffff;stroke-linecap:round;stroke-width:1.6;"/>
     </g>
     <g id="line2d_10"/>
     <g id="text_5">
      <!-- 100 -->
      <defs>
       <path d="M 12.40625 8.296875 
L 28.515625 8.296875 
L 28.515625 63.921875 
L 10.984375 60.40625 
L 10.984375 69.390625 
L 28.421875 72.90625 
L 38.28125 72.90625 
L 38.28125 8.296875 
L 54.390625 8.296875 
L 54.390625 0 
L 12.40625 0 
z
" id="DejaVuSans-31"/>
      </defs>
      <g style="fill:#262626;" transform="translate(527.899729 659.2459)scale(0.16 -0.16)">
       <use xlink:href="#DejaVuSans-31"/>
       <use x="63.623047" xlink:href="#DejaVuSans-30"/>
       <use x="127.246094" xlink:href="#DejaVuSans-30"/>
      </g>
     </g>
    </g>
    <g id="text_6">
     <!-- Dengue Cases per 10,000 People -->
     <defs>
      <path d="M 19.671875 64.796875 
L 19.671875 8.109375 
L 31.59375 8.109375 
Q 46.6875 8.109375 53.6875 14.9375 
Q 60.6875 21.78125 60.6875 36.53125 
Q 60.6875 51.171875 53.6875 57.984375 
Q 46.6875 64.796875 31.59375 64.796875 
z
M 9.8125 72.90625 
L 30.078125 72.90625 
Q 51.265625 72.90625 61.171875 64.09375 
Q 71.09375 55.28125 71.09375 36.53125 
Q 71.09375 17.671875 61.125 8.828125 
Q 51.171875 0 30.078125 0 
L 9.8125 0 
z
" id="DejaVuSans-44"/>
      <path d="M 56.203125 29.59375 
L 56.203125 25.203125 
L 14.890625 25.203125 
Q 15.484375 15.921875 20.484375 11.0625 
Q 25.484375 6.203125 34.421875 6.203125 
Q 39.59375 6.203125 44.453125 7.46875 
Q 49.3125 8.734375 54.109375 11.28125 
L 54.109375 2.78125 
Q 49.265625 0.734375 44.1875 -0.34375 
Q 39.109375 -1.421875 33.890625 -1.421875 
Q 20.796875 -1.421875 13.15625 6.1875 
Q 5.515625 13.8125 5.515625 26.8125 
Q 5.515625 40.234375 12.765625 48.109375 
Q 20.015625 56 32.328125 56 
Q 43.359375 56 49.78125 48.890625 
Q 56.203125 41.796875 56.203125 29.59375 
z
M 47.21875 32.234375 
Q 47.125 39.59375 43.09375 43.984375 
Q 39.0625 48.390625 32.421875 48.390625 
Q 24.90625 48.390625 20.390625 44.140625 
Q 15.875 39.890625 15.1875 32.171875 
z
" id="DejaVuSans-65"/>
      <path d="M 54.890625 33.015625 
L 54.890625 0 
L 45.90625 0 
L 45.90625 32.71875 
Q 45.90625 40.484375 42.875 44.328125 
Q 39.84375 48.1875 33.796875 48.1875 
Q 26.515625 48.1875 22.3125 43.546875 
Q 18.109375 38.921875 18.109375 30.90625 
L 18.109375 0 
L 9.078125 0 
L 9.078125 54.6875 
L 18.109375 54.6875 
L 18.109375 46.1875 
Q 21.34375 51.125 25.703125 53.5625 
Q 30.078125 56 35.796875 56 
Q 45.21875 56 50.046875 50.171875 
Q 54.890625 44.34375 54.890625 33.015625 
z
" id="DejaVuSans-6e"/>
      <path d="M 45.40625 27.984375 
Q 45.40625 37.75 41.375 43.109375 
Q 37.359375 48.484375 30.078125 48.484375 
Q 22.859375 48.484375 18.828125 43.109375 
Q 14.796875 37.75 14.796875 27.984375 
Q 14.796875 18.265625 18.828125 12.890625 
Q 22.859375 7.515625 30.078125 7.515625 
Q 37.359375 7.515625 41.375 12.890625 
Q 45.40625 18.265625 45.40625 27.984375 
z
M 54.390625 6.78125 
Q 54.390625 -7.171875 48.1875 -13.984375 
Q 42 -20.796875 29.203125 -20.796875 
Q 24.46875 -20.796875 20.265625 -20.09375 
Q 16.0625 -19.390625 12.109375 -17.921875 
L 12.109375 -9.1875 
Q 16.0625 -11.328125 19.921875 -12.34375 
Q 23.78125 -13.375 27.78125 -13.375 
Q 36.625 -13.375 41.015625 -8.765625 
Q 45.40625 -4.15625 45.40625 5.171875 
L 45.40625 9.625 
Q 42.625 4.78125 38.28125 2.390625 
Q 33.9375 0 27.875 0 
Q 17.828125 0 11.671875 7.65625 
Q 5.515625 15.328125 5.515625 27.984375 
Q 5.515625 40.671875 11.671875 48.328125 
Q 17.828125 56 27.875 56 
Q 33.9375 56 38.28125 53.609375 
Q 42.625 51.21875 45.40625 46.390625 
L 45.40625 54.6875 
L 54.390625 54.6875 
z
" id="DejaVuSans-67"/>
      <path d="M 8.5 21.578125 
L 8.5 54.6875 
L 17.484375 54.6875 
L 17.484375 21.921875 
Q 17.484375 14.15625 20.5 10.265625 
Q 23.53125 6.390625 29.59375 6.390625 
Q 36.859375 6.390625 41.078125 11.03125 
Q 45.3125 15.671875 45.3125 23.6875 
L 45.3125 54.6875 
L 54.296875 54.6875 
L 54.296875 0 
L 45.3125 0 
L 45.3125 8.40625 
Q 42.046875 3.421875 37.71875 1 
Q 33.40625 -1.421875 27.6875 -1.421875 
Q 18.265625 -1.421875 13.375 4.4375 
Q 8.5 10.296875 8.5 21.578125 
z
M 31.109375 56 
z
" id="DejaVuSans-75"/>
      <path id="DejaVuSans-20"/>
      <path d="M 64.40625 67.28125 
L 64.40625 56.890625 
Q 59.421875 61.53125 53.78125 63.8125 
Q 48.140625 66.109375 41.796875 66.109375 
Q 29.296875 66.109375 22.65625 58.46875 
Q 16.015625 50.828125 16.015625 36.375 
Q 16.015625 21.96875 22.65625 14.328125 
Q 29.296875 6.6875 41.796875 6.6875 
Q 48.140625 6.6875 53.78125 8.984375 
Q 59.421875 11.28125 64.40625 15.921875 
L 64.40625 5.609375 
Q 59.234375 2.09375 53.4375 0.328125 
Q 47.65625 -1.421875 41.21875 -1.421875 
Q 24.65625 -1.421875 15.125 8.703125 
Q 5.609375 18.84375 5.609375 36.375 
Q 5.609375 53.953125 15.125 64.078125 
Q 24.65625 74.21875 41.21875 74.21875 
Q 47.75 74.21875 53.53125 72.484375 
Q 59.328125 70.75 64.40625 67.28125 
z
" id="DejaVuSans-43"/>
      <path d="M 34.28125 27.484375 
Q 23.390625 27.484375 19.1875 25 
Q 14.984375 22.515625 14.984375 16.5 
Q 14.984375 11.71875 18.140625 8.90625 
Q 21.296875 6.109375 26.703125 6.109375 
Q 34.1875 6.109375 38.703125 11.40625 
Q 43.21875 16.703125 43.21875 25.484375 
L 43.21875 27.484375 
z
M 52.203125 31.203125 
L 52.203125 0 
L 43.21875 0 
L 43.21875 8.296875 
Q 40.140625 3.328125 35.546875 0.953125 
Q 30.953125 -1.421875 24.3125 -1.421875 
Q 15.921875 -1.421875 10.953125 3.296875 
Q 6 8.015625 6 15.921875 
Q 6 25.140625 12.171875 29.828125 
Q 18.359375 34.515625 30.609375 34.515625 
L 43.21875 34.515625 
L 43.21875 35.40625 
Q 43.21875 41.609375 39.140625 45 
Q 35.0625 48.390625 27.6875 48.390625 
Q 23 48.390625 18.546875 47.265625 
Q 14.109375 46.140625 10.015625 43.890625 
L 10.015625 52.203125 
Q 14.9375 54.109375 19.578125 55.046875 
Q 24.21875 56 28.609375 56 
Q 40.484375 56 46.34375 49.84375 
Q 52.203125 43.703125 52.203125 31.203125 
z
" id="DejaVuSans-61"/>
      <path d="M 44.28125 53.078125 
L 44.28125 44.578125 
Q 40.484375 46.53125 36.375 47.5 
Q 32.28125 48.484375 27.875 48.484375 
Q 21.1875 48.484375 17.84375 46.4375 
Q 14.5 44.390625 14.5 40.28125 
Q 14.5 37.15625 16.890625 35.375 
Q 19.28125 33.59375 26.515625 31.984375 
L 29.59375 31.296875 
Q 39.15625 29.25 43.1875 25.515625 
Q 47.21875 21.78125 47.21875 15.09375 
Q 47.21875 7.46875 41.1875 3.015625 
Q 35.15625 -1.421875 24.609375 -1.421875 
Q 20.21875 -1.421875 15.453125 -0.5625 
Q 10.6875 0.296875 5.421875 2 
L 5.421875 11.28125 
Q 10.40625 8.6875 15.234375 7.390625 
Q 20.0625 6.109375 24.8125 6.109375 
Q 31.15625 6.109375 34.5625 8.28125 
Q 37.984375 10.453125 37.984375 14.40625 
Q 37.984375 18.0625 35.515625 20.015625 
Q 33.0625 21.96875 24.703125 23.78125 
L 21.578125 24.515625 
Q 13.234375 26.265625 9.515625 29.90625 
Q 5.8125 33.546875 5.8125 39.890625 
Q 5.8125 47.609375 11.28125 51.796875 
Q 16.75 56 26.8125 56 
Q 31.78125 56 36.171875 55.265625 
Q 40.578125 54.546875 44.28125 53.078125 
z
" id="DejaVuSans-73"/>
      <path d="M 18.109375 8.203125 
L 18.109375 -20.796875 
L 9.078125 -20.796875 
L 9.078125 54.6875 
L 18.109375 54.6875 
L 18.109375 46.390625 
Q 20.953125 51.265625 25.265625 53.625 
Q 29.59375 56 35.59375 56 
Q 45.5625 56 51.78125 48.09375 
Q 58.015625 40.1875 58.015625 27.296875 
Q 58.015625 14.40625 51.78125 6.484375 
Q 45.5625 -1.421875 35.59375 -1.421875 
Q 29.59375 -1.421875 25.265625 0.953125 
Q 20.953125 3.328125 18.109375 8.203125 
z
M 48.6875 27.296875 
Q 48.6875 37.203125 44.609375 42.84375 
Q 40.53125 48.484375 33.40625 48.484375 
Q 26.265625 48.484375 22.1875 42.84375 
Q 18.109375 37.203125 18.109375 27.296875 
Q 18.109375 17.390625 22.1875 11.75 
Q 26.265625 6.109375 33.40625 6.109375 
Q 40.53125 6.109375 44.609375 11.75 
Q 48.6875 17.390625 48.6875 27.296875 
z
" id="DejaVuSans-70"/>
      <path d="M 41.109375 46.296875 
Q 39.59375 47.171875 37.8125 47.578125 
Q 36.03125 48 33.890625 48 
Q 26.265625 48 22.1875 43.046875 
Q 18.109375 38.09375 18.109375 28.8125 
L 18.109375 0 
L 9.078125 0 
L 9.078125 54.6875 
L 18.109375 54.6875 
L 18.109375 46.1875 
Q 20.953125 51.171875 25.484375 53.578125 
Q 30.03125 56 36.53125 56 
Q 37.453125 56 38.578125 55.875 
Q 39.703125 55.765625 41.0625 55.515625 
z
" id="DejaVuSans-72"/>
      <path d="M 11.71875 12.40625 
L 22.015625 12.40625 
L 22.015625 4 
L 14.015625 -11.625 
L 7.71875 -11.625 
L 11.71875 4 
z
" id="DejaVuSans-2c"/>
      <path d="M 19.671875 64.796875 
L 19.671875 37.40625 
L 32.078125 37.40625 
Q 38.96875 37.40625 42.71875 40.96875 
Q 46.484375 44.53125 46.484375 51.125 
Q 46.484375 57.671875 42.71875 61.234375 
Q 38.96875 64.796875 32.078125 64.796875 
z
M 9.8125 72.90625 
L 32.078125 72.90625 
Q 44.34375 72.90625 50.609375 67.359375 
Q 56.890625 61.8125 56.890625 51.125 
Q 56.890625 40.328125 50.609375 34.8125 
Q 44.34375 29.296875 32.078125 29.296875 
L 19.671875 29.296875 
L 19.671875 0 
L 9.8125 0 
z
" id="DejaVuSans-50"/>
      <path d="M 30.609375 48.390625 
Q 23.390625 48.390625 19.1875 42.75 
Q 14.984375 37.109375 14.984375 27.296875 
Q 14.984375 17.484375 19.15625 11.84375 
Q 23.34375 6.203125 30.609375 6.203125 
Q 37.796875 6.203125 41.984375 11.859375 
Q 46.1875 17.53125 46.1875 27.296875 
Q 46.1875 37.015625 41.984375 42.703125 
Q 37.796875 48.390625 30.609375 48.390625 
z
M 30.609375 56 
Q 42.328125 56 49.015625 48.375 
Q 55.71875 40.765625 55.71875 27.296875 
Q 55.71875 13.875 49.015625 6.21875 
Q 42.328125 -1.421875 30.609375 -1.421875 
Q 18.84375 -1.421875 12.171875 6.21875 
Q 5.515625 13.875 5.515625 27.296875 
Q 5.515625 40.765625 12.171875 48.375 
Q 18.84375 56 30.609375 56 
z
" id="DejaVuSans-6f"/>
      <path d="M 9.421875 75.984375 
L 18.40625 75.984375 
L 18.40625 0 
L 9.421875 0 
z
" id="DejaVuSans-6c"/>
     </defs>
     <g style="fill:#262626;" transform="translate(202.361375 679.94665)scale(0.176 -0.176)">
      <use xlink:href="#DejaVuSans-44"/>
      <use x="77.001953" xlink:href="#DejaVuSans-65"/>
      <use x="138.525391" xlink:href="#DejaVuSans-6e"/>
      <use x="201.904297" xlink:href="#DejaVuSans-67"/>
      <use x="265.380859" xlink:href="#DejaVuSans-75"/>
      <use x="328.759766" xlink:href="#DejaVuSans-65"/>
      <use x="390.283203" xlink:href="#DejaVuSans-20"/>
      <use x="422.070312" xlink:href="#DejaVuSans-43"/>
      <use x="491.894531" xlink:href="#DejaVuSans-61"/>
      <use x="553.173828" xlink:href="#DejaVuSans-73"/>
      <use x="605.273438" xlink:href="#DejaVuSans-65"/>
      <use x="666.796875" xlink:href="#DejaVuSans-73"/>
      <use x="718.896484" xlink:href="#DejaVuSans-20"/>
      <use x="750.683594" xlink:href="#DejaVuSans-70"/>
      <use x="814.160156" xlink:href="#DejaVuSans-65"/>
      <use x="875.683594" xlink:href="#DejaVuSans-72"/>
      <use x="916.796875" xlink:href="#DejaVuSans-20"/>
      <use x="948.583984" xlink:href="#DejaVuSans-31"/>
      <use x="1012.207031" xlink:href="#DejaVuSans-30"/>
      <use x="1075.830078" xlink:href="#DejaVuSans-2c"/>
      <use x="1107.617188" xlink:href="#DejaVuSans-30"/>
      <use x="1171.240234" xlink:href="#DejaVuSans-30"/>
      <use x="1234.863281" xlink:href="#DejaVuSans-30"/>
      <use x="1298.486328" xlink:href="#DejaVuSans-20"/>
      <use x="1330.273438" xlink:href="#DejaVuSans-50"/>
      <use x="1390.529297" xlink:href="#DejaVuSans-65"/>
      <use x="1452.052734" xlink:href="#DejaVuSans-6f"/>
      <use x="1513.234375" xlink:href="#DejaVuSans-70"/>
      <use x="1576.710938" xlink:href="#DejaVuSans-6c"/>
      <use x="1604.494141" xlink:href="#DejaVuSans-65"/>
     </g>
    </g>
   </g>
   <g id="matplotlib.axis_2">
    <g id="ytick_1">
     <g id="line2d_11">
      <path clip-path="url(#p9e5ad860b5)" d="M 69.9735 550.741325 
L 627.9735 550.741325 
" style="fill:none;stroke:#ffffff;stroke-linecap:round;stroke-width:1.6;"/>
     </g>
     <g id="line2d_12"/>
     <g id="text_7">
      <!-- 20 -->
      <g style="fill:#262626;" transform="translate(38.4135 556.820075)scale(0.16 -0.16)">
       <use xlink:href="#DejaVuSans-32"/>
       <use x="63.623047" xlink:href="#DejaVuSans-30"/>
      </g>
     </g>
    </g>
    <g id="ytick_2">
     <g id="line2d_13">
      <path clip-path="url(#p9e5ad860b5)" d="M 69.9735 456.736007 
L 627.9735 456.736007 
" style="fill:none;stroke:#ffffff;stroke-linecap:round;stroke-width:1.6;"/>
     </g>
     <g id="line2d_14"/>
     <g id="text_8">
      <!-- 40 -->
      <g style="fill:#262626;" transform="translate(38.4135 462.814757)scale(0.16 -0.16)">
       <use xlink:href="#DejaVuSans-34"/>
       <use x="63.623047" xlink:href="#DejaVuSans-30"/>
      </g>
     </g>
    </g>
    <g id="ytick_3">
     <g id="line2d_15">
      <path clip-path="url(#p9e5ad860b5)" d="M 69.9735 362.73069 
L 627.9735 362.73069 
" style="fill:none;stroke:#ffffff;stroke-linecap:round;stroke-width:1.6;"/>
     </g>
     <g id="line2d_16"/>
     <g id="text_9">
      <!-- 60 -->
      <g style="fill:#262626;" transform="translate(38.4135 368.80944)scale(0.16 -0.16)">
       <use xlink:href="#DejaVuSans-36"/>
       <use x="63.623047" xlink:href="#DejaVuSans-30"/>
      </g>
     </g>
    </g>
    <g id="ytick_4">
     <g id="line2d_17">
      <path clip-path="url(#p9e5ad860b5)" d="M 69.9735 268.725372 
L 627.9735 268.725372 
" style="fill:none;stroke:#ffffff;stroke-linecap:round;stroke-width:1.6;"/>
     </g>
     <g id="line2d_18"/>
     <g id="text_10">
      <!-- 80 -->
      <g style="fill:#262626;" transform="translate(38.4135 274.804122)scale(0.16 -0.16)">
       <use xlink:href="#DejaVuSans-38"/>
       <use x="63.623047" xlink:href="#DejaVuSans-30"/>
      </g>
     </g>
    </g>
    <g id="ytick_5">
     <g id="line2d_19">
      <path clip-path="url(#p9e5ad860b5)" d="M 69.9735 174.720054 
L 627.9735 174.720054 
" style="fill:none;stroke:#ffffff;stroke-linecap:round;stroke-width:1.6;"/>
     </g>
     <g id="line2d_20"/>
     <g id="text_11">
      <!-- 100 -->
      <g style="fill:#262626;" transform="translate(28.2335 180.798804)scale(0.16 -0.16)">
       <use xlink:href="#DejaVuSans-31"/>
       <use x="63.623047" xlink:href="#DejaVuSans-30"/>
       <use x="127.246094" xlink:href="#DejaVuSans-30"/>
      </g>
     </g>
    </g>
    <g id="text_12">
     <!-- Predicted Dengue Cases -->
     <defs>
      <path d="M 45.40625 46.390625 
L 45.40625 75.984375 
L 54.390625 75.984375 
L 54.390625 0 
L 45.40625 0 
L 45.40625 8.203125 
Q 42.578125 3.328125 38.25 0.953125 
Q 33.9375 -1.421875 27.875 -1.421875 
Q 17.96875 -1.421875 11.734375 6.484375 
Q 5.515625 14.40625 5.515625 27.296875 
Q 5.515625 40.1875 11.734375 48.09375 
Q 17.96875 56 27.875 56 
Q 33.9375 56 38.25 53.625 
Q 42.578125 51.265625 45.40625 46.390625 
z
M 14.796875 27.296875 
Q 14.796875 17.390625 18.875 11.75 
Q 22.953125 6.109375 30.078125 6.109375 
Q 37.203125 6.109375 41.296875 11.75 
Q 45.40625 17.390625 45.40625 27.296875 
Q 45.40625 37.203125 41.296875 42.84375 
Q 37.203125 48.484375 30.078125 48.484375 
Q 22.953125 48.484375 18.875 42.84375 
Q 14.796875 37.203125 14.796875 27.296875 
z
" id="DejaVuSans-64"/>
      <path d="M 9.421875 54.6875 
L 18.40625 54.6875 
L 18.40625 0 
L 9.421875 0 
z
M 9.421875 75.984375 
L 18.40625 75.984375 
L 18.40625 64.59375 
L 9.421875 64.59375 
z
" id="DejaVuSans-69"/>
      <path d="M 48.78125 52.59375 
L 48.78125 44.1875 
Q 44.96875 46.296875 41.140625 47.34375 
Q 37.3125 48.390625 33.40625 48.390625 
Q 24.65625 48.390625 19.8125 42.84375 
Q 14.984375 37.3125 14.984375 27.296875 
Q 14.984375 17.28125 19.8125 11.734375 
Q 24.65625 6.203125 33.40625 6.203125 
Q 37.3125 6.203125 41.140625 7.25 
Q 44.96875 8.296875 48.78125 10.40625 
L 48.78125 2.09375 
Q 45.015625 0.34375 40.984375 -0.53125 
Q 36.96875 -1.421875 32.421875 -1.421875 
Q 20.0625 -1.421875 12.78125 6.34375 
Q 5.515625 14.109375 5.515625 27.296875 
Q 5.515625 40.671875 12.859375 48.328125 
Q 20.21875 56 33.015625 56 
Q 37.15625 56 41.109375 55.140625 
Q 45.0625 54.296875 48.78125 52.59375 
z
" id="DejaVuSans-63"/>
      <path d="M 18.3125 70.21875 
L 18.3125 54.6875 
L 36.8125 54.6875 
L 36.8125 47.703125 
L 18.3125 47.703125 
L 18.3125 18.015625 
Q 18.3125 11.328125 20.140625 9.421875 
Q 21.96875 7.515625 27.59375 7.515625 
L 36.8125 7.515625 
L 36.8125 0 
L 27.59375 0 
Q 17.1875 0 13.234375 3.875 
Q 9.28125 7.765625 9.28125 18.015625 
L 9.28125 47.703125 
L 2.6875 47.703125 
L 2.6875 54.6875 
L 9.28125 54.6875 
L 9.28125 70.21875 
z
" id="DejaVuSans-74"/>
     </defs>
     <g style="fill:#262626;" transform="translate(20.57325 471.804525)rotate(-90)scale(0.176 -0.176)">
      <use xlink:href="#DejaVuSans-50"/>
      <use x="60.287109" xlink:href="#DejaVuSans-72"/>
      <use x="101.369141" xlink:href="#DejaVuSans-65"/>
      <use x="162.892578" xlink:href="#DejaVuSans-64"/>
      <use x="226.369141" xlink:href="#DejaVuSans-69"/>
      <use x="254.152344" xlink:href="#DejaVuSans-63"/>
      <use x="309.132812" xlink:href="#DejaVuSans-74"/>
      <use x="348.341797" xlink:href="#DejaVuSans-65"/>
      <use x="409.865234" xlink:href="#DejaVuSans-64"/>
      <use x="473.341797" xlink:href="#DejaVuSans-20"/>
      <use x="505.128906" xlink:href="#DejaVuSans-44"/>
      <use x="582.130859" xlink:href="#DejaVuSans-65"/>
      <use x="643.654297" xlink:href="#DejaVuSans-6e"/>
      <use x="707.033203" xlink:href="#DejaVuSans-67"/>
      <use x="770.509766" xlink:href="#DejaVuSans-75"/>
      <use x="833.888672" xlink:href="#DejaVuSans-65"/>
      <use x="895.412109" xlink:href="#DejaVuSans-20"/>
      <use x="927.199219" xlink:href="#DejaVuSans-43"/>
      <use x="997.023438" xlink:href="#DejaVuSans-61"/>
      <use x="1058.302734" xlink:href="#DejaVuSans-73"/>
      <use x="1110.402344" xlink:href="#DejaVuSans-65"/>
      <use x="1171.925781" xlink:href="#DejaVuSans-73"/>
     </g>
    </g>
   </g>
   <g id="PathCollection_1">
    <defs>
     <path d="M 0 5.6 
C 1.485137 5.6 2.909647 5.009949 3.959798 3.959798 
C 5.009949 2.909647 5.6 1.485137 5.6 0 
C 5.6 -1.485137 5.009949 -2.909647 3.959798 -3.959798 
C 2.909647 -5.009949 1.485137 -5.6 0 -5.6 
C -1.485137 -5.6 -2.909647 -5.009949 -3.959798 -3.959798 
C -5.009949 -2.909647 -5.6 -1.485137 -5.6 0 
C -5.6 1.485137 -5.009949 2.909647 -3.959798 3.959798 
C -2.909647 5.009949 -1.485137 5.6 0 5.6 
z
" id="mda9e1dc99a"/>
    </defs>
    <g clip-path="url(#p9e5ad860b5)">
     <use style="fill:#4c72b0;fill-opacity:0.65;" x="483.820663" xlink:href="#mda9e1dc99a" y="364.102265"/>
     <use style="fill:#4c72b0;fill-opacity:0.65;" x="432.790049" xlink:href="#mda9e1dc99a" y="354.759664"/>
     <use style="fill:#4c72b0;fill-opacity:0.65;" x="390.877887" xlink:href="#mda9e1dc99a" y="359.442875"/>
     <use style="fill:#4c72b0;fill-opacity:0.65;" x="243.895722" xlink:href="#mda9e1dc99a" y="397.195853"/>
     <use style="fill:#4c72b0;fill-opacity:0.65;" x="414.150185" xlink:href="#mda9e1dc99a" y="362.385955"/>
     <use style="fill:#4c72b0;fill-opacity:0.65;" x="356.962215" xlink:href="#mda9e1dc99a" y="322.658801"/>
     <use style="fill:#4c72b0;fill-opacity:0.65;" x="232.603967" xlink:href="#mda9e1dc99a" y="364.217188"/>
     <use style="fill:#4c72b0;fill-opacity:0.65;" x="260.033188" xlink:href="#mda9e1dc99a" y="389.309402"/>
     <use style="fill:#4c72b0;fill-opacity:0.65;" x="330.385448" xlink:href="#mda9e1dc99a" y="445.8124"/>
     <use style="fill:#4c72b0;fill-opacity:0.65;" x="367.558573" xlink:href="#mda9e1dc99a" y="387.02181"/>
     <use style="fill:#4c72b0;fill-opacity:0.65;" x="410.409536" xlink:href="#mda9e1dc99a" y="365.660541"/>
     <use style="fill:#4c72b0;fill-opacity:0.65;" x="389.733078" xlink:href="#mda9e1dc99a" y="381.092564"/>
     <use style="fill:#4c72b0;fill-opacity:0.65;" x="145.70747" xlink:href="#mda9e1dc99a" y="469.571241"/>
     <use style="fill:#4c72b0;fill-opacity:0.65;" x="301.946519" xlink:href="#mda9e1dc99a" y="403.441742"/>
     <use style="fill:#4c72b0;fill-opacity:0.65;" x="354.332274" xlink:href="#mda9e1dc99a" y="403.767152"/>
     <use style="fill:#4c72b0;fill-opacity:0.65;" x="319.774763" xlink:href="#mda9e1dc99a" y="419.068573"/>
     <use style="fill:#4c72b0;fill-opacity:0.65;" x="402.93628" xlink:href="#mda9e1dc99a" y="417.674948"/>
     <use style="fill:#4c72b0;fill-opacity:0.65;" x="312.400577" xlink:href="#mda9e1dc99a" y="352.609255"/>
     <use style="fill:#4c72b0;fill-opacity:0.65;" x="427.390835" xlink:href="#mda9e1dc99a" y="367.680921"/>
     <use style="fill:#4c72b0;fill-opacity:0.65;" x="356.343287" xlink:href="#mda9e1dc99a" y="397.854582"/>
     <use style="fill:#4c72b0;fill-opacity:0.65;" x="455.827982" xlink:href="#mda9e1dc99a" y="348.638985"/>
     <use style="fill:#4c72b0;fill-opacity:0.65;" x="434.369626" xlink:href="#mda9e1dc99a" y="453.736438"/>
     <use style="fill:#4c72b0;fill-opacity:0.65;" x="487.06494" xlink:href="#mda9e1dc99a" y="419.016729"/>
     <use style="fill:#4c72b0;fill-opacity:0.65;" x="345.264041" xlink:href="#mda9e1dc99a" y="408.476947"/>
     <use style="fill:#4c72b0;fill-opacity:0.65;" x="367.533296" xlink:href="#mda9e1dc99a" y="412.997143"/>
     <use style="fill:#4c72b0;fill-opacity:0.65;" x="370.140584" xlink:href="#mda9e1dc99a" y="447.241812"/>
     <use style="fill:#4c72b0;fill-opacity:0.65;" x="410.093644" xlink:href="#mda9e1dc99a" y="416.599773"/>
     <use style="fill:#4c72b0;fill-opacity:0.65;" x="320.687586" xlink:href="#mda9e1dc99a" y="431.660037"/>
     <use style="fill:#4c72b0;fill-opacity:0.65;" x="290.003452" xlink:href="#mda9e1dc99a" y="409.023597"/>
     <use style="fill:#4c72b0;fill-opacity:0.65;" x="221.398477" xlink:href="#mda9e1dc99a" y="432.702565"/>
     <use style="fill:#4c72b0;fill-opacity:0.65;" x="363.141987" xlink:href="#mda9e1dc99a" y="419.345868"/>
     <use style="fill:#4c72b0;fill-opacity:0.65;" x="258.194939" xlink:href="#mda9e1dc99a" y="454.596766"/>
     <use style="fill:#4c72b0;fill-opacity:0.65;" x="394.244109" xlink:href="#mda9e1dc99a" y="413.3673"/>
     <use style="fill:#4c72b0;fill-opacity:0.65;" x="352.195189" xlink:href="#mda9e1dc99a" y="394.648718"/>
     <use style="fill:#4c72b0;fill-opacity:0.65;" x="213.641087" xlink:href="#mda9e1dc99a" y="383.244171"/>
     <use style="fill:#4c72b0;fill-opacity:0.65;" x="326.000496" xlink:href="#mda9e1dc99a" y="360.371399"/>
     <use style="fill:#4c72b0;fill-opacity:0.65;" x="558.519266" xlink:href="#mda9e1dc99a" y="405.31492"/>
     <use style="fill:#4c72b0;fill-opacity:0.65;" x="513.587903" xlink:href="#mda9e1dc99a" y="393.551283"/>
     <use style="fill:#4c72b0;fill-opacity:0.65;" x="420.253708" xlink:href="#mda9e1dc99a" y="354.172094"/>
     <use style="fill:#4c72b0;fill-opacity:0.65;" x="404.401914" xlink:href="#mda9e1dc99a" y="359.371527"/>
     <use style="fill:#4c72b0;fill-opacity:0.65;" x="254.981435" xlink:href="#mda9e1dc99a" y="419.618369"/>
     <use style="fill:#4c72b0;fill-opacity:0.65;" x="263.640301" xlink:href="#mda9e1dc99a" y="379.719616"/>
     <use style="fill:#4c72b0;fill-opacity:0.65;" x="283.626012" xlink:href="#mda9e1dc99a" y="432.665136"/>
     <use style="fill:#4c72b0;fill-opacity:0.65;" x="333.481867" xlink:href="#mda9e1dc99a" y="425.624338"/>
     <use style="fill:#4c72b0;fill-opacity:0.65;" x="270.199257" xlink:href="#mda9e1dc99a" y="467.757114"/>
     <use style="fill:#4c72b0;fill-opacity:0.65;" x="159.663325" xlink:href="#mda9e1dc99a" y="477.050749"/>
     <use style="fill:#4c72b0;fill-opacity:0.65;" x="264.992273" xlink:href="#mda9e1dc99a" y="468.416532"/>
     <use style="fill:#4c72b0;fill-opacity:0.65;" x="321.237177" xlink:href="#mda9e1dc99a" y="495.871187"/>
     <use style="fill:#4c72b0;fill-opacity:0.65;" x="259.349151" xlink:href="#mda9e1dc99a" y="443.979904"/>
     <use style="fill:#4c72b0;fill-opacity:0.65;" x="302.958249" xlink:href="#mda9e1dc99a" y="441.469369"/>
     <use style="fill:#4c72b0;fill-opacity:0.65;" x="245.740492" xlink:href="#mda9e1dc99a" y="425.716119"/>
     <use style="fill:#4c72b0;fill-opacity:0.65;" x="178.973597" xlink:href="#mda9e1dc99a" y="419.910727"/>
     <use style="fill:#4c72b0;fill-opacity:0.65;" x="211.913646" xlink:href="#mda9e1dc99a" y="332.666058"/>
     <use style="fill:#4c72b0;fill-opacity:0.65;" x="254.577473" xlink:href="#mda9e1dc99a" y="414.40144"/>
     <use style="fill:#4c72b0;fill-opacity:0.65;" x="171.385498" xlink:href="#mda9e1dc99a" y="402.353764"/>
     <use style="fill:#4c72b0;fill-opacity:0.65;" x="145.361984" xlink:href="#mda9e1dc99a" y="434.359466"/>
     <use style="fill:#4c72b0;fill-opacity:0.65;" x="189.551745" xlink:href="#mda9e1dc99a" y="427.632947"/>
     <use style="fill:#4c72b0;fill-opacity:0.65;" x="208.014668" xlink:href="#mda9e1dc99a" y="415.086942"/>
     <use style="fill:#4c72b0;fill-opacity:0.65;" x="146.955453" xlink:href="#mda9e1dc99a" y="451.895807"/>
     <use style="fill:#4c72b0;fill-opacity:0.65;" x="265.094765" xlink:href="#mda9e1dc99a" y="433.073002"/>
     <use style="fill:#4c72b0;fill-opacity:0.65;" x="238.543344" xlink:href="#mda9e1dc99a" y="451.25193"/>
     <use style="fill:#4c72b0;fill-opacity:0.65;" x="193.539823" xlink:href="#mda9e1dc99a" y="398.869319"/>
     <use style="fill:#4c72b0;fill-opacity:0.65;" x="166.66142" xlink:href="#mda9e1dc99a" y="428.629054"/>
     <use style="fill:#4c72b0;fill-opacity:0.65;" x="205.52414" xlink:href="#mda9e1dc99a" y="407.88315"/>
     <use style="fill:#4c72b0;fill-opacity:0.65;" x="243.952468" xlink:href="#mda9e1dc99a" y="426.495397"/>
     <use style="fill:#4c72b0;fill-opacity:0.65;" x="244.985449" xlink:href="#mda9e1dc99a" y="400.583304"/>
     <use style="fill:#4c72b0;fill-opacity:0.65;" x="222.74554" xlink:href="#mda9e1dc99a" y="395.95423"/>
     <use style="fill:#4c72b0;fill-opacity:0.65;" x="240.811989" xlink:href="#mda9e1dc99a" y="416.372871"/>
     <use style="fill:#4c72b0;fill-opacity:0.65;" x="293.5197" xlink:href="#mda9e1dc99a" y="423.480108"/>
     <use style="fill:#4c72b0;fill-opacity:0.65;" x="356.579157" xlink:href="#mda9e1dc99a" y="362.769395"/>
     <use style="fill:#4c72b0;fill-opacity:0.65;" x="189.815237" xlink:href="#mda9e1dc99a" y="469.920831"/>
     <use style="fill:#4c72b0;fill-opacity:0.65;" x="321.120289" xlink:href="#mda9e1dc99a" y="406.420595"/>
     <use style="fill:#4c72b0;fill-opacity:0.65;" x="270.674636" xlink:href="#mda9e1dc99a" y="439.167988"/>
     <use style="fill:#4c72b0;fill-opacity:0.65;" x="311.488686" xlink:href="#mda9e1dc99a" y="329.321468"/>
     <use style="fill:#4c72b0;fill-opacity:0.65;" x="315.079733" xlink:href="#mda9e1dc99a" y="425.252124"/>
     <use style="fill:#4c72b0;fill-opacity:0.65;" x="243.89916" xlink:href="#mda9e1dc99a" y="458.246078"/>
     <use style="fill:#4c72b0;fill-opacity:0.65;" x="235.530424" xlink:href="#mda9e1dc99a" y="385.910855"/>
     <use style="fill:#4c72b0;fill-opacity:0.65;" x="261.61032" xlink:href="#mda9e1dc99a" y="424.907463"/>
     <use style="fill:#4c72b0;fill-opacity:0.65;" x="307.292612" xlink:href="#mda9e1dc99a" y="419.046521"/>
     <use style="fill:#4c72b0;fill-opacity:0.65;" x="225.763817" xlink:href="#mda9e1dc99a" y="436.699051"/>
     <use style="fill:#4c72b0;fill-opacity:0.65;" x="289.830499" xlink:href="#mda9e1dc99a" y="425.337904"/>
     <use style="fill:#4c72b0;fill-opacity:0.65;" x="264.723668" xlink:href="#mda9e1dc99a" y="411.952941"/>
     <use style="fill:#4c72b0;fill-opacity:0.65;" x="376.018961" xlink:href="#mda9e1dc99a" y="389.499157"/>
     <use style="fill:#4c72b0;fill-opacity:0.65;" x="382.295913" xlink:href="#mda9e1dc99a" y="404.214813"/>
     <use style="fill:#4c72b0;fill-opacity:0.65;" x="299.846182" xlink:href="#mda9e1dc99a" y="419.794569"/>
     <use style="fill:#4c72b0;fill-opacity:0.65;" x="530.814844" xlink:href="#mda9e1dc99a" y="428.049865"/>
     <use style="fill:#4c72b0;fill-opacity:0.65;" x="507.836472" xlink:href="#mda9e1dc99a" y="396.122627"/>
     <use style="fill:#4c72b0;fill-opacity:0.65;" x="602.36391" xlink:href="#mda9e1dc99a" y="419.995567"/>
     <use style="fill:#4c72b0;fill-opacity:0.65;" x="252.010085" xlink:href="#mda9e1dc99a" y="410.198091"/>
     <use style="fill:#4c72b0;fill-opacity:0.65;" x="121.196771" xlink:href="#mda9e1dc99a" y="404.687892"/>
     <use style="fill:#4c72b0;fill-opacity:0.65;" x="144.113662" xlink:href="#mda9e1dc99a" y="433.515066"/>
     <use style="fill:#4c72b0;fill-opacity:0.65;" x="303.881661" xlink:href="#mda9e1dc99a" y="413.285483"/>
     <use style="fill:#4c72b0;fill-opacity:0.65;" x="253.147924" xlink:href="#mda9e1dc99a" y="422.598136"/>
     <use style="fill:#4c72b0;fill-opacity:0.65;" x="108.700657" xlink:href="#mda9e1dc99a" y="401.735453"/>
     <use style="fill:#4c72b0;fill-opacity:0.65;" x="193.242393" xlink:href="#mda9e1dc99a" y="431.696006"/>
     <use style="fill:#4c72b0;fill-opacity:0.65;" x="95.58309" xlink:href="#mda9e1dc99a" y="471.407051"/>
     <use style="fill:#4c72b0;fill-opacity:0.65;" x="199.119609" xlink:href="#mda9e1dc99a" y="472.261203"/>
     <use style="fill:#4c72b0;fill-opacity:0.65;" x="115.624348" xlink:href="#mda9e1dc99a" y="484.876916"/>
     <use style="fill:#4c72b0;fill-opacity:0.65;" x="156.152859" xlink:href="#mda9e1dc99a" y="476.208535"/>
     <use style="fill:#4c72b0;fill-opacity:0.65;" x="117.360095" xlink:href="#mda9e1dc99a" y="452.146484"/>
     <use style="fill:#4c72b0;fill-opacity:0.65;" x="124.399244" xlink:href="#mda9e1dc99a" y="515.113319"/>
     <use style="fill:#4c72b0;fill-opacity:0.65;" x="177.167131" xlink:href="#mda9e1dc99a" y="471.978122"/>
     <use style="fill:#4c72b0;fill-opacity:0.65;" x="324.815233" xlink:href="#mda9e1dc99a" y="429.360319"/>
     <use style="fill:#4c72b0;fill-opacity:0.65;" x="195.066447" xlink:href="#mda9e1dc99a" y="436.812793"/>
     <use style="fill:#4c72b0;fill-opacity:0.65;" x="285.611545" xlink:href="#mda9e1dc99a" y="548.32232"/>
     <use style="fill:#4c72b0;fill-opacity:0.65;" x="156.928375" xlink:href="#mda9e1dc99a" y="487.947548"/>
     <use style="fill:#4c72b0;fill-opacity:0.65;" x="151.84854" xlink:href="#mda9e1dc99a" y="452.372042"/>
     <use style="fill:#4c72b0;fill-opacity:0.65;" x="293.21999" xlink:href="#mda9e1dc99a" y="396.995117"/>
     <use style="fill:#4c72b0;fill-opacity:0.65;" x="139.816913" xlink:href="#mda9e1dc99a" y="531.131528"/>
     <use style="fill:#4c72b0;fill-opacity:0.65;" x="313.521099" xlink:href="#mda9e1dc99a" y="528.905016"/>
     <use style="fill:#4c72b0;fill-opacity:0.65;" x="169.965783" xlink:href="#mda9e1dc99a" y="571.969421"/>
     <use style="fill:#4c72b0;fill-opacity:0.65;" x="236.118139" xlink:href="#mda9e1dc99a" y="479.065394"/>
     <use style="fill:#4c72b0;fill-opacity:0.65;" x="203.464137" xlink:href="#mda9e1dc99a" y="455.915613"/>
     <use style="fill:#4c72b0;fill-opacity:0.65;" x="196.237735" xlink:href="#mda9e1dc99a" y="443.601074"/>
     <use style="fill:#4c72b0;fill-opacity:0.65;" x="201.467332" xlink:href="#mda9e1dc99a" y="454.674069"/>
     <use style="fill:#4c72b0;fill-opacity:0.65;" x="283.180234" xlink:href="#mda9e1dc99a" y="405.666112"/>
     <use style="fill:#4c72b0;fill-opacity:0.65;" x="239.746111" xlink:href="#mda9e1dc99a" y="444.450357"/>
     <use style="fill:#4c72b0;fill-opacity:0.65;" x="275.870578" xlink:href="#mda9e1dc99a" y="426.168776"/>
     <use style="fill:#4c72b0;fill-opacity:0.65;" x="224.966004" xlink:href="#mda9e1dc99a" y="441.184716"/>
     <use style="fill:#4c72b0;fill-opacity:0.65;" x="205.842472" xlink:href="#mda9e1dc99a" y="435.852178"/>
     <use style="fill:#4c72b0;fill-opacity:0.65;" x="228.673261" xlink:href="#mda9e1dc99a" y="438.091464"/>
     <use style="fill:#4c72b0;fill-opacity:0.65;" x="275.66693" xlink:href="#mda9e1dc99a" y="425.361825"/>
     <use style="fill:#4c72b0;fill-opacity:0.65;" x="260.96662" xlink:href="#mda9e1dc99a" y="454.268733"/>
     <use style="fill:#4c72b0;fill-opacity:0.65;" x="127.246312" xlink:href="#mda9e1dc99a" y="448.442505"/>
     <use style="fill:#4c72b0;fill-opacity:0.65;" x="283.087607" xlink:href="#mda9e1dc99a" y="412.675357"/>
     <use style="fill:#4c72b0;fill-opacity:0.65;" x="164.753003" xlink:href="#mda9e1dc99a" y="432.192441"/>
     <use style="fill:#4c72b0;fill-opacity:0.65;" x="333.896721" xlink:href="#mda9e1dc99a" y="403.658668"/>
     <use style="fill:#4c72b0;fill-opacity:0.65;" x="201.457515" xlink:href="#mda9e1dc99a" y="416.052782"/>
     <use style="fill:#4c72b0;fill-opacity:0.65;" x="258.643868" xlink:href="#mda9e1dc99a" y="455.158727"/>
     <use style="fill:#4c72b0;fill-opacity:0.65;" x="325.059271" xlink:href="#mda9e1dc99a" y="443.757805"/>
     <use style="fill:#4c72b0;fill-opacity:0.65;" x="351.713499" xlink:href="#mda9e1dc99a" y="418.279054"/>
     <use style="fill:#4c72b0;fill-opacity:0.65;" x="366.427598" xlink:href="#mda9e1dc99a" y="457.040874"/>
     <use style="fill:#4c72b0;fill-opacity:0.65;" x="310.412164" xlink:href="#mda9e1dc99a" y="461.150981"/>
     <use style="fill:#4c72b0;fill-opacity:0.65;" x="141.339024" xlink:href="#mda9e1dc99a" y="441.953863"/>
     <use style="fill:#4c72b0;fill-opacity:0.65;" x="109.749662" xlink:href="#mda9e1dc99a" y="453.576258"/>
     <use style="fill:#4c72b0;fill-opacity:0.65;" x="223.234535" xlink:href="#mda9e1dc99a" y="491.579892"/>
     <use style="fill:#4c72b0;fill-opacity:0.65;" x="157.793841" xlink:href="#mda9e1dc99a" y="453.00721"/>
     <use style="fill:#4c72b0;fill-opacity:0.65;" x="149.077845" xlink:href="#mda9e1dc99a" y="551.736999"/>
     <use style="fill:#4c72b0;fill-opacity:0.65;" x="439.481583" xlink:href="#mda9e1dc99a" y="401.975649"/>
     <use style="fill:#4c72b0;fill-opacity:0.65;" x="406.117931" xlink:href="#mda9e1dc99a" y="471.103844"/>
     <use style="fill:#4c72b0;fill-opacity:0.65;" x="466.682796" xlink:href="#mda9e1dc99a" y="440.448933"/>
     <use style="fill:#4c72b0;fill-opacity:0.65;" x="286.047881" xlink:href="#mda9e1dc99a" y="439.907733"/>
     <use style="fill:#4c72b0;fill-opacity:0.65;" x="300.433265" xlink:href="#mda9e1dc99a" y="472.433321"/>
     <use style="fill:#4c72b0;fill-opacity:0.65;" x="153.463637" xlink:href="#mda9e1dc99a" y="449.610362"/>
     <use style="fill:#4c72b0;fill-opacity:0.65;" x="228.447021" xlink:href="#mda9e1dc99a" y="465.156552"/>
     <use style="fill:#4c72b0;fill-opacity:0.65;" x="191.581293" xlink:href="#mda9e1dc99a" y="444.495754"/>
     <use style="fill:#4c72b0;fill-opacity:0.65;" x="420.645185" xlink:href="#mda9e1dc99a" y="335.108548"/>
     <use style="fill:#4c72b0;fill-opacity:0.65;" x="345.846427" xlink:href="#mda9e1dc99a" y="443.623735"/>
     <use style="fill:#4c72b0;fill-opacity:0.65;" x="308.643083" xlink:href="#mda9e1dc99a" y="418.555447"/>
     <use style="fill:#4c72b0;fill-opacity:0.65;" x="283.034347" xlink:href="#mda9e1dc99a" y="400.268504"/>
     <use style="fill:#4c72b0;fill-opacity:0.65;" x="277.005369" xlink:href="#mda9e1dc99a" y="423.2031"/>
     <use style="fill:#4c72b0;fill-opacity:0.65;" x="355.862367" xlink:href="#mda9e1dc99a" y="443.350177"/>
     <use style="fill:#4c72b0;fill-opacity:0.65;" x="464.178163" xlink:href="#mda9e1dc99a" y="383.515752"/>
     <use style="fill:#4c72b0;fill-opacity:0.65;" x="356.258271" xlink:href="#mda9e1dc99a" y="447.361911"/>
     <use style="fill:#4c72b0;fill-opacity:0.65;" x="394.20464" xlink:href="#mda9e1dc99a" y="425.302375"/>
     <use style="fill:#4c72b0;fill-opacity:0.65;" x="347.729386" xlink:href="#mda9e1dc99a" y="424.385249"/>
     <use style="fill:#4c72b0;fill-opacity:0.65;" x="226.090596" xlink:href="#mda9e1dc99a" y="435.687277"/>
     <use style="fill:#4c72b0;fill-opacity:0.65;" x="299.537827" xlink:href="#mda9e1dc99a" y="466.918326"/>
     <use style="fill:#4c72b0;fill-opacity:0.65;" x="221.274823" xlink:href="#mda9e1dc99a" y="413.643454"/>
     <use style="fill:#4c72b0;fill-opacity:0.65;" x="242.625411" xlink:href="#mda9e1dc99a" y="427.514286"/>
     <use style="fill:#4c72b0;fill-opacity:0.65;" x="325.090285" xlink:href="#mda9e1dc99a" y="457.809252"/>
     <use style="fill:#4c72b0;fill-opacity:0.65;" x="349.826144" xlink:href="#mda9e1dc99a" y="430.114435"/>
     <use style="fill:#4c72b0;fill-opacity:0.65;" x="327.832035" xlink:href="#mda9e1dc99a" y="409.082873"/>
     <use style="fill:#4c72b0;fill-opacity:0.65;" x="233.782705" xlink:href="#mda9e1dc99a" y="453.454464"/>
     <use style="fill:#4c72b0;fill-opacity:0.65;" x="403.071485" xlink:href="#mda9e1dc99a" y="489.850639"/>
     <use style="fill:#4c72b0;fill-opacity:0.65;" x="299.606963" xlink:href="#mda9e1dc99a" y="468.740782"/>
     <use style="fill:#4c72b0;fill-opacity:0.65;" x="222.348657" xlink:href="#mda9e1dc99a" y="463.344348"/>
    </g>
   </g>
   <g id="PolyCollection_1">
    <path clip-path="url(#p9e5ad860b5)" d="M 69.9735 450.896568 
L 69.9735 479.076104 
L 75.609864 477.76656 
L 81.246227 476.39178 
L 86.882591 475.057188 
L 92.518955 473.727953 
L 98.155318 472.385312 
L 103.791682 471.050308 
L 109.428045 469.74725 
L 115.064409 468.417919 
L 120.700773 467.045295 
L 126.337136 465.763634 
L 131.9735 464.435638 
L 137.609864 463.190965 
L 143.246227 461.878101 
L 148.882591 460.559736 
L 154.518955 459.445318 
L 160.155318 458.135788 
L 165.791682 456.750236 
L 171.428045 455.368259 
L 177.064409 453.990114 
L 182.700773 452.637047 
L 188.337136 451.420517 
L 193.9735 450.239568 
L 199.609864 448.936301 
L 205.246227 447.806826 
L 210.882591 446.744663 
L 216.518955 445.680704 
L 222.155318 444.520007 
L 227.791682 443.466588 
L 233.428045 442.362716 
L 239.064409 441.264769 
L 244.700773 440.31159 
L 250.337136 439.109542 
L 255.9735 437.935649 
L 261.609864 436.947354 
L 267.246227 436.008305 
L 272.882591 435.052075 
L 278.518955 434.071262 
L 284.155318 433.068637 
L 289.791682 432.18625 
L 295.428045 431.190321 
L 301.064409 430.157219 
L 306.700773 429.358822 
L 312.337136 428.570245 
L 317.9735 427.785263 
L 323.609864 427.01044 
L 329.246227 425.997617 
L 334.882591 425.224321 
L 340.518955 424.576732 
L 346.155318 423.827453 
L 351.791682 423.079712 
L 357.428045 422.248275 
L 363.064409 421.462359 
L 368.700773 420.647672 
L 374.337136 419.846972 
L 379.9735 419.125289 
L 385.609864 418.243892 
L 391.246227 417.442132 
L 396.882591 416.66505 
L 402.518955 416.122396 
L 408.155318 415.479004 
L 413.791682 414.749498 
L 419.428045 413.954382 
L 425.064409 413.26908 
L 430.700773 412.53299 
L 436.337136 411.850802 
L 441.9735 411.101144 
L 447.609864 410.36927 
L 453.246227 409.719269 
L 458.882591 408.982189 
L 464.518955 408.282442 
L 470.155318 407.647241 
L 475.791682 407.084204 
L 481.428045 406.425413 
L 487.064409 405.821619 
L 492.700773 405.198422 
L 498.337136 404.553125 
L 503.9735 403.907827 
L 509.609864 403.260347 
L 515.246227 402.602851 
L 520.882591 401.947912 
L 526.518955 401.321158 
L 532.155318 400.676192 
L 537.791682 400.013027 
L 543.428045 399.23393 
L 549.064409 398.524225 
L 554.700773 397.872176 
L 560.337136 397.244118 
L 565.9735 396.559537 
L 571.609864 395.887623 
L 577.246227 395.237203 
L 582.882591 394.610241 
L 588.518955 393.981438 
L 594.155318 393.278931 
L 599.791682 392.594467 
L 605.428045 391.938342 
L 611.064409 391.313569 
L 616.700773 390.687469 
L 622.337136 390.06137 
L 627.9735 389.398647 
L 627.9735 346.008304 
L 627.9735 346.008304 
L 622.337136 347.346545 
L 616.700773 348.658902 
L 611.064409 349.998494 
L 605.428045 351.338086 
L 599.791682 352.677678 
L 594.155318 354.01727 
L 588.518955 355.292652 
L 582.882591 356.547754 
L 577.246227 357.802856 
L 571.609864 359.096444 
L 565.9735 360.329669 
L 560.337136 361.562894 
L 554.700773 362.920461 
L 549.064409 364.304058 
L 543.428045 365.687656 
L 537.791682 367.016431 
L 532.155318 368.290087 
L 526.518955 369.564149 
L 520.882591 370.838212 
L 515.246227 372.112274 
L 509.609864 373.386337 
L 503.9735 374.660399 
L 498.337136 375.934645 
L 492.700773 377.209673 
L 487.064409 378.435304 
L 481.428045 379.548879 
L 475.791682 380.899577 
L 470.155318 382.293106 
L 464.518955 383.473152 
L 458.882591 384.830834 
L 453.246227 386.066814 
L 447.609864 387.374328 
L 441.9735 388.680893 
L 436.337136 389.957193 
L 430.700773 391.270008 
L 425.064409 392.50542 
L 419.428045 393.745075 
L 413.791682 394.971813 
L 408.155318 396.32496 
L 402.518955 397.418667 
L 396.882591 398.641345 
L 391.246227 399.867784 
L 385.609864 401.246856 
L 379.9735 402.468034 
L 374.337136 403.649462 
L 368.700773 404.900516 
L 363.064409 406.125849 
L 357.428045 407.334541 
L 351.791682 408.542389 
L 346.155318 409.659724 
L 340.518955 410.879955 
L 334.882591 412.096694 
L 329.246227 413.150873 
L 323.609864 414.212119 
L 317.9735 415.455466 
L 312.337136 416.707673 
L 306.700773 417.73991 
L 301.064409 418.72115 
L 295.428045 419.699702 
L 289.791682 420.838527 
L 284.155318 421.689052 
L 278.518955 422.675075 
L 272.882591 423.73303 
L 267.246227 424.751503 
L 261.609864 425.770491 
L 255.9735 426.618764 
L 250.337136 427.482866 
L 244.700773 428.305106 
L 239.064409 429.160044 
L 233.428045 430.144205 
L 227.791682 430.943514 
L 222.155318 431.784189 
L 216.518955 432.534774 
L 210.882591 433.327514 
L 205.246227 434.074001 
L 199.609864 434.871848 
L 193.9735 435.641822 
L 188.337136 436.362995 
L 182.700773 437.107935 
L 177.064409 437.905534 
L 171.428045 438.63238 
L 165.791682 439.344417 
L 160.155318 440.094784 
L 154.518955 440.864737 
L 148.882591 441.600712 
L 143.246227 442.317427 
L 137.609864 442.974964 
L 131.9735 443.632502 
L 126.337136 444.24935 
L 120.700773 444.93781 
L 115.064409 445.606582 
L 109.428045 446.281817 
L 103.791682 447.039165 
L 98.155318 447.741347 
L 92.518955 448.487751 
L 86.882591 449.143667 
L 81.246227 449.818594 
L 75.609864 450.347245 
L 69.9735 450.896568 
z
" style="fill:#4c72b0;fill-opacity:0.15;"/>
   </g>
   <g id="line2d_21">
    <path clip-path="url(#p9e5ad860b5)" d="M 69.9735 464.606863 
L 75.609864 463.629197 
L 81.246227 462.651532 
L 86.882591 461.673866 
L 92.518955 460.696201 
L 98.155318 459.718536 
L 103.791682 458.74087 
L 109.428045 457.763205 
L 115.064409 456.785539 
L 120.700773 455.807874 
L 126.337136 454.830209 
L 131.9735 453.852543 
L 137.609864 452.874878 
L 143.246227 451.897212 
L 148.882591 450.919547 
L 154.518955 449.941882 
L 160.155318 448.964216 
L 165.791682 447.986551 
L 171.428045 447.008885 
L 177.064409 446.03122 
L 182.700773 445.053554 
L 188.337136 444.075889 
L 193.9735 443.098224 
L 199.609864 442.120558 
L 205.246227 441.142893 
L 210.882591 440.165227 
L 216.518955 439.187562 
L 222.155318 438.209897 
L 227.791682 437.232231 
L 233.428045 436.254566 
L 239.064409 435.2769 
L 244.700773 434.299235 
L 250.337136 433.32157 
L 255.9735 432.343904 
L 261.609864 431.366239 
L 267.246227 430.388573 
L 272.882591 429.410908 
L 278.518955 428.433243 
L 284.155318 427.455577 
L 289.791682 426.477912 
L 295.428045 425.500246 
L 301.064409 424.522581 
L 306.700773 423.544915 
L 312.337136 422.56725 
L 317.9735 421.589585 
L 323.609864 420.611919 
L 329.246227 419.634254 
L 334.882591 418.656588 
L 340.518955 417.678923 
L 346.155318 416.701258 
L 351.791682 415.723592 
L 357.428045 414.745927 
L 363.064409 413.768261 
L 368.700773 412.790596 
L 374.337136 411.812931 
L 379.9735 410.835265 
L 385.609864 409.8576 
L 391.246227 408.879934 
L 396.882591 407.902269 
L 402.518955 406.924604 
L 408.155318 405.946938 
L 413.791682 404.969273 
L 419.428045 403.991607 
L 425.064409 403.013942 
L 430.700773 402.036276 
L 436.337136 401.058611 
L 441.9735 400.080946 
L 447.609864 399.10328 
L 453.246227 398.125615 
L 458.882591 397.147949 
L 464.518955 396.170284 
L 470.155318 395.192619 
L 475.791682 394.214953 
L 481.428045 393.237288 
L 487.064409 392.259622 
L 492.700773 391.281957 
L 498.337136 390.304292 
L 503.9735 389.326626 
L 509.609864 388.348961 
L 515.246227 387.371295 
L 520.882591 386.39363 
L 526.518955 385.415965 
L 532.155318 384.438299 
L 537.791682 383.460634 
L 543.428045 382.482968 
L 549.064409 381.505303 
L 554.700773 380.527637 
L 560.337136 379.549972 
L 565.9735 378.572307 
L 571.609864 377.594641 
L 577.246227 376.616976 
L 582.882591 375.63931 
L 588.518955 374.661645 
L 594.155318 373.68398 
L 599.791682 372.706314 
L 605.428045 371.728649 
L 611.064409 370.750983 
L 616.700773 369.773318 
L 622.337136 368.795653 
L 627.9735 367.817987 
" style="fill:none;stroke:#4c72b0;stroke-linecap:round;stroke-width:4.2;"/>
   </g>
   <g id="line2d_22">
    <path clip-path="url(#p9e5ad860b5)" d="M 95.58309 611.179309 
L 602.36391 116.997491 
" style="fill:none;stroke:#808080;stroke-dasharray:11.1,4.8;stroke-dashoffset:0;stroke-width:3;"/>
   </g>
   <g id="patch_3">
    <path d="M 69.9735 635.8884 
L 69.9735 92.2884 
" style="fill:none;"/>
   </g>
   <g id="patch_4">
    <path d="M 627.9735 635.8884 
L 627.9735 92.2884 
" style="fill:none;"/>
   </g>
   <g id="patch_5">
    <path d="M 69.9735 635.8884 
L 627.9735 635.8884 
" style="fill:none;"/>
   </g>
   <g id="patch_6">
    <path d="M 69.9735 92.2884 
L 627.9735 92.2884 
" style="fill:none;"/>
   </g>
   <g id="text_13">
    <!-- Nakhon-Si (167 data points), BS per Person as Features -->
    <defs>
     <path d="M 9.8125 72.90625 
L 23.09375 72.90625 
L 55.421875 11.921875 
L 55.421875 72.90625 
L 64.984375 72.90625 
L 64.984375 0 
L 51.703125 0 
L 19.390625 60.984375 
L 19.390625 0 
L 9.8125 0 
z
" id="DejaVuSans-4e"/>
     <path d="M 9.078125 75.984375 
L 18.109375 75.984375 
L 18.109375 31.109375 
L 44.921875 54.6875 
L 56.390625 54.6875 
L 27.390625 29.109375 
L 57.625 0 
L 45.90625 0 
L 18.109375 26.703125 
L 18.109375 0 
L 9.078125 0 
z
" id="DejaVuSans-6b"/>
     <path d="M 54.890625 33.015625 
L 54.890625 0 
L 45.90625 0 
L 45.90625 32.71875 
Q 45.90625 40.484375 42.875 44.328125 
Q 39.84375 48.1875 33.796875 48.1875 
Q 26.515625 48.1875 22.3125 43.546875 
Q 18.109375 38.921875 18.109375 30.90625 
L 18.109375 0 
L 9.078125 0 
L 9.078125 75.984375 
L 18.109375 75.984375 
L 18.109375 46.1875 
Q 21.34375 51.125 25.703125 53.5625 
Q 30.078125 56 35.796875 56 
Q 45.21875 56 50.046875 50.171875 
Q 54.890625 44.34375 54.890625 33.015625 
z
" id="DejaVuSans-68"/>
     <path d="M 4.890625 31.390625 
L 31.203125 31.390625 
L 31.203125 23.390625 
L 4.890625 23.390625 
z
" id="DejaVuSans-2d"/>
     <path d="M 53.515625 70.515625 
L 53.515625 60.890625 
Q 47.90625 63.578125 42.921875 64.890625 
Q 37.9375 66.21875 33.296875 66.21875 
Q 25.25 66.21875 20.875 63.09375 
Q 16.5 59.96875 16.5 54.203125 
Q 16.5 49.359375 19.40625 46.890625 
Q 22.3125 44.4375 30.421875 42.921875 
L 36.375 41.703125 
Q 47.40625 39.59375 52.65625 34.296875 
Q 57.90625 29 57.90625 20.125 
Q 57.90625 9.515625 50.796875 4.046875 
Q 43.703125 -1.421875 29.984375 -1.421875 
Q 24.8125 -1.421875 18.96875 -0.25 
Q 13.140625 0.921875 6.890625 3.21875 
L 6.890625 13.375 
Q 12.890625 10.015625 18.65625 8.296875 
Q 24.421875 6.59375 29.984375 6.59375 
Q 38.421875 6.59375 43.015625 9.90625 
Q 47.609375 13.234375 47.609375 19.390625 
Q 47.609375 24.75 44.3125 27.78125 
Q 41.015625 30.8125 33.5 32.328125 
L 27.484375 33.5 
Q 16.453125 35.6875 11.515625 40.375 
Q 6.59375 45.0625 6.59375 53.421875 
Q 6.59375 63.09375 13.40625 68.65625 
Q 20.21875 74.21875 32.171875 74.21875 
Q 37.3125 74.21875 42.625 73.28125 
Q 47.953125 72.359375 53.515625 70.515625 
z
" id="DejaVuSans-53"/>
     <path d="M 31 75.875 
Q 24.46875 64.65625 21.28125 53.65625 
Q 18.109375 42.671875 18.109375 31.390625 
Q 18.109375 20.125 21.3125 9.0625 
Q 24.515625 -2 31 -13.1875 
L 23.1875 -13.1875 
Q 15.875 -1.703125 12.234375 9.375 
Q 8.59375 20.453125 8.59375 31.390625 
Q 8.59375 42.28125 12.203125 53.3125 
Q 15.828125 64.359375 23.1875 75.875 
z
" id="DejaVuSans-28"/>
     <path d="M 8.203125 72.90625 
L 55.078125 72.90625 
L 55.078125 68.703125 
L 28.609375 0 
L 18.3125 0 
L 43.21875 64.59375 
L 8.203125 64.59375 
z
" id="DejaVuSans-37"/>
     <path d="M 8.015625 75.875 
L 15.828125 75.875 
Q 23.140625 64.359375 26.78125 53.3125 
Q 30.421875 42.28125 30.421875 31.390625 
Q 30.421875 20.453125 26.78125 9.375 
Q 23.140625 -1.703125 15.828125 -13.1875 
L 8.015625 -13.1875 
Q 14.5 -2 17.703125 9.0625 
Q 20.90625 20.125 20.90625 31.390625 
Q 20.90625 42.671875 17.703125 53.65625 
Q 14.5 64.65625 8.015625 75.875 
z
" id="DejaVuSans-29"/>
     <path d="M 19.671875 34.8125 
L 19.671875 8.109375 
L 35.5 8.109375 
Q 43.453125 8.109375 47.28125 11.40625 
Q 51.125 14.703125 51.125 21.484375 
Q 51.125 28.328125 47.28125 31.5625 
Q 43.453125 34.8125 35.5 34.8125 
z
M 19.671875 64.796875 
L 19.671875 42.828125 
L 34.28125 42.828125 
Q 41.5 42.828125 45.03125 45.53125 
Q 48.578125 48.25 48.578125 53.8125 
Q 48.578125 59.328125 45.03125 62.0625 
Q 41.5 64.796875 34.28125 64.796875 
z
M 9.8125 72.90625 
L 35.015625 72.90625 
Q 46.296875 72.90625 52.390625 68.21875 
Q 58.5 63.53125 58.5 54.890625 
Q 58.5 48.1875 55.375 44.234375 
Q 52.25 40.28125 46.1875 39.3125 
Q 53.46875 37.75 57.5 32.78125 
Q 61.53125 27.828125 61.53125 20.40625 
Q 61.53125 10.640625 54.890625 5.3125 
Q 48.25 0 35.984375 0 
L 9.8125 0 
z
" id="DejaVuSans-42"/>
     <path d="M 9.8125 72.90625 
L 51.703125 72.90625 
L 51.703125 64.59375 
L 19.671875 64.59375 
L 19.671875 43.109375 
L 48.578125 43.109375 
L 48.578125 34.8125 
L 19.671875 34.8125 
L 19.671875 0 
L 9.8125 0 
z
" id="DejaVuSans-46"/>
    </defs>
    <g style="fill:#262626;" transform="translate(81.5895 21.789)scale(0.192 -0.192)">
     <use xlink:href="#DejaVuSans-4e"/>
     <use x="74.804688" xlink:href="#DejaVuSans-61"/>
     <use x="136.083984" xlink:href="#DejaVuSans-6b"/>
     <use x="193.994141" xlink:href="#DejaVuSans-68"/>
     <use x="257.373047" xlink:href="#DejaVuSans-6f"/>
     <use x="318.554688" xlink:href="#DejaVuSans-6e"/>
     <use x="381.933594" xlink:href="#DejaVuSans-2d"/>
     <use x="418.017578" xlink:href="#DejaVuSans-53"/>
     <use x="481.494141" xlink:href="#DejaVuSans-69"/>
     <use x="509.277344" xlink:href="#DejaVuSans-20"/>
     <use x="541.064453" xlink:href="#DejaVuSans-28"/>
     <use x="580.078125" xlink:href="#DejaVuSans-31"/>
     <use x="643.701172" xlink:href="#DejaVuSans-36"/>
     <use x="707.324219" xlink:href="#DejaVuSans-37"/>
     <use x="770.947266" xlink:href="#DejaVuSans-20"/>
     <use x="802.734375" xlink:href="#DejaVuSans-64"/>
     <use x="866.210938" xlink:href="#DejaVuSans-61"/>
     <use x="927.490234" xlink:href="#DejaVuSans-74"/>
     <use x="966.699219" xlink:href="#DejaVuSans-61"/>
     <use x="1027.978516" xlink:href="#DejaVuSans-20"/>
     <use x="1059.765625" xlink:href="#DejaVuSans-70"/>
     <use x="1123.242188" xlink:href="#DejaVuSans-6f"/>
     <use x="1184.423828" xlink:href="#DejaVuSans-69"/>
     <use x="1212.207031" xlink:href="#DejaVuSans-6e"/>
     <use x="1275.585938" xlink:href="#DejaVuSans-74"/>
     <use x="1314.794922" xlink:href="#DejaVuSans-73"/>
     <use x="1366.894531" xlink:href="#DejaVuSans-29"/>
     <use x="1405.908203" xlink:href="#DejaVuSans-2c"/>
     <use x="1437.695312" xlink:href="#DejaVuSans-20"/>
     <use x="1469.482422" xlink:href="#DejaVuSans-42"/>
     <use x="1538.070312" xlink:href="#DejaVuSans-53"/>
     <use x="1601.546875" xlink:href="#DejaVuSans-20"/>
     <use x="1633.333984" xlink:href="#DejaVuSans-70"/>
     <use x="1696.810547" xlink:href="#DejaVuSans-65"/>
     <use x="1758.333984" xlink:href="#DejaVuSans-72"/>
     <use x="1799.447266" xlink:href="#DejaVuSans-20"/>
     <use x="1831.234375" xlink:href="#DejaVuSans-50"/>
     <use x="1891.490234" xlink:href="#DejaVuSans-65"/>
     <use x="1953.013672" xlink:href="#DejaVuSans-72"/>
     <use x="1994.126953" xlink:href="#DejaVuSans-73"/>
     <use x="2046.226562" xlink:href="#DejaVuSans-6f"/>
     <use x="2107.408203" xlink:href="#DejaVuSans-6e"/>
     <use x="2170.787109" xlink:href="#DejaVuSans-20"/>
     <use x="2202.574219" xlink:href="#DejaVuSans-61"/>
     <use x="2263.853516" xlink:href="#DejaVuSans-73"/>
     <use x="2315.953125" xlink:href="#DejaVuSans-20"/>
     <use x="2347.740234" xlink:href="#DejaVuSans-46"/>
     <use x="2405.181641" xlink:href="#DejaVuSans-65"/>
     <use x="2466.705078" xlink:href="#DejaVuSans-61"/>
     <use x="2527.984375" xlink:href="#DejaVuSans-74"/>
     <use x="2567.193359" xlink:href="#DejaVuSans-75"/>
     <use x="2630.572266" xlink:href="#DejaVuSans-72"/>
     <use x="2671.654297" xlink:href="#DejaVuSans-65"/>
     <use x="2733.177734" xlink:href="#DejaVuSans-73"/>
    </g>
    <!-- R-squared: 0.1779 -->
    <defs>
     <path d="M 44.390625 34.1875 
Q 47.5625 33.109375 50.5625 29.59375 
Q 53.5625 26.078125 56.59375 19.921875 
L 66.609375 0 
L 56 0 
L 46.6875 18.703125 
Q 43.0625 26.03125 39.671875 28.421875 
Q 36.28125 30.8125 30.421875 30.8125 
L 19.671875 30.8125 
L 19.671875 0 
L 9.8125 0 
L 9.8125 72.90625 
L 32.078125 72.90625 
Q 44.578125 72.90625 50.734375 67.671875 
Q 56.890625 62.453125 56.890625 51.90625 
Q 56.890625 45.015625 53.6875 40.46875 
Q 50.484375 35.9375 44.390625 34.1875 
z
M 19.671875 64.796875 
L 19.671875 38.921875 
L 32.078125 38.921875 
Q 39.203125 38.921875 42.84375 42.21875 
Q 46.484375 45.515625 46.484375 51.90625 
Q 46.484375 58.296875 42.84375 61.546875 
Q 39.203125 64.796875 32.078125 64.796875 
z
" id="DejaVuSans-52"/>
     <path d="M 14.796875 27.296875 
Q 14.796875 17.390625 18.875 11.75 
Q 22.953125 6.109375 30.078125 6.109375 
Q 37.203125 6.109375 41.296875 11.75 
Q 45.40625 17.390625 45.40625 27.296875 
Q 45.40625 37.203125 41.296875 42.84375 
Q 37.203125 48.484375 30.078125 48.484375 
Q 22.953125 48.484375 18.875 42.84375 
Q 14.796875 37.203125 14.796875 27.296875 
z
M 45.40625 8.203125 
Q 42.578125 3.328125 38.25 0.953125 
Q 33.9375 -1.421875 27.875 -1.421875 
Q 17.96875 -1.421875 11.734375 6.484375 
Q 5.515625 14.40625 5.515625 27.296875 
Q 5.515625 40.1875 11.734375 48.09375 
Q 17.96875 56 27.875 56 
Q 33.9375 56 38.25 53.625 
Q 42.578125 51.265625 45.40625 46.390625 
L 45.40625 54.6875 
L 54.390625 54.6875 
L 54.390625 -20.796875 
L 45.40625 -20.796875 
z
" id="DejaVuSans-71"/>
     <path d="M 11.71875 12.40625 
L 22.015625 12.40625 
L 22.015625 0 
L 11.71875 0 
z
M 11.71875 51.703125 
L 22.015625 51.703125 
L 22.015625 39.3125 
L 11.71875 39.3125 
z
" id="DejaVuSans-3a"/>
     <path d="M 10.6875 12.40625 
L 21 12.40625 
L 21 0 
L 10.6875 0 
z
" id="DejaVuSans-2e"/>
     <path d="M 10.984375 1.515625 
L 10.984375 10.5 
Q 14.703125 8.734375 18.5 7.8125 
Q 22.3125 6.890625 25.984375 6.890625 
Q 35.75 6.890625 40.890625 13.453125 
Q 46.046875 20.015625 46.78125 33.40625 
Q 43.953125 29.203125 39.59375 26.953125 
Q 35.25 24.703125 29.984375 24.703125 
Q 19.046875 24.703125 12.671875 31.3125 
Q 6.296875 37.9375 6.296875 49.421875 
Q 6.296875 60.640625 12.9375 67.421875 
Q 19.578125 74.21875 30.609375 74.21875 
Q 43.265625 74.21875 49.921875 64.515625 
Q 56.59375 54.828125 56.59375 36.375 
Q 56.59375 19.140625 48.40625 8.859375 
Q 40.234375 -1.421875 26.421875 -1.421875 
Q 22.703125 -1.421875 18.890625 -0.6875 
Q 15.09375 0.046875 10.984375 1.515625 
z
M 30.609375 32.421875 
Q 37.25 32.421875 41.125 36.953125 
Q 45.015625 41.5 45.015625 49.421875 
Q 45.015625 57.28125 41.125 61.84375 
Q 37.25 66.40625 30.609375 66.40625 
Q 23.96875 66.40625 20.09375 61.84375 
Q 16.21875 57.28125 16.21875 49.421875 
Q 16.21875 41.5 20.09375 36.953125 
Q 23.96875 32.421875 30.609375 32.421875 
z
" id="DejaVuSans-39"/>
    </defs>
    <g style="fill:#262626;" transform="translate(259.962 43.2888)scale(0.192 -0.192)">
     <use xlink:href="#DejaVuSans-52"/>
     <use x="69.419922" xlink:href="#DejaVuSans-2d"/>
     <use x="105.503906" xlink:href="#DejaVuSans-73"/>
     <use x="157.603516" xlink:href="#DejaVuSans-71"/>
     <use x="221.080078" xlink:href="#DejaVuSans-75"/>
     <use x="284.458984" xlink:href="#DejaVuSans-61"/>
     <use x="345.738281" xlink:href="#DejaVuSans-72"/>
     <use x="386.820312" xlink:href="#DejaVuSans-65"/>
     <use x="448.34375" xlink:href="#DejaVuSans-64"/>
     <use x="511.820312" xlink:href="#DejaVuSans-3a"/>
     <use x="545.511719" xlink:href="#DejaVuSans-20"/>
     <use x="577.298828" xlink:href="#DejaVuSans-30"/>
     <use x="640.921875" xlink:href="#DejaVuSans-2e"/>
     <use x="672.708984" xlink:href="#DejaVuSans-31"/>
     <use x="736.332031" xlink:href="#DejaVuSans-37"/>
     <use x="799.955078" xlink:href="#DejaVuSans-37"/>
     <use x="863.578125" xlink:href="#DejaVuSans-39"/>
    </g>
    <!-- Pearson: 0.4218, p-value: 0.0 -->
    <defs>
     <path d="M 2.984375 54.6875 
L 12.5 54.6875 
L 29.59375 8.796875 
L 46.6875 54.6875 
L 56.203125 54.6875 
L 35.6875 0 
L 23.484375 0 
z
" id="DejaVuSans-76"/>
    </defs>
    <g style="fill:#262626;" transform="translate(207.186 64.7886)scale(0.192 -0.192)">
     <use xlink:href="#DejaVuSans-50"/>
     <use x="60.255859" xlink:href="#DejaVuSans-65"/>
     <use x="121.779297" xlink:href="#DejaVuSans-61"/>
     <use x="183.058594" xlink:href="#DejaVuSans-72"/>
     <use x="224.171875" xlink:href="#DejaVuSans-73"/>
     <use x="276.271484" xlink:href="#DejaVuSans-6f"/>
     <use x="337.453125" xlink:href="#DejaVuSans-6e"/>
     <use x="400.832031" xlink:href="#DejaVuSans-3a"/>
     <use x="434.523438" xlink:href="#DejaVuSans-20"/>
     <use x="466.310547" xlink:href="#DejaVuSans-30"/>
     <use x="529.933594" xlink:href="#DejaVuSans-2e"/>
     <use x="561.720703" xlink:href="#DejaVuSans-34"/>
     <use x="625.34375" xlink:href="#DejaVuSans-32"/>
     <use x="688.966797" xlink:href="#DejaVuSans-31"/>
     <use x="752.589844" xlink:href="#DejaVuSans-38"/>
     <use x="816.212891" xlink:href="#DejaVuSans-2c"/>
     <use x="848" xlink:href="#DejaVuSans-20"/>
     <use x="879.787109" xlink:href="#DejaVuSans-70"/>
     <use x="943.263672" xlink:href="#DejaVuSans-2d"/>
     <use x="979.316406" xlink:href="#DejaVuSans-76"/>
     <use x="1038.496094" xlink:href="#DejaVuSans-61"/>
     <use x="1099.775391" xlink:href="#DejaVuSans-6c"/>
     <use x="1127.558594" xlink:href="#DejaVuSans-75"/>
     <use x="1190.9375" xlink:href="#DejaVuSans-65"/>
     <use x="1252.460938" xlink:href="#DejaVuSans-3a"/>
     <use x="1286.152344" xlink:href="#DejaVuSans-20"/>
     <use x="1317.939453" xlink:href="#DejaVuSans-30"/>
     <use x="1381.5625" xlink:href="#DejaVuSans-2e"/>
     <use x="1413.349609" xlink:href="#DejaVuSans-30"/>
    </g>
    <!-- Spearman: 0.4384, p-value: 0.0 -->
    <defs>
     <path d="M 52 44.1875 
Q 55.375 50.25 60.0625 53.125 
Q 64.75 56 71.09375 56 
Q 79.640625 56 84.28125 50.015625 
Q 88.921875 44.046875 88.921875 33.015625 
L 88.921875 0 
L 79.890625 0 
L 79.890625 32.71875 
Q 79.890625 40.578125 77.09375 44.375 
Q 74.3125 48.1875 68.609375 48.1875 
Q 61.625 48.1875 57.5625 43.546875 
Q 53.515625 38.921875 53.515625 30.90625 
L 53.515625 0 
L 44.484375 0 
L 44.484375 32.71875 
Q 44.484375 40.625 41.703125 44.40625 
Q 38.921875 48.1875 33.109375 48.1875 
Q 26.21875 48.1875 22.15625 43.53125 
Q 18.109375 38.875 18.109375 30.90625 
L 18.109375 0 
L 9.078125 0 
L 9.078125 54.6875 
L 18.109375 54.6875 
L 18.109375 46.1875 
Q 21.1875 51.21875 25.484375 53.609375 
Q 29.78125 56 35.6875 56 
Q 41.65625 56 45.828125 52.96875 
Q 50 49.953125 52 44.1875 
z
" id="DejaVuSans-6d"/>
     <path d="M 40.578125 39.3125 
Q 47.65625 37.796875 51.625 33 
Q 55.609375 28.21875 55.609375 21.1875 
Q 55.609375 10.40625 48.1875 4.484375 
Q 40.765625 -1.421875 27.09375 -1.421875 
Q 22.515625 -1.421875 17.65625 -0.515625 
Q 12.796875 0.390625 7.625 2.203125 
L 7.625 11.71875 
Q 11.71875 9.328125 16.59375 8.109375 
Q 21.484375 6.890625 26.8125 6.890625 
Q 36.078125 6.890625 40.9375 10.546875 
Q 45.796875 14.203125 45.796875 21.1875 
Q 45.796875 27.640625 41.28125 31.265625 
Q 36.765625 34.90625 28.71875 34.90625 
L 20.21875 34.90625 
L 20.21875 43.015625 
L 29.109375 43.015625 
Q 36.375 43.015625 40.234375 45.921875 
Q 44.09375 48.828125 44.09375 54.296875 
Q 44.09375 59.90625 40.109375 62.90625 
Q 36.140625 65.921875 28.71875 65.921875 
Q 24.65625 65.921875 20.015625 65.03125 
Q 15.375 64.15625 9.8125 62.3125 
L 9.8125 71.09375 
Q 15.4375 72.65625 20.34375 73.4375 
Q 25.25 74.21875 29.59375 74.21875 
Q 40.828125 74.21875 47.359375 69.109375 
Q 53.90625 64.015625 53.90625 55.328125 
Q 53.90625 49.265625 50.4375 45.09375 
Q 46.96875 40.921875 40.578125 39.3125 
z
" id="DejaVuSans-33"/>
    </defs>
    <g style="fill:#262626;" transform="translate(196.4235 86.2884)scale(0.192 -0.192)">
     <use xlink:href="#DejaVuSans-53"/>
     <use x="63.476562" xlink:href="#DejaVuSans-70"/>
     <use x="126.953125" xlink:href="#DejaVuSans-65"/>
     <use x="188.476562" xlink:href="#DejaVuSans-61"/>
     <use x="249.755859" xlink:href="#DejaVuSans-72"/>
     <use x="290.853516" xlink:href="#DejaVuSans-6d"/>
     <use x="388.265625" xlink:href="#DejaVuSans-61"/>
     <use x="449.544922" xlink:href="#DejaVuSans-6e"/>
     <use x="512.923828" xlink:href="#DejaVuSans-3a"/>
     <use x="546.615234" xlink:href="#DejaVuSans-20"/>
     <use x="578.402344" xlink:href="#DejaVuSans-30"/>
     <use x="642.025391" xlink:href="#DejaVuSans-2e"/>
     <use x="673.8125" xlink:href="#DejaVuSans-34"/>
     <use x="737.435547" xlink:href="#DejaVuSans-33"/>
     <use x="801.058594" xlink:href="#DejaVuSans-38"/>
     <use x="864.681641" xlink:href="#DejaVuSans-34"/>
     <use x="928.304688" xlink:href="#DejaVuSans-2c"/>
     <use x="960.091797" xlink:href="#DejaVuSans-20"/>
     <use x="991.878906" xlink:href="#DejaVuSans-70"/>
     <use x="1055.355469" xlink:href="#DejaVuSans-2d"/>
     <use x="1091.408203" xlink:href="#DejaVuSans-76"/>
     <use x="1150.587891" xlink:href="#DejaVuSans-61"/>
     <use x="1211.867188" xlink:href="#DejaVuSans-6c"/>
     <use x="1239.650391" xlink:href="#DejaVuSans-75"/>
     <use x="1303.029297" xlink:href="#DejaVuSans-65"/>
     <use x="1364.552734" xlink:href="#DejaVuSans-3a"/>
     <use x="1398.244141" xlink:href="#DejaVuSans-20"/>
     <use x="1430.03125" xlink:href="#DejaVuSans-30"/>
     <use x="1493.654297" xlink:href="#DejaVuSans-2e"/>
     <use x="1525.441406" xlink:href="#DejaVuSans-30"/>
    </g>
   </g>
  </g>
 </g>
 <defs>
  <clipPath id="p9e5ad860b5">
   <rect height="543.6" width="558" x="69.9735" y="92.2884"/>
  </clipPath>
 </defs>
</svg>
