<?xml version="1.0" encoding="utf-8" standalone="no"?>
<!DOCTYPE svg PUBLIC "-//W3C//DTD SVG 1.1//EN"
  "http://www.w3.org/Graphics/SVG/1.1/DTD/svg11.dtd">
<!-- Created with matplotlib (http://matplotlib.org/) -->
<svg height="690pt" version="1.1" viewBox="0 0 635 690" width="635pt" xmlns="http://www.w3.org/2000/svg" xmlns:xlink="http://www.w3.org/1999/xlink">
 <defs>
  <style type="text/css">
*{stroke-linecap:butt;stroke-linejoin:round;}
  </style>
 </defs>
 <g id="figure_1">
  <g id="patch_1">
   <path d="M 0 690.8069 
L 635.1735 690.8069 
L 635.1735 0 
L 0 0 
z
" style="fill:#ffffff;"/>
  </g>
  <g id="axes_1">
   <g id="patch_2">
    <path d="M 69.9735 635.8884 
L 627.9735 635.8884 
L 627.9735 92.2884 
L 69.9735 92.2884 
z
" style="fill:#eaeaf2;"/>
   </g>
   <g id="matplotlib.axis_1">
    <g id="xtick_1">
     <g id="line2d_1">
      <path clip-path="url(#p6a1c0ce0ab)" d="M 71.14038 635.8884 
L 71.14038 92.2884 
" style="fill:none;stroke:#ffffff;stroke-linecap:round;stroke-width:1.6;"/>
     </g>
     <g id="line2d_2"/>
     <g id="text_1">
      <!-- 0 -->
      <defs>
       <path d="M 31.78125 66.40625 
Q 24.171875 66.40625 20.328125 58.90625 
Q 16.5 51.421875 16.5 36.375 
Q 16.5 21.390625 20.328125 13.890625 
Q 24.171875 6.390625 31.78125 6.390625 
Q 39.453125 6.390625 43.28125 13.890625 
Q 47.125 21.390625 47.125 36.375 
Q 47.125 51.421875 43.28125 58.90625 
Q 39.453125 66.40625 31.78125 66.40625 
z
M 31.78125 74.21875 
Q 44.046875 74.21875 50.515625 64.515625 
Q 56.984375 54.828125 56.984375 36.375 
Q 56.984375 17.96875 50.515625 8.265625 
Q 44.046875 -1.421875 31.78125 -1.421875 
Q 19.53125 -1.421875 13.0625 8.265625 
Q 6.59375 17.96875 6.59375 36.375 
Q 6.59375 54.828125 13.0625 64.515625 
Q 19.53125 74.21875 31.78125 74.21875 
z
" id="DejaVuSans-30"/>
      </defs>
      <g style="fill:#262626;" transform="translate(66.05038 659.2459)scale(0.16 -0.16)">
       <use xlink:href="#DejaVuSans-30"/>
      </g>
     </g>
    </g>
    <g id="xtick_2">
     <g id="line2d_3">
      <path clip-path="url(#p6a1c0ce0ab)" d="M 136.636142 635.8884 
L 136.636142 92.2884 
" style="fill:none;stroke:#ffffff;stroke-linecap:round;stroke-width:1.6;"/>
     </g>
     <g id="line2d_4"/>
     <g id="text_2">
      <!-- 25 -->
      <defs>
       <path d="M 19.1875 8.296875 
L 53.609375 8.296875 
L 53.609375 0 
L 7.328125 0 
L 7.328125 8.296875 
Q 12.9375 14.109375 22.625 23.890625 
Q 32.328125 33.6875 34.8125 36.53125 
Q 39.546875 41.84375 41.421875 45.53125 
Q 43.3125 49.21875 43.3125 52.78125 
Q 43.3125 58.59375 39.234375 62.25 
Q 35.15625 65.921875 28.609375 65.921875 
Q 23.96875 65.921875 18.8125 64.3125 
Q 13.671875 62.703125 7.8125 59.421875 
L 7.8125 69.390625 
Q 13.765625 71.78125 18.9375 73 
Q 24.125 74.21875 28.421875 74.21875 
Q 39.75 74.21875 46.484375 68.546875 
Q 53.21875 62.890625 53.21875 53.421875 
Q 53.21875 48.921875 51.53125 44.890625 
Q 49.859375 40.875 45.40625 35.40625 
Q 44.1875 33.984375 37.640625 27.21875 
Q 31.109375 20.453125 19.1875 8.296875 
z
" id="DejaVuSans-32"/>
       <path d="M 10.796875 72.90625 
L 49.515625 72.90625 
L 49.515625 64.59375 
L 19.828125 64.59375 
L 19.828125 46.734375 
Q 21.96875 47.46875 24.109375 47.828125 
Q 26.265625 48.1875 28.421875 48.1875 
Q 40.625 48.1875 47.75 41.5 
Q 54.890625 34.8125 54.890625 23.390625 
Q 54.890625 11.625 47.5625 5.09375 
Q 40.234375 -1.421875 26.90625 -1.421875 
Q 22.3125 -1.421875 17.546875 -0.640625 
Q 12.796875 0.140625 7.71875 1.703125 
L 7.71875 11.625 
Q 12.109375 9.234375 16.796875 8.0625 
Q 21.484375 6.890625 26.703125 6.890625 
Q 35.15625 6.890625 40.078125 11.328125 
Q 45.015625 15.765625 45.015625 23.390625 
Q 45.015625 31 40.078125 35.4375 
Q 35.15625 39.890625 26.703125 39.890625 
Q 22.75 39.890625 18.8125 39.015625 
Q 14.890625 38.140625 10.796875 36.28125 
z
" id="DejaVuSans-35"/>
      </defs>
      <g style="fill:#262626;" transform="translate(126.456142 659.2459)scale(0.16 -0.16)">
       <use xlink:href="#DejaVuSans-32"/>
       <use x="63.623047" xlink:href="#DejaVuSans-35"/>
      </g>
     </g>
    </g>
    <g id="xtick_3">
     <g id="line2d_5">
      <path clip-path="url(#p6a1c0ce0ab)" d="M 202.131904 635.8884 
L 202.131904 92.2884 
" style="fill:none;stroke:#ffffff;stroke-linecap:round;stroke-width:1.6;"/>
     </g>
     <g id="line2d_6"/>
     <g id="text_3">
      <!-- 50 -->
      <g style="fill:#262626;" transform="translate(191.951904 659.2459)scale(0.16 -0.16)">
       <use xlink:href="#DejaVuSans-35"/>
       <use x="63.623047" xlink:href="#DejaVuSans-30"/>
      </g>
     </g>
    </g>
    <g id="xtick_4">
     <g id="line2d_7">
      <path clip-path="url(#p6a1c0ce0ab)" d="M 267.627665 635.8884 
L 267.627665 92.2884 
" style="fill:none;stroke:#ffffff;stroke-linecap:round;stroke-width:1.6;"/>
     </g>
     <g id="line2d_8"/>
     <g id="text_4">
      <!-- 75 -->
      <defs>
       <path d="M 8.203125 72.90625 
L 55.078125 72.90625 
L 55.078125 68.703125 
L 28.609375 0 
L 18.3125 0 
L 43.21875 64.59375 
L 8.203125 64.59375 
z
" id="DejaVuSans-37"/>
      </defs>
      <g style="fill:#262626;" transform="translate(257.447665 659.2459)scale(0.16 -0.16)">
       <use xlink:href="#DejaVuSans-37"/>
       <use x="63.623047" xlink:href="#DejaVuSans-35"/>
      </g>
     </g>
    </g>
    <g id="xtick_5">
     <g id="line2d_9">
      <path clip-path="url(#p6a1c0ce0ab)" d="M 333.123427 635.8884 
L 333.123427 92.2884 
" style="fill:none;stroke:#ffffff;stroke-linecap:round;stroke-width:1.6;"/>
     </g>
     <g id="line2d_10"/>
     <g id="text_5">
      <!-- 100 -->
      <defs>
       <path d="M 12.40625 8.296875 
L 28.515625 8.296875 
L 28.515625 63.921875 
L 10.984375 60.40625 
L 10.984375 69.390625 
L 28.421875 72.90625 
L 38.28125 72.90625 
L 38.28125 8.296875 
L 54.390625 8.296875 
L 54.390625 0 
L 12.40625 0 
z
" id="DejaVuSans-31"/>
      </defs>
      <g style="fill:#262626;" transform="translate(317.853427 659.2459)scale(0.16 -0.16)">
       <use xlink:href="#DejaVuSans-31"/>
       <use x="63.623047" xlink:href="#DejaVuSans-30"/>
       <use x="127.246094" xlink:href="#DejaVuSans-30"/>
      </g>
     </g>
    </g>
    <g id="xtick_6">
     <g id="line2d_11">
      <path clip-path="url(#p6a1c0ce0ab)" d="M 398.619189 635.8884 
L 398.619189 92.2884 
" style="fill:none;stroke:#ffffff;stroke-linecap:round;stroke-width:1.6;"/>
     </g>
     <g id="line2d_12"/>
     <g id="text_6">
      <!-- 125 -->
      <g style="fill:#262626;" transform="translate(383.349189 659.2459)scale(0.16 -0.16)">
       <use xlink:href="#DejaVuSans-31"/>
       <use x="63.623047" xlink:href="#DejaVuSans-32"/>
       <use x="127.246094" xlink:href="#DejaVuSans-35"/>
      </g>
     </g>
    </g>
    <g id="xtick_7">
     <g id="line2d_13">
      <path clip-path="url(#p6a1c0ce0ab)" d="M 464.11495 635.8884 
L 464.11495 92.2884 
" style="fill:none;stroke:#ffffff;stroke-linecap:round;stroke-width:1.6;"/>
     </g>
     <g id="line2d_14"/>
     <g id="text_7">
      <!-- 150 -->
      <g style="fill:#262626;" transform="translate(448.84495 659.2459)scale(0.16 -0.16)">
       <use xlink:href="#DejaVuSans-31"/>
       <use x="63.623047" xlink:href="#DejaVuSans-35"/>
       <use x="127.246094" xlink:href="#DejaVuSans-30"/>
      </g>
     </g>
    </g>
    <g id="xtick_8">
     <g id="line2d_15">
      <path clip-path="url(#p6a1c0ce0ab)" d="M 529.610712 635.8884 
L 529.610712 92.2884 
" style="fill:none;stroke:#ffffff;stroke-linecap:round;stroke-width:1.6;"/>
     </g>
     <g id="line2d_16"/>
     <g id="text_8">
      <!-- 175 -->
      <g style="fill:#262626;" transform="translate(514.340712 659.2459)scale(0.16 -0.16)">
       <use xlink:href="#DejaVuSans-31"/>
       <use x="63.623047" xlink:href="#DejaVuSans-37"/>
       <use x="127.246094" xlink:href="#DejaVuSans-35"/>
      </g>
     </g>
    </g>
    <g id="xtick_9">
     <g id="line2d_17">
      <path clip-path="url(#p6a1c0ce0ab)" d="M 595.106473 635.8884 
L 595.106473 92.2884 
" style="fill:none;stroke:#ffffff;stroke-linecap:round;stroke-width:1.6;"/>
     </g>
     <g id="line2d_18"/>
     <g id="text_9">
      <!-- 200 -->
      <g style="fill:#262626;" transform="translate(579.836473 659.2459)scale(0.16 -0.16)">
       <use xlink:href="#DejaVuSans-32"/>
       <use x="63.623047" xlink:href="#DejaVuSans-30"/>
       <use x="127.246094" xlink:href="#DejaVuSans-30"/>
      </g>
     </g>
    </g>
    <g id="text_10">
     <!-- Dengue Cases per 10,000 People -->
     <defs>
      <path d="M 19.671875 64.796875 
L 19.671875 8.109375 
L 31.59375 8.109375 
Q 46.6875 8.109375 53.6875 14.9375 
Q 60.6875 21.78125 60.6875 36.53125 
Q 60.6875 51.171875 53.6875 57.984375 
Q 46.6875 64.796875 31.59375 64.796875 
z
M 9.8125 72.90625 
L 30.078125 72.90625 
Q 51.265625 72.90625 61.171875 64.09375 
Q 71.09375 55.28125 71.09375 36.53125 
Q 71.09375 17.671875 61.125 8.828125 
Q 51.171875 0 30.078125 0 
L 9.8125 0 
z
" id="DejaVuSans-44"/>
      <path d="M 56.203125 29.59375 
L 56.203125 25.203125 
L 14.890625 25.203125 
Q 15.484375 15.921875 20.484375 11.0625 
Q 25.484375 6.203125 34.421875 6.203125 
Q 39.59375 6.203125 44.453125 7.46875 
Q 49.3125 8.734375 54.109375 11.28125 
L 54.109375 2.78125 
Q 49.265625 0.734375 44.1875 -0.34375 
Q 39.109375 -1.421875 33.890625 -1.421875 
Q 20.796875 -1.421875 13.15625 6.1875 
Q 5.515625 13.8125 5.515625 26.8125 
Q 5.515625 40.234375 12.765625 48.109375 
Q 20.015625 56 32.328125 56 
Q 43.359375 56 49.78125 48.890625 
Q 56.203125 41.796875 56.203125 29.59375 
z
M 47.21875 32.234375 
Q 47.125 39.59375 43.09375 43.984375 
Q 39.0625 48.390625 32.421875 48.390625 
Q 24.90625 48.390625 20.390625 44.140625 
Q 15.875 39.890625 15.1875 32.171875 
z
" id="DejaVuSans-65"/>
      <path d="M 54.890625 33.015625 
L 54.890625 0 
L 45.90625 0 
L 45.90625 32.71875 
Q 45.90625 40.484375 42.875 44.328125 
Q 39.84375 48.1875 33.796875 48.1875 
Q 26.515625 48.1875 22.3125 43.546875 
Q 18.109375 38.921875 18.109375 30.90625 
L 18.109375 0 
L 9.078125 0 
L 9.078125 54.6875 
L 18.109375 54.6875 
L 18.109375 46.1875 
Q 21.34375 51.125 25.703125 53.5625 
Q 30.078125 56 35.796875 56 
Q 45.21875 56 50.046875 50.171875 
Q 54.890625 44.34375 54.890625 33.015625 
z
" id="DejaVuSans-6e"/>
      <path d="M 45.40625 27.984375 
Q 45.40625 37.75 41.375 43.109375 
Q 37.359375 48.484375 30.078125 48.484375 
Q 22.859375 48.484375 18.828125 43.109375 
Q 14.796875 37.75 14.796875 27.984375 
Q 14.796875 18.265625 18.828125 12.890625 
Q 22.859375 7.515625 30.078125 7.515625 
Q 37.359375 7.515625 41.375 12.890625 
Q 45.40625 18.265625 45.40625 27.984375 
z
M 54.390625 6.78125 
Q 54.390625 -7.171875 48.1875 -13.984375 
Q 42 -20.796875 29.203125 -20.796875 
Q 24.46875 -20.796875 20.265625 -20.09375 
Q 16.0625 -19.390625 12.109375 -17.921875 
L 12.109375 -9.1875 
Q 16.0625 -11.328125 19.921875 -12.34375 
Q 23.78125 -13.375 27.78125 -13.375 
Q 36.625 -13.375 41.015625 -8.765625 
Q 45.40625 -4.15625 45.40625 5.171875 
L 45.40625 9.625 
Q 42.625 4.78125 38.28125 2.390625 
Q 33.9375 0 27.875 0 
Q 17.828125 0 11.671875 7.65625 
Q 5.515625 15.328125 5.515625 27.984375 
Q 5.515625 40.671875 11.671875 48.328125 
Q 17.828125 56 27.875 56 
Q 33.9375 56 38.28125 53.609375 
Q 42.625 51.21875 45.40625 46.390625 
L 45.40625 54.6875 
L 54.390625 54.6875 
z
" id="DejaVuSans-67"/>
      <path d="M 8.5 21.578125 
L 8.5 54.6875 
L 17.484375 54.6875 
L 17.484375 21.921875 
Q 17.484375 14.15625 20.5 10.265625 
Q 23.53125 6.390625 29.59375 6.390625 
Q 36.859375 6.390625 41.078125 11.03125 
Q 45.3125 15.671875 45.3125 23.6875 
L 45.3125 54.6875 
L 54.296875 54.6875 
L 54.296875 0 
L 45.3125 0 
L 45.3125 8.40625 
Q 42.046875 3.421875 37.71875 1 
Q 33.40625 -1.421875 27.6875 -1.421875 
Q 18.265625 -1.421875 13.375 4.4375 
Q 8.5 10.296875 8.5 21.578125 
z
M 31.109375 56 
z
" id="DejaVuSans-75"/>
      <path id="DejaVuSans-20"/>
      <path d="M 64.40625 67.28125 
L 64.40625 56.890625 
Q 59.421875 61.53125 53.78125 63.8125 
Q 48.140625 66.109375 41.796875 66.109375 
Q 29.296875 66.109375 22.65625 58.46875 
Q 16.015625 50.828125 16.015625 36.375 
Q 16.015625 21.96875 22.65625 14.328125 
Q 29.296875 6.6875 41.796875 6.6875 
Q 48.140625 6.6875 53.78125 8.984375 
Q 59.421875 11.28125 64.40625 15.921875 
L 64.40625 5.609375 
Q 59.234375 2.09375 53.4375 0.328125 
Q 47.65625 -1.421875 41.21875 -1.421875 
Q 24.65625 -1.421875 15.125 8.703125 
Q 5.609375 18.84375 5.609375 36.375 
Q 5.609375 53.953125 15.125 64.078125 
Q 24.65625 74.21875 41.21875 74.21875 
Q 47.75 74.21875 53.53125 72.484375 
Q 59.328125 70.75 64.40625 67.28125 
z
" id="DejaVuSans-43"/>
      <path d="M 34.28125 27.484375 
Q 23.390625 27.484375 19.1875 25 
Q 14.984375 22.515625 14.984375 16.5 
Q 14.984375 11.71875 18.140625 8.90625 
Q 21.296875 6.109375 26.703125 6.109375 
Q 34.1875 6.109375 38.703125 11.40625 
Q 43.21875 16.703125 43.21875 25.484375 
L 43.21875 27.484375 
z
M 52.203125 31.203125 
L 52.203125 0 
L 43.21875 0 
L 43.21875 8.296875 
Q 40.140625 3.328125 35.546875 0.953125 
Q 30.953125 -1.421875 24.3125 -1.421875 
Q 15.921875 -1.421875 10.953125 3.296875 
Q 6 8.015625 6 15.921875 
Q 6 25.140625 12.171875 29.828125 
Q 18.359375 34.515625 30.609375 34.515625 
L 43.21875 34.515625 
L 43.21875 35.40625 
Q 43.21875 41.609375 39.140625 45 
Q 35.0625 48.390625 27.6875 48.390625 
Q 23 48.390625 18.546875 47.265625 
Q 14.109375 46.140625 10.015625 43.890625 
L 10.015625 52.203125 
Q 14.9375 54.109375 19.578125 55.046875 
Q 24.21875 56 28.609375 56 
Q 40.484375 56 46.34375 49.84375 
Q 52.203125 43.703125 52.203125 31.203125 
z
" id="DejaVuSans-61"/>
      <path d="M 44.28125 53.078125 
L 44.28125 44.578125 
Q 40.484375 46.53125 36.375 47.5 
Q 32.28125 48.484375 27.875 48.484375 
Q 21.1875 48.484375 17.84375 46.4375 
Q 14.5 44.390625 14.5 40.28125 
Q 14.5 37.15625 16.890625 35.375 
Q 19.28125 33.59375 26.515625 31.984375 
L 29.59375 31.296875 
Q 39.15625 29.25 43.1875 25.515625 
Q 47.21875 21.78125 47.21875 15.09375 
Q 47.21875 7.46875 41.1875 3.015625 
Q 35.15625 -1.421875 24.609375 -1.421875 
Q 20.21875 -1.421875 15.453125 -0.5625 
Q 10.6875 0.296875 5.421875 2 
L 5.421875 11.28125 
Q 10.40625 8.6875 15.234375 7.390625 
Q 20.0625 6.109375 24.8125 6.109375 
Q 31.15625 6.109375 34.5625 8.28125 
Q 37.984375 10.453125 37.984375 14.40625 
Q 37.984375 18.0625 35.515625 20.015625 
Q 33.0625 21.96875 24.703125 23.78125 
L 21.578125 24.515625 
Q 13.234375 26.265625 9.515625 29.90625 
Q 5.8125 33.546875 5.8125 39.890625 
Q 5.8125 47.609375 11.28125 51.796875 
Q 16.75 56 26.8125 56 
Q 31.78125 56 36.171875 55.265625 
Q 40.578125 54.546875 44.28125 53.078125 
z
" id="DejaVuSans-73"/>
      <path d="M 18.109375 8.203125 
L 18.109375 -20.796875 
L 9.078125 -20.796875 
L 9.078125 54.6875 
L 18.109375 54.6875 
L 18.109375 46.390625 
Q 20.953125 51.265625 25.265625 53.625 
Q 29.59375 56 35.59375 56 
Q 45.5625 56 51.78125 48.09375 
Q 58.015625 40.1875 58.015625 27.296875 
Q 58.015625 14.40625 51.78125 6.484375 
Q 45.5625 -1.421875 35.59375 -1.421875 
Q 29.59375 -1.421875 25.265625 0.953125 
Q 20.953125 3.328125 18.109375 8.203125 
z
M 48.6875 27.296875 
Q 48.6875 37.203125 44.609375 42.84375 
Q 40.53125 48.484375 33.40625 48.484375 
Q 26.265625 48.484375 22.1875 42.84375 
Q 18.109375 37.203125 18.109375 27.296875 
Q 18.109375 17.390625 22.1875 11.75 
Q 26.265625 6.109375 33.40625 6.109375 
Q 40.53125 6.109375 44.609375 11.75 
Q 48.6875 17.390625 48.6875 27.296875 
z
" id="DejaVuSans-70"/>
      <path d="M 41.109375 46.296875 
Q 39.59375 47.171875 37.8125 47.578125 
Q 36.03125 48 33.890625 48 
Q 26.265625 48 22.1875 43.046875 
Q 18.109375 38.09375 18.109375 28.8125 
L 18.109375 0 
L 9.078125 0 
L 9.078125 54.6875 
L 18.109375 54.6875 
L 18.109375 46.1875 
Q 20.953125 51.171875 25.484375 53.578125 
Q 30.03125 56 36.53125 56 
Q 37.453125 56 38.578125 55.875 
Q 39.703125 55.765625 41.0625 55.515625 
z
" id="DejaVuSans-72"/>
      <path d="M 11.71875 12.40625 
L 22.015625 12.40625 
L 22.015625 4 
L 14.015625 -11.625 
L 7.71875 -11.625 
L 11.71875 4 
z
" id="DejaVuSans-2c"/>
      <path d="M 19.671875 64.796875 
L 19.671875 37.40625 
L 32.078125 37.40625 
Q 38.96875 37.40625 42.71875 40.96875 
Q 46.484375 44.53125 46.484375 51.125 
Q 46.484375 57.671875 42.71875 61.234375 
Q 38.96875 64.796875 32.078125 64.796875 
z
M 9.8125 72.90625 
L 32.078125 72.90625 
Q 44.34375 72.90625 50.609375 67.359375 
Q 56.890625 61.8125 56.890625 51.125 
Q 56.890625 40.328125 50.609375 34.8125 
Q 44.34375 29.296875 32.078125 29.296875 
L 19.671875 29.296875 
L 19.671875 0 
L 9.8125 0 
z
" id="DejaVuSans-50"/>
      <path d="M 30.609375 48.390625 
Q 23.390625 48.390625 19.1875 42.75 
Q 14.984375 37.109375 14.984375 27.296875 
Q 14.984375 17.484375 19.15625 11.84375 
Q 23.34375 6.203125 30.609375 6.203125 
Q 37.796875 6.203125 41.984375 11.859375 
Q 46.1875 17.53125 46.1875 27.296875 
Q 46.1875 37.015625 41.984375 42.703125 
Q 37.796875 48.390625 30.609375 48.390625 
z
M 30.609375 56 
Q 42.328125 56 49.015625 48.375 
Q 55.71875 40.765625 55.71875 27.296875 
Q 55.71875 13.875 49.015625 6.21875 
Q 42.328125 -1.421875 30.609375 -1.421875 
Q 18.84375 -1.421875 12.171875 6.21875 
Q 5.515625 13.875 5.515625 27.296875 
Q 5.515625 40.765625 12.171875 48.375 
Q 18.84375 56 30.609375 56 
z
" id="DejaVuSans-6f"/>
      <path d="M 9.421875 75.984375 
L 18.40625 75.984375 
L 18.40625 0 
L 9.421875 0 
z
" id="DejaVuSans-6c"/>
     </defs>
     <g style="fill:#262626;" transform="translate(202.361375 679.94665)scale(0.176 -0.176)">
      <use xlink:href="#DejaVuSans-44"/>
      <use x="77.001953" xlink:href="#DejaVuSans-65"/>
      <use x="138.525391" xlink:href="#DejaVuSans-6e"/>
      <use x="201.904297" xlink:href="#DejaVuSans-67"/>
      <use x="265.380859" xlink:href="#DejaVuSans-75"/>
      <use x="328.759766" xlink:href="#DejaVuSans-65"/>
      <use x="390.283203" xlink:href="#DejaVuSans-20"/>
      <use x="422.070312" xlink:href="#DejaVuSans-43"/>
      <use x="491.894531" xlink:href="#DejaVuSans-61"/>
      <use x="553.173828" xlink:href="#DejaVuSans-73"/>
      <use x="605.273438" xlink:href="#DejaVuSans-65"/>
      <use x="666.796875" xlink:href="#DejaVuSans-73"/>
      <use x="718.896484" xlink:href="#DejaVuSans-20"/>
      <use x="750.683594" xlink:href="#DejaVuSans-70"/>
      <use x="814.160156" xlink:href="#DejaVuSans-65"/>
      <use x="875.683594" xlink:href="#DejaVuSans-72"/>
      <use x="916.796875" xlink:href="#DejaVuSans-20"/>
      <use x="948.583984" xlink:href="#DejaVuSans-31"/>
      <use x="1012.207031" xlink:href="#DejaVuSans-30"/>
      <use x="1075.830078" xlink:href="#DejaVuSans-2c"/>
      <use x="1107.617188" xlink:href="#DejaVuSans-30"/>
      <use x="1171.240234" xlink:href="#DejaVuSans-30"/>
      <use x="1234.863281" xlink:href="#DejaVuSans-30"/>
      <use x="1298.486328" xlink:href="#DejaVuSans-20"/>
      <use x="1330.273438" xlink:href="#DejaVuSans-50"/>
      <use x="1390.529297" xlink:href="#DejaVuSans-65"/>
      <use x="1452.052734" xlink:href="#DejaVuSans-6f"/>
      <use x="1513.234375" xlink:href="#DejaVuSans-70"/>
      <use x="1576.710938" xlink:href="#DejaVuSans-6c"/>
      <use x="1604.494141" xlink:href="#DejaVuSans-65"/>
     </g>
    </g>
   </g>
   <g id="matplotlib.axis_2">
    <g id="ytick_1">
     <g id="line2d_19">
      <path clip-path="url(#p6a1c0ce0ab)" d="M 69.9735 576.715255 
L 627.9735 576.715255 
" style="fill:none;stroke:#ffffff;stroke-linecap:round;stroke-width:1.6;"/>
     </g>
     <g id="line2d_20"/>
     <g id="text_11">
      <!-- 0 -->
      <g style="fill:#262626;" transform="translate(48.5935 582.794005)scale(0.16 -0.16)">
       <use xlink:href="#DejaVuSans-30"/>
      </g>
     </g>
    </g>
    <g id="ytick_2">
     <g id="line2d_21">
      <path clip-path="url(#p6a1c0ce0ab)" d="M 69.9735 463.37377 
L 627.9735 463.37377 
" style="fill:none;stroke:#ffffff;stroke-linecap:round;stroke-width:1.6;"/>
     </g>
     <g id="line2d_22"/>
     <g id="text_12">
      <!-- 50 -->
      <g style="fill:#262626;" transform="translate(38.4135 469.45252)scale(0.16 -0.16)">
       <use xlink:href="#DejaVuSans-35"/>
       <use x="63.623047" xlink:href="#DejaVuSans-30"/>
      </g>
     </g>
    </g>
    <g id="ytick_3">
     <g id="line2d_23">
      <path clip-path="url(#p6a1c0ce0ab)" d="M 69.9735 350.032286 
L 627.9735 350.032286 
" style="fill:none;stroke:#ffffff;stroke-linecap:round;stroke-width:1.6;"/>
     </g>
     <g id="line2d_24"/>
     <g id="text_13">
      <!-- 100 -->
      <g style="fill:#262626;" transform="translate(28.2335 356.111036)scale(0.16 -0.16)">
       <use xlink:href="#DejaVuSans-31"/>
       <use x="63.623047" xlink:href="#DejaVuSans-30"/>
       <use x="127.246094" xlink:href="#DejaVuSans-30"/>
      </g>
     </g>
    </g>
    <g id="ytick_4">
     <g id="line2d_25">
      <path clip-path="url(#p6a1c0ce0ab)" d="M 69.9735 236.690801 
L 627.9735 236.690801 
" style="fill:none;stroke:#ffffff;stroke-linecap:round;stroke-width:1.6;"/>
     </g>
     <g id="line2d_26"/>
     <g id="text_14">
      <!-- 150 -->
      <g style="fill:#262626;" transform="translate(28.2335 242.769551)scale(0.16 -0.16)">
       <use xlink:href="#DejaVuSans-31"/>
       <use x="63.623047" xlink:href="#DejaVuSans-35"/>
       <use x="127.246094" xlink:href="#DejaVuSans-30"/>
      </g>
     </g>
    </g>
    <g id="ytick_5">
     <g id="line2d_27">
      <path clip-path="url(#p6a1c0ce0ab)" d="M 69.9735 123.349316 
L 627.9735 123.349316 
" style="fill:none;stroke:#ffffff;stroke-linecap:round;stroke-width:1.6;"/>
     </g>
     <g id="line2d_28"/>
     <g id="text_15">
      <!-- 200 -->
      <g style="fill:#262626;" transform="translate(28.2335 129.428066)scale(0.16 -0.16)">
       <use xlink:href="#DejaVuSans-32"/>
       <use x="63.623047" xlink:href="#DejaVuSans-30"/>
       <use x="127.246094" xlink:href="#DejaVuSans-30"/>
      </g>
     </g>
    </g>
    <g id="text_16">
     <!-- Predicted Dengue Cases -->
     <defs>
      <path d="M 45.40625 46.390625 
L 45.40625 75.984375 
L 54.390625 75.984375 
L 54.390625 0 
L 45.40625 0 
L 45.40625 8.203125 
Q 42.578125 3.328125 38.25 0.953125 
Q 33.9375 -1.421875 27.875 -1.421875 
Q 17.96875 -1.421875 11.734375 6.484375 
Q 5.515625 14.40625 5.515625 27.296875 
Q 5.515625 40.1875 11.734375 48.09375 
Q 17.96875 56 27.875 56 
Q 33.9375 56 38.25 53.625 
Q 42.578125 51.265625 45.40625 46.390625 
z
M 14.796875 27.296875 
Q 14.796875 17.390625 18.875 11.75 
Q 22.953125 6.109375 30.078125 6.109375 
Q 37.203125 6.109375 41.296875 11.75 
Q 45.40625 17.390625 45.40625 27.296875 
Q 45.40625 37.203125 41.296875 42.84375 
Q 37.203125 48.484375 30.078125 48.484375 
Q 22.953125 48.484375 18.875 42.84375 
Q 14.796875 37.203125 14.796875 27.296875 
z
" id="DejaVuSans-64"/>
      <path d="M 9.421875 54.6875 
L 18.40625 54.6875 
L 18.40625 0 
L 9.421875 0 
z
M 9.421875 75.984375 
L 18.40625 75.984375 
L 18.40625 64.59375 
L 9.421875 64.59375 
z
" id="DejaVuSans-69"/>
      <path d="M 48.78125 52.59375 
L 48.78125 44.1875 
Q 44.96875 46.296875 41.140625 47.34375 
Q 37.3125 48.390625 33.40625 48.390625 
Q 24.65625 48.390625 19.8125 42.84375 
Q 14.984375 37.3125 14.984375 27.296875 
Q 14.984375 17.28125 19.8125 11.734375 
Q 24.65625 6.203125 33.40625 6.203125 
Q 37.3125 6.203125 41.140625 7.25 
Q 44.96875 8.296875 48.78125 10.40625 
L 48.78125 2.09375 
Q 45.015625 0.34375 40.984375 -0.53125 
Q 36.96875 -1.421875 32.421875 -1.421875 
Q 20.0625 -1.421875 12.78125 6.34375 
Q 5.515625 14.109375 5.515625 27.296875 
Q 5.515625 40.671875 12.859375 48.328125 
Q 20.21875 56 33.015625 56 
Q 37.15625 56 41.109375 55.140625 
Q 45.0625 54.296875 48.78125 52.59375 
z
" id="DejaVuSans-63"/>
      <path d="M 18.3125 70.21875 
L 18.3125 54.6875 
L 36.8125 54.6875 
L 36.8125 47.703125 
L 18.3125 47.703125 
L 18.3125 18.015625 
Q 18.3125 11.328125 20.140625 9.421875 
Q 21.96875 7.515625 27.59375 7.515625 
L 36.8125 7.515625 
L 36.8125 0 
L 27.59375 0 
Q 17.1875 0 13.234375 3.875 
Q 9.28125 7.765625 9.28125 18.015625 
L 9.28125 47.703125 
L 2.6875 47.703125 
L 2.6875 54.6875 
L 9.28125 54.6875 
L 9.28125 70.21875 
z
" id="DejaVuSans-74"/>
     </defs>
     <g style="fill:#262626;" transform="translate(20.57325 471.804525)rotate(-90)scale(0.176 -0.176)">
      <use xlink:href="#DejaVuSans-50"/>
      <use x="60.287109" xlink:href="#DejaVuSans-72"/>
      <use x="101.369141" xlink:href="#DejaVuSans-65"/>
      <use x="162.892578" xlink:href="#DejaVuSans-64"/>
      <use x="226.369141" xlink:href="#DejaVuSans-69"/>
      <use x="254.152344" xlink:href="#DejaVuSans-63"/>
      <use x="309.132812" xlink:href="#DejaVuSans-74"/>
      <use x="348.341797" xlink:href="#DejaVuSans-65"/>
      <use x="409.865234" xlink:href="#DejaVuSans-64"/>
      <use x="473.341797" xlink:href="#DejaVuSans-20"/>
      <use x="505.128906" xlink:href="#DejaVuSans-44"/>
      <use x="582.130859" xlink:href="#DejaVuSans-65"/>
      <use x="643.654297" xlink:href="#DejaVuSans-6e"/>
      <use x="707.033203" xlink:href="#DejaVuSans-67"/>
      <use x="770.509766" xlink:href="#DejaVuSans-75"/>
      <use x="833.888672" xlink:href="#DejaVuSans-65"/>
      <use x="895.412109" xlink:href="#DejaVuSans-20"/>
      <use x="927.199219" xlink:href="#DejaVuSans-43"/>
      <use x="997.023438" xlink:href="#DejaVuSans-61"/>
      <use x="1058.302734" xlink:href="#DejaVuSans-73"/>
      <use x="1110.402344" xlink:href="#DejaVuSans-65"/>
      <use x="1171.925781" xlink:href="#DejaVuSans-73"/>
     </g>
    </g>
   </g>
   <g id="PathCollection_1">
    <defs>
     <path d="M 0 5.6 
C 1.485137 5.6 2.909647 5.009949 3.959798 3.959798 
C 5.009949 2.909647 5.6 1.485137 5.6 0 
C 5.6 -1.485137 5.009949 -2.909647 3.959798 -3.959798 
C 2.909647 -5.009949 1.485137 -5.6 0 -5.6 
C -1.485137 -5.6 -2.909647 -5.009949 -3.959798 -3.959798 
C -5.009949 -2.909647 -5.6 -1.485137 -5.6 0 
C -5.6 1.485137 -5.009949 2.909647 -3.959798 3.959798 
C -2.909647 5.009949 -1.485137 5.6 0 5.6 
z
" id="m3ece56a7cb"/>
    </defs>
    <g clip-path="url(#p6a1c0ce0ab)">
     <use style="fill:#4c72b0;fill-opacity:0.65;" x="355.283502" xlink:href="#m3ece56a7cb" y="406.381086"/>
     <use style="fill:#4c72b0;fill-opacity:0.65;" x="408.844107" xlink:href="#m3ece56a7cb" y="355.502063"/>
     <use style="fill:#4c72b0;fill-opacity:0.65;" x="521.215826" xlink:href="#m3ece56a7cb" y="341.483949"/>
     <use style="fill:#4c72b0;fill-opacity:0.65;" x="463.514378" xlink:href="#m3ece56a7cb" y="325.569031"/>
     <use style="fill:#4c72b0;fill-opacity:0.65;" x="455.060064" xlink:href="#m3ece56a7cb" y="362.860952"/>
     <use style="fill:#4c72b0;fill-opacity:0.65;" x="602.447433" xlink:href="#m3ece56a7cb" y="348.12918"/>
     <use style="fill:#4c72b0;fill-opacity:0.65;" x="317.664321" xlink:href="#m3ece56a7cb" y="431.000277"/>
     <use style="fill:#4c72b0;fill-opacity:0.65;" x="419.750705" xlink:href="#m3ece56a7cb" y="339.74278"/>
     <use style="fill:#4c72b0;fill-opacity:0.65;" x="160.25026" xlink:href="#m3ece56a7cb" y="394.700349"/>
     <use style="fill:#4c72b0;fill-opacity:0.65;" x="115.954449" xlink:href="#m3ece56a7cb" y="611.035042"/>
     <use style="fill:#4c72b0;fill-opacity:0.65;" x="124.860194" xlink:href="#m3ece56a7cb" y="512.862494"/>
     <use style="fill:#4c72b0;fill-opacity:0.65;" x="184.893874" xlink:href="#m3ece56a7cb" y="438.410399"/>
     <use style="fill:#4c72b0;fill-opacity:0.65;" x="110.088694" xlink:href="#m3ece56a7cb" y="441.583505"/>
     <use style="fill:#4c72b0;fill-opacity:0.65;" x="106.784332" xlink:href="#m3ece56a7cb" y="458.952904"/>
     <use style="fill:#4c72b0;fill-opacity:0.65;" x="273.151404" xlink:href="#m3ece56a7cb" y="390.025817"/>
     <use style="fill:#4c72b0;fill-opacity:0.65;" x="174.215677" xlink:href="#m3ece56a7cb" y="495.834968"/>
     <use style="fill:#4c72b0;fill-opacity:0.65;" x="168.066434" xlink:href="#m3ece56a7cb" y="449.383681"/>
     <use style="fill:#4c72b0;fill-opacity:0.65;" x="195.227079" xlink:href="#m3ece56a7cb" y="438.795554"/>
     <use style="fill:#4c72b0;fill-opacity:0.65;" x="281.276404" xlink:href="#m3ece56a7cb" y="417.261429"/>
     <use style="fill:#4c72b0;fill-opacity:0.65;" x="232.019888" xlink:href="#m3ece56a7cb" y="378.95663"/>
     <use style="fill:#4c72b0;fill-opacity:0.65;" x="195.176171" xlink:href="#m3ece56a7cb" y="507.784313"/>
     <use style="fill:#4c72b0;fill-opacity:0.65;" x="312.561908" xlink:href="#m3ece56a7cb" y="363.713875"/>
     <use style="fill:#4c72b0;fill-opacity:0.65;" x="179.560753" xlink:href="#m3ece56a7cb" y="367.916073"/>
     <use style="fill:#4c72b0;fill-opacity:0.65;" x="225.101192" xlink:href="#m3ece56a7cb" y="419.418516"/>
     <use style="fill:#4c72b0;fill-opacity:0.65;" x="128.434381" xlink:href="#m3ece56a7cb" y="524.49069"/>
     <use style="fill:#4c72b0;fill-opacity:0.65;" x="177.034902" xlink:href="#m3ece56a7cb" y="516.54005"/>
     <use style="fill:#4c72b0;fill-opacity:0.65;" x="236.642951" xlink:href="#m3ece56a7cb" y="419.419755"/>
     <use style="fill:#4c72b0;fill-opacity:0.65;" x="322.384756" xlink:href="#m3ece56a7cb" y="478.618385"/>
     <use style="fill:#4c72b0;fill-opacity:0.65;" x="162.497129" xlink:href="#m3ece56a7cb" y="516.138514"/>
     <use style="fill:#4c72b0;fill-opacity:0.65;" x="167.501961" xlink:href="#m3ece56a7cb" y="524.7433"/>
     <use style="fill:#4c72b0;fill-opacity:0.65;" x="151.482741" xlink:href="#m3ece56a7cb" y="582.77275"/>
     <use style="fill:#4c72b0;fill-opacity:0.65;" x="211.099665" xlink:href="#m3ece56a7cb" y="373.914832"/>
     <use style="fill:#4c72b0;fill-opacity:0.65;" x="114.724552" xlink:href="#m3ece56a7cb" y="421.456543"/>
     <use style="fill:#4c72b0;fill-opacity:0.65;" x="95.499567" xlink:href="#m3ece56a7cb" y="503.838117"/>
     <use style="fill:#4c72b0;fill-opacity:0.65;" x="167.43239" xlink:href="#m3ece56a7cb" y="442.665071"/>
     <use style="fill:#4c72b0;fill-opacity:0.65;" x="138.052447" xlink:href="#m3ece56a7cb" y="493.344819"/>
     <use style="fill:#4c72b0;fill-opacity:0.65;" x="150.067918" xlink:href="#m3ece56a7cb" y="429.280948"/>
     <use style="fill:#4c72b0;fill-opacity:0.65;" x="196.449771" xlink:href="#m3ece56a7cb" y="372.635321"/>
     <use style="fill:#4c72b0;fill-opacity:0.65;" x="219.004224" xlink:href="#m3ece56a7cb" y="514.383672"/>
     <use style="fill:#4c72b0;fill-opacity:0.65;" x="131.84706" xlink:href="#m3ece56a7cb" y="545.208105"/>
     <use style="fill:#4c72b0;fill-opacity:0.65;" x="157.212839" xlink:href="#m3ece56a7cb" y="488.008068"/>
     <use style="fill:#4c72b0;fill-opacity:0.65;" x="147.331055" xlink:href="#m3ece56a7cb" y="472.441668"/>
     <use style="fill:#4c72b0;fill-opacity:0.65;" x="125.597276" xlink:href="#m3ece56a7cb" y="509.839191"/>
     <use style="fill:#4c72b0;fill-opacity:0.65;" x="132.113937" xlink:href="#m3ece56a7cb" y="539.331972"/>
     <use style="fill:#4c72b0;fill-opacity:0.65;" x="101.638989" xlink:href="#m3ece56a7cb" y="454.230153"/>
     <use style="fill:#4c72b0;fill-opacity:0.65;" x="121.392883" xlink:href="#m3ece56a7cb" y="569.934395"/>
     <use style="fill:#4c72b0;fill-opacity:0.65;" x="120.597806" xlink:href="#m3ece56a7cb" y="431.458793"/>
    </g>
   </g>
   <g id="PolyCollection_1">
    <path clip-path="url(#p6a1c0ce0ab)" d="M 69.9735 484.505083 
L 69.9735 533.956878 
L 75.609864 531.312671 
L 81.246227 528.632411 
L 86.882591 525.928122 
L 92.518955 523.07753 
L 98.155318 519.957596 
L 103.791682 517.158146 
L 109.428045 514.7402 
L 115.064409 511.866031 
L 120.700773 508.989819 
L 126.337136 506.329059 
L 131.9735 503.920917 
L 137.609864 501.286213 
L 143.246227 498.724294 
L 148.882591 496.233897 
L 154.518955 493.961823 
L 160.155318 491.542877 
L 165.791682 488.804298 
L 171.428045 486.445656 
L 177.064409 483.81058 
L 182.700773 480.99945 
L 188.337136 478.171765 
L 193.9735 475.630092 
L 199.609864 473.031984 
L 205.246227 470.474678 
L 210.882591 468.015558 
L 216.518955 465.332083 
L 222.155318 462.7619 
L 227.791682 460.252069 
L 233.428045 457.914056 
L 239.064409 455.405427 
L 244.700773 453.077437 
L 250.337136 450.305881 
L 255.9735 448.118841 
L 261.609864 445.692035 
L 267.246227 443.093691 
L 272.882591 441.02628 
L 278.518955 438.467158 
L 284.155318 436.218673 
L 289.791682 433.928539 
L 295.428045 431.65973 
L 301.064409 429.389642 
L 306.700773 427.123596 
L 312.337136 425.041527 
L 317.9735 422.895065 
L 323.609864 420.804583 
L 329.246227 418.712125 
L 334.882591 416.619335 
L 340.518955 414.493925 
L 346.155318 412.371033 
L 351.791682 410.342478 
L 357.428045 408.252106 
L 363.064409 406.157266 
L 368.700773 404.11684 
L 374.337136 402.114617 
L 379.9735 399.934649 
L 385.609864 397.935471 
L 391.246227 395.97368 
L 396.882591 394.121553 
L 402.518955 392.159125 
L 408.155318 390.153888 
L 413.791682 388.094304 
L 419.428045 386.143977 
L 425.064409 384.141353 
L 430.700773 382.235989 
L 436.337136 380.355486 
L 441.9735 378.421158 
L 447.609864 376.427739 
L 453.246227 374.431163 
L 458.882591 372.577511 
L 464.518955 370.684006 
L 470.155318 368.751674 
L 475.791682 366.816437 
L 481.428045 364.880327 
L 487.064409 362.909594 
L 492.700773 360.9738 
L 498.337136 358.90933 
L 503.9735 356.906116 
L 509.609864 355.101959 
L 515.246227 353.27618 
L 520.882591 351.544991 
L 526.518955 349.940825 
L 532.155318 348.126439 
L 537.791682 346.26616 
L 543.428045 344.451243 
L 549.064409 342.609597 
L 554.700773 340.805372 
L 560.337136 339.036458 
L 565.9735 337.267122 
L 571.609864 335.495735 
L 577.246227 333.648609 
L 582.882591 331.715414 
L 588.518955 329.782219 
L 594.155318 327.967317 
L 599.791682 326.259834 
L 605.428045 324.394457 
L 611.064409 322.380458 
L 616.700773 320.525858 
L 622.337136 318.686521 
L 627.9735 316.847184 
L 627.9735 234.768563 
L 627.9735 234.768563 
L 622.337136 237.785643 
L 616.700773 240.802724 
L 611.064409 243.819804 
L 605.428045 246.836884 
L 599.791682 249.853965 
L 594.155318 252.871045 
L 588.518955 255.888125 
L 582.882591 258.900486 
L 577.246227 261.743492 
L 571.609864 264.586498 
L 565.9735 267.429504 
L 560.337136 270.27251 
L 554.700773 273.13404 
L 549.064409 276.100882 
L 543.428045 278.866518 
L 537.791682 281.632479 
L 532.155318 284.468589 
L 526.518955 287.250316 
L 520.882591 289.87648 
L 515.246227 292.502643 
L 509.609864 295.344744 
L 503.9735 298.498909 
L 498.337136 301.494357 
L 492.700773 304.335564 
L 487.064409 307.17677 
L 481.428045 309.944747 
L 475.791682 312.61024 
L 470.155318 315.43985 
L 464.518955 318.407352 
L 458.882591 321.374854 
L 453.246227 324.218435 
L 447.609864 327.06952 
L 441.9735 329.908826 
L 436.337136 332.748131 
L 430.700773 335.588836 
L 425.064409 338.428962 
L 419.428045 341.267954 
L 413.791682 344.036552 
L 408.155318 346.846396 
L 402.518955 349.65624 
L 396.882591 352.466083 
L 391.246227 355.399747 
L 385.609864 358.306581 
L 379.9735 361.298082 
L 374.337136 364.31651 
L 368.700773 367.34181 
L 363.064409 370.045668 
L 357.428045 373.015481 
L 351.791682 376.013701 
L 346.155318 378.780206 
L 340.518955 381.309054 
L 334.882591 384.080256 
L 329.246227 386.856913 
L 323.609864 389.647239 
L 317.9735 392.410228 
L 312.337136 395.102878 
L 306.700773 397.593783 
L 301.064409 400.342602 
L 295.428045 402.701566 
L 289.791682 405.165164 
L 284.155318 407.863042 
L 278.518955 410.143035 
L 272.882591 412.635976 
L 267.246227 415.132578 
L 261.609864 417.545152 
L 255.9735 419.625009 
L 250.337136 421.77401 
L 244.700773 423.909192 
L 239.064409 426.255441 
L 233.428045 428.626494 
L 227.791682 430.809677 
L 222.155318 432.9952 
L 216.518955 435.079018 
L 210.882591 437.211763 
L 205.246227 439.206395 
L 199.609864 441.345619 
L 193.9735 443.345488 
L 188.337136 445.307508 
L 182.700773 447.267651 
L 177.064409 449.146481 
L 171.428045 450.789562 
L 165.791682 452.730135 
L 160.155318 454.592272 
L 154.518955 456.520995 
L 148.882591 458.248757 
L 143.246227 459.963391 
L 137.609864 461.758894 
L 131.9735 463.575191 
L 126.337136 465.706151 
L 120.700773 467.839225 
L 115.064409 469.48799 
L 109.428045 471.051517 
L 103.791682 473.026497 
L 98.155318 475.002011 
L 92.518955 476.977526 
L 86.882591 478.95304 
L 81.246227 480.928555 
L 75.609864 482.725396 
L 69.9735 484.505083 
z
" style="fill:#4c72b0;fill-opacity:0.15;"/>
   </g>
   <g id="line2d_29">
    <path clip-path="url(#p6a1c0ce0ab)" d="M 69.9735 508.635004 
L 75.609864 506.383901 
L 81.246227 504.132798 
L 86.882591 501.881695 
L 92.518955 499.630592 
L 98.155318 497.379489 
L 103.791682 495.128386 
L 109.428045 492.877283 
L 115.064409 490.62618 
L 120.700773 488.375077 
L 126.337136 486.123974 
L 131.9735 483.872871 
L 137.609864 481.621768 
L 143.246227 479.370665 
L 148.882591 477.119561 
L 154.518955 474.868458 
L 160.155318 472.617355 
L 165.791682 470.366252 
L 171.428045 468.115149 
L 177.064409 465.864046 
L 182.700773 463.612943 
L 188.337136 461.36184 
L 193.9735 459.110737 
L 199.609864 456.859634 
L 205.246227 454.608531 
L 210.882591 452.357428 
L 216.518955 450.106325 
L 222.155318 447.855222 
L 227.791682 445.604119 
L 233.428045 443.353016 
L 239.064409 441.101913 
L 244.700773 438.85081 
L 250.337136 436.599707 
L 255.9735 434.348604 
L 261.609864 432.097501 
L 267.246227 429.846398 
L 272.882591 427.595294 
L 278.518955 425.344191 
L 284.155318 423.093088 
L 289.791682 420.841985 
L 295.428045 418.590882 
L 301.064409 416.339779 
L 306.700773 414.088676 
L 312.337136 411.837573 
L 317.9735 409.58647 
L 323.609864 407.335367 
L 329.246227 405.084264 
L 334.882591 402.833161 
L 340.518955 400.582058 
L 346.155318 398.330955 
L 351.791682 396.079852 
L 357.428045 393.828749 
L 363.064409 391.577646 
L 368.700773 389.326543 
L 374.337136 387.07544 
L 379.9735 384.824337 
L 385.609864 382.573234 
L 391.246227 380.322131 
L 396.882591 378.071027 
L 402.518955 375.819924 
L 408.155318 373.568821 
L 413.791682 371.317718 
L 419.428045 369.066615 
L 425.064409 366.815512 
L 430.700773 364.564409 
L 436.337136 362.313306 
L 441.9735 360.062203 
L 447.609864 357.8111 
L 453.246227 355.559997 
L 458.882591 353.308894 
L 464.518955 351.057791 
L 470.155318 348.806688 
L 475.791682 346.555585 
L 481.428045 344.304482 
L 487.064409 342.053379 
L 492.700773 339.802276 
L 498.337136 337.551173 
L 503.9735 335.30007 
L 509.609864 333.048967 
L 515.246227 330.797864 
L 520.882591 328.54676 
L 526.518955 326.295657 
L 532.155318 324.044554 
L 537.791682 321.793451 
L 543.428045 319.542348 
L 549.064409 317.291245 
L 554.700773 315.040142 
L 560.337136 312.789039 
L 565.9735 310.537936 
L 571.609864 308.286833 
L 577.246227 306.03573 
L 582.882591 303.784627 
L 588.518955 301.533524 
L 594.155318 299.282421 
L 599.791682 297.031318 
L 605.428045 294.780215 
L 611.064409 292.529112 
L 616.700773 290.278009 
L 622.337136 288.026906 
L 627.9735 285.775803 
" style="fill:none;stroke:#4c72b0;stroke-linecap:round;stroke-width:4.2;"/>
   </g>
   <g id="line2d_30">
    <path clip-path="url(#p6a1c0ce0ab)" d="M 95.499567 555.63827 
L 602.447433 116.997491 
" style="fill:none;stroke:#808080;stroke-dasharray:11.1,4.8;stroke-dashoffset:0;stroke-width:3;"/>
   </g>
   <g id="patch_3">
    <path d="M 69.9735 635.8884 
L 69.9735 92.2884 
" style="fill:none;"/>
   </g>
   <g id="patch_4">
    <path d="M 627.9735 635.8884 
L 627.9735 92.2884 
" style="fill:none;"/>
   </g>
   <g id="patch_5">
    <path d="M 69.9735 635.8884 
L 627.9735 635.8884 
" style="fill:none;"/>
   </g>
   <g id="patch_6">
    <path d="M 69.9735 92.2884 
L 627.9735 92.2884 
" style="fill:none;"/>
   </g>
   <g id="text_17">
    <!-- Krabi (47 data points), BS per Person as Features -->
    <defs>
     <path d="M 9.8125 72.90625 
L 19.671875 72.90625 
L 19.671875 42.09375 
L 52.390625 72.90625 
L 65.09375 72.90625 
L 28.90625 38.921875 
L 67.671875 0 
L 54.6875 0 
L 19.671875 35.109375 
L 19.671875 0 
L 9.8125 0 
z
" id="DejaVuSans-4b"/>
     <path d="M 48.6875 27.296875 
Q 48.6875 37.203125 44.609375 42.84375 
Q 40.53125 48.484375 33.40625 48.484375 
Q 26.265625 48.484375 22.1875 42.84375 
Q 18.109375 37.203125 18.109375 27.296875 
Q 18.109375 17.390625 22.1875 11.75 
Q 26.265625 6.109375 33.40625 6.109375 
Q 40.53125 6.109375 44.609375 11.75 
Q 48.6875 17.390625 48.6875 27.296875 
z
M 18.109375 46.390625 
Q 20.953125 51.265625 25.265625 53.625 
Q 29.59375 56 35.59375 56 
Q 45.5625 56 51.78125 48.09375 
Q 58.015625 40.1875 58.015625 27.296875 
Q 58.015625 14.40625 51.78125 6.484375 
Q 45.5625 -1.421875 35.59375 -1.421875 
Q 29.59375 -1.421875 25.265625 0.953125 
Q 20.953125 3.328125 18.109375 8.203125 
L 18.109375 0 
L 9.078125 0 
L 9.078125 75.984375 
L 18.109375 75.984375 
z
" id="DejaVuSans-62"/>
     <path d="M 31 75.875 
Q 24.46875 64.65625 21.28125 53.65625 
Q 18.109375 42.671875 18.109375 31.390625 
Q 18.109375 20.125 21.3125 9.0625 
Q 24.515625 -2 31 -13.1875 
L 23.1875 -13.1875 
Q 15.875 -1.703125 12.234375 9.375 
Q 8.59375 20.453125 8.59375 31.390625 
Q 8.59375 42.28125 12.203125 53.3125 
Q 15.828125 64.359375 23.1875 75.875 
z
" id="DejaVuSans-28"/>
     <path d="M 37.796875 64.3125 
L 12.890625 25.390625 
L 37.796875 25.390625 
z
M 35.203125 72.90625 
L 47.609375 72.90625 
L 47.609375 25.390625 
L 58.015625 25.390625 
L 58.015625 17.1875 
L 47.609375 17.1875 
L 47.609375 0 
L 37.796875 0 
L 37.796875 17.1875 
L 4.890625 17.1875 
L 4.890625 26.703125 
z
" id="DejaVuSans-34"/>
     <path d="M 8.015625 75.875 
L 15.828125 75.875 
Q 23.140625 64.359375 26.78125 53.3125 
Q 30.421875 42.28125 30.421875 31.390625 
Q 30.421875 20.453125 26.78125 9.375 
Q 23.140625 -1.703125 15.828125 -13.1875 
L 8.015625 -13.1875 
Q 14.5 -2 17.703125 9.0625 
Q 20.90625 20.125 20.90625 31.390625 
Q 20.90625 42.671875 17.703125 53.65625 
Q 14.5 64.65625 8.015625 75.875 
z
" id="DejaVuSans-29"/>
     <path d="M 19.671875 34.8125 
L 19.671875 8.109375 
L 35.5 8.109375 
Q 43.453125 8.109375 47.28125 11.40625 
Q 51.125 14.703125 51.125 21.484375 
Q 51.125 28.328125 47.28125 31.5625 
Q 43.453125 34.8125 35.5 34.8125 
z
M 19.671875 64.796875 
L 19.671875 42.828125 
L 34.28125 42.828125 
Q 41.5 42.828125 45.03125 45.53125 
Q 48.578125 48.25 48.578125 53.8125 
Q 48.578125 59.328125 45.03125 62.0625 
Q 41.5 64.796875 34.28125 64.796875 
z
M 9.8125 72.90625 
L 35.015625 72.90625 
Q 46.296875 72.90625 52.390625 68.21875 
Q 58.5 63.53125 58.5 54.890625 
Q 58.5 48.1875 55.375 44.234375 
Q 52.25 40.28125 46.1875 39.3125 
Q 53.46875 37.75 57.5 32.78125 
Q 61.53125 27.828125 61.53125 20.40625 
Q 61.53125 10.640625 54.890625 5.3125 
Q 48.25 0 35.984375 0 
L 9.8125 0 
z
" id="DejaVuSans-42"/>
     <path d="M 53.515625 70.515625 
L 53.515625 60.890625 
Q 47.90625 63.578125 42.921875 64.890625 
Q 37.9375 66.21875 33.296875 66.21875 
Q 25.25 66.21875 20.875 63.09375 
Q 16.5 59.96875 16.5 54.203125 
Q 16.5 49.359375 19.40625 46.890625 
Q 22.3125 44.4375 30.421875 42.921875 
L 36.375 41.703125 
Q 47.40625 39.59375 52.65625 34.296875 
Q 57.90625 29 57.90625 20.125 
Q 57.90625 9.515625 50.796875 4.046875 
Q 43.703125 -1.421875 29.984375 -1.421875 
Q 24.8125 -1.421875 18.96875 -0.25 
Q 13.140625 0.921875 6.890625 3.21875 
L 6.890625 13.375 
Q 12.890625 10.015625 18.65625 8.296875 
Q 24.421875 6.59375 29.984375 6.59375 
Q 38.421875 6.59375 43.015625 9.90625 
Q 47.609375 13.234375 47.609375 19.390625 
Q 47.609375 24.75 44.3125 27.78125 
Q 41.015625 30.8125 33.5 32.328125 
L 27.484375 33.5 
Q 16.453125 35.6875 11.515625 40.375 
Q 6.59375 45.0625 6.59375 53.421875 
Q 6.59375 63.09375 13.40625 68.65625 
Q 20.21875 74.21875 32.171875 74.21875 
Q 37.3125 74.21875 42.625 73.28125 
Q 47.953125 72.359375 53.515625 70.515625 
z
" id="DejaVuSans-53"/>
     <path d="M 9.8125 72.90625 
L 51.703125 72.90625 
L 51.703125 64.59375 
L 19.671875 64.59375 
L 19.671875 43.109375 
L 48.578125 43.109375 
L 48.578125 34.8125 
L 19.671875 34.8125 
L 19.671875 0 
L 9.8125 0 
z
" id="DejaVuSans-46"/>
    </defs>
    <g style="fill:#262626;" transform="translate(111.702 21.789)scale(0.192 -0.192)">
     <use xlink:href="#DejaVuSans-4b"/>
     <use x="65.576172" xlink:href="#DejaVuSans-72"/>
     <use x="106.689453" xlink:href="#DejaVuSans-61"/>
     <use x="167.96875" xlink:href="#DejaVuSans-62"/>
     <use x="231.445312" xlink:href="#DejaVuSans-69"/>
     <use x="259.228516" xlink:href="#DejaVuSans-20"/>
     <use x="291.015625" xlink:href="#DejaVuSans-28"/>
     <use x="330.029297" xlink:href="#DejaVuSans-34"/>
     <use x="393.652344" xlink:href="#DejaVuSans-37"/>
     <use x="457.275391" xlink:href="#DejaVuSans-20"/>
     <use x="489.0625" xlink:href="#DejaVuSans-64"/>
     <use x="552.539062" xlink:href="#DejaVuSans-61"/>
     <use x="613.818359" xlink:href="#DejaVuSans-74"/>
     <use x="653.027344" xlink:href="#DejaVuSans-61"/>
     <use x="714.306641" xlink:href="#DejaVuSans-20"/>
     <use x="746.09375" xlink:href="#DejaVuSans-70"/>
     <use x="809.570312" xlink:href="#DejaVuSans-6f"/>
     <use x="870.751953" xlink:href="#DejaVuSans-69"/>
     <use x="898.535156" xlink:href="#DejaVuSans-6e"/>
     <use x="961.914062" xlink:href="#DejaVuSans-74"/>
     <use x="1001.123047" xlink:href="#DejaVuSans-73"/>
     <use x="1053.222656" xlink:href="#DejaVuSans-29"/>
     <use x="1092.236328" xlink:href="#DejaVuSans-2c"/>
     <use x="1124.023438" xlink:href="#DejaVuSans-20"/>
     <use x="1155.810547" xlink:href="#DejaVuSans-42"/>
     <use x="1224.398438" xlink:href="#DejaVuSans-53"/>
     <use x="1287.875" xlink:href="#DejaVuSans-20"/>
     <use x="1319.662109" xlink:href="#DejaVuSans-70"/>
     <use x="1383.138672" xlink:href="#DejaVuSans-65"/>
     <use x="1444.662109" xlink:href="#DejaVuSans-72"/>
     <use x="1485.775391" xlink:href="#DejaVuSans-20"/>
     <use x="1517.5625" xlink:href="#DejaVuSans-50"/>
     <use x="1577.818359" xlink:href="#DejaVuSans-65"/>
     <use x="1639.341797" xlink:href="#DejaVuSans-72"/>
     <use x="1680.455078" xlink:href="#DejaVuSans-73"/>
     <use x="1732.554688" xlink:href="#DejaVuSans-6f"/>
     <use x="1793.736328" xlink:href="#DejaVuSans-6e"/>
     <use x="1857.115234" xlink:href="#DejaVuSans-20"/>
     <use x="1888.902344" xlink:href="#DejaVuSans-61"/>
     <use x="1950.181641" xlink:href="#DejaVuSans-73"/>
     <use x="2002.28125" xlink:href="#DejaVuSans-20"/>
     <use x="2034.068359" xlink:href="#DejaVuSans-46"/>
     <use x="2091.509766" xlink:href="#DejaVuSans-65"/>
     <use x="2153.033203" xlink:href="#DejaVuSans-61"/>
     <use x="2214.3125" xlink:href="#DejaVuSans-74"/>
     <use x="2253.521484" xlink:href="#DejaVuSans-75"/>
     <use x="2316.900391" xlink:href="#DejaVuSans-72"/>
     <use x="2357.982422" xlink:href="#DejaVuSans-65"/>
     <use x="2419.505859" xlink:href="#DejaVuSans-73"/>
    </g>
    <!-- R-squared: 0.4616 -->
    <defs>
     <path d="M 44.390625 34.1875 
Q 47.5625 33.109375 50.5625 29.59375 
Q 53.5625 26.078125 56.59375 19.921875 
L 66.609375 0 
L 56 0 
L 46.6875 18.703125 
Q 43.0625 26.03125 39.671875 28.421875 
Q 36.28125 30.8125 30.421875 30.8125 
L 19.671875 30.8125 
L 19.671875 0 
L 9.8125 0 
L 9.8125 72.90625 
L 32.078125 72.90625 
Q 44.578125 72.90625 50.734375 67.671875 
Q 56.890625 62.453125 56.890625 51.90625 
Q 56.890625 45.015625 53.6875 40.46875 
Q 50.484375 35.9375 44.390625 34.1875 
z
M 19.671875 64.796875 
L 19.671875 38.921875 
L 32.078125 38.921875 
Q 39.203125 38.921875 42.84375 42.21875 
Q 46.484375 45.515625 46.484375 51.90625 
Q 46.484375 58.296875 42.84375 61.546875 
Q 39.203125 64.796875 32.078125 64.796875 
z
" id="DejaVuSans-52"/>
     <path d="M 4.890625 31.390625 
L 31.203125 31.390625 
L 31.203125 23.390625 
L 4.890625 23.390625 
z
" id="DejaVuSans-2d"/>
     <path d="M 14.796875 27.296875 
Q 14.796875 17.390625 18.875 11.75 
Q 22.953125 6.109375 30.078125 6.109375 
Q 37.203125 6.109375 41.296875 11.75 
Q 45.40625 17.390625 45.40625 27.296875 
Q 45.40625 37.203125 41.296875 42.84375 
Q 37.203125 48.484375 30.078125 48.484375 
Q 22.953125 48.484375 18.875 42.84375 
Q 14.796875 37.203125 14.796875 27.296875 
z
M 45.40625 8.203125 
Q 42.578125 3.328125 38.25 0.953125 
Q 33.9375 -1.421875 27.875 -1.421875 
Q 17.96875 -1.421875 11.734375 6.484375 
Q 5.515625 14.40625 5.515625 27.296875 
Q 5.515625 40.1875 11.734375 48.09375 
Q 17.96875 56 27.875 56 
Q 33.9375 56 38.25 53.625 
Q 42.578125 51.265625 45.40625 46.390625 
L 45.40625 54.6875 
L 54.390625 54.6875 
L 54.390625 -20.796875 
L 45.40625 -20.796875 
z
" id="DejaVuSans-71"/>
     <path d="M 11.71875 12.40625 
L 22.015625 12.40625 
L 22.015625 0 
L 11.71875 0 
z
M 11.71875 51.703125 
L 22.015625 51.703125 
L 22.015625 39.3125 
L 11.71875 39.3125 
z
" id="DejaVuSans-3a"/>
     <path d="M 10.6875 12.40625 
L 21 12.40625 
L 21 0 
L 10.6875 0 
z
" id="DejaVuSans-2e"/>
     <path d="M 33.015625 40.375 
Q 26.375 40.375 22.484375 35.828125 
Q 18.609375 31.296875 18.609375 23.390625 
Q 18.609375 15.53125 22.484375 10.953125 
Q 26.375 6.390625 33.015625 6.390625 
Q 39.65625 6.390625 43.53125 10.953125 
Q 47.40625 15.53125 47.40625 23.390625 
Q 47.40625 31.296875 43.53125 35.828125 
Q 39.65625 40.375 33.015625 40.375 
z
M 52.59375 71.296875 
L 52.59375 62.3125 
Q 48.875 64.0625 45.09375 64.984375 
Q 41.3125 65.921875 37.59375 65.921875 
Q 27.828125 65.921875 22.671875 59.328125 
Q 17.53125 52.734375 16.796875 39.40625 
Q 19.671875 43.65625 24.015625 45.921875 
Q 28.375 48.1875 33.59375 48.1875 
Q 44.578125 48.1875 50.953125 41.515625 
Q 57.328125 34.859375 57.328125 23.390625 
Q 57.328125 12.15625 50.6875 5.359375 
Q 44.046875 -1.421875 33.015625 -1.421875 
Q 20.359375 -1.421875 13.671875 8.265625 
Q 6.984375 17.96875 6.984375 36.375 
Q 6.984375 53.65625 15.1875 63.9375 
Q 23.390625 74.21875 37.203125 74.21875 
Q 40.921875 74.21875 44.703125 73.484375 
Q 48.484375 72.75 52.59375 71.296875 
z
" id="DejaVuSans-36"/>
    </defs>
    <g style="fill:#262626;" transform="translate(259.962 43.2888)scale(0.192 -0.192)">
     <use xlink:href="#DejaVuSans-52"/>
     <use x="69.419922" xlink:href="#DejaVuSans-2d"/>
     <use x="105.503906" xlink:href="#DejaVuSans-73"/>
     <use x="157.603516" xlink:href="#DejaVuSans-71"/>
     <use x="221.080078" xlink:href="#DejaVuSans-75"/>
     <use x="284.458984" xlink:href="#DejaVuSans-61"/>
     <use x="345.738281" xlink:href="#DejaVuSans-72"/>
     <use x="386.820312" xlink:href="#DejaVuSans-65"/>
     <use x="448.34375" xlink:href="#DejaVuSans-64"/>
     <use x="511.820312" xlink:href="#DejaVuSans-3a"/>
     <use x="545.511719" xlink:href="#DejaVuSans-20"/>
     <use x="577.298828" xlink:href="#DejaVuSans-30"/>
     <use x="640.921875" xlink:href="#DejaVuSans-2e"/>
     <use x="672.708984" xlink:href="#DejaVuSans-34"/>
     <use x="736.332031" xlink:href="#DejaVuSans-36"/>
     <use x="799.955078" xlink:href="#DejaVuSans-31"/>
     <use x="863.578125" xlink:href="#DejaVuSans-36"/>
    </g>
    <!-- Pearson: 0.6794, p-value: 0.0 -->
    <defs>
     <path d="M 10.984375 1.515625 
L 10.984375 10.5 
Q 14.703125 8.734375 18.5 7.8125 
Q 22.3125 6.890625 25.984375 6.890625 
Q 35.75 6.890625 40.890625 13.453125 
Q 46.046875 20.015625 46.78125 33.40625 
Q 43.953125 29.203125 39.59375 26.953125 
Q 35.25 24.703125 29.984375 24.703125 
Q 19.046875 24.703125 12.671875 31.3125 
Q 6.296875 37.9375 6.296875 49.421875 
Q 6.296875 60.640625 12.9375 67.421875 
Q 19.578125 74.21875 30.609375 74.21875 
Q 43.265625 74.21875 49.921875 64.515625 
Q 56.59375 54.828125 56.59375 36.375 
Q 56.59375 19.140625 48.40625 8.859375 
Q 40.234375 -1.421875 26.421875 -1.421875 
Q 22.703125 -1.421875 18.890625 -0.6875 
Q 15.09375 0.046875 10.984375 1.515625 
z
M 30.609375 32.421875 
Q 37.25 32.421875 41.125 36.953125 
Q 45.015625 41.5 45.015625 49.421875 
Q 45.015625 57.28125 41.125 61.84375 
Q 37.25 66.40625 30.609375 66.40625 
Q 23.96875 66.40625 20.09375 61.84375 
Q 16.21875 57.28125 16.21875 49.421875 
Q 16.21875 41.5 20.09375 36.953125 
Q 23.96875 32.421875 30.609375 32.421875 
z
" id="DejaVuSans-39"/>
     <path d="M 2.984375 54.6875 
L 12.5 54.6875 
L 29.59375 8.796875 
L 46.6875 54.6875 
L 56.203125 54.6875 
L 35.6875 0 
L 23.484375 0 
z
" id="DejaVuSans-76"/>
    </defs>
    <g style="fill:#262626;" transform="translate(207.186 64.7886)scale(0.192 -0.192)">
     <use xlink:href="#DejaVuSans-50"/>
     <use x="60.255859" xlink:href="#DejaVuSans-65"/>
     <use x="121.779297" xlink:href="#DejaVuSans-61"/>
     <use x="183.058594" xlink:href="#DejaVuSans-72"/>
     <use x="224.171875" xlink:href="#DejaVuSans-73"/>
     <use x="276.271484" xlink:href="#DejaVuSans-6f"/>
     <use x="337.453125" xlink:href="#DejaVuSans-6e"/>
     <use x="400.832031" xlink:href="#DejaVuSans-3a"/>
     <use x="434.523438" xlink:href="#DejaVuSans-20"/>
     <use x="466.310547" xlink:href="#DejaVuSans-30"/>
     <use x="529.933594" xlink:href="#DejaVuSans-2e"/>
     <use x="561.720703" xlink:href="#DejaVuSans-36"/>
     <use x="625.34375" xlink:href="#DejaVuSans-37"/>
     <use x="688.966797" xlink:href="#DejaVuSans-39"/>
     <use x="752.589844" xlink:href="#DejaVuSans-34"/>
     <use x="816.212891" xlink:href="#DejaVuSans-2c"/>
     <use x="848" xlink:href="#DejaVuSans-20"/>
     <use x="879.787109" xlink:href="#DejaVuSans-70"/>
     <use x="943.263672" xlink:href="#DejaVuSans-2d"/>
     <use x="979.316406" xlink:href="#DejaVuSans-76"/>
     <use x="1038.496094" xlink:href="#DejaVuSans-61"/>
     <use x="1099.775391" xlink:href="#DejaVuSans-6c"/>
     <use x="1127.558594" xlink:href="#DejaVuSans-75"/>
     <use x="1190.9375" xlink:href="#DejaVuSans-65"/>
     <use x="1252.460938" xlink:href="#DejaVuSans-3a"/>
     <use x="1286.152344" xlink:href="#DejaVuSans-20"/>
     <use x="1317.939453" xlink:href="#DejaVuSans-30"/>
     <use x="1381.5625" xlink:href="#DejaVuSans-2e"/>
     <use x="1413.349609" xlink:href="#DejaVuSans-30"/>
    </g>
    <!-- Spearman: 0.6731, p-value: 0.0 -->
    <defs>
     <path d="M 52 44.1875 
Q 55.375 50.25 60.0625 53.125 
Q 64.75 56 71.09375 56 
Q 79.640625 56 84.28125 50.015625 
Q 88.921875 44.046875 88.921875 33.015625 
L 88.921875 0 
L 79.890625 0 
L 79.890625 32.71875 
Q 79.890625 40.578125 77.09375 44.375 
Q 74.3125 48.1875 68.609375 48.1875 
Q 61.625 48.1875 57.5625 43.546875 
Q 53.515625 38.921875 53.515625 30.90625 
L 53.515625 0 
L 44.484375 0 
L 44.484375 32.71875 
Q 44.484375 40.625 41.703125 44.40625 
Q 38.921875 48.1875 33.109375 48.1875 
Q 26.21875 48.1875 22.15625 43.53125 
Q 18.109375 38.875 18.109375 30.90625 
L 18.109375 0 
L 9.078125 0 
L 9.078125 54.6875 
L 18.109375 54.6875 
L 18.109375 46.1875 
Q 21.1875 51.21875 25.484375 53.609375 
Q 29.78125 56 35.6875 56 
Q 41.65625 56 45.828125 52.96875 
Q 50 49.953125 52 44.1875 
z
" id="DejaVuSans-6d"/>
     <path d="M 40.578125 39.3125 
Q 47.65625 37.796875 51.625 33 
Q 55.609375 28.21875 55.609375 21.1875 
Q 55.609375 10.40625 48.1875 4.484375 
Q 40.765625 -1.421875 27.09375 -1.421875 
Q 22.515625 -1.421875 17.65625 -0.515625 
Q 12.796875 0.390625 7.625 2.203125 
L 7.625 11.71875 
Q 11.71875 9.328125 16.59375 8.109375 
Q 21.484375 6.890625 26.8125 6.890625 
Q 36.078125 6.890625 40.9375 10.546875 
Q 45.796875 14.203125 45.796875 21.1875 
Q 45.796875 27.640625 41.28125 31.265625 
Q 36.765625 34.90625 28.71875 34.90625 
L 20.21875 34.90625 
L 20.21875 43.015625 
L 29.109375 43.015625 
Q 36.375 43.015625 40.234375 45.921875 
Q 44.09375 48.828125 44.09375 54.296875 
Q 44.09375 59.90625 40.109375 62.90625 
Q 36.140625 65.921875 28.71875 65.921875 
Q 24.65625 65.921875 20.015625 65.03125 
Q 15.375 64.15625 9.8125 62.3125 
L 9.8125 71.09375 
Q 15.4375 72.65625 20.34375 73.4375 
Q 25.25 74.21875 29.59375 74.21875 
Q 40.828125 74.21875 47.359375 69.109375 
Q 53.90625 64.015625 53.90625 55.328125 
Q 53.90625 49.265625 50.4375 45.09375 
Q 46.96875 40.921875 40.578125 39.3125 
z
" id="DejaVuSans-33"/>
    </defs>
    <g style="fill:#262626;" transform="translate(196.4235 86.2884)scale(0.192 -0.192)">
     <use xlink:href="#DejaVuSans-53"/>
     <use x="63.476562" xlink:href="#DejaVuSans-70"/>
     <use x="126.953125" xlink:href="#DejaVuSans-65"/>
     <use x="188.476562" xlink:href="#DejaVuSans-61"/>
     <use x="249.755859" xlink:href="#DejaVuSans-72"/>
     <use x="290.853516" xlink:href="#DejaVuSans-6d"/>
     <use x="388.265625" xlink:href="#DejaVuSans-61"/>
     <use x="449.544922" xlink:href="#DejaVuSans-6e"/>
     <use x="512.923828" xlink:href="#DejaVuSans-3a"/>
     <use x="546.615234" xlink:href="#DejaVuSans-20"/>
     <use x="578.402344" xlink:href="#DejaVuSans-30"/>
     <use x="642.025391" xlink:href="#DejaVuSans-2e"/>
     <use x="673.8125" xlink:href="#DejaVuSans-36"/>
     <use x="737.435547" xlink:href="#DejaVuSans-37"/>
     <use x="801.058594" xlink:href="#DejaVuSans-33"/>
     <use x="864.681641" xlink:href="#DejaVuSans-31"/>
     <use x="928.304688" xlink:href="#DejaVuSans-2c"/>
     <use x="960.091797" xlink:href="#DejaVuSans-20"/>
     <use x="991.878906" xlink:href="#DejaVuSans-70"/>
     <use x="1055.355469" xlink:href="#DejaVuSans-2d"/>
     <use x="1091.408203" xlink:href="#DejaVuSans-76"/>
     <use x="1150.587891" xlink:href="#DejaVuSans-61"/>
     <use x="1211.867188" xlink:href="#DejaVuSans-6c"/>
     <use x="1239.650391" xlink:href="#DejaVuSans-75"/>
     <use x="1303.029297" xlink:href="#DejaVuSans-65"/>
     <use x="1364.552734" xlink:href="#DejaVuSans-3a"/>
     <use x="1398.244141" xlink:href="#DejaVuSans-20"/>
     <use x="1430.03125" xlink:href="#DejaVuSans-30"/>
     <use x="1493.654297" xlink:href="#DejaVuSans-2e"/>
     <use x="1525.441406" xlink:href="#DejaVuSans-30"/>
    </g>
   </g>
  </g>
 </g>
 <defs>
  <clipPath id="p6a1c0ce0ab">
   <rect height="543.6" width="558" x="69.9735" y="92.2884"/>
  </clipPath>
 </defs>
</svg>
