<?xml version="1.0" encoding="utf-8" standalone="no"?>
<!DOCTYPE svg PUBLIC "-//W3C//DTD SVG 1.1//EN"
  "http://www.w3.org/Graphics/SVG/1.1/DTD/svg11.dtd">
<!-- Created with matplotlib (http://matplotlib.org/) -->
<svg height="599pt" version="1.1" viewBox="0 0 657 599" width="657pt" xmlns="http://www.w3.org/2000/svg" xmlns:xlink="http://www.w3.org/1999/xlink">
 <defs>
  <style type="text/css">
*{stroke-linecap:butt;stroke-linejoin:round;}
  </style>
 </defs>
 <g id="figure_1">
  <g id="patch_1">
   <path d="M 0 599.1321 
L 657.400368 599.1321 
L 657.400368 0 
L 0 0 
z
" style="fill:#ffffff;"/>
  </g>
  <g id="axes_1">
   <g id="patch_2">
    <path d="M 67.678 536.8166 
L 514.77505 536.8166 
L 514.77505 70.7886 
L 67.678 70.7886 
z
" style="fill:#eaeaf2;"/>
   </g>
   <g id="matplotlib.axis_1">
    <g id="xtick_1">
     <g id="line2d_1">
      <path clip-path="url(#pbdb0b731cc)" d="M 84.350875 536.8166 
L 84.350875 70.7886 
" style="fill:none;stroke:#ffffff;stroke-linecap:round;stroke-width:2;"/>
     </g>
     <g id="text_1">
      <!-- 0 -->
      <defs>
       <path d="M 31.78125 66.40625 
Q 24.171875 66.40625 20.328125 58.90625 
Q 16.5 51.421875 16.5 36.375 
Q 16.5 21.390625 20.328125 13.890625 
Q 24.171875 6.390625 31.78125 6.390625 
Q 39.453125 6.390625 43.28125 13.890625 
Q 47.125 21.390625 47.125 36.375 
Q 47.125 51.421875 43.28125 58.90625 
Q 39.453125 66.40625 31.78125 66.40625 
z
M 31.78125 74.21875 
Q 44.046875 74.21875 50.515625 64.515625 
Q 56.984375 54.828125 56.984375 36.375 
Q 56.984375 17.96875 50.515625 8.265625 
Q 44.046875 -1.421875 31.78125 -1.421875 
Q 19.53125 -1.421875 13.0625 8.265625 
Q 6.59375 17.96875 6.59375 36.375 
Q 6.59375 54.828125 13.0625 64.515625 
Q 19.53125 74.21875 31.78125 74.21875 
z
" id="DejaVuSans-30"/>
      </defs>
      <g style="fill:#262626;" transform="translate(78.751875 565.68985)scale(0.176 -0.176)">
       <use xlink:href="#DejaVuSans-30"/>
      </g>
     </g>
    </g>
    <g id="xtick_2">
     <g id="line2d_2">
      <path clip-path="url(#pbdb0b731cc)" d="M 166.105883 536.8166 
L 166.105883 70.7886 
" style="fill:none;stroke:#ffffff;stroke-linecap:round;stroke-width:2;"/>
     </g>
     <g id="text_2">
      <!-- 20 -->
      <defs>
       <path d="M 19.1875 8.296875 
L 53.609375 8.296875 
L 53.609375 0 
L 7.328125 0 
L 7.328125 8.296875 
Q 12.9375 14.109375 22.625 23.890625 
Q 32.328125 33.6875 34.8125 36.53125 
Q 39.546875 41.84375 41.421875 45.53125 
Q 43.3125 49.21875 43.3125 52.78125 
Q 43.3125 58.59375 39.234375 62.25 
Q 35.15625 65.921875 28.609375 65.921875 
Q 23.96875 65.921875 18.8125 64.3125 
Q 13.671875 62.703125 7.8125 59.421875 
L 7.8125 69.390625 
Q 13.765625 71.78125 18.9375 73 
Q 24.125 74.21875 28.421875 74.21875 
Q 39.75 74.21875 46.484375 68.546875 
Q 53.21875 62.890625 53.21875 53.421875 
Q 53.21875 48.921875 51.53125 44.890625 
Q 49.859375 40.875 45.40625 35.40625 
Q 44.1875 33.984375 37.640625 27.21875 
Q 31.109375 20.453125 19.1875 8.296875 
z
" id="DejaVuSans-32"/>
      </defs>
      <g style="fill:#262626;" transform="translate(154.907883 565.68985)scale(0.176 -0.176)">
       <use xlink:href="#DejaVuSans-32"/>
       <use x="63.623047" xlink:href="#DejaVuSans-30"/>
      </g>
     </g>
    </g>
    <g id="xtick_3">
     <g id="line2d_3">
      <path clip-path="url(#pbdb0b731cc)" d="M 247.860891 536.8166 
L 247.860891 70.7886 
" style="fill:none;stroke:#ffffff;stroke-linecap:round;stroke-width:2;"/>
     </g>
     <g id="text_3">
      <!-- 40 -->
      <defs>
       <path d="M 37.796875 64.3125 
L 12.890625 25.390625 
L 37.796875 25.390625 
z
M 35.203125 72.90625 
L 47.609375 72.90625 
L 47.609375 25.390625 
L 58.015625 25.390625 
L 58.015625 17.1875 
L 47.609375 17.1875 
L 47.609375 0 
L 37.796875 0 
L 37.796875 17.1875 
L 4.890625 17.1875 
L 4.890625 26.703125 
z
" id="DejaVuSans-34"/>
      </defs>
      <g style="fill:#262626;" transform="translate(236.662891 565.68985)scale(0.176 -0.176)">
       <use xlink:href="#DejaVuSans-34"/>
       <use x="63.623047" xlink:href="#DejaVuSans-30"/>
      </g>
     </g>
    </g>
    <g id="xtick_4">
     <g id="line2d_4">
      <path clip-path="url(#pbdb0b731cc)" d="M 329.615899 536.8166 
L 329.615899 70.7886 
" style="fill:none;stroke:#ffffff;stroke-linecap:round;stroke-width:2;"/>
     </g>
     <g id="text_4">
      <!-- 60 -->
      <defs>
       <path d="M 33.015625 40.375 
Q 26.375 40.375 22.484375 35.828125 
Q 18.609375 31.296875 18.609375 23.390625 
Q 18.609375 15.53125 22.484375 10.953125 
Q 26.375 6.390625 33.015625 6.390625 
Q 39.65625 6.390625 43.53125 10.953125 
Q 47.40625 15.53125 47.40625 23.390625 
Q 47.40625 31.296875 43.53125 35.828125 
Q 39.65625 40.375 33.015625 40.375 
z
M 52.59375 71.296875 
L 52.59375 62.3125 
Q 48.875 64.0625 45.09375 64.984375 
Q 41.3125 65.921875 37.59375 65.921875 
Q 27.828125 65.921875 22.671875 59.328125 
Q 17.53125 52.734375 16.796875 39.40625 
Q 19.671875 43.65625 24.015625 45.921875 
Q 28.375 48.1875 33.59375 48.1875 
Q 44.578125 48.1875 50.953125 41.515625 
Q 57.328125 34.859375 57.328125 23.390625 
Q 57.328125 12.15625 50.6875 5.359375 
Q 44.046875 -1.421875 33.015625 -1.421875 
Q 20.359375 -1.421875 13.671875 8.265625 
Q 6.984375 17.96875 6.984375 36.375 
Q 6.984375 53.65625 15.1875 63.9375 
Q 23.390625 74.21875 37.203125 74.21875 
Q 40.921875 74.21875 44.703125 73.484375 
Q 48.484375 72.75 52.59375 71.296875 
z
" id="DejaVuSans-36"/>
      </defs>
      <g style="fill:#262626;" transform="translate(318.417899 565.68985)scale(0.176 -0.176)">
       <use xlink:href="#DejaVuSans-36"/>
       <use x="63.623047" xlink:href="#DejaVuSans-30"/>
      </g>
     </g>
    </g>
    <g id="xtick_5">
     <g id="line2d_5">
      <path clip-path="url(#pbdb0b731cc)" d="M 411.370907 536.8166 
L 411.370907 70.7886 
" style="fill:none;stroke:#ffffff;stroke-linecap:round;stroke-width:2;"/>
     </g>
     <g id="text_5">
      <!-- 80 -->
      <defs>
       <path d="M 31.78125 34.625 
Q 24.75 34.625 20.71875 30.859375 
Q 16.703125 27.09375 16.703125 20.515625 
Q 16.703125 13.921875 20.71875 10.15625 
Q 24.75 6.390625 31.78125 6.390625 
Q 38.8125 6.390625 42.859375 10.171875 
Q 46.921875 13.96875 46.921875 20.515625 
Q 46.921875 27.09375 42.890625 30.859375 
Q 38.875 34.625 31.78125 34.625 
z
M 21.921875 38.8125 
Q 15.578125 40.375 12.03125 44.71875 
Q 8.5 49.078125 8.5 55.328125 
Q 8.5 64.0625 14.71875 69.140625 
Q 20.953125 74.21875 31.78125 74.21875 
Q 42.671875 74.21875 48.875 69.140625 
Q 55.078125 64.0625 55.078125 55.328125 
Q 55.078125 49.078125 51.53125 44.71875 
Q 48 40.375 41.703125 38.8125 
Q 48.828125 37.15625 52.796875 32.3125 
Q 56.78125 27.484375 56.78125 20.515625 
Q 56.78125 9.90625 50.3125 4.234375 
Q 43.84375 -1.421875 31.78125 -1.421875 
Q 19.734375 -1.421875 13.25 4.234375 
Q 6.78125 9.90625 6.78125 20.515625 
Q 6.78125 27.484375 10.78125 32.3125 
Q 14.796875 37.15625 21.921875 38.8125 
z
M 18.3125 54.390625 
Q 18.3125 48.734375 21.84375 45.5625 
Q 25.390625 42.390625 31.78125 42.390625 
Q 38.140625 42.390625 41.71875 45.5625 
Q 45.3125 48.734375 45.3125 54.390625 
Q 45.3125 60.0625 41.71875 63.234375 
Q 38.140625 66.40625 31.78125 66.40625 
Q 25.390625 66.40625 21.84375 63.234375 
Q 18.3125 60.0625 18.3125 54.390625 
z
" id="DejaVuSans-38"/>
      </defs>
      <g style="fill:#262626;" transform="translate(400.172907 565.68985)scale(0.176 -0.176)">
       <use xlink:href="#DejaVuSans-38"/>
       <use x="63.623047" xlink:href="#DejaVuSans-30"/>
      </g>
     </g>
    </g>
    <g id="xtick_6">
     <g id="line2d_6">
      <path clip-path="url(#pbdb0b731cc)" d="M 493.125915 536.8166 
L 493.125915 70.7886 
" style="fill:none;stroke:#ffffff;stroke-linecap:round;stroke-width:2;"/>
     </g>
     <g id="text_6">
      <!-- 100 -->
      <defs>
       <path d="M 12.40625 8.296875 
L 28.515625 8.296875 
L 28.515625 63.921875 
L 10.984375 60.40625 
L 10.984375 69.390625 
L 28.421875 72.90625 
L 38.28125 72.90625 
L 38.28125 8.296875 
L 54.390625 8.296875 
L 54.390625 0 
L 12.40625 0 
z
" id="DejaVuSans-31"/>
      </defs>
      <g style="fill:#262626;" transform="translate(476.328915 565.68985)scale(0.176 -0.176)">
       <use xlink:href="#DejaVuSans-31"/>
       <use x="63.623047" xlink:href="#DejaVuSans-30"/>
       <use x="127.246094" xlink:href="#DejaVuSans-30"/>
      </g>
     </g>
    </g>
    <g id="text_7">
     <!-- Symmetric Absolute Percentage Error -->
     <defs>
      <path d="M 53.515625 70.515625 
L 53.515625 60.890625 
Q 47.90625 63.578125 42.921875 64.890625 
Q 37.9375 66.21875 33.296875 66.21875 
Q 25.25 66.21875 20.875 63.09375 
Q 16.5 59.96875 16.5 54.203125 
Q 16.5 49.359375 19.40625 46.890625 
Q 22.3125 44.4375 30.421875 42.921875 
L 36.375 41.703125 
Q 47.40625 39.59375 52.65625 34.296875 
Q 57.90625 29 57.90625 20.125 
Q 57.90625 9.515625 50.796875 4.046875 
Q 43.703125 -1.421875 29.984375 -1.421875 
Q 24.8125 -1.421875 18.96875 -0.25 
Q 13.140625 0.921875 6.890625 3.21875 
L 6.890625 13.375 
Q 12.890625 10.015625 18.65625 8.296875 
Q 24.421875 6.59375 29.984375 6.59375 
Q 38.421875 6.59375 43.015625 9.90625 
Q 47.609375 13.234375 47.609375 19.390625 
Q 47.609375 24.75 44.3125 27.78125 
Q 41.015625 30.8125 33.5 32.328125 
L 27.484375 33.5 
Q 16.453125 35.6875 11.515625 40.375 
Q 6.59375 45.0625 6.59375 53.421875 
Q 6.59375 63.09375 13.40625 68.65625 
Q 20.21875 74.21875 32.171875 74.21875 
Q 37.3125 74.21875 42.625 73.28125 
Q 47.953125 72.359375 53.515625 70.515625 
z
" id="DejaVuSans-53"/>
      <path d="M 32.171875 -5.078125 
Q 28.375 -14.84375 24.75 -17.8125 
Q 21.140625 -20.796875 15.09375 -20.796875 
L 7.90625 -20.796875 
L 7.90625 -13.28125 
L 13.1875 -13.28125 
Q 16.890625 -13.28125 18.9375 -11.515625 
Q 21 -9.765625 23.484375 -3.21875 
L 25.09375 0.875 
L 2.984375 54.6875 
L 12.5 54.6875 
L 29.59375 11.921875 
L 46.6875 54.6875 
L 56.203125 54.6875 
z
" id="DejaVuSans-79"/>
      <path d="M 52 44.1875 
Q 55.375 50.25 60.0625 53.125 
Q 64.75 56 71.09375 56 
Q 79.640625 56 84.28125 50.015625 
Q 88.921875 44.046875 88.921875 33.015625 
L 88.921875 0 
L 79.890625 0 
L 79.890625 32.71875 
Q 79.890625 40.578125 77.09375 44.375 
Q 74.3125 48.1875 68.609375 48.1875 
Q 61.625 48.1875 57.5625 43.546875 
Q 53.515625 38.921875 53.515625 30.90625 
L 53.515625 0 
L 44.484375 0 
L 44.484375 32.71875 
Q 44.484375 40.625 41.703125 44.40625 
Q 38.921875 48.1875 33.109375 48.1875 
Q 26.21875 48.1875 22.15625 43.53125 
Q 18.109375 38.875 18.109375 30.90625 
L 18.109375 0 
L 9.078125 0 
L 9.078125 54.6875 
L 18.109375 54.6875 
L 18.109375 46.1875 
Q 21.1875 51.21875 25.484375 53.609375 
Q 29.78125 56 35.6875 56 
Q 41.65625 56 45.828125 52.96875 
Q 50 49.953125 52 44.1875 
z
" id="DejaVuSans-6d"/>
      <path d="M 56.203125 29.59375 
L 56.203125 25.203125 
L 14.890625 25.203125 
Q 15.484375 15.921875 20.484375 11.0625 
Q 25.484375 6.203125 34.421875 6.203125 
Q 39.59375 6.203125 44.453125 7.46875 
Q 49.3125 8.734375 54.109375 11.28125 
L 54.109375 2.78125 
Q 49.265625 0.734375 44.1875 -0.34375 
Q 39.109375 -1.421875 33.890625 -1.421875 
Q 20.796875 -1.421875 13.15625 6.1875 
Q 5.515625 13.8125 5.515625 26.8125 
Q 5.515625 40.234375 12.765625 48.109375 
Q 20.015625 56 32.328125 56 
Q 43.359375 56 49.78125 48.890625 
Q 56.203125 41.796875 56.203125 29.59375 
z
M 47.21875 32.234375 
Q 47.125 39.59375 43.09375 43.984375 
Q 39.0625 48.390625 32.421875 48.390625 
Q 24.90625 48.390625 20.390625 44.140625 
Q 15.875 39.890625 15.1875 32.171875 
z
" id="DejaVuSans-65"/>
      <path d="M 18.3125 70.21875 
L 18.3125 54.6875 
L 36.8125 54.6875 
L 36.8125 47.703125 
L 18.3125 47.703125 
L 18.3125 18.015625 
Q 18.3125 11.328125 20.140625 9.421875 
Q 21.96875 7.515625 27.59375 7.515625 
L 36.8125 7.515625 
L 36.8125 0 
L 27.59375 0 
Q 17.1875 0 13.234375 3.875 
Q 9.28125 7.765625 9.28125 18.015625 
L 9.28125 47.703125 
L 2.6875 47.703125 
L 2.6875 54.6875 
L 9.28125 54.6875 
L 9.28125 70.21875 
z
" id="DejaVuSans-74"/>
      <path d="M 41.109375 46.296875 
Q 39.59375 47.171875 37.8125 47.578125 
Q 36.03125 48 33.890625 48 
Q 26.265625 48 22.1875 43.046875 
Q 18.109375 38.09375 18.109375 28.8125 
L 18.109375 0 
L 9.078125 0 
L 9.078125 54.6875 
L 18.109375 54.6875 
L 18.109375 46.1875 
Q 20.953125 51.171875 25.484375 53.578125 
Q 30.03125 56 36.53125 56 
Q 37.453125 56 38.578125 55.875 
Q 39.703125 55.765625 41.0625 55.515625 
z
" id="DejaVuSans-72"/>
      <path d="M 9.421875 54.6875 
L 18.40625 54.6875 
L 18.40625 0 
L 9.421875 0 
z
M 9.421875 75.984375 
L 18.40625 75.984375 
L 18.40625 64.59375 
L 9.421875 64.59375 
z
" id="DejaVuSans-69"/>
      <path d="M 48.78125 52.59375 
L 48.78125 44.1875 
Q 44.96875 46.296875 41.140625 47.34375 
Q 37.3125 48.390625 33.40625 48.390625 
Q 24.65625 48.390625 19.8125 42.84375 
Q 14.984375 37.3125 14.984375 27.296875 
Q 14.984375 17.28125 19.8125 11.734375 
Q 24.65625 6.203125 33.40625 6.203125 
Q 37.3125 6.203125 41.140625 7.25 
Q 44.96875 8.296875 48.78125 10.40625 
L 48.78125 2.09375 
Q 45.015625 0.34375 40.984375 -0.53125 
Q 36.96875 -1.421875 32.421875 -1.421875 
Q 20.0625 -1.421875 12.78125 6.34375 
Q 5.515625 14.109375 5.515625 27.296875 
Q 5.515625 40.671875 12.859375 48.328125 
Q 20.21875 56 33.015625 56 
Q 37.15625 56 41.109375 55.140625 
Q 45.0625 54.296875 48.78125 52.59375 
z
" id="DejaVuSans-63"/>
      <path id="DejaVuSans-20"/>
      <path d="M 34.1875 63.1875 
L 20.796875 26.90625 
L 47.609375 26.90625 
z
M 28.609375 72.90625 
L 39.796875 72.90625 
L 67.578125 0 
L 57.328125 0 
L 50.6875 18.703125 
L 17.828125 18.703125 
L 11.1875 0 
L 0.78125 0 
z
" id="DejaVuSans-41"/>
      <path d="M 48.6875 27.296875 
Q 48.6875 37.203125 44.609375 42.84375 
Q 40.53125 48.484375 33.40625 48.484375 
Q 26.265625 48.484375 22.1875 42.84375 
Q 18.109375 37.203125 18.109375 27.296875 
Q 18.109375 17.390625 22.1875 11.75 
Q 26.265625 6.109375 33.40625 6.109375 
Q 40.53125 6.109375 44.609375 11.75 
Q 48.6875 17.390625 48.6875 27.296875 
z
M 18.109375 46.390625 
Q 20.953125 51.265625 25.265625 53.625 
Q 29.59375 56 35.59375 56 
Q 45.5625 56 51.78125 48.09375 
Q 58.015625 40.1875 58.015625 27.296875 
Q 58.015625 14.40625 51.78125 6.484375 
Q 45.5625 -1.421875 35.59375 -1.421875 
Q 29.59375 -1.421875 25.265625 0.953125 
Q 20.953125 3.328125 18.109375 8.203125 
L 18.109375 0 
L 9.078125 0 
L 9.078125 75.984375 
L 18.109375 75.984375 
z
" id="DejaVuSans-62"/>
      <path d="M 44.28125 53.078125 
L 44.28125 44.578125 
Q 40.484375 46.53125 36.375 47.5 
Q 32.28125 48.484375 27.875 48.484375 
Q 21.1875 48.484375 17.84375 46.4375 
Q 14.5 44.390625 14.5 40.28125 
Q 14.5 37.15625 16.890625 35.375 
Q 19.28125 33.59375 26.515625 31.984375 
L 29.59375 31.296875 
Q 39.15625 29.25 43.1875 25.515625 
Q 47.21875 21.78125 47.21875 15.09375 
Q 47.21875 7.46875 41.1875 3.015625 
Q 35.15625 -1.421875 24.609375 -1.421875 
Q 20.21875 -1.421875 15.453125 -0.5625 
Q 10.6875 0.296875 5.421875 2 
L 5.421875 11.28125 
Q 10.40625 8.6875 15.234375 7.390625 
Q 20.0625 6.109375 24.8125 6.109375 
Q 31.15625 6.109375 34.5625 8.28125 
Q 37.984375 10.453125 37.984375 14.40625 
Q 37.984375 18.0625 35.515625 20.015625 
Q 33.0625 21.96875 24.703125 23.78125 
L 21.578125 24.515625 
Q 13.234375 26.265625 9.515625 29.90625 
Q 5.8125 33.546875 5.8125 39.890625 
Q 5.8125 47.609375 11.28125 51.796875 
Q 16.75 56 26.8125 56 
Q 31.78125 56 36.171875 55.265625 
Q 40.578125 54.546875 44.28125 53.078125 
z
" id="DejaVuSans-73"/>
      <path d="M 30.609375 48.390625 
Q 23.390625 48.390625 19.1875 42.75 
Q 14.984375 37.109375 14.984375 27.296875 
Q 14.984375 17.484375 19.15625 11.84375 
Q 23.34375 6.203125 30.609375 6.203125 
Q 37.796875 6.203125 41.984375 11.859375 
Q 46.1875 17.53125 46.1875 27.296875 
Q 46.1875 37.015625 41.984375 42.703125 
Q 37.796875 48.390625 30.609375 48.390625 
z
M 30.609375 56 
Q 42.328125 56 49.015625 48.375 
Q 55.71875 40.765625 55.71875 27.296875 
Q 55.71875 13.875 49.015625 6.21875 
Q 42.328125 -1.421875 30.609375 -1.421875 
Q 18.84375 -1.421875 12.171875 6.21875 
Q 5.515625 13.875 5.515625 27.296875 
Q 5.515625 40.765625 12.171875 48.375 
Q 18.84375 56 30.609375 56 
z
" id="DejaVuSans-6f"/>
      <path d="M 9.421875 75.984375 
L 18.40625 75.984375 
L 18.40625 0 
L 9.421875 0 
z
" id="DejaVuSans-6c"/>
      <path d="M 8.5 21.578125 
L 8.5 54.6875 
L 17.484375 54.6875 
L 17.484375 21.921875 
Q 17.484375 14.15625 20.5 10.265625 
Q 23.53125 6.390625 29.59375 6.390625 
Q 36.859375 6.390625 41.078125 11.03125 
Q 45.3125 15.671875 45.3125 23.6875 
L 45.3125 54.6875 
L 54.296875 54.6875 
L 54.296875 0 
L 45.3125 0 
L 45.3125 8.40625 
Q 42.046875 3.421875 37.71875 1 
Q 33.40625 -1.421875 27.6875 -1.421875 
Q 18.265625 -1.421875 13.375 4.4375 
Q 8.5 10.296875 8.5 21.578125 
z
M 31.109375 56 
z
" id="DejaVuSans-75"/>
      <path d="M 19.671875 64.796875 
L 19.671875 37.40625 
L 32.078125 37.40625 
Q 38.96875 37.40625 42.71875 40.96875 
Q 46.484375 44.53125 46.484375 51.125 
Q 46.484375 57.671875 42.71875 61.234375 
Q 38.96875 64.796875 32.078125 64.796875 
z
M 9.8125 72.90625 
L 32.078125 72.90625 
Q 44.34375 72.90625 50.609375 67.359375 
Q 56.890625 61.8125 56.890625 51.125 
Q 56.890625 40.328125 50.609375 34.8125 
Q 44.34375 29.296875 32.078125 29.296875 
L 19.671875 29.296875 
L 19.671875 0 
L 9.8125 0 
z
" id="DejaVuSans-50"/>
      <path d="M 54.890625 33.015625 
L 54.890625 0 
L 45.90625 0 
L 45.90625 32.71875 
Q 45.90625 40.484375 42.875 44.328125 
Q 39.84375 48.1875 33.796875 48.1875 
Q 26.515625 48.1875 22.3125 43.546875 
Q 18.109375 38.921875 18.109375 30.90625 
L 18.109375 0 
L 9.078125 0 
L 9.078125 54.6875 
L 18.109375 54.6875 
L 18.109375 46.1875 
Q 21.34375 51.125 25.703125 53.5625 
Q 30.078125 56 35.796875 56 
Q 45.21875 56 50.046875 50.171875 
Q 54.890625 44.34375 54.890625 33.015625 
z
" id="DejaVuSans-6e"/>
      <path d="M 34.28125 27.484375 
Q 23.390625 27.484375 19.1875 25 
Q 14.984375 22.515625 14.984375 16.5 
Q 14.984375 11.71875 18.140625 8.90625 
Q 21.296875 6.109375 26.703125 6.109375 
Q 34.1875 6.109375 38.703125 11.40625 
Q 43.21875 16.703125 43.21875 25.484375 
L 43.21875 27.484375 
z
M 52.203125 31.203125 
L 52.203125 0 
L 43.21875 0 
L 43.21875 8.296875 
Q 40.140625 3.328125 35.546875 0.953125 
Q 30.953125 -1.421875 24.3125 -1.421875 
Q 15.921875 -1.421875 10.953125 3.296875 
Q 6 8.015625 6 15.921875 
Q 6 25.140625 12.171875 29.828125 
Q 18.359375 34.515625 30.609375 34.515625 
L 43.21875 34.515625 
L 43.21875 35.40625 
Q 43.21875 41.609375 39.140625 45 
Q 35.0625 48.390625 27.6875 48.390625 
Q 23 48.390625 18.546875 47.265625 
Q 14.109375 46.140625 10.015625 43.890625 
L 10.015625 52.203125 
Q 14.9375 54.109375 19.578125 55.046875 
Q 24.21875 56 28.609375 56 
Q 40.484375 56 46.34375 49.84375 
Q 52.203125 43.703125 52.203125 31.203125 
z
" id="DejaVuSans-61"/>
      <path d="M 45.40625 27.984375 
Q 45.40625 37.75 41.375 43.109375 
Q 37.359375 48.484375 30.078125 48.484375 
Q 22.859375 48.484375 18.828125 43.109375 
Q 14.796875 37.75 14.796875 27.984375 
Q 14.796875 18.265625 18.828125 12.890625 
Q 22.859375 7.515625 30.078125 7.515625 
Q 37.359375 7.515625 41.375 12.890625 
Q 45.40625 18.265625 45.40625 27.984375 
z
M 54.390625 6.78125 
Q 54.390625 -7.171875 48.1875 -13.984375 
Q 42 -20.796875 29.203125 -20.796875 
Q 24.46875 -20.796875 20.265625 -20.09375 
Q 16.0625 -19.390625 12.109375 -17.921875 
L 12.109375 -9.1875 
Q 16.0625 -11.328125 19.921875 -12.34375 
Q 23.78125 -13.375 27.78125 -13.375 
Q 36.625 -13.375 41.015625 -8.765625 
Q 45.40625 -4.15625 45.40625 5.171875 
L 45.40625 9.625 
Q 42.625 4.78125 38.28125 2.390625 
Q 33.9375 0 27.875 0 
Q 17.828125 0 11.671875 7.65625 
Q 5.515625 15.328125 5.515625 27.984375 
Q 5.515625 40.671875 11.671875 48.328125 
Q 17.828125 56 27.875 56 
Q 33.9375 56 38.28125 53.609375 
Q 42.625 51.21875 45.40625 46.390625 
L 45.40625 54.6875 
L 54.390625 54.6875 
z
" id="DejaVuSans-67"/>
      <path d="M 9.8125 72.90625 
L 55.90625 72.90625 
L 55.90625 64.59375 
L 19.671875 64.59375 
L 19.671875 43.015625 
L 54.390625 43.015625 
L 54.390625 34.71875 
L 19.671875 34.71875 
L 19.671875 8.296875 
L 56.78125 8.296875 
L 56.78125 0 
L 9.8125 0 
z
" id="DejaVuSans-45"/>
     </defs>
     <g style="fill:#262626;" transform="translate(109.747525 587.9391)scale(0.192 -0.192)">
      <use xlink:href="#DejaVuSans-53"/>
      <use x="63.476562" xlink:href="#DejaVuSans-79"/>
      <use x="122.65625" xlink:href="#DejaVuSans-6d"/>
      <use x="220.068359" xlink:href="#DejaVuSans-6d"/>
      <use x="317.480469" xlink:href="#DejaVuSans-65"/>
      <use x="379.003906" xlink:href="#DejaVuSans-74"/>
      <use x="418.212891" xlink:href="#DejaVuSans-72"/>
      <use x="459.326172" xlink:href="#DejaVuSans-69"/>
      <use x="487.109375" xlink:href="#DejaVuSans-63"/>
      <use x="542.089844" xlink:href="#DejaVuSans-20"/>
      <use x="573.876953" xlink:href="#DejaVuSans-41"/>
      <use x="642.285156" xlink:href="#DejaVuSans-62"/>
      <use x="705.761719" xlink:href="#DejaVuSans-73"/>
      <use x="757.861328" xlink:href="#DejaVuSans-6f"/>
      <use x="819.042969" xlink:href="#DejaVuSans-6c"/>
      <use x="846.826172" xlink:href="#DejaVuSans-75"/>
      <use x="910.205078" xlink:href="#DejaVuSans-74"/>
      <use x="949.414062" xlink:href="#DejaVuSans-65"/>
      <use x="1010.9375" xlink:href="#DejaVuSans-20"/>
      <use x="1042.724609" xlink:href="#DejaVuSans-50"/>
      <use x="1102.980469" xlink:href="#DejaVuSans-65"/>
      <use x="1164.503906" xlink:href="#DejaVuSans-72"/>
      <use x="1205.585938" xlink:href="#DejaVuSans-63"/>
      <use x="1260.566406" xlink:href="#DejaVuSans-65"/>
      <use x="1322.089844" xlink:href="#DejaVuSans-6e"/>
      <use x="1385.46875" xlink:href="#DejaVuSans-74"/>
      <use x="1424.677734" xlink:href="#DejaVuSans-61"/>
      <use x="1485.957031" xlink:href="#DejaVuSans-67"/>
      <use x="1549.433594" xlink:href="#DejaVuSans-65"/>
      <use x="1610.957031" xlink:href="#DejaVuSans-20"/>
      <use x="1642.744141" xlink:href="#DejaVuSans-45"/>
      <use x="1705.927734" xlink:href="#DejaVuSans-72"/>
      <use x="1747.025391" xlink:href="#DejaVuSans-72"/>
      <use x="1788.107422" xlink:href="#DejaVuSans-6f"/>
      <use x="1849.289062" xlink:href="#DejaVuSans-72"/>
     </g>
    </g>
   </g>
   <g id="matplotlib.axis_2">
    <g id="ytick_1">
     <g id="line2d_7">
      <path clip-path="url(#pbdb0b731cc)" d="M 67.678 522.633339 
L 514.77505 522.633339 
" style="fill:none;stroke:#ffffff;stroke-linecap:round;stroke-width:2;"/>
     </g>
     <g id="text_8">
      <!-- 27 -->
      <defs>
       <path d="M 8.203125 72.90625 
L 55.078125 72.90625 
L 55.078125 68.703125 
L 28.609375 0 
L 18.3125 0 
L 43.21875 64.59375 
L 8.203125 64.59375 
z
" id="DejaVuSans-37"/>
      </defs>
      <g style="fill:#262626;" transform="translate(29.782 529.319964)scale(0.176 -0.176)">
       <use xlink:href="#DejaVuSans-32"/>
       <use x="63.623047" xlink:href="#DejaVuSans-37"/>
      </g>
     </g>
    </g>
    <g id="ytick_2">
     <g id="line2d_8">
      <path clip-path="url(#pbdb0b731cc)" d="M 67.678 424.861668 
L 514.77505 424.861668 
" style="fill:none;stroke:#ffffff;stroke-linecap:round;stroke-width:2;"/>
     </g>
     <g id="text_9">
      <!-- 28 -->
      <g style="fill:#262626;" transform="translate(29.782 431.548293)scale(0.176 -0.176)">
       <use xlink:href="#DejaVuSans-32"/>
       <use x="63.623047" xlink:href="#DejaVuSans-38"/>
      </g>
     </g>
    </g>
    <g id="ytick_3">
     <g id="line2d_9">
      <path clip-path="url(#pbdb0b731cc)" d="M 67.678 327.089997 
L 514.77505 327.089997 
" style="fill:none;stroke:#ffffff;stroke-linecap:round;stroke-width:2;"/>
     </g>
     <g id="text_10">
      <!-- 29 -->
      <defs>
       <path d="M 10.984375 1.515625 
L 10.984375 10.5 
Q 14.703125 8.734375 18.5 7.8125 
Q 22.3125 6.890625 25.984375 6.890625 
Q 35.75 6.890625 40.890625 13.453125 
Q 46.046875 20.015625 46.78125 33.40625 
Q 43.953125 29.203125 39.59375 26.953125 
Q 35.25 24.703125 29.984375 24.703125 
Q 19.046875 24.703125 12.671875 31.3125 
Q 6.296875 37.9375 6.296875 49.421875 
Q 6.296875 60.640625 12.9375 67.421875 
Q 19.578125 74.21875 30.609375 74.21875 
Q 43.265625 74.21875 49.921875 64.515625 
Q 56.59375 54.828125 56.59375 36.375 
Q 56.59375 19.140625 48.40625 8.859375 
Q 40.234375 -1.421875 26.421875 -1.421875 
Q 22.703125 -1.421875 18.890625 -0.6875 
Q 15.09375 0.046875 10.984375 1.515625 
z
M 30.609375 32.421875 
Q 37.25 32.421875 41.125 36.953125 
Q 45.015625 41.5 45.015625 49.421875 
Q 45.015625 57.28125 41.125 61.84375 
Q 37.25 66.40625 30.609375 66.40625 
Q 23.96875 66.40625 20.09375 61.84375 
Q 16.21875 57.28125 16.21875 49.421875 
Q 16.21875 41.5 20.09375 36.953125 
Q 23.96875 32.421875 30.609375 32.421875 
z
" id="DejaVuSans-39"/>
      </defs>
      <g style="fill:#262626;" transform="translate(29.782 333.776622)scale(0.176 -0.176)">
       <use xlink:href="#DejaVuSans-32"/>
       <use x="63.623047" xlink:href="#DejaVuSans-39"/>
      </g>
     </g>
    </g>
    <g id="ytick_4">
     <g id="line2d_10">
      <path clip-path="url(#pbdb0b731cc)" d="M 67.678 229.318326 
L 514.77505 229.318326 
" style="fill:none;stroke:#ffffff;stroke-linecap:round;stroke-width:2;"/>
     </g>
     <g id="text_11">
      <!-- 30 -->
      <defs>
       <path d="M 40.578125 39.3125 
Q 47.65625 37.796875 51.625 33 
Q 55.609375 28.21875 55.609375 21.1875 
Q 55.609375 10.40625 48.1875 4.484375 
Q 40.765625 -1.421875 27.09375 -1.421875 
Q 22.515625 -1.421875 17.65625 -0.515625 
Q 12.796875 0.390625 7.625 2.203125 
L 7.625 11.71875 
Q 11.71875 9.328125 16.59375 8.109375 
Q 21.484375 6.890625 26.8125 6.890625 
Q 36.078125 6.890625 40.9375 10.546875 
Q 45.796875 14.203125 45.796875 21.1875 
Q 45.796875 27.640625 41.28125 31.265625 
Q 36.765625 34.90625 28.71875 34.90625 
L 20.21875 34.90625 
L 20.21875 43.015625 
L 29.109375 43.015625 
Q 36.375 43.015625 40.234375 45.921875 
Q 44.09375 48.828125 44.09375 54.296875 
Q 44.09375 59.90625 40.109375 62.90625 
Q 36.140625 65.921875 28.71875 65.921875 
Q 24.65625 65.921875 20.015625 65.03125 
Q 15.375 64.15625 9.8125 62.3125 
L 9.8125 71.09375 
Q 15.4375 72.65625 20.34375 73.4375 
Q 25.25 74.21875 29.59375 74.21875 
Q 40.828125 74.21875 47.359375 69.109375 
Q 53.90625 64.015625 53.90625 55.328125 
Q 53.90625 49.265625 50.4375 45.09375 
Q 46.96875 40.921875 40.578125 39.3125 
z
" id="DejaVuSans-33"/>
      </defs>
      <g style="fill:#262626;" transform="translate(29.782 236.004951)scale(0.176 -0.176)">
       <use xlink:href="#DejaVuSans-33"/>
       <use x="63.623047" xlink:href="#DejaVuSans-30"/>
      </g>
     </g>
    </g>
    <g id="ytick_5">
     <g id="line2d_11">
      <path clip-path="url(#pbdb0b731cc)" d="M 67.678 131.546655 
L 514.77505 131.546655 
" style="fill:none;stroke:#ffffff;stroke-linecap:round;stroke-width:2;"/>
     </g>
     <g id="text_12">
      <!-- 31 -->
      <g style="fill:#262626;" transform="translate(29.782 138.23328)scale(0.176 -0.176)">
       <use xlink:href="#DejaVuSans-33"/>
       <use x="63.623047" xlink:href="#DejaVuSans-31"/>
      </g>
     </g>
    </g>
    <g id="text_13">
     <!-- Temperature -->
     <defs>
      <path d="M -0.296875 72.90625 
L 61.375 72.90625 
L 61.375 64.59375 
L 35.5 64.59375 
L 35.5 0 
L 25.59375 0 
L 25.59375 64.59375 
L -0.296875 64.59375 
z
" id="DejaVuSans-54"/>
      <path d="M 18.109375 8.203125 
L 18.109375 -20.796875 
L 9.078125 -20.796875 
L 9.078125 54.6875 
L 18.109375 54.6875 
L 18.109375 46.390625 
Q 20.953125 51.265625 25.265625 53.625 
Q 29.59375 56 35.59375 56 
Q 45.5625 56 51.78125 48.09375 
Q 58.015625 40.1875 58.015625 27.296875 
Q 58.015625 14.40625 51.78125 6.484375 
Q 45.5625 -1.421875 35.59375 -1.421875 
Q 29.59375 -1.421875 25.265625 0.953125 
Q 20.953125 3.328125 18.109375 8.203125 
z
M 48.6875 27.296875 
Q 48.6875 37.203125 44.609375 42.84375 
Q 40.53125 48.484375 33.40625 48.484375 
Q 26.265625 48.484375 22.1875 42.84375 
Q 18.109375 37.203125 18.109375 27.296875 
Q 18.109375 17.390625 22.1875 11.75 
Q 26.265625 6.109375 33.40625 6.109375 
Q 40.53125 6.109375 44.609375 11.75 
Q 48.6875 17.390625 48.6875 27.296875 
z
" id="DejaVuSans-70"/>
     </defs>
     <g style="fill:#262626;" transform="translate(21.789 366.4276)rotate(-90)scale(0.192 -0.192)">
      <use xlink:href="#DejaVuSans-54"/>
      <use x="60.818359" xlink:href="#DejaVuSans-65"/>
      <use x="122.341797" xlink:href="#DejaVuSans-6d"/>
      <use x="219.753906" xlink:href="#DejaVuSans-70"/>
      <use x="283.230469" xlink:href="#DejaVuSans-65"/>
      <use x="344.753906" xlink:href="#DejaVuSans-72"/>
      <use x="385.867188" xlink:href="#DejaVuSans-61"/>
      <use x="447.146484" xlink:href="#DejaVuSans-74"/>
      <use x="486.355469" xlink:href="#DejaVuSans-75"/>
      <use x="549.734375" xlink:href="#DejaVuSans-72"/>
      <use x="590.816406" xlink:href="#DejaVuSans-65"/>
     </g>
    </g>
   </g>
   <g id="PathCollection_1">
    <defs>
     <path d="M 0 6 
C 1.591219 6 3.117479 5.367802 4.242641 4.242641 
C 5.367802 3.117479 6 1.591219 6 0 
C 6 -1.591219 5.367802 -3.117479 4.242641 -4.242641 
C 3.117479 -5.367802 1.591219 -6 0 -6 
C -1.591219 -6 -3.117479 -5.367802 -4.242641 -4.242641 
C -5.367802 -3.117479 -6 -1.591219 -6 0 
C -6 1.591219 -5.367802 3.117479 -4.242641 4.242641 
C -3.117479 5.367802 -1.591219 6 0 6 
z
" id="m39a2aa7634" style="stroke:#2ecc71;stroke-width:2;"/>
    </defs>
    <g clip-path="url(#pbdb0b731cc)">
     <use style="fill:#2ecc71;stroke:#2ecc71;stroke-width:2;" x="95.605807" xlink:href="#m39a2aa7634" y="168.618414"/>
     <use style="fill:#2ecc71;stroke:#2ecc71;stroke-width:2;" x="88.052002" xlink:href="#m39a2aa7634" y="226.113588"/>
     <use style="fill:#2ecc71;stroke:#2ecc71;stroke-width:2;" x="103.368826" xlink:href="#m39a2aa7634" y="346.20979"/>
     <use style="fill:#2ecc71;stroke:#2ecc71;stroke-width:2;" x="96.910623" xlink:href="#m39a2aa7634" y="209.872627"/>
     <use style="fill:#2ecc71;stroke:#2ecc71;stroke-width:2;" x="90.753274" xlink:href="#m39a2aa7634" y="93.171275"/>
     <use style="fill:#2ecc71;stroke:#2ecc71;stroke-width:2;" x="96.975328" xlink:href="#m39a2aa7634" y="117.967257"/>
     <use style="fill:#2ecc71;stroke:#2ecc71;stroke-width:2;" x="93.400116" xlink:href="#m39a2aa7634" y="217.72152"/>
     <use style="fill:#2ecc71;stroke:#2ecc71;stroke-width:2;" x="90.533963" xlink:href="#m39a2aa7634" y="159.818964"/>
    </g>
   </g>
   <g id="PathCollection_2">
    <defs>
     <path d="M -0 8.485281 
L 8.485281 0 
L 0 -8.485281 
L -8.485281 -0 
z
" id="mbfec58ce1a" style="stroke:#34495e;stroke-width:2;"/>
    </defs>
    <g clip-path="url(#pbdb0b731cc)">
     <use style="fill:#34495e;stroke:#34495e;stroke-width:2;" x="177.949048" xlink:href="#mbfec58ce1a" y="236.895631"/>
     <use style="fill:#34495e;stroke:#34495e;stroke-width:2;" x="152.925442" xlink:href="#mbfec58ce1a" y="244.907476"/>
     <use style="fill:#34495e;stroke:#34495e;stroke-width:2;" x="111.900975" xlink:href="#mbfec58ce1a" y="263.918634"/>
     <use style="fill:#34495e;stroke:#34495e;stroke-width:2;" x="167.114498" xlink:href="#mbfec58ce1a" y="226.955511"/>
     <use style="fill:#34495e;stroke:#34495e;stroke-width:2;" x="110.111107" xlink:href="#mbfec58ce1a" y="152.730517"/>
     <use style="fill:#34495e;stroke:#34495e;stroke-width:2;" x="139.81128" xlink:href="#mbfec58ce1a" y="135.620475"/>
     <use style="fill:#34495e;stroke:#34495e;stroke-width:2;" x="121.876692" xlink:href="#mbfec58ce1a" y="121.334948"/>
     <use style="fill:#34495e;stroke:#34495e;stroke-width:2;" x="183.589881" xlink:href="#mbfec58ce1a" y="198.954791"/>
     <use style="fill:#34495e;stroke:#34495e;stroke-width:2;" x="115.184662" xlink:href="#mbfec58ce1a" y="180.486808"/>
     <use style="fill:#34495e;stroke:#34495e;stroke-width:2;" x="165.711558" xlink:href="#mbfec58ce1a" y="160.525092"/>
     <use style="fill:#34495e;stroke:#34495e;stroke-width:2;" x="113.68239" xlink:href="#mbfec58ce1a" y="321.82119"/>
     <use style="fill:#34495e;stroke:#34495e;stroke-width:2;" x="143.209375" xlink:href="#mbfec58ce1a" y="144.338449"/>
     <use style="fill:#34495e;stroke:#34495e;stroke-width:2;" x="151.066031" xlink:href="#mbfec58ce1a" y="174.864937"/>
     <use style="fill:#34495e;stroke:#34495e;stroke-width:2;" x="143.776438" xlink:href="#mbfec58ce1a" y="163.648354"/>
    </g>
   </g>
   <g id="PathCollection_3">
    <defs>
     <path d="M -6 6 
L 6 6 
L 6 -6 
L -6 -6 
z
" id="mfe53e8c0e6" style="stroke:#e74c3c;stroke-width:2;"/>
    </defs>
    <g clip-path="url(#pbdb0b731cc)">
     <use style="fill:#e74c3c;stroke:#e74c3c;stroke-width:2;" x="242.640747" xlink:href="#mfe53e8c0e6" y="217.911631"/>
     <use style="fill:#e74c3c;stroke:#e74c3c;stroke-width:2;" x="268.215199" xlink:href="#mfe53e8c0e6" y="264.896351"/>
     <use style="fill:#e74c3c;stroke:#e74c3c;stroke-width:2;" x="493.125915" xlink:href="#mfe53e8c0e6" y="231.762618"/>
     <use style="fill:#e74c3c;stroke:#e74c3c;stroke-width:2;" x="231.885552" xlink:href="#mfe53e8c0e6" y="253.055115"/>
     <use style="fill:#e74c3c;stroke:#e74c3c;stroke-width:2;" x="253.817312" xlink:href="#mfe53e8c0e6" y="147.135805"/>
     <use style="fill:#e74c3c;stroke:#e74c3c;stroke-width:2;" x="237.871459" xlink:href="#mfe53e8c0e6" y="433.579642"/>
     <use style="fill:#e74c3c;stroke:#e74c3c;stroke-width:2;" x="199.298616" xlink:href="#mfe53e8c0e6" y="205.663014"/>
    </g>
   </g>
   <g id="PolyCollection_1">
    <defs>
     <path d="M 67.678 -462.96964 
L 67.678 -376.253667 
L 72.194132 -376.00769 
L 76.710264 -375.418056 
L 81.226395 -374.750678 
L 85.742527 -374.504138 
L 90.258659 -374.39338 
L 94.774791 -374.815142 
L 99.290923 -374.720936 
L 103.807055 -374.345438 
L 108.323186 -374.10535 
L 112.839318 -373.981635 
L 117.35545 -373.628528 
L 121.871582 -373.380943 
L 126.387714 -372.901466 
L 130.903845 -372.136302 
L 135.419977 -371.356227 
L 139.936109 -370.435703 
L 144.452241 -369.438465 
L 148.968373 -367.828017 
L 153.484504 -366.407821 
L 158.000636 -364.915897 
L 162.516768 -361.734802 
L 167.0329 -361.060961 
L 171.549032 -359.393566 
L 176.065164 -357.5492 
L 180.581295 -355.035814 
L 185.097427 -351.715918 
L 189.613559 -348.357301 
L 194.129691 -345.358466 
L 198.645823 -342.595957 
L 203.161954 -338.756792 
L 207.678086 -334.884171 
L 212.194218 -331.538033 
L 216.71035 -328.171244 
L 221.226482 -324.540367 
L 225.742614 -321.148079 
L 230.258745 -317.762789 
L 234.774877 -314.085011 
L 239.291009 -310.116158 
L 243.807141 -306.648061 
L 248.323273 -302.965009 
L 252.839404 -299.731674 
L 257.355536 -296.284485 
L 261.871668 -292.840625 
L 266.3878 -289.691157 
L 270.903932 -286.227454 
L 275.420063 -282.463437 
L 279.936195 -278.990953 
L 284.452327 -275.534166 
L 288.968459 -272.07738 
L 293.484591 -268.620593 
L 298.000723 -265.163806 
L 302.516854 -261.389519 
L 307.032986 -257.404122 
L 311.549118 -254.189704 
L 316.06525 -250.129192 
L 320.581382 -246.077087 
L 325.097513 -242.480624 
L 329.613645 -238.944862 
L 334.129777 -235.4091 
L 338.645909 -231.873338 
L 343.162041 -228.337576 
L 347.678172 -224.574675 
L 352.194304 -220.754829 
L 356.710436 -216.934983 
L 361.226568 -213.120267 
L 365.7427 -209.309456 
L 370.258832 -205.501287 
L 374.774963 -201.696607 
L 379.291095 -197.891926 
L 383.807227 -194.087246 
L 388.323359 -190.061619 
L 392.839491 -186.021195 
L 397.355622 -181.980771 
L 401.871754 -178.17002 
L 406.387886 -174.696025 
L 410.904018 -171.222029 
L 415.42015 -167.40372 
L 419.936282 -163.584134 
L 424.452413 -159.768917 
L 428.968545 -155.958107 
L 433.484677 -152.147296 
L 438.000809 -148.336485 
L 442.516941 -144.525675 
L 447.033072 -140.714864 
L 451.549204 -136.904054 
L 456.065336 -133.093243 
L 460.581468 -129.282432 
L 465.0976 -125.471622 
L 469.613731 -121.532572 
L 474.129863 -117.542928 
L 478.645995 -113.553284 
L 483.162127 -109.67373 
L 487.678259 -105.962118 
L 492.194391 -102.250506 
L 496.710522 -98.538895 
L 501.226654 -94.827283 
L 505.742786 -91.115671 
L 510.258918 -87.316718 
L 514.77505 -83.498591 
L 514.77505 -404.792503 
L 514.77505 -404.792503 
L 510.258918 -404.793153 
L 505.742786 -404.793802 
L 501.226654 -404.794452 
L 496.710522 -404.585167 
L 492.194391 -404.230884 
L 487.678259 -403.8766 
L 483.162127 -403.522316 
L 478.645995 -403.168032 
L 474.129863 -402.813748 
L 469.613731 -402.459465 
L 465.0976 -402.105181 
L 460.581468 -401.750897 
L 456.065336 -401.408054 
L 451.549204 -401.348917 
L 447.033072 -401.281092 
L 442.516941 -401.213123 
L 438.000809 -401.145154 
L 433.484677 -401.077185 
L 428.968545 -401.009216 
L 424.452413 -400.941247 
L 419.936282 -401.290625 
L 415.42015 -401.654611 
L 410.904018 -401.821744 
L 406.387886 -401.496577 
L 401.871754 -401.17141 
L 397.355622 -400.846243 
L 392.839491 -400.772119 
L 388.323359 -400.829642 
L 383.807227 -400.870529 
L 379.291095 -400.911417 
L 374.774963 -400.952304 
L 370.258832 -400.993192 
L 365.7427 -400.549826 
L 361.226568 -400.066287 
L 356.710436 -400.008342 
L 352.194304 -399.950397 
L 347.678172 -399.889475 
L 343.162041 -399.821752 
L 338.645909 -399.899494 
L 334.129777 -400.158788 
L 329.613645 -399.841279 
L 325.097513 -399.851597 
L 320.581382 -400.16528 
L 316.06525 -400.478962 
L 311.549118 -400.771825 
L 307.032986 -400.964142 
L 302.516854 -401.401102 
L 298.000723 -401.630645 
L 293.484591 -401.506211 
L 288.968459 -401.386455 
L 284.452327 -401.259923 
L 279.936195 -401.137057 
L 275.420063 -401.021533 
L 270.903932 -401.419579 
L 266.3878 -402.015529 
L 261.871668 -402.233781 
L 257.355536 -402.431325 
L 252.839404 -402.676897 
L 248.323273 -402.808853 
L 243.807141 -403.210127 
L 239.291009 -403.441609 
L 234.774877 -403.68674 
L 230.258745 -403.977984 
L 225.742614 -404.324822 
L 221.226482 -405.261614 
L 216.71035 -405.094535 
L 212.194218 -405.807004 
L 207.678086 -406.337405 
L 203.161954 -406.728416 
L 198.645823 -407.308836 
L 194.129691 -407.734019 
L 189.613559 -408.66499 
L 185.097427 -409.477935 
L 180.581295 -409.883313 
L 176.065164 -410.838423 
L 171.549032 -411.159269 
L 167.0329 -411.690526 
L 162.516768 -413.17018 
L 158.000636 -413.904227 
L 153.484504 -414.581054 
L 148.968373 -415.76919 
L 144.452241 -416.468973 
L 139.936109 -418.602425 
L 135.419977 -420.876944 
L 130.903845 -421.887877 
L 126.387714 -424.503306 
L 121.871582 -426.817998 
L 117.35545 -429.055376 
L 112.839318 -431.789078 
L 108.323186 -434.376335 
L 103.807055 -437.678572 
L 99.290923 -440.31306 
L 94.774791 -442.74127 
L 90.258659 -445.706968 
L 85.742527 -448.78532 
L 81.226395 -452.243915 
L 76.710264 -455.53057 
L 72.194132 -459.115108 
L 67.678 -462.96964 
z
" id="md391cd1b9b" style="stroke:#ffffff;stroke-opacity:0.15;stroke-width:2;"/>
    </defs>
    <g clip-path="url(#pbdb0b731cc)">
     <use style="fill:#4c72b0;fill-opacity:0.15;stroke:#ffffff;stroke-opacity:0.15;stroke-width:2;" x="0" xlink:href="#md391cd1b9b" y="599.1321"/>
    </g>
   </g>
   <g id="line2d_12">
    <path clip-path="url(#pbdb0b731cc)" d="M 67.678 187.580585 
L 72.194132 188.5455 
L 76.710264 189.510416 
L 81.226395 190.475331 
L 85.742527 191.440246 
L 90.258659 192.405162 
L 94.774791 193.370077 
L 99.290923 194.334993 
L 103.807055 195.299908 
L 108.323186 196.264824 
L 112.839318 197.229739 
L 117.35545 198.194655 
L 121.871582 199.15957 
L 126.387714 200.124486 
L 130.903845 201.089401 
L 135.419977 202.054316 
L 139.936109 203.019232 
L 144.452241 203.984147 
L 148.968373 204.949063 
L 153.484504 205.913978 
L 158.000636 206.878894 
L 162.516768 207.843809 
L 167.0329 208.808725 
L 171.549032 209.77364 
L 176.065164 210.738556 
L 180.581295 211.703471 
L 185.097427 212.668386 
L 189.613559 213.633302 
L 194.129691 214.598217 
L 198.645823 215.563133 
L 203.161954 216.528048 
L 207.678086 217.492964 
L 212.194218 218.457879 
L 216.71035 219.422795 
L 221.226482 220.38771 
L 225.742614 221.352625 
L 230.258745 222.317541 
L 234.774877 223.282456 
L 239.291009 224.247372 
L 243.807141 225.212287 
L 248.323273 226.177203 
L 252.839404 227.142118 
L 257.355536 228.107034 
L 261.871668 229.071949 
L 266.3878 230.036865 
L 270.903932 231.00178 
L 275.420063 231.966695 
L 279.936195 232.931611 
L 284.452327 233.896526 
L 288.968459 234.861442 
L 293.484591 235.826357 
L 298.000723 236.791273 
L 302.516854 237.756188 
L 307.032986 238.721104 
L 311.549118 239.686019 
L 316.06525 240.650935 
L 320.581382 241.61585 
L 325.097513 242.580765 
L 329.613645 243.545681 
L 334.129777 244.510596 
L 338.645909 245.475512 
L 343.162041 246.440427 
L 347.678172 247.405343 
L 352.194304 248.370258 
L 356.710436 249.335174 
L 361.226568 250.300089 
L 365.7427 251.265005 
L 370.258832 252.22992 
L 374.774963 253.194835 
L 379.291095 254.159751 
L 383.807227 255.124666 
L 388.323359 256.089582 
L 392.839491 257.054497 
L 397.355622 258.019413 
L 401.871754 258.984328 
L 406.387886 259.949244 
L 410.904018 260.914159 
L 415.42015 261.879075 
L 419.936282 262.84399 
L 424.452413 263.808905 
L 428.968545 264.773821 
L 433.484677 265.738736 
L 438.000809 266.703652 
L 442.516941 267.668567 
L 447.033072 268.633483 
L 451.549204 269.598398 
L 456.065336 270.563314 
L 460.581468 271.528229 
L 465.0976 272.493144 
L 469.613731 273.45806 
L 474.129863 274.422975 
L 478.645995 275.387891 
L 483.162127 276.352806 
L 487.678259 277.317722 
L 492.194391 278.282637 
L 496.710522 279.247553 
L 501.226654 280.212468 
L 505.742786 281.177384 
L 510.258918 282.142299 
L 514.77505 283.107214 
" style="fill:none;stroke:#4c72b0;stroke-linecap:round;stroke-width:4.5;"/>
   </g>
   <g id="patch_3">
    <path d="M 67.678 536.8166 
L 67.678 70.7886 
" style="fill:none;stroke:#ffffff;stroke-linecap:square;stroke-linejoin:miter;stroke-width:2.5;"/>
   </g>
   <g id="patch_4">
    <path d="M 67.678 536.8166 
L 514.77505 536.8166 
" style="fill:none;stroke:#ffffff;stroke-linecap:square;stroke-linejoin:miter;stroke-width:2.5;"/>
   </g>
   <g id="text_14">
    <!-- Residual Analysis for Dengue Season -->
    <defs>
     <path d="M 44.390625 34.1875 
Q 47.5625 33.109375 50.5625 29.59375 
Q 53.5625 26.078125 56.59375 19.921875 
L 66.609375 0 
L 56 0 
L 46.6875 18.703125 
Q 43.0625 26.03125 39.671875 28.421875 
Q 36.28125 30.8125 30.421875 30.8125 
L 19.671875 30.8125 
L 19.671875 0 
L 9.8125 0 
L 9.8125 72.90625 
L 32.078125 72.90625 
Q 44.578125 72.90625 50.734375 67.671875 
Q 56.890625 62.453125 56.890625 51.90625 
Q 56.890625 45.015625 53.6875 40.46875 
Q 50.484375 35.9375 44.390625 34.1875 
z
M 19.671875 64.796875 
L 19.671875 38.921875 
L 32.078125 38.921875 
Q 39.203125 38.921875 42.84375 42.21875 
Q 46.484375 45.515625 46.484375 51.90625 
Q 46.484375 58.296875 42.84375 61.546875 
Q 39.203125 64.796875 32.078125 64.796875 
z
" id="DejaVuSans-52"/>
     <path d="M 45.40625 46.390625 
L 45.40625 75.984375 
L 54.390625 75.984375 
L 54.390625 0 
L 45.40625 0 
L 45.40625 8.203125 
Q 42.578125 3.328125 38.25 0.953125 
Q 33.9375 -1.421875 27.875 -1.421875 
Q 17.96875 -1.421875 11.734375 6.484375 
Q 5.515625 14.40625 5.515625 27.296875 
Q 5.515625 40.1875 11.734375 48.09375 
Q 17.96875 56 27.875 56 
Q 33.9375 56 38.25 53.625 
Q 42.578125 51.265625 45.40625 46.390625 
z
M 14.796875 27.296875 
Q 14.796875 17.390625 18.875 11.75 
Q 22.953125 6.109375 30.078125 6.109375 
Q 37.203125 6.109375 41.296875 11.75 
Q 45.40625 17.390625 45.40625 27.296875 
Q 45.40625 37.203125 41.296875 42.84375 
Q 37.203125 48.484375 30.078125 48.484375 
Q 22.953125 48.484375 18.875 42.84375 
Q 14.796875 37.203125 14.796875 27.296875 
z
" id="DejaVuSans-64"/>
     <path d="M 37.109375 75.984375 
L 37.109375 68.5 
L 28.515625 68.5 
Q 23.6875 68.5 21.796875 66.546875 
Q 19.921875 64.59375 19.921875 59.515625 
L 19.921875 54.6875 
L 34.71875 54.6875 
L 34.71875 47.703125 
L 19.921875 47.703125 
L 19.921875 0 
L 10.890625 0 
L 10.890625 47.703125 
L 2.296875 47.703125 
L 2.296875 54.6875 
L 10.890625 54.6875 
L 10.890625 58.5 
Q 10.890625 67.625 15.140625 71.796875 
Q 19.390625 75.984375 28.609375 75.984375 
z
" id="DejaVuSans-66"/>
     <path d="M 19.671875 64.796875 
L 19.671875 8.109375 
L 31.59375 8.109375 
Q 46.6875 8.109375 53.6875 14.9375 
Q 60.6875 21.78125 60.6875 36.53125 
Q 60.6875 51.171875 53.6875 57.984375 
Q 46.6875 64.796875 31.59375 64.796875 
z
M 9.8125 72.90625 
L 30.078125 72.90625 
Q 51.265625 72.90625 61.171875 64.09375 
Q 71.09375 55.28125 71.09375 36.53125 
Q 71.09375 17.671875 61.125 8.828125 
Q 51.171875 0 30.078125 0 
L 9.8125 0 
z
" id="DejaVuSans-44"/>
    </defs>
    <g style="fill:#262626;" transform="translate(112.990525 21.789)scale(0.192 -0.192)">
     <use xlink:href="#DejaVuSans-52"/>
     <use x="69.419922" xlink:href="#DejaVuSans-65"/>
     <use x="130.943359" xlink:href="#DejaVuSans-73"/>
     <use x="183.042969" xlink:href="#DejaVuSans-69"/>
     <use x="210.826172" xlink:href="#DejaVuSans-64"/>
     <use x="274.302734" xlink:href="#DejaVuSans-75"/>
     <use x="337.681641" xlink:href="#DejaVuSans-61"/>
     <use x="398.960938" xlink:href="#DejaVuSans-6c"/>
     <use x="426.744141" xlink:href="#DejaVuSans-20"/>
     <use x="458.53125" xlink:href="#DejaVuSans-41"/>
     <use x="526.939453" xlink:href="#DejaVuSans-6e"/>
     <use x="590.318359" xlink:href="#DejaVuSans-61"/>
     <use x="651.597656" xlink:href="#DejaVuSans-6c"/>
     <use x="679.380859" xlink:href="#DejaVuSans-79"/>
     <use x="738.560547" xlink:href="#DejaVuSans-73"/>
     <use x="790.660156" xlink:href="#DejaVuSans-69"/>
     <use x="818.443359" xlink:href="#DejaVuSans-73"/>
     <use x="870.542969" xlink:href="#DejaVuSans-20"/>
     <use x="902.330078" xlink:href="#DejaVuSans-66"/>
     <use x="937.535156" xlink:href="#DejaVuSans-6f"/>
     <use x="998.716797" xlink:href="#DejaVuSans-72"/>
     <use x="1039.830078" xlink:href="#DejaVuSans-20"/>
     <use x="1071.617188" xlink:href="#DejaVuSans-44"/>
     <use x="1148.619141" xlink:href="#DejaVuSans-65"/>
     <use x="1210.142578" xlink:href="#DejaVuSans-6e"/>
     <use x="1273.521484" xlink:href="#DejaVuSans-67"/>
     <use x="1336.998047" xlink:href="#DejaVuSans-75"/>
     <use x="1400.376953" xlink:href="#DejaVuSans-65"/>
     <use x="1461.900391" xlink:href="#DejaVuSans-20"/>
     <use x="1493.6875" xlink:href="#DejaVuSans-53"/>
     <use x="1557.164062" xlink:href="#DejaVuSans-65"/>
     <use x="1618.6875" xlink:href="#DejaVuSans-61"/>
     <use x="1679.966797" xlink:href="#DejaVuSans-73"/>
     <use x="1732.066406" xlink:href="#DejaVuSans-6f"/>
     <use x="1793.248047" xlink:href="#DejaVuSans-6e"/>
    </g>
    <!-- Pearson: -0.2456, p-value: 0.1991 -->
    <defs>
     <path d="M 11.71875 12.40625 
L 22.015625 12.40625 
L 22.015625 0 
L 11.71875 0 
z
M 11.71875 51.703125 
L 22.015625 51.703125 
L 22.015625 39.3125 
L 11.71875 39.3125 
z
" id="DejaVuSans-3a"/>
     <path d="M 4.890625 31.390625 
L 31.203125 31.390625 
L 31.203125 23.390625 
L 4.890625 23.390625 
z
" id="DejaVuSans-2d"/>
     <path d="M 10.6875 12.40625 
L 21 12.40625 
L 21 0 
L 10.6875 0 
z
" id="DejaVuSans-2e"/>
     <path d="M 10.796875 72.90625 
L 49.515625 72.90625 
L 49.515625 64.59375 
L 19.828125 64.59375 
L 19.828125 46.734375 
Q 21.96875 47.46875 24.109375 47.828125 
Q 26.265625 48.1875 28.421875 48.1875 
Q 40.625 48.1875 47.75 41.5 
Q 54.890625 34.8125 54.890625 23.390625 
Q 54.890625 11.625 47.5625 5.09375 
Q 40.234375 -1.421875 26.90625 -1.421875 
Q 22.3125 -1.421875 17.546875 -0.640625 
Q 12.796875 0.140625 7.71875 1.703125 
L 7.71875 11.625 
Q 12.109375 9.234375 16.796875 8.0625 
Q 21.484375 6.890625 26.703125 6.890625 
Q 35.15625 6.890625 40.078125 11.328125 
Q 45.015625 15.765625 45.015625 23.390625 
Q 45.015625 31 40.078125 35.4375 
Q 35.15625 39.890625 26.703125 39.890625 
Q 22.75 39.890625 18.8125 39.015625 
Q 14.890625 38.140625 10.796875 36.28125 
z
" id="DejaVuSans-35"/>
     <path d="M 11.71875 12.40625 
L 22.015625 12.40625 
L 22.015625 4 
L 14.015625 -11.625 
L 7.71875 -11.625 
L 11.71875 4 
z
" id="DejaVuSans-2c"/>
     <path d="M 2.984375 54.6875 
L 12.5 54.6875 
L 29.59375 8.796875 
L 46.6875 54.6875 
L 56.203125 54.6875 
L 35.6875 0 
L 23.484375 0 
z
" id="DejaVuSans-76"/>
    </defs>
    <g style="fill:#262626;" transform="translate(127.651525 43.2888)scale(0.192 -0.192)">
     <use xlink:href="#DejaVuSans-50"/>
     <use x="60.255859" xlink:href="#DejaVuSans-65"/>
     <use x="121.779297" xlink:href="#DejaVuSans-61"/>
     <use x="183.058594" xlink:href="#DejaVuSans-72"/>
     <use x="224.171875" xlink:href="#DejaVuSans-73"/>
     <use x="276.271484" xlink:href="#DejaVuSans-6f"/>
     <use x="337.453125" xlink:href="#DejaVuSans-6e"/>
     <use x="400.832031" xlink:href="#DejaVuSans-3a"/>
     <use x="434.523438" xlink:href="#DejaVuSans-20"/>
     <use x="466.310547" xlink:href="#DejaVuSans-2d"/>
     <use x="502.394531" xlink:href="#DejaVuSans-30"/>
     <use x="566.017578" xlink:href="#DejaVuSans-2e"/>
     <use x="597.804688" xlink:href="#DejaVuSans-32"/>
     <use x="661.427734" xlink:href="#DejaVuSans-34"/>
     <use x="725.050781" xlink:href="#DejaVuSans-35"/>
     <use x="788.673828" xlink:href="#DejaVuSans-36"/>
     <use x="852.296875" xlink:href="#DejaVuSans-2c"/>
     <use x="884.083984" xlink:href="#DejaVuSans-20"/>
     <use x="915.871094" xlink:href="#DejaVuSans-70"/>
     <use x="979.347656" xlink:href="#DejaVuSans-2d"/>
     <use x="1015.400391" xlink:href="#DejaVuSans-76"/>
     <use x="1074.580078" xlink:href="#DejaVuSans-61"/>
     <use x="1135.859375" xlink:href="#DejaVuSans-6c"/>
     <use x="1163.642578" xlink:href="#DejaVuSans-75"/>
     <use x="1227.021484" xlink:href="#DejaVuSans-65"/>
     <use x="1288.544922" xlink:href="#DejaVuSans-3a"/>
     <use x="1322.236328" xlink:href="#DejaVuSans-20"/>
     <use x="1354.023438" xlink:href="#DejaVuSans-30"/>
     <use x="1417.646484" xlink:href="#DejaVuSans-2e"/>
     <use x="1449.433594" xlink:href="#DejaVuSans-31"/>
     <use x="1513.056641" xlink:href="#DejaVuSans-39"/>
     <use x="1576.679688" xlink:href="#DejaVuSans-39"/>
     <use x="1640.302734" xlink:href="#DejaVuSans-31"/>
    </g>
    <!-- Spearman: -0.3143, p-value: 0.0968 -->
    <g style="fill:#262626;" transform="translate(116.889025 64.7886)scale(0.192 -0.192)">
     <use xlink:href="#DejaVuSans-53"/>
     <use x="63.476562" xlink:href="#DejaVuSans-70"/>
     <use x="126.953125" xlink:href="#DejaVuSans-65"/>
     <use x="188.476562" xlink:href="#DejaVuSans-61"/>
     <use x="249.755859" xlink:href="#DejaVuSans-72"/>
     <use x="290.853516" xlink:href="#DejaVuSans-6d"/>
     <use x="388.265625" xlink:href="#DejaVuSans-61"/>
     <use x="449.544922" xlink:href="#DejaVuSans-6e"/>
     <use x="512.923828" xlink:href="#DejaVuSans-3a"/>
     <use x="546.615234" xlink:href="#DejaVuSans-20"/>
     <use x="578.402344" xlink:href="#DejaVuSans-2d"/>
     <use x="614.486328" xlink:href="#DejaVuSans-30"/>
     <use x="678.109375" xlink:href="#DejaVuSans-2e"/>
     <use x="709.896484" xlink:href="#DejaVuSans-33"/>
     <use x="773.519531" xlink:href="#DejaVuSans-31"/>
     <use x="837.142578" xlink:href="#DejaVuSans-34"/>
     <use x="900.765625" xlink:href="#DejaVuSans-33"/>
     <use x="964.388672" xlink:href="#DejaVuSans-2c"/>
     <use x="996.175781" xlink:href="#DejaVuSans-20"/>
     <use x="1027.962891" xlink:href="#DejaVuSans-70"/>
     <use x="1091.439453" xlink:href="#DejaVuSans-2d"/>
     <use x="1127.492188" xlink:href="#DejaVuSans-76"/>
     <use x="1186.671875" xlink:href="#DejaVuSans-61"/>
     <use x="1247.951172" xlink:href="#DejaVuSans-6c"/>
     <use x="1275.734375" xlink:href="#DejaVuSans-75"/>
     <use x="1339.113281" xlink:href="#DejaVuSans-65"/>
     <use x="1400.636719" xlink:href="#DejaVuSans-3a"/>
     <use x="1434.328125" xlink:href="#DejaVuSans-20"/>
     <use x="1466.115234" xlink:href="#DejaVuSans-30"/>
     <use x="1529.738281" xlink:href="#DejaVuSans-2e"/>
     <use x="1561.525391" xlink:href="#DejaVuSans-30"/>
     <use x="1625.148438" xlink:href="#DejaVuSans-39"/>
     <use x="1688.771484" xlink:href="#DejaVuSans-36"/>
     <use x="1752.394531" xlink:href="#DejaVuSans-38"/>
    </g>
   </g>
  </g>
  <g id="legend_1">
   <g id="text_15">
    <!-- category -->
    <g style="fill:#262626;" transform="translate(544.207843 265.3191)scale(0.1632 -0.1632)">
     <use xlink:href="#DejaVuSans-63"/>
     <use x="54.980469" xlink:href="#DejaVuSans-61"/>
     <use x="116.259766" xlink:href="#DejaVuSans-74"/>
     <use x="155.46875" xlink:href="#DejaVuSans-65"/>
     <use x="216.992188" xlink:href="#DejaVuSans-67"/>
     <use x="280.46875" xlink:href="#DejaVuSans-6f"/>
     <use x="341.650391" xlink:href="#DejaVuSans-72"/>
     <use x="382.763672" xlink:href="#DejaVuSans-79"/>
    </g>
   </g>
   <g id="PathCollection_4">
    <g>
     <use style="fill:#2ecc71;stroke:#2ecc71;stroke-width:2;" x="536.584618" xlink:href="#m39a2aa7634" y="286.2664"/>
    </g>
   </g>
   <g id="text_16">
    <!-- Good -->
    <defs>
     <path d="M 59.515625 10.40625 
L 59.515625 29.984375 
L 43.40625 29.984375 
L 43.40625 38.09375 
L 69.28125 38.09375 
L 69.28125 6.78125 
Q 63.578125 2.734375 56.6875 0.65625 
Q 49.8125 -1.421875 42 -1.421875 
Q 24.90625 -1.421875 15.25 8.5625 
Q 5.609375 18.5625 5.609375 36.375 
Q 5.609375 54.25 15.25 64.234375 
Q 24.90625 74.21875 42 74.21875 
Q 49.125 74.21875 55.546875 72.453125 
Q 61.96875 70.703125 67.390625 67.28125 
L 67.390625 56.78125 
Q 61.921875 61.421875 55.765625 63.765625 
Q 49.609375 66.109375 42.828125 66.109375 
Q 29.4375 66.109375 22.71875 58.640625 
Q 16.015625 51.171875 16.015625 36.375 
Q 16.015625 21.625 22.71875 14.15625 
Q 29.4375 6.6875 42.828125 6.6875 
Q 48.046875 6.6875 52.140625 7.59375 
Q 56.25 8.5 59.515625 10.40625 
z
" id="DejaVuSans-47"/>
    </defs>
    <g style="fill:#262626;" transform="translate(568.264618 290.8864)scale(0.176 -0.176)">
     <use xlink:href="#DejaVuSans-47"/>
     <use x="77.490234" xlink:href="#DejaVuSans-6f"/>
     <use x="138.671875" xlink:href="#DejaVuSans-6f"/>
     <use x="199.853516" xlink:href="#DejaVuSans-64"/>
    </g>
   </g>
   <g id="PathCollection_5">
    <g>
     <use style="fill:#34495e;stroke:#34495e;stroke-width:2;" x="536.584618" xlink:href="#mbfec58ce1a" y="312.0999"/>
    </g>
   </g>
   <g id="text_17">
    <!-- Average -->
    <g style="fill:#262626;" transform="translate(568.264618 316.7199)scale(0.176 -0.176)">
     <use xlink:href="#DejaVuSans-41"/>
     <use x="68.330078" xlink:href="#DejaVuSans-76"/>
     <use x="127.509766" xlink:href="#DejaVuSans-65"/>
     <use x="189.033203" xlink:href="#DejaVuSans-72"/>
     <use x="230.146484" xlink:href="#DejaVuSans-61"/>
     <use x="291.425781" xlink:href="#DejaVuSans-67"/>
     <use x="354.902344" xlink:href="#DejaVuSans-65"/>
    </g>
   </g>
   <g id="PathCollection_6">
    <g>
     <use style="fill:#e74c3c;stroke:#e74c3c;stroke-width:2;" x="536.584618" xlink:href="#mfe53e8c0e6" y="337.9334"/>
    </g>
   </g>
   <g id="text_18">
    <!-- Bad -->
    <defs>
     <path d="M 19.671875 34.8125 
L 19.671875 8.109375 
L 35.5 8.109375 
Q 43.453125 8.109375 47.28125 11.40625 
Q 51.125 14.703125 51.125 21.484375 
Q 51.125 28.328125 47.28125 31.5625 
Q 43.453125 34.8125 35.5 34.8125 
z
M 19.671875 64.796875 
L 19.671875 42.828125 
L 34.28125 42.828125 
Q 41.5 42.828125 45.03125 45.53125 
Q 48.578125 48.25 48.578125 53.8125 
Q 48.578125 59.328125 45.03125 62.0625 
Q 41.5 64.796875 34.28125 64.796875 
z
M 9.8125 72.90625 
L 35.015625 72.90625 
Q 46.296875 72.90625 52.390625 68.21875 
Q 58.5 63.53125 58.5 54.890625 
Q 58.5 48.1875 55.375 44.234375 
Q 52.25 40.28125 46.1875 39.3125 
Q 53.46875 37.75 57.5 32.78125 
Q 61.53125 27.828125 61.53125 20.40625 
Q 61.53125 10.640625 54.890625 5.3125 
Q 48.25 0 35.984375 0 
L 9.8125 0 
z
" id="DejaVuSans-42"/>
    </defs>
    <g style="fill:#262626;" transform="translate(568.264618 342.5534)scale(0.176 -0.176)">
     <use xlink:href="#DejaVuSans-42"/>
     <use x="68.603516" xlink:href="#DejaVuSans-61"/>
     <use x="129.882812" xlink:href="#DejaVuSans-64"/>
    </g>
   </g>
  </g>
 </g>
 <defs>
  <clipPath id="pbdb0b731cc">
   <rect height="466.028" width="447.09705" x="67.678" y="70.7886"/>
  </clipPath>
 </defs>
</svg>
