<?xml version="1.0" encoding="utf-8" standalone="no"?>
<!DOCTYPE svg PUBLIC "-//W3C//DTD SVG 1.1//EN"
  "http://www.w3.org/Graphics/SVG/1.1/DTD/svg11.dtd">
<!-- Created with matplotlib (http://matplotlib.org/) -->
<svg height="599pt" version="1.1" viewBox="0 0 687 599" width="687pt" xmlns="http://www.w3.org/2000/svg" xmlns:xlink="http://www.w3.org/1999/xlink">
 <defs>
  <style type="text/css">
*{stroke-linecap:butt;stroke-linejoin:round;}
  </style>
 </defs>
 <g id="figure_1">
  <g id="patch_1">
   <path d="M 0 599.1321 
L 687.856859 599.1321 
L 687.856859 0 
L 0 0 
z
" style="fill:#ffffff;"/>
  </g>
  <g id="axes_1">
   <g id="patch_2">
    <path d="M 99.21775 536.8166 
L 545.23154 536.8166 
L 545.23154 70.7886 
L 99.21775 70.7886 
z
" style="fill:#eaeaf2;"/>
   </g>
   <g id="matplotlib.axis_1">
    <g id="xtick_1">
     <g id="line2d_1">
      <path clip-path="url(#p4b62072e7d)" d="M 115.850229 536.8166 
L 115.850229 70.7886 
" style="fill:none;stroke:#ffffff;stroke-linecap:round;stroke-width:2;"/>
     </g>
     <g id="text_1">
      <!-- 0 -->
      <defs>
       <path d="M 31.78125 66.40625 
Q 24.171875 66.40625 20.328125 58.90625 
Q 16.5 51.421875 16.5 36.375 
Q 16.5 21.390625 20.328125 13.890625 
Q 24.171875 6.390625 31.78125 6.390625 
Q 39.453125 6.390625 43.28125 13.890625 
Q 47.125 21.390625 47.125 36.375 
Q 47.125 51.421875 43.28125 58.90625 
Q 39.453125 66.40625 31.78125 66.40625 
z
M 31.78125 74.21875 
Q 44.046875 74.21875 50.515625 64.515625 
Q 56.984375 54.828125 56.984375 36.375 
Q 56.984375 17.96875 50.515625 8.265625 
Q 44.046875 -1.421875 31.78125 -1.421875 
Q 19.53125 -1.421875 13.0625 8.265625 
Q 6.59375 17.96875 6.59375 36.375 
Q 6.59375 54.828125 13.0625 64.515625 
Q 19.53125 74.21875 31.78125 74.21875 
z
" id="DejaVuSans-30"/>
      </defs>
      <g style="fill:#262626;" transform="translate(110.251229 565.68985)scale(0.176 -0.176)">
       <use xlink:href="#DejaVuSans-30"/>
      </g>
     </g>
    </g>
    <g id="xtick_2">
     <g id="line2d_2">
      <path clip-path="url(#p4b62072e7d)" d="M 197.407155 536.8166 
L 197.407155 70.7886 
" style="fill:none;stroke:#ffffff;stroke-linecap:round;stroke-width:2;"/>
     </g>
     <g id="text_2">
      <!-- 20 -->
      <defs>
       <path d="M 19.1875 8.296875 
L 53.609375 8.296875 
L 53.609375 0 
L 7.328125 0 
L 7.328125 8.296875 
Q 12.9375 14.109375 22.625 23.890625 
Q 32.328125 33.6875 34.8125 36.53125 
Q 39.546875 41.84375 41.421875 45.53125 
Q 43.3125 49.21875 43.3125 52.78125 
Q 43.3125 58.59375 39.234375 62.25 
Q 35.15625 65.921875 28.609375 65.921875 
Q 23.96875 65.921875 18.8125 64.3125 
Q 13.671875 62.703125 7.8125 59.421875 
L 7.8125 69.390625 
Q 13.765625 71.78125 18.9375 73 
Q 24.125 74.21875 28.421875 74.21875 
Q 39.75 74.21875 46.484375 68.546875 
Q 53.21875 62.890625 53.21875 53.421875 
Q 53.21875 48.921875 51.53125 44.890625 
Q 49.859375 40.875 45.40625 35.40625 
Q 44.1875 33.984375 37.640625 27.21875 
Q 31.109375 20.453125 19.1875 8.296875 
z
" id="DejaVuSans-32"/>
      </defs>
      <g style="fill:#262626;" transform="translate(186.209155 565.68985)scale(0.176 -0.176)">
       <use xlink:href="#DejaVuSans-32"/>
       <use x="63.623047" xlink:href="#DejaVuSans-30"/>
      </g>
     </g>
    </g>
    <g id="xtick_3">
     <g id="line2d_3">
      <path clip-path="url(#p4b62072e7d)" d="M 278.964081 536.8166 
L 278.964081 70.7886 
" style="fill:none;stroke:#ffffff;stroke-linecap:round;stroke-width:2;"/>
     </g>
     <g id="text_3">
      <!-- 40 -->
      <defs>
       <path d="M 37.796875 64.3125 
L 12.890625 25.390625 
L 37.796875 25.390625 
z
M 35.203125 72.90625 
L 47.609375 72.90625 
L 47.609375 25.390625 
L 58.015625 25.390625 
L 58.015625 17.1875 
L 47.609375 17.1875 
L 47.609375 0 
L 37.796875 0 
L 37.796875 17.1875 
L 4.890625 17.1875 
L 4.890625 26.703125 
z
" id="DejaVuSans-34"/>
      </defs>
      <g style="fill:#262626;" transform="translate(267.766081 565.68985)scale(0.176 -0.176)">
       <use xlink:href="#DejaVuSans-34"/>
       <use x="63.623047" xlink:href="#DejaVuSans-30"/>
      </g>
     </g>
    </g>
    <g id="xtick_4">
     <g id="line2d_4">
      <path clip-path="url(#p4b62072e7d)" d="M 360.521007 536.8166 
L 360.521007 70.7886 
" style="fill:none;stroke:#ffffff;stroke-linecap:round;stroke-width:2;"/>
     </g>
     <g id="text_4">
      <!-- 60 -->
      <defs>
       <path d="M 33.015625 40.375 
Q 26.375 40.375 22.484375 35.828125 
Q 18.609375 31.296875 18.609375 23.390625 
Q 18.609375 15.53125 22.484375 10.953125 
Q 26.375 6.390625 33.015625 6.390625 
Q 39.65625 6.390625 43.53125 10.953125 
Q 47.40625 15.53125 47.40625 23.390625 
Q 47.40625 31.296875 43.53125 35.828125 
Q 39.65625 40.375 33.015625 40.375 
z
M 52.59375 71.296875 
L 52.59375 62.3125 
Q 48.875 64.0625 45.09375 64.984375 
Q 41.3125 65.921875 37.59375 65.921875 
Q 27.828125 65.921875 22.671875 59.328125 
Q 17.53125 52.734375 16.796875 39.40625 
Q 19.671875 43.65625 24.015625 45.921875 
Q 28.375 48.1875 33.59375 48.1875 
Q 44.578125 48.1875 50.953125 41.515625 
Q 57.328125 34.859375 57.328125 23.390625 
Q 57.328125 12.15625 50.6875 5.359375 
Q 44.046875 -1.421875 33.015625 -1.421875 
Q 20.359375 -1.421875 13.671875 8.265625 
Q 6.984375 17.96875 6.984375 36.375 
Q 6.984375 53.65625 15.1875 63.9375 
Q 23.390625 74.21875 37.203125 74.21875 
Q 40.921875 74.21875 44.703125 73.484375 
Q 48.484375 72.75 52.59375 71.296875 
z
" id="DejaVuSans-36"/>
      </defs>
      <g style="fill:#262626;" transform="translate(349.323007 565.68985)scale(0.176 -0.176)">
       <use xlink:href="#DejaVuSans-36"/>
       <use x="63.623047" xlink:href="#DejaVuSans-30"/>
      </g>
     </g>
    </g>
    <g id="xtick_5">
     <g id="line2d_5">
      <path clip-path="url(#p4b62072e7d)" d="M 442.077933 536.8166 
L 442.077933 70.7886 
" style="fill:none;stroke:#ffffff;stroke-linecap:round;stroke-width:2;"/>
     </g>
     <g id="text_5">
      <!-- 80 -->
      <defs>
       <path d="M 31.78125 34.625 
Q 24.75 34.625 20.71875 30.859375 
Q 16.703125 27.09375 16.703125 20.515625 
Q 16.703125 13.921875 20.71875 10.15625 
Q 24.75 6.390625 31.78125 6.390625 
Q 38.8125 6.390625 42.859375 10.171875 
Q 46.921875 13.96875 46.921875 20.515625 
Q 46.921875 27.09375 42.890625 30.859375 
Q 38.875 34.625 31.78125 34.625 
z
M 21.921875 38.8125 
Q 15.578125 40.375 12.03125 44.71875 
Q 8.5 49.078125 8.5 55.328125 
Q 8.5 64.0625 14.71875 69.140625 
Q 20.953125 74.21875 31.78125 74.21875 
Q 42.671875 74.21875 48.875 69.140625 
Q 55.078125 64.0625 55.078125 55.328125 
Q 55.078125 49.078125 51.53125 44.71875 
Q 48 40.375 41.703125 38.8125 
Q 48.828125 37.15625 52.796875 32.3125 
Q 56.78125 27.484375 56.78125 20.515625 
Q 56.78125 9.90625 50.3125 4.234375 
Q 43.84375 -1.421875 31.78125 -1.421875 
Q 19.734375 -1.421875 13.25 4.234375 
Q 6.78125 9.90625 6.78125 20.515625 
Q 6.78125 27.484375 10.78125 32.3125 
Q 14.796875 37.15625 21.921875 38.8125 
z
M 18.3125 54.390625 
Q 18.3125 48.734375 21.84375 45.5625 
Q 25.390625 42.390625 31.78125 42.390625 
Q 38.140625 42.390625 41.71875 45.5625 
Q 45.3125 48.734375 45.3125 54.390625 
Q 45.3125 60.0625 41.71875 63.234375 
Q 38.140625 66.40625 31.78125 66.40625 
Q 25.390625 66.40625 21.84375 63.234375 
Q 18.3125 60.0625 18.3125 54.390625 
z
" id="DejaVuSans-38"/>
      </defs>
      <g style="fill:#262626;" transform="translate(430.879933 565.68985)scale(0.176 -0.176)">
       <use xlink:href="#DejaVuSans-38"/>
       <use x="63.623047" xlink:href="#DejaVuSans-30"/>
      </g>
     </g>
    </g>
    <g id="xtick_6">
     <g id="line2d_6">
      <path clip-path="url(#p4b62072e7d)" d="M 523.634858 536.8166 
L 523.634858 70.7886 
" style="fill:none;stroke:#ffffff;stroke-linecap:round;stroke-width:2;"/>
     </g>
     <g id="text_6">
      <!-- 100 -->
      <defs>
       <path d="M 12.40625 8.296875 
L 28.515625 8.296875 
L 28.515625 63.921875 
L 10.984375 60.40625 
L 10.984375 69.390625 
L 28.421875 72.90625 
L 38.28125 72.90625 
L 38.28125 8.296875 
L 54.390625 8.296875 
L 54.390625 0 
L 12.40625 0 
z
" id="DejaVuSans-31"/>
      </defs>
      <g style="fill:#262626;" transform="translate(506.837858 565.68985)scale(0.176 -0.176)">
       <use xlink:href="#DejaVuSans-31"/>
       <use x="63.623047" xlink:href="#DejaVuSans-30"/>
       <use x="127.246094" xlink:href="#DejaVuSans-30"/>
      </g>
     </g>
    </g>
    <g id="text_7">
     <!-- Symmetric Absolute Percentage Error -->
     <defs>
      <path d="M 53.515625 70.515625 
L 53.515625 60.890625 
Q 47.90625 63.578125 42.921875 64.890625 
Q 37.9375 66.21875 33.296875 66.21875 
Q 25.25 66.21875 20.875 63.09375 
Q 16.5 59.96875 16.5 54.203125 
Q 16.5 49.359375 19.40625 46.890625 
Q 22.3125 44.4375 30.421875 42.921875 
L 36.375 41.703125 
Q 47.40625 39.59375 52.65625 34.296875 
Q 57.90625 29 57.90625 20.125 
Q 57.90625 9.515625 50.796875 4.046875 
Q 43.703125 -1.421875 29.984375 -1.421875 
Q 24.8125 -1.421875 18.96875 -0.25 
Q 13.140625 0.921875 6.890625 3.21875 
L 6.890625 13.375 
Q 12.890625 10.015625 18.65625 8.296875 
Q 24.421875 6.59375 29.984375 6.59375 
Q 38.421875 6.59375 43.015625 9.90625 
Q 47.609375 13.234375 47.609375 19.390625 
Q 47.609375 24.75 44.3125 27.78125 
Q 41.015625 30.8125 33.5 32.328125 
L 27.484375 33.5 
Q 16.453125 35.6875 11.515625 40.375 
Q 6.59375 45.0625 6.59375 53.421875 
Q 6.59375 63.09375 13.40625 68.65625 
Q 20.21875 74.21875 32.171875 74.21875 
Q 37.3125 74.21875 42.625 73.28125 
Q 47.953125 72.359375 53.515625 70.515625 
z
" id="DejaVuSans-53"/>
      <path d="M 32.171875 -5.078125 
Q 28.375 -14.84375 24.75 -17.8125 
Q 21.140625 -20.796875 15.09375 -20.796875 
L 7.90625 -20.796875 
L 7.90625 -13.28125 
L 13.1875 -13.28125 
Q 16.890625 -13.28125 18.9375 -11.515625 
Q 21 -9.765625 23.484375 -3.21875 
L 25.09375 0.875 
L 2.984375 54.6875 
L 12.5 54.6875 
L 29.59375 11.921875 
L 46.6875 54.6875 
L 56.203125 54.6875 
z
" id="DejaVuSans-79"/>
      <path d="M 52 44.1875 
Q 55.375 50.25 60.0625 53.125 
Q 64.75 56 71.09375 56 
Q 79.640625 56 84.28125 50.015625 
Q 88.921875 44.046875 88.921875 33.015625 
L 88.921875 0 
L 79.890625 0 
L 79.890625 32.71875 
Q 79.890625 40.578125 77.09375 44.375 
Q 74.3125 48.1875 68.609375 48.1875 
Q 61.625 48.1875 57.5625 43.546875 
Q 53.515625 38.921875 53.515625 30.90625 
L 53.515625 0 
L 44.484375 0 
L 44.484375 32.71875 
Q 44.484375 40.625 41.703125 44.40625 
Q 38.921875 48.1875 33.109375 48.1875 
Q 26.21875 48.1875 22.15625 43.53125 
Q 18.109375 38.875 18.109375 30.90625 
L 18.109375 0 
L 9.078125 0 
L 9.078125 54.6875 
L 18.109375 54.6875 
L 18.109375 46.1875 
Q 21.1875 51.21875 25.484375 53.609375 
Q 29.78125 56 35.6875 56 
Q 41.65625 56 45.828125 52.96875 
Q 50 49.953125 52 44.1875 
z
" id="DejaVuSans-6d"/>
      <path d="M 56.203125 29.59375 
L 56.203125 25.203125 
L 14.890625 25.203125 
Q 15.484375 15.921875 20.484375 11.0625 
Q 25.484375 6.203125 34.421875 6.203125 
Q 39.59375 6.203125 44.453125 7.46875 
Q 49.3125 8.734375 54.109375 11.28125 
L 54.109375 2.78125 
Q 49.265625 0.734375 44.1875 -0.34375 
Q 39.109375 -1.421875 33.890625 -1.421875 
Q 20.796875 -1.421875 13.15625 6.1875 
Q 5.515625 13.8125 5.515625 26.8125 
Q 5.515625 40.234375 12.765625 48.109375 
Q 20.015625 56 32.328125 56 
Q 43.359375 56 49.78125 48.890625 
Q 56.203125 41.796875 56.203125 29.59375 
z
M 47.21875 32.234375 
Q 47.125 39.59375 43.09375 43.984375 
Q 39.0625 48.390625 32.421875 48.390625 
Q 24.90625 48.390625 20.390625 44.140625 
Q 15.875 39.890625 15.1875 32.171875 
z
" id="DejaVuSans-65"/>
      <path d="M 18.3125 70.21875 
L 18.3125 54.6875 
L 36.8125 54.6875 
L 36.8125 47.703125 
L 18.3125 47.703125 
L 18.3125 18.015625 
Q 18.3125 11.328125 20.140625 9.421875 
Q 21.96875 7.515625 27.59375 7.515625 
L 36.8125 7.515625 
L 36.8125 0 
L 27.59375 0 
Q 17.1875 0 13.234375 3.875 
Q 9.28125 7.765625 9.28125 18.015625 
L 9.28125 47.703125 
L 2.6875 47.703125 
L 2.6875 54.6875 
L 9.28125 54.6875 
L 9.28125 70.21875 
z
" id="DejaVuSans-74"/>
      <path d="M 41.109375 46.296875 
Q 39.59375 47.171875 37.8125 47.578125 
Q 36.03125 48 33.890625 48 
Q 26.265625 48 22.1875 43.046875 
Q 18.109375 38.09375 18.109375 28.8125 
L 18.109375 0 
L 9.078125 0 
L 9.078125 54.6875 
L 18.109375 54.6875 
L 18.109375 46.1875 
Q 20.953125 51.171875 25.484375 53.578125 
Q 30.03125 56 36.53125 56 
Q 37.453125 56 38.578125 55.875 
Q 39.703125 55.765625 41.0625 55.515625 
z
" id="DejaVuSans-72"/>
      <path d="M 9.421875 54.6875 
L 18.40625 54.6875 
L 18.40625 0 
L 9.421875 0 
z
M 9.421875 75.984375 
L 18.40625 75.984375 
L 18.40625 64.59375 
L 9.421875 64.59375 
z
" id="DejaVuSans-69"/>
      <path d="M 48.78125 52.59375 
L 48.78125 44.1875 
Q 44.96875 46.296875 41.140625 47.34375 
Q 37.3125 48.390625 33.40625 48.390625 
Q 24.65625 48.390625 19.8125 42.84375 
Q 14.984375 37.3125 14.984375 27.296875 
Q 14.984375 17.28125 19.8125 11.734375 
Q 24.65625 6.203125 33.40625 6.203125 
Q 37.3125 6.203125 41.140625 7.25 
Q 44.96875 8.296875 48.78125 10.40625 
L 48.78125 2.09375 
Q 45.015625 0.34375 40.984375 -0.53125 
Q 36.96875 -1.421875 32.421875 -1.421875 
Q 20.0625 -1.421875 12.78125 6.34375 
Q 5.515625 14.109375 5.515625 27.296875 
Q 5.515625 40.671875 12.859375 48.328125 
Q 20.21875 56 33.015625 56 
Q 37.15625 56 41.109375 55.140625 
Q 45.0625 54.296875 48.78125 52.59375 
z
" id="DejaVuSans-63"/>
      <path id="DejaVuSans-20"/>
      <path d="M 34.1875 63.1875 
L 20.796875 26.90625 
L 47.609375 26.90625 
z
M 28.609375 72.90625 
L 39.796875 72.90625 
L 67.578125 0 
L 57.328125 0 
L 50.6875 18.703125 
L 17.828125 18.703125 
L 11.1875 0 
L 0.78125 0 
z
" id="DejaVuSans-41"/>
      <path d="M 48.6875 27.296875 
Q 48.6875 37.203125 44.609375 42.84375 
Q 40.53125 48.484375 33.40625 48.484375 
Q 26.265625 48.484375 22.1875 42.84375 
Q 18.109375 37.203125 18.109375 27.296875 
Q 18.109375 17.390625 22.1875 11.75 
Q 26.265625 6.109375 33.40625 6.109375 
Q 40.53125 6.109375 44.609375 11.75 
Q 48.6875 17.390625 48.6875 27.296875 
z
M 18.109375 46.390625 
Q 20.953125 51.265625 25.265625 53.625 
Q 29.59375 56 35.59375 56 
Q 45.5625 56 51.78125 48.09375 
Q 58.015625 40.1875 58.015625 27.296875 
Q 58.015625 14.40625 51.78125 6.484375 
Q 45.5625 -1.421875 35.59375 -1.421875 
Q 29.59375 -1.421875 25.265625 0.953125 
Q 20.953125 3.328125 18.109375 8.203125 
L 18.109375 0 
L 9.078125 0 
L 9.078125 75.984375 
L 18.109375 75.984375 
z
" id="DejaVuSans-62"/>
      <path d="M 44.28125 53.078125 
L 44.28125 44.578125 
Q 40.484375 46.53125 36.375 47.5 
Q 32.28125 48.484375 27.875 48.484375 
Q 21.1875 48.484375 17.84375 46.4375 
Q 14.5 44.390625 14.5 40.28125 
Q 14.5 37.15625 16.890625 35.375 
Q 19.28125 33.59375 26.515625 31.984375 
L 29.59375 31.296875 
Q 39.15625 29.25 43.1875 25.515625 
Q 47.21875 21.78125 47.21875 15.09375 
Q 47.21875 7.46875 41.1875 3.015625 
Q 35.15625 -1.421875 24.609375 -1.421875 
Q 20.21875 -1.421875 15.453125 -0.5625 
Q 10.6875 0.296875 5.421875 2 
L 5.421875 11.28125 
Q 10.40625 8.6875 15.234375 7.390625 
Q 20.0625 6.109375 24.8125 6.109375 
Q 31.15625 6.109375 34.5625 8.28125 
Q 37.984375 10.453125 37.984375 14.40625 
Q 37.984375 18.0625 35.515625 20.015625 
Q 33.0625 21.96875 24.703125 23.78125 
L 21.578125 24.515625 
Q 13.234375 26.265625 9.515625 29.90625 
Q 5.8125 33.546875 5.8125 39.890625 
Q 5.8125 47.609375 11.28125 51.796875 
Q 16.75 56 26.8125 56 
Q 31.78125 56 36.171875 55.265625 
Q 40.578125 54.546875 44.28125 53.078125 
z
" id="DejaVuSans-73"/>
      <path d="M 30.609375 48.390625 
Q 23.390625 48.390625 19.1875 42.75 
Q 14.984375 37.109375 14.984375 27.296875 
Q 14.984375 17.484375 19.15625 11.84375 
Q 23.34375 6.203125 30.609375 6.203125 
Q 37.796875 6.203125 41.984375 11.859375 
Q 46.1875 17.53125 46.1875 27.296875 
Q 46.1875 37.015625 41.984375 42.703125 
Q 37.796875 48.390625 30.609375 48.390625 
z
M 30.609375 56 
Q 42.328125 56 49.015625 48.375 
Q 55.71875 40.765625 55.71875 27.296875 
Q 55.71875 13.875 49.015625 6.21875 
Q 42.328125 -1.421875 30.609375 -1.421875 
Q 18.84375 -1.421875 12.171875 6.21875 
Q 5.515625 13.875 5.515625 27.296875 
Q 5.515625 40.765625 12.171875 48.375 
Q 18.84375 56 30.609375 56 
z
" id="DejaVuSans-6f"/>
      <path d="M 9.421875 75.984375 
L 18.40625 75.984375 
L 18.40625 0 
L 9.421875 0 
z
" id="DejaVuSans-6c"/>
      <path d="M 8.5 21.578125 
L 8.5 54.6875 
L 17.484375 54.6875 
L 17.484375 21.921875 
Q 17.484375 14.15625 20.5 10.265625 
Q 23.53125 6.390625 29.59375 6.390625 
Q 36.859375 6.390625 41.078125 11.03125 
Q 45.3125 15.671875 45.3125 23.6875 
L 45.3125 54.6875 
L 54.296875 54.6875 
L 54.296875 0 
L 45.3125 0 
L 45.3125 8.40625 
Q 42.046875 3.421875 37.71875 1 
Q 33.40625 -1.421875 27.6875 -1.421875 
Q 18.265625 -1.421875 13.375 4.4375 
Q 8.5 10.296875 8.5 21.578125 
z
M 31.109375 56 
z
" id="DejaVuSans-75"/>
      <path d="M 19.671875 64.796875 
L 19.671875 37.40625 
L 32.078125 37.40625 
Q 38.96875 37.40625 42.71875 40.96875 
Q 46.484375 44.53125 46.484375 51.125 
Q 46.484375 57.671875 42.71875 61.234375 
Q 38.96875 64.796875 32.078125 64.796875 
z
M 9.8125 72.90625 
L 32.078125 72.90625 
Q 44.34375 72.90625 50.609375 67.359375 
Q 56.890625 61.8125 56.890625 51.125 
Q 56.890625 40.328125 50.609375 34.8125 
Q 44.34375 29.296875 32.078125 29.296875 
L 19.671875 29.296875 
L 19.671875 0 
L 9.8125 0 
z
" id="DejaVuSans-50"/>
      <path d="M 54.890625 33.015625 
L 54.890625 0 
L 45.90625 0 
L 45.90625 32.71875 
Q 45.90625 40.484375 42.875 44.328125 
Q 39.84375 48.1875 33.796875 48.1875 
Q 26.515625 48.1875 22.3125 43.546875 
Q 18.109375 38.921875 18.109375 30.90625 
L 18.109375 0 
L 9.078125 0 
L 9.078125 54.6875 
L 18.109375 54.6875 
L 18.109375 46.1875 
Q 21.34375 51.125 25.703125 53.5625 
Q 30.078125 56 35.796875 56 
Q 45.21875 56 50.046875 50.171875 
Q 54.890625 44.34375 54.890625 33.015625 
z
" id="DejaVuSans-6e"/>
      <path d="M 34.28125 27.484375 
Q 23.390625 27.484375 19.1875 25 
Q 14.984375 22.515625 14.984375 16.5 
Q 14.984375 11.71875 18.140625 8.90625 
Q 21.296875 6.109375 26.703125 6.109375 
Q 34.1875 6.109375 38.703125 11.40625 
Q 43.21875 16.703125 43.21875 25.484375 
L 43.21875 27.484375 
z
M 52.203125 31.203125 
L 52.203125 0 
L 43.21875 0 
L 43.21875 8.296875 
Q 40.140625 3.328125 35.546875 0.953125 
Q 30.953125 -1.421875 24.3125 -1.421875 
Q 15.921875 -1.421875 10.953125 3.296875 
Q 6 8.015625 6 15.921875 
Q 6 25.140625 12.171875 29.828125 
Q 18.359375 34.515625 30.609375 34.515625 
L 43.21875 34.515625 
L 43.21875 35.40625 
Q 43.21875 41.609375 39.140625 45 
Q 35.0625 48.390625 27.6875 48.390625 
Q 23 48.390625 18.546875 47.265625 
Q 14.109375 46.140625 10.015625 43.890625 
L 10.015625 52.203125 
Q 14.9375 54.109375 19.578125 55.046875 
Q 24.21875 56 28.609375 56 
Q 40.484375 56 46.34375 49.84375 
Q 52.203125 43.703125 52.203125 31.203125 
z
" id="DejaVuSans-61"/>
      <path d="M 45.40625 27.984375 
Q 45.40625 37.75 41.375 43.109375 
Q 37.359375 48.484375 30.078125 48.484375 
Q 22.859375 48.484375 18.828125 43.109375 
Q 14.796875 37.75 14.796875 27.984375 
Q 14.796875 18.265625 18.828125 12.890625 
Q 22.859375 7.515625 30.078125 7.515625 
Q 37.359375 7.515625 41.375 12.890625 
Q 45.40625 18.265625 45.40625 27.984375 
z
M 54.390625 6.78125 
Q 54.390625 -7.171875 48.1875 -13.984375 
Q 42 -20.796875 29.203125 -20.796875 
Q 24.46875 -20.796875 20.265625 -20.09375 
Q 16.0625 -19.390625 12.109375 -17.921875 
L 12.109375 -9.1875 
Q 16.0625 -11.328125 19.921875 -12.34375 
Q 23.78125 -13.375 27.78125 -13.375 
Q 36.625 -13.375 41.015625 -8.765625 
Q 45.40625 -4.15625 45.40625 5.171875 
L 45.40625 9.625 
Q 42.625 4.78125 38.28125 2.390625 
Q 33.9375 0 27.875 0 
Q 17.828125 0 11.671875 7.65625 
Q 5.515625 15.328125 5.515625 27.984375 
Q 5.515625 40.671875 11.671875 48.328125 
Q 17.828125 56 27.875 56 
Q 33.9375 56 38.28125 53.609375 
Q 42.625 51.21875 45.40625 46.390625 
L 45.40625 54.6875 
L 54.390625 54.6875 
z
" id="DejaVuSans-67"/>
      <path d="M 9.8125 72.90625 
L 55.90625 72.90625 
L 55.90625 64.59375 
L 19.671875 64.59375 
L 19.671875 43.015625 
L 54.390625 43.015625 
L 54.390625 34.71875 
L 19.671875 34.71875 
L 19.671875 8.296875 
L 56.78125 8.296875 
L 56.78125 0 
L 9.8125 0 
z
" id="DejaVuSans-45"/>
     </defs>
     <g style="fill:#262626;" transform="translate(140.745645 587.9391)scale(0.192 -0.192)">
      <use xlink:href="#DejaVuSans-53"/>
      <use x="63.476562" xlink:href="#DejaVuSans-79"/>
      <use x="122.65625" xlink:href="#DejaVuSans-6d"/>
      <use x="220.068359" xlink:href="#DejaVuSans-6d"/>
      <use x="317.480469" xlink:href="#DejaVuSans-65"/>
      <use x="379.003906" xlink:href="#DejaVuSans-74"/>
      <use x="418.212891" xlink:href="#DejaVuSans-72"/>
      <use x="459.326172" xlink:href="#DejaVuSans-69"/>
      <use x="487.109375" xlink:href="#DejaVuSans-63"/>
      <use x="542.089844" xlink:href="#DejaVuSans-20"/>
      <use x="573.876953" xlink:href="#DejaVuSans-41"/>
      <use x="642.285156" xlink:href="#DejaVuSans-62"/>
      <use x="705.761719" xlink:href="#DejaVuSans-73"/>
      <use x="757.861328" xlink:href="#DejaVuSans-6f"/>
      <use x="819.042969" xlink:href="#DejaVuSans-6c"/>
      <use x="846.826172" xlink:href="#DejaVuSans-75"/>
      <use x="910.205078" xlink:href="#DejaVuSans-74"/>
      <use x="949.414062" xlink:href="#DejaVuSans-65"/>
      <use x="1010.9375" xlink:href="#DejaVuSans-20"/>
      <use x="1042.724609" xlink:href="#DejaVuSans-50"/>
      <use x="1102.980469" xlink:href="#DejaVuSans-65"/>
      <use x="1164.503906" xlink:href="#DejaVuSans-72"/>
      <use x="1205.585938" xlink:href="#DejaVuSans-63"/>
      <use x="1260.566406" xlink:href="#DejaVuSans-65"/>
      <use x="1322.089844" xlink:href="#DejaVuSans-6e"/>
      <use x="1385.46875" xlink:href="#DejaVuSans-74"/>
      <use x="1424.677734" xlink:href="#DejaVuSans-61"/>
      <use x="1485.957031" xlink:href="#DejaVuSans-67"/>
      <use x="1549.433594" xlink:href="#DejaVuSans-65"/>
      <use x="1610.957031" xlink:href="#DejaVuSans-20"/>
      <use x="1642.744141" xlink:href="#DejaVuSans-45"/>
      <use x="1705.927734" xlink:href="#DejaVuSans-72"/>
      <use x="1747.025391" xlink:href="#DejaVuSans-72"/>
      <use x="1788.107422" xlink:href="#DejaVuSans-6f"/>
      <use x="1849.289062" xlink:href="#DejaVuSans-72"/>
     </g>
    </g>
   </g>
   <g id="matplotlib.axis_2">
    <g id="ytick_1">
     <g id="line2d_7">
      <path clip-path="url(#p4b62072e7d)" d="M 99.21775 537.206222 
L 545.23154 537.206222 
" style="fill:none;stroke:#ffffff;stroke-linecap:round;stroke-width:2;"/>
     </g>
     <g id="text_8">
      <!-- −0.15 -->
      <defs>
       <path d="M 10.59375 35.5 
L 73.1875 35.5 
L 73.1875 27.203125 
L 10.59375 27.203125 
z
" id="DejaVuSans-2212"/>
       <path d="M 10.6875 12.40625 
L 21 12.40625 
L 21 0 
L 10.6875 0 
z
" id="DejaVuSans-2e"/>
       <path d="M 10.796875 72.90625 
L 49.515625 72.90625 
L 49.515625 64.59375 
L 19.828125 64.59375 
L 19.828125 46.734375 
Q 21.96875 47.46875 24.109375 47.828125 
Q 26.265625 48.1875 28.421875 48.1875 
Q 40.625 48.1875 47.75 41.5 
Q 54.890625 34.8125 54.890625 23.390625 
Q 54.890625 11.625 47.5625 5.09375 
Q 40.234375 -1.421875 26.90625 -1.421875 
Q 22.3125 -1.421875 17.546875 -0.640625 
Q 12.796875 0.140625 7.71875 1.703125 
L 7.71875 11.625 
Q 12.109375 9.234375 16.796875 8.0625 
Q 21.484375 6.890625 26.703125 6.890625 
Q 35.15625 6.890625 40.078125 11.328125 
Q 45.015625 15.765625 45.015625 23.390625 
Q 45.015625 31 40.078125 35.4375 
Q 35.15625 39.890625 26.703125 39.890625 
Q 22.75 39.890625 18.8125 39.015625 
Q 14.890625 38.140625 10.796875 36.28125 
z
" id="DejaVuSans-35"/>
      </defs>
      <g style="fill:#262626;" transform="translate(29.782 543.892847)scale(0.176 -0.176)">
       <use xlink:href="#DejaVuSans-2212"/>
       <use x="83.789062" xlink:href="#DejaVuSans-30"/>
       <use x="147.412109" xlink:href="#DejaVuSans-2e"/>
       <use x="179.199219" xlink:href="#DejaVuSans-31"/>
       <use x="242.822266" xlink:href="#DejaVuSans-35"/>
      </g>
     </g>
    </g>
    <g id="ytick_2">
     <g id="line2d_8">
      <path clip-path="url(#p4b62072e7d)" d="M 99.21775 485.271082 
L 545.23154 485.271082 
" style="fill:none;stroke:#ffffff;stroke-linecap:round;stroke-width:2;"/>
     </g>
     <g id="text_9">
      <!-- −0.10 -->
      <g style="fill:#262626;" transform="translate(29.782 491.957707)scale(0.176 -0.176)">
       <use xlink:href="#DejaVuSans-2212"/>
       <use x="83.789062" xlink:href="#DejaVuSans-30"/>
       <use x="147.412109" xlink:href="#DejaVuSans-2e"/>
       <use x="179.199219" xlink:href="#DejaVuSans-31"/>
       <use x="242.822266" xlink:href="#DejaVuSans-30"/>
      </g>
     </g>
    </g>
    <g id="ytick_3">
     <g id="line2d_9">
      <path clip-path="url(#p4b62072e7d)" d="M 99.21775 433.335943 
L 545.23154 433.335943 
" style="fill:none;stroke:#ffffff;stroke-linecap:round;stroke-width:2;"/>
     </g>
     <g id="text_10">
      <!-- −0.05 -->
      <g style="fill:#262626;" transform="translate(29.782 440.022568)scale(0.176 -0.176)">
       <use xlink:href="#DejaVuSans-2212"/>
       <use x="83.789062" xlink:href="#DejaVuSans-30"/>
       <use x="147.412109" xlink:href="#DejaVuSans-2e"/>
       <use x="179.199219" xlink:href="#DejaVuSans-30"/>
       <use x="242.822266" xlink:href="#DejaVuSans-35"/>
      </g>
     </g>
    </g>
    <g id="ytick_4">
     <g id="line2d_10">
      <path clip-path="url(#p4b62072e7d)" d="M 99.21775 381.400803 
L 545.23154 381.400803 
" style="fill:none;stroke:#ffffff;stroke-linecap:round;stroke-width:2;"/>
     </g>
     <g id="text_11">
      <!-- 0.00 -->
      <g style="fill:#262626;" transform="translate(44.53025 388.087428)scale(0.176 -0.176)">
       <use xlink:href="#DejaVuSans-30"/>
       <use x="63.623047" xlink:href="#DejaVuSans-2e"/>
       <use x="95.410156" xlink:href="#DejaVuSans-30"/>
       <use x="159.033203" xlink:href="#DejaVuSans-30"/>
      </g>
     </g>
    </g>
    <g id="ytick_5">
     <g id="line2d_11">
      <path clip-path="url(#p4b62072e7d)" d="M 99.21775 329.465664 
L 545.23154 329.465664 
" style="fill:none;stroke:#ffffff;stroke-linecap:round;stroke-width:2;"/>
     </g>
     <g id="text_12">
      <!-- 0.05 -->
      <g style="fill:#262626;" transform="translate(44.53025 336.152289)scale(0.176 -0.176)">
       <use xlink:href="#DejaVuSans-30"/>
       <use x="63.623047" xlink:href="#DejaVuSans-2e"/>
       <use x="95.410156" xlink:href="#DejaVuSans-30"/>
       <use x="159.033203" xlink:href="#DejaVuSans-35"/>
      </g>
     </g>
    </g>
    <g id="ytick_6">
     <g id="line2d_12">
      <path clip-path="url(#p4b62072e7d)" d="M 99.21775 277.530524 
L 545.23154 277.530524 
" style="fill:none;stroke:#ffffff;stroke-linecap:round;stroke-width:2;"/>
     </g>
     <g id="text_13">
      <!-- 0.10 -->
      <g style="fill:#262626;" transform="translate(44.53025 284.217149)scale(0.176 -0.176)">
       <use xlink:href="#DejaVuSans-30"/>
       <use x="63.623047" xlink:href="#DejaVuSans-2e"/>
       <use x="95.410156" xlink:href="#DejaVuSans-31"/>
       <use x="159.033203" xlink:href="#DejaVuSans-30"/>
      </g>
     </g>
    </g>
    <g id="ytick_7">
     <g id="line2d_13">
      <path clip-path="url(#p4b62072e7d)" d="M 99.21775 225.595385 
L 545.23154 225.595385 
" style="fill:none;stroke:#ffffff;stroke-linecap:round;stroke-width:2;"/>
     </g>
     <g id="text_14">
      <!-- 0.15 -->
      <g style="fill:#262626;" transform="translate(44.53025 232.28201)scale(0.176 -0.176)">
       <use xlink:href="#DejaVuSans-30"/>
       <use x="63.623047" xlink:href="#DejaVuSans-2e"/>
       <use x="95.410156" xlink:href="#DejaVuSans-31"/>
       <use x="159.033203" xlink:href="#DejaVuSans-35"/>
      </g>
     </g>
    </g>
    <g id="ytick_8">
     <g id="line2d_14">
      <path clip-path="url(#p4b62072e7d)" d="M 99.21775 173.660245 
L 545.23154 173.660245 
" style="fill:none;stroke:#ffffff;stroke-linecap:round;stroke-width:2;"/>
     </g>
     <g id="text_15">
      <!-- 0.20 -->
      <g style="fill:#262626;" transform="translate(44.53025 180.34687)scale(0.176 -0.176)">
       <use xlink:href="#DejaVuSans-30"/>
       <use x="63.623047" xlink:href="#DejaVuSans-2e"/>
       <use x="95.410156" xlink:href="#DejaVuSans-32"/>
       <use x="159.033203" xlink:href="#DejaVuSans-30"/>
      </g>
     </g>
    </g>
    <g id="ytick_9">
     <g id="line2d_15">
      <path clip-path="url(#p4b62072e7d)" d="M 99.21775 121.725106 
L 545.23154 121.725106 
" style="fill:none;stroke:#ffffff;stroke-linecap:round;stroke-width:2;"/>
     </g>
     <g id="text_16">
      <!-- 0.25 -->
      <g style="fill:#262626;" transform="translate(44.53025 128.411731)scale(0.176 -0.176)">
       <use xlink:href="#DejaVuSans-30"/>
       <use x="63.623047" xlink:href="#DejaVuSans-2e"/>
       <use x="95.410156" xlink:href="#DejaVuSans-32"/>
       <use x="159.033203" xlink:href="#DejaVuSans-35"/>
      </g>
     </g>
    </g>
    <g id="text_17">
     <!-- GSV Density -->
     <defs>
      <path d="M 59.515625 10.40625 
L 59.515625 29.984375 
L 43.40625 29.984375 
L 43.40625 38.09375 
L 69.28125 38.09375 
L 69.28125 6.78125 
Q 63.578125 2.734375 56.6875 0.65625 
Q 49.8125 -1.421875 42 -1.421875 
Q 24.90625 -1.421875 15.25 8.5625 
Q 5.609375 18.5625 5.609375 36.375 
Q 5.609375 54.25 15.25 64.234375 
Q 24.90625 74.21875 42 74.21875 
Q 49.125 74.21875 55.546875 72.453125 
Q 61.96875 70.703125 67.390625 67.28125 
L 67.390625 56.78125 
Q 61.921875 61.421875 55.765625 63.765625 
Q 49.609375 66.109375 42.828125 66.109375 
Q 29.4375 66.109375 22.71875 58.640625 
Q 16.015625 51.171875 16.015625 36.375 
Q 16.015625 21.625 22.71875 14.15625 
Q 29.4375 6.6875 42.828125 6.6875 
Q 48.046875 6.6875 52.140625 7.59375 
Q 56.25 8.5 59.515625 10.40625 
z
" id="DejaVuSans-47"/>
      <path d="M 28.609375 0 
L 0.78125 72.90625 
L 11.078125 72.90625 
L 34.1875 11.53125 
L 57.328125 72.90625 
L 67.578125 72.90625 
L 39.796875 0 
z
" id="DejaVuSans-56"/>
      <path d="M 19.671875 64.796875 
L 19.671875 8.109375 
L 31.59375 8.109375 
Q 46.6875 8.109375 53.6875 14.9375 
Q 60.6875 21.78125 60.6875 36.53125 
Q 60.6875 51.171875 53.6875 57.984375 
Q 46.6875 64.796875 31.59375 64.796875 
z
M 9.8125 72.90625 
L 30.078125 72.90625 
Q 51.265625 72.90625 61.171875 64.09375 
Q 71.09375 55.28125 71.09375 36.53125 
Q 71.09375 17.671875 61.125 8.828125 
Q 51.171875 0 30.078125 0 
L 9.8125 0 
z
" id="DejaVuSans-44"/>
     </defs>
     <g style="fill:#262626;" transform="translate(21.789 363.4501)rotate(-90)scale(0.192 -0.192)">
      <use xlink:href="#DejaVuSans-47"/>
      <use x="77.490234" xlink:href="#DejaVuSans-53"/>
      <use x="140.966797" xlink:href="#DejaVuSans-56"/>
      <use x="209.375" xlink:href="#DejaVuSans-20"/>
      <use x="241.162109" xlink:href="#DejaVuSans-44"/>
      <use x="318.164062" xlink:href="#DejaVuSans-65"/>
      <use x="379.6875" xlink:href="#DejaVuSans-6e"/>
      <use x="443.066406" xlink:href="#DejaVuSans-73"/>
      <use x="495.166016" xlink:href="#DejaVuSans-69"/>
      <use x="522.949219" xlink:href="#DejaVuSans-74"/>
      <use x="562.158203" xlink:href="#DejaVuSans-79"/>
     </g>
    </g>
   </g>
   <g id="PathCollection_1">
    <defs>
     <path d="M 0 6 
C 1.591219 6 3.117479 5.367802 4.242641 4.242641 
C 5.367802 3.117479 6 1.591219 6 0 
C 6 -1.591219 5.367802 -3.117479 4.242641 -4.242641 
C 3.117479 -5.367802 1.591219 -6 0 -6 
C -1.591219 -6 -3.117479 -5.367802 -4.242641 -4.242641 
C -5.367802 -3.117479 -6 -1.591219 -6 0 
C -6 1.591219 -5.367802 3.117479 -4.242641 4.242641 
C -3.117479 5.367802 -1.591219 6 0 6 
z
" id="mbd78cb6f43" style="stroke:#2ecc71;stroke-width:2;"/>
    </defs>
    <g clip-path="url(#p4b62072e7d)">
     <use style="fill:#2ecc71;stroke:#2ecc71;stroke-width:2;" x="127.077892" xlink:href="#mbd78cb6f43" y="298.871706"/>
     <use style="fill:#2ecc71;stroke:#2ecc71;stroke-width:2;" x="119.542388" xlink:href="#mbd78cb6f43" y="327.744596"/>
     <use style="fill:#2ecc71;stroke:#2ecc71;stroke-width:2;" x="134.822101" xlink:href="#mbd78cb6f43" y="350.801422"/>
     <use style="fill:#2ecc71;stroke:#2ecc71;stroke-width:2;" x="128.379546" xlink:href="#mbd78cb6f43" y="313.561139"/>
     <use style="fill:#2ecc71;stroke:#2ecc71;stroke-width:2;" x="122.237115" xlink:href="#mbd78cb6f43" y="104.715781"/>
     <use style="fill:#2ecc71;stroke:#2ecc71;stroke-width:2;" x="128.444094" xlink:href="#mbd78cb6f43" y="231.083799"/>
     <use style="fill:#2ecc71;stroke:#2ecc71;stroke-width:2;" x="124.877544" xlink:href="#mbd78cb6f43" y="290.250988"/>
     <use style="fill:#2ecc71;stroke:#2ecc71;stroke-width:2;" x="122.018336" xlink:href="#mbd78cb6f43" y="117.359341"/>
    </g>
   </g>
   <g id="PathCollection_2">
    <defs>
     <path d="M -0 8.485281 
L 8.485281 0 
L 0 -8.485281 
L -8.485281 -0 
z
" id="m083a69664c" style="stroke:#34495e;stroke-width:2;"/>
    </defs>
    <g clip-path="url(#p4b62072e7d)">
     <use style="fill:#34495e;stroke:#34495e;stroke-width:2;" x="209.221625" xlink:href="#m083a69664c" y="311.252692"/>
     <use style="fill:#34495e;stroke:#34495e;stroke-width:2;" x="184.258648" xlink:href="#m083a69664c" y="316.287794"/>
     <use style="fill:#34495e;stroke:#34495e;stroke-width:2;" x="143.333579" xlink:href="#m083a69664c" y="326.711988"/>
     <use style="fill:#34495e;stroke:#34495e;stroke-width:2;" x="198.413326" xlink:href="#m083a69664c" y="308.327261"/>
     <use style="fill:#34495e;stroke:#34495e;stroke-width:2;" x="141.548047" xlink:href="#m083a69664c" y="241.353923"/>
     <use style="fill:#34495e;stroke:#34495e;stroke-width:2;" x="171.17626" xlink:href="#m083a69664c" y="263.262139"/>
     <use style="fill:#34495e;stroke:#34495e;stroke-width:2;" x="153.285125" xlink:href="#m083a69664c" y="241.628574"/>
     <use style="fill:#34495e;stroke:#34495e;stroke-width:2;" x="214.848791" xlink:href="#m083a69664c" y="295.414305"/>
     <use style="fill:#34495e;stroke:#34495e;stroke-width:2;" x="146.609309" xlink:href="#m083a69664c" y="265.43286"/>
     <use style="fill:#34495e;stroke:#34495e;stroke-width:2;" x="197.013785" xlink:href="#m083a69664c" y="299.461794"/>
     <use style="fill:#34495e;stroke:#34495e;stroke-width:2;" x="145.110678" xlink:href="#m083a69664c" y="330.786713"/>
     <use style="fill:#34495e;stroke:#34495e;stroke-width:2;" x="174.566122" xlink:href="#m083a69664c" y="290.867983"/>
     <use style="fill:#34495e;stroke:#34495e;stroke-width:2;" x="182.403743" xlink:href="#m083a69664c" y="279.086779"/>
     <use style="fill:#34495e;stroke:#34495e;stroke-width:2;" x="175.131811" xlink:href="#m083a69664c" y="231.63783"/>
    </g>
   </g>
   <g id="PathCollection_3">
    <defs>
     <path d="M -6 6 
L 6 6 
L 6 -6 
L -6 -6 
z
" id="mf175244d62" style="stroke:#e74c3c;stroke-width:2;"/>
    </defs>
    <g clip-path="url(#p4b62072e7d)">
     <use style="fill:#e74c3c;stroke:#e74c3c;stroke-width:2;" x="273.756584" xlink:href="#mf175244d62" y="289.716247"/>
     <use style="fill:#e74c3c;stroke:#e74c3c;stroke-width:2;" x="299.269073" xlink:href="#mf175244d62" y="320.988229"/>
     <use style="fill:#e74c3c;stroke:#e74c3c;stroke-width:2;" x="523.634858" xlink:href="#mf175244d62" y="314.533905"/>
     <use style="fill:#e74c3c;stroke:#e74c3c;stroke-width:2;" x="263.027447" xlink:href="#mf175244d62" y="316.652594"/>
     <use style="fill:#e74c3c;stroke:#e74c3c;stroke-width:2;" x="284.90607" xlink:href="#mf175244d62" y="295.838671"/>
     <use style="fill:#e74c3c;stroke:#e74c3c;stroke-width:2;" x="268.998852" xlink:href="#mf175244d62" y="350.465849"/>
     <use style="fill:#e74c3c;stroke:#e74c3c;stroke-width:2;" x="230.519466" xlink:href="#mf175244d62" y="264.581406"/>
    </g>
   </g>
   <g id="PolyCollection_1">
    <defs>
     <path d="M 99.21775 -389.652436 
L 99.21775 -303.443773 
L 103.72294 -303.338454 
L 108.22813 -303.244345 
L 112.733319 -303.057137 
L 117.238509 -302.92088 
L 121.743699 -302.66989 
L 126.248889 -302.364906 
L 130.754079 -302.244833 
L 135.259268 -301.923558 
L 139.764458 -301.498246 
L 144.269648 -301.158278 
L 148.774838 -301.083016 
L 153.280028 -300.917154 
L 157.785217 -300.893824 
L 162.290407 -300.467062 
L 166.795597 -300.048505 
L 171.300787 -299.915125 
L 175.805977 -299.539469 
L 180.311166 -299.156802 
L 184.816356 -299.130825 
L 189.321546 -298.80648 
L 193.826736 -298.142197 
L 198.331926 -297.872505 
L 202.837115 -297.296427 
L 207.342305 -296.709824 
L 211.847495 -295.506668 
L 216.352685 -294.694575 
L 220.857875 -292.648175 
L 225.363064 -291.619587 
L 229.868254 -290.326888 
L 234.373444 -288.023939 
L 238.878634 -285.90386 
L 243.383824 -283.550219 
L 247.889013 -281.229255 
L 252.394203 -278.373279 
L 256.899393 -275.345584 
L 261.404583 -272.399627 
L 265.909773 -269.373213 
L 270.414962 -266.728111 
L 274.920152 -264.098239 
L 279.425342 -261.463888 
L 283.930532 -258.829537 
L 288.435721 -255.650509 
L 292.940911 -252.941817 
L 297.446101 -250.470685 
L 301.951291 -247.698544 
L 306.456481 -244.65242 
L 310.96167 -241.597456 
L 315.46686 -238.455051 
L 319.97205 -235.493129 
L 324.47724 -232.43749 
L 328.98243 -229.213205 
L 333.487619 -226.254454 
L 337.992809 -223.279415 
L 342.497999 -220.390878 
L 347.003189 -217.657361 
L 351.508379 -214.788407 
L 356.013568 -211.919453 
L 360.518758 -208.923962 
L 365.023948 -205.916163 
L 369.529138 -202.909142 
L 374.034328 -199.902121 
L 378.539517 -196.8951 
L 383.044707 -193.957637 
L 387.549897 -190.870907 
L 392.055087 -187.856063 
L 396.560277 -184.844282 
L 401.065466 -182.014754 
L 405.570656 -179.249957 
L 410.075846 -176.489347 
L 414.581036 -173.728738 
L 419.086226 -170.804139 
L 423.591415 -167.700128 
L 428.096605 -164.752153 
L 432.601795 -161.614566 
L 437.106985 -158.47698 
L 441.612175 -155.339393 
L 446.117364 -152.201806 
L 450.622554 -149.06422 
L 455.127744 -145.926767 
L 459.632934 -142.792413 
L 464.138124 -139.655745 
L 468.643313 -136.519202 
L 473.148503 -133.381012 
L 477.653693 -130.242823 
L 482.158883 -127.104633 
L 486.664073 -123.966444 
L 491.169262 -120.828255 
L 495.674452 -117.690065 
L 500.179642 -114.551876 
L 504.684832 -111.413687 
L 509.190022 -108.275594 
L 513.695211 -105.139914 
L 518.200401 -102.006532 
L 522.705591 -98.957236 
L 527.210781 -95.979354 
L 531.715971 -93.001471 
L 536.22116 -89.888255 
L 540.72635 -86.693423 
L 545.23154 -83.498591 
L 545.23154 -292.901677 
L 545.23154 -292.901677 
L 540.72635 -293.086404 
L 536.22116 -293.271131 
L 531.715971 -293.455858 
L 527.210781 -293.640585 
L 522.705591 -293.825312 
L 518.200401 -294.010039 
L 513.695211 -294.194227 
L 509.190022 -294.365442 
L 504.684832 -294.316585 
L 500.179642 -294.267728 
L 495.674452 -294.217964 
L 491.169262 -294.167297 
L 486.664073 -294.11663 
L 482.158883 -294.18215 
L 477.653693 -294.298323 
L 473.148503 -294.414231 
L 468.643313 -294.528335 
L 464.138124 -294.642438 
L 459.632934 -294.756542 
L 455.127744 -294.870646 
L 450.622554 -294.98475 
L 446.117364 -295.098854 
L 441.612175 -295.212958 
L 437.106985 -295.327062 
L 432.601795 -295.441166 
L 428.096605 -295.55527 
L 423.591415 -295.669373 
L 419.086226 -295.78339 
L 414.581036 -295.817162 
L 410.075846 -295.899614 
L 405.570656 -296.095689 
L 401.065466 -296.234557 
L 396.560277 -296.363529 
L 392.055087 -296.515249 
L 387.549897 -296.662001 
L 383.044707 -297.280903 
L 378.539517 -297.65736 
L 374.034328 -297.751666 
L 369.529138 -298.101439 
L 365.023948 -298.510328 
L 360.518758 -298.938228 
L 356.013568 -299.366128 
L 351.508379 -299.87387 
L 347.003189 -300.666413 
L 342.497999 -301.414565 
L 337.992809 -301.995333 
L 333.487619 -302.910568 
L 328.98243 -303.787349 
L 324.47724 -304.681556 
L 319.97205 -305.437381 
L 315.46686 -306.136645 
L 310.96167 -307.01533 
L 306.456481 -307.639127 
L 301.951291 -308.872022 
L 297.446101 -309.811829 
L 292.940911 -310.530858 
L 288.435721 -311.416713 
L 283.930532 -312.187418 
L 279.425342 -313.015698 
L 274.920152 -313.840185 
L 270.414962 -314.66229 
L 265.909773 -315.540762 
L 261.404583 -316.691159 
L 256.899393 -317.537403 
L 252.394203 -318.709961 
L 247.889013 -319.941447 
L 243.383824 -321.044721 
L 238.878634 -322.370897 
L 234.373444 -323.62388 
L 229.868254 -324.907813 
L 225.363064 -325.949941 
L 220.857875 -327.569247 
L 216.352685 -328.545711 
L 211.847495 -330.352007 
L 207.342305 -332.405691 
L 202.837115 -333.942971 
L 198.331926 -335.665933 
L 193.826736 -337.035177 
L 189.321546 -338.946525 
L 184.816356 -340.777271 
L 180.311166 -342.612391 
L 175.805977 -345.020976 
L 171.300787 -346.910605 
L 166.795597 -349.644215 
L 162.290407 -351.757401 
L 157.785217 -353.786732 
L 153.280028 -357.290727 
L 148.774838 -359.863108 
L 144.269648 -362.740102 
L 139.764458 -365.556489 
L 135.259268 -368.695282 
L 130.754079 -371.336387 
L 126.248889 -373.657445 
L 121.743699 -375.877265 
L 117.238509 -378.226287 
L 112.733319 -381.154183 
L 108.22813 -384.309565 
L 103.72294 -386.915571 
L 99.21775 -389.652436 
z
" id="maac72d453f" style="stroke:#ffffff;stroke-opacity:0.15;stroke-width:2;"/>
    </defs>
    <g clip-path="url(#p4b62072e7d)">
     <use style="fill:#4c72b0;fill-opacity:0.15;stroke:#ffffff;stroke-opacity:0.15;stroke-width:2;" x="0" xlink:href="#maac72d453f" y="599.1321"/>
    </g>
   </g>
   <g id="line2d_16">
    <path clip-path="url(#p4b62072e7d)" d="M 99.21775 262.453784 
L 103.72294 263.413474 
L 108.22813 264.373163 
L 112.733319 265.332852 
L 117.238509 266.292542 
L 121.743699 267.252231 
L 126.248889 268.211921 
L 130.754079 269.17161 
L 135.259268 270.131299 
L 139.764458 271.090989 
L 144.269648 272.050678 
L 148.774838 273.010368 
L 153.280028 273.970057 
L 157.785217 274.929747 
L 162.290407 275.889436 
L 166.795597 276.849125 
L 171.300787 277.808815 
L 175.805977 278.768504 
L 180.311166 279.728194 
L 184.816356 280.687883 
L 189.321546 281.647573 
L 193.826736 282.607262 
L 198.331926 283.566951 
L 202.837115 284.526641 
L 207.342305 285.48633 
L 211.847495 286.44602 
L 216.352685 287.405709 
L 220.857875 288.365399 
L 225.363064 289.325088 
L 229.868254 290.284777 
L 234.373444 291.244467 
L 238.878634 292.204156 
L 243.383824 293.163846 
L 247.889013 294.123535 
L 252.394203 295.083224 
L 256.899393 296.042914 
L 261.404583 297.002603 
L 265.909773 297.962293 
L 270.414962 298.921982 
L 274.920152 299.881672 
L 279.425342 300.841361 
L 283.930532 301.80105 
L 288.435721 302.76074 
L 292.940911 303.720429 
L 297.446101 304.680119 
L 301.951291 305.639808 
L 306.456481 306.599498 
L 310.96167 307.559187 
L 315.46686 308.518876 
L 319.97205 309.478566 
L 324.47724 310.438255 
L 328.98243 311.397945 
L 333.487619 312.357634 
L 337.992809 313.317323 
L 342.497999 314.277013 
L 347.003189 315.236702 
L 351.508379 316.196392 
L 356.013568 317.156081 
L 360.518758 318.115771 
L 365.023948 319.07546 
L 369.529138 320.035149 
L 374.034328 320.994839 
L 378.539517 321.954528 
L 383.044707 322.914218 
L 387.549897 323.873907 
L 392.055087 324.833597 
L 396.560277 325.793286 
L 401.065466 326.752975 
L 405.570656 327.712665 
L 410.075846 328.672354 
L 414.581036 329.632044 
L 419.086226 330.591733 
L 423.591415 331.551423 
L 428.096605 332.511112 
L 432.601795 333.470801 
L 437.106985 334.430491 
L 441.612175 335.39018 
L 446.117364 336.34987 
L 450.622554 337.309559 
L 455.127744 338.269248 
L 459.632934 339.228938 
L 464.138124 340.188627 
L 468.643313 341.148317 
L 473.148503 342.108006 
L 477.653693 343.067696 
L 482.158883 344.027385 
L 486.664073 344.987074 
L 491.169262 345.946764 
L 495.674452 346.906453 
L 500.179642 347.866143 
L 504.684832 348.825832 
L 509.190022 349.785522 
L 513.695211 350.745211 
L 518.200401 351.7049 
L 522.705591 352.66459 
L 527.210781 353.624279 
L 531.715971 354.583969 
L 536.22116 355.543658 
L 540.72635 356.503348 
L 545.23154 357.463037 
" style="fill:none;stroke:#4c72b0;stroke-linecap:round;stroke-width:4.5;"/>
   </g>
   <g id="patch_3">
    <path d="M 99.21775 536.8166 
L 99.21775 70.7886 
" style="fill:none;stroke:#ffffff;stroke-linecap:square;stroke-linejoin:miter;stroke-width:2.5;"/>
   </g>
   <g id="patch_4">
    <path d="M 99.21775 536.8166 
L 545.23154 536.8166 
" style="fill:none;stroke:#ffffff;stroke-linecap:square;stroke-linejoin:miter;stroke-width:2.5;"/>
   </g>
   <g id="text_18">
    <!-- Residual Analysis for Dengue Season -->
    <defs>
     <path d="M 44.390625 34.1875 
Q 47.5625 33.109375 50.5625 29.59375 
Q 53.5625 26.078125 56.59375 19.921875 
L 66.609375 0 
L 56 0 
L 46.6875 18.703125 
Q 43.0625 26.03125 39.671875 28.421875 
Q 36.28125 30.8125 30.421875 30.8125 
L 19.671875 30.8125 
L 19.671875 0 
L 9.8125 0 
L 9.8125 72.90625 
L 32.078125 72.90625 
Q 44.578125 72.90625 50.734375 67.671875 
Q 56.890625 62.453125 56.890625 51.90625 
Q 56.890625 45.015625 53.6875 40.46875 
Q 50.484375 35.9375 44.390625 34.1875 
z
M 19.671875 64.796875 
L 19.671875 38.921875 
L 32.078125 38.921875 
Q 39.203125 38.921875 42.84375 42.21875 
Q 46.484375 45.515625 46.484375 51.90625 
Q 46.484375 58.296875 42.84375 61.546875 
Q 39.203125 64.796875 32.078125 64.796875 
z
" id="DejaVuSans-52"/>
     <path d="M 45.40625 46.390625 
L 45.40625 75.984375 
L 54.390625 75.984375 
L 54.390625 0 
L 45.40625 0 
L 45.40625 8.203125 
Q 42.578125 3.328125 38.25 0.953125 
Q 33.9375 -1.421875 27.875 -1.421875 
Q 17.96875 -1.421875 11.734375 6.484375 
Q 5.515625 14.40625 5.515625 27.296875 
Q 5.515625 40.1875 11.734375 48.09375 
Q 17.96875 56 27.875 56 
Q 33.9375 56 38.25 53.625 
Q 42.578125 51.265625 45.40625 46.390625 
z
M 14.796875 27.296875 
Q 14.796875 17.390625 18.875 11.75 
Q 22.953125 6.109375 30.078125 6.109375 
Q 37.203125 6.109375 41.296875 11.75 
Q 45.40625 17.390625 45.40625 27.296875 
Q 45.40625 37.203125 41.296875 42.84375 
Q 37.203125 48.484375 30.078125 48.484375 
Q 22.953125 48.484375 18.875 42.84375 
Q 14.796875 37.203125 14.796875 27.296875 
z
" id="DejaVuSans-64"/>
     <path d="M 37.109375 75.984375 
L 37.109375 68.5 
L 28.515625 68.5 
Q 23.6875 68.5 21.796875 66.546875 
Q 19.921875 64.59375 19.921875 59.515625 
L 19.921875 54.6875 
L 34.71875 54.6875 
L 34.71875 47.703125 
L 19.921875 47.703125 
L 19.921875 0 
L 10.890625 0 
L 10.890625 47.703125 
L 2.296875 47.703125 
L 2.296875 54.6875 
L 10.890625 54.6875 
L 10.890625 58.5 
Q 10.890625 67.625 15.140625 71.796875 
Q 19.390625 75.984375 28.609375 75.984375 
z
" id="DejaVuSans-66"/>
    </defs>
    <g style="fill:#262626;" transform="translate(143.988645 21.789)scale(0.192 -0.192)">
     <use xlink:href="#DejaVuSans-52"/>
     <use x="69.419922" xlink:href="#DejaVuSans-65"/>
     <use x="130.943359" xlink:href="#DejaVuSans-73"/>
     <use x="183.042969" xlink:href="#DejaVuSans-69"/>
     <use x="210.826172" xlink:href="#DejaVuSans-64"/>
     <use x="274.302734" xlink:href="#DejaVuSans-75"/>
     <use x="337.681641" xlink:href="#DejaVuSans-61"/>
     <use x="398.960938" xlink:href="#DejaVuSans-6c"/>
     <use x="426.744141" xlink:href="#DejaVuSans-20"/>
     <use x="458.53125" xlink:href="#DejaVuSans-41"/>
     <use x="526.939453" xlink:href="#DejaVuSans-6e"/>
     <use x="590.318359" xlink:href="#DejaVuSans-61"/>
     <use x="651.597656" xlink:href="#DejaVuSans-6c"/>
     <use x="679.380859" xlink:href="#DejaVuSans-79"/>
     <use x="738.560547" xlink:href="#DejaVuSans-73"/>
     <use x="790.660156" xlink:href="#DejaVuSans-69"/>
     <use x="818.443359" xlink:href="#DejaVuSans-73"/>
     <use x="870.542969" xlink:href="#DejaVuSans-20"/>
     <use x="902.330078" xlink:href="#DejaVuSans-66"/>
     <use x="937.535156" xlink:href="#DejaVuSans-6f"/>
     <use x="998.716797" xlink:href="#DejaVuSans-72"/>
     <use x="1039.830078" xlink:href="#DejaVuSans-20"/>
     <use x="1071.617188" xlink:href="#DejaVuSans-44"/>
     <use x="1148.619141" xlink:href="#DejaVuSans-65"/>
     <use x="1210.142578" xlink:href="#DejaVuSans-6e"/>
     <use x="1273.521484" xlink:href="#DejaVuSans-67"/>
     <use x="1336.998047" xlink:href="#DejaVuSans-75"/>
     <use x="1400.376953" xlink:href="#DejaVuSans-65"/>
     <use x="1461.900391" xlink:href="#DejaVuSans-20"/>
     <use x="1493.6875" xlink:href="#DejaVuSans-53"/>
     <use x="1557.164062" xlink:href="#DejaVuSans-65"/>
     <use x="1618.6875" xlink:href="#DejaVuSans-61"/>
     <use x="1679.966797" xlink:href="#DejaVuSans-73"/>
     <use x="1732.066406" xlink:href="#DejaVuSans-6f"/>
     <use x="1793.248047" xlink:href="#DejaVuSans-6e"/>
    </g>
    <!-- Pearson: -0.311, p-value: 0.1005 -->
    <defs>
     <path d="M 11.71875 12.40625 
L 22.015625 12.40625 
L 22.015625 0 
L 11.71875 0 
z
M 11.71875 51.703125 
L 22.015625 51.703125 
L 22.015625 39.3125 
L 11.71875 39.3125 
z
" id="DejaVuSans-3a"/>
     <path d="M 4.890625 31.390625 
L 31.203125 31.390625 
L 31.203125 23.390625 
L 4.890625 23.390625 
z
" id="DejaVuSans-2d"/>
     <path d="M 40.578125 39.3125 
Q 47.65625 37.796875 51.625 33 
Q 55.609375 28.21875 55.609375 21.1875 
Q 55.609375 10.40625 48.1875 4.484375 
Q 40.765625 -1.421875 27.09375 -1.421875 
Q 22.515625 -1.421875 17.65625 -0.515625 
Q 12.796875 0.390625 7.625 2.203125 
L 7.625 11.71875 
Q 11.71875 9.328125 16.59375 8.109375 
Q 21.484375 6.890625 26.8125 6.890625 
Q 36.078125 6.890625 40.9375 10.546875 
Q 45.796875 14.203125 45.796875 21.1875 
Q 45.796875 27.640625 41.28125 31.265625 
Q 36.765625 34.90625 28.71875 34.90625 
L 20.21875 34.90625 
L 20.21875 43.015625 
L 29.109375 43.015625 
Q 36.375 43.015625 40.234375 45.921875 
Q 44.09375 48.828125 44.09375 54.296875 
Q 44.09375 59.90625 40.109375 62.90625 
Q 36.140625 65.921875 28.71875 65.921875 
Q 24.65625 65.921875 20.015625 65.03125 
Q 15.375 64.15625 9.8125 62.3125 
L 9.8125 71.09375 
Q 15.4375 72.65625 20.34375 73.4375 
Q 25.25 74.21875 29.59375 74.21875 
Q 40.828125 74.21875 47.359375 69.109375 
Q 53.90625 64.015625 53.90625 55.328125 
Q 53.90625 49.265625 50.4375 45.09375 
Q 46.96875 40.921875 40.578125 39.3125 
z
" id="DejaVuSans-33"/>
     <path d="M 11.71875 12.40625 
L 22.015625 12.40625 
L 22.015625 4 
L 14.015625 -11.625 
L 7.71875 -11.625 
L 11.71875 4 
z
" id="DejaVuSans-2c"/>
     <path d="M 18.109375 8.203125 
L 18.109375 -20.796875 
L 9.078125 -20.796875 
L 9.078125 54.6875 
L 18.109375 54.6875 
L 18.109375 46.390625 
Q 20.953125 51.265625 25.265625 53.625 
Q 29.59375 56 35.59375 56 
Q 45.5625 56 51.78125 48.09375 
Q 58.015625 40.1875 58.015625 27.296875 
Q 58.015625 14.40625 51.78125 6.484375 
Q 45.5625 -1.421875 35.59375 -1.421875 
Q 29.59375 -1.421875 25.265625 0.953125 
Q 20.953125 3.328125 18.109375 8.203125 
z
M 48.6875 27.296875 
Q 48.6875 37.203125 44.609375 42.84375 
Q 40.53125 48.484375 33.40625 48.484375 
Q 26.265625 48.484375 22.1875 42.84375 
Q 18.109375 37.203125 18.109375 27.296875 
Q 18.109375 17.390625 22.1875 11.75 
Q 26.265625 6.109375 33.40625 6.109375 
Q 40.53125 6.109375 44.609375 11.75 
Q 48.6875 17.390625 48.6875 27.296875 
z
" id="DejaVuSans-70"/>
     <path d="M 2.984375 54.6875 
L 12.5 54.6875 
L 29.59375 8.796875 
L 46.6875 54.6875 
L 56.203125 54.6875 
L 35.6875 0 
L 23.484375 0 
z
" id="DejaVuSans-76"/>
    </defs>
    <g style="fill:#262626;" transform="translate(164.757645 43.2888)scale(0.192 -0.192)">
     <use xlink:href="#DejaVuSans-50"/>
     <use x="60.255859" xlink:href="#DejaVuSans-65"/>
     <use x="121.779297" xlink:href="#DejaVuSans-61"/>
     <use x="183.058594" xlink:href="#DejaVuSans-72"/>
     <use x="224.171875" xlink:href="#DejaVuSans-73"/>
     <use x="276.271484" xlink:href="#DejaVuSans-6f"/>
     <use x="337.453125" xlink:href="#DejaVuSans-6e"/>
     <use x="400.832031" xlink:href="#DejaVuSans-3a"/>
     <use x="434.523438" xlink:href="#DejaVuSans-20"/>
     <use x="466.310547" xlink:href="#DejaVuSans-2d"/>
     <use x="502.394531" xlink:href="#DejaVuSans-30"/>
     <use x="566.017578" xlink:href="#DejaVuSans-2e"/>
     <use x="597.804688" xlink:href="#DejaVuSans-33"/>
     <use x="661.427734" xlink:href="#DejaVuSans-31"/>
     <use x="725.050781" xlink:href="#DejaVuSans-31"/>
     <use x="788.673828" xlink:href="#DejaVuSans-2c"/>
     <use x="820.460938" xlink:href="#DejaVuSans-20"/>
     <use x="852.248047" xlink:href="#DejaVuSans-70"/>
     <use x="915.724609" xlink:href="#DejaVuSans-2d"/>
     <use x="951.777344" xlink:href="#DejaVuSans-76"/>
     <use x="1010.957031" xlink:href="#DejaVuSans-61"/>
     <use x="1072.236328" xlink:href="#DejaVuSans-6c"/>
     <use x="1100.019531" xlink:href="#DejaVuSans-75"/>
     <use x="1163.398438" xlink:href="#DejaVuSans-65"/>
     <use x="1224.921875" xlink:href="#DejaVuSans-3a"/>
     <use x="1258.613281" xlink:href="#DejaVuSans-20"/>
     <use x="1290.400391" xlink:href="#DejaVuSans-30"/>
     <use x="1354.023438" xlink:href="#DejaVuSans-2e"/>
     <use x="1385.810547" xlink:href="#DejaVuSans-31"/>
     <use x="1449.433594" xlink:href="#DejaVuSans-30"/>
     <use x="1513.056641" xlink:href="#DejaVuSans-30"/>
     <use x="1576.679688" xlink:href="#DejaVuSans-35"/>
    </g>
    <!-- Spearman: -0.2502, p-value: 0.1904 -->
    <defs>
     <path d="M 10.984375 1.515625 
L 10.984375 10.5 
Q 14.703125 8.734375 18.5 7.8125 
Q 22.3125 6.890625 25.984375 6.890625 
Q 35.75 6.890625 40.890625 13.453125 
Q 46.046875 20.015625 46.78125 33.40625 
Q 43.953125 29.203125 39.59375 26.953125 
Q 35.25 24.703125 29.984375 24.703125 
Q 19.046875 24.703125 12.671875 31.3125 
Q 6.296875 37.9375 6.296875 49.421875 
Q 6.296875 60.640625 12.9375 67.421875 
Q 19.578125 74.21875 30.609375 74.21875 
Q 43.265625 74.21875 49.921875 64.515625 
Q 56.59375 54.828125 56.59375 36.375 
Q 56.59375 19.140625 48.40625 8.859375 
Q 40.234375 -1.421875 26.421875 -1.421875 
Q 22.703125 -1.421875 18.890625 -0.6875 
Q 15.09375 0.046875 10.984375 1.515625 
z
M 30.609375 32.421875 
Q 37.25 32.421875 41.125 36.953125 
Q 45.015625 41.5 45.015625 49.421875 
Q 45.015625 57.28125 41.125 61.84375 
Q 37.25 66.40625 30.609375 66.40625 
Q 23.96875 66.40625 20.09375 61.84375 
Q 16.21875 57.28125 16.21875 49.421875 
Q 16.21875 41.5 20.09375 36.953125 
Q 23.96875 32.421875 30.609375 32.421875 
z
" id="DejaVuSans-39"/>
    </defs>
    <g style="fill:#262626;" transform="translate(147.887145 64.7886)scale(0.192 -0.192)">
     <use xlink:href="#DejaVuSans-53"/>
     <use x="63.476562" xlink:href="#DejaVuSans-70"/>
     <use x="126.953125" xlink:href="#DejaVuSans-65"/>
     <use x="188.476562" xlink:href="#DejaVuSans-61"/>
     <use x="249.755859" xlink:href="#DejaVuSans-72"/>
     <use x="290.853516" xlink:href="#DejaVuSans-6d"/>
     <use x="388.265625" xlink:href="#DejaVuSans-61"/>
     <use x="449.544922" xlink:href="#DejaVuSans-6e"/>
     <use x="512.923828" xlink:href="#DejaVuSans-3a"/>
     <use x="546.615234" xlink:href="#DejaVuSans-20"/>
     <use x="578.402344" xlink:href="#DejaVuSans-2d"/>
     <use x="614.486328" xlink:href="#DejaVuSans-30"/>
     <use x="678.109375" xlink:href="#DejaVuSans-2e"/>
     <use x="709.896484" xlink:href="#DejaVuSans-32"/>
     <use x="773.519531" xlink:href="#DejaVuSans-35"/>
     <use x="837.142578" xlink:href="#DejaVuSans-30"/>
     <use x="900.765625" xlink:href="#DejaVuSans-32"/>
     <use x="964.388672" xlink:href="#DejaVuSans-2c"/>
     <use x="996.175781" xlink:href="#DejaVuSans-20"/>
     <use x="1027.962891" xlink:href="#DejaVuSans-70"/>
     <use x="1091.439453" xlink:href="#DejaVuSans-2d"/>
     <use x="1127.492188" xlink:href="#DejaVuSans-76"/>
     <use x="1186.671875" xlink:href="#DejaVuSans-61"/>
     <use x="1247.951172" xlink:href="#DejaVuSans-6c"/>
     <use x="1275.734375" xlink:href="#DejaVuSans-75"/>
     <use x="1339.113281" xlink:href="#DejaVuSans-65"/>
     <use x="1400.636719" xlink:href="#DejaVuSans-3a"/>
     <use x="1434.328125" xlink:href="#DejaVuSans-20"/>
     <use x="1466.115234" xlink:href="#DejaVuSans-30"/>
     <use x="1529.738281" xlink:href="#DejaVuSans-2e"/>
     <use x="1561.525391" xlink:href="#DejaVuSans-31"/>
     <use x="1625.148438" xlink:href="#DejaVuSans-39"/>
     <use x="1688.771484" xlink:href="#DejaVuSans-30"/>
     <use x="1752.394531" xlink:href="#DejaVuSans-34"/>
    </g>
   </g>
  </g>
  <g id="legend_1">
   <g id="text_19">
    <!-- category -->
    <g style="fill:#262626;" transform="translate(574.664334 265.3191)scale(0.1632 -0.1632)">
     <use xlink:href="#DejaVuSans-63"/>
     <use x="54.980469" xlink:href="#DejaVuSans-61"/>
     <use x="116.259766" xlink:href="#DejaVuSans-74"/>
     <use x="155.46875" xlink:href="#DejaVuSans-65"/>
     <use x="216.992188" xlink:href="#DejaVuSans-67"/>
     <use x="280.46875" xlink:href="#DejaVuSans-6f"/>
     <use x="341.650391" xlink:href="#DejaVuSans-72"/>
     <use x="382.763672" xlink:href="#DejaVuSans-79"/>
    </g>
   </g>
   <g id="PathCollection_4">
    <g>
     <use style="fill:#2ecc71;stroke:#2ecc71;stroke-width:2;" x="567.041109" xlink:href="#mbd78cb6f43" y="286.2664"/>
    </g>
   </g>
   <g id="text_20">
    <!-- Good -->
    <g style="fill:#262626;" transform="translate(598.721109 290.8864)scale(0.176 -0.176)">
     <use xlink:href="#DejaVuSans-47"/>
     <use x="77.490234" xlink:href="#DejaVuSans-6f"/>
     <use x="138.671875" xlink:href="#DejaVuSans-6f"/>
     <use x="199.853516" xlink:href="#DejaVuSans-64"/>
    </g>
   </g>
   <g id="PathCollection_5">
    <g>
     <use style="fill:#34495e;stroke:#34495e;stroke-width:2;" x="567.041109" xlink:href="#m083a69664c" y="312.0999"/>
    </g>
   </g>
   <g id="text_21">
    <!-- Average -->
    <g style="fill:#262626;" transform="translate(598.721109 316.7199)scale(0.176 -0.176)">
     <use xlink:href="#DejaVuSans-41"/>
     <use x="68.330078" xlink:href="#DejaVuSans-76"/>
     <use x="127.509766" xlink:href="#DejaVuSans-65"/>
     <use x="189.033203" xlink:href="#DejaVuSans-72"/>
     <use x="230.146484" xlink:href="#DejaVuSans-61"/>
     <use x="291.425781" xlink:href="#DejaVuSans-67"/>
     <use x="354.902344" xlink:href="#DejaVuSans-65"/>
    </g>
   </g>
   <g id="PathCollection_6">
    <g>
     <use style="fill:#e74c3c;stroke:#e74c3c;stroke-width:2;" x="567.041109" xlink:href="#mf175244d62" y="337.9334"/>
    </g>
   </g>
   <g id="text_22">
    <!-- Bad -->
    <defs>
     <path d="M 19.671875 34.8125 
L 19.671875 8.109375 
L 35.5 8.109375 
Q 43.453125 8.109375 47.28125 11.40625 
Q 51.125 14.703125 51.125 21.484375 
Q 51.125 28.328125 47.28125 31.5625 
Q 43.453125 34.8125 35.5 34.8125 
z
M 19.671875 64.796875 
L 19.671875 42.828125 
L 34.28125 42.828125 
Q 41.5 42.828125 45.03125 45.53125 
Q 48.578125 48.25 48.578125 53.8125 
Q 48.578125 59.328125 45.03125 62.0625 
Q 41.5 64.796875 34.28125 64.796875 
z
M 9.8125 72.90625 
L 35.015625 72.90625 
Q 46.296875 72.90625 52.390625 68.21875 
Q 58.5 63.53125 58.5 54.890625 
Q 58.5 48.1875 55.375 44.234375 
Q 52.25 40.28125 46.1875 39.3125 
Q 53.46875 37.75 57.5 32.78125 
Q 61.53125 27.828125 61.53125 20.40625 
Q 61.53125 10.640625 54.890625 5.3125 
Q 48.25 0 35.984375 0 
L 9.8125 0 
z
" id="DejaVuSans-42"/>
    </defs>
    <g style="fill:#262626;" transform="translate(598.721109 342.5534)scale(0.176 -0.176)">
     <use xlink:href="#DejaVuSans-42"/>
     <use x="68.603516" xlink:href="#DejaVuSans-61"/>
     <use x="129.882812" xlink:href="#DejaVuSans-64"/>
    </g>
   </g>
  </g>
 </g>
 <defs>
  <clipPath id="p4b62072e7d">
   <rect height="466.028" width="446.01379" x="99.21775" y="70.7886"/>
  </clipPath>
 </defs>
</svg>
