<?xml version="1.0" encoding="utf-8" standalone="no"?>
<!DOCTYPE svg PUBLIC "-//W3C//DTD SVG 1.1//EN"
  "http://www.w3.org/Graphics/SVG/1.1/DTD/svg11.dtd">
<!-- Created with matplotlib (http://matplotlib.org/) -->
<svg height="599pt" version="1.1" viewBox="0 0 694 599" width="694pt" xmlns="http://www.w3.org/2000/svg" xmlns:xlink="http://www.w3.org/1999/xlink">
 <defs>
  <style type="text/css">
*{stroke-linecap:butt;stroke-linejoin:round;}
  </style>
 </defs>
 <g id="figure_1">
  <g id="patch_1">
   <path d="M 0 599.1321 
L 694.376917 599.1321 
L 694.376917 0 
L 0 0 
z
" style="fill:#ffffff;"/>
  </g>
  <g id="axes_1">
   <g id="patch_2">
    <path d="M 71.22825 536.8166 
L 551.751598 536.8166 
L 551.751598 70.7886 
L 71.22825 70.7886 
z
" style="fill:#eaeaf2;"/>
   </g>
   <g id="matplotlib.axis_1">
    <g id="xtick_1">
     <g id="line2d_1">
      <path clip-path="url(#p1c216282ae)" d="M 89.147639 536.8166 
L 89.147639 70.7886 
" style="fill:none;stroke:#ffffff;stroke-linecap:round;stroke-width:2;"/>
     </g>
     <g id="text_1">
      <!-- 0 -->
      <defs>
       <path d="M 31.78125 66.40625 
Q 24.171875 66.40625 20.328125 58.90625 
Q 16.5 51.421875 16.5 36.375 
Q 16.5 21.390625 20.328125 13.890625 
Q 24.171875 6.390625 31.78125 6.390625 
Q 39.453125 6.390625 43.28125 13.890625 
Q 47.125 21.390625 47.125 36.375 
Q 47.125 51.421875 43.28125 58.90625 
Q 39.453125 66.40625 31.78125 66.40625 
z
M 31.78125 74.21875 
Q 44.046875 74.21875 50.515625 64.515625 
Q 56.984375 54.828125 56.984375 36.375 
Q 56.984375 17.96875 50.515625 8.265625 
Q 44.046875 -1.421875 31.78125 -1.421875 
Q 19.53125 -1.421875 13.0625 8.265625 
Q 6.59375 17.96875 6.59375 36.375 
Q 6.59375 54.828125 13.0625 64.515625 
Q 19.53125 74.21875 31.78125 74.21875 
z
" id="DejaVuSans-30"/>
      </defs>
      <g style="fill:#262626;" transform="translate(83.548639 565.68985)scale(0.176 -0.176)">
       <use xlink:href="#DejaVuSans-30"/>
      </g>
     </g>
    </g>
    <g id="xtick_2">
     <g id="line2d_2">
      <path clip-path="url(#p1c216282ae)" d="M 177.014893 536.8166 
L 177.014893 70.7886 
" style="fill:none;stroke:#ffffff;stroke-linecap:round;stroke-width:2;"/>
     </g>
     <g id="text_2">
      <!-- 20 -->
      <defs>
       <path d="M 19.1875 8.296875 
L 53.609375 8.296875 
L 53.609375 0 
L 7.328125 0 
L 7.328125 8.296875 
Q 12.9375 14.109375 22.625 23.890625 
Q 32.328125 33.6875 34.8125 36.53125 
Q 39.546875 41.84375 41.421875 45.53125 
Q 43.3125 49.21875 43.3125 52.78125 
Q 43.3125 58.59375 39.234375 62.25 
Q 35.15625 65.921875 28.609375 65.921875 
Q 23.96875 65.921875 18.8125 64.3125 
Q 13.671875 62.703125 7.8125 59.421875 
L 7.8125 69.390625 
Q 13.765625 71.78125 18.9375 73 
Q 24.125 74.21875 28.421875 74.21875 
Q 39.75 74.21875 46.484375 68.546875 
Q 53.21875 62.890625 53.21875 53.421875 
Q 53.21875 48.921875 51.53125 44.890625 
Q 49.859375 40.875 45.40625 35.40625 
Q 44.1875 33.984375 37.640625 27.21875 
Q 31.109375 20.453125 19.1875 8.296875 
z
" id="DejaVuSans-32"/>
      </defs>
      <g style="fill:#262626;" transform="translate(165.816893 565.68985)scale(0.176 -0.176)">
       <use xlink:href="#DejaVuSans-32"/>
       <use x="63.623047" xlink:href="#DejaVuSans-30"/>
      </g>
     </g>
    </g>
    <g id="xtick_3">
     <g id="line2d_3">
      <path clip-path="url(#p1c216282ae)" d="M 264.882147 536.8166 
L 264.882147 70.7886 
" style="fill:none;stroke:#ffffff;stroke-linecap:round;stroke-width:2;"/>
     </g>
     <g id="text_3">
      <!-- 40 -->
      <defs>
       <path d="M 37.796875 64.3125 
L 12.890625 25.390625 
L 37.796875 25.390625 
z
M 35.203125 72.90625 
L 47.609375 72.90625 
L 47.609375 25.390625 
L 58.015625 25.390625 
L 58.015625 17.1875 
L 47.609375 17.1875 
L 47.609375 0 
L 37.796875 0 
L 37.796875 17.1875 
L 4.890625 17.1875 
L 4.890625 26.703125 
z
" id="DejaVuSans-34"/>
      </defs>
      <g style="fill:#262626;" transform="translate(253.684147 565.68985)scale(0.176 -0.176)">
       <use xlink:href="#DejaVuSans-34"/>
       <use x="63.623047" xlink:href="#DejaVuSans-30"/>
      </g>
     </g>
    </g>
    <g id="xtick_4">
     <g id="line2d_4">
      <path clip-path="url(#p1c216282ae)" d="M 352.749402 536.8166 
L 352.749402 70.7886 
" style="fill:none;stroke:#ffffff;stroke-linecap:round;stroke-width:2;"/>
     </g>
     <g id="text_4">
      <!-- 60 -->
      <defs>
       <path d="M 33.015625 40.375 
Q 26.375 40.375 22.484375 35.828125 
Q 18.609375 31.296875 18.609375 23.390625 
Q 18.609375 15.53125 22.484375 10.953125 
Q 26.375 6.390625 33.015625 6.390625 
Q 39.65625 6.390625 43.53125 10.953125 
Q 47.40625 15.53125 47.40625 23.390625 
Q 47.40625 31.296875 43.53125 35.828125 
Q 39.65625 40.375 33.015625 40.375 
z
M 52.59375 71.296875 
L 52.59375 62.3125 
Q 48.875 64.0625 45.09375 64.984375 
Q 41.3125 65.921875 37.59375 65.921875 
Q 27.828125 65.921875 22.671875 59.328125 
Q 17.53125 52.734375 16.796875 39.40625 
Q 19.671875 43.65625 24.015625 45.921875 
Q 28.375 48.1875 33.59375 48.1875 
Q 44.578125 48.1875 50.953125 41.515625 
Q 57.328125 34.859375 57.328125 23.390625 
Q 57.328125 12.15625 50.6875 5.359375 
Q 44.046875 -1.421875 33.015625 -1.421875 
Q 20.359375 -1.421875 13.671875 8.265625 
Q 6.984375 17.96875 6.984375 36.375 
Q 6.984375 53.65625 15.1875 63.9375 
Q 23.390625 74.21875 37.203125 74.21875 
Q 40.921875 74.21875 44.703125 73.484375 
Q 48.484375 72.75 52.59375 71.296875 
z
" id="DejaVuSans-36"/>
      </defs>
      <g style="fill:#262626;" transform="translate(341.551402 565.68985)scale(0.176 -0.176)">
       <use xlink:href="#DejaVuSans-36"/>
       <use x="63.623047" xlink:href="#DejaVuSans-30"/>
      </g>
     </g>
    </g>
    <g id="xtick_5">
     <g id="line2d_5">
      <path clip-path="url(#p1c216282ae)" d="M 440.616656 536.8166 
L 440.616656 70.7886 
" style="fill:none;stroke:#ffffff;stroke-linecap:round;stroke-width:2;"/>
     </g>
     <g id="text_5">
      <!-- 80 -->
      <defs>
       <path d="M 31.78125 34.625 
Q 24.75 34.625 20.71875 30.859375 
Q 16.703125 27.09375 16.703125 20.515625 
Q 16.703125 13.921875 20.71875 10.15625 
Q 24.75 6.390625 31.78125 6.390625 
Q 38.8125 6.390625 42.859375 10.171875 
Q 46.921875 13.96875 46.921875 20.515625 
Q 46.921875 27.09375 42.890625 30.859375 
Q 38.875 34.625 31.78125 34.625 
z
M 21.921875 38.8125 
Q 15.578125 40.375 12.03125 44.71875 
Q 8.5 49.078125 8.5 55.328125 
Q 8.5 64.0625 14.71875 69.140625 
Q 20.953125 74.21875 31.78125 74.21875 
Q 42.671875 74.21875 48.875 69.140625 
Q 55.078125 64.0625 55.078125 55.328125 
Q 55.078125 49.078125 51.53125 44.71875 
Q 48 40.375 41.703125 38.8125 
Q 48.828125 37.15625 52.796875 32.3125 
Q 56.78125 27.484375 56.78125 20.515625 
Q 56.78125 9.90625 50.3125 4.234375 
Q 43.84375 -1.421875 31.78125 -1.421875 
Q 19.734375 -1.421875 13.25 4.234375 
Q 6.78125 9.90625 6.78125 20.515625 
Q 6.78125 27.484375 10.78125 32.3125 
Q 14.796875 37.15625 21.921875 38.8125 
z
M 18.3125 54.390625 
Q 18.3125 48.734375 21.84375 45.5625 
Q 25.390625 42.390625 31.78125 42.390625 
Q 38.140625 42.390625 41.71875 45.5625 
Q 45.3125 48.734375 45.3125 54.390625 
Q 45.3125 60.0625 41.71875 63.234375 
Q 38.140625 66.40625 31.78125 66.40625 
Q 25.390625 66.40625 21.84375 63.234375 
Q 18.3125 60.0625 18.3125 54.390625 
z
" id="DejaVuSans-38"/>
      </defs>
      <g style="fill:#262626;" transform="translate(429.418656 565.68985)scale(0.176 -0.176)">
       <use xlink:href="#DejaVuSans-38"/>
       <use x="63.623047" xlink:href="#DejaVuSans-30"/>
      </g>
     </g>
    </g>
    <g id="xtick_6">
     <g id="line2d_6">
      <path clip-path="url(#p1c216282ae)" d="M 528.48391 536.8166 
L 528.48391 70.7886 
" style="fill:none;stroke:#ffffff;stroke-linecap:round;stroke-width:2;"/>
     </g>
     <g id="text_6">
      <!-- 100 -->
      <defs>
       <path d="M 12.40625 8.296875 
L 28.515625 8.296875 
L 28.515625 63.921875 
L 10.984375 60.40625 
L 10.984375 69.390625 
L 28.421875 72.90625 
L 38.28125 72.90625 
L 38.28125 8.296875 
L 54.390625 8.296875 
L 54.390625 0 
L 12.40625 0 
z
" id="DejaVuSans-31"/>
      </defs>
      <g style="fill:#262626;" transform="translate(511.68691 565.68985)scale(0.176 -0.176)">
       <use xlink:href="#DejaVuSans-31"/>
       <use x="63.623047" xlink:href="#DejaVuSans-30"/>
       <use x="127.246094" xlink:href="#DejaVuSans-30"/>
      </g>
     </g>
    </g>
    <g id="text_7">
     <!-- Symmetric Absolute Percentage Error -->
     <defs>
      <path d="M 53.515625 70.515625 
L 53.515625 60.890625 
Q 47.90625 63.578125 42.921875 64.890625 
Q 37.9375 66.21875 33.296875 66.21875 
Q 25.25 66.21875 20.875 63.09375 
Q 16.5 59.96875 16.5 54.203125 
Q 16.5 49.359375 19.40625 46.890625 
Q 22.3125 44.4375 30.421875 42.921875 
L 36.375 41.703125 
Q 47.40625 39.59375 52.65625 34.296875 
Q 57.90625 29 57.90625 20.125 
Q 57.90625 9.515625 50.796875 4.046875 
Q 43.703125 -1.421875 29.984375 -1.421875 
Q 24.8125 -1.421875 18.96875 -0.25 
Q 13.140625 0.921875 6.890625 3.21875 
L 6.890625 13.375 
Q 12.890625 10.015625 18.65625 8.296875 
Q 24.421875 6.59375 29.984375 6.59375 
Q 38.421875 6.59375 43.015625 9.90625 
Q 47.609375 13.234375 47.609375 19.390625 
Q 47.609375 24.75 44.3125 27.78125 
Q 41.015625 30.8125 33.5 32.328125 
L 27.484375 33.5 
Q 16.453125 35.6875 11.515625 40.375 
Q 6.59375 45.0625 6.59375 53.421875 
Q 6.59375 63.09375 13.40625 68.65625 
Q 20.21875 74.21875 32.171875 74.21875 
Q 37.3125 74.21875 42.625 73.28125 
Q 47.953125 72.359375 53.515625 70.515625 
z
" id="DejaVuSans-53"/>
      <path d="M 32.171875 -5.078125 
Q 28.375 -14.84375 24.75 -17.8125 
Q 21.140625 -20.796875 15.09375 -20.796875 
L 7.90625 -20.796875 
L 7.90625 -13.28125 
L 13.1875 -13.28125 
Q 16.890625 -13.28125 18.9375 -11.515625 
Q 21 -9.765625 23.484375 -3.21875 
L 25.09375 0.875 
L 2.984375 54.6875 
L 12.5 54.6875 
L 29.59375 11.921875 
L 46.6875 54.6875 
L 56.203125 54.6875 
z
" id="DejaVuSans-79"/>
      <path d="M 52 44.1875 
Q 55.375 50.25 60.0625 53.125 
Q 64.75 56 71.09375 56 
Q 79.640625 56 84.28125 50.015625 
Q 88.921875 44.046875 88.921875 33.015625 
L 88.921875 0 
L 79.890625 0 
L 79.890625 32.71875 
Q 79.890625 40.578125 77.09375 44.375 
Q 74.3125 48.1875 68.609375 48.1875 
Q 61.625 48.1875 57.5625 43.546875 
Q 53.515625 38.921875 53.515625 30.90625 
L 53.515625 0 
L 44.484375 0 
L 44.484375 32.71875 
Q 44.484375 40.625 41.703125 44.40625 
Q 38.921875 48.1875 33.109375 48.1875 
Q 26.21875 48.1875 22.15625 43.53125 
Q 18.109375 38.875 18.109375 30.90625 
L 18.109375 0 
L 9.078125 0 
L 9.078125 54.6875 
L 18.109375 54.6875 
L 18.109375 46.1875 
Q 21.1875 51.21875 25.484375 53.609375 
Q 29.78125 56 35.6875 56 
Q 41.65625 56 45.828125 52.96875 
Q 50 49.953125 52 44.1875 
z
" id="DejaVuSans-6d"/>
      <path d="M 56.203125 29.59375 
L 56.203125 25.203125 
L 14.890625 25.203125 
Q 15.484375 15.921875 20.484375 11.0625 
Q 25.484375 6.203125 34.421875 6.203125 
Q 39.59375 6.203125 44.453125 7.46875 
Q 49.3125 8.734375 54.109375 11.28125 
L 54.109375 2.78125 
Q 49.265625 0.734375 44.1875 -0.34375 
Q 39.109375 -1.421875 33.890625 -1.421875 
Q 20.796875 -1.421875 13.15625 6.1875 
Q 5.515625 13.8125 5.515625 26.8125 
Q 5.515625 40.234375 12.765625 48.109375 
Q 20.015625 56 32.328125 56 
Q 43.359375 56 49.78125 48.890625 
Q 56.203125 41.796875 56.203125 29.59375 
z
M 47.21875 32.234375 
Q 47.125 39.59375 43.09375 43.984375 
Q 39.0625 48.390625 32.421875 48.390625 
Q 24.90625 48.390625 20.390625 44.140625 
Q 15.875 39.890625 15.1875 32.171875 
z
" id="DejaVuSans-65"/>
      <path d="M 18.3125 70.21875 
L 18.3125 54.6875 
L 36.8125 54.6875 
L 36.8125 47.703125 
L 18.3125 47.703125 
L 18.3125 18.015625 
Q 18.3125 11.328125 20.140625 9.421875 
Q 21.96875 7.515625 27.59375 7.515625 
L 36.8125 7.515625 
L 36.8125 0 
L 27.59375 0 
Q 17.1875 0 13.234375 3.875 
Q 9.28125 7.765625 9.28125 18.015625 
L 9.28125 47.703125 
L 2.6875 47.703125 
L 2.6875 54.6875 
L 9.28125 54.6875 
L 9.28125 70.21875 
z
" id="DejaVuSans-74"/>
      <path d="M 41.109375 46.296875 
Q 39.59375 47.171875 37.8125 47.578125 
Q 36.03125 48 33.890625 48 
Q 26.265625 48 22.1875 43.046875 
Q 18.109375 38.09375 18.109375 28.8125 
L 18.109375 0 
L 9.078125 0 
L 9.078125 54.6875 
L 18.109375 54.6875 
L 18.109375 46.1875 
Q 20.953125 51.171875 25.484375 53.578125 
Q 30.03125 56 36.53125 56 
Q 37.453125 56 38.578125 55.875 
Q 39.703125 55.765625 41.0625 55.515625 
z
" id="DejaVuSans-72"/>
      <path d="M 9.421875 54.6875 
L 18.40625 54.6875 
L 18.40625 0 
L 9.421875 0 
z
M 9.421875 75.984375 
L 18.40625 75.984375 
L 18.40625 64.59375 
L 9.421875 64.59375 
z
" id="DejaVuSans-69"/>
      <path d="M 48.78125 52.59375 
L 48.78125 44.1875 
Q 44.96875 46.296875 41.140625 47.34375 
Q 37.3125 48.390625 33.40625 48.390625 
Q 24.65625 48.390625 19.8125 42.84375 
Q 14.984375 37.3125 14.984375 27.296875 
Q 14.984375 17.28125 19.8125 11.734375 
Q 24.65625 6.203125 33.40625 6.203125 
Q 37.3125 6.203125 41.140625 7.25 
Q 44.96875 8.296875 48.78125 10.40625 
L 48.78125 2.09375 
Q 45.015625 0.34375 40.984375 -0.53125 
Q 36.96875 -1.421875 32.421875 -1.421875 
Q 20.0625 -1.421875 12.78125 6.34375 
Q 5.515625 14.109375 5.515625 27.296875 
Q 5.515625 40.671875 12.859375 48.328125 
Q 20.21875 56 33.015625 56 
Q 37.15625 56 41.109375 55.140625 
Q 45.0625 54.296875 48.78125 52.59375 
z
" id="DejaVuSans-63"/>
      <path id="DejaVuSans-20"/>
      <path d="M 34.1875 63.1875 
L 20.796875 26.90625 
L 47.609375 26.90625 
z
M 28.609375 72.90625 
L 39.796875 72.90625 
L 67.578125 0 
L 57.328125 0 
L 50.6875 18.703125 
L 17.828125 18.703125 
L 11.1875 0 
L 0.78125 0 
z
" id="DejaVuSans-41"/>
      <path d="M 48.6875 27.296875 
Q 48.6875 37.203125 44.609375 42.84375 
Q 40.53125 48.484375 33.40625 48.484375 
Q 26.265625 48.484375 22.1875 42.84375 
Q 18.109375 37.203125 18.109375 27.296875 
Q 18.109375 17.390625 22.1875 11.75 
Q 26.265625 6.109375 33.40625 6.109375 
Q 40.53125 6.109375 44.609375 11.75 
Q 48.6875 17.390625 48.6875 27.296875 
z
M 18.109375 46.390625 
Q 20.953125 51.265625 25.265625 53.625 
Q 29.59375 56 35.59375 56 
Q 45.5625 56 51.78125 48.09375 
Q 58.015625 40.1875 58.015625 27.296875 
Q 58.015625 14.40625 51.78125 6.484375 
Q 45.5625 -1.421875 35.59375 -1.421875 
Q 29.59375 -1.421875 25.265625 0.953125 
Q 20.953125 3.328125 18.109375 8.203125 
L 18.109375 0 
L 9.078125 0 
L 9.078125 75.984375 
L 18.109375 75.984375 
z
" id="DejaVuSans-62"/>
      <path d="M 44.28125 53.078125 
L 44.28125 44.578125 
Q 40.484375 46.53125 36.375 47.5 
Q 32.28125 48.484375 27.875 48.484375 
Q 21.1875 48.484375 17.84375 46.4375 
Q 14.5 44.390625 14.5 40.28125 
Q 14.5 37.15625 16.890625 35.375 
Q 19.28125 33.59375 26.515625 31.984375 
L 29.59375 31.296875 
Q 39.15625 29.25 43.1875 25.515625 
Q 47.21875 21.78125 47.21875 15.09375 
Q 47.21875 7.46875 41.1875 3.015625 
Q 35.15625 -1.421875 24.609375 -1.421875 
Q 20.21875 -1.421875 15.453125 -0.5625 
Q 10.6875 0.296875 5.421875 2 
L 5.421875 11.28125 
Q 10.40625 8.6875 15.234375 7.390625 
Q 20.0625 6.109375 24.8125 6.109375 
Q 31.15625 6.109375 34.5625 8.28125 
Q 37.984375 10.453125 37.984375 14.40625 
Q 37.984375 18.0625 35.515625 20.015625 
Q 33.0625 21.96875 24.703125 23.78125 
L 21.578125 24.515625 
Q 13.234375 26.265625 9.515625 29.90625 
Q 5.8125 33.546875 5.8125 39.890625 
Q 5.8125 47.609375 11.28125 51.796875 
Q 16.75 56 26.8125 56 
Q 31.78125 56 36.171875 55.265625 
Q 40.578125 54.546875 44.28125 53.078125 
z
" id="DejaVuSans-73"/>
      <path d="M 30.609375 48.390625 
Q 23.390625 48.390625 19.1875 42.75 
Q 14.984375 37.109375 14.984375 27.296875 
Q 14.984375 17.484375 19.15625 11.84375 
Q 23.34375 6.203125 30.609375 6.203125 
Q 37.796875 6.203125 41.984375 11.859375 
Q 46.1875 17.53125 46.1875 27.296875 
Q 46.1875 37.015625 41.984375 42.703125 
Q 37.796875 48.390625 30.609375 48.390625 
z
M 30.609375 56 
Q 42.328125 56 49.015625 48.375 
Q 55.71875 40.765625 55.71875 27.296875 
Q 55.71875 13.875 49.015625 6.21875 
Q 42.328125 -1.421875 30.609375 -1.421875 
Q 18.84375 -1.421875 12.171875 6.21875 
Q 5.515625 13.875 5.515625 27.296875 
Q 5.515625 40.765625 12.171875 48.375 
Q 18.84375 56 30.609375 56 
z
" id="DejaVuSans-6f"/>
      <path d="M 9.421875 75.984375 
L 18.40625 75.984375 
L 18.40625 0 
L 9.421875 0 
z
" id="DejaVuSans-6c"/>
      <path d="M 8.5 21.578125 
L 8.5 54.6875 
L 17.484375 54.6875 
L 17.484375 21.921875 
Q 17.484375 14.15625 20.5 10.265625 
Q 23.53125 6.390625 29.59375 6.390625 
Q 36.859375 6.390625 41.078125 11.03125 
Q 45.3125 15.671875 45.3125 23.6875 
L 45.3125 54.6875 
L 54.296875 54.6875 
L 54.296875 0 
L 45.3125 0 
L 45.3125 8.40625 
Q 42.046875 3.421875 37.71875 1 
Q 33.40625 -1.421875 27.6875 -1.421875 
Q 18.265625 -1.421875 13.375 4.4375 
Q 8.5 10.296875 8.5 21.578125 
z
M 31.109375 56 
z
" id="DejaVuSans-75"/>
      <path d="M 19.671875 64.796875 
L 19.671875 37.40625 
L 32.078125 37.40625 
Q 38.96875 37.40625 42.71875 40.96875 
Q 46.484375 44.53125 46.484375 51.125 
Q 46.484375 57.671875 42.71875 61.234375 
Q 38.96875 64.796875 32.078125 64.796875 
z
M 9.8125 72.90625 
L 32.078125 72.90625 
Q 44.34375 72.90625 50.609375 67.359375 
Q 56.890625 61.8125 56.890625 51.125 
Q 56.890625 40.328125 50.609375 34.8125 
Q 44.34375 29.296875 32.078125 29.296875 
L 19.671875 29.296875 
L 19.671875 0 
L 9.8125 0 
z
" id="DejaVuSans-50"/>
      <path d="M 54.890625 33.015625 
L 54.890625 0 
L 45.90625 0 
L 45.90625 32.71875 
Q 45.90625 40.484375 42.875 44.328125 
Q 39.84375 48.1875 33.796875 48.1875 
Q 26.515625 48.1875 22.3125 43.546875 
Q 18.109375 38.921875 18.109375 30.90625 
L 18.109375 0 
L 9.078125 0 
L 9.078125 54.6875 
L 18.109375 54.6875 
L 18.109375 46.1875 
Q 21.34375 51.125 25.703125 53.5625 
Q 30.078125 56 35.796875 56 
Q 45.21875 56 50.046875 50.171875 
Q 54.890625 44.34375 54.890625 33.015625 
z
" id="DejaVuSans-6e"/>
      <path d="M 34.28125 27.484375 
Q 23.390625 27.484375 19.1875 25 
Q 14.984375 22.515625 14.984375 16.5 
Q 14.984375 11.71875 18.140625 8.90625 
Q 21.296875 6.109375 26.703125 6.109375 
Q 34.1875 6.109375 38.703125 11.40625 
Q 43.21875 16.703125 43.21875 25.484375 
L 43.21875 27.484375 
z
M 52.203125 31.203125 
L 52.203125 0 
L 43.21875 0 
L 43.21875 8.296875 
Q 40.140625 3.328125 35.546875 0.953125 
Q 30.953125 -1.421875 24.3125 -1.421875 
Q 15.921875 -1.421875 10.953125 3.296875 
Q 6 8.015625 6 15.921875 
Q 6 25.140625 12.171875 29.828125 
Q 18.359375 34.515625 30.609375 34.515625 
L 43.21875 34.515625 
L 43.21875 35.40625 
Q 43.21875 41.609375 39.140625 45 
Q 35.0625 48.390625 27.6875 48.390625 
Q 23 48.390625 18.546875 47.265625 
Q 14.109375 46.140625 10.015625 43.890625 
L 10.015625 52.203125 
Q 14.9375 54.109375 19.578125 55.046875 
Q 24.21875 56 28.609375 56 
Q 40.484375 56 46.34375 49.84375 
Q 52.203125 43.703125 52.203125 31.203125 
z
" id="DejaVuSans-61"/>
      <path d="M 45.40625 27.984375 
Q 45.40625 37.75 41.375 43.109375 
Q 37.359375 48.484375 30.078125 48.484375 
Q 22.859375 48.484375 18.828125 43.109375 
Q 14.796875 37.75 14.796875 27.984375 
Q 14.796875 18.265625 18.828125 12.890625 
Q 22.859375 7.515625 30.078125 7.515625 
Q 37.359375 7.515625 41.375 12.890625 
Q 45.40625 18.265625 45.40625 27.984375 
z
M 54.390625 6.78125 
Q 54.390625 -7.171875 48.1875 -13.984375 
Q 42 -20.796875 29.203125 -20.796875 
Q 24.46875 -20.796875 20.265625 -20.09375 
Q 16.0625 -19.390625 12.109375 -17.921875 
L 12.109375 -9.1875 
Q 16.0625 -11.328125 19.921875 -12.34375 
Q 23.78125 -13.375 27.78125 -13.375 
Q 36.625 -13.375 41.015625 -8.765625 
Q 45.40625 -4.15625 45.40625 5.171875 
L 45.40625 9.625 
Q 42.625 4.78125 38.28125 2.390625 
Q 33.9375 0 27.875 0 
Q 17.828125 0 11.671875 7.65625 
Q 5.515625 15.328125 5.515625 27.984375 
Q 5.515625 40.671875 11.671875 48.328125 
Q 17.828125 56 27.875 56 
Q 33.9375 56 38.28125 53.609375 
Q 42.625 51.21875 45.40625 46.390625 
L 45.40625 54.6875 
L 54.390625 54.6875 
z
" id="DejaVuSans-67"/>
      <path d="M 9.8125 72.90625 
L 55.90625 72.90625 
L 55.90625 64.59375 
L 19.671875 64.59375 
L 19.671875 43.015625 
L 54.390625 43.015625 
L 54.390625 34.71875 
L 19.671875 34.71875 
L 19.671875 8.296875 
L 56.78125 8.296875 
L 56.78125 0 
L 9.8125 0 
z
" id="DejaVuSans-45"/>
     </defs>
     <g style="fill:#262626;" transform="translate(130.010924 587.9391)scale(0.192 -0.192)">
      <use xlink:href="#DejaVuSans-53"/>
      <use x="63.476562" xlink:href="#DejaVuSans-79"/>
      <use x="122.65625" xlink:href="#DejaVuSans-6d"/>
      <use x="220.068359" xlink:href="#DejaVuSans-6d"/>
      <use x="317.480469" xlink:href="#DejaVuSans-65"/>
      <use x="379.003906" xlink:href="#DejaVuSans-74"/>
      <use x="418.212891" xlink:href="#DejaVuSans-72"/>
      <use x="459.326172" xlink:href="#DejaVuSans-69"/>
      <use x="487.109375" xlink:href="#DejaVuSans-63"/>
      <use x="542.089844" xlink:href="#DejaVuSans-20"/>
      <use x="573.876953" xlink:href="#DejaVuSans-41"/>
      <use x="642.285156" xlink:href="#DejaVuSans-62"/>
      <use x="705.761719" xlink:href="#DejaVuSans-73"/>
      <use x="757.861328" xlink:href="#DejaVuSans-6f"/>
      <use x="819.042969" xlink:href="#DejaVuSans-6c"/>
      <use x="846.826172" xlink:href="#DejaVuSans-75"/>
      <use x="910.205078" xlink:href="#DejaVuSans-74"/>
      <use x="949.414062" xlink:href="#DejaVuSans-65"/>
      <use x="1010.9375" xlink:href="#DejaVuSans-20"/>
      <use x="1042.724609" xlink:href="#DejaVuSans-50"/>
      <use x="1102.980469" xlink:href="#DejaVuSans-65"/>
      <use x="1164.503906" xlink:href="#DejaVuSans-72"/>
      <use x="1205.585938" xlink:href="#DejaVuSans-63"/>
      <use x="1260.566406" xlink:href="#DejaVuSans-65"/>
      <use x="1322.089844" xlink:href="#DejaVuSans-6e"/>
      <use x="1385.46875" xlink:href="#DejaVuSans-74"/>
      <use x="1424.677734" xlink:href="#DejaVuSans-61"/>
      <use x="1485.957031" xlink:href="#DejaVuSans-67"/>
      <use x="1549.433594" xlink:href="#DejaVuSans-65"/>
      <use x="1610.957031" xlink:href="#DejaVuSans-20"/>
      <use x="1642.744141" xlink:href="#DejaVuSans-45"/>
      <use x="1705.927734" xlink:href="#DejaVuSans-72"/>
      <use x="1747.025391" xlink:href="#DejaVuSans-72"/>
      <use x="1788.107422" xlink:href="#DejaVuSans-6f"/>
      <use x="1849.289062" xlink:href="#DejaVuSans-72"/>
     </g>
    </g>
   </g>
   <g id="matplotlib.axis_2">
    <g id="ytick_1">
     <g id="line2d_7">
      <path clip-path="url(#p1c216282ae)" d="M 71.22825 448.856839 
L 551.751598 448.856839 
" style="fill:none;stroke:#ffffff;stroke-linecap:round;stroke-width:2;"/>
     </g>
     <g id="text_8">
      <!-- −2 -->
      <defs>
       <path d="M 10.59375 35.5 
L 73.1875 35.5 
L 73.1875 27.203125 
L 10.59375 27.203125 
z
" id="DejaVuSans-2212"/>
      </defs>
      <g style="fill:#262626;" transform="translate(29.782 455.543464)scale(0.176 -0.176)">
       <use xlink:href="#DejaVuSans-2212"/>
       <use x="83.789062" xlink:href="#DejaVuSans-32"/>
      </g>
     </g>
    </g>
    <g id="ytick_2">
     <g id="line2d_8">
      <path clip-path="url(#p1c216282ae)" d="M 71.22825 345.844142 
L 551.751598 345.844142 
" style="fill:none;stroke:#ffffff;stroke-linecap:round;stroke-width:2;"/>
     </g>
     <g id="text_9">
      <!-- 0 -->
      <g style="fill:#262626;" transform="translate(44.53025 352.530767)scale(0.176 -0.176)">
       <use xlink:href="#DejaVuSans-30"/>
      </g>
     </g>
    </g>
    <g id="ytick_3">
     <g id="line2d_9">
      <path clip-path="url(#p1c216282ae)" d="M 71.22825 242.831446 
L 551.751598 242.831446 
" style="fill:none;stroke:#ffffff;stroke-linecap:round;stroke-width:2;"/>
     </g>
     <g id="text_10">
      <!-- 2 -->
      <g style="fill:#262626;" transform="translate(44.53025 249.518071)scale(0.176 -0.176)">
       <use xlink:href="#DejaVuSans-32"/>
      </g>
     </g>
    </g>
    <g id="ytick_4">
     <g id="line2d_10">
      <path clip-path="url(#p1c216282ae)" d="M 71.22825 139.818749 
L 551.751598 139.818749 
" style="fill:none;stroke:#ffffff;stroke-linecap:round;stroke-width:2;"/>
     </g>
     <g id="text_11">
      <!-- 4 -->
      <g style="fill:#262626;" transform="translate(44.53025 146.505374)scale(0.176 -0.176)">
       <use xlink:href="#DejaVuSans-34"/>
      </g>
     </g>
    </g>
    <g id="text_12">
     <!-- BS Density -->
     <defs>
      <path d="M 19.671875 34.8125 
L 19.671875 8.109375 
L 35.5 8.109375 
Q 43.453125 8.109375 47.28125 11.40625 
Q 51.125 14.703125 51.125 21.484375 
Q 51.125 28.328125 47.28125 31.5625 
Q 43.453125 34.8125 35.5 34.8125 
z
M 19.671875 64.796875 
L 19.671875 42.828125 
L 34.28125 42.828125 
Q 41.5 42.828125 45.03125 45.53125 
Q 48.578125 48.25 48.578125 53.8125 
Q 48.578125 59.328125 45.03125 62.0625 
Q 41.5 64.796875 34.28125 64.796875 
z
M 9.8125 72.90625 
L 35.015625 72.90625 
Q 46.296875 72.90625 52.390625 68.21875 
Q 58.5 63.53125 58.5 54.890625 
Q 58.5 48.1875 55.375 44.234375 
Q 52.25 40.28125 46.1875 39.3125 
Q 53.46875 37.75 57.5 32.78125 
Q 61.53125 27.828125 61.53125 20.40625 
Q 61.53125 10.640625 54.890625 5.3125 
Q 48.25 0 35.984375 0 
L 9.8125 0 
z
" id="DejaVuSans-42"/>
      <path d="M 19.671875 64.796875 
L 19.671875 8.109375 
L 31.59375 8.109375 
Q 46.6875 8.109375 53.6875 14.9375 
Q 60.6875 21.78125 60.6875 36.53125 
Q 60.6875 51.171875 53.6875 57.984375 
Q 46.6875 64.796875 31.59375 64.796875 
z
M 9.8125 72.90625 
L 30.078125 72.90625 
Q 51.265625 72.90625 61.171875 64.09375 
Q 71.09375 55.28125 71.09375 36.53125 
Q 71.09375 17.671875 61.125 8.828125 
Q 51.171875 0 30.078125 0 
L 9.8125 0 
z
" id="DejaVuSans-44"/>
     </defs>
     <g style="fill:#262626;" transform="translate(21.789 356.0296)rotate(-90)scale(0.192 -0.192)">
      <use xlink:href="#DejaVuSans-42"/>
      <use x="68.587891" xlink:href="#DejaVuSans-53"/>
      <use x="132.064453" xlink:href="#DejaVuSans-20"/>
      <use x="163.851562" xlink:href="#DejaVuSans-44"/>
      <use x="240.853516" xlink:href="#DejaVuSans-65"/>
      <use x="302.376953" xlink:href="#DejaVuSans-6e"/>
      <use x="365.755859" xlink:href="#DejaVuSans-73"/>
      <use x="417.855469" xlink:href="#DejaVuSans-69"/>
      <use x="445.638672" xlink:href="#DejaVuSans-74"/>
      <use x="484.847656" xlink:href="#DejaVuSans-79"/>
     </g>
    </g>
   </g>
   <g id="PathCollection_1">
    <defs>
     <path d="M 0 6 
C 1.591219 6 3.117479 5.367802 4.242641 4.242641 
C 5.367802 3.117479 6 1.591219 6 0 
C 6 -1.591219 5.367802 -3.117479 4.242641 -4.242641 
C 3.117479 -5.367802 1.591219 -6 0 -6 
C -1.591219 -6 -3.117479 -5.367802 -4.242641 -4.242641 
C -5.367802 -3.117479 -6 -1.591219 -6 0 
C -6 1.591219 -5.367802 3.117479 -4.242641 4.242641 
C -3.117479 5.367802 -1.591219 6 0 6 
z
" id="m33ae4cd9b0" style="stroke:#2ecc71;stroke-width:2;"/>
    </defs>
    <g clip-path="url(#p1c216282ae)">
     <use style="fill:#2ecc71;stroke:#2ecc71;stroke-width:2;" x="101.244023" xlink:href="#m33ae4cd9b0" y="322.316731"/>
     <use style="fill:#2ecc71;stroke:#2ecc71;stroke-width:2;" x="93.125472" xlink:href="#m33ae4cd9b0" y="329.593402"/>
     <use style="fill:#2ecc71;stroke:#2ecc71;stroke-width:2;" x="109.587427" xlink:href="#m33ae4cd9b0" y="321.857656"/>
     <use style="fill:#2ecc71;stroke:#2ecc71;stroke-width:2;" x="102.64639" xlink:href="#m33ae4cd9b0" y="295.192244"/>
     <use style="fill:#2ecc71;stroke:#2ecc71;stroke-width:2;" x="96.0287" xlink:href="#m33ae4cd9b0" y="118.74896"/>
     <use style="fill:#2ecc71;stroke:#2ecc71;stroke-width:2;" x="102.715933" xlink:href="#m33ae4cd9b0" y="186.133104"/>
     <use style="fill:#2ecc71;stroke:#2ecc71;stroke-width:2;" x="98.873427" xlink:href="#m33ae4cd9b0" y="274.839801"/>
     <use style="fill:#2ecc71;stroke:#2ecc71;stroke-width:2;" x="95.792992" xlink:href="#m33ae4cd9b0" y="92.603634"/>
    </g>
   </g>
   <g id="PathCollection_2">
    <defs>
     <path d="M -0 8.485281 
L 8.485281 0 
L 0 -8.485281 
L -8.485281 -0 
z
" id="m5fbef23426" style="stroke:#34495e;stroke-width:2;"/>
    </defs>
    <g clip-path="url(#p1c216282ae)">
     <use style="fill:#34495e;stroke:#34495e;stroke-width:2;" x="189.743488" xlink:href="#m5fbef23426" y="294.118155"/>
     <use style="fill:#34495e;stroke:#34495e;stroke-width:2;" x="162.849043" xlink:href="#m5fbef23426" y="301.277036"/>
     <use style="fill:#34495e;stroke:#34495e;stroke-width:2;" x="118.757466" xlink:href="#m5fbef23426" y="314.573051"/>
     <use style="fill:#34495e;stroke:#34495e;stroke-width:2;" x="178.098915" xlink:href="#m5fbef23426" y="294.773614"/>
     <use style="fill:#34495e;stroke:#34495e;stroke-width:2;" x="116.833782" xlink:href="#m5fbef23426" y="235.6409"/>
     <use style="fill:#34495e;stroke:#34495e;stroke-width:2;" x="148.754427" xlink:href="#m5fbef23426" y="295.37405"/>
     <use style="fill:#34495e;stroke:#34495e;stroke-width:2;" x="129.478997" xlink:href="#m5fbef23426" y="257.390928"/>
     <use style="fill:#34495e;stroke:#34495e;stroke-width:2;" x="195.806046" xlink:href="#m5fbef23426" y="325.258287"/>
     <use style="fill:#34495e;stroke:#34495e;stroke-width:2;" x="122.28665" xlink:href="#m5fbef23426" y="299.615151"/>
     <use style="fill:#34495e;stroke:#34495e;stroke-width:2;" x="176.591087" xlink:href="#m5fbef23426" y="330.14746"/>
     <use style="fill:#34495e;stroke:#34495e;stroke-width:2;" x="120.672065" xlink:href="#m5fbef23426" y="308.386863"/>
     <use style="fill:#34495e;stroke:#34495e;stroke-width:2;" x="152.406574" xlink:href="#m5fbef23426" y="305.798586"/>
     <use style="fill:#34495e;stroke:#34495e;stroke-width:2;" x="160.850617" xlink:href="#m5fbef23426" y="303.614148"/>
     <use style="fill:#34495e;stroke:#34495e;stroke-width:2;" x="153.016032" xlink:href="#m5fbef23426" y="230.809284"/>
    </g>
   </g>
   <g id="PathCollection_3">
    <defs>
     <path d="M -6 6 
L 6 6 
L 6 -6 
L -6 -6 
z
" id="mba5906cc66" style="stroke:#e74c3c;stroke-width:2;"/>
    </defs>
    <g clip-path="url(#p1c216282ae)">
     <use style="fill:#e74c3c;stroke:#e74c3c;stroke-width:2;" x="259.27173" xlink:href="#mba5906cc66" y="272.051469"/>
     <use style="fill:#e74c3c;stroke:#e74c3c;stroke-width:2;" x="286.758204" xlink:href="#mba5906cc66" y="266.073865"/>
     <use style="fill:#e74c3c;stroke:#e74c3c;stroke-width:2;" x="528.48391" xlink:href="#mba5906cc66" y="330.365445"/>
     <use style="fill:#e74c3c;stroke:#e74c3c;stroke-width:2;" x="247.712444" xlink:href="#mba5906cc66" y="330.246419"/>
     <use style="fill:#e74c3c;stroke:#e74c3c;stroke-width:2;" x="271.283888" xlink:href="#mba5906cc66" y="321.301584"/>
     <use style="fill:#e74c3c;stroke:#e74c3c;stroke-width:2;" x="254.145876" xlink:href="#mba5906cc66" y="323.116809"/>
     <use style="fill:#e74c3c;stroke:#e74c3c;stroke-width:2;" x="212.689213" xlink:href="#mba5906cc66" y="246.406953"/>
    </g>
   </g>
   <g id="PolyCollection_1">
    <defs>
     <path d="M 71.22825 -389.212291 
L 71.22825 -306.327295 
L 76.082021 -306.048319 
L 80.935792 -305.769342 
L 85.789564 -305.497449 
L 90.643335 -305.211958 
L 95.497106 -305.049373 
L 100.350877 -304.791429 
L 105.204648 -304.705494 
L 110.05842 -304.302116 
L 114.912191 -304.321382 
L 119.765962 -304.325764 
L 124.619733 -303.85637 
L 129.473504 -303.512995 
L 134.327276 -303.220712 
L 139.181047 -302.89542 
L 144.034818 -302.400421 
L 148.888589 -301.996704 
L 153.74236 -301.592992 
L 158.596132 -301.223561 
L 163.449903 -300.781648 
L 168.303674 -300.371854 
L 173.157445 -299.967231 
L 178.011216 -299.381648 
L 182.864988 -298.575442 
L 187.718759 -297.55055 
L 192.57253 -296.357793 
L 197.426301 -294.741159 
L 202.280072 -292.88936 
L 207.133844 -291.174205 
L 211.987615 -289.018644 
L 216.841386 -287.47243 
L 221.695157 -285.013021 
L 226.548928 -282.197153 
L 231.402699 -279.736571 
L 236.256471 -277.272238 
L 241.110242 -275.107719 
L 245.964013 -272.476621 
L 250.817784 -269.694153 
L 255.671555 -266.843513 
L 260.525327 -263.813998 
L 265.379098 -260.409934 
L 270.232869 -257.18871 
L 275.08664 -254.59028 
L 279.940411 -252.076752 
L 284.794183 -249.572432 
L 289.647954 -247.052056 
L 294.501725 -244.183665 
L 299.355496 -241.315275 
L 304.209267 -238.446884 
L 309.063039 -235.581611 
L 313.91681 -232.719548 
L 318.770581 -229.788686 
L 323.624352 -226.857753 
L 328.478123 -223.816609 
L 333.331895 -221.019803 
L 338.185666 -217.951339 
L 343.039437 -215.289004 
L 347.893208 -212.599819 
L 352.746979 -209.728958 
L 357.600751 -206.861295 
L 362.454522 -203.993633 
L 367.308293 -201.12597 
L 372.162064 -198.258308 
L 377.015835 -195.378371 
L 381.869607 -192.509828 
L 386.723378 -189.630507 
L 391.577149 -186.399794 
L 396.43092 -183.160869 
L 401.284691 -179.921945 
L 406.138463 -176.68302 
L 410.992234 -173.444096 
L 415.846005 -170.205171 
L 420.699776 -166.966247 
L 425.553547 -163.800102 
L 430.407319 -160.646066 
L 435.26109 -157.49203 
L 440.114861 -154.337995 
L 444.968632 -151.183959 
L 449.822403 -148.031448 
L 454.676175 -144.882204 
L 459.529946 -141.732959 
L 464.383717 -138.583714 
L 469.237488 -135.43447 
L 474.091259 -132.331791 
L 478.945031 -129.279716 
L 483.798802 -126.227641 
L 488.652573 -123.175566 
L 493.506344 -120.123491 
L 498.360115 -117.071416 
L 503.213886 -114.019341 
L 508.067658 -110.967266 
L 512.921429 -107.915191 
L 517.7752 -104.863116 
L 522.628971 -101.811041 
L 527.482742 -98.758966 
L 532.336514 -95.706891 
L 537.190285 -92.654816 
L 542.044056 -89.602741 
L 546.897827 -86.550666 
L 551.751598 -83.498591 
L 551.751598 -294.639604 
L 551.751598 -294.639604 
L 546.897827 -294.816135 
L 542.044056 -294.992667 
L 537.190285 -295.169198 
L 532.336514 -295.314699 
L 527.482742 -295.315365 
L 522.628971 -295.637789 
L 517.7752 -295.892454 
L 512.921429 -296.077864 
L 508.067658 -296.260798 
L 503.213886 -296.438963 
L 498.360115 -296.693609 
L 493.506344 -296.800606 
L 488.652573 -296.984589 
L 483.798802 -297.168572 
L 478.945031 -297.352555 
L 474.091259 -297.535027 
L 469.237488 -297.712465 
L 464.383717 -297.889903 
L 459.529946 -298.067341 
L 454.676175 -298.23266 
L 449.822403 -298.434313 
L 444.968632 -298.90626 
L 440.114861 -299.329704 
L 435.26109 -299.750337 
L 430.407319 -299.973586 
L 425.553547 -299.980048 
L 420.699776 -299.98651 
L 415.846005 -300.176222 
L 410.992234 -300.349142 
L 406.138463 -300.376343 
L 401.284691 -300.565751 
L 396.43092 -300.681524 
L 391.577149 -300.762398 
L 386.723378 -300.839109 
L 381.869607 -300.970527 
L 377.015835 -301.148231 
L 372.162064 -301.325935 
L 367.308293 -301.415116 
L 362.454522 -301.461525 
L 357.600751 -301.868469 
L 352.746979 -302.378391 
L 347.893208 -302.807828 
L 343.039437 -302.922998 
L 338.185666 -303.327624 
L 333.331895 -304.281028 
L 328.478123 -304.906191 
L 323.624352 -305.168548 
L 318.770581 -305.91908 
L 313.91681 -306.434335 
L 309.063039 -306.949519 
L 304.209267 -307.573789 
L 299.355496 -308.481458 
L 294.501725 -308.815022 
L 289.647954 -310.025603 
L 284.794183 -310.743471 
L 279.940411 -311.835277 
L 275.08664 -312.534882 
L 270.232869 -313.00789 
L 265.379098 -314.125104 
L 260.525327 -314.89163 
L 255.671555 -315.924599 
L 250.817784 -317.05116 
L 245.964013 -318.455837 
L 241.110242 -319.280844 
L 236.256471 -320.082681 
L 231.402699 -321.125802 
L 226.548928 -322.374651 
L 221.695157 -323.925809 
L 216.841386 -325.213251 
L 211.987615 -326.899537 
L 207.133844 -328.817893 
L 202.280072 -330.27518 
L 197.426301 -331.737444 
L 192.57253 -333.713252 
L 187.718759 -335.01322 
L 182.864988 -336.829196 
L 178.011216 -338.181043 
L 173.157445 -339.634482 
L 168.303674 -341.437483 
L 163.449903 -343.688795 
L 158.596132 -345.967919 
L 153.74236 -347.813731 
L 148.888589 -349.62261 
L 144.034818 -351.701103 
L 139.181047 -353.641788 
L 134.327276 -355.75964 
L 129.473504 -358.381328 
L 124.619733 -360.775951 
L 119.765962 -363.160326 
L 114.912191 -365.525008 
L 110.05842 -368.180917 
L 105.204648 -370.660737 
L 100.350877 -373.559564 
L 95.497106 -376.022317 
L 90.643335 -378.685582 
L 85.789564 -381.309863 
L 80.935792 -383.445548 
L 76.082021 -385.955734 
L 71.22825 -389.212291 
z
" id="me828b6c8da" style="stroke:#ffffff;stroke-opacity:0.15;stroke-width:2;"/>
    </defs>
    <g clip-path="url(#p1c216282ae)">
     <use style="fill:#4c72b0;fill-opacity:0.15;stroke:#ffffff;stroke-opacity:0.15;stroke-width:2;" x="0" xlink:href="#me828b6c8da" y="599.1321"/>
    </g>
   </g>
   <g id="line2d_11">
    <path clip-path="url(#p1c216282ae)" d="M 71.22825 258.69617 
L 76.082021 259.735487 
L 80.935792 260.774804 
L 85.789564 261.814122 
L 90.643335 262.853439 
L 95.497106 263.892756 
L 100.350877 264.932073 
L 105.204648 265.97139 
L 110.05842 267.010707 
L 114.912191 268.050024 
L 119.765962 269.089342 
L 124.619733 270.128659 
L 129.473504 271.167976 
L 134.327276 272.207293 
L 139.181047 273.24661 
L 144.034818 274.285927 
L 148.888589 275.325244 
L 153.74236 276.364561 
L 158.596132 277.403879 
L 163.449903 278.443196 
L 168.303674 279.482513 
L 173.157445 280.52183 
L 178.011216 281.561147 
L 182.864988 282.600464 
L 187.718759 283.639781 
L 192.57253 284.679099 
L 197.426301 285.718416 
L 202.280072 286.757733 
L 207.133844 287.79705 
L 211.987615 288.836367 
L 216.841386 289.875684 
L 221.695157 290.915001 
L 226.548928 291.954318 
L 231.402699 292.993636 
L 236.256471 294.032953 
L 241.110242 295.07227 
L 245.964013 296.111587 
L 250.817784 297.150904 
L 255.671555 298.190221 
L 260.525327 299.229538 
L 265.379098 300.268856 
L 270.232869 301.308173 
L 275.08664 302.34749 
L 279.940411 303.386807 
L 284.794183 304.426124 
L 289.647954 305.465441 
L 294.501725 306.504758 
L 299.355496 307.544075 
L 304.209267 308.583393 
L 309.063039 309.62271 
L 313.91681 310.662027 
L 318.770581 311.701344 
L 323.624352 312.740661 
L 328.478123 313.779978 
L 333.331895 314.819295 
L 338.185666 315.858613 
L 343.039437 316.89793 
L 347.893208 317.937247 
L 352.746979 318.976564 
L 357.600751 320.015881 
L 362.454522 321.055198 
L 367.308293 322.094515 
L 372.162064 323.133832 
L 377.015835 324.17315 
L 381.869607 325.212467 
L 386.723378 326.251784 
L 391.577149 327.291101 
L 396.43092 328.330418 
L 401.284691 329.369735 
L 406.138463 330.409052 
L 410.992234 331.44837 
L 415.846005 332.487687 
L 420.699776 333.527004 
L 425.553547 334.566321 
L 430.407319 335.605638 
L 435.26109 336.644955 
L 440.114861 337.684272 
L 444.968632 338.723589 
L 449.822403 339.762907 
L 454.676175 340.802224 
L 459.529946 341.841541 
L 464.383717 342.880858 
L 469.237488 343.920175 
L 474.091259 344.959492 
L 478.945031 345.998809 
L 483.798802 347.038127 
L 488.652573 348.077444 
L 493.506344 349.116761 
L 498.360115 350.156078 
L 503.213886 351.195395 
L 508.067658 352.234712 
L 512.921429 353.274029 
L 517.7752 354.313346 
L 522.628971 355.352664 
L 527.482742 356.391981 
L 532.336514 357.431298 
L 537.190285 358.470615 
L 542.044056 359.509932 
L 546.897827 360.549249 
L 551.751598 361.588566 
" style="fill:none;stroke:#4c72b0;stroke-linecap:round;stroke-width:4.5;"/>
   </g>
   <g id="patch_3">
    <path d="M 71.22825 536.8166 
L 71.22825 70.7886 
" style="fill:none;stroke:#ffffff;stroke-linecap:square;stroke-linejoin:miter;stroke-width:2.5;"/>
   </g>
   <g id="patch_4">
    <path d="M 71.22825 536.8166 
L 551.751598 536.8166 
" style="fill:none;stroke:#ffffff;stroke-linecap:square;stroke-linejoin:miter;stroke-width:2.5;"/>
   </g>
   <g id="text_13">
    <!-- Residual Analysis for Dengue Season -->
    <defs>
     <path d="M 44.390625 34.1875 
Q 47.5625 33.109375 50.5625 29.59375 
Q 53.5625 26.078125 56.59375 19.921875 
L 66.609375 0 
L 56 0 
L 46.6875 18.703125 
Q 43.0625 26.03125 39.671875 28.421875 
Q 36.28125 30.8125 30.421875 30.8125 
L 19.671875 30.8125 
L 19.671875 0 
L 9.8125 0 
L 9.8125 72.90625 
L 32.078125 72.90625 
Q 44.578125 72.90625 50.734375 67.671875 
Q 56.890625 62.453125 56.890625 51.90625 
Q 56.890625 45.015625 53.6875 40.46875 
Q 50.484375 35.9375 44.390625 34.1875 
z
M 19.671875 64.796875 
L 19.671875 38.921875 
L 32.078125 38.921875 
Q 39.203125 38.921875 42.84375 42.21875 
Q 46.484375 45.515625 46.484375 51.90625 
Q 46.484375 58.296875 42.84375 61.546875 
Q 39.203125 64.796875 32.078125 64.796875 
z
" id="DejaVuSans-52"/>
     <path d="M 45.40625 46.390625 
L 45.40625 75.984375 
L 54.390625 75.984375 
L 54.390625 0 
L 45.40625 0 
L 45.40625 8.203125 
Q 42.578125 3.328125 38.25 0.953125 
Q 33.9375 -1.421875 27.875 -1.421875 
Q 17.96875 -1.421875 11.734375 6.484375 
Q 5.515625 14.40625 5.515625 27.296875 
Q 5.515625 40.1875 11.734375 48.09375 
Q 17.96875 56 27.875 56 
Q 33.9375 56 38.25 53.625 
Q 42.578125 51.265625 45.40625 46.390625 
z
M 14.796875 27.296875 
Q 14.796875 17.390625 18.875 11.75 
Q 22.953125 6.109375 30.078125 6.109375 
Q 37.203125 6.109375 41.296875 11.75 
Q 45.40625 17.390625 45.40625 27.296875 
Q 45.40625 37.203125 41.296875 42.84375 
Q 37.203125 48.484375 30.078125 48.484375 
Q 22.953125 48.484375 18.875 42.84375 
Q 14.796875 37.203125 14.796875 27.296875 
z
" id="DejaVuSans-64"/>
     <path d="M 37.109375 75.984375 
L 37.109375 68.5 
L 28.515625 68.5 
Q 23.6875 68.5 21.796875 66.546875 
Q 19.921875 64.59375 19.921875 59.515625 
L 19.921875 54.6875 
L 34.71875 54.6875 
L 34.71875 47.703125 
L 19.921875 47.703125 
L 19.921875 0 
L 10.890625 0 
L 10.890625 47.703125 
L 2.296875 47.703125 
L 2.296875 54.6875 
L 10.890625 54.6875 
L 10.890625 58.5 
Q 10.890625 67.625 15.140625 71.796875 
Q 19.390625 75.984375 28.609375 75.984375 
z
" id="DejaVuSans-66"/>
    </defs>
    <g style="fill:#262626;" transform="translate(133.253924 21.789)scale(0.192 -0.192)">
     <use xlink:href="#DejaVuSans-52"/>
     <use x="69.419922" xlink:href="#DejaVuSans-65"/>
     <use x="130.943359" xlink:href="#DejaVuSans-73"/>
     <use x="183.042969" xlink:href="#DejaVuSans-69"/>
     <use x="210.826172" xlink:href="#DejaVuSans-64"/>
     <use x="274.302734" xlink:href="#DejaVuSans-75"/>
     <use x="337.681641" xlink:href="#DejaVuSans-61"/>
     <use x="398.960938" xlink:href="#DejaVuSans-6c"/>
     <use x="426.744141" xlink:href="#DejaVuSans-20"/>
     <use x="458.53125" xlink:href="#DejaVuSans-41"/>
     <use x="526.939453" xlink:href="#DejaVuSans-6e"/>
     <use x="590.318359" xlink:href="#DejaVuSans-61"/>
     <use x="651.597656" xlink:href="#DejaVuSans-6c"/>
     <use x="679.380859" xlink:href="#DejaVuSans-79"/>
     <use x="738.560547" xlink:href="#DejaVuSans-73"/>
     <use x="790.660156" xlink:href="#DejaVuSans-69"/>
     <use x="818.443359" xlink:href="#DejaVuSans-73"/>
     <use x="870.542969" xlink:href="#DejaVuSans-20"/>
     <use x="902.330078" xlink:href="#DejaVuSans-66"/>
     <use x="937.535156" xlink:href="#DejaVuSans-6f"/>
     <use x="998.716797" xlink:href="#DejaVuSans-72"/>
     <use x="1039.830078" xlink:href="#DejaVuSans-20"/>
     <use x="1071.617188" xlink:href="#DejaVuSans-44"/>
     <use x="1148.619141" xlink:href="#DejaVuSans-65"/>
     <use x="1210.142578" xlink:href="#DejaVuSans-6e"/>
     <use x="1273.521484" xlink:href="#DejaVuSans-67"/>
     <use x="1336.998047" xlink:href="#DejaVuSans-75"/>
     <use x="1400.376953" xlink:href="#DejaVuSans-65"/>
     <use x="1461.900391" xlink:href="#DejaVuSans-20"/>
     <use x="1493.6875" xlink:href="#DejaVuSans-53"/>
     <use x="1557.164062" xlink:href="#DejaVuSans-65"/>
     <use x="1618.6875" xlink:href="#DejaVuSans-61"/>
     <use x="1679.966797" xlink:href="#DejaVuSans-73"/>
     <use x="1732.066406" xlink:href="#DejaVuSans-6f"/>
     <use x="1793.248047" xlink:href="#DejaVuSans-6e"/>
    </g>
    <!-- Pearson: -0.3232, p-value: 0.0872 -->
    <defs>
     <path d="M 11.71875 12.40625 
L 22.015625 12.40625 
L 22.015625 0 
L 11.71875 0 
z
M 11.71875 51.703125 
L 22.015625 51.703125 
L 22.015625 39.3125 
L 11.71875 39.3125 
z
" id="DejaVuSans-3a"/>
     <path d="M 4.890625 31.390625 
L 31.203125 31.390625 
L 31.203125 23.390625 
L 4.890625 23.390625 
z
" id="DejaVuSans-2d"/>
     <path d="M 10.6875 12.40625 
L 21 12.40625 
L 21 0 
L 10.6875 0 
z
" id="DejaVuSans-2e"/>
     <path d="M 40.578125 39.3125 
Q 47.65625 37.796875 51.625 33 
Q 55.609375 28.21875 55.609375 21.1875 
Q 55.609375 10.40625 48.1875 4.484375 
Q 40.765625 -1.421875 27.09375 -1.421875 
Q 22.515625 -1.421875 17.65625 -0.515625 
Q 12.796875 0.390625 7.625 2.203125 
L 7.625 11.71875 
Q 11.71875 9.328125 16.59375 8.109375 
Q 21.484375 6.890625 26.8125 6.890625 
Q 36.078125 6.890625 40.9375 10.546875 
Q 45.796875 14.203125 45.796875 21.1875 
Q 45.796875 27.640625 41.28125 31.265625 
Q 36.765625 34.90625 28.71875 34.90625 
L 20.21875 34.90625 
L 20.21875 43.015625 
L 29.109375 43.015625 
Q 36.375 43.015625 40.234375 45.921875 
Q 44.09375 48.828125 44.09375 54.296875 
Q 44.09375 59.90625 40.109375 62.90625 
Q 36.140625 65.921875 28.71875 65.921875 
Q 24.65625 65.921875 20.015625 65.03125 
Q 15.375 64.15625 9.8125 62.3125 
L 9.8125 71.09375 
Q 15.4375 72.65625 20.34375 73.4375 
Q 25.25 74.21875 29.59375 74.21875 
Q 40.828125 74.21875 47.359375 69.109375 
Q 53.90625 64.015625 53.90625 55.328125 
Q 53.90625 49.265625 50.4375 45.09375 
Q 46.96875 40.921875 40.578125 39.3125 
z
" id="DejaVuSans-33"/>
     <path d="M 11.71875 12.40625 
L 22.015625 12.40625 
L 22.015625 4 
L 14.015625 -11.625 
L 7.71875 -11.625 
L 11.71875 4 
z
" id="DejaVuSans-2c"/>
     <path d="M 18.109375 8.203125 
L 18.109375 -20.796875 
L 9.078125 -20.796875 
L 9.078125 54.6875 
L 18.109375 54.6875 
L 18.109375 46.390625 
Q 20.953125 51.265625 25.265625 53.625 
Q 29.59375 56 35.59375 56 
Q 45.5625 56 51.78125 48.09375 
Q 58.015625 40.1875 58.015625 27.296875 
Q 58.015625 14.40625 51.78125 6.484375 
Q 45.5625 -1.421875 35.59375 -1.421875 
Q 29.59375 -1.421875 25.265625 0.953125 
Q 20.953125 3.328125 18.109375 8.203125 
z
M 48.6875 27.296875 
Q 48.6875 37.203125 44.609375 42.84375 
Q 40.53125 48.484375 33.40625 48.484375 
Q 26.265625 48.484375 22.1875 42.84375 
Q 18.109375 37.203125 18.109375 27.296875 
Q 18.109375 17.390625 22.1875 11.75 
Q 26.265625 6.109375 33.40625 6.109375 
Q 40.53125 6.109375 44.609375 11.75 
Q 48.6875 17.390625 48.6875 27.296875 
z
" id="DejaVuSans-70"/>
     <path d="M 2.984375 54.6875 
L 12.5 54.6875 
L 29.59375 8.796875 
L 46.6875 54.6875 
L 56.203125 54.6875 
L 35.6875 0 
L 23.484375 0 
z
" id="DejaVuSans-76"/>
     <path d="M 8.203125 72.90625 
L 55.078125 72.90625 
L 55.078125 68.703125 
L 28.609375 0 
L 18.3125 0 
L 43.21875 64.59375 
L 8.203125 64.59375 
z
" id="DejaVuSans-37"/>
    </defs>
    <g style="fill:#262626;" transform="translate(147.914924 43.2888)scale(0.192 -0.192)">
     <use xlink:href="#DejaVuSans-50"/>
     <use x="60.255859" xlink:href="#DejaVuSans-65"/>
     <use x="121.779297" xlink:href="#DejaVuSans-61"/>
     <use x="183.058594" xlink:href="#DejaVuSans-72"/>
     <use x="224.171875" xlink:href="#DejaVuSans-73"/>
     <use x="276.271484" xlink:href="#DejaVuSans-6f"/>
     <use x="337.453125" xlink:href="#DejaVuSans-6e"/>
     <use x="400.832031" xlink:href="#DejaVuSans-3a"/>
     <use x="434.523438" xlink:href="#DejaVuSans-20"/>
     <use x="466.310547" xlink:href="#DejaVuSans-2d"/>
     <use x="502.394531" xlink:href="#DejaVuSans-30"/>
     <use x="566.017578" xlink:href="#DejaVuSans-2e"/>
     <use x="597.804688" xlink:href="#DejaVuSans-33"/>
     <use x="661.427734" xlink:href="#DejaVuSans-32"/>
     <use x="725.050781" xlink:href="#DejaVuSans-33"/>
     <use x="788.673828" xlink:href="#DejaVuSans-32"/>
     <use x="852.296875" xlink:href="#DejaVuSans-2c"/>
     <use x="884.083984" xlink:href="#DejaVuSans-20"/>
     <use x="915.871094" xlink:href="#DejaVuSans-70"/>
     <use x="979.347656" xlink:href="#DejaVuSans-2d"/>
     <use x="1015.400391" xlink:href="#DejaVuSans-76"/>
     <use x="1074.580078" xlink:href="#DejaVuSans-61"/>
     <use x="1135.859375" xlink:href="#DejaVuSans-6c"/>
     <use x="1163.642578" xlink:href="#DejaVuSans-75"/>
     <use x="1227.021484" xlink:href="#DejaVuSans-65"/>
     <use x="1288.544922" xlink:href="#DejaVuSans-3a"/>
     <use x="1322.236328" xlink:href="#DejaVuSans-20"/>
     <use x="1354.023438" xlink:href="#DejaVuSans-30"/>
     <use x="1417.646484" xlink:href="#DejaVuSans-2e"/>
     <use x="1449.433594" xlink:href="#DejaVuSans-30"/>
     <use x="1513.056641" xlink:href="#DejaVuSans-38"/>
     <use x="1576.679688" xlink:href="#DejaVuSans-37"/>
     <use x="1640.302734" xlink:href="#DejaVuSans-32"/>
    </g>
    <!-- Spearman: -0.2862, p-value: 0.1323 -->
    <g style="fill:#262626;" transform="translate(137.152424 64.7886)scale(0.192 -0.192)">
     <use xlink:href="#DejaVuSans-53"/>
     <use x="63.476562" xlink:href="#DejaVuSans-70"/>
     <use x="126.953125" xlink:href="#DejaVuSans-65"/>
     <use x="188.476562" xlink:href="#DejaVuSans-61"/>
     <use x="249.755859" xlink:href="#DejaVuSans-72"/>
     <use x="290.853516" xlink:href="#DejaVuSans-6d"/>
     <use x="388.265625" xlink:href="#DejaVuSans-61"/>
     <use x="449.544922" xlink:href="#DejaVuSans-6e"/>
     <use x="512.923828" xlink:href="#DejaVuSans-3a"/>
     <use x="546.615234" xlink:href="#DejaVuSans-20"/>
     <use x="578.402344" xlink:href="#DejaVuSans-2d"/>
     <use x="614.486328" xlink:href="#DejaVuSans-30"/>
     <use x="678.109375" xlink:href="#DejaVuSans-2e"/>
     <use x="709.896484" xlink:href="#DejaVuSans-32"/>
     <use x="773.519531" xlink:href="#DejaVuSans-38"/>
     <use x="837.142578" xlink:href="#DejaVuSans-36"/>
     <use x="900.765625" xlink:href="#DejaVuSans-32"/>
     <use x="964.388672" xlink:href="#DejaVuSans-2c"/>
     <use x="996.175781" xlink:href="#DejaVuSans-20"/>
     <use x="1027.962891" xlink:href="#DejaVuSans-70"/>
     <use x="1091.439453" xlink:href="#DejaVuSans-2d"/>
     <use x="1127.492188" xlink:href="#DejaVuSans-76"/>
     <use x="1186.671875" xlink:href="#DejaVuSans-61"/>
     <use x="1247.951172" xlink:href="#DejaVuSans-6c"/>
     <use x="1275.734375" xlink:href="#DejaVuSans-75"/>
     <use x="1339.113281" xlink:href="#DejaVuSans-65"/>
     <use x="1400.636719" xlink:href="#DejaVuSans-3a"/>
     <use x="1434.328125" xlink:href="#DejaVuSans-20"/>
     <use x="1466.115234" xlink:href="#DejaVuSans-30"/>
     <use x="1529.738281" xlink:href="#DejaVuSans-2e"/>
     <use x="1561.525391" xlink:href="#DejaVuSans-31"/>
     <use x="1625.148438" xlink:href="#DejaVuSans-33"/>
     <use x="1688.771484" xlink:href="#DejaVuSans-32"/>
     <use x="1752.394531" xlink:href="#DejaVuSans-33"/>
    </g>
   </g>
  </g>
  <g id="legend_1">
   <g id="text_14">
    <!-- category -->
    <g style="fill:#262626;" transform="translate(581.184392 265.3191)scale(0.1632 -0.1632)">
     <use xlink:href="#DejaVuSans-63"/>
     <use x="54.980469" xlink:href="#DejaVuSans-61"/>
     <use x="116.259766" xlink:href="#DejaVuSans-74"/>
     <use x="155.46875" xlink:href="#DejaVuSans-65"/>
     <use x="216.992188" xlink:href="#DejaVuSans-67"/>
     <use x="280.46875" xlink:href="#DejaVuSans-6f"/>
     <use x="341.650391" xlink:href="#DejaVuSans-72"/>
     <use x="382.763672" xlink:href="#DejaVuSans-79"/>
    </g>
   </g>
   <g id="PathCollection_4">
    <g>
     <use style="fill:#2ecc71;stroke:#2ecc71;stroke-width:2;" x="573.561167" xlink:href="#m33ae4cd9b0" y="286.2664"/>
    </g>
   </g>
   <g id="text_15">
    <!-- Good -->
    <defs>
     <path d="M 59.515625 10.40625 
L 59.515625 29.984375 
L 43.40625 29.984375 
L 43.40625 38.09375 
L 69.28125 38.09375 
L 69.28125 6.78125 
Q 63.578125 2.734375 56.6875 0.65625 
Q 49.8125 -1.421875 42 -1.421875 
Q 24.90625 -1.421875 15.25 8.5625 
Q 5.609375 18.5625 5.609375 36.375 
Q 5.609375 54.25 15.25 64.234375 
Q 24.90625 74.21875 42 74.21875 
Q 49.125 74.21875 55.546875 72.453125 
Q 61.96875 70.703125 67.390625 67.28125 
L 67.390625 56.78125 
Q 61.921875 61.421875 55.765625 63.765625 
Q 49.609375 66.109375 42.828125 66.109375 
Q 29.4375 66.109375 22.71875 58.640625 
Q 16.015625 51.171875 16.015625 36.375 
Q 16.015625 21.625 22.71875 14.15625 
Q 29.4375 6.6875 42.828125 6.6875 
Q 48.046875 6.6875 52.140625 7.59375 
Q 56.25 8.5 59.515625 10.40625 
z
" id="DejaVuSans-47"/>
    </defs>
    <g style="fill:#262626;" transform="translate(605.241167 290.8864)scale(0.176 -0.176)">
     <use xlink:href="#DejaVuSans-47"/>
     <use x="77.490234" xlink:href="#DejaVuSans-6f"/>
     <use x="138.671875" xlink:href="#DejaVuSans-6f"/>
     <use x="199.853516" xlink:href="#DejaVuSans-64"/>
    </g>
   </g>
   <g id="PathCollection_5">
    <g>
     <use style="fill:#34495e;stroke:#34495e;stroke-width:2;" x="573.561167" xlink:href="#m5fbef23426" y="312.0999"/>
    </g>
   </g>
   <g id="text_16">
    <!-- Average -->
    <g style="fill:#262626;" transform="translate(605.241167 316.7199)scale(0.176 -0.176)">
     <use xlink:href="#DejaVuSans-41"/>
     <use x="68.330078" xlink:href="#DejaVuSans-76"/>
     <use x="127.509766" xlink:href="#DejaVuSans-65"/>
     <use x="189.033203" xlink:href="#DejaVuSans-72"/>
     <use x="230.146484" xlink:href="#DejaVuSans-61"/>
     <use x="291.425781" xlink:href="#DejaVuSans-67"/>
     <use x="354.902344" xlink:href="#DejaVuSans-65"/>
    </g>
   </g>
   <g id="PathCollection_6">
    <g>
     <use style="fill:#e74c3c;stroke:#e74c3c;stroke-width:2;" x="573.561167" xlink:href="#mba5906cc66" y="337.9334"/>
    </g>
   </g>
   <g id="text_17">
    <!-- Bad -->
    <g style="fill:#262626;" transform="translate(605.241167 342.5534)scale(0.176 -0.176)">
     <use xlink:href="#DejaVuSans-42"/>
     <use x="68.603516" xlink:href="#DejaVuSans-61"/>
     <use x="129.882812" xlink:href="#DejaVuSans-64"/>
    </g>
   </g>
  </g>
 </g>
 <defs>
  <clipPath id="p1c216282ae">
   <rect height="466.028" width="480.523348" x="71.22825" y="70.7886"/>
  </clipPath>
 </defs>
</svg>
