<?xml version="1.0" encoding="utf-8" standalone="no"?>
<!DOCTYPE svg PUBLIC "-//W3C//DTD SVG 1.1//EN"
  "http://www.w3.org/Graphics/SVG/1.1/DTD/svg11.dtd">
<!-- Created with matplotlib (http://matplotlib.org/) -->
<svg height="599pt" version="1.1" viewBox="0 0 670 599" width="670pt" xmlns="http://www.w3.org/2000/svg" xmlns:xlink="http://www.w3.org/1999/xlink">
 <defs>
  <style type="text/css">
*{stroke-linecap:butt;stroke-linejoin:round;}
  </style>
 </defs>
 <g id="figure_1">
  <g id="patch_1">
   <path d="M 0 599.1321 
L 670.567186 599.1321 
L 670.567186 0 
L 0 0 
z
" style="fill:#ffffff;"/>
  </g>
  <g id="axes_1">
   <g id="patch_2">
    <path d="M 101.272 536.8166 
L 527.941867 536.8166 
L 527.941867 70.7886 
L 101.272 70.7886 
z
" style="fill:#eaeaf2;"/>
   </g>
   <g id="matplotlib.axis_1">
    <g id="xtick_1">
     <g id="line2d_1">
      <path clip-path="url(#pa28667e022)" d="M 116.179037 536.8166 
L 116.179037 70.7886 
" style="fill:none;stroke:#ffffff;stroke-linecap:round;stroke-width:2;"/>
     </g>
     <g id="text_1">
      <!-- 0 -->
      <defs>
       <path d="M 31.78125 66.40625 
Q 24.171875 66.40625 20.328125 58.90625 
Q 16.5 51.421875 16.5 36.375 
Q 16.5 21.390625 20.328125 13.890625 
Q 24.171875 6.390625 31.78125 6.390625 
Q 39.453125 6.390625 43.28125 13.890625 
Q 47.125 21.390625 47.125 36.375 
Q 47.125 51.421875 43.28125 58.90625 
Q 39.453125 66.40625 31.78125 66.40625 
z
M 31.78125 74.21875 
Q 44.046875 74.21875 50.515625 64.515625 
Q 56.984375 54.828125 56.984375 36.375 
Q 56.984375 17.96875 50.515625 8.265625 
Q 44.046875 -1.421875 31.78125 -1.421875 
Q 19.53125 -1.421875 13.0625 8.265625 
Q 6.59375 17.96875 6.59375 36.375 
Q 6.59375 54.828125 13.0625 64.515625 
Q 19.53125 74.21875 31.78125 74.21875 
z
" id="DejaVuSans-30"/>
      </defs>
      <g style="fill:#262626;" transform="translate(110.580037 565.68985)scale(0.176 -0.176)">
       <use xlink:href="#DejaVuSans-30"/>
      </g>
     </g>
    </g>
    <g id="xtick_2">
     <g id="line2d_2">
      <path clip-path="url(#pa28667e022)" d="M 182.818431 536.8166 
L 182.818431 70.7886 
" style="fill:none;stroke:#ffffff;stroke-linecap:round;stroke-width:2;"/>
     </g>
     <g id="text_2">
      <!-- 10 -->
      <defs>
       <path d="M 12.40625 8.296875 
L 28.515625 8.296875 
L 28.515625 63.921875 
L 10.984375 60.40625 
L 10.984375 69.390625 
L 28.421875 72.90625 
L 38.28125 72.90625 
L 38.28125 8.296875 
L 54.390625 8.296875 
L 54.390625 0 
L 12.40625 0 
z
" id="DejaVuSans-31"/>
      </defs>
      <g style="fill:#262626;" transform="translate(171.620431 565.68985)scale(0.176 -0.176)">
       <use xlink:href="#DejaVuSans-31"/>
       <use x="63.623047" xlink:href="#DejaVuSans-30"/>
      </g>
     </g>
    </g>
    <g id="xtick_3">
     <g id="line2d_3">
      <path clip-path="url(#pa28667e022)" d="M 249.457825 536.8166 
L 249.457825 70.7886 
" style="fill:none;stroke:#ffffff;stroke-linecap:round;stroke-width:2;"/>
     </g>
     <g id="text_3">
      <!-- 20 -->
      <defs>
       <path d="M 19.1875 8.296875 
L 53.609375 8.296875 
L 53.609375 0 
L 7.328125 0 
L 7.328125 8.296875 
Q 12.9375 14.109375 22.625 23.890625 
Q 32.328125 33.6875 34.8125 36.53125 
Q 39.546875 41.84375 41.421875 45.53125 
Q 43.3125 49.21875 43.3125 52.78125 
Q 43.3125 58.59375 39.234375 62.25 
Q 35.15625 65.921875 28.609375 65.921875 
Q 23.96875 65.921875 18.8125 64.3125 
Q 13.671875 62.703125 7.8125 59.421875 
L 7.8125 69.390625 
Q 13.765625 71.78125 18.9375 73 
Q 24.125 74.21875 28.421875 74.21875 
Q 39.75 74.21875 46.484375 68.546875 
Q 53.21875 62.890625 53.21875 53.421875 
Q 53.21875 48.921875 51.53125 44.890625 
Q 49.859375 40.875 45.40625 35.40625 
Q 44.1875 33.984375 37.640625 27.21875 
Q 31.109375 20.453125 19.1875 8.296875 
z
" id="DejaVuSans-32"/>
      </defs>
      <g style="fill:#262626;" transform="translate(238.259825 565.68985)scale(0.176 -0.176)">
       <use xlink:href="#DejaVuSans-32"/>
       <use x="63.623047" xlink:href="#DejaVuSans-30"/>
      </g>
     </g>
    </g>
    <g id="xtick_4">
     <g id="line2d_4">
      <path clip-path="url(#pa28667e022)" d="M 316.097219 536.8166 
L 316.097219 70.7886 
" style="fill:none;stroke:#ffffff;stroke-linecap:round;stroke-width:2;"/>
     </g>
     <g id="text_4">
      <!-- 30 -->
      <defs>
       <path d="M 40.578125 39.3125 
Q 47.65625 37.796875 51.625 33 
Q 55.609375 28.21875 55.609375 21.1875 
Q 55.609375 10.40625 48.1875 4.484375 
Q 40.765625 -1.421875 27.09375 -1.421875 
Q 22.515625 -1.421875 17.65625 -0.515625 
Q 12.796875 0.390625 7.625 2.203125 
L 7.625 11.71875 
Q 11.71875 9.328125 16.59375 8.109375 
Q 21.484375 6.890625 26.8125 6.890625 
Q 36.078125 6.890625 40.9375 10.546875 
Q 45.796875 14.203125 45.796875 21.1875 
Q 45.796875 27.640625 41.28125 31.265625 
Q 36.765625 34.90625 28.71875 34.90625 
L 20.21875 34.90625 
L 20.21875 43.015625 
L 29.109375 43.015625 
Q 36.375 43.015625 40.234375 45.921875 
Q 44.09375 48.828125 44.09375 54.296875 
Q 44.09375 59.90625 40.109375 62.90625 
Q 36.140625 65.921875 28.71875 65.921875 
Q 24.65625 65.921875 20.015625 65.03125 
Q 15.375 64.15625 9.8125 62.3125 
L 9.8125 71.09375 
Q 15.4375 72.65625 20.34375 73.4375 
Q 25.25 74.21875 29.59375 74.21875 
Q 40.828125 74.21875 47.359375 69.109375 
Q 53.90625 64.015625 53.90625 55.328125 
Q 53.90625 49.265625 50.4375 45.09375 
Q 46.96875 40.921875 40.578125 39.3125 
z
" id="DejaVuSans-33"/>
      </defs>
      <g style="fill:#262626;" transform="translate(304.899219 565.68985)scale(0.176 -0.176)">
       <use xlink:href="#DejaVuSans-33"/>
       <use x="63.623047" xlink:href="#DejaVuSans-30"/>
      </g>
     </g>
    </g>
    <g id="xtick_5">
     <g id="line2d_5">
      <path clip-path="url(#pa28667e022)" d="M 382.736613 536.8166 
L 382.736613 70.7886 
" style="fill:none;stroke:#ffffff;stroke-linecap:round;stroke-width:2;"/>
     </g>
     <g id="text_5">
      <!-- 40 -->
      <defs>
       <path d="M 37.796875 64.3125 
L 12.890625 25.390625 
L 37.796875 25.390625 
z
M 35.203125 72.90625 
L 47.609375 72.90625 
L 47.609375 25.390625 
L 58.015625 25.390625 
L 58.015625 17.1875 
L 47.609375 17.1875 
L 47.609375 0 
L 37.796875 0 
L 37.796875 17.1875 
L 4.890625 17.1875 
L 4.890625 26.703125 
z
" id="DejaVuSans-34"/>
      </defs>
      <g style="fill:#262626;" transform="translate(371.538613 565.68985)scale(0.176 -0.176)">
       <use xlink:href="#DejaVuSans-34"/>
       <use x="63.623047" xlink:href="#DejaVuSans-30"/>
      </g>
     </g>
    </g>
    <g id="xtick_6">
     <g id="line2d_6">
      <path clip-path="url(#pa28667e022)" d="M 449.376007 536.8166 
L 449.376007 70.7886 
" style="fill:none;stroke:#ffffff;stroke-linecap:round;stroke-width:2;"/>
     </g>
     <g id="text_6">
      <!-- 50 -->
      <defs>
       <path d="M 10.796875 72.90625 
L 49.515625 72.90625 
L 49.515625 64.59375 
L 19.828125 64.59375 
L 19.828125 46.734375 
Q 21.96875 47.46875 24.109375 47.828125 
Q 26.265625 48.1875 28.421875 48.1875 
Q 40.625 48.1875 47.75 41.5 
Q 54.890625 34.8125 54.890625 23.390625 
Q 54.890625 11.625 47.5625 5.09375 
Q 40.234375 -1.421875 26.90625 -1.421875 
Q 22.3125 -1.421875 17.546875 -0.640625 
Q 12.796875 0.140625 7.71875 1.703125 
L 7.71875 11.625 
Q 12.109375 9.234375 16.796875 8.0625 
Q 21.484375 6.890625 26.703125 6.890625 
Q 35.15625 6.890625 40.078125 11.328125 
Q 45.015625 15.765625 45.015625 23.390625 
Q 45.015625 31 40.078125 35.4375 
Q 35.15625 39.890625 26.703125 39.890625 
Q 22.75 39.890625 18.8125 39.015625 
Q 14.890625 38.140625 10.796875 36.28125 
z
" id="DejaVuSans-35"/>
      </defs>
      <g style="fill:#262626;" transform="translate(438.178007 565.68985)scale(0.176 -0.176)">
       <use xlink:href="#DejaVuSans-35"/>
       <use x="63.623047" xlink:href="#DejaVuSans-30"/>
      </g>
     </g>
    </g>
    <g id="xtick_7">
     <g id="line2d_7">
      <path clip-path="url(#pa28667e022)" d="M 516.015401 536.8166 
L 516.015401 70.7886 
" style="fill:none;stroke:#ffffff;stroke-linecap:round;stroke-width:2;"/>
     </g>
     <g id="text_7">
      <!-- 60 -->
      <defs>
       <path d="M 33.015625 40.375 
Q 26.375 40.375 22.484375 35.828125 
Q 18.609375 31.296875 18.609375 23.390625 
Q 18.609375 15.53125 22.484375 10.953125 
Q 26.375 6.390625 33.015625 6.390625 
Q 39.65625 6.390625 43.53125 10.953125 
Q 47.40625 15.53125 47.40625 23.390625 
Q 47.40625 31.296875 43.53125 35.828125 
Q 39.65625 40.375 33.015625 40.375 
z
M 52.59375 71.296875 
L 52.59375 62.3125 
Q 48.875 64.0625 45.09375 64.984375 
Q 41.3125 65.921875 37.59375 65.921875 
Q 27.828125 65.921875 22.671875 59.328125 
Q 17.53125 52.734375 16.796875 39.40625 
Q 19.671875 43.65625 24.015625 45.921875 
Q 28.375 48.1875 33.59375 48.1875 
Q 44.578125 48.1875 50.953125 41.515625 
Q 57.328125 34.859375 57.328125 23.390625 
Q 57.328125 12.15625 50.6875 5.359375 
Q 44.046875 -1.421875 33.015625 -1.421875 
Q 20.359375 -1.421875 13.671875 8.265625 
Q 6.984375 17.96875 6.984375 36.375 
Q 6.984375 53.65625 15.1875 63.9375 
Q 23.390625 74.21875 37.203125 74.21875 
Q 40.921875 74.21875 44.703125 73.484375 
Q 48.484375 72.75 52.59375 71.296875 
z
" id="DejaVuSans-36"/>
      </defs>
      <g style="fill:#262626;" transform="translate(504.817401 565.68985)scale(0.176 -0.176)">
       <use xlink:href="#DejaVuSans-36"/>
       <use x="63.623047" xlink:href="#DejaVuSans-30"/>
      </g>
     </g>
    </g>
    <g id="text_8">
     <!-- Absolute Error -->
     <defs>
      <path d="M 34.1875 63.1875 
L 20.796875 26.90625 
L 47.609375 26.90625 
z
M 28.609375 72.90625 
L 39.796875 72.90625 
L 67.578125 0 
L 57.328125 0 
L 50.6875 18.703125 
L 17.828125 18.703125 
L 11.1875 0 
L 0.78125 0 
z
" id="DejaVuSans-41"/>
      <path d="M 48.6875 27.296875 
Q 48.6875 37.203125 44.609375 42.84375 
Q 40.53125 48.484375 33.40625 48.484375 
Q 26.265625 48.484375 22.1875 42.84375 
Q 18.109375 37.203125 18.109375 27.296875 
Q 18.109375 17.390625 22.1875 11.75 
Q 26.265625 6.109375 33.40625 6.109375 
Q 40.53125 6.109375 44.609375 11.75 
Q 48.6875 17.390625 48.6875 27.296875 
z
M 18.109375 46.390625 
Q 20.953125 51.265625 25.265625 53.625 
Q 29.59375 56 35.59375 56 
Q 45.5625 56 51.78125 48.09375 
Q 58.015625 40.1875 58.015625 27.296875 
Q 58.015625 14.40625 51.78125 6.484375 
Q 45.5625 -1.421875 35.59375 -1.421875 
Q 29.59375 -1.421875 25.265625 0.953125 
Q 20.953125 3.328125 18.109375 8.203125 
L 18.109375 0 
L 9.078125 0 
L 9.078125 75.984375 
L 18.109375 75.984375 
z
" id="DejaVuSans-62"/>
      <path d="M 44.28125 53.078125 
L 44.28125 44.578125 
Q 40.484375 46.53125 36.375 47.5 
Q 32.28125 48.484375 27.875 48.484375 
Q 21.1875 48.484375 17.84375 46.4375 
Q 14.5 44.390625 14.5 40.28125 
Q 14.5 37.15625 16.890625 35.375 
Q 19.28125 33.59375 26.515625 31.984375 
L 29.59375 31.296875 
Q 39.15625 29.25 43.1875 25.515625 
Q 47.21875 21.78125 47.21875 15.09375 
Q 47.21875 7.46875 41.1875 3.015625 
Q 35.15625 -1.421875 24.609375 -1.421875 
Q 20.21875 -1.421875 15.453125 -0.5625 
Q 10.6875 0.296875 5.421875 2 
L 5.421875 11.28125 
Q 10.40625 8.6875 15.234375 7.390625 
Q 20.0625 6.109375 24.8125 6.109375 
Q 31.15625 6.109375 34.5625 8.28125 
Q 37.984375 10.453125 37.984375 14.40625 
Q 37.984375 18.0625 35.515625 20.015625 
Q 33.0625 21.96875 24.703125 23.78125 
L 21.578125 24.515625 
Q 13.234375 26.265625 9.515625 29.90625 
Q 5.8125 33.546875 5.8125 39.890625 
Q 5.8125 47.609375 11.28125 51.796875 
Q 16.75 56 26.8125 56 
Q 31.78125 56 36.171875 55.265625 
Q 40.578125 54.546875 44.28125 53.078125 
z
" id="DejaVuSans-73"/>
      <path d="M 30.609375 48.390625 
Q 23.390625 48.390625 19.1875 42.75 
Q 14.984375 37.109375 14.984375 27.296875 
Q 14.984375 17.484375 19.15625 11.84375 
Q 23.34375 6.203125 30.609375 6.203125 
Q 37.796875 6.203125 41.984375 11.859375 
Q 46.1875 17.53125 46.1875 27.296875 
Q 46.1875 37.015625 41.984375 42.703125 
Q 37.796875 48.390625 30.609375 48.390625 
z
M 30.609375 56 
Q 42.328125 56 49.015625 48.375 
Q 55.71875 40.765625 55.71875 27.296875 
Q 55.71875 13.875 49.015625 6.21875 
Q 42.328125 -1.421875 30.609375 -1.421875 
Q 18.84375 -1.421875 12.171875 6.21875 
Q 5.515625 13.875 5.515625 27.296875 
Q 5.515625 40.765625 12.171875 48.375 
Q 18.84375 56 30.609375 56 
z
" id="DejaVuSans-6f"/>
      <path d="M 9.421875 75.984375 
L 18.40625 75.984375 
L 18.40625 0 
L 9.421875 0 
z
" id="DejaVuSans-6c"/>
      <path d="M 8.5 21.578125 
L 8.5 54.6875 
L 17.484375 54.6875 
L 17.484375 21.921875 
Q 17.484375 14.15625 20.5 10.265625 
Q 23.53125 6.390625 29.59375 6.390625 
Q 36.859375 6.390625 41.078125 11.03125 
Q 45.3125 15.671875 45.3125 23.6875 
L 45.3125 54.6875 
L 54.296875 54.6875 
L 54.296875 0 
L 45.3125 0 
L 45.3125 8.40625 
Q 42.046875 3.421875 37.71875 1 
Q 33.40625 -1.421875 27.6875 -1.421875 
Q 18.265625 -1.421875 13.375 4.4375 
Q 8.5 10.296875 8.5 21.578125 
z
M 31.109375 56 
z
" id="DejaVuSans-75"/>
      <path d="M 18.3125 70.21875 
L 18.3125 54.6875 
L 36.8125 54.6875 
L 36.8125 47.703125 
L 18.3125 47.703125 
L 18.3125 18.015625 
Q 18.3125 11.328125 20.140625 9.421875 
Q 21.96875 7.515625 27.59375 7.515625 
L 36.8125 7.515625 
L 36.8125 0 
L 27.59375 0 
Q 17.1875 0 13.234375 3.875 
Q 9.28125 7.765625 9.28125 18.015625 
L 9.28125 47.703125 
L 2.6875 47.703125 
L 2.6875 54.6875 
L 9.28125 54.6875 
L 9.28125 70.21875 
z
" id="DejaVuSans-74"/>
      <path d="M 56.203125 29.59375 
L 56.203125 25.203125 
L 14.890625 25.203125 
Q 15.484375 15.921875 20.484375 11.0625 
Q 25.484375 6.203125 34.421875 6.203125 
Q 39.59375 6.203125 44.453125 7.46875 
Q 49.3125 8.734375 54.109375 11.28125 
L 54.109375 2.78125 
Q 49.265625 0.734375 44.1875 -0.34375 
Q 39.109375 -1.421875 33.890625 -1.421875 
Q 20.796875 -1.421875 13.15625 6.1875 
Q 5.515625 13.8125 5.515625 26.8125 
Q 5.515625 40.234375 12.765625 48.109375 
Q 20.015625 56 32.328125 56 
Q 43.359375 56 49.78125 48.890625 
Q 56.203125 41.796875 56.203125 29.59375 
z
M 47.21875 32.234375 
Q 47.125 39.59375 43.09375 43.984375 
Q 39.0625 48.390625 32.421875 48.390625 
Q 24.90625 48.390625 20.390625 44.140625 
Q 15.875 39.890625 15.1875 32.171875 
z
" id="DejaVuSans-65"/>
      <path id="DejaVuSans-20"/>
      <path d="M 9.8125 72.90625 
L 55.90625 72.90625 
L 55.90625 64.59375 
L 19.671875 64.59375 
L 19.671875 43.015625 
L 54.390625 43.015625 
L 54.390625 34.71875 
L 19.671875 34.71875 
L 19.671875 8.296875 
L 56.78125 8.296875 
L 56.78125 0 
L 9.8125 0 
z
" id="DejaVuSans-45"/>
      <path d="M 41.109375 46.296875 
Q 39.59375 47.171875 37.8125 47.578125 
Q 36.03125 48 33.890625 48 
Q 26.265625 48 22.1875 43.046875 
Q 18.109375 38.09375 18.109375 28.8125 
L 18.109375 0 
L 9.078125 0 
L 9.078125 54.6875 
L 18.109375 54.6875 
L 18.109375 46.1875 
Q 20.953125 51.171875 25.484375 53.578125 
Q 30.03125 56 36.53125 56 
Q 37.453125 56 38.578125 55.875 
Q 39.703125 55.765625 41.0625 55.515625 
z
" id="DejaVuSans-72"/>
     </defs>
     <g style="fill:#262626;" transform="translate(245.822934 587.9391)scale(0.192 -0.192)">
      <use xlink:href="#DejaVuSans-41"/>
      <use x="68.408203" xlink:href="#DejaVuSans-62"/>
      <use x="131.884766" xlink:href="#DejaVuSans-73"/>
      <use x="183.984375" xlink:href="#DejaVuSans-6f"/>
      <use x="245.166016" xlink:href="#DejaVuSans-6c"/>
      <use x="272.949219" xlink:href="#DejaVuSans-75"/>
      <use x="336.328125" xlink:href="#DejaVuSans-74"/>
      <use x="375.537109" xlink:href="#DejaVuSans-65"/>
      <use x="437.060547" xlink:href="#DejaVuSans-20"/>
      <use x="468.847656" xlink:href="#DejaVuSans-45"/>
      <use x="532.03125" xlink:href="#DejaVuSans-72"/>
      <use x="573.128906" xlink:href="#DejaVuSans-72"/>
      <use x="614.210938" xlink:href="#DejaVuSans-6f"/>
      <use x="675.392578" xlink:href="#DejaVuSans-72"/>
     </g>
    </g>
   </g>
   <g id="matplotlib.axis_2">
    <g id="ytick_1">
     <g id="line2d_8">
      <path clip-path="url(#pa28667e022)" d="M 101.272 501.987403 
L 527.941867 501.987403 
" style="fill:none;stroke:#ffffff;stroke-linecap:round;stroke-width:2;"/>
     </g>
     <g id="text_9">
      <!-- 0 -->
      <g style="fill:#262626;" transform="translate(74.574 508.674028)scale(0.176 -0.176)">
       <use xlink:href="#DejaVuSans-30"/>
      </g>
     </g>
    </g>
    <g id="ytick_2">
     <g id="line2d_9">
      <path clip-path="url(#pa28667e022)" d="M 101.272 439.894889 
L 527.941867 439.894889 
" style="fill:none;stroke:#ffffff;stroke-linecap:round;stroke-width:2;"/>
     </g>
     <g id="text_10">
      <!-- 2500 -->
      <g style="fill:#262626;" transform="translate(40.98 446.581514)scale(0.176 -0.176)">
       <use xlink:href="#DejaVuSans-32"/>
       <use x="63.623047" xlink:href="#DejaVuSans-35"/>
       <use x="127.246094" xlink:href="#DejaVuSans-30"/>
       <use x="190.869141" xlink:href="#DejaVuSans-30"/>
      </g>
     </g>
    </g>
    <g id="ytick_3">
     <g id="line2d_10">
      <path clip-path="url(#pa28667e022)" d="M 101.272 377.802374 
L 527.941867 377.802374 
" style="fill:none;stroke:#ffffff;stroke-linecap:round;stroke-width:2;"/>
     </g>
     <g id="text_11">
      <!-- 5000 -->
      <g style="fill:#262626;" transform="translate(40.98 384.488999)scale(0.176 -0.176)">
       <use xlink:href="#DejaVuSans-35"/>
       <use x="63.623047" xlink:href="#DejaVuSans-30"/>
       <use x="127.246094" xlink:href="#DejaVuSans-30"/>
       <use x="190.869141" xlink:href="#DejaVuSans-30"/>
      </g>
     </g>
    </g>
    <g id="ytick_4">
     <g id="line2d_11">
      <path clip-path="url(#pa28667e022)" d="M 101.272 315.709859 
L 527.941867 315.709859 
" style="fill:none;stroke:#ffffff;stroke-linecap:round;stroke-width:2;"/>
     </g>
     <g id="text_12">
      <!-- 7500 -->
      <defs>
       <path d="M 8.203125 72.90625 
L 55.078125 72.90625 
L 55.078125 68.703125 
L 28.609375 0 
L 18.3125 0 
L 43.21875 64.59375 
L 8.203125 64.59375 
z
" id="DejaVuSans-37"/>
      </defs>
      <g style="fill:#262626;" transform="translate(40.98 322.396484)scale(0.176 -0.176)">
       <use xlink:href="#DejaVuSans-37"/>
       <use x="63.623047" xlink:href="#DejaVuSans-35"/>
       <use x="127.246094" xlink:href="#DejaVuSans-30"/>
       <use x="190.869141" xlink:href="#DejaVuSans-30"/>
      </g>
     </g>
    </g>
    <g id="ytick_5">
     <g id="line2d_12">
      <path clip-path="url(#pa28667e022)" d="M 101.272 253.617344 
L 527.941867 253.617344 
" style="fill:none;stroke:#ffffff;stroke-linecap:round;stroke-width:2;"/>
     </g>
     <g id="text_13">
      <!-- 10000 -->
      <g style="fill:#262626;" transform="translate(29.782 260.303969)scale(0.176 -0.176)">
       <use xlink:href="#DejaVuSans-31"/>
       <use x="63.623047" xlink:href="#DejaVuSans-30"/>
       <use x="127.246094" xlink:href="#DejaVuSans-30"/>
       <use x="190.869141" xlink:href="#DejaVuSans-30"/>
       <use x="254.492188" xlink:href="#DejaVuSans-30"/>
      </g>
     </g>
    </g>
    <g id="ytick_6">
     <g id="line2d_13">
      <path clip-path="url(#pa28667e022)" d="M 101.272 191.524829 
L 527.941867 191.524829 
" style="fill:none;stroke:#ffffff;stroke-linecap:round;stroke-width:2;"/>
     </g>
     <g id="text_14">
      <!-- 12500 -->
      <g style="fill:#262626;" transform="translate(29.782 198.211454)scale(0.176 -0.176)">
       <use xlink:href="#DejaVuSans-31"/>
       <use x="63.623047" xlink:href="#DejaVuSans-32"/>
       <use x="127.246094" xlink:href="#DejaVuSans-35"/>
       <use x="190.869141" xlink:href="#DejaVuSans-30"/>
       <use x="254.492188" xlink:href="#DejaVuSans-30"/>
      </g>
     </g>
    </g>
    <g id="ytick_7">
     <g id="line2d_14">
      <path clip-path="url(#pa28667e022)" d="M 101.272 129.432314 
L 527.941867 129.432314 
" style="fill:none;stroke:#ffffff;stroke-linecap:round;stroke-width:2;"/>
     </g>
     <g id="text_15">
      <!-- 15000 -->
      <g style="fill:#262626;" transform="translate(29.782 136.118939)scale(0.176 -0.176)">
       <use xlink:href="#DejaVuSans-31"/>
       <use x="63.623047" xlink:href="#DejaVuSans-35"/>
       <use x="127.246094" xlink:href="#DejaVuSans-30"/>
       <use x="190.869141" xlink:href="#DejaVuSans-30"/>
       <use x="254.492188" xlink:href="#DejaVuSans-30"/>
      </g>
     </g>
    </g>
    <g id="text_16">
     <!-- Survey Coverage -->
     <defs>
      <path d="M 53.515625 70.515625 
L 53.515625 60.890625 
Q 47.90625 63.578125 42.921875 64.890625 
Q 37.9375 66.21875 33.296875 66.21875 
Q 25.25 66.21875 20.875 63.09375 
Q 16.5 59.96875 16.5 54.203125 
Q 16.5 49.359375 19.40625 46.890625 
Q 22.3125 44.4375 30.421875 42.921875 
L 36.375 41.703125 
Q 47.40625 39.59375 52.65625 34.296875 
Q 57.90625 29 57.90625 20.125 
Q 57.90625 9.515625 50.796875 4.046875 
Q 43.703125 -1.421875 29.984375 -1.421875 
Q 24.8125 -1.421875 18.96875 -0.25 
Q 13.140625 0.921875 6.890625 3.21875 
L 6.890625 13.375 
Q 12.890625 10.015625 18.65625 8.296875 
Q 24.421875 6.59375 29.984375 6.59375 
Q 38.421875 6.59375 43.015625 9.90625 
Q 47.609375 13.234375 47.609375 19.390625 
Q 47.609375 24.75 44.3125 27.78125 
Q 41.015625 30.8125 33.5 32.328125 
L 27.484375 33.5 
Q 16.453125 35.6875 11.515625 40.375 
Q 6.59375 45.0625 6.59375 53.421875 
Q 6.59375 63.09375 13.40625 68.65625 
Q 20.21875 74.21875 32.171875 74.21875 
Q 37.3125 74.21875 42.625 73.28125 
Q 47.953125 72.359375 53.515625 70.515625 
z
" id="DejaVuSans-53"/>
      <path d="M 2.984375 54.6875 
L 12.5 54.6875 
L 29.59375 8.796875 
L 46.6875 54.6875 
L 56.203125 54.6875 
L 35.6875 0 
L 23.484375 0 
z
" id="DejaVuSans-76"/>
      <path d="M 32.171875 -5.078125 
Q 28.375 -14.84375 24.75 -17.8125 
Q 21.140625 -20.796875 15.09375 -20.796875 
L 7.90625 -20.796875 
L 7.90625 -13.28125 
L 13.1875 -13.28125 
Q 16.890625 -13.28125 18.9375 -11.515625 
Q 21 -9.765625 23.484375 -3.21875 
L 25.09375 0.875 
L 2.984375 54.6875 
L 12.5 54.6875 
L 29.59375 11.921875 
L 46.6875 54.6875 
L 56.203125 54.6875 
z
" id="DejaVuSans-79"/>
      <path d="M 64.40625 67.28125 
L 64.40625 56.890625 
Q 59.421875 61.53125 53.78125 63.8125 
Q 48.140625 66.109375 41.796875 66.109375 
Q 29.296875 66.109375 22.65625 58.46875 
Q 16.015625 50.828125 16.015625 36.375 
Q 16.015625 21.96875 22.65625 14.328125 
Q 29.296875 6.6875 41.796875 6.6875 
Q 48.140625 6.6875 53.78125 8.984375 
Q 59.421875 11.28125 64.40625 15.921875 
L 64.40625 5.609375 
Q 59.234375 2.09375 53.4375 0.328125 
Q 47.65625 -1.421875 41.21875 -1.421875 
Q 24.65625 -1.421875 15.125 8.703125 
Q 5.609375 18.84375 5.609375 36.375 
Q 5.609375 53.953125 15.125 64.078125 
Q 24.65625 74.21875 41.21875 74.21875 
Q 47.75 74.21875 53.53125 72.484375 
Q 59.328125 70.75 64.40625 67.28125 
z
" id="DejaVuSans-43"/>
      <path d="M 34.28125 27.484375 
Q 23.390625 27.484375 19.1875 25 
Q 14.984375 22.515625 14.984375 16.5 
Q 14.984375 11.71875 18.140625 8.90625 
Q 21.296875 6.109375 26.703125 6.109375 
Q 34.1875 6.109375 38.703125 11.40625 
Q 43.21875 16.703125 43.21875 25.484375 
L 43.21875 27.484375 
z
M 52.203125 31.203125 
L 52.203125 0 
L 43.21875 0 
L 43.21875 8.296875 
Q 40.140625 3.328125 35.546875 0.953125 
Q 30.953125 -1.421875 24.3125 -1.421875 
Q 15.921875 -1.421875 10.953125 3.296875 
Q 6 8.015625 6 15.921875 
Q 6 25.140625 12.171875 29.828125 
Q 18.359375 34.515625 30.609375 34.515625 
L 43.21875 34.515625 
L 43.21875 35.40625 
Q 43.21875 41.609375 39.140625 45 
Q 35.0625 48.390625 27.6875 48.390625 
Q 23 48.390625 18.546875 47.265625 
Q 14.109375 46.140625 10.015625 43.890625 
L 10.015625 52.203125 
Q 14.9375 54.109375 19.578125 55.046875 
Q 24.21875 56 28.609375 56 
Q 40.484375 56 46.34375 49.84375 
Q 52.203125 43.703125 52.203125 31.203125 
z
" id="DejaVuSans-61"/>
      <path d="M 45.40625 27.984375 
Q 45.40625 37.75 41.375 43.109375 
Q 37.359375 48.484375 30.078125 48.484375 
Q 22.859375 48.484375 18.828125 43.109375 
Q 14.796875 37.75 14.796875 27.984375 
Q 14.796875 18.265625 18.828125 12.890625 
Q 22.859375 7.515625 30.078125 7.515625 
Q 37.359375 7.515625 41.375 12.890625 
Q 45.40625 18.265625 45.40625 27.984375 
z
M 54.390625 6.78125 
Q 54.390625 -7.171875 48.1875 -13.984375 
Q 42 -20.796875 29.203125 -20.796875 
Q 24.46875 -20.796875 20.265625 -20.09375 
Q 16.0625 -19.390625 12.109375 -17.921875 
L 12.109375 -9.1875 
Q 16.0625 -11.328125 19.921875 -12.34375 
Q 23.78125 -13.375 27.78125 -13.375 
Q 36.625 -13.375 41.015625 -8.765625 
Q 45.40625 -4.15625 45.40625 5.171875 
L 45.40625 9.625 
Q 42.625 4.78125 38.28125 2.390625 
Q 33.9375 0 27.875 0 
Q 17.828125 0 11.671875 7.65625 
Q 5.515625 15.328125 5.515625 27.984375 
Q 5.515625 40.671875 11.671875 48.328125 
Q 17.828125 56 27.875 56 
Q 33.9375 56 38.28125 53.609375 
Q 42.625 51.21875 45.40625 46.390625 
L 45.40625 54.6875 
L 54.390625 54.6875 
z
" id="DejaVuSans-67"/>
     </defs>
     <g style="fill:#262626;" transform="translate(21.789 386.2471)rotate(-90)scale(0.192 -0.192)">
      <use xlink:href="#DejaVuSans-53"/>
      <use x="63.476562" xlink:href="#DejaVuSans-75"/>
      <use x="126.855469" xlink:href="#DejaVuSans-72"/>
      <use x="167.96875" xlink:href="#DejaVuSans-76"/>
      <use x="227.148438" xlink:href="#DejaVuSans-65"/>
      <use x="288.671875" xlink:href="#DejaVuSans-79"/>
      <use x="347.851562" xlink:href="#DejaVuSans-20"/>
      <use x="379.638672" xlink:href="#DejaVuSans-43"/>
      <use x="449.462891" xlink:href="#DejaVuSans-6f"/>
      <use x="510.644531" xlink:href="#DejaVuSans-76"/>
      <use x="569.824219" xlink:href="#DejaVuSans-65"/>
      <use x="631.347656" xlink:href="#DejaVuSans-72"/>
      <use x="672.460938" xlink:href="#DejaVuSans-61"/>
      <use x="733.740234" xlink:href="#DejaVuSans-67"/>
      <use x="797.216797" xlink:href="#DejaVuSans-65"/>
     </g>
    </g>
   </g>
   <g id="PathCollection_1">
    <defs>
     <path d="M 0 6 
C 1.591219 6 3.117479 5.367802 4.242641 4.242641 
C 5.367802 3.117479 6 1.591219 6 0 
C 6 -1.591219 5.367802 -3.117479 4.242641 -4.242641 
C 3.117479 -5.367802 1.591219 -6 0 -6 
C -1.591219 -6 -3.117479 -5.367802 -4.242641 -4.242641 
C -5.367802 -3.117479 -6 -1.591219 -6 0 
C -6 1.591219 -5.367802 3.117479 -4.242641 4.242641 
C -3.117479 5.367802 -1.591219 6 0 6 
z
" id="ma6db6a7c94" style="stroke:#2ecc71;stroke-width:2;"/>
    </defs>
    <g clip-path="url(#pa28667e022)">
     <use style="fill:#2ecc71;stroke:#2ecc71;stroke-width:2;" x="127.311603" xlink:href="#ma6db6a7c94" y="346.482606"/>
     <use style="fill:#2ecc71;stroke:#2ecc71;stroke-width:2;" x="120.749892" xlink:href="#ma6db6a7c94" y="447.527384"/>
     <use style="fill:#2ecc71;stroke:#2ecc71;stroke-width:2;" x="136.654696" xlink:href="#ma6db6a7c94" y="479.371088"/>
     <use style="fill:#2ecc71;stroke:#2ecc71;stroke-width:2;" x="121.693088" xlink:href="#ma6db6a7c94" y="398.565587"/>
     <use style="fill:#2ecc71;stroke:#2ecc71;stroke-width:2;" x="152.093755" xlink:href="#ma6db6a7c94" y="254.630204"/>
     <use style="fill:#2ecc71;stroke:#2ecc71;stroke-width:2;" x="144.071659" xlink:href="#ma6db6a7c94" y="429.172637"/>
     <use style="fill:#2ecc71;stroke:#2ecc71;stroke-width:2;" x="144.091861" xlink:href="#ma6db6a7c94" y="498.47019"/>
     <use style="fill:#2ecc71;stroke:#2ecc71;stroke-width:2;" x="147.843102" xlink:href="#ma6db6a7c94" y="400.367058"/>
     <use style="fill:#2ecc71;stroke:#2ecc71;stroke-width:2;" x="155.854383" xlink:href="#ma6db6a7c94" y="492.167049"/>
     <use style="fill:#2ecc71;stroke:#2ecc71;stroke-width:2;" x="147.180762" xlink:href="#ma6db6a7c94" y="496.908038"/>
     <use style="fill:#2ecc71;stroke:#2ecc71;stroke-width:2;" x="149.005048" xlink:href="#ma6db6a7c94" y="484.047839"/>
     <use style="fill:#2ecc71;stroke:#2ecc71;stroke-width:2;" x="136.771174" xlink:href="#ma6db6a7c94" y="458.168054"/>
     <use style="fill:#2ecc71;stroke:#2ecc71;stroke-width:2;" x="155.534442" xlink:href="#ma6db6a7c94" y="495.472997"/>
     <use style="fill:#2ecc71;stroke:#2ecc71;stroke-width:2;" x="139.361471" xlink:href="#ma6db6a7c94" y="351.348527"/>
    </g>
   </g>
   <g id="PathCollection_2">
    <defs>
     <path d="M -0 8.485281 
L 8.485281 0 
L 0 -8.485281 
L -8.485281 -0 
z
" id="m7ba69540db" style="stroke:#34495e;stroke-width:2;"/>
    </defs>
    <g clip-path="url(#pa28667e022)">
     <use style="fill:#34495e;stroke:#34495e;stroke-width:2;" x="238.343347" xlink:href="#m7ba69540db" y="424.290901"/>
     <use style="fill:#34495e;stroke:#34495e;stroke-width:2;" x="324.907464" xlink:href="#m7ba69540db" y="477.510122"/>
     <use style="fill:#34495e;stroke:#34495e;stroke-width:2;" x="156.733944" xlink:href="#m7ba69540db" y="486.38001"/>
     <use style="fill:#34495e;stroke:#34495e;stroke-width:2;" x="182.19205" xlink:href="#m7ba69540db" y="476.036909"/>
     <use style="fill:#34495e;stroke:#34495e;stroke-width:2;" x="193.508284" xlink:href="#m7ba69540db" y="466.644371"/>
     <use style="fill:#34495e;stroke:#34495e;stroke-width:2;" x="268.677441" xlink:href="#m7ba69540db" y="499.620361"/>
     <use style="fill:#34495e;stroke:#34495e;stroke-width:2;" x="161.311128" xlink:href="#m7ba69540db" y="478.365165"/>
     <use style="fill:#34495e;stroke:#34495e;stroke-width:2;" x="202.060148" xlink:href="#m7ba69540db" y="450.575944"/>
     <use style="fill:#34495e;stroke:#34495e;stroke-width:2;" x="226.53898" xlink:href="#m7ba69540db" y="486.316955"/>
     <use style="fill:#34495e;stroke:#34495e;stroke-width:2;" x="324.475022" xlink:href="#m7ba69540db" y="485.392547"/>
     <use style="fill:#34495e;stroke:#34495e;stroke-width:2;" x="156.079299" xlink:href="#m7ba69540db" y="483.361734"/>
     <use style="fill:#34495e;stroke:#34495e;stroke-width:2;" x="268.624443" xlink:href="#m7ba69540db" y="489.216995"/>
     <use style="fill:#34495e;stroke:#34495e;stroke-width:2;" x="184.884762" xlink:href="#m7ba69540db" y="467.887126"/>
     <use style="fill:#34495e;stroke:#34495e;stroke-width:2;" x="308.145952" xlink:href="#m7ba69540db" y="449.101352"/>
     <use style="fill:#34495e;stroke:#34495e;stroke-width:2;" x="162.81414" xlink:href="#m7ba69540db" y="494.739228"/>
     <use style="fill:#34495e;stroke:#34495e;stroke-width:2;" x="303.283023" xlink:href="#m7ba69540db" y="445.573932"/>
     <use style="fill:#34495e;stroke:#34495e;stroke-width:2;" x="264.177217" xlink:href="#m7ba69540db" y="354.766275"/>
     <use style="fill:#34495e;stroke:#34495e;stroke-width:2;" x="169.66436" xlink:href="#m7ba69540db" y="479.270681"/>
     <use style="fill:#34495e;stroke:#34495e;stroke-width:2;" x="269.857383" xlink:href="#m7ba69540db" y="433.703182"/>
     <use style="fill:#34495e;stroke:#34495e;stroke-width:2;" x="263.590279" xlink:href="#m7ba69540db" y="494.577252"/>
     <use style="fill:#34495e;stroke:#34495e;stroke-width:2;" x="251.139103" xlink:href="#m7ba69540db" y="492.038585"/>
     <use style="fill:#34495e;stroke:#34495e;stroke-width:2;" x="169.121775" xlink:href="#m7ba69540db" y="488.532828"/>
     <use style="fill:#34495e;stroke:#34495e;stroke-width:2;" x="215.619906" xlink:href="#m7ba69540db" y="479.115329"/>
     <use style="fill:#34495e;stroke:#34495e;stroke-width:2;" x="301.011178" xlink:href="#m7ba69540db" y="459.131106"/>
     <use style="fill:#34495e;stroke:#34495e;stroke-width:2;" x="195.454194" xlink:href="#m7ba69540db" y="485.099024"/>
     <use style="fill:#34495e;stroke:#34495e;stroke-width:2;" x="300.143318" xlink:href="#m7ba69540db" y="496.495515"/>
    </g>
   </g>
   <g id="PathCollection_3">
    <defs>
     <path d="M -6 6 
L 6 6 
L 6 -6 
L -6 -6 
z
" id="m4bd1b1e915" style="stroke:#e74c3c;stroke-width:2;"/>
    </defs>
    <g clip-path="url(#pa28667e022)">
     <use style="fill:#e74c3c;stroke:#e74c3c;stroke-width:2;" x="362.512853" xlink:href="#m4bd1b1e915" y="479.747938"/>
     <use style="fill:#e74c3c;stroke:#e74c3c;stroke-width:2;" x="448.606961" xlink:href="#m4bd1b1e915" y="495.953779"/>
     <use style="fill:#e74c3c;stroke:#e74c3c;stroke-width:2;" x="398.518133" xlink:href="#m4bd1b1e915" y="306.051284"/>
     <use style="fill:#e74c3c;stroke:#e74c3c;stroke-width:2;" x="427.078166" xlink:href="#m4bd1b1e915" y="225.242392"/>
     <use style="fill:#e74c3c;stroke:#e74c3c;stroke-width:2;" x="438.708791" xlink:href="#m4bd1b1e915" y="353.104559"/>
     <use style="fill:#e74c3c;stroke:#e74c3c;stroke-width:2;" x="505.712791" xlink:href="#m4bd1b1e915" y="95.340933"/>
     <use style="fill:#e74c3c;stroke:#e74c3c;stroke-width:2;" x="339.763622" xlink:href="#m4bd1b1e915" y="315.673863"/>
     <use style="fill:#e74c3c;stroke:#e74c3c;stroke-width:2;" x="401.356722" xlink:href="#m4bd1b1e915" y="445.184547"/>
     <use style="fill:#e74c3c;stroke:#e74c3c;stroke-width:2;" x="381.372107" xlink:href="#m4bd1b1e915" y="476.875511"/>
     <use style="fill:#e74c3c;stroke:#e74c3c;stroke-width:2;" x="384.331282" xlink:href="#m4bd1b1e915" y="488.501246"/>
     <use style="fill:#e74c3c;stroke:#e74c3c;stroke-width:2;" x="376.235596" xlink:href="#m4bd1b1e915" y="479.46186"/>
     <use style="fill:#e74c3c;stroke:#e74c3c;stroke-width:2;" x="420.639838" xlink:href="#m4bd1b1e915" y="404.074"/>
     <use style="fill:#e74c3c;stroke:#e74c3c;stroke-width:2;" x="331.211147" xlink:href="#m4bd1b1e915" y="495.472441"/>
    </g>
   </g>
   <g id="PolyCollection_1">
    <defs>
     <path d="M 101.272 -160.126376 
L 101.272 -83.498591 
L 105.581797 -85.66916 
L 109.891593 -88.117184 
L 114.20139 -90.29054 
L 118.511187 -92.495199 
L 122.820983 -94.768292 
L 127.13078 -97.24728 
L 131.440576 -98.882926 
L 135.750373 -100.869474 
L 140.06017 -102.957636 
L 144.369966 -104.940646 
L 148.679763 -106.997401 
L 152.98956 -109.007385 
L 157.299356 -110.931272 
L 161.609153 -113.211432 
L 165.91895 -115.198837 
L 170.228746 -116.895042 
L 174.538543 -118.872801 
L 178.848339 -120.392841 
L 183.158136 -121.911774 
L 187.467933 -123.841962 
L 191.777729 -125.31673 
L 196.087526 -126.45819 
L 200.397323 -128.303228 
L 204.707119 -129.500142 
L 209.016916 -131.007996 
L 213.326713 -132.399672 
L 217.636509 -133.40966 
L 221.946306 -134.346381 
L 226.256102 -135.438757 
L 230.565899 -136.37605 
L 234.875696 -137.010809 
L 239.185492 -137.496792 
L 243.495289 -137.674698 
L 247.805086 -138.410295 
L 252.114882 -138.866234 
L 256.424679 -139.349774 
L 260.734476 -140.043667 
L 265.044272 -140.355055 
L 269.354069 -140.514641 
L 273.663865 -140.634697 
L 277.973662 -140.729162 
L 282.283459 -140.668933 
L 286.593255 -140.161629 
L 290.903052 -139.963209 
L 295.212849 -140.181203 
L 299.522645 -140.20838 
L 303.832442 -140.083793 
L 308.142239 -139.973248 
L 312.452035 -140.001733 
L 316.761832 -139.909313 
L 321.071628 -139.661932 
L 325.381425 -139.607548 
L 329.691222 -139.541594 
L 334.001018 -139.272138 
L 338.310815 -139.148758 
L 342.620612 -139.025379 
L 346.930408 -138.902838 
L 351.240205 -138.782778 
L 355.550002 -138.644288 
L 359.859798 -138.423483 
L 364.169595 -138.118817 
L 368.479391 -138.1316 
L 372.789188 -137.958263 
L 377.098985 -137.79385 
L 381.408781 -137.553479 
L 385.718578 -137.137845 
L 390.028375 -137.112518 
L 394.338171 -137.131589 
L 398.647968 -136.966391 
L 402.957765 -136.791246 
L 407.267561 -136.615348 
L 411.577358 -136.439449 
L 415.887154 -136.263551 
L 420.196951 -136.087653 
L 424.506748 -135.911755 
L 428.816544 -135.735856 
L 433.126341 -135.559958 
L 437.436138 -135.38406 
L 441.745934 -135.208162 
L 446.055731 -135.032263 
L 450.365528 -134.856365 
L 454.675324 -134.680467 
L 458.985121 -134.504569 
L 463.294917 -134.331843 
L 467.604714 -134.163049 
L 471.914511 -133.994254 
L 476.224307 -133.82546 
L 480.534104 -133.656666 
L 484.843901 -133.487871 
L 489.153697 -133.319105 
L 493.463494 -133.1506 
L 497.773291 -132.982095 
L 502.083087 -132.81359 
L 506.392884 -132.645085 
L 510.70268 -132.476581 
L 515.012477 -132.308076 
L 519.322274 -132.139571 
L 523.63207 -131.971066 
L 527.941867 -131.802561 
L 527.941867 -324.294824 
L 527.941867 -324.294824 
L 523.63207 -322.003692 
L 519.322274 -319.711769 
L 515.012477 -317.419846 
L 510.70268 -315.127923 
L 506.392884 -312.836 
L 502.083087 -310.541517 
L 497.773291 -308.243824 
L 493.463494 -305.946131 
L 489.153697 -303.648437 
L 484.843901 -301.350744 
L 480.534104 -299.004825 
L 476.224307 -296.440851 
L 471.914511 -293.876876 
L 467.604714 -291.312901 
L 463.294917 -288.985274 
L 458.985121 -286.663853 
L 454.675324 -284.342432 
L 450.365528 -282.02101 
L 446.055731 -279.608421 
L 441.745934 -277.070315 
L 437.436138 -274.532209 
L 433.126341 -271.992467 
L 428.816544 -269.450738 
L 424.506748 -266.909008 
L 420.196951 -264.367279 
L 415.887154 -261.82555 
L 411.577358 -259.569184 
L 407.267561 -257.383299 
L 402.957765 -255.197414 
L 398.647968 -253.004311 
L 394.338171 -250.550698 
L 390.028375 -248.097085 
L 385.718578 -245.686055 
L 381.408781 -243.47231 
L 377.098985 -241.245842 
L 372.789188 -238.72728 
L 368.479391 -236.063515 
L 364.169595 -234.378805 
L 359.859798 -232.223465 
L 355.550002 -229.425863 
L 351.240205 -227.174852 
L 346.930408 -225.000264 
L 342.620612 -223.014338 
L 338.310815 -221.079106 
L 334.001018 -219.050708 
L 329.691222 -217.021229 
L 325.381425 -214.991654 
L 321.071628 -212.633505 
L 316.761832 -210.604242 
L 312.452035 -208.645425 
L 308.142239 -206.611477 
L 303.832442 -204.315872 
L 299.522645 -201.973552 
L 295.212849 -199.637096 
L 290.903052 -197.301384 
L 286.593255 -195.056824 
L 282.283459 -193.12176 
L 277.973662 -190.97242 
L 273.663865 -188.771233 
L 269.354069 -186.914444 
L 265.044272 -184.529463 
L 260.734476 -182.929162 
L 256.424679 -181.114498 
L 252.114882 -179.479473 
L 247.805086 -178.196706 
L 243.495289 -176.438695 
L 239.185492 -174.711071 
L 234.875696 -173.109896 
L 230.565899 -171.408056 
L 226.256102 -169.904529 
L 221.946306 -168.746971 
L 217.636509 -167.930779 
L 213.326713 -166.520694 
L 209.016916 -166.219585 
L 204.707119 -164.955167 
L 200.397323 -163.613791 
L 196.087526 -163.045791 
L 191.777729 -162.311893 
L 187.467933 -162.127764 
L 183.158136 -161.718838 
L 178.848339 -161.157006 
L 174.538543 -160.848533 
L 170.228746 -160.24612 
L 165.91895 -159.751891 
L 161.609153 -159.938007 
L 157.299356 -159.812431 
L 152.98956 -159.72078 
L 148.679763 -159.311741 
L 144.369966 -159.955657 
L 140.06017 -159.815461 
L 135.750373 -160.001455 
L 131.440576 -159.657103 
L 127.13078 -159.866164 
L 122.820983 -160.081476 
L 118.511187 -160.024303 
L 114.20139 -159.826642 
L 109.891593 -159.716806 
L 105.581797 -159.861554 
L 101.272 -160.126376 
z
" id="m45b595d849" style="stroke:#ffffff;stroke-opacity:0.15;stroke-width:2;"/>
    </defs>
    <g clip-path="url(#pa28667e022)">
     <use style="fill:#4c72b0;fill-opacity:0.15;stroke:#ffffff;stroke-opacity:0.15;stroke-width:2;" x="0" xlink:href="#m45b595d849" y="599.1321"/>
    </g>
   </g>
   <g id="line2d_15">
    <path clip-path="url(#pa28667e022)" d="M 101.272 478.147378 
L 105.581797 477.041313 
L 109.891593 475.935248 
L 114.20139 474.829183 
L 118.511187 473.723118 
L 122.820983 472.617053 
L 127.13078 471.510988 
L 131.440576 470.404922 
L 135.750373 469.298857 
L 140.06017 468.192792 
L 144.369966 467.086727 
L 148.679763 465.980662 
L 152.98956 464.874597 
L 157.299356 463.768532 
L 161.609153 462.662467 
L 165.91895 461.556402 
L 170.228746 460.450337 
L 174.538543 459.344272 
L 178.848339 458.238207 
L 183.158136 457.132142 
L 187.467933 456.026077 
L 191.777729 454.920012 
L 196.087526 453.813947 
L 200.397323 452.707882 
L 204.707119 451.601817 
L 209.016916 450.495752 
L 213.326713 449.389687 
L 217.636509 448.283621 
L 221.946306 447.177556 
L 226.256102 446.071491 
L 230.565899 444.965426 
L 234.875696 443.859361 
L 239.185492 442.753296 
L 243.495289 441.647231 
L 247.805086 440.541166 
L 252.114882 439.435101 
L 256.424679 438.329036 
L 260.734476 437.222971 
L 265.044272 436.116906 
L 269.354069 435.010841 
L 273.663865 433.904776 
L 277.973662 432.798711 
L 282.283459 431.692646 
L 286.593255 430.586581 
L 290.903052 429.480516 
L 295.212849 428.374451 
L 299.522645 427.268386 
L 303.832442 426.162321 
L 308.142239 425.056255 
L 312.452035 423.95019 
L 316.761832 422.844125 
L 321.071628 421.73806 
L 325.381425 420.631995 
L 329.691222 419.52593 
L 334.001018 418.419865 
L 338.310815 417.3138 
L 342.620612 416.207735 
L 346.930408 415.10167 
L 351.240205 413.995605 
L 355.550002 412.88954 
L 359.859798 411.783475 
L 364.169595 410.67741 
L 368.479391 409.571345 
L 372.789188 408.46528 
L 377.098985 407.359215 
L 381.408781 406.25315 
L 385.718578 405.147085 
L 390.028375 404.04102 
L 394.338171 402.934955 
L 398.647968 401.828889 
L 402.957765 400.722824 
L 407.267561 399.616759 
L 411.577358 398.510694 
L 415.887154 397.404629 
L 420.196951 396.298564 
L 424.506748 395.192499 
L 428.816544 394.086434 
L 433.126341 392.980369 
L 437.436138 391.874304 
L 441.745934 390.768239 
L 446.055731 389.662174 
L 450.365528 388.556109 
L 454.675324 387.450044 
L 458.985121 386.343979 
L 463.294917 385.237914 
L 467.604714 384.131849 
L 471.914511 383.025784 
L 476.224307 381.919719 
L 480.534104 380.813654 
L 484.843901 379.707589 
L 489.153697 378.601523 
L 493.463494 377.495458 
L 497.773291 376.389393 
L 502.083087 375.283328 
L 506.392884 374.177263 
L 510.70268 373.071198 
L 515.012477 371.965133 
L 519.322274 370.859068 
L 523.63207 369.753003 
L 527.941867 368.646938 
" style="fill:none;stroke:#4c72b0;stroke-linecap:round;stroke-width:4.5;"/>
   </g>
   <g id="patch_3">
    <path d="M 101.272 536.8166 
L 101.272 70.7886 
" style="fill:none;stroke:#ffffff;stroke-linecap:square;stroke-linejoin:miter;stroke-width:2.5;"/>
   </g>
   <g id="patch_4">
    <path d="M 101.272 536.8166 
L 527.941867 536.8166 
" style="fill:none;stroke:#ffffff;stroke-linecap:square;stroke-linejoin:miter;stroke-width:2.5;"/>
   </g>
   <g id="text_17">
    <!-- Residual Analysis for Entire Year -->
    <defs>
     <path d="M 44.390625 34.1875 
Q 47.5625 33.109375 50.5625 29.59375 
Q 53.5625 26.078125 56.59375 19.921875 
L 66.609375 0 
L 56 0 
L 46.6875 18.703125 
Q 43.0625 26.03125 39.671875 28.421875 
Q 36.28125 30.8125 30.421875 30.8125 
L 19.671875 30.8125 
L 19.671875 0 
L 9.8125 0 
L 9.8125 72.90625 
L 32.078125 72.90625 
Q 44.578125 72.90625 50.734375 67.671875 
Q 56.890625 62.453125 56.890625 51.90625 
Q 56.890625 45.015625 53.6875 40.46875 
Q 50.484375 35.9375 44.390625 34.1875 
z
M 19.671875 64.796875 
L 19.671875 38.921875 
L 32.078125 38.921875 
Q 39.203125 38.921875 42.84375 42.21875 
Q 46.484375 45.515625 46.484375 51.90625 
Q 46.484375 58.296875 42.84375 61.546875 
Q 39.203125 64.796875 32.078125 64.796875 
z
" id="DejaVuSans-52"/>
     <path d="M 9.421875 54.6875 
L 18.40625 54.6875 
L 18.40625 0 
L 9.421875 0 
z
M 9.421875 75.984375 
L 18.40625 75.984375 
L 18.40625 64.59375 
L 9.421875 64.59375 
z
" id="DejaVuSans-69"/>
     <path d="M 45.40625 46.390625 
L 45.40625 75.984375 
L 54.390625 75.984375 
L 54.390625 0 
L 45.40625 0 
L 45.40625 8.203125 
Q 42.578125 3.328125 38.25 0.953125 
Q 33.9375 -1.421875 27.875 -1.421875 
Q 17.96875 -1.421875 11.734375 6.484375 
Q 5.515625 14.40625 5.515625 27.296875 
Q 5.515625 40.1875 11.734375 48.09375 
Q 17.96875 56 27.875 56 
Q 33.9375 56 38.25 53.625 
Q 42.578125 51.265625 45.40625 46.390625 
z
M 14.796875 27.296875 
Q 14.796875 17.390625 18.875 11.75 
Q 22.953125 6.109375 30.078125 6.109375 
Q 37.203125 6.109375 41.296875 11.75 
Q 45.40625 17.390625 45.40625 27.296875 
Q 45.40625 37.203125 41.296875 42.84375 
Q 37.203125 48.484375 30.078125 48.484375 
Q 22.953125 48.484375 18.875 42.84375 
Q 14.796875 37.203125 14.796875 27.296875 
z
" id="DejaVuSans-64"/>
     <path d="M 54.890625 33.015625 
L 54.890625 0 
L 45.90625 0 
L 45.90625 32.71875 
Q 45.90625 40.484375 42.875 44.328125 
Q 39.84375 48.1875 33.796875 48.1875 
Q 26.515625 48.1875 22.3125 43.546875 
Q 18.109375 38.921875 18.109375 30.90625 
L 18.109375 0 
L 9.078125 0 
L 9.078125 54.6875 
L 18.109375 54.6875 
L 18.109375 46.1875 
Q 21.34375 51.125 25.703125 53.5625 
Q 30.078125 56 35.796875 56 
Q 45.21875 56 50.046875 50.171875 
Q 54.890625 44.34375 54.890625 33.015625 
z
" id="DejaVuSans-6e"/>
     <path d="M 37.109375 75.984375 
L 37.109375 68.5 
L 28.515625 68.5 
Q 23.6875 68.5 21.796875 66.546875 
Q 19.921875 64.59375 19.921875 59.515625 
L 19.921875 54.6875 
L 34.71875 54.6875 
L 34.71875 47.703125 
L 19.921875 47.703125 
L 19.921875 0 
L 10.890625 0 
L 10.890625 47.703125 
L 2.296875 47.703125 
L 2.296875 54.6875 
L 10.890625 54.6875 
L 10.890625 58.5 
Q 10.890625 67.625 15.140625 71.796875 
Q 19.390625 75.984375 28.609375 75.984375 
z
" id="DejaVuSans-66"/>
     <path d="M -0.203125 72.90625 
L 10.40625 72.90625 
L 30.609375 42.921875 
L 50.6875 72.90625 
L 61.28125 72.90625 
L 35.5 34.71875 
L 35.5 0 
L 25.59375 0 
L 25.59375 34.71875 
z
" id="DejaVuSans-59"/>
    </defs>
    <g style="fill:#262626;" transform="translate(158.671434 21.789)scale(0.192 -0.192)">
     <use xlink:href="#DejaVuSans-52"/>
     <use x="69.419922" xlink:href="#DejaVuSans-65"/>
     <use x="130.943359" xlink:href="#DejaVuSans-73"/>
     <use x="183.042969" xlink:href="#DejaVuSans-69"/>
     <use x="210.826172" xlink:href="#DejaVuSans-64"/>
     <use x="274.302734" xlink:href="#DejaVuSans-75"/>
     <use x="337.681641" xlink:href="#DejaVuSans-61"/>
     <use x="398.960938" xlink:href="#DejaVuSans-6c"/>
     <use x="426.744141" xlink:href="#DejaVuSans-20"/>
     <use x="458.53125" xlink:href="#DejaVuSans-41"/>
     <use x="526.939453" xlink:href="#DejaVuSans-6e"/>
     <use x="590.318359" xlink:href="#DejaVuSans-61"/>
     <use x="651.597656" xlink:href="#DejaVuSans-6c"/>
     <use x="679.380859" xlink:href="#DejaVuSans-79"/>
     <use x="738.560547" xlink:href="#DejaVuSans-73"/>
     <use x="790.660156" xlink:href="#DejaVuSans-69"/>
     <use x="818.443359" xlink:href="#DejaVuSans-73"/>
     <use x="870.542969" xlink:href="#DejaVuSans-20"/>
     <use x="902.330078" xlink:href="#DejaVuSans-66"/>
     <use x="937.535156" xlink:href="#DejaVuSans-6f"/>
     <use x="998.716797" xlink:href="#DejaVuSans-72"/>
     <use x="1039.830078" xlink:href="#DejaVuSans-20"/>
     <use x="1071.617188" xlink:href="#DejaVuSans-45"/>
     <use x="1134.800781" xlink:href="#DejaVuSans-6e"/>
     <use x="1198.179688" xlink:href="#DejaVuSans-74"/>
     <use x="1237.388672" xlink:href="#DejaVuSans-69"/>
     <use x="1265.171875" xlink:href="#DejaVuSans-72"/>
     <use x="1306.253906" xlink:href="#DejaVuSans-65"/>
     <use x="1367.777344" xlink:href="#DejaVuSans-20"/>
     <use x="1399.564453" xlink:href="#DejaVuSans-59"/>
     <use x="1460.445312" xlink:href="#DejaVuSans-65"/>
     <use x="1521.96875" xlink:href="#DejaVuSans-61"/>
     <use x="1583.248047" xlink:href="#DejaVuSans-72"/>
    </g>
    <!-- Pearson: 0.3362, p-value: 0.0138 -->
    <defs>
     <path d="M 19.671875 64.796875 
L 19.671875 37.40625 
L 32.078125 37.40625 
Q 38.96875 37.40625 42.71875 40.96875 
Q 46.484375 44.53125 46.484375 51.125 
Q 46.484375 57.671875 42.71875 61.234375 
Q 38.96875 64.796875 32.078125 64.796875 
z
M 9.8125 72.90625 
L 32.078125 72.90625 
Q 44.34375 72.90625 50.609375 67.359375 
Q 56.890625 61.8125 56.890625 51.125 
Q 56.890625 40.328125 50.609375 34.8125 
Q 44.34375 29.296875 32.078125 29.296875 
L 19.671875 29.296875 
L 19.671875 0 
L 9.8125 0 
z
" id="DejaVuSans-50"/>
     <path d="M 11.71875 12.40625 
L 22.015625 12.40625 
L 22.015625 0 
L 11.71875 0 
z
M 11.71875 51.703125 
L 22.015625 51.703125 
L 22.015625 39.3125 
L 11.71875 39.3125 
z
" id="DejaVuSans-3a"/>
     <path d="M 10.6875 12.40625 
L 21 12.40625 
L 21 0 
L 10.6875 0 
z
" id="DejaVuSans-2e"/>
     <path d="M 11.71875 12.40625 
L 22.015625 12.40625 
L 22.015625 4 
L 14.015625 -11.625 
L 7.71875 -11.625 
L 11.71875 4 
z
" id="DejaVuSans-2c"/>
     <path d="M 18.109375 8.203125 
L 18.109375 -20.796875 
L 9.078125 -20.796875 
L 9.078125 54.6875 
L 18.109375 54.6875 
L 18.109375 46.390625 
Q 20.953125 51.265625 25.265625 53.625 
Q 29.59375 56 35.59375 56 
Q 45.5625 56 51.78125 48.09375 
Q 58.015625 40.1875 58.015625 27.296875 
Q 58.015625 14.40625 51.78125 6.484375 
Q 45.5625 -1.421875 35.59375 -1.421875 
Q 29.59375 -1.421875 25.265625 0.953125 
Q 20.953125 3.328125 18.109375 8.203125 
z
M 48.6875 27.296875 
Q 48.6875 37.203125 44.609375 42.84375 
Q 40.53125 48.484375 33.40625 48.484375 
Q 26.265625 48.484375 22.1875 42.84375 
Q 18.109375 37.203125 18.109375 27.296875 
Q 18.109375 17.390625 22.1875 11.75 
Q 26.265625 6.109375 33.40625 6.109375 
Q 40.53125 6.109375 44.609375 11.75 
Q 48.6875 17.390625 48.6875 27.296875 
z
" id="DejaVuSans-70"/>
     <path d="M 4.890625 31.390625 
L 31.203125 31.390625 
L 31.203125 23.390625 
L 4.890625 23.390625 
z
" id="DejaVuSans-2d"/>
     <path d="M 31.78125 34.625 
Q 24.75 34.625 20.71875 30.859375 
Q 16.703125 27.09375 16.703125 20.515625 
Q 16.703125 13.921875 20.71875 10.15625 
Q 24.75 6.390625 31.78125 6.390625 
Q 38.8125 6.390625 42.859375 10.171875 
Q 46.921875 13.96875 46.921875 20.515625 
Q 46.921875 27.09375 42.890625 30.859375 
Q 38.875 34.625 31.78125 34.625 
z
M 21.921875 38.8125 
Q 15.578125 40.375 12.03125 44.71875 
Q 8.5 49.078125 8.5 55.328125 
Q 8.5 64.0625 14.71875 69.140625 
Q 20.953125 74.21875 31.78125 74.21875 
Q 42.671875 74.21875 48.875 69.140625 
Q 55.078125 64.0625 55.078125 55.328125 
Q 55.078125 49.078125 51.53125 44.71875 
Q 48 40.375 41.703125 38.8125 
Q 48.828125 37.15625 52.796875 32.3125 
Q 56.78125 27.484375 56.78125 20.515625 
Q 56.78125 9.90625 50.3125 4.234375 
Q 43.84375 -1.421875 31.78125 -1.421875 
Q 19.734375 -1.421875 13.25 4.234375 
Q 6.78125 9.90625 6.78125 20.515625 
Q 6.78125 27.484375 10.78125 32.3125 
Q 14.796875 37.15625 21.921875 38.8125 
z
M 18.3125 54.390625 
Q 18.3125 48.734375 21.84375 45.5625 
Q 25.390625 42.390625 31.78125 42.390625 
Q 38.140625 42.390625 41.71875 45.5625 
Q 45.3125 48.734375 45.3125 54.390625 
Q 45.3125 60.0625 41.71875 63.234375 
Q 38.140625 66.40625 31.78125 66.40625 
Q 25.390625 66.40625 21.84375 63.234375 
Q 18.3125 60.0625 18.3125 54.390625 
z
" id="DejaVuSans-38"/>
    </defs>
    <g style="fill:#262626;" transform="translate(154.495434 43.2888)scale(0.192 -0.192)">
     <use xlink:href="#DejaVuSans-50"/>
     <use x="60.255859" xlink:href="#DejaVuSans-65"/>
     <use x="121.779297" xlink:href="#DejaVuSans-61"/>
     <use x="183.058594" xlink:href="#DejaVuSans-72"/>
     <use x="224.171875" xlink:href="#DejaVuSans-73"/>
     <use x="276.271484" xlink:href="#DejaVuSans-6f"/>
     <use x="337.453125" xlink:href="#DejaVuSans-6e"/>
     <use x="400.832031" xlink:href="#DejaVuSans-3a"/>
     <use x="434.523438" xlink:href="#DejaVuSans-20"/>
     <use x="466.310547" xlink:href="#DejaVuSans-30"/>
     <use x="529.933594" xlink:href="#DejaVuSans-2e"/>
     <use x="561.720703" xlink:href="#DejaVuSans-33"/>
     <use x="625.34375" xlink:href="#DejaVuSans-33"/>
     <use x="688.966797" xlink:href="#DejaVuSans-36"/>
     <use x="752.589844" xlink:href="#DejaVuSans-32"/>
     <use x="816.212891" xlink:href="#DejaVuSans-2c"/>
     <use x="848" xlink:href="#DejaVuSans-20"/>
     <use x="879.787109" xlink:href="#DejaVuSans-70"/>
     <use x="943.263672" xlink:href="#DejaVuSans-2d"/>
     <use x="979.316406" xlink:href="#DejaVuSans-76"/>
     <use x="1038.496094" xlink:href="#DejaVuSans-61"/>
     <use x="1099.775391" xlink:href="#DejaVuSans-6c"/>
     <use x="1127.558594" xlink:href="#DejaVuSans-75"/>
     <use x="1190.9375" xlink:href="#DejaVuSans-65"/>
     <use x="1252.460938" xlink:href="#DejaVuSans-3a"/>
     <use x="1286.152344" xlink:href="#DejaVuSans-20"/>
     <use x="1317.939453" xlink:href="#DejaVuSans-30"/>
     <use x="1381.5625" xlink:href="#DejaVuSans-2e"/>
     <use x="1413.349609" xlink:href="#DejaVuSans-30"/>
     <use x="1476.972656" xlink:href="#DejaVuSans-31"/>
     <use x="1540.595703" xlink:href="#DejaVuSans-33"/>
     <use x="1604.21875" xlink:href="#DejaVuSans-38"/>
    </g>
    <!-- Spearman: 0.0917, p-value: 0.5138 -->
    <defs>
     <path d="M 52 44.1875 
Q 55.375 50.25 60.0625 53.125 
Q 64.75 56 71.09375 56 
Q 79.640625 56 84.28125 50.015625 
Q 88.921875 44.046875 88.921875 33.015625 
L 88.921875 0 
L 79.890625 0 
L 79.890625 32.71875 
Q 79.890625 40.578125 77.09375 44.375 
Q 74.3125 48.1875 68.609375 48.1875 
Q 61.625 48.1875 57.5625 43.546875 
Q 53.515625 38.921875 53.515625 30.90625 
L 53.515625 0 
L 44.484375 0 
L 44.484375 32.71875 
Q 44.484375 40.625 41.703125 44.40625 
Q 38.921875 48.1875 33.109375 48.1875 
Q 26.21875 48.1875 22.15625 43.53125 
Q 18.109375 38.875 18.109375 30.90625 
L 18.109375 0 
L 9.078125 0 
L 9.078125 54.6875 
L 18.109375 54.6875 
L 18.109375 46.1875 
Q 21.1875 51.21875 25.484375 53.609375 
Q 29.78125 56 35.6875 56 
Q 41.65625 56 45.828125 52.96875 
Q 50 49.953125 52 44.1875 
z
" id="DejaVuSans-6d"/>
     <path d="M 10.984375 1.515625 
L 10.984375 10.5 
Q 14.703125 8.734375 18.5 7.8125 
Q 22.3125 6.890625 25.984375 6.890625 
Q 35.75 6.890625 40.890625 13.453125 
Q 46.046875 20.015625 46.78125 33.40625 
Q 43.953125 29.203125 39.59375 26.953125 
Q 35.25 24.703125 29.984375 24.703125 
Q 19.046875 24.703125 12.671875 31.3125 
Q 6.296875 37.9375 6.296875 49.421875 
Q 6.296875 60.640625 12.9375 67.421875 
Q 19.578125 74.21875 30.609375 74.21875 
Q 43.265625 74.21875 49.921875 64.515625 
Q 56.59375 54.828125 56.59375 36.375 
Q 56.59375 19.140625 48.40625 8.859375 
Q 40.234375 -1.421875 26.421875 -1.421875 
Q 22.703125 -1.421875 18.890625 -0.6875 
Q 15.09375 0.046875 10.984375 1.515625 
z
M 30.609375 32.421875 
Q 37.25 32.421875 41.125 36.953125 
Q 45.015625 41.5 45.015625 49.421875 
Q 45.015625 57.28125 41.125 61.84375 
Q 37.25 66.40625 30.609375 66.40625 
Q 23.96875 66.40625 20.09375 61.84375 
Q 16.21875 57.28125 16.21875 49.421875 
Q 16.21875 41.5 20.09375 36.953125 
Q 23.96875 32.421875 30.609375 32.421875 
z
" id="DejaVuSans-39"/>
    </defs>
    <g style="fill:#262626;" transform="translate(143.732934 64.7886)scale(0.192 -0.192)">
     <use xlink:href="#DejaVuSans-53"/>
     <use x="63.476562" xlink:href="#DejaVuSans-70"/>
     <use x="126.953125" xlink:href="#DejaVuSans-65"/>
     <use x="188.476562" xlink:href="#DejaVuSans-61"/>
     <use x="249.755859" xlink:href="#DejaVuSans-72"/>
     <use x="290.853516" xlink:href="#DejaVuSans-6d"/>
     <use x="388.265625" xlink:href="#DejaVuSans-61"/>
     <use x="449.544922" xlink:href="#DejaVuSans-6e"/>
     <use x="512.923828" xlink:href="#DejaVuSans-3a"/>
     <use x="546.615234" xlink:href="#DejaVuSans-20"/>
     <use x="578.402344" xlink:href="#DejaVuSans-30"/>
     <use x="642.025391" xlink:href="#DejaVuSans-2e"/>
     <use x="673.8125" xlink:href="#DejaVuSans-30"/>
     <use x="737.435547" xlink:href="#DejaVuSans-39"/>
     <use x="801.058594" xlink:href="#DejaVuSans-31"/>
     <use x="864.681641" xlink:href="#DejaVuSans-37"/>
     <use x="928.304688" xlink:href="#DejaVuSans-2c"/>
     <use x="960.091797" xlink:href="#DejaVuSans-20"/>
     <use x="991.878906" xlink:href="#DejaVuSans-70"/>
     <use x="1055.355469" xlink:href="#DejaVuSans-2d"/>
     <use x="1091.408203" xlink:href="#DejaVuSans-76"/>
     <use x="1150.587891" xlink:href="#DejaVuSans-61"/>
     <use x="1211.867188" xlink:href="#DejaVuSans-6c"/>
     <use x="1239.650391" xlink:href="#DejaVuSans-75"/>
     <use x="1303.029297" xlink:href="#DejaVuSans-65"/>
     <use x="1364.552734" xlink:href="#DejaVuSans-3a"/>
     <use x="1398.244141" xlink:href="#DejaVuSans-20"/>
     <use x="1430.03125" xlink:href="#DejaVuSans-30"/>
     <use x="1493.654297" xlink:href="#DejaVuSans-2e"/>
     <use x="1525.441406" xlink:href="#DejaVuSans-35"/>
     <use x="1589.064453" xlink:href="#DejaVuSans-31"/>
     <use x="1652.6875" xlink:href="#DejaVuSans-33"/>
     <use x="1716.310547" xlink:href="#DejaVuSans-38"/>
    </g>
   </g>
  </g>
  <g id="legend_1">
   <g id="text_18">
    <!-- category -->
    <defs>
     <path d="M 48.78125 52.59375 
L 48.78125 44.1875 
Q 44.96875 46.296875 41.140625 47.34375 
Q 37.3125 48.390625 33.40625 48.390625 
Q 24.65625 48.390625 19.8125 42.84375 
Q 14.984375 37.3125 14.984375 27.296875 
Q 14.984375 17.28125 19.8125 11.734375 
Q 24.65625 6.203125 33.40625 6.203125 
Q 37.3125 6.203125 41.140625 7.25 
Q 44.96875 8.296875 48.78125 10.40625 
L 48.78125 2.09375 
Q 45.015625 0.34375 40.984375 -0.53125 
Q 36.96875 -1.421875 32.421875 -1.421875 
Q 20.0625 -1.421875 12.78125 6.34375 
Q 5.515625 14.109375 5.515625 27.296875 
Q 5.515625 40.671875 12.859375 48.328125 
Q 20.21875 56 33.015625 56 
Q 37.15625 56 41.109375 55.140625 
Q 45.0625 54.296875 48.78125 52.59375 
z
" id="DejaVuSans-63"/>
    </defs>
    <g style="fill:#262626;" transform="translate(557.374661 265.3191)scale(0.1632 -0.1632)">
     <use xlink:href="#DejaVuSans-63"/>
     <use x="54.980469" xlink:href="#DejaVuSans-61"/>
     <use x="116.259766" xlink:href="#DejaVuSans-74"/>
     <use x="155.46875" xlink:href="#DejaVuSans-65"/>
     <use x="216.992188" xlink:href="#DejaVuSans-67"/>
     <use x="280.46875" xlink:href="#DejaVuSans-6f"/>
     <use x="341.650391" xlink:href="#DejaVuSans-72"/>
     <use x="382.763672" xlink:href="#DejaVuSans-79"/>
    </g>
   </g>
   <g id="PathCollection_4">
    <g>
     <use style="fill:#2ecc71;stroke:#2ecc71;stroke-width:2;" x="549.751436" xlink:href="#ma6db6a7c94" y="286.2664"/>
    </g>
   </g>
   <g id="text_19">
    <!-- Good -->
    <defs>
     <path d="M 59.515625 10.40625 
L 59.515625 29.984375 
L 43.40625 29.984375 
L 43.40625 38.09375 
L 69.28125 38.09375 
L 69.28125 6.78125 
Q 63.578125 2.734375 56.6875 0.65625 
Q 49.8125 -1.421875 42 -1.421875 
Q 24.90625 -1.421875 15.25 8.5625 
Q 5.609375 18.5625 5.609375 36.375 
Q 5.609375 54.25 15.25 64.234375 
Q 24.90625 74.21875 42 74.21875 
Q 49.125 74.21875 55.546875 72.453125 
Q 61.96875 70.703125 67.390625 67.28125 
L 67.390625 56.78125 
Q 61.921875 61.421875 55.765625 63.765625 
Q 49.609375 66.109375 42.828125 66.109375 
Q 29.4375 66.109375 22.71875 58.640625 
Q 16.015625 51.171875 16.015625 36.375 
Q 16.015625 21.625 22.71875 14.15625 
Q 29.4375 6.6875 42.828125 6.6875 
Q 48.046875 6.6875 52.140625 7.59375 
Q 56.25 8.5 59.515625 10.40625 
z
" id="DejaVuSans-47"/>
    </defs>
    <g style="fill:#262626;" transform="translate(581.431436 290.8864)scale(0.176 -0.176)">
     <use xlink:href="#DejaVuSans-47"/>
     <use x="77.490234" xlink:href="#DejaVuSans-6f"/>
     <use x="138.671875" xlink:href="#DejaVuSans-6f"/>
     <use x="199.853516" xlink:href="#DejaVuSans-64"/>
    </g>
   </g>
   <g id="PathCollection_5">
    <g>
     <use style="fill:#34495e;stroke:#34495e;stroke-width:2;" x="549.751436" xlink:href="#m7ba69540db" y="312.0999"/>
    </g>
   </g>
   <g id="text_20">
    <!-- Average -->
    <g style="fill:#262626;" transform="translate(581.431436 316.7199)scale(0.176 -0.176)">
     <use xlink:href="#DejaVuSans-41"/>
     <use x="68.330078" xlink:href="#DejaVuSans-76"/>
     <use x="127.509766" xlink:href="#DejaVuSans-65"/>
     <use x="189.033203" xlink:href="#DejaVuSans-72"/>
     <use x="230.146484" xlink:href="#DejaVuSans-61"/>
     <use x="291.425781" xlink:href="#DejaVuSans-67"/>
     <use x="354.902344" xlink:href="#DejaVuSans-65"/>
    </g>
   </g>
   <g id="PathCollection_6">
    <g>
     <use style="fill:#e74c3c;stroke:#e74c3c;stroke-width:2;" x="549.751436" xlink:href="#m4bd1b1e915" y="337.9334"/>
    </g>
   </g>
   <g id="text_21">
    <!-- Bad -->
    <defs>
     <path d="M 19.671875 34.8125 
L 19.671875 8.109375 
L 35.5 8.109375 
Q 43.453125 8.109375 47.28125 11.40625 
Q 51.125 14.703125 51.125 21.484375 
Q 51.125 28.328125 47.28125 31.5625 
Q 43.453125 34.8125 35.5 34.8125 
z
M 19.671875 64.796875 
L 19.671875 42.828125 
L 34.28125 42.828125 
Q 41.5 42.828125 45.03125 45.53125 
Q 48.578125 48.25 48.578125 53.8125 
Q 48.578125 59.328125 45.03125 62.0625 
Q 41.5 64.796875 34.28125 64.796875 
z
M 9.8125 72.90625 
L 35.015625 72.90625 
Q 46.296875 72.90625 52.390625 68.21875 
Q 58.5 63.53125 58.5 54.890625 
Q 58.5 48.1875 55.375 44.234375 
Q 52.25 40.28125 46.1875 39.3125 
Q 53.46875 37.75 57.5 32.78125 
Q 61.53125 27.828125 61.53125 20.40625 
Q 61.53125 10.640625 54.890625 5.3125 
Q 48.25 0 35.984375 0 
L 9.8125 0 
z
" id="DejaVuSans-42"/>
    </defs>
    <g style="fill:#262626;" transform="translate(581.431436 342.5534)scale(0.176 -0.176)">
     <use xlink:href="#DejaVuSans-42"/>
     <use x="68.603516" xlink:href="#DejaVuSans-61"/>
     <use x="129.882812" xlink:href="#DejaVuSans-64"/>
    </g>
   </g>
  </g>
 </g>
 <defs>
  <clipPath id="pa28667e022">
   <rect height="466.028" width="426.669867" x="101.272" y="70.7886"/>
  </clipPath>
 </defs>
</svg>
