<?xml version="1.0" encoding="utf-8" standalone="no"?>
<!DOCTYPE svg PUBLIC "-//W3C//DTD SVG 1.1//EN"
  "http://www.w3.org/Graphics/SVG/1.1/DTD/svg11.dtd">
<!-- Created with matplotlib (http://matplotlib.org/) -->
<svg height="599pt" version="1.1" viewBox="0 0 678 599" width="678pt" xmlns="http://www.w3.org/2000/svg" xmlns:xlink="http://www.w3.org/1999/xlink">
 <defs>
  <style type="text/css">
*{stroke-linecap:butt;stroke-linejoin:round;}
  </style>
 </defs>
 <g id="figure_1">
  <g id="patch_1">
   <path d="M -0 599.1321 
L 678.137054 599.1321 
L 678.137054 0 
L -0 0 
z
" style="fill:#ffffff;"/>
  </g>
  <g id="axes_1">
   <g id="patch_2">
    <path d="M 67.678 536.8166 
L 535.511735 536.8166 
L 535.511735 70.7886 
L 67.678 70.7886 
z
" style="fill:#eaeaf2;"/>
   </g>
   <g id="matplotlib.axis_1">
    <g id="xtick_1">
     <g id="line2d_1">
      <path clip-path="url(#p20cfcf9eb6)" d="M 103.802464 536.8166 
L 103.802464 70.7886 
" style="fill:none;stroke:#ffffff;stroke-linecap:round;stroke-width:2;"/>
     </g>
     <g id="text_1">
      <!-- 0 -->
      <defs>
       <path d="M 31.78125 66.40625 
Q 24.171875 66.40625 20.328125 58.90625 
Q 16.5 51.421875 16.5 36.375 
Q 16.5 21.390625 20.328125 13.890625 
Q 24.171875 6.390625 31.78125 6.390625 
Q 39.453125 6.390625 43.28125 13.890625 
Q 47.125 21.390625 47.125 36.375 
Q 47.125 51.421875 43.28125 58.90625 
Q 39.453125 66.40625 31.78125 66.40625 
z
M 31.78125 74.21875 
Q 44.046875 74.21875 50.515625 64.515625 
Q 56.984375 54.828125 56.984375 36.375 
Q 56.984375 17.96875 50.515625 8.265625 
Q 44.046875 -1.421875 31.78125 -1.421875 
Q 19.53125 -1.421875 13.0625 8.265625 
Q 6.59375 17.96875 6.59375 36.375 
Q 6.59375 54.828125 13.0625 64.515625 
Q 19.53125 74.21875 31.78125 74.21875 
z
" id="DejaVuSans-30"/>
      </defs>
      <g style="fill:#262626;" transform="translate(98.203464 565.68985)scale(0.176 -0.176)">
       <use xlink:href="#DejaVuSans-30"/>
      </g>
     </g>
    </g>
    <g id="xtick_2">
     <g id="line2d_2">
      <path clip-path="url(#p20cfcf9eb6)" d="M 170.228436 536.8166 
L 170.228436 70.7886 
" style="fill:none;stroke:#ffffff;stroke-linecap:round;stroke-width:2;"/>
     </g>
     <g id="text_2">
      <!-- 10 -->
      <defs>
       <path d="M 12.40625 8.296875 
L 28.515625 8.296875 
L 28.515625 63.921875 
L 10.984375 60.40625 
L 10.984375 69.390625 
L 28.421875 72.90625 
L 38.28125 72.90625 
L 38.28125 8.296875 
L 54.390625 8.296875 
L 54.390625 0 
L 12.40625 0 
z
" id="DejaVuSans-31"/>
      </defs>
      <g style="fill:#262626;" transform="translate(159.030436 565.68985)scale(0.176 -0.176)">
       <use xlink:href="#DejaVuSans-31"/>
       <use x="63.623047" xlink:href="#DejaVuSans-30"/>
      </g>
     </g>
    </g>
    <g id="xtick_3">
     <g id="line2d_3">
      <path clip-path="url(#p20cfcf9eb6)" d="M 236.654408 536.8166 
L 236.654408 70.7886 
" style="fill:none;stroke:#ffffff;stroke-linecap:round;stroke-width:2;"/>
     </g>
     <g id="text_3">
      <!-- 20 -->
      <defs>
       <path d="M 19.1875 8.296875 
L 53.609375 8.296875 
L 53.609375 0 
L 7.328125 0 
L 7.328125 8.296875 
Q 12.9375 14.109375 22.625 23.890625 
Q 32.328125 33.6875 34.8125 36.53125 
Q 39.546875 41.84375 41.421875 45.53125 
Q 43.3125 49.21875 43.3125 52.78125 
Q 43.3125 58.59375 39.234375 62.25 
Q 35.15625 65.921875 28.609375 65.921875 
Q 23.96875 65.921875 18.8125 64.3125 
Q 13.671875 62.703125 7.8125 59.421875 
L 7.8125 69.390625 
Q 13.765625 71.78125 18.9375 73 
Q 24.125 74.21875 28.421875 74.21875 
Q 39.75 74.21875 46.484375 68.546875 
Q 53.21875 62.890625 53.21875 53.421875 
Q 53.21875 48.921875 51.53125 44.890625 
Q 49.859375 40.875 45.40625 35.40625 
Q 44.1875 33.984375 37.640625 27.21875 
Q 31.109375 20.453125 19.1875 8.296875 
z
" id="DejaVuSans-32"/>
      </defs>
      <g style="fill:#262626;" transform="translate(225.456408 565.68985)scale(0.176 -0.176)">
       <use xlink:href="#DejaVuSans-32"/>
       <use x="63.623047" xlink:href="#DejaVuSans-30"/>
      </g>
     </g>
    </g>
    <g id="xtick_4">
     <g id="line2d_4">
      <path clip-path="url(#p20cfcf9eb6)" d="M 303.08038 536.8166 
L 303.08038 70.7886 
" style="fill:none;stroke:#ffffff;stroke-linecap:round;stroke-width:2;"/>
     </g>
     <g id="text_4">
      <!-- 30 -->
      <defs>
       <path d="M 40.578125 39.3125 
Q 47.65625 37.796875 51.625 33 
Q 55.609375 28.21875 55.609375 21.1875 
Q 55.609375 10.40625 48.1875 4.484375 
Q 40.765625 -1.421875 27.09375 -1.421875 
Q 22.515625 -1.421875 17.65625 -0.515625 
Q 12.796875 0.390625 7.625 2.203125 
L 7.625 11.71875 
Q 11.71875 9.328125 16.59375 8.109375 
Q 21.484375 6.890625 26.8125 6.890625 
Q 36.078125 6.890625 40.9375 10.546875 
Q 45.796875 14.203125 45.796875 21.1875 
Q 45.796875 27.640625 41.28125 31.265625 
Q 36.765625 34.90625 28.71875 34.90625 
L 20.21875 34.90625 
L 20.21875 43.015625 
L 29.109375 43.015625 
Q 36.375 43.015625 40.234375 45.921875 
Q 44.09375 48.828125 44.09375 54.296875 
Q 44.09375 59.90625 40.109375 62.90625 
Q 36.140625 65.921875 28.71875 65.921875 
Q 24.65625 65.921875 20.015625 65.03125 
Q 15.375 64.15625 9.8125 62.3125 
L 9.8125 71.09375 
Q 15.4375 72.65625 20.34375 73.4375 
Q 25.25 74.21875 29.59375 74.21875 
Q 40.828125 74.21875 47.359375 69.109375 
Q 53.90625 64.015625 53.90625 55.328125 
Q 53.90625 49.265625 50.4375 45.09375 
Q 46.96875 40.921875 40.578125 39.3125 
z
" id="DejaVuSans-33"/>
      </defs>
      <g style="fill:#262626;" transform="translate(291.88238 565.68985)scale(0.176 -0.176)">
       <use xlink:href="#DejaVuSans-33"/>
       <use x="63.623047" xlink:href="#DejaVuSans-30"/>
      </g>
     </g>
    </g>
    <g id="xtick_5">
     <g id="line2d_5">
      <path clip-path="url(#p20cfcf9eb6)" d="M 369.506352 536.8166 
L 369.506352 70.7886 
" style="fill:none;stroke:#ffffff;stroke-linecap:round;stroke-width:2;"/>
     </g>
     <g id="text_5">
      <!-- 40 -->
      <defs>
       <path d="M 37.796875 64.3125 
L 12.890625 25.390625 
L 37.796875 25.390625 
z
M 35.203125 72.90625 
L 47.609375 72.90625 
L 47.609375 25.390625 
L 58.015625 25.390625 
L 58.015625 17.1875 
L 47.609375 17.1875 
L 47.609375 0 
L 37.796875 0 
L 37.796875 17.1875 
L 4.890625 17.1875 
L 4.890625 26.703125 
z
" id="DejaVuSans-34"/>
      </defs>
      <g style="fill:#262626;" transform="translate(358.308352 565.68985)scale(0.176 -0.176)">
       <use xlink:href="#DejaVuSans-34"/>
       <use x="63.623047" xlink:href="#DejaVuSans-30"/>
      </g>
     </g>
    </g>
    <g id="xtick_6">
     <g id="line2d_6">
      <path clip-path="url(#p20cfcf9eb6)" d="M 435.932324 536.8166 
L 435.932324 70.7886 
" style="fill:none;stroke:#ffffff;stroke-linecap:round;stroke-width:2;"/>
     </g>
     <g id="text_6">
      <!-- 50 -->
      <defs>
       <path d="M 10.796875 72.90625 
L 49.515625 72.90625 
L 49.515625 64.59375 
L 19.828125 64.59375 
L 19.828125 46.734375 
Q 21.96875 47.46875 24.109375 47.828125 
Q 26.265625 48.1875 28.421875 48.1875 
Q 40.625 48.1875 47.75 41.5 
Q 54.890625 34.8125 54.890625 23.390625 
Q 54.890625 11.625 47.5625 5.09375 
Q 40.234375 -1.421875 26.90625 -1.421875 
Q 22.3125 -1.421875 17.546875 -0.640625 
Q 12.796875 0.140625 7.71875 1.703125 
L 7.71875 11.625 
Q 12.109375 9.234375 16.796875 8.0625 
Q 21.484375 6.890625 26.703125 6.890625 
Q 35.15625 6.890625 40.078125 11.328125 
Q 45.015625 15.765625 45.015625 23.390625 
Q 45.015625 31 40.078125 35.4375 
Q 35.15625 39.890625 26.703125 39.890625 
Q 22.75 39.890625 18.8125 39.015625 
Q 14.890625 38.140625 10.796875 36.28125 
z
" id="DejaVuSans-35"/>
      </defs>
      <g style="fill:#262626;" transform="translate(424.734324 565.68985)scale(0.176 -0.176)">
       <use xlink:href="#DejaVuSans-35"/>
       <use x="63.623047" xlink:href="#DejaVuSans-30"/>
      </g>
     </g>
    </g>
    <g id="xtick_7">
     <g id="line2d_7">
      <path clip-path="url(#p20cfcf9eb6)" d="M 502.358296 536.8166 
L 502.358296 70.7886 
" style="fill:none;stroke:#ffffff;stroke-linecap:round;stroke-width:2;"/>
     </g>
     <g id="text_7">
      <!-- 60 -->
      <defs>
       <path d="M 33.015625 40.375 
Q 26.375 40.375 22.484375 35.828125 
Q 18.609375 31.296875 18.609375 23.390625 
Q 18.609375 15.53125 22.484375 10.953125 
Q 26.375 6.390625 33.015625 6.390625 
Q 39.65625 6.390625 43.53125 10.953125 
Q 47.40625 15.53125 47.40625 23.390625 
Q 47.40625 31.296875 43.53125 35.828125 
Q 39.65625 40.375 33.015625 40.375 
z
M 52.59375 71.296875 
L 52.59375 62.3125 
Q 48.875 64.0625 45.09375 64.984375 
Q 41.3125 65.921875 37.59375 65.921875 
Q 27.828125 65.921875 22.671875 59.328125 
Q 17.53125 52.734375 16.796875 39.40625 
Q 19.671875 43.65625 24.015625 45.921875 
Q 28.375 48.1875 33.59375 48.1875 
Q 44.578125 48.1875 50.953125 41.515625 
Q 57.328125 34.859375 57.328125 23.390625 
Q 57.328125 12.15625 50.6875 5.359375 
Q 44.046875 -1.421875 33.015625 -1.421875 
Q 20.359375 -1.421875 13.671875 8.265625 
Q 6.984375 17.96875 6.984375 36.375 
Q 6.984375 53.65625 15.1875 63.9375 
Q 23.390625 74.21875 37.203125 74.21875 
Q 40.921875 74.21875 44.703125 73.484375 
Q 48.484375 72.75 52.59375 71.296875 
z
" id="DejaVuSans-36"/>
      </defs>
      <g style="fill:#262626;" transform="translate(491.160296 565.68985)scale(0.176 -0.176)">
       <use xlink:href="#DejaVuSans-36"/>
       <use x="63.623047" xlink:href="#DejaVuSans-30"/>
      </g>
     </g>
    </g>
    <g id="text_8">
     <!-- Symmetric Absolute Percentage Error -->
     <defs>
      <path d="M 53.515625 70.515625 
L 53.515625 60.890625 
Q 47.90625 63.578125 42.921875 64.890625 
Q 37.9375 66.21875 33.296875 66.21875 
Q 25.25 66.21875 20.875 63.09375 
Q 16.5 59.96875 16.5 54.203125 
Q 16.5 49.359375 19.40625 46.890625 
Q 22.3125 44.4375 30.421875 42.921875 
L 36.375 41.703125 
Q 47.40625 39.59375 52.65625 34.296875 
Q 57.90625 29 57.90625 20.125 
Q 57.90625 9.515625 50.796875 4.046875 
Q 43.703125 -1.421875 29.984375 -1.421875 
Q 24.8125 -1.421875 18.96875 -0.25 
Q 13.140625 0.921875 6.890625 3.21875 
L 6.890625 13.375 
Q 12.890625 10.015625 18.65625 8.296875 
Q 24.421875 6.59375 29.984375 6.59375 
Q 38.421875 6.59375 43.015625 9.90625 
Q 47.609375 13.234375 47.609375 19.390625 
Q 47.609375 24.75 44.3125 27.78125 
Q 41.015625 30.8125 33.5 32.328125 
L 27.484375 33.5 
Q 16.453125 35.6875 11.515625 40.375 
Q 6.59375 45.0625 6.59375 53.421875 
Q 6.59375 63.09375 13.40625 68.65625 
Q 20.21875 74.21875 32.171875 74.21875 
Q 37.3125 74.21875 42.625 73.28125 
Q 47.953125 72.359375 53.515625 70.515625 
z
" id="DejaVuSans-53"/>
      <path d="M 32.171875 -5.078125 
Q 28.375 -14.84375 24.75 -17.8125 
Q 21.140625 -20.796875 15.09375 -20.796875 
L 7.90625 -20.796875 
L 7.90625 -13.28125 
L 13.1875 -13.28125 
Q 16.890625 -13.28125 18.9375 -11.515625 
Q 21 -9.765625 23.484375 -3.21875 
L 25.09375 0.875 
L 2.984375 54.6875 
L 12.5 54.6875 
L 29.59375 11.921875 
L 46.6875 54.6875 
L 56.203125 54.6875 
z
" id="DejaVuSans-79"/>
      <path d="M 52 44.1875 
Q 55.375 50.25 60.0625 53.125 
Q 64.75 56 71.09375 56 
Q 79.640625 56 84.28125 50.015625 
Q 88.921875 44.046875 88.921875 33.015625 
L 88.921875 0 
L 79.890625 0 
L 79.890625 32.71875 
Q 79.890625 40.578125 77.09375 44.375 
Q 74.3125 48.1875 68.609375 48.1875 
Q 61.625 48.1875 57.5625 43.546875 
Q 53.515625 38.921875 53.515625 30.90625 
L 53.515625 0 
L 44.484375 0 
L 44.484375 32.71875 
Q 44.484375 40.625 41.703125 44.40625 
Q 38.921875 48.1875 33.109375 48.1875 
Q 26.21875 48.1875 22.15625 43.53125 
Q 18.109375 38.875 18.109375 30.90625 
L 18.109375 0 
L 9.078125 0 
L 9.078125 54.6875 
L 18.109375 54.6875 
L 18.109375 46.1875 
Q 21.1875 51.21875 25.484375 53.609375 
Q 29.78125 56 35.6875 56 
Q 41.65625 56 45.828125 52.96875 
Q 50 49.953125 52 44.1875 
z
" id="DejaVuSans-6d"/>
      <path d="M 56.203125 29.59375 
L 56.203125 25.203125 
L 14.890625 25.203125 
Q 15.484375 15.921875 20.484375 11.0625 
Q 25.484375 6.203125 34.421875 6.203125 
Q 39.59375 6.203125 44.453125 7.46875 
Q 49.3125 8.734375 54.109375 11.28125 
L 54.109375 2.78125 
Q 49.265625 0.734375 44.1875 -0.34375 
Q 39.109375 -1.421875 33.890625 -1.421875 
Q 20.796875 -1.421875 13.15625 6.1875 
Q 5.515625 13.8125 5.515625 26.8125 
Q 5.515625 40.234375 12.765625 48.109375 
Q 20.015625 56 32.328125 56 
Q 43.359375 56 49.78125 48.890625 
Q 56.203125 41.796875 56.203125 29.59375 
z
M 47.21875 32.234375 
Q 47.125 39.59375 43.09375 43.984375 
Q 39.0625 48.390625 32.421875 48.390625 
Q 24.90625 48.390625 20.390625 44.140625 
Q 15.875 39.890625 15.1875 32.171875 
z
" id="DejaVuSans-65"/>
      <path d="M 18.3125 70.21875 
L 18.3125 54.6875 
L 36.8125 54.6875 
L 36.8125 47.703125 
L 18.3125 47.703125 
L 18.3125 18.015625 
Q 18.3125 11.328125 20.140625 9.421875 
Q 21.96875 7.515625 27.59375 7.515625 
L 36.8125 7.515625 
L 36.8125 0 
L 27.59375 0 
Q 17.1875 0 13.234375 3.875 
Q 9.28125 7.765625 9.28125 18.015625 
L 9.28125 47.703125 
L 2.6875 47.703125 
L 2.6875 54.6875 
L 9.28125 54.6875 
L 9.28125 70.21875 
z
" id="DejaVuSans-74"/>
      <path d="M 41.109375 46.296875 
Q 39.59375 47.171875 37.8125 47.578125 
Q 36.03125 48 33.890625 48 
Q 26.265625 48 22.1875 43.046875 
Q 18.109375 38.09375 18.109375 28.8125 
L 18.109375 0 
L 9.078125 0 
L 9.078125 54.6875 
L 18.109375 54.6875 
L 18.109375 46.1875 
Q 20.953125 51.171875 25.484375 53.578125 
Q 30.03125 56 36.53125 56 
Q 37.453125 56 38.578125 55.875 
Q 39.703125 55.765625 41.0625 55.515625 
z
" id="DejaVuSans-72"/>
      <path d="M 9.421875 54.6875 
L 18.40625 54.6875 
L 18.40625 0 
L 9.421875 0 
z
M 9.421875 75.984375 
L 18.40625 75.984375 
L 18.40625 64.59375 
L 9.421875 64.59375 
z
" id="DejaVuSans-69"/>
      <path d="M 48.78125 52.59375 
L 48.78125 44.1875 
Q 44.96875 46.296875 41.140625 47.34375 
Q 37.3125 48.390625 33.40625 48.390625 
Q 24.65625 48.390625 19.8125 42.84375 
Q 14.984375 37.3125 14.984375 27.296875 
Q 14.984375 17.28125 19.8125 11.734375 
Q 24.65625 6.203125 33.40625 6.203125 
Q 37.3125 6.203125 41.140625 7.25 
Q 44.96875 8.296875 48.78125 10.40625 
L 48.78125 2.09375 
Q 45.015625 0.34375 40.984375 -0.53125 
Q 36.96875 -1.421875 32.421875 -1.421875 
Q 20.0625 -1.421875 12.78125 6.34375 
Q 5.515625 14.109375 5.515625 27.296875 
Q 5.515625 40.671875 12.859375 48.328125 
Q 20.21875 56 33.015625 56 
Q 37.15625 56 41.109375 55.140625 
Q 45.0625 54.296875 48.78125 52.59375 
z
" id="DejaVuSans-63"/>
      <path id="DejaVuSans-20"/>
      <path d="M 34.1875 63.1875 
L 20.796875 26.90625 
L 47.609375 26.90625 
z
M 28.609375 72.90625 
L 39.796875 72.90625 
L 67.578125 0 
L 57.328125 0 
L 50.6875 18.703125 
L 17.828125 18.703125 
L 11.1875 0 
L 0.78125 0 
z
" id="DejaVuSans-41"/>
      <path d="M 48.6875 27.296875 
Q 48.6875 37.203125 44.609375 42.84375 
Q 40.53125 48.484375 33.40625 48.484375 
Q 26.265625 48.484375 22.1875 42.84375 
Q 18.109375 37.203125 18.109375 27.296875 
Q 18.109375 17.390625 22.1875 11.75 
Q 26.265625 6.109375 33.40625 6.109375 
Q 40.53125 6.109375 44.609375 11.75 
Q 48.6875 17.390625 48.6875 27.296875 
z
M 18.109375 46.390625 
Q 20.953125 51.265625 25.265625 53.625 
Q 29.59375 56 35.59375 56 
Q 45.5625 56 51.78125 48.09375 
Q 58.015625 40.1875 58.015625 27.296875 
Q 58.015625 14.40625 51.78125 6.484375 
Q 45.5625 -1.421875 35.59375 -1.421875 
Q 29.59375 -1.421875 25.265625 0.953125 
Q 20.953125 3.328125 18.109375 8.203125 
L 18.109375 0 
L 9.078125 0 
L 9.078125 75.984375 
L 18.109375 75.984375 
z
" id="DejaVuSans-62"/>
      <path d="M 44.28125 53.078125 
L 44.28125 44.578125 
Q 40.484375 46.53125 36.375 47.5 
Q 32.28125 48.484375 27.875 48.484375 
Q 21.1875 48.484375 17.84375 46.4375 
Q 14.5 44.390625 14.5 40.28125 
Q 14.5 37.15625 16.890625 35.375 
Q 19.28125 33.59375 26.515625 31.984375 
L 29.59375 31.296875 
Q 39.15625 29.25 43.1875 25.515625 
Q 47.21875 21.78125 47.21875 15.09375 
Q 47.21875 7.46875 41.1875 3.015625 
Q 35.15625 -1.421875 24.609375 -1.421875 
Q 20.21875 -1.421875 15.453125 -0.5625 
Q 10.6875 0.296875 5.421875 2 
L 5.421875 11.28125 
Q 10.40625 8.6875 15.234375 7.390625 
Q 20.0625 6.109375 24.8125 6.109375 
Q 31.15625 6.109375 34.5625 8.28125 
Q 37.984375 10.453125 37.984375 14.40625 
Q 37.984375 18.0625 35.515625 20.015625 
Q 33.0625 21.96875 24.703125 23.78125 
L 21.578125 24.515625 
Q 13.234375 26.265625 9.515625 29.90625 
Q 5.8125 33.546875 5.8125 39.890625 
Q 5.8125 47.609375 11.28125 51.796875 
Q 16.75 56 26.8125 56 
Q 31.78125 56 36.171875 55.265625 
Q 40.578125 54.546875 44.28125 53.078125 
z
" id="DejaVuSans-73"/>
      <path d="M 30.609375 48.390625 
Q 23.390625 48.390625 19.1875 42.75 
Q 14.984375 37.109375 14.984375 27.296875 
Q 14.984375 17.484375 19.15625 11.84375 
Q 23.34375 6.203125 30.609375 6.203125 
Q 37.796875 6.203125 41.984375 11.859375 
Q 46.1875 17.53125 46.1875 27.296875 
Q 46.1875 37.015625 41.984375 42.703125 
Q 37.796875 48.390625 30.609375 48.390625 
z
M 30.609375 56 
Q 42.328125 56 49.015625 48.375 
Q 55.71875 40.765625 55.71875 27.296875 
Q 55.71875 13.875 49.015625 6.21875 
Q 42.328125 -1.421875 30.609375 -1.421875 
Q 18.84375 -1.421875 12.171875 6.21875 
Q 5.515625 13.875 5.515625 27.296875 
Q 5.515625 40.765625 12.171875 48.375 
Q 18.84375 56 30.609375 56 
z
" id="DejaVuSans-6f"/>
      <path d="M 9.421875 75.984375 
L 18.40625 75.984375 
L 18.40625 0 
L 9.421875 0 
z
" id="DejaVuSans-6c"/>
      <path d="M 8.5 21.578125 
L 8.5 54.6875 
L 17.484375 54.6875 
L 17.484375 21.921875 
Q 17.484375 14.15625 20.5 10.265625 
Q 23.53125 6.390625 29.59375 6.390625 
Q 36.859375 6.390625 41.078125 11.03125 
Q 45.3125 15.671875 45.3125 23.6875 
L 45.3125 54.6875 
L 54.296875 54.6875 
L 54.296875 0 
L 45.3125 0 
L 45.3125 8.40625 
Q 42.046875 3.421875 37.71875 1 
Q 33.40625 -1.421875 27.6875 -1.421875 
Q 18.265625 -1.421875 13.375 4.4375 
Q 8.5 10.296875 8.5 21.578125 
z
M 31.109375 56 
z
" id="DejaVuSans-75"/>
      <path d="M 19.671875 64.796875 
L 19.671875 37.40625 
L 32.078125 37.40625 
Q 38.96875 37.40625 42.71875 40.96875 
Q 46.484375 44.53125 46.484375 51.125 
Q 46.484375 57.671875 42.71875 61.234375 
Q 38.96875 64.796875 32.078125 64.796875 
z
M 9.8125 72.90625 
L 32.078125 72.90625 
Q 44.34375 72.90625 50.609375 67.359375 
Q 56.890625 61.8125 56.890625 51.125 
Q 56.890625 40.328125 50.609375 34.8125 
Q 44.34375 29.296875 32.078125 29.296875 
L 19.671875 29.296875 
L 19.671875 0 
L 9.8125 0 
z
" id="DejaVuSans-50"/>
      <path d="M 54.890625 33.015625 
L 54.890625 0 
L 45.90625 0 
L 45.90625 32.71875 
Q 45.90625 40.484375 42.875 44.328125 
Q 39.84375 48.1875 33.796875 48.1875 
Q 26.515625 48.1875 22.3125 43.546875 
Q 18.109375 38.921875 18.109375 30.90625 
L 18.109375 0 
L 9.078125 0 
L 9.078125 54.6875 
L 18.109375 54.6875 
L 18.109375 46.1875 
Q 21.34375 51.125 25.703125 53.5625 
Q 30.078125 56 35.796875 56 
Q 45.21875 56 50.046875 50.171875 
Q 54.890625 44.34375 54.890625 33.015625 
z
" id="DejaVuSans-6e"/>
      <path d="M 34.28125 27.484375 
Q 23.390625 27.484375 19.1875 25 
Q 14.984375 22.515625 14.984375 16.5 
Q 14.984375 11.71875 18.140625 8.90625 
Q 21.296875 6.109375 26.703125 6.109375 
Q 34.1875 6.109375 38.703125 11.40625 
Q 43.21875 16.703125 43.21875 25.484375 
L 43.21875 27.484375 
z
M 52.203125 31.203125 
L 52.203125 0 
L 43.21875 0 
L 43.21875 8.296875 
Q 40.140625 3.328125 35.546875 0.953125 
Q 30.953125 -1.421875 24.3125 -1.421875 
Q 15.921875 -1.421875 10.953125 3.296875 
Q 6 8.015625 6 15.921875 
Q 6 25.140625 12.171875 29.828125 
Q 18.359375 34.515625 30.609375 34.515625 
L 43.21875 34.515625 
L 43.21875 35.40625 
Q 43.21875 41.609375 39.140625 45 
Q 35.0625 48.390625 27.6875 48.390625 
Q 23 48.390625 18.546875 47.265625 
Q 14.109375 46.140625 10.015625 43.890625 
L 10.015625 52.203125 
Q 14.9375 54.109375 19.578125 55.046875 
Q 24.21875 56 28.609375 56 
Q 40.484375 56 46.34375 49.84375 
Q 52.203125 43.703125 52.203125 31.203125 
z
" id="DejaVuSans-61"/>
      <path d="M 45.40625 27.984375 
Q 45.40625 37.75 41.375 43.109375 
Q 37.359375 48.484375 30.078125 48.484375 
Q 22.859375 48.484375 18.828125 43.109375 
Q 14.796875 37.75 14.796875 27.984375 
Q 14.796875 18.265625 18.828125 12.890625 
Q 22.859375 7.515625 30.078125 7.515625 
Q 37.359375 7.515625 41.375 12.890625 
Q 45.40625 18.265625 45.40625 27.984375 
z
M 54.390625 6.78125 
Q 54.390625 -7.171875 48.1875 -13.984375 
Q 42 -20.796875 29.203125 -20.796875 
Q 24.46875 -20.796875 20.265625 -20.09375 
Q 16.0625 -19.390625 12.109375 -17.921875 
L 12.109375 -9.1875 
Q 16.0625 -11.328125 19.921875 -12.34375 
Q 23.78125 -13.375 27.78125 -13.375 
Q 36.625 -13.375 41.015625 -8.765625 
Q 45.40625 -4.15625 45.40625 5.171875 
L 45.40625 9.625 
Q 42.625 4.78125 38.28125 2.390625 
Q 33.9375 0 27.875 0 
Q 17.828125 0 11.671875 7.65625 
Q 5.515625 15.328125 5.515625 27.984375 
Q 5.515625 40.671875 11.671875 48.328125 
Q 17.828125 56 27.875 56 
Q 33.9375 56 38.28125 53.609375 
Q 42.625 51.21875 45.40625 46.390625 
L 45.40625 54.6875 
L 54.390625 54.6875 
z
" id="DejaVuSans-67"/>
      <path d="M 9.8125 72.90625 
L 55.90625 72.90625 
L 55.90625 64.59375 
L 19.671875 64.59375 
L 19.671875 43.015625 
L 54.390625 43.015625 
L 54.390625 34.71875 
L 19.671875 34.71875 
L 19.671875 8.296875 
L 56.78125 8.296875 
L 56.78125 0 
L 9.8125 0 
z
" id="DejaVuSans-45"/>
     </defs>
     <g style="fill:#262626;" transform="translate(120.115868 587.9391)scale(0.192 -0.192)">
      <use xlink:href="#DejaVuSans-53"/>
      <use x="63.476562" xlink:href="#DejaVuSans-79"/>
      <use x="122.65625" xlink:href="#DejaVuSans-6d"/>
      <use x="220.068359" xlink:href="#DejaVuSans-6d"/>
      <use x="317.480469" xlink:href="#DejaVuSans-65"/>
      <use x="379.003906" xlink:href="#DejaVuSans-74"/>
      <use x="418.212891" xlink:href="#DejaVuSans-72"/>
      <use x="459.326172" xlink:href="#DejaVuSans-69"/>
      <use x="487.109375" xlink:href="#DejaVuSans-63"/>
      <use x="542.089844" xlink:href="#DejaVuSans-20"/>
      <use x="573.876953" xlink:href="#DejaVuSans-41"/>
      <use x="642.285156" xlink:href="#DejaVuSans-62"/>
      <use x="705.761719" xlink:href="#DejaVuSans-73"/>
      <use x="757.861328" xlink:href="#DejaVuSans-6f"/>
      <use x="819.042969" xlink:href="#DejaVuSans-6c"/>
      <use x="846.826172" xlink:href="#DejaVuSans-75"/>
      <use x="910.205078" xlink:href="#DejaVuSans-74"/>
      <use x="949.414062" xlink:href="#DejaVuSans-65"/>
      <use x="1010.9375" xlink:href="#DejaVuSans-20"/>
      <use x="1042.724609" xlink:href="#DejaVuSans-50"/>
      <use x="1102.980469" xlink:href="#DejaVuSans-65"/>
      <use x="1164.503906" xlink:href="#DejaVuSans-72"/>
      <use x="1205.585938" xlink:href="#DejaVuSans-63"/>
      <use x="1260.566406" xlink:href="#DejaVuSans-65"/>
      <use x="1322.089844" xlink:href="#DejaVuSans-6e"/>
      <use x="1385.46875" xlink:href="#DejaVuSans-74"/>
      <use x="1424.677734" xlink:href="#DejaVuSans-61"/>
      <use x="1485.957031" xlink:href="#DejaVuSans-67"/>
      <use x="1549.433594" xlink:href="#DejaVuSans-65"/>
      <use x="1610.957031" xlink:href="#DejaVuSans-20"/>
      <use x="1642.744141" xlink:href="#DejaVuSans-45"/>
      <use x="1705.927734" xlink:href="#DejaVuSans-72"/>
      <use x="1747.025391" xlink:href="#DejaVuSans-72"/>
      <use x="1788.107422" xlink:href="#DejaVuSans-6f"/>
      <use x="1849.289062" xlink:href="#DejaVuSans-72"/>
     </g>
    </g>
   </g>
   <g id="matplotlib.axis_2">
    <g id="ytick_1">
     <g id="line2d_8">
      <path clip-path="url(#p20cfcf9eb6)" d="M 67.678 518.06069 
L 535.511735 518.06069 
" style="fill:none;stroke:#ffffff;stroke-linecap:round;stroke-width:2;"/>
     </g>
     <g id="text_9">
      <!-- 27 -->
      <defs>
       <path d="M 8.203125 72.90625 
L 55.078125 72.90625 
L 55.078125 68.703125 
L 28.609375 0 
L 18.3125 0 
L 43.21875 64.59375 
L 8.203125 64.59375 
z
" id="DejaVuSans-37"/>
      </defs>
      <g style="fill:#262626;" transform="translate(29.782 524.747315)scale(0.176 -0.176)">
       <use xlink:href="#DejaVuSans-32"/>
       <use x="63.623047" xlink:href="#DejaVuSans-37"/>
      </g>
     </g>
    </g>
    <g id="ytick_2">
     <g id="line2d_9">
      <path clip-path="url(#p20cfcf9eb6)" d="M 67.678 431.402107 
L 535.511735 431.402107 
" style="fill:none;stroke:#ffffff;stroke-linecap:round;stroke-width:2;"/>
     </g>
     <g id="text_10">
      <!-- 28 -->
      <defs>
       <path d="M 31.78125 34.625 
Q 24.75 34.625 20.71875 30.859375 
Q 16.703125 27.09375 16.703125 20.515625 
Q 16.703125 13.921875 20.71875 10.15625 
Q 24.75 6.390625 31.78125 6.390625 
Q 38.8125 6.390625 42.859375 10.171875 
Q 46.921875 13.96875 46.921875 20.515625 
Q 46.921875 27.09375 42.890625 30.859375 
Q 38.875 34.625 31.78125 34.625 
z
M 21.921875 38.8125 
Q 15.578125 40.375 12.03125 44.71875 
Q 8.5 49.078125 8.5 55.328125 
Q 8.5 64.0625 14.71875 69.140625 
Q 20.953125 74.21875 31.78125 74.21875 
Q 42.671875 74.21875 48.875 69.140625 
Q 55.078125 64.0625 55.078125 55.328125 
Q 55.078125 49.078125 51.53125 44.71875 
Q 48 40.375 41.703125 38.8125 
Q 48.828125 37.15625 52.796875 32.3125 
Q 56.78125 27.484375 56.78125 20.515625 
Q 56.78125 9.90625 50.3125 4.234375 
Q 43.84375 -1.421875 31.78125 -1.421875 
Q 19.734375 -1.421875 13.25 4.234375 
Q 6.78125 9.90625 6.78125 20.515625 
Q 6.78125 27.484375 10.78125 32.3125 
Q 14.796875 37.15625 21.921875 38.8125 
z
M 18.3125 54.390625 
Q 18.3125 48.734375 21.84375 45.5625 
Q 25.390625 42.390625 31.78125 42.390625 
Q 38.140625 42.390625 41.71875 45.5625 
Q 45.3125 48.734375 45.3125 54.390625 
Q 45.3125 60.0625 41.71875 63.234375 
Q 38.140625 66.40625 31.78125 66.40625 
Q 25.390625 66.40625 21.84375 63.234375 
Q 18.3125 60.0625 18.3125 54.390625 
z
" id="DejaVuSans-38"/>
      </defs>
      <g style="fill:#262626;" transform="translate(29.782 438.088732)scale(0.176 -0.176)">
       <use xlink:href="#DejaVuSans-32"/>
       <use x="63.623047" xlink:href="#DejaVuSans-38"/>
      </g>
     </g>
    </g>
    <g id="ytick_3">
     <g id="line2d_10">
      <path clip-path="url(#p20cfcf9eb6)" d="M 67.678 344.743525 
L 535.511735 344.743525 
" style="fill:none;stroke:#ffffff;stroke-linecap:round;stroke-width:2;"/>
     </g>
     <g id="text_11">
      <!-- 29 -->
      <defs>
       <path d="M 10.984375 1.515625 
L 10.984375 10.5 
Q 14.703125 8.734375 18.5 7.8125 
Q 22.3125 6.890625 25.984375 6.890625 
Q 35.75 6.890625 40.890625 13.453125 
Q 46.046875 20.015625 46.78125 33.40625 
Q 43.953125 29.203125 39.59375 26.953125 
Q 35.25 24.703125 29.984375 24.703125 
Q 19.046875 24.703125 12.671875 31.3125 
Q 6.296875 37.9375 6.296875 49.421875 
Q 6.296875 60.640625 12.9375 67.421875 
Q 19.578125 74.21875 30.609375 74.21875 
Q 43.265625 74.21875 49.921875 64.515625 
Q 56.59375 54.828125 56.59375 36.375 
Q 56.59375 19.140625 48.40625 8.859375 
Q 40.234375 -1.421875 26.421875 -1.421875 
Q 22.703125 -1.421875 18.890625 -0.6875 
Q 15.09375 0.046875 10.984375 1.515625 
z
M 30.609375 32.421875 
Q 37.25 32.421875 41.125 36.953125 
Q 45.015625 41.5 45.015625 49.421875 
Q 45.015625 57.28125 41.125 61.84375 
Q 37.25 66.40625 30.609375 66.40625 
Q 23.96875 66.40625 20.09375 61.84375 
Q 16.21875 57.28125 16.21875 49.421875 
Q 16.21875 41.5 20.09375 36.953125 
Q 23.96875 32.421875 30.609375 32.421875 
z
" id="DejaVuSans-39"/>
      </defs>
      <g style="fill:#262626;" transform="translate(29.782 351.43015)scale(0.176 -0.176)">
       <use xlink:href="#DejaVuSans-32"/>
       <use x="63.623047" xlink:href="#DejaVuSans-39"/>
      </g>
     </g>
    </g>
    <g id="ytick_4">
     <g id="line2d_11">
      <path clip-path="url(#p20cfcf9eb6)" d="M 67.678 258.084942 
L 535.511735 258.084942 
" style="fill:none;stroke:#ffffff;stroke-linecap:round;stroke-width:2;"/>
     </g>
     <g id="text_12">
      <!-- 30 -->
      <g style="fill:#262626;" transform="translate(29.782 264.771567)scale(0.176 -0.176)">
       <use xlink:href="#DejaVuSans-33"/>
       <use x="63.623047" xlink:href="#DejaVuSans-30"/>
      </g>
     </g>
    </g>
    <g id="ytick_5">
     <g id="line2d_12">
      <path clip-path="url(#p20cfcf9eb6)" d="M 67.678 171.42636 
L 535.511735 171.42636 
" style="fill:none;stroke:#ffffff;stroke-linecap:round;stroke-width:2;"/>
     </g>
     <g id="text_13">
      <!-- 31 -->
      <g style="fill:#262626;" transform="translate(29.782 178.112985)scale(0.176 -0.176)">
       <use xlink:href="#DejaVuSans-33"/>
       <use x="63.623047" xlink:href="#DejaVuSans-31"/>
      </g>
     </g>
    </g>
    <g id="ytick_6">
     <g id="line2d_13">
      <path clip-path="url(#p20cfcf9eb6)" d="M 67.678 84.767777 
L 535.511735 84.767777 
" style="fill:none;stroke:#ffffff;stroke-linecap:round;stroke-width:2;"/>
     </g>
     <g id="text_14">
      <!-- 32 -->
      <g style="fill:#262626;" transform="translate(29.782 91.454402)scale(0.176 -0.176)">
       <use xlink:href="#DejaVuSans-33"/>
       <use x="63.623047" xlink:href="#DejaVuSans-32"/>
      </g>
     </g>
    </g>
    <g id="text_15">
     <!-- temperature -->
     <defs>
      <path d="M 18.109375 8.203125 
L 18.109375 -20.796875 
L 9.078125 -20.796875 
L 9.078125 54.6875 
L 18.109375 54.6875 
L 18.109375 46.390625 
Q 20.953125 51.265625 25.265625 53.625 
Q 29.59375 56 35.59375 56 
Q 45.5625 56 51.78125 48.09375 
Q 58.015625 40.1875 58.015625 27.296875 
Q 58.015625 14.40625 51.78125 6.484375 
Q 45.5625 -1.421875 35.59375 -1.421875 
Q 29.59375 -1.421875 25.265625 0.953125 
Q 20.953125 3.328125 18.109375 8.203125 
z
M 48.6875 27.296875 
Q 48.6875 37.203125 44.609375 42.84375 
Q 40.53125 48.484375 33.40625 48.484375 
Q 26.265625 48.484375 22.1875 42.84375 
Q 18.109375 37.203125 18.109375 27.296875 
Q 18.109375 17.390625 22.1875 11.75 
Q 26.265625 6.109375 33.40625 6.109375 
Q 40.53125 6.109375 44.609375 11.75 
Q 48.6875 17.390625 48.6875 27.296875 
z
" id="DejaVuSans-70"/>
     </defs>
     <g style="fill:#262626;" transform="translate(21.789 364.3531)rotate(-90)scale(0.192 -0.192)">
      <use xlink:href="#DejaVuSans-74"/>
      <use x="39.208984" xlink:href="#DejaVuSans-65"/>
      <use x="100.732422" xlink:href="#DejaVuSans-6d"/>
      <use x="198.144531" xlink:href="#DejaVuSans-70"/>
      <use x="261.621094" xlink:href="#DejaVuSans-65"/>
      <use x="323.144531" xlink:href="#DejaVuSans-72"/>
      <use x="364.257812" xlink:href="#DejaVuSans-61"/>
      <use x="425.537109" xlink:href="#DejaVuSans-74"/>
      <use x="464.746094" xlink:href="#DejaVuSans-75"/>
      <use x="528.125" xlink:href="#DejaVuSans-72"/>
      <use x="569.207031" xlink:href="#DejaVuSans-65"/>
     </g>
    </g>
   </g>
   <g id="PathCollection_1">
    <defs>
     <path d="M 0 6 
C 1.591219 6 3.117479 5.367802 4.242641 4.242641 
C 5.367802 3.117479 6 1.591219 6 0 
C 6 -1.591219 5.367802 -3.117479 4.242641 -4.242641 
C 3.117479 -5.367802 1.591219 -6 0 -6 
C -1.591219 -6 -3.117479 -5.367802 -4.242641 -4.242641 
C -5.367802 -3.117479 -6 -1.591219 -6 0 
C -6 1.591219 -5.367802 3.117479 -4.242641 4.242641 
C -3.117479 5.367802 -1.591219 6 0 6 
z
" id="mc286678c27" style="stroke:#2ecc71;stroke-width:2;"/>
    </defs>
    <g clip-path="url(#p20cfcf9eb6)">
     <use style="fill:#2ecc71;stroke:#2ecc71;stroke-width:2;" x="114.899377" xlink:href="#mc286678c27" y="204.284406"/>
     <use style="fill:#2ecc71;stroke:#2ecc71;stroke-width:2;" x="108.358681" xlink:href="#mc286678c27" y="514.570274"/>
     <use style="fill:#2ecc71;stroke:#2ecc71;stroke-width:2;" x="124.212548" xlink:href="#mc286678c27" y="317.30164"/>
     <use style="fill:#2ecc71;stroke:#2ecc71;stroke-width:2;" x="109.298856" xlink:href="#mc286678c27" y="255.244467"/>
     <use style="fill:#2ecc71;stroke:#2ecc71;stroke-width:2;" x="139.602161" xlink:href="#mc286678c27" y="361.690092"/>
     <use style="fill:#2ecc71;stroke:#2ecc71;stroke-width:2;" x="131.605757" xlink:href="#mc286678c27" y="190.202386"/>
     <use style="fill:#2ecc71;stroke:#2ecc71;stroke-width:2;" x="131.625894" xlink:href="#mc286678c27" y="137.412866"/>
     <use style="fill:#2ecc71;stroke:#2ecc71;stroke-width:2;" x="135.365121" xlink:href="#mc286678c27" y="247.806272"/>
     <use style="fill:#2ecc71;stroke:#2ecc71;stroke-width:2;" x="143.350745" xlink:href="#mc286678c27" y="139.266397"/>
     <use style="fill:#2ecc71;stroke:#2ecc71;stroke-width:2;" x="134.704902" xlink:href="#mc286678c27" y="196.485133"/>
     <use style="fill:#2ecc71;stroke:#2ecc71;stroke-width:2;" x="136.523346" xlink:href="#mc286678c27" y="201.636505"/>
     <use style="fill:#2ecc71;stroke:#2ecc71;stroke-width:2;" x="124.328653" xlink:href="#mc286678c27" y="199.879261"/>
     <use style="fill:#2ecc71;stroke:#2ecc71;stroke-width:2;" x="143.031828" xlink:href="#mc286678c27" y="151.206024"/>
     <use style="fill:#2ecc71;stroke:#2ecc71;stroke-width:2;" x="126.910654" xlink:href="#mc286678c27" y="375.699896"/>
    </g>
   </g>
   <g id="PathCollection_2">
    <defs>
     <path d="M -0 8.485281 
L 8.485281 0 
L 0 -8.485281 
L -8.485281 -0 
z
" id="m153e4d97f6" style="stroke:#34495e;stroke-width:2;"/>
    </defs>
    <g clip-path="url(#p20cfcf9eb6)">
     <use style="fill:#34495e;stroke:#34495e;stroke-width:2;" x="225.575526" xlink:href="#m153e4d97f6" y="247.974774"/>
     <use style="fill:#34495e;stroke:#34495e;stroke-width:2;" x="311.862409" xlink:href="#m153e4d97f6" y="99.210874"/>
     <use style="fill:#34495e;stroke:#34495e;stroke-width:2;" x="144.227489" xlink:href="#m153e4d97f6" y="214.153855"/>
     <use style="fill:#34495e;stroke:#34495e;stroke-width:2;" x="169.604062" xlink:href="#m153e4d97f6" y="330.444859"/>
     <use style="fill:#34495e;stroke:#34495e;stroke-width:2;" x="180.884054" xlink:href="#m153e4d97f6" y="359.547699"/>
     <use style="fill:#34495e;stroke:#34495e;stroke-width:2;" x="255.812471" xlink:href="#m153e4d97f6" y="203.369676"/>
     <use style="fill:#34495e;stroke:#34495e;stroke-width:2;" x="148.790014" xlink:href="#m153e4d97f6" y="443.823171"/>
     <use style="fill:#34495e;stroke:#34495e;stroke-width:2;" x="189.408529" xlink:href="#m153e4d97f6" y="264.800982"/>
     <use style="fill:#34495e;stroke:#34495e;stroke-width:2;" x="213.808964" xlink:href="#m153e4d97f6" y="289.619038"/>
     <use style="fill:#34495e;stroke:#34495e;stroke-width:2;" x="311.431352" xlink:href="#m153e4d97f6" y="131.322694"/>
     <use style="fill:#34495e;stroke:#34495e;stroke-width:2;" x="143.57494" xlink:href="#m153e4d97f6" y="240.849513"/>
     <use style="fill:#34495e;stroke:#34495e;stroke-width:2;" x="255.759643" xlink:href="#m153e4d97f6" y="175.037134"/>
     <use style="fill:#34495e;stroke:#34495e;stroke-width:2;" x="172.288149" xlink:href="#m153e4d97f6" y="162.375352"/>
     <use style="fill:#34495e;stroke:#34495e;stroke-width:2;" x="295.154578" xlink:href="#m153e4d97f6" y="231.172638"/>
     <use style="fill:#34495e;stroke:#34495e;stroke-width:2;" x="150.288212" xlink:href="#m153e4d97f6" y="159.390446"/>
     <use style="fill:#34495e;stroke:#34495e;stroke-width:2;" x="290.307224" xlink:href="#m153e4d97f6" y="197.111001"/>
     <use style="fill:#34495e;stroke:#34495e;stroke-width:2;" x="251.32666" xlink:href="#m153e4d97f6" y="439.129164"/>
     <use style="fill:#34495e;stroke:#34495e;stroke-width:2;" x="157.116494" xlink:href="#m153e4d97f6" y="167.767442"/>
     <use style="fill:#34495e;stroke:#34495e;stroke-width:2;" x="256.988634" xlink:href="#m153e4d97f6" y="340.07359"/>
     <use style="fill:#34495e;stroke:#34495e;stroke-width:2;" x="250.741602" xlink:href="#m153e4d97f6" y="333.959346"/>
     <use style="fill:#34495e;stroke:#34495e;stroke-width:2;" x="238.330302" xlink:href="#m153e4d97f6" y="234.566766"/>
     <use style="fill:#34495e;stroke:#34495e;stroke-width:2;" x="156.575646" xlink:href="#m153e4d97f6" y="268.098823"/>
     <use style="fill:#34495e;stroke:#34495e;stroke-width:2;" x="202.92486" xlink:href="#m153e4d97f6" y="182.764191"/>
     <use style="fill:#34495e;stroke:#34495e;stroke-width:2;" x="288.042655" xlink:href="#m153e4d97f6" y="209.820926"/>
     <use style="fill:#34495e;stroke:#34495e;stroke-width:2;" x="182.823732" xlink:href="#m153e4d97f6" y="293.20574"/>
     <use style="fill:#34495e;stroke:#34495e;stroke-width:2;" x="287.177574" xlink:href="#m153e4d97f6" y="237.11838"/>
    </g>
   </g>
   <g id="PathCollection_3">
    <defs>
     <path d="M -6 6 
L 6 6 
L 6 -6 
L -6 -6 
z
" id="me94ce7b980" style="stroke:#e74c3c;stroke-width:2;"/>
    </defs>
    <g clip-path="url(#p20cfcf9eb6)">
     <use style="fill:#e74c3c;stroke:#e74c3c;stroke-width:2;" x="349.347361" xlink:href="#me94ce7b980" y="301.943814"/>
     <use style="fill:#e74c3c;stroke:#e74c3c;stroke-width:2;" x="435.165741" xlink:href="#me94ce7b980" y="208.665478"/>
     <use style="fill:#e74c3c;stroke:#e74c3c;stroke-width:2;" x="385.237329" xlink:href="#me94ce7b980" y="271.902172"/>
     <use style="fill:#e74c3c;stroke:#e74c3c;stroke-width:2;" x="413.705894" xlink:href="#me94ce7b980" y="288.752452"/>
     <use style="fill:#e74c3c;stroke:#e74c3c;stroke-width:2;" x="425.299271" xlink:href="#me94ce7b980" y="260.251407"/>
     <use style="fill:#e74c3c;stroke:#e74c3c;stroke-width:2;" x="492.088681" xlink:href="#me94ce7b980" y="279.12372"/>
     <use style="fill:#e74c3c;stroke:#e74c3c;stroke-width:2;" x="326.670989" xlink:href="#me94ce7b980" y="255.990693"/>
     <use style="fill:#e74c3c;stroke:#e74c3c;stroke-width:2;" x="388.066827" xlink:href="#me94ce7b980" y="185.243589"/>
     <use style="fill:#e74c3c;stroke:#e74c3c;stroke-width:2;" x="368.146216" xlink:href="#me94ce7b980" y="214.803795"/>
     <use style="fill:#e74c3c;stroke:#e74c3c;stroke-width:2;" x="371.095914" xlink:href="#me94ce7b980" y="181.993893"/>
     <use style="fill:#e74c3c;stroke:#e74c3c;stroke-width:2;" x="363.026155" xlink:href="#me94ce7b980" y="246.33789"/>
     <use style="fill:#e74c3c;stroke:#e74c3c;stroke-width:2;" x="407.288186" xlink:href="#me94ce7b980" y="482.988036"/>
     <use style="fill:#e74c3c;stroke:#e74c3c;stroke-width:2;" x="318.145904" xlink:href="#me94ce7b980" y="156.935119"/>
    </g>
   </g>
   <g id="PolyCollection_1">
    <defs>
     <path d="M 88.94317 -392.406613 
L 88.94317 -300.350266 
L 93.239164 -301.346462 
L 97.535158 -302.344712 
L 101.831151 -303.281598 
L 106.127145 -303.737253 
L 110.423139 -304.666384 
L 114.719133 -305.853421 
L 119.015127 -306.780554 
L 123.311121 -307.285931 
L 127.607115 -307.993448 
L 131.903109 -308.969687 
L 136.199103 -310.158122 
L 140.495096 -311.557108 
L 144.79109 -312.309063 
L 149.087084 -313.01659 
L 153.383078 -313.724158 
L 157.679072 -314.948618 
L 161.975066 -315.562259 
L 166.27106 -315.863166 
L 170.567054 -316.398282 
L 174.863048 -317.272649 
L 179.159042 -317.963231 
L 183.455035 -318.703078 
L 187.751029 -318.940671 
L 192.047023 -319.691599 
L 196.343017 -320.756695 
L 200.639011 -321.251517 
L 204.935005 -321.425122 
L 209.230999 -321.985581 
L 213.526993 -322.246708 
L 217.822987 -322.96039 
L 222.11898 -323.656908 
L 226.414974 -323.652373 
L 230.710968 -323.968698 
L 235.006962 -324.339015 
L 239.302956 -324.374974 
L 243.59895 -324.172654 
L 247.894944 -324.103958 
L 252.190938 -324.334515 
L 256.486932 -324.636362 
L 260.782926 -323.874478 
L 265.078919 -323.941339 
L 269.374913 -323.501948 
L 273.670907 -323.120568 
L 277.966901 -322.779901 
L 282.262895 -322.553559 
L 286.558889 -322.039924 
L 290.854883 -322.059849 
L 295.150877 -321.492519 
L 299.446871 -321.394989 
L 303.742864 -320.343508 
L 308.038858 -319.764955 
L 312.334852 -319.08536 
L 316.630846 -318.612964 
L 320.92684 -318.043441 
L 325.222834 -317.730672 
L 329.518828 -317.313484 
L 333.814822 -316.835791 
L 338.110816 -316.385009 
L 342.406809 -315.989834 
L 346.702803 -315.546427 
L 350.998797 -315.112174 
L 355.294791 -314.666055 
L 359.590785 -314.012648 
L 363.886779 -313.360959 
L 368.182773 -312.560161 
L 372.478767 -312.223494 
L 376.774761 -311.784899 
L 381.070755 -311.040509 
L 385.366748 -310.294241 
L 389.662742 -309.174154 
L 393.958736 -308.272287 
L 398.25473 -307.681491 
L 402.550724 -307.099363 
L 406.846718 -306.524296 
L 411.142712 -305.94923 
L 415.438706 -305.374163 
L 419.7347 -304.796136 
L 424.030693 -304.166547 
L 428.326687 -303.536958 
L 432.622681 -302.907369 
L 436.918675 -302.186886 
L 441.214669 -301.428766 
L 445.510663 -300.668592 
L 449.806657 -299.540939 
L 454.102651 -298.667852 
L 458.398645 -298.056482 
L 462.694639 -297.24166 
L 466.990632 -296.339476 
L 471.286626 -295.450069 
L 475.58262 -294.565494 
L 479.878614 -293.680918 
L 484.174608 -293.035759 
L 488.470602 -292.587394 
L 492.766596 -291.726987 
L 497.06259 -290.771573 
L 501.358584 -289.816159 
L 505.654577 -288.860744 
L 509.950571 -287.891833 
L 514.246565 -286.820058 
L 514.246565 -424.973217 
L 514.246565 -424.973217 
L 509.950571 -424.020007 
L 505.654577 -423.066796 
L 501.358584 -422.113585 
L 497.06259 -421.160375 
L 492.766596 -420.207164 
L 488.470602 -419.253953 
L 484.174608 -418.300743 
L 479.878614 -417.346432 
L 475.58262 -416.389087 
L 471.286626 -415.431741 
L 466.990632 -414.474396 
L 462.694639 -413.51705 
L 458.398645 -412.455693 
L 454.102651 -411.309292 
L 449.806657 -410.16289 
L 445.510663 -409.016488 
L 441.214669 -408.010234 
L 436.918675 -407.038212 
L 432.622681 -405.567574 
L 428.326687 -404.41351 
L 424.030693 -403.256854 
L 419.7347 -402.100197 
L 415.438706 -400.943541 
L 411.142712 -399.751765 
L 406.846718 -398.588396 
L 402.550724 -397.253077 
L 398.25473 -396.00538 
L 393.958736 -395.029199 
L 389.662742 -394.03149 
L 385.366748 -393.085068 
L 381.070755 -392.120634 
L 376.774761 -391.139782 
L 372.478767 -390.07365 
L 368.182773 -389.196196 
L 363.886779 -388.193815 
L 359.590785 -386.682009 
L 355.294791 -385.934887 
L 350.998797 -385.310452 
L 346.702803 -384.349682 
L 342.406809 -383.794442 
L 338.110816 -383.409849 
L 333.814822 -382.423314 
L 329.518828 -381.44673 
L 325.222834 -380.760074 
L 320.92684 -380.074149 
L 316.630846 -379.207967 
L 312.334852 -378.397193 
L 308.038858 -377.570209 
L 303.742864 -377.298622 
L 299.446871 -376.737511 
L 295.150877 -375.862587 
L 290.854883 -375.036303 
L 286.558889 -373.970233 
L 282.262895 -373.52399 
L 277.966901 -373.118387 
L 273.670907 -372.418041 
L 269.374913 -372.294553 
L 265.078919 -371.941494 
L 260.782926 -371.826263 
L 256.486932 -371.814518 
L 252.190938 -371.802773 
L 247.894944 -371.920012 
L 243.59895 -371.915582 
L 239.302956 -371.839998 
L 235.006962 -372.103107 
L 230.710968 -372.541086 
L 226.414974 -372.944576 
L 222.11898 -373.190992 
L 217.822987 -373.679674 
L 213.526993 -374.159717 
L 209.230999 -374.069831 
L 204.935005 -374.622548 
L 200.639011 -374.735906 
L 196.343017 -375.239232 
L 192.047023 -375.742559 
L 187.751029 -376.393778 
L 183.455035 -377.420446 
L 179.159042 -377.953681 
L 174.863048 -378.542772 
L 170.567054 -379.110639 
L 166.27106 -379.805795 
L 161.975066 -380.598509 
L 157.679072 -381.391223 
L 153.383078 -381.976852 
L 149.087084 -382.503615 
L 144.79109 -383.023107 
L 140.495096 -383.535679 
L 136.199103 -384.041775 
L 131.903109 -384.564954 
L 127.607115 -385.150298 
L 123.311121 -385.997068 
L 119.015127 -386.479889 
L 114.719133 -387.037027 
L 110.423139 -388.218032 
L 106.127145 -389.087825 
L 101.831151 -390.156978 
L 97.535158 -391.191626 
L 93.239164 -391.955583 
L 88.94317 -392.406613 
z
" id="mfaca5400b6" style="stroke:#ffffff;stroke-opacity:0.15;stroke-width:2;"/>
    </defs>
    <g clip-path="url(#p20cfcf9eb6)">
     <use style="fill:#4c72b0;fill-opacity:0.15;stroke:#ffffff;stroke-opacity:0.15;stroke-width:2;" x="0" xlink:href="#mfaca5400b6" y="599.1321"/>
    </g>
   </g>
   <g id="line2d_14">
    <path clip-path="url(#p20cfcf9eb6)" d="M 88.94317 253.863546 
L 93.239164 253.770435 
L 97.535158 253.677324 
L 101.831151 253.584213 
L 106.127145 253.491103 
L 110.423139 253.397992 
L 114.719133 253.304881 
L 119.015127 253.21177 
L 123.311121 253.118659 
L 127.607115 253.025548 
L 131.903109 252.932437 
L 136.199103 252.839326 
L 140.495096 252.746215 
L 144.79109 252.653104 
L 149.087084 252.559994 
L 153.383078 252.466883 
L 157.679072 252.373772 
L 161.975066 252.280661 
L 166.27106 252.18755 
L 170.567054 252.094439 
L 174.863048 252.001328 
L 179.159042 251.908217 
L 183.455035 251.815106 
L 187.751029 251.721995 
L 192.047023 251.628884 
L 196.343017 251.535774 
L 200.639011 251.442663 
L 204.935005 251.349552 
L 209.230999 251.256441 
L 213.526993 251.16333 
L 217.822987 251.070219 
L 222.11898 250.977108 
L 226.414974 250.883997 
L 230.710968 250.790886 
L 235.006962 250.697775 
L 239.302956 250.604665 
L 243.59895 250.511554 
L 247.894944 250.418443 
L 252.190938 250.325332 
L 256.486932 250.232221 
L 260.782926 250.13911 
L 265.078919 250.045999 
L 269.374913 249.952888 
L 273.670907 249.859777 
L 277.966901 249.766666 
L 282.262895 249.673555 
L 286.558889 249.580445 
L 290.854883 249.487334 
L 295.150877 249.394223 
L 299.446871 249.301112 
L 303.742864 249.208001 
L 308.038858 249.11489 
L 312.334852 249.021779 
L 316.630846 248.928668 
L 320.92684 248.835557 
L 325.222834 248.742446 
L 329.518828 248.649336 
L 333.814822 248.556225 
L 338.110816 248.463114 
L 342.406809 248.370003 
L 346.702803 248.276892 
L 350.998797 248.183781 
L 355.294791 248.09067 
L 359.590785 247.997559 
L 363.886779 247.904448 
L 368.182773 247.811337 
L 372.478767 247.718226 
L 376.774761 247.625116 
L 381.070755 247.532005 
L 385.366748 247.438894 
L 389.662742 247.345783 
L 393.958736 247.252672 
L 398.25473 247.159561 
L 402.550724 247.06645 
L 406.846718 246.973339 
L 411.142712 246.880228 
L 415.438706 246.787117 
L 419.7347 246.694007 
L 424.030693 246.600896 
L 428.326687 246.507785 
L 432.622681 246.414674 
L 436.918675 246.321563 
L 441.214669 246.228452 
L 445.510663 246.135341 
L 449.806657 246.04223 
L 454.102651 245.949119 
L 458.398645 245.856008 
L 462.694639 245.762898 
L 466.990632 245.669787 
L 471.286626 245.576676 
L 475.58262 245.483565 
L 479.878614 245.390454 
L 484.174608 245.297343 
L 488.470602 245.204232 
L 492.766596 245.111121 
L 497.06259 245.01801 
L 501.358584 244.924899 
L 505.654577 244.831788 
L 509.950571 244.738678 
L 514.246565 244.645567 
" style="fill:none;stroke:#4c72b0;stroke-linecap:round;stroke-width:4.5;"/>
   </g>
   <g id="line2d_15">
    <path clip-path="url(#p20cfcf9eb6)" d="M 103.802464 237.11838 
L 492.088681 237.11838 
" style="fill:none;stroke:#808080;stroke-dasharray:11.1,4.8;stroke-dashoffset:0;stroke-width:3;"/>
   </g>
   <g id="patch_3">
    <path d="M 67.678 536.8166 
L 67.678 70.7886 
" style="fill:none;stroke:#ffffff;stroke-linecap:square;stroke-linejoin:miter;stroke-width:2.5;"/>
   </g>
   <g id="patch_4">
    <path d="M 67.678 536.8166 
L 535.511735 536.8166 
" style="fill:none;stroke:#ffffff;stroke-linecap:square;stroke-linejoin:miter;stroke-width:2.5;"/>
   </g>
   <g id="text_16">
    <!-- Residual Analysis for Entire Year -->
    <defs>
     <path d="M 44.390625 34.1875 
Q 47.5625 33.109375 50.5625 29.59375 
Q 53.5625 26.078125 56.59375 19.921875 
L 66.609375 0 
L 56 0 
L 46.6875 18.703125 
Q 43.0625 26.03125 39.671875 28.421875 
Q 36.28125 30.8125 30.421875 30.8125 
L 19.671875 30.8125 
L 19.671875 0 
L 9.8125 0 
L 9.8125 72.90625 
L 32.078125 72.90625 
Q 44.578125 72.90625 50.734375 67.671875 
Q 56.890625 62.453125 56.890625 51.90625 
Q 56.890625 45.015625 53.6875 40.46875 
Q 50.484375 35.9375 44.390625 34.1875 
z
M 19.671875 64.796875 
L 19.671875 38.921875 
L 32.078125 38.921875 
Q 39.203125 38.921875 42.84375 42.21875 
Q 46.484375 45.515625 46.484375 51.90625 
Q 46.484375 58.296875 42.84375 61.546875 
Q 39.203125 64.796875 32.078125 64.796875 
z
" id="DejaVuSans-52"/>
     <path d="M 45.40625 46.390625 
L 45.40625 75.984375 
L 54.390625 75.984375 
L 54.390625 0 
L 45.40625 0 
L 45.40625 8.203125 
Q 42.578125 3.328125 38.25 0.953125 
Q 33.9375 -1.421875 27.875 -1.421875 
Q 17.96875 -1.421875 11.734375 6.484375 
Q 5.515625 14.40625 5.515625 27.296875 
Q 5.515625 40.1875 11.734375 48.09375 
Q 17.96875 56 27.875 56 
Q 33.9375 56 38.25 53.625 
Q 42.578125 51.265625 45.40625 46.390625 
z
M 14.796875 27.296875 
Q 14.796875 17.390625 18.875 11.75 
Q 22.953125 6.109375 30.078125 6.109375 
Q 37.203125 6.109375 41.296875 11.75 
Q 45.40625 17.390625 45.40625 27.296875 
Q 45.40625 37.203125 41.296875 42.84375 
Q 37.203125 48.484375 30.078125 48.484375 
Q 22.953125 48.484375 18.875 42.84375 
Q 14.796875 37.203125 14.796875 27.296875 
z
" id="DejaVuSans-64"/>
     <path d="M 37.109375 75.984375 
L 37.109375 68.5 
L 28.515625 68.5 
Q 23.6875 68.5 21.796875 66.546875 
Q 19.921875 64.59375 19.921875 59.515625 
L 19.921875 54.6875 
L 34.71875 54.6875 
L 34.71875 47.703125 
L 19.921875 47.703125 
L 19.921875 0 
L 10.890625 0 
L 10.890625 47.703125 
L 2.296875 47.703125 
L 2.296875 54.6875 
L 10.890625 54.6875 
L 10.890625 58.5 
Q 10.890625 67.625 15.140625 71.796875 
Q 19.390625 75.984375 28.609375 75.984375 
z
" id="DejaVuSans-66"/>
     <path d="M -0.203125 72.90625 
L 10.40625 72.90625 
L 30.609375 42.921875 
L 50.6875 72.90625 
L 61.28125 72.90625 
L 35.5 34.71875 
L 35.5 0 
L 25.59375 0 
L 25.59375 34.71875 
z
" id="DejaVuSans-59"/>
    </defs>
    <g style="fill:#262626;" transform="translate(145.659368 21.789)scale(0.192 -0.192)">
     <use xlink:href="#DejaVuSans-52"/>
     <use x="69.419922" xlink:href="#DejaVuSans-65"/>
     <use x="130.943359" xlink:href="#DejaVuSans-73"/>
     <use x="183.042969" xlink:href="#DejaVuSans-69"/>
     <use x="210.826172" xlink:href="#DejaVuSans-64"/>
     <use x="274.302734" xlink:href="#DejaVuSans-75"/>
     <use x="337.681641" xlink:href="#DejaVuSans-61"/>
     <use x="398.960938" xlink:href="#DejaVuSans-6c"/>
     <use x="426.744141" xlink:href="#DejaVuSans-20"/>
     <use x="458.53125" xlink:href="#DejaVuSans-41"/>
     <use x="526.939453" xlink:href="#DejaVuSans-6e"/>
     <use x="590.318359" xlink:href="#DejaVuSans-61"/>
     <use x="651.597656" xlink:href="#DejaVuSans-6c"/>
     <use x="679.380859" xlink:href="#DejaVuSans-79"/>
     <use x="738.560547" xlink:href="#DejaVuSans-73"/>
     <use x="790.660156" xlink:href="#DejaVuSans-69"/>
     <use x="818.443359" xlink:href="#DejaVuSans-73"/>
     <use x="870.542969" xlink:href="#DejaVuSans-20"/>
     <use x="902.330078" xlink:href="#DejaVuSans-66"/>
     <use x="937.535156" xlink:href="#DejaVuSans-6f"/>
     <use x="998.716797" xlink:href="#DejaVuSans-72"/>
     <use x="1039.830078" xlink:href="#DejaVuSans-20"/>
     <use x="1071.617188" xlink:href="#DejaVuSans-45"/>
     <use x="1134.800781" xlink:href="#DejaVuSans-6e"/>
     <use x="1198.179688" xlink:href="#DejaVuSans-74"/>
     <use x="1237.388672" xlink:href="#DejaVuSans-69"/>
     <use x="1265.171875" xlink:href="#DejaVuSans-72"/>
     <use x="1306.253906" xlink:href="#DejaVuSans-65"/>
     <use x="1367.777344" xlink:href="#DejaVuSans-20"/>
     <use x="1399.564453" xlink:href="#DejaVuSans-59"/>
     <use x="1460.445312" xlink:href="#DejaVuSans-65"/>
     <use x="1521.96875" xlink:href="#DejaVuSans-61"/>
     <use x="1583.248047" xlink:href="#DejaVuSans-72"/>
    </g>
    <!-- Pearson: 0.0254, p-value: 0.8568 -->
    <defs>
     <path d="M 11.71875 12.40625 
L 22.015625 12.40625 
L 22.015625 0 
L 11.71875 0 
z
M 11.71875 51.703125 
L 22.015625 51.703125 
L 22.015625 39.3125 
L 11.71875 39.3125 
z
" id="DejaVuSans-3a"/>
     <path d="M 10.6875 12.40625 
L 21 12.40625 
L 21 0 
L 10.6875 0 
z
" id="DejaVuSans-2e"/>
     <path d="M 11.71875 12.40625 
L 22.015625 12.40625 
L 22.015625 4 
L 14.015625 -11.625 
L 7.71875 -11.625 
L 11.71875 4 
z
" id="DejaVuSans-2c"/>
     <path d="M 4.890625 31.390625 
L 31.203125 31.390625 
L 31.203125 23.390625 
L 4.890625 23.390625 
z
" id="DejaVuSans-2d"/>
     <path d="M 2.984375 54.6875 
L 12.5 54.6875 
L 29.59375 8.796875 
L 46.6875 54.6875 
L 56.203125 54.6875 
L 35.6875 0 
L 23.484375 0 
z
" id="DejaVuSans-76"/>
    </defs>
    <g style="fill:#262626;" transform="translate(141.483368 43.2888)scale(0.192 -0.192)">
     <use xlink:href="#DejaVuSans-50"/>
     <use x="60.255859" xlink:href="#DejaVuSans-65"/>
     <use x="121.779297" xlink:href="#DejaVuSans-61"/>
     <use x="183.058594" xlink:href="#DejaVuSans-72"/>
     <use x="224.171875" xlink:href="#DejaVuSans-73"/>
     <use x="276.271484" xlink:href="#DejaVuSans-6f"/>
     <use x="337.453125" xlink:href="#DejaVuSans-6e"/>
     <use x="400.832031" xlink:href="#DejaVuSans-3a"/>
     <use x="434.523438" xlink:href="#DejaVuSans-20"/>
     <use x="466.310547" xlink:href="#DejaVuSans-30"/>
     <use x="529.933594" xlink:href="#DejaVuSans-2e"/>
     <use x="561.720703" xlink:href="#DejaVuSans-30"/>
     <use x="625.34375" xlink:href="#DejaVuSans-32"/>
     <use x="688.966797" xlink:href="#DejaVuSans-35"/>
     <use x="752.589844" xlink:href="#DejaVuSans-34"/>
     <use x="816.212891" xlink:href="#DejaVuSans-2c"/>
     <use x="848" xlink:href="#DejaVuSans-20"/>
     <use x="879.787109" xlink:href="#DejaVuSans-70"/>
     <use x="943.263672" xlink:href="#DejaVuSans-2d"/>
     <use x="979.316406" xlink:href="#DejaVuSans-76"/>
     <use x="1038.496094" xlink:href="#DejaVuSans-61"/>
     <use x="1099.775391" xlink:href="#DejaVuSans-6c"/>
     <use x="1127.558594" xlink:href="#DejaVuSans-75"/>
     <use x="1190.9375" xlink:href="#DejaVuSans-65"/>
     <use x="1252.460938" xlink:href="#DejaVuSans-3a"/>
     <use x="1286.152344" xlink:href="#DejaVuSans-20"/>
     <use x="1317.939453" xlink:href="#DejaVuSans-30"/>
     <use x="1381.5625" xlink:href="#DejaVuSans-2e"/>
     <use x="1413.349609" xlink:href="#DejaVuSans-38"/>
     <use x="1476.972656" xlink:href="#DejaVuSans-35"/>
     <use x="1540.595703" xlink:href="#DejaVuSans-36"/>
     <use x="1604.21875" xlink:href="#DejaVuSans-38"/>
    </g>
    <!-- Spearman: -0.0041, p-value: 0.9767 -->
    <g style="fill:#262626;" transform="translate(127.257368 64.7886)scale(0.192 -0.192)">
     <use xlink:href="#DejaVuSans-53"/>
     <use x="63.476562" xlink:href="#DejaVuSans-70"/>
     <use x="126.953125" xlink:href="#DejaVuSans-65"/>
     <use x="188.476562" xlink:href="#DejaVuSans-61"/>
     <use x="249.755859" xlink:href="#DejaVuSans-72"/>
     <use x="290.853516" xlink:href="#DejaVuSans-6d"/>
     <use x="388.265625" xlink:href="#DejaVuSans-61"/>
     <use x="449.544922" xlink:href="#DejaVuSans-6e"/>
     <use x="512.923828" xlink:href="#DejaVuSans-3a"/>
     <use x="546.615234" xlink:href="#DejaVuSans-20"/>
     <use x="578.402344" xlink:href="#DejaVuSans-2d"/>
     <use x="614.486328" xlink:href="#DejaVuSans-30"/>
     <use x="678.109375" xlink:href="#DejaVuSans-2e"/>
     <use x="709.896484" xlink:href="#DejaVuSans-30"/>
     <use x="773.519531" xlink:href="#DejaVuSans-30"/>
     <use x="837.142578" xlink:href="#DejaVuSans-34"/>
     <use x="900.765625" xlink:href="#DejaVuSans-31"/>
     <use x="964.388672" xlink:href="#DejaVuSans-2c"/>
     <use x="996.175781" xlink:href="#DejaVuSans-20"/>
     <use x="1027.962891" xlink:href="#DejaVuSans-70"/>
     <use x="1091.439453" xlink:href="#DejaVuSans-2d"/>
     <use x="1127.492188" xlink:href="#DejaVuSans-76"/>
     <use x="1186.671875" xlink:href="#DejaVuSans-61"/>
     <use x="1247.951172" xlink:href="#DejaVuSans-6c"/>
     <use x="1275.734375" xlink:href="#DejaVuSans-75"/>
     <use x="1339.113281" xlink:href="#DejaVuSans-65"/>
     <use x="1400.636719" xlink:href="#DejaVuSans-3a"/>
     <use x="1434.328125" xlink:href="#DejaVuSans-20"/>
     <use x="1466.115234" xlink:href="#DejaVuSans-30"/>
     <use x="1529.738281" xlink:href="#DejaVuSans-2e"/>
     <use x="1561.525391" xlink:href="#DejaVuSans-39"/>
     <use x="1625.148438" xlink:href="#DejaVuSans-37"/>
     <use x="1688.771484" xlink:href="#DejaVuSans-36"/>
     <use x="1752.394531" xlink:href="#DejaVuSans-37"/>
    </g>
   </g>
  </g>
  <g id="legend_1">
   <g id="text_17">
    <!-- category -->
    <g style="fill:#262626;" transform="translate(564.944529 265.3191)scale(0.1632 -0.1632)">
     <use xlink:href="#DejaVuSans-63"/>
     <use x="54.980469" xlink:href="#DejaVuSans-61"/>
     <use x="116.259766" xlink:href="#DejaVuSans-74"/>
     <use x="155.46875" xlink:href="#DejaVuSans-65"/>
     <use x="216.992188" xlink:href="#DejaVuSans-67"/>
     <use x="280.46875" xlink:href="#DejaVuSans-6f"/>
     <use x="341.650391" xlink:href="#DejaVuSans-72"/>
     <use x="382.763672" xlink:href="#DejaVuSans-79"/>
    </g>
   </g>
   <g id="PathCollection_4">
    <g>
     <use style="fill:#2ecc71;stroke:#2ecc71;stroke-width:2;" x="557.321304" xlink:href="#mc286678c27" y="286.2664"/>
    </g>
   </g>
   <g id="text_18">
    <!-- Good -->
    <defs>
     <path d="M 59.515625 10.40625 
L 59.515625 29.984375 
L 43.40625 29.984375 
L 43.40625 38.09375 
L 69.28125 38.09375 
L 69.28125 6.78125 
Q 63.578125 2.734375 56.6875 0.65625 
Q 49.8125 -1.421875 42 -1.421875 
Q 24.90625 -1.421875 15.25 8.5625 
Q 5.609375 18.5625 5.609375 36.375 
Q 5.609375 54.25 15.25 64.234375 
Q 24.90625 74.21875 42 74.21875 
Q 49.125 74.21875 55.546875 72.453125 
Q 61.96875 70.703125 67.390625 67.28125 
L 67.390625 56.78125 
Q 61.921875 61.421875 55.765625 63.765625 
Q 49.609375 66.109375 42.828125 66.109375 
Q 29.4375 66.109375 22.71875 58.640625 
Q 16.015625 51.171875 16.015625 36.375 
Q 16.015625 21.625 22.71875 14.15625 
Q 29.4375 6.6875 42.828125 6.6875 
Q 48.046875 6.6875 52.140625 7.59375 
Q 56.25 8.5 59.515625 10.40625 
z
" id="DejaVuSans-47"/>
    </defs>
    <g style="fill:#262626;" transform="translate(589.001304 290.8864)scale(0.176 -0.176)">
     <use xlink:href="#DejaVuSans-47"/>
     <use x="77.490234" xlink:href="#DejaVuSans-6f"/>
     <use x="138.671875" xlink:href="#DejaVuSans-6f"/>
     <use x="199.853516" xlink:href="#DejaVuSans-64"/>
    </g>
   </g>
   <g id="PathCollection_5">
    <g>
     <use style="fill:#34495e;stroke:#34495e;stroke-width:2;" x="557.321304" xlink:href="#m153e4d97f6" y="312.0999"/>
    </g>
   </g>
   <g id="text_19">
    <!-- Average -->
    <g style="fill:#262626;" transform="translate(589.001304 316.7199)scale(0.176 -0.176)">
     <use xlink:href="#DejaVuSans-41"/>
     <use x="68.330078" xlink:href="#DejaVuSans-76"/>
     <use x="127.509766" xlink:href="#DejaVuSans-65"/>
     <use x="189.033203" xlink:href="#DejaVuSans-72"/>
     <use x="230.146484" xlink:href="#DejaVuSans-61"/>
     <use x="291.425781" xlink:href="#DejaVuSans-67"/>
     <use x="354.902344" xlink:href="#DejaVuSans-65"/>
    </g>
   </g>
   <g id="PathCollection_6">
    <g>
     <use style="fill:#e74c3c;stroke:#e74c3c;stroke-width:2;" x="557.321304" xlink:href="#me94ce7b980" y="337.9334"/>
    </g>
   </g>
   <g id="text_20">
    <!-- Bad -->
    <defs>
     <path d="M 19.671875 34.8125 
L 19.671875 8.109375 
L 35.5 8.109375 
Q 43.453125 8.109375 47.28125 11.40625 
Q 51.125 14.703125 51.125 21.484375 
Q 51.125 28.328125 47.28125 31.5625 
Q 43.453125 34.8125 35.5 34.8125 
z
M 19.671875 64.796875 
L 19.671875 42.828125 
L 34.28125 42.828125 
Q 41.5 42.828125 45.03125 45.53125 
Q 48.578125 48.25 48.578125 53.8125 
Q 48.578125 59.328125 45.03125 62.0625 
Q 41.5 64.796875 34.28125 64.796875 
z
M 9.8125 72.90625 
L 35.015625 72.90625 
Q 46.296875 72.90625 52.390625 68.21875 
Q 58.5 63.53125 58.5 54.890625 
Q 58.5 48.1875 55.375 44.234375 
Q 52.25 40.28125 46.1875 39.3125 
Q 53.46875 37.75 57.5 32.78125 
Q 61.53125 27.828125 61.53125 20.40625 
Q 61.53125 10.640625 54.890625 5.3125 
Q 48.25 0 35.984375 0 
L 9.8125 0 
z
" id="DejaVuSans-42"/>
    </defs>
    <g style="fill:#262626;" transform="translate(589.001304 342.5534)scale(0.176 -0.176)">
     <use xlink:href="#DejaVuSans-42"/>
     <use x="68.603516" xlink:href="#DejaVuSans-61"/>
     <use x="129.882812" xlink:href="#DejaVuSans-64"/>
    </g>
   </g>
  </g>
 </g>
 <defs>
  <clipPath id="p20cfcf9eb6">
   <rect height="466.028" width="467.833735" x="67.678" y="70.7886"/>
  </clipPath>
 </defs>
</svg>
