<?xml version="1.0" encoding="utf-8" standalone="no"?>
<!DOCTYPE svg PUBLIC "-//W3C//DTD SVG 1.1//EN"
  "http://www.w3.org/Graphics/SVG/1.1/DTD/svg11.dtd">
<!-- Created with matplotlib (http://matplotlib.org/) -->
<svg height="612pt" version="1.1" viewBox="0 0 668 612" width="668pt" xmlns="http://www.w3.org/2000/svg" xmlns:xlink="http://www.w3.org/1999/xlink">
 <defs>
  <style type="text/css">
*{stroke-linecap:butt;stroke-linejoin:round;}
  </style>
 </defs>
 <g id="figure_1">
  <g id="patch_1">
   <path d="M 0 612.0351 
L 668.993317 612.0351 
L 668.993317 0 
L 0 0 
z
" style="fill:#ffffff;"/>
  </g>
  <g id="axes_1">
   <g id="patch_2">
    <path d="M 59.7935 557.1166 
L 538.061067 557.1166 
L 538.061067 70.7886 
L 59.7935 70.7886 
z
" style="fill:#eaeaf2;"/>
   </g>
   <g id="matplotlib.axis_1">
    <g id="xtick_1">
     <g id="line2d_1">
      <path clip-path="url(#pc68d767659)" d="M 76.562984 557.1166 
L 76.562984 70.7886 
" style="fill:none;stroke:#ffffff;stroke-linecap:round;stroke-width:1.6;"/>
     </g>
     <g id="line2d_2"/>
     <g id="text_1">
      <!-- 0 -->
      <defs>
       <path d="M 31.78125 66.40625 
Q 24.171875 66.40625 20.328125 58.90625 
Q 16.5 51.421875 16.5 36.375 
Q 16.5 21.390625 20.328125 13.890625 
Q 24.171875 6.390625 31.78125 6.390625 
Q 39.453125 6.390625 43.28125 13.890625 
Q 47.125 21.390625 47.125 36.375 
Q 47.125 51.421875 43.28125 58.90625 
Q 39.453125 66.40625 31.78125 66.40625 
z
M 31.78125 74.21875 
Q 44.046875 74.21875 50.515625 64.515625 
Q 56.984375 54.828125 56.984375 36.375 
Q 56.984375 17.96875 50.515625 8.265625 
Q 44.046875 -1.421875 31.78125 -1.421875 
Q 19.53125 -1.421875 13.0625 8.265625 
Q 6.59375 17.96875 6.59375 36.375 
Q 6.59375 54.828125 13.0625 64.515625 
Q 19.53125 74.21875 31.78125 74.21875 
z
" id="DejaVuSans-30"/>
      </defs>
      <g style="fill:#262626;" transform="translate(71.472984 580.4741)scale(0.16 -0.16)">
       <use xlink:href="#DejaVuSans-30"/>
      </g>
     </g>
    </g>
    <g id="xtick_2">
     <g id="line2d_3">
      <path clip-path="url(#pc68d767659)" d="M 162.422525 557.1166 
L 162.422525 70.7886 
" style="fill:none;stroke:#ffffff;stroke-linecap:round;stroke-width:1.6;"/>
     </g>
     <g id="line2d_4"/>
     <g id="text_2">
      <!-- 20 -->
      <defs>
       <path d="M 19.1875 8.296875 
L 53.609375 8.296875 
L 53.609375 0 
L 7.328125 0 
L 7.328125 8.296875 
Q 12.9375 14.109375 22.625 23.890625 
Q 32.328125 33.6875 34.8125 36.53125 
Q 39.546875 41.84375 41.421875 45.53125 
Q 43.3125 49.21875 43.3125 52.78125 
Q 43.3125 58.59375 39.234375 62.25 
Q 35.15625 65.921875 28.609375 65.921875 
Q 23.96875 65.921875 18.8125 64.3125 
Q 13.671875 62.703125 7.8125 59.421875 
L 7.8125 69.390625 
Q 13.765625 71.78125 18.9375 73 
Q 24.125 74.21875 28.421875 74.21875 
Q 39.75 74.21875 46.484375 68.546875 
Q 53.21875 62.890625 53.21875 53.421875 
Q 53.21875 48.921875 51.53125 44.890625 
Q 49.859375 40.875 45.40625 35.40625 
Q 44.1875 33.984375 37.640625 27.21875 
Q 31.109375 20.453125 19.1875 8.296875 
z
" id="DejaVuSans-32"/>
      </defs>
      <g style="fill:#262626;" transform="translate(152.242525 580.4741)scale(0.16 -0.16)">
       <use xlink:href="#DejaVuSans-32"/>
       <use x="63.623047" xlink:href="#DejaVuSans-30"/>
      </g>
     </g>
    </g>
    <g id="xtick_3">
     <g id="line2d_5">
      <path clip-path="url(#pc68d767659)" d="M 248.282066 557.1166 
L 248.282066 70.7886 
" style="fill:none;stroke:#ffffff;stroke-linecap:round;stroke-width:1.6;"/>
     </g>
     <g id="line2d_6"/>
     <g id="text_3">
      <!-- 40 -->
      <defs>
       <path d="M 37.796875 64.3125 
L 12.890625 25.390625 
L 37.796875 25.390625 
z
M 35.203125 72.90625 
L 47.609375 72.90625 
L 47.609375 25.390625 
L 58.015625 25.390625 
L 58.015625 17.1875 
L 47.609375 17.1875 
L 47.609375 0 
L 37.796875 0 
L 37.796875 17.1875 
L 4.890625 17.1875 
L 4.890625 26.703125 
z
" id="DejaVuSans-34"/>
      </defs>
      <g style="fill:#262626;" transform="translate(238.102066 580.4741)scale(0.16 -0.16)">
       <use xlink:href="#DejaVuSans-34"/>
       <use x="63.623047" xlink:href="#DejaVuSans-30"/>
      </g>
     </g>
    </g>
    <g id="xtick_4">
     <g id="line2d_7">
      <path clip-path="url(#pc68d767659)" d="M 334.141607 557.1166 
L 334.141607 70.7886 
" style="fill:none;stroke:#ffffff;stroke-linecap:round;stroke-width:1.6;"/>
     </g>
     <g id="line2d_8"/>
     <g id="text_4">
      <!-- 60 -->
      <defs>
       <path d="M 33.015625 40.375 
Q 26.375 40.375 22.484375 35.828125 
Q 18.609375 31.296875 18.609375 23.390625 
Q 18.609375 15.53125 22.484375 10.953125 
Q 26.375 6.390625 33.015625 6.390625 
Q 39.65625 6.390625 43.53125 10.953125 
Q 47.40625 15.53125 47.40625 23.390625 
Q 47.40625 31.296875 43.53125 35.828125 
Q 39.65625 40.375 33.015625 40.375 
z
M 52.59375 71.296875 
L 52.59375 62.3125 
Q 48.875 64.0625 45.09375 64.984375 
Q 41.3125 65.921875 37.59375 65.921875 
Q 27.828125 65.921875 22.671875 59.328125 
Q 17.53125 52.734375 16.796875 39.40625 
Q 19.671875 43.65625 24.015625 45.921875 
Q 28.375 48.1875 33.59375 48.1875 
Q 44.578125 48.1875 50.953125 41.515625 
Q 57.328125 34.859375 57.328125 23.390625 
Q 57.328125 12.15625 50.6875 5.359375 
Q 44.046875 -1.421875 33.015625 -1.421875 
Q 20.359375 -1.421875 13.671875 8.265625 
Q 6.984375 17.96875 6.984375 36.375 
Q 6.984375 53.65625 15.1875 63.9375 
Q 23.390625 74.21875 37.203125 74.21875 
Q 40.921875 74.21875 44.703125 73.484375 
Q 48.484375 72.75 52.59375 71.296875 
z
" id="DejaVuSans-36"/>
      </defs>
      <g style="fill:#262626;" transform="translate(323.961607 580.4741)scale(0.16 -0.16)">
       <use xlink:href="#DejaVuSans-36"/>
       <use x="63.623047" xlink:href="#DejaVuSans-30"/>
      </g>
     </g>
    </g>
    <g id="xtick_5">
     <g id="line2d_9">
      <path clip-path="url(#pc68d767659)" d="M 420.001149 557.1166 
L 420.001149 70.7886 
" style="fill:none;stroke:#ffffff;stroke-linecap:round;stroke-width:1.6;"/>
     </g>
     <g id="line2d_10"/>
     <g id="text_5">
      <!-- 80 -->
      <defs>
       <path d="M 31.78125 34.625 
Q 24.75 34.625 20.71875 30.859375 
Q 16.703125 27.09375 16.703125 20.515625 
Q 16.703125 13.921875 20.71875 10.15625 
Q 24.75 6.390625 31.78125 6.390625 
Q 38.8125 6.390625 42.859375 10.171875 
Q 46.921875 13.96875 46.921875 20.515625 
Q 46.921875 27.09375 42.890625 30.859375 
Q 38.875 34.625 31.78125 34.625 
z
M 21.921875 38.8125 
Q 15.578125 40.375 12.03125 44.71875 
Q 8.5 49.078125 8.5 55.328125 
Q 8.5 64.0625 14.71875 69.140625 
Q 20.953125 74.21875 31.78125 74.21875 
Q 42.671875 74.21875 48.875 69.140625 
Q 55.078125 64.0625 55.078125 55.328125 
Q 55.078125 49.078125 51.53125 44.71875 
Q 48 40.375 41.703125 38.8125 
Q 48.828125 37.15625 52.796875 32.3125 
Q 56.78125 27.484375 56.78125 20.515625 
Q 56.78125 9.90625 50.3125 4.234375 
Q 43.84375 -1.421875 31.78125 -1.421875 
Q 19.734375 -1.421875 13.25 4.234375 
Q 6.78125 9.90625 6.78125 20.515625 
Q 6.78125 27.484375 10.78125 32.3125 
Q 14.796875 37.15625 21.921875 38.8125 
z
M 18.3125 54.390625 
Q 18.3125 48.734375 21.84375 45.5625 
Q 25.390625 42.390625 31.78125 42.390625 
Q 38.140625 42.390625 41.71875 45.5625 
Q 45.3125 48.734375 45.3125 54.390625 
Q 45.3125 60.0625 41.71875 63.234375 
Q 38.140625 66.40625 31.78125 66.40625 
Q 25.390625 66.40625 21.84375 63.234375 
Q 18.3125 60.0625 18.3125 54.390625 
z
" id="DejaVuSans-38"/>
      </defs>
      <g style="fill:#262626;" transform="translate(409.821149 580.4741)scale(0.16 -0.16)">
       <use xlink:href="#DejaVuSans-38"/>
       <use x="63.623047" xlink:href="#DejaVuSans-30"/>
      </g>
     </g>
    </g>
    <g id="xtick_6">
     <g id="line2d_11">
      <path clip-path="url(#pc68d767659)" d="M 505.86069 557.1166 
L 505.86069 70.7886 
" style="fill:none;stroke:#ffffff;stroke-linecap:round;stroke-width:1.6;"/>
     </g>
     <g id="line2d_12"/>
     <g id="text_6">
      <!-- 100 -->
      <defs>
       <path d="M 12.40625 8.296875 
L 28.515625 8.296875 
L 28.515625 63.921875 
L 10.984375 60.40625 
L 10.984375 69.390625 
L 28.421875 72.90625 
L 38.28125 72.90625 
L 38.28125 8.296875 
L 54.390625 8.296875 
L 54.390625 0 
L 12.40625 0 
z
" id="DejaVuSans-31"/>
      </defs>
      <g style="fill:#262626;" transform="translate(490.59069 580.4741)scale(0.16 -0.16)">
       <use xlink:href="#DejaVuSans-31"/>
       <use x="63.623047" xlink:href="#DejaVuSans-30"/>
       <use x="127.246094" xlink:href="#DejaVuSans-30"/>
      </g>
     </g>
    </g>
    <g id="text_7">
     <!-- Absolute Error -->
     <defs>
      <path d="M 34.1875 63.1875 
L 20.796875 26.90625 
L 47.609375 26.90625 
z
M 28.609375 72.90625 
L 39.796875 72.90625 
L 67.578125 0 
L 57.328125 0 
L 50.6875 18.703125 
L 17.828125 18.703125 
L 11.1875 0 
L 0.78125 0 
z
" id="DejaVuSans-41"/>
      <path d="M 48.6875 27.296875 
Q 48.6875 37.203125 44.609375 42.84375 
Q 40.53125 48.484375 33.40625 48.484375 
Q 26.265625 48.484375 22.1875 42.84375 
Q 18.109375 37.203125 18.109375 27.296875 
Q 18.109375 17.390625 22.1875 11.75 
Q 26.265625 6.109375 33.40625 6.109375 
Q 40.53125 6.109375 44.609375 11.75 
Q 48.6875 17.390625 48.6875 27.296875 
z
M 18.109375 46.390625 
Q 20.953125 51.265625 25.265625 53.625 
Q 29.59375 56 35.59375 56 
Q 45.5625 56 51.78125 48.09375 
Q 58.015625 40.1875 58.015625 27.296875 
Q 58.015625 14.40625 51.78125 6.484375 
Q 45.5625 -1.421875 35.59375 -1.421875 
Q 29.59375 -1.421875 25.265625 0.953125 
Q 20.953125 3.328125 18.109375 8.203125 
L 18.109375 0 
L 9.078125 0 
L 9.078125 75.984375 
L 18.109375 75.984375 
z
" id="DejaVuSans-62"/>
      <path d="M 44.28125 53.078125 
L 44.28125 44.578125 
Q 40.484375 46.53125 36.375 47.5 
Q 32.28125 48.484375 27.875 48.484375 
Q 21.1875 48.484375 17.84375 46.4375 
Q 14.5 44.390625 14.5 40.28125 
Q 14.5 37.15625 16.890625 35.375 
Q 19.28125 33.59375 26.515625 31.984375 
L 29.59375 31.296875 
Q 39.15625 29.25 43.1875 25.515625 
Q 47.21875 21.78125 47.21875 15.09375 
Q 47.21875 7.46875 41.1875 3.015625 
Q 35.15625 -1.421875 24.609375 -1.421875 
Q 20.21875 -1.421875 15.453125 -0.5625 
Q 10.6875 0.296875 5.421875 2 
L 5.421875 11.28125 
Q 10.40625 8.6875 15.234375 7.390625 
Q 20.0625 6.109375 24.8125 6.109375 
Q 31.15625 6.109375 34.5625 8.28125 
Q 37.984375 10.453125 37.984375 14.40625 
Q 37.984375 18.0625 35.515625 20.015625 
Q 33.0625 21.96875 24.703125 23.78125 
L 21.578125 24.515625 
Q 13.234375 26.265625 9.515625 29.90625 
Q 5.8125 33.546875 5.8125 39.890625 
Q 5.8125 47.609375 11.28125 51.796875 
Q 16.75 56 26.8125 56 
Q 31.78125 56 36.171875 55.265625 
Q 40.578125 54.546875 44.28125 53.078125 
z
" id="DejaVuSans-73"/>
      <path d="M 30.609375 48.390625 
Q 23.390625 48.390625 19.1875 42.75 
Q 14.984375 37.109375 14.984375 27.296875 
Q 14.984375 17.484375 19.15625 11.84375 
Q 23.34375 6.203125 30.609375 6.203125 
Q 37.796875 6.203125 41.984375 11.859375 
Q 46.1875 17.53125 46.1875 27.296875 
Q 46.1875 37.015625 41.984375 42.703125 
Q 37.796875 48.390625 30.609375 48.390625 
z
M 30.609375 56 
Q 42.328125 56 49.015625 48.375 
Q 55.71875 40.765625 55.71875 27.296875 
Q 55.71875 13.875 49.015625 6.21875 
Q 42.328125 -1.421875 30.609375 -1.421875 
Q 18.84375 -1.421875 12.171875 6.21875 
Q 5.515625 13.875 5.515625 27.296875 
Q 5.515625 40.765625 12.171875 48.375 
Q 18.84375 56 30.609375 56 
z
" id="DejaVuSans-6f"/>
      <path d="M 9.421875 75.984375 
L 18.40625 75.984375 
L 18.40625 0 
L 9.421875 0 
z
" id="DejaVuSans-6c"/>
      <path d="M 8.5 21.578125 
L 8.5 54.6875 
L 17.484375 54.6875 
L 17.484375 21.921875 
Q 17.484375 14.15625 20.5 10.265625 
Q 23.53125 6.390625 29.59375 6.390625 
Q 36.859375 6.390625 41.078125 11.03125 
Q 45.3125 15.671875 45.3125 23.6875 
L 45.3125 54.6875 
L 54.296875 54.6875 
L 54.296875 0 
L 45.3125 0 
L 45.3125 8.40625 
Q 42.046875 3.421875 37.71875 1 
Q 33.40625 -1.421875 27.6875 -1.421875 
Q 18.265625 -1.421875 13.375 4.4375 
Q 8.5 10.296875 8.5 21.578125 
z
M 31.109375 56 
z
" id="DejaVuSans-75"/>
      <path d="M 18.3125 70.21875 
L 18.3125 54.6875 
L 36.8125 54.6875 
L 36.8125 47.703125 
L 18.3125 47.703125 
L 18.3125 18.015625 
Q 18.3125 11.328125 20.140625 9.421875 
Q 21.96875 7.515625 27.59375 7.515625 
L 36.8125 7.515625 
L 36.8125 0 
L 27.59375 0 
Q 17.1875 0 13.234375 3.875 
Q 9.28125 7.765625 9.28125 18.015625 
L 9.28125 47.703125 
L 2.6875 47.703125 
L 2.6875 54.6875 
L 9.28125 54.6875 
L 9.28125 70.21875 
z
" id="DejaVuSans-74"/>
      <path d="M 56.203125 29.59375 
L 56.203125 25.203125 
L 14.890625 25.203125 
Q 15.484375 15.921875 20.484375 11.0625 
Q 25.484375 6.203125 34.421875 6.203125 
Q 39.59375 6.203125 44.453125 7.46875 
Q 49.3125 8.734375 54.109375 11.28125 
L 54.109375 2.78125 
Q 49.265625 0.734375 44.1875 -0.34375 
Q 39.109375 -1.421875 33.890625 -1.421875 
Q 20.796875 -1.421875 13.15625 6.1875 
Q 5.515625 13.8125 5.515625 26.8125 
Q 5.515625 40.234375 12.765625 48.109375 
Q 20.015625 56 32.328125 56 
Q 43.359375 56 49.78125 48.890625 
Q 56.203125 41.796875 56.203125 29.59375 
z
M 47.21875 32.234375 
Q 47.125 39.59375 43.09375 43.984375 
Q 39.0625 48.390625 32.421875 48.390625 
Q 24.90625 48.390625 20.390625 44.140625 
Q 15.875 39.890625 15.1875 32.171875 
z
" id="DejaVuSans-65"/>
      <path id="DejaVuSans-20"/>
      <path d="M 9.8125 72.90625 
L 55.90625 72.90625 
L 55.90625 64.59375 
L 19.671875 64.59375 
L 19.671875 43.015625 
L 54.390625 43.015625 
L 54.390625 34.71875 
L 19.671875 34.71875 
L 19.671875 8.296875 
L 56.78125 8.296875 
L 56.78125 0 
L 9.8125 0 
z
" id="DejaVuSans-45"/>
      <path d="M 41.109375 46.296875 
Q 39.59375 47.171875 37.8125 47.578125 
Q 36.03125 48 33.890625 48 
Q 26.265625 48 22.1875 43.046875 
Q 18.109375 38.09375 18.109375 28.8125 
L 18.109375 0 
L 9.078125 0 
L 9.078125 54.6875 
L 18.109375 54.6875 
L 18.109375 46.1875 
Q 20.953125 51.171875 25.484375 53.578125 
Q 30.03125 56 36.53125 56 
Q 37.453125 56 38.578125 55.875 
Q 39.703125 55.765625 41.0625 55.515625 
z
" id="DejaVuSans-72"/>
     </defs>
     <g style="fill:#262626;" transform="translate(235.875283 601.17485)scale(0.176 -0.176)">
      <use xlink:href="#DejaVuSans-41"/>
      <use x="68.408203" xlink:href="#DejaVuSans-62"/>
      <use x="131.884766" xlink:href="#DejaVuSans-73"/>
      <use x="183.984375" xlink:href="#DejaVuSans-6f"/>
      <use x="245.166016" xlink:href="#DejaVuSans-6c"/>
      <use x="272.949219" xlink:href="#DejaVuSans-75"/>
      <use x="336.328125" xlink:href="#DejaVuSans-74"/>
      <use x="375.537109" xlink:href="#DejaVuSans-65"/>
      <use x="437.060547" xlink:href="#DejaVuSans-20"/>
      <use x="468.847656" xlink:href="#DejaVuSans-45"/>
      <use x="532.03125" xlink:href="#DejaVuSans-72"/>
      <use x="573.128906" xlink:href="#DejaVuSans-72"/>
      <use x="614.210938" xlink:href="#DejaVuSans-6f"/>
      <use x="675.392578" xlink:href="#DejaVuSans-72"/>
     </g>
    </g>
   </g>
   <g id="matplotlib.axis_2">
    <g id="ytick_1">
     <g id="line2d_13">
      <path clip-path="url(#pc68d767659)" d="M 59.7935 491.670978 
L 538.061067 491.670978 
" style="fill:none;stroke:#ffffff;stroke-linecap:round;stroke-width:1.6;"/>
     </g>
     <g id="line2d_14"/>
     <g id="text_8">
      <!-- 5 -->
      <defs>
       <path d="M 10.796875 72.90625 
L 49.515625 72.90625 
L 49.515625 64.59375 
L 19.828125 64.59375 
L 19.828125 46.734375 
Q 21.96875 47.46875 24.109375 47.828125 
Q 26.265625 48.1875 28.421875 48.1875 
Q 40.625 48.1875 47.75 41.5 
Q 54.890625 34.8125 54.890625 23.390625 
Q 54.890625 11.625 47.5625 5.09375 
Q 40.234375 -1.421875 26.90625 -1.421875 
Q 22.3125 -1.421875 17.546875 -0.640625 
Q 12.796875 0.140625 7.71875 1.703125 
L 7.71875 11.625 
Q 12.109375 9.234375 16.796875 8.0625 
Q 21.484375 6.890625 26.703125 6.890625 
Q 35.15625 6.890625 40.078125 11.328125 
Q 45.015625 15.765625 45.015625 23.390625 
Q 45.015625 31 40.078125 35.4375 
Q 35.15625 39.890625 26.703125 39.890625 
Q 22.75 39.890625 18.8125 39.015625 
Q 14.890625 38.140625 10.796875 36.28125 
z
" id="DejaVuSans-35"/>
      </defs>
      <g style="fill:#262626;" transform="translate(38.4135 497.749728)scale(0.16 -0.16)">
       <use xlink:href="#DejaVuSans-35"/>
      </g>
     </g>
    </g>
    <g id="ytick_2">
     <g id="line2d_15">
      <path clip-path="url(#pc68d767659)" d="M 59.7935 425.611663 
L 538.061067 425.611663 
" style="fill:none;stroke:#ffffff;stroke-linecap:round;stroke-width:1.6;"/>
     </g>
     <g id="line2d_16"/>
     <g id="text_9">
      <!-- 10 -->
      <g style="fill:#262626;" transform="translate(28.2335 431.690413)scale(0.16 -0.16)">
       <use xlink:href="#DejaVuSans-31"/>
       <use x="63.623047" xlink:href="#DejaVuSans-30"/>
      </g>
     </g>
    </g>
    <g id="ytick_3">
     <g id="line2d_17">
      <path clip-path="url(#pc68d767659)" d="M 59.7935 359.552349 
L 538.061067 359.552349 
" style="fill:none;stroke:#ffffff;stroke-linecap:round;stroke-width:1.6;"/>
     </g>
     <g id="line2d_18"/>
     <g id="text_10">
      <!-- 15 -->
      <g style="fill:#262626;" transform="translate(28.2335 365.631099)scale(0.16 -0.16)">
       <use xlink:href="#DejaVuSans-31"/>
       <use x="63.623047" xlink:href="#DejaVuSans-35"/>
      </g>
     </g>
    </g>
    <g id="ytick_4">
     <g id="line2d_19">
      <path clip-path="url(#pc68d767659)" d="M 59.7935 293.493034 
L 538.061067 293.493034 
" style="fill:none;stroke:#ffffff;stroke-linecap:round;stroke-width:1.6;"/>
     </g>
     <g id="line2d_20"/>
     <g id="text_11">
      <!-- 20 -->
      <g style="fill:#262626;" transform="translate(28.2335 299.571784)scale(0.16 -0.16)">
       <use xlink:href="#DejaVuSans-32"/>
       <use x="63.623047" xlink:href="#DejaVuSans-30"/>
      </g>
     </g>
    </g>
    <g id="ytick_5">
     <g id="line2d_21">
      <path clip-path="url(#pc68d767659)" d="M 59.7935 227.43372 
L 538.061067 227.43372 
" style="fill:none;stroke:#ffffff;stroke-linecap:round;stroke-width:1.6;"/>
     </g>
     <g id="line2d_22"/>
     <g id="text_12">
      <!-- 25 -->
      <g style="fill:#262626;" transform="translate(28.2335 233.51247)scale(0.16 -0.16)">
       <use xlink:href="#DejaVuSans-32"/>
       <use x="63.623047" xlink:href="#DejaVuSans-35"/>
      </g>
     </g>
    </g>
    <g id="ytick_6">
     <g id="line2d_23">
      <path clip-path="url(#pc68d767659)" d="M 59.7935 161.374405 
L 538.061067 161.374405 
" style="fill:none;stroke:#ffffff;stroke-linecap:round;stroke-width:1.6;"/>
     </g>
     <g id="line2d_24"/>
     <g id="text_13">
      <!-- 30 -->
      <defs>
       <path d="M 40.578125 39.3125 
Q 47.65625 37.796875 51.625 33 
Q 55.609375 28.21875 55.609375 21.1875 
Q 55.609375 10.40625 48.1875 4.484375 
Q 40.765625 -1.421875 27.09375 -1.421875 
Q 22.515625 -1.421875 17.65625 -0.515625 
Q 12.796875 0.390625 7.625 2.203125 
L 7.625 11.71875 
Q 11.71875 9.328125 16.59375 8.109375 
Q 21.484375 6.890625 26.8125 6.890625 
Q 36.078125 6.890625 40.9375 10.546875 
Q 45.796875 14.203125 45.796875 21.1875 
Q 45.796875 27.640625 41.28125 31.265625 
Q 36.765625 34.90625 28.71875 34.90625 
L 20.21875 34.90625 
L 20.21875 43.015625 
L 29.109375 43.015625 
Q 36.375 43.015625 40.234375 45.921875 
Q 44.09375 48.828125 44.09375 54.296875 
Q 44.09375 59.90625 40.109375 62.90625 
Q 36.140625 65.921875 28.71875 65.921875 
Q 24.65625 65.921875 20.015625 65.03125 
Q 15.375 64.15625 9.8125 62.3125 
L 9.8125 71.09375 
Q 15.4375 72.65625 20.34375 73.4375 
Q 25.25 74.21875 29.59375 74.21875 
Q 40.828125 74.21875 47.359375 69.109375 
Q 53.90625 64.015625 53.90625 55.328125 
Q 53.90625 49.265625 50.4375 45.09375 
Q 46.96875 40.921875 40.578125 39.3125 
z
" id="DejaVuSans-33"/>
      </defs>
      <g style="fill:#262626;" transform="translate(28.2335 167.453155)scale(0.16 -0.16)">
       <use xlink:href="#DejaVuSans-33"/>
       <use x="63.623047" xlink:href="#DejaVuSans-30"/>
      </g>
     </g>
    </g>
    <g id="ytick_7">
     <g id="line2d_25">
      <path clip-path="url(#pc68d767659)" d="M 59.7935 95.31509 
L 538.061067 95.31509 
" style="fill:none;stroke:#ffffff;stroke-linecap:round;stroke-width:1.6;"/>
     </g>
     <g id="line2d_26"/>
     <g id="text_14">
      <!-- 35 -->
      <g style="fill:#262626;" transform="translate(28.2335 101.39384)scale(0.16 -0.16)">
       <use xlink:href="#DejaVuSans-33"/>
       <use x="63.623047" xlink:href="#DejaVuSans-35"/>
      </g>
     </g>
    </g>
    <g id="text_15">
     <!-- Population Density -->
     <defs>
      <path d="M 19.671875 64.796875 
L 19.671875 37.40625 
L 32.078125 37.40625 
Q 38.96875 37.40625 42.71875 40.96875 
Q 46.484375 44.53125 46.484375 51.125 
Q 46.484375 57.671875 42.71875 61.234375 
Q 38.96875 64.796875 32.078125 64.796875 
z
M 9.8125 72.90625 
L 32.078125 72.90625 
Q 44.34375 72.90625 50.609375 67.359375 
Q 56.890625 61.8125 56.890625 51.125 
Q 56.890625 40.328125 50.609375 34.8125 
Q 44.34375 29.296875 32.078125 29.296875 
L 19.671875 29.296875 
L 19.671875 0 
L 9.8125 0 
z
" id="DejaVuSans-50"/>
      <path d="M 18.109375 8.203125 
L 18.109375 -20.796875 
L 9.078125 -20.796875 
L 9.078125 54.6875 
L 18.109375 54.6875 
L 18.109375 46.390625 
Q 20.953125 51.265625 25.265625 53.625 
Q 29.59375 56 35.59375 56 
Q 45.5625 56 51.78125 48.09375 
Q 58.015625 40.1875 58.015625 27.296875 
Q 58.015625 14.40625 51.78125 6.484375 
Q 45.5625 -1.421875 35.59375 -1.421875 
Q 29.59375 -1.421875 25.265625 0.953125 
Q 20.953125 3.328125 18.109375 8.203125 
z
M 48.6875 27.296875 
Q 48.6875 37.203125 44.609375 42.84375 
Q 40.53125 48.484375 33.40625 48.484375 
Q 26.265625 48.484375 22.1875 42.84375 
Q 18.109375 37.203125 18.109375 27.296875 
Q 18.109375 17.390625 22.1875 11.75 
Q 26.265625 6.109375 33.40625 6.109375 
Q 40.53125 6.109375 44.609375 11.75 
Q 48.6875 17.390625 48.6875 27.296875 
z
" id="DejaVuSans-70"/>
      <path d="M 34.28125 27.484375 
Q 23.390625 27.484375 19.1875 25 
Q 14.984375 22.515625 14.984375 16.5 
Q 14.984375 11.71875 18.140625 8.90625 
Q 21.296875 6.109375 26.703125 6.109375 
Q 34.1875 6.109375 38.703125 11.40625 
Q 43.21875 16.703125 43.21875 25.484375 
L 43.21875 27.484375 
z
M 52.203125 31.203125 
L 52.203125 0 
L 43.21875 0 
L 43.21875 8.296875 
Q 40.140625 3.328125 35.546875 0.953125 
Q 30.953125 -1.421875 24.3125 -1.421875 
Q 15.921875 -1.421875 10.953125 3.296875 
Q 6 8.015625 6 15.921875 
Q 6 25.140625 12.171875 29.828125 
Q 18.359375 34.515625 30.609375 34.515625 
L 43.21875 34.515625 
L 43.21875 35.40625 
Q 43.21875 41.609375 39.140625 45 
Q 35.0625 48.390625 27.6875 48.390625 
Q 23 48.390625 18.546875 47.265625 
Q 14.109375 46.140625 10.015625 43.890625 
L 10.015625 52.203125 
Q 14.9375 54.109375 19.578125 55.046875 
Q 24.21875 56 28.609375 56 
Q 40.484375 56 46.34375 49.84375 
Q 52.203125 43.703125 52.203125 31.203125 
z
" id="DejaVuSans-61"/>
      <path d="M 9.421875 54.6875 
L 18.40625 54.6875 
L 18.40625 0 
L 9.421875 0 
z
M 9.421875 75.984375 
L 18.40625 75.984375 
L 18.40625 64.59375 
L 9.421875 64.59375 
z
" id="DejaVuSans-69"/>
      <path d="M 54.890625 33.015625 
L 54.890625 0 
L 45.90625 0 
L 45.90625 32.71875 
Q 45.90625 40.484375 42.875 44.328125 
Q 39.84375 48.1875 33.796875 48.1875 
Q 26.515625 48.1875 22.3125 43.546875 
Q 18.109375 38.921875 18.109375 30.90625 
L 18.109375 0 
L 9.078125 0 
L 9.078125 54.6875 
L 18.109375 54.6875 
L 18.109375 46.1875 
Q 21.34375 51.125 25.703125 53.5625 
Q 30.078125 56 35.796875 56 
Q 45.21875 56 50.046875 50.171875 
Q 54.890625 44.34375 54.890625 33.015625 
z
" id="DejaVuSans-6e"/>
      <path d="M 19.671875 64.796875 
L 19.671875 8.109375 
L 31.59375 8.109375 
Q 46.6875 8.109375 53.6875 14.9375 
Q 60.6875 21.78125 60.6875 36.53125 
Q 60.6875 51.171875 53.6875 57.984375 
Q 46.6875 64.796875 31.59375 64.796875 
z
M 9.8125 72.90625 
L 30.078125 72.90625 
Q 51.265625 72.90625 61.171875 64.09375 
Q 71.09375 55.28125 71.09375 36.53125 
Q 71.09375 17.671875 61.125 8.828125 
Q 51.171875 0 30.078125 0 
L 9.8125 0 
z
" id="DejaVuSans-44"/>
      <path d="M 32.171875 -5.078125 
Q 28.375 -14.84375 24.75 -17.8125 
Q 21.140625 -20.796875 15.09375 -20.796875 
L 7.90625 -20.796875 
L 7.90625 -13.28125 
L 13.1875 -13.28125 
Q 16.890625 -13.28125 18.9375 -11.515625 
Q 21 -9.765625 23.484375 -3.21875 
L 25.09375 0.875 
L 2.984375 54.6875 
L 12.5 54.6875 
L 29.59375 11.921875 
L 46.6875 54.6875 
L 56.203125 54.6875 
z
" id="DejaVuSans-79"/>
     </defs>
     <g style="fill:#262626;" transform="translate(20.57325 396.748225)rotate(-90)scale(0.176 -0.176)">
      <use xlink:href="#DejaVuSans-50"/>
      <use x="60.255859" xlink:href="#DejaVuSans-6f"/>
      <use x="121.4375" xlink:href="#DejaVuSans-70"/>
      <use x="184.914062" xlink:href="#DejaVuSans-75"/>
      <use x="248.292969" xlink:href="#DejaVuSans-6c"/>
      <use x="276.076172" xlink:href="#DejaVuSans-61"/>
      <use x="337.355469" xlink:href="#DejaVuSans-74"/>
      <use x="376.564453" xlink:href="#DejaVuSans-69"/>
      <use x="404.347656" xlink:href="#DejaVuSans-6f"/>
      <use x="465.529297" xlink:href="#DejaVuSans-6e"/>
      <use x="528.908203" xlink:href="#DejaVuSans-20"/>
      <use x="560.695312" xlink:href="#DejaVuSans-44"/>
      <use x="637.697266" xlink:href="#DejaVuSans-65"/>
      <use x="699.220703" xlink:href="#DejaVuSans-6e"/>
      <use x="762.599609" xlink:href="#DejaVuSans-73"/>
      <use x="814.699219" xlink:href="#DejaVuSans-69"/>
      <use x="842.482422" xlink:href="#DejaVuSans-74"/>
      <use x="881.691406" xlink:href="#DejaVuSans-79"/>
     </g>
    </g>
   </g>
   <g id="PathCollection_1">
    <defs>
     <path d="M 0 5.6 
C 1.485137 5.6 2.909647 5.009949 3.959798 3.959798 
C 5.009949 2.909647 5.6 1.485137 5.6 0 
C 5.6 -1.485137 5.009949 -2.909647 3.959798 -3.959798 
C 2.909647 -5.009949 1.485137 -5.6 0 -5.6 
C -1.485137 -5.6 -2.909647 -5.009949 -3.959798 -3.959798 
C -5.009949 -2.909647 -5.6 -1.485137 -5.6 0 
C -5.6 1.485137 -5.009949 2.909647 -3.959798 3.959798 
C -2.909647 5.009949 -1.485137 5.6 0 5.6 
z
" id="m9137542705" style="stroke:#2ecc71;stroke-width:0.48;"/>
    </defs>
    <g clip-path="url(#pc68d767659)">
     <use style="fill:#2ecc71;stroke:#2ecc71;stroke-width:0.48;" x="109.461086" xlink:href="#m9137542705" y="453.697931"/>
     <use style="fill:#2ecc71;stroke:#2ecc71;stroke-width:0.48;" x="99.095233" xlink:href="#m9137542705" y="437.234433"/>
     <use style="fill:#2ecc71;stroke:#2ecc71;stroke-width:0.48;" x="92.29395" xlink:href="#m9137542705" y="431.985482"/>
     <use style="fill:#2ecc71;stroke:#2ecc71;stroke-width:0.48;" x="118.924204" xlink:href="#m9137542705" y="508.54909"/>
     <use style="fill:#2ecc71;stroke:#2ecc71;stroke-width:0.48;" x="84.345528" xlink:href="#m9137542705" y="447.482086"/>
     <use style="fill:#2ecc71;stroke:#2ecc71;stroke-width:0.48;" x="81.582495" xlink:href="#m9137542705" y="383.339738"/>
     <use style="fill:#2ecc71;stroke:#2ecc71;stroke-width:0.48;" x="103.252744" xlink:href="#m9137542705" y="462.812785"/>
     <use style="fill:#2ecc71;stroke:#2ecc71;stroke-width:0.48;" x="111.542736" xlink:href="#m9137542705" y="407.346118"/>
     <use style="fill:#2ecc71;stroke:#2ecc71;stroke-width:0.48;" x="116.370791" xlink:href="#m9137542705" y="483.212953"/>
     <use style="fill:#2ecc71;stroke:#2ecc71;stroke-width:0.48;" x="103.516438" xlink:href="#m9137542705" y="104.619219"/>
     <use style="fill:#2ecc71;stroke:#2ecc71;stroke-width:0.48;" x="113.978874" xlink:href="#m9137542705" y="256.84235"/>
     <use style="fill:#2ecc71;stroke:#2ecc71;stroke-width:0.48;" x="105.679746" xlink:href="#m9137542705" y="421.483022"/>
    </g>
   </g>
   <g id="PathCollection_2">
    <defs>
     <path d="M -0 7.919596 
L 7.919596 0 
L 0 -7.919596 
L -7.919596 -0 
z
" id="m47f700dfa5" style="stroke:#34495e;stroke-width:0.48;"/>
    </defs>
    <g clip-path="url(#pc68d767659)">
     <use style="fill:#34495e;stroke:#34495e;stroke-width:0.48;" x="219.590246" xlink:href="#m47f700dfa5" y="402.909121"/>
     <use style="fill:#34495e;stroke:#34495e;stroke-width:0.48;" x="211.001238" xlink:href="#m47f700dfa5" y="429.815638"/>
     <use style="fill:#34495e;stroke:#34495e;stroke-width:0.48;" x="204.570114" xlink:href="#m47f700dfa5" y="347.180867"/>
     <use style="fill:#34495e;stroke:#34495e;stroke-width:0.48;" x="199.027989" xlink:href="#m47f700dfa5" y="458.485742"/>
     <use style="fill:#34495e;stroke:#34495e;stroke-width:0.48;" x="214.993064" xlink:href="#m47f700dfa5" y="454.487595"/>
     <use style="fill:#34495e;stroke:#34495e;stroke-width:0.48;" x="152.086264" xlink:href="#m47f700dfa5" y="478.20572"/>
     <use style="fill:#34495e;stroke:#34495e;stroke-width:0.48;" x="241.176329" xlink:href="#m47f700dfa5" y="500.185716"/>
     <use style="fill:#34495e;stroke:#34495e;stroke-width:0.48;" x="158.879029" xlink:href="#m47f700dfa5" y="277.619972"/>
     <use style="fill:#34495e;stroke:#34495e;stroke-width:0.48;" x="134.424374" xlink:href="#m47f700dfa5" y="351.725259"/>
     <use style="fill:#34495e;stroke:#34495e;stroke-width:0.48;" x="187.45836" xlink:href="#m47f700dfa5" y="415.565607"/>
     <use style="fill:#34495e;stroke:#34495e;stroke-width:0.48;" x="149.270757" xlink:href="#m47f700dfa5" y="473.138938"/>
     <use style="fill:#34495e;stroke:#34495e;stroke-width:0.48;" x="122.167957" xlink:href="#m47f700dfa5" y="495.962633"/>
     <use style="fill:#34495e;stroke:#34495e;stroke-width:0.48;" x="136.12545" xlink:href="#m47f700dfa5" y="463.764075"/>
     <use style="fill:#34495e;stroke:#34495e;stroke-width:0.48;" x="136.039839" xlink:href="#m47f700dfa5" y="469.448259"/>
     <use style="fill:#34495e;stroke:#34495e;stroke-width:0.48;" x="219.687575" xlink:href="#m47f700dfa5" y="491.50936"/>
     <use style="fill:#34495e;stroke:#34495e;stroke-width:0.48;" x="231.287496" xlink:href="#m47f700dfa5" y="396.29917"/>
     <use style="fill:#34495e;stroke:#34495e;stroke-width:0.48;" x="174.66337" xlink:href="#m47f700dfa5" y="473.530844"/>
     <use style="fill:#34495e;stroke:#34495e;stroke-width:0.48;" x="172.64187" xlink:href="#m47f700dfa5" y="453.529059"/>
     <use style="fill:#34495e;stroke:#34495e;stroke-width:0.48;" x="124.806686" xlink:href="#m47f700dfa5" y="445.742083"/>
     <use style="fill:#34495e;stroke:#34495e;stroke-width:0.48;" x="226.443287" xlink:href="#m47f700dfa5" y="376.774674"/>
     <use style="fill:#34495e;stroke:#34495e;stroke-width:0.48;" x="200.81455" xlink:href="#m47f700dfa5" y="462.257397"/>
     <use style="fill:#34495e;stroke:#34495e;stroke-width:0.48;" x="149.189219" xlink:href="#m47f700dfa5" y="432.924701"/>
     <use style="fill:#34495e;stroke:#34495e;stroke-width:0.48;" x="146.067334" xlink:href="#m47f700dfa5" y="377.421797"/>
    </g>
   </g>
   <g id="PathCollection_3">
    <defs>
     <path d="M -5.6 5.6 
L 5.6 5.6 
L 5.6 -5.6 
L -5.6 -5.6 
z
" id="m7d3284c558" style="stroke:#e74c3c;stroke-width:0.48;"/>
    </defs>
    <g clip-path="url(#pc68d767659)">
     <use style="fill:#e74c3c;stroke:#e74c3c;stroke-width:0.48;" x="368.590963" xlink:href="#m7d3284c558" y="504.771448"/>
     <use style="fill:#e74c3c;stroke:#e74c3c;stroke-width:0.48;" x="243.898606" xlink:href="#m7d3284c558" y="464.936679"/>
     <use style="fill:#e74c3c;stroke:#e74c3c;stroke-width:0.48;" x="300.669315" xlink:href="#m7d3284c558" y="272.91306"/>
     <use style="fill:#e74c3c;stroke:#e74c3c;stroke-width:0.48;" x="514.285783" xlink:href="#m7d3284c558" y="97.851384"/>
     <use style="fill:#e74c3c;stroke:#e74c3c;stroke-width:0.48;" x="275.247599" xlink:href="#m7d3284c558" y="401.377032"/>
     <use style="fill:#e74c3c;stroke:#e74c3c;stroke-width:0.48;" x="268.656237" xlink:href="#m7d3284c558" y="477.264041"/>
     <use style="fill:#e74c3c;stroke:#e74c3c;stroke-width:0.48;" x="294.329231" xlink:href="#m7d3284c558" y="468.659295"/>
     <use style="fill:#e74c3c;stroke:#e74c3c;stroke-width:0.48;" x="302.485569" xlink:href="#m7d3284c558" y="472.928714"/>
     <use style="fill:#e74c3c;stroke:#e74c3c;stroke-width:0.48;" x="299.176632" xlink:href="#m7d3284c558" y="443.807833"/>
     <use style="fill:#e74c3c;stroke:#e74c3c;stroke-width:0.48;" x="257.71667" xlink:href="#m7d3284c558" y="402.141129"/>
     <use style="fill:#e74c3c;stroke:#e74c3c;stroke-width:0.48;" x="258.551791" xlink:href="#m7d3284c558" y="175.8482"/>
     <use style="fill:#e74c3c;stroke:#e74c3c;stroke-width:0.48;" x="270.609938" xlink:href="#m7d3284c558" y="466.878445"/>
    </g>
   </g>
   <g id="PolyCollection_1">
    <path clip-path="url(#pc68d767659)" d="M 59.7935 365.576576 
L 59.7935 496.980021 
L 64.624486 493.762574 
L 69.455471 490.842823 
L 74.286457 488.084633 
L 79.117442 485.365407 
L 83.948428 483.225887 
L 88.779413 480.096697 
L 93.610399 477.711332 
L 98.441384 475.35307 
L 103.27237 473.058238 
L 108.103355 470.343706 
L 112.934341 467.191979 
L 117.765326 464.691545 
L 122.596312 462.199012 
L 127.427297 459.486159 
L 132.258283 457.132068 
L 137.089268 455.092749 
L 141.920254 452.888881 
L 146.751239 450.367645 
L 151.582225 448.038132 
L 156.41321 445.89398 
L 161.244196 443.826479 
L 166.075181 442.081939 
L 170.906167 440.700231 
L 175.737153 440.365344 
L 180.568138 439.51003 
L 185.399124 438.298576 
L 190.230109 437.982471 
L 195.061095 437.788716 
L 199.89208 437.614414 
L 204.723066 438.202869 
L 209.554051 438.610061 
L 214.385037 439.7472 
L 219.216022 439.676213 
L 224.047008 440.235934 
L 228.877993 441.408607 
L 233.708979 442.871932 
L 238.539964 443.504803 
L 243.37095 445.114733 
L 248.201935 446.568813 
L 253.032921 447.576561 
L 257.863906 448.277989 
L 262.694892 448.826207 
L 267.525877 450.582842 
L 272.356863 451.98638 
L 277.187849 452.909662 
L 282.018834 454.639678 
L 286.84982 456.56422 
L 291.680805 457.692569 
L 296.511791 458.966813 
L 301.342776 460.749531 
L 306.173762 463.358585 
L 311.004747 465.667834 
L 315.835733 467.390248 
L 320.666718 469.086065 
L 325.497704 470.479046 
L 330.328689 471.637092 
L 335.159675 472.79426 
L 339.99066 474.278931 
L 344.821646 476.152292 
L 349.652631 478.060682 
L 354.483617 479.602789 
L 359.314602 481.166573 
L 364.145588 482.43991 
L 368.976573 483.702608 
L 373.807559 484.965306 
L 378.638544 486.178551 
L 383.46953 487.374067 
L 388.300516 489.059365 
L 393.131501 490.909801 
L 397.962487 492.758572 
L 402.793472 494.591299 
L 407.624458 496.258663 
L 412.455443 497.635613 
L 417.286429 499.012175 
L 422.117414 500.37772 
L 426.9484 501.743264 
L 431.779385 503.549331 
L 436.610371 505.459044 
L 441.441356 507.053085 
L 446.272342 508.454945 
L 451.103327 509.856806 
L 455.934313 511.258667 
L 460.765298 512.660527 
L 465.596284 514.058044 
L 470.427269 515.450346 
L 475.258255 516.842649 
L 480.08924 518.234951 
L 484.920226 519.627254 
L 489.751212 521.019556 
L 494.582197 522.411858 
L 499.413183 523.804161 
L 504.244168 525.196463 
L 509.075154 526.588766 
L 513.906139 527.981068 
L 518.737125 529.37337 
L 523.56811 530.765673 
L 528.399096 532.157975 
L 533.230081 533.550278 
L 538.061067 535.010782 
L 538.061067 183.656179 
L 538.061067 183.656179 
L 533.230081 186.872558 
L 528.399096 190.088937 
L 523.56811 193.305316 
L 518.737125 196.521696 
L 513.906139 199.738075 
L 509.075154 202.954454 
L 504.244168 206.170833 
L 499.413183 209.416959 
L 494.582197 212.665732 
L 489.751212 215.914506 
L 484.920226 219.16328 
L 480.08924 222.412054 
L 475.258255 225.459481 
L 470.427269 228.678621 
L 465.596284 231.892902 
L 460.765298 235.100608 
L 455.934313 238.308314 
L 451.103327 241.213259 
L 446.272342 243.728817 
L 441.441356 246.318178 
L 436.610371 249.210965 
L 431.779385 252.106725 
L 426.9484 255.014758 
L 422.117414 257.922792 
L 417.286429 260.830825 
L 412.455443 263.832048 
L 407.624458 266.942211 
L 402.793472 270.052374 
L 397.962487 273.168848 
L 393.131501 276.285498 
L 388.300516 279.402149 
L 383.46953 282.518799 
L 378.638544 285.465305 
L 373.807559 288.502608 
L 368.976573 291.476121 
L 364.145588 294.064527 
L 359.314602 296.742183 
L 354.483617 299.562531 
L 349.652631 302.374612 
L 344.821646 305.193775 
L 339.99066 308.017054 
L 335.159675 311.066966 
L 330.328689 314.367419 
L 325.497704 316.879262 
L 320.666718 320.102497 
L 315.835733 322.866235 
L 311.004747 325.488985 
L 306.173762 328.59555 
L 301.342776 331.814853 
L 296.511791 334.869374 
L 291.680805 337.711113 
L 286.84982 339.926958 
L 282.018834 343.176575 
L 277.187849 345.204999 
L 272.356863 347.914171 
L 267.525877 350.745448 
L 262.694892 353.705668 
L 257.863906 356.23888 
L 253.032921 358.390689 
L 248.201935 360.756719 
L 243.37095 362.842302 
L 238.539964 364.701012 
L 233.708979 367.035891 
L 228.877993 369.464879 
L 224.047008 371.39156 
L 219.216022 373.087953 
L 214.385037 375.547959 
L 209.554051 377.482345 
L 204.723066 379.49541 
L 199.89208 381.671982 
L 195.061095 383.467717 
L 190.230109 385.855035 
L 185.399124 387.659556 
L 180.568138 388.441429 
L 175.737153 389.219514 
L 170.906167 389.999889 
L 166.075181 390.872665 
L 161.244196 391.262835 
L 156.41321 390.465864 
L 151.582225 389.41554 
L 146.751239 388.90718 
L 141.920254 388.141191 
L 137.089268 387.658224 
L 132.258283 387.328281 
L 127.427297 386.631372 
L 122.596312 385.770332 
L 117.765326 385.034588 
L 112.934341 383.183069 
L 108.103355 381.953597 
L 103.27237 380.204392 
L 98.441384 379.026725 
L 93.610399 376.989032 
L 88.779413 375.606291 
L 83.948428 374.092679 
L 79.117442 372.643017 
L 74.286457 371.034772 
L 69.455471 369.325375 
L 64.624486 367.342448 
L 59.7935 365.576576 
z
" style="fill:#4c72b0;fill-opacity:0.15;"/>
   </g>
   <g id="line2d_27">
    <path clip-path="url(#pc68d767659)" d="M 59.7935 444.050865 
L 64.624486 442.886133 
L 69.455471 441.7214 
L 74.286457 440.556668 
L 79.117442 439.391935 
L 83.948428 438.227203 
L 88.779413 437.06247 
L 93.610399 435.897738 
L 98.441384 434.733005 
L 103.27237 433.568273 
L 108.103355 432.40354 
L 112.934341 431.238808 
L 117.765326 430.074076 
L 122.596312 428.909343 
L 127.427297 427.744611 
L 132.258283 426.579878 
L 137.089268 425.415146 
L 141.920254 424.250413 
L 146.751239 423.085681 
L 151.582225 421.920948 
L 156.41321 420.756216 
L 161.244196 419.591483 
L 166.075181 418.426751 
L 170.906167 417.262018 
L 175.737153 416.097286 
L 180.568138 414.932553 
L 185.399124 413.767821 
L 190.230109 412.603088 
L 195.061095 411.438356 
L 199.89208 410.273623 
L 204.723066 409.108891 
L 209.554051 407.944158 
L 214.385037 406.779426 
L 219.216022 405.614694 
L 224.047008 404.449961 
L 228.877993 403.285229 
L 233.708979 402.120496 
L 238.539964 400.955764 
L 243.37095 399.791031 
L 248.201935 398.626299 
L 253.032921 397.461566 
L 257.863906 396.296834 
L 262.694892 395.132101 
L 267.525877 393.967369 
L 272.356863 392.802636 
L 277.187849 391.637904 
L 282.018834 390.473171 
L 286.84982 389.308439 
L 291.680805 388.143706 
L 296.511791 386.978974 
L 301.342776 385.814241 
L 306.173762 384.649509 
L 311.004747 383.484776 
L 315.835733 382.320044 
L 320.666718 381.155311 
L 325.497704 379.990579 
L 330.328689 378.825847 
L 335.159675 377.661114 
L 339.99066 376.496382 
L 344.821646 375.331649 
L 349.652631 374.166917 
L 354.483617 373.002184 
L 359.314602 371.837452 
L 364.145588 370.672719 
L 368.976573 369.507987 
L 373.807559 368.343254 
L 378.638544 367.178522 
L 383.46953 366.013789 
L 388.300516 364.849057 
L 393.131501 363.684324 
L 397.962487 362.519592 
L 402.793472 361.354859 
L 407.624458 360.190127 
L 412.455443 359.025394 
L 417.286429 357.860662 
L 422.117414 356.695929 
L 426.9484 355.531197 
L 431.779385 354.366464 
L 436.610371 353.201732 
L 441.441356 352.037 
L 446.272342 350.872267 
L 451.103327 349.707535 
L 455.934313 348.542802 
L 460.765298 347.37807 
L 465.596284 346.213337 
L 470.427269 345.048605 
L 475.258255 343.883872 
L 480.08924 342.71914 
L 484.920226 341.554407 
L 489.751212 340.389675 
L 494.582197 339.224942 
L 499.413183 338.06021 
L 504.244168 336.895477 
L 509.075154 335.730745 
L 513.906139 334.566012 
L 518.737125 333.40128 
L 523.56811 332.236547 
L 528.399096 331.071815 
L 533.230081 329.907082 
L 538.061067 328.74235 
" style="fill:none;stroke:#4c72b0;stroke-linecap:round;stroke-width:4.2;"/>
   </g>
   <g id="patch_3">
    <path d="M 59.7935 557.1166 
L 59.7935 70.7886 
" style="fill:none;"/>
   </g>
   <g id="patch_4">
    <path d="M 59.7935 557.1166 
L 538.061067 557.1166 
" style="fill:none;"/>
   </g>
   <g id="text_16">
    <!-- Residual Analysis -->
    <defs>
     <path d="M 44.390625 34.1875 
Q 47.5625 33.109375 50.5625 29.59375 
Q 53.5625 26.078125 56.59375 19.921875 
L 66.609375 0 
L 56 0 
L 46.6875 18.703125 
Q 43.0625 26.03125 39.671875 28.421875 
Q 36.28125 30.8125 30.421875 30.8125 
L 19.671875 30.8125 
L 19.671875 0 
L 9.8125 0 
L 9.8125 72.90625 
L 32.078125 72.90625 
Q 44.578125 72.90625 50.734375 67.671875 
Q 56.890625 62.453125 56.890625 51.90625 
Q 56.890625 45.015625 53.6875 40.46875 
Q 50.484375 35.9375 44.390625 34.1875 
z
M 19.671875 64.796875 
L 19.671875 38.921875 
L 32.078125 38.921875 
Q 39.203125 38.921875 42.84375 42.21875 
Q 46.484375 45.515625 46.484375 51.90625 
Q 46.484375 58.296875 42.84375 61.546875 
Q 39.203125 64.796875 32.078125 64.796875 
z
" id="DejaVuSans-52"/>
     <path d="M 45.40625 46.390625 
L 45.40625 75.984375 
L 54.390625 75.984375 
L 54.390625 0 
L 45.40625 0 
L 45.40625 8.203125 
Q 42.578125 3.328125 38.25 0.953125 
Q 33.9375 -1.421875 27.875 -1.421875 
Q 17.96875 -1.421875 11.734375 6.484375 
Q 5.515625 14.40625 5.515625 27.296875 
Q 5.515625 40.1875 11.734375 48.09375 
Q 17.96875 56 27.875 56 
Q 33.9375 56 38.25 53.625 
Q 42.578125 51.265625 45.40625 46.390625 
z
M 14.796875 27.296875 
Q 14.796875 17.390625 18.875 11.75 
Q 22.953125 6.109375 30.078125 6.109375 
Q 37.203125 6.109375 41.296875 11.75 
Q 45.40625 17.390625 45.40625 27.296875 
Q 45.40625 37.203125 41.296875 42.84375 
Q 37.203125 48.484375 30.078125 48.484375 
Q 22.953125 48.484375 18.875 42.84375 
Q 14.796875 37.203125 14.796875 27.296875 
z
" id="DejaVuSans-64"/>
    </defs>
    <g style="fill:#262626;" transform="translate(215.356283 21.789)scale(0.192 -0.192)">
     <use xlink:href="#DejaVuSans-52"/>
     <use x="69.419922" xlink:href="#DejaVuSans-65"/>
     <use x="130.943359" xlink:href="#DejaVuSans-73"/>
     <use x="183.042969" xlink:href="#DejaVuSans-69"/>
     <use x="210.826172" xlink:href="#DejaVuSans-64"/>
     <use x="274.302734" xlink:href="#DejaVuSans-75"/>
     <use x="337.681641" xlink:href="#DejaVuSans-61"/>
     <use x="398.960938" xlink:href="#DejaVuSans-6c"/>
     <use x="426.744141" xlink:href="#DejaVuSans-20"/>
     <use x="458.53125" xlink:href="#DejaVuSans-41"/>
     <use x="526.939453" xlink:href="#DejaVuSans-6e"/>
     <use x="590.318359" xlink:href="#DejaVuSans-61"/>
     <use x="651.597656" xlink:href="#DejaVuSans-6c"/>
     <use x="679.380859" xlink:href="#DejaVuSans-79"/>
     <use x="738.560547" xlink:href="#DejaVuSans-73"/>
     <use x="790.660156" xlink:href="#DejaVuSans-69"/>
     <use x="818.443359" xlink:href="#DejaVuSans-73"/>
    </g>
    <!-- Pearson: 0.2183, p-value: 0.1405 -->
    <defs>
     <path d="M 11.71875 12.40625 
L 22.015625 12.40625 
L 22.015625 0 
L 11.71875 0 
z
M 11.71875 51.703125 
L 22.015625 51.703125 
L 22.015625 39.3125 
L 11.71875 39.3125 
z
" id="DejaVuSans-3a"/>
     <path d="M 10.6875 12.40625 
L 21 12.40625 
L 21 0 
L 10.6875 0 
z
" id="DejaVuSans-2e"/>
     <path d="M 11.71875 12.40625 
L 22.015625 12.40625 
L 22.015625 4 
L 14.015625 -11.625 
L 7.71875 -11.625 
L 11.71875 4 
z
" id="DejaVuSans-2c"/>
     <path d="M 4.890625 31.390625 
L 31.203125 31.390625 
L 31.203125 23.390625 
L 4.890625 23.390625 
z
" id="DejaVuSans-2d"/>
     <path d="M 2.984375 54.6875 
L 12.5 54.6875 
L 29.59375 8.796875 
L 46.6875 54.6875 
L 56.203125 54.6875 
L 35.6875 0 
L 23.484375 0 
z
" id="DejaVuSans-76"/>
    </defs>
    <g style="fill:#262626;" transform="translate(138.815783 43.2888)scale(0.192 -0.192)">
     <use xlink:href="#DejaVuSans-50"/>
     <use x="60.255859" xlink:href="#DejaVuSans-65"/>
     <use x="121.779297" xlink:href="#DejaVuSans-61"/>
     <use x="183.058594" xlink:href="#DejaVuSans-72"/>
     <use x="224.171875" xlink:href="#DejaVuSans-73"/>
     <use x="276.271484" xlink:href="#DejaVuSans-6f"/>
     <use x="337.453125" xlink:href="#DejaVuSans-6e"/>
     <use x="400.832031" xlink:href="#DejaVuSans-3a"/>
     <use x="434.523438" xlink:href="#DejaVuSans-20"/>
     <use x="466.310547" xlink:href="#DejaVuSans-30"/>
     <use x="529.933594" xlink:href="#DejaVuSans-2e"/>
     <use x="561.720703" xlink:href="#DejaVuSans-32"/>
     <use x="625.34375" xlink:href="#DejaVuSans-31"/>
     <use x="688.966797" xlink:href="#DejaVuSans-38"/>
     <use x="752.589844" xlink:href="#DejaVuSans-33"/>
     <use x="816.212891" xlink:href="#DejaVuSans-2c"/>
     <use x="848" xlink:href="#DejaVuSans-20"/>
     <use x="879.787109" xlink:href="#DejaVuSans-70"/>
     <use x="943.263672" xlink:href="#DejaVuSans-2d"/>
     <use x="979.316406" xlink:href="#DejaVuSans-76"/>
     <use x="1038.496094" xlink:href="#DejaVuSans-61"/>
     <use x="1099.775391" xlink:href="#DejaVuSans-6c"/>
     <use x="1127.558594" xlink:href="#DejaVuSans-75"/>
     <use x="1190.9375" xlink:href="#DejaVuSans-65"/>
     <use x="1252.460938" xlink:href="#DejaVuSans-3a"/>
     <use x="1286.152344" xlink:href="#DejaVuSans-20"/>
     <use x="1317.939453" xlink:href="#DejaVuSans-30"/>
     <use x="1381.5625" xlink:href="#DejaVuSans-2e"/>
     <use x="1413.349609" xlink:href="#DejaVuSans-31"/>
     <use x="1476.972656" xlink:href="#DejaVuSans-34"/>
     <use x="1540.595703" xlink:href="#DejaVuSans-30"/>
     <use x="1604.21875" xlink:href="#DejaVuSans-35"/>
    </g>
    <!-- Spearman: -0.0401, p-value: 0.7889 -->
    <defs>
     <path d="M 53.515625 70.515625 
L 53.515625 60.890625 
Q 47.90625 63.578125 42.921875 64.890625 
Q 37.9375 66.21875 33.296875 66.21875 
Q 25.25 66.21875 20.875 63.09375 
Q 16.5 59.96875 16.5 54.203125 
Q 16.5 49.359375 19.40625 46.890625 
Q 22.3125 44.4375 30.421875 42.921875 
L 36.375 41.703125 
Q 47.40625 39.59375 52.65625 34.296875 
Q 57.90625 29 57.90625 20.125 
Q 57.90625 9.515625 50.796875 4.046875 
Q 43.703125 -1.421875 29.984375 -1.421875 
Q 24.8125 -1.421875 18.96875 -0.25 
Q 13.140625 0.921875 6.890625 3.21875 
L 6.890625 13.375 
Q 12.890625 10.015625 18.65625 8.296875 
Q 24.421875 6.59375 29.984375 6.59375 
Q 38.421875 6.59375 43.015625 9.90625 
Q 47.609375 13.234375 47.609375 19.390625 
Q 47.609375 24.75 44.3125 27.78125 
Q 41.015625 30.8125 33.5 32.328125 
L 27.484375 33.5 
Q 16.453125 35.6875 11.515625 40.375 
Q 6.59375 45.0625 6.59375 53.421875 
Q 6.59375 63.09375 13.40625 68.65625 
Q 20.21875 74.21875 32.171875 74.21875 
Q 37.3125 74.21875 42.625 73.28125 
Q 47.953125 72.359375 53.515625 70.515625 
z
" id="DejaVuSans-53"/>
     <path d="M 52 44.1875 
Q 55.375 50.25 60.0625 53.125 
Q 64.75 56 71.09375 56 
Q 79.640625 56 84.28125 50.015625 
Q 88.921875 44.046875 88.921875 33.015625 
L 88.921875 0 
L 79.890625 0 
L 79.890625 32.71875 
Q 79.890625 40.578125 77.09375 44.375 
Q 74.3125 48.1875 68.609375 48.1875 
Q 61.625 48.1875 57.5625 43.546875 
Q 53.515625 38.921875 53.515625 30.90625 
L 53.515625 0 
L 44.484375 0 
L 44.484375 32.71875 
Q 44.484375 40.625 41.703125 44.40625 
Q 38.921875 48.1875 33.109375 48.1875 
Q 26.21875 48.1875 22.15625 43.53125 
Q 18.109375 38.875 18.109375 30.90625 
L 18.109375 0 
L 9.078125 0 
L 9.078125 54.6875 
L 18.109375 54.6875 
L 18.109375 46.1875 
Q 21.1875 51.21875 25.484375 53.609375 
Q 29.78125 56 35.6875 56 
Q 41.65625 56 45.828125 52.96875 
Q 50 49.953125 52 44.1875 
z
" id="DejaVuSans-6d"/>
     <path d="M 8.203125 72.90625 
L 55.078125 72.90625 
L 55.078125 68.703125 
L 28.609375 0 
L 18.3125 0 
L 43.21875 64.59375 
L 8.203125 64.59375 
z
" id="DejaVuSans-37"/>
     <path d="M 10.984375 1.515625 
L 10.984375 10.5 
Q 14.703125 8.734375 18.5 7.8125 
Q 22.3125 6.890625 25.984375 6.890625 
Q 35.75 6.890625 40.890625 13.453125 
Q 46.046875 20.015625 46.78125 33.40625 
Q 43.953125 29.203125 39.59375 26.953125 
Q 35.25 24.703125 29.984375 24.703125 
Q 19.046875 24.703125 12.671875 31.3125 
Q 6.296875 37.9375 6.296875 49.421875 
Q 6.296875 60.640625 12.9375 67.421875 
Q 19.578125 74.21875 30.609375 74.21875 
Q 43.265625 74.21875 49.921875 64.515625 
Q 56.59375 54.828125 56.59375 36.375 
Q 56.59375 19.140625 48.40625 8.859375 
Q 40.234375 -1.421875 26.421875 -1.421875 
Q 22.703125 -1.421875 18.890625 -0.6875 
Q 15.09375 0.046875 10.984375 1.515625 
z
M 30.609375 32.421875 
Q 37.25 32.421875 41.125 36.953125 
Q 45.015625 41.5 45.015625 49.421875 
Q 45.015625 57.28125 41.125 61.84375 
Q 37.25 66.40625 30.609375 66.40625 
Q 23.96875 66.40625 20.09375 61.84375 
Q 16.21875 57.28125 16.21875 49.421875 
Q 16.21875 41.5 20.09375 36.953125 
Q 23.96875 32.421875 30.609375 32.421875 
z
" id="DejaVuSans-39"/>
    </defs>
    <g style="fill:#262626;" transform="translate(124.589783 64.7886)scale(0.192 -0.192)">
     <use xlink:href="#DejaVuSans-53"/>
     <use x="63.476562" xlink:href="#DejaVuSans-70"/>
     <use x="126.953125" xlink:href="#DejaVuSans-65"/>
     <use x="188.476562" xlink:href="#DejaVuSans-61"/>
     <use x="249.755859" xlink:href="#DejaVuSans-72"/>
     <use x="290.853516" xlink:href="#DejaVuSans-6d"/>
     <use x="388.265625" xlink:href="#DejaVuSans-61"/>
     <use x="449.544922" xlink:href="#DejaVuSans-6e"/>
     <use x="512.923828" xlink:href="#DejaVuSans-3a"/>
     <use x="546.615234" xlink:href="#DejaVuSans-20"/>
     <use x="578.402344" xlink:href="#DejaVuSans-2d"/>
     <use x="614.486328" xlink:href="#DejaVuSans-30"/>
     <use x="678.109375" xlink:href="#DejaVuSans-2e"/>
     <use x="709.896484" xlink:href="#DejaVuSans-30"/>
     <use x="773.519531" xlink:href="#DejaVuSans-34"/>
     <use x="837.142578" xlink:href="#DejaVuSans-30"/>
     <use x="900.765625" xlink:href="#DejaVuSans-31"/>
     <use x="964.388672" xlink:href="#DejaVuSans-2c"/>
     <use x="996.175781" xlink:href="#DejaVuSans-20"/>
     <use x="1027.962891" xlink:href="#DejaVuSans-70"/>
     <use x="1091.439453" xlink:href="#DejaVuSans-2d"/>
     <use x="1127.492188" xlink:href="#DejaVuSans-76"/>
     <use x="1186.671875" xlink:href="#DejaVuSans-61"/>
     <use x="1247.951172" xlink:href="#DejaVuSans-6c"/>
     <use x="1275.734375" xlink:href="#DejaVuSans-75"/>
     <use x="1339.113281" xlink:href="#DejaVuSans-65"/>
     <use x="1400.636719" xlink:href="#DejaVuSans-3a"/>
     <use x="1434.328125" xlink:href="#DejaVuSans-20"/>
     <use x="1466.115234" xlink:href="#DejaVuSans-30"/>
     <use x="1529.738281" xlink:href="#DejaVuSans-2e"/>
     <use x="1561.525391" xlink:href="#DejaVuSans-37"/>
     <use x="1625.148438" xlink:href="#DejaVuSans-38"/>
     <use x="1688.771484" xlink:href="#DejaVuSans-38"/>
     <use x="1752.394531" xlink:href="#DejaVuSans-39"/>
    </g>
   </g>
  </g>
  <g id="legend_1">
   <g id="text_17">
    <!-- error_category -->
    <defs>
     <path d="M 50.984375 -16.609375 
L 50.984375 -23.578125 
L -0.984375 -23.578125 
L -0.984375 -16.609375 
z
" id="DejaVuSans-5f"/>
     <path d="M 48.78125 52.59375 
L 48.78125 44.1875 
Q 44.96875 46.296875 41.140625 47.34375 
Q 37.3125 48.390625 33.40625 48.390625 
Q 24.65625 48.390625 19.8125 42.84375 
Q 14.984375 37.3125 14.984375 27.296875 
Q 14.984375 17.28125 19.8125 11.734375 
Q 24.65625 6.203125 33.40625 6.203125 
Q 37.3125 6.203125 41.140625 7.25 
Q 44.96875 8.296875 48.78125 10.40625 
L 48.78125 2.09375 
Q 45.015625 0.34375 40.984375 -0.53125 
Q 36.96875 -1.421875 32.421875 -1.421875 
Q 20.0625 -1.421875 12.78125 6.34375 
Q 5.515625 14.109375 5.515625 27.296875 
Q 5.515625 40.671875 12.859375 48.328125 
Q 20.21875 56 33.015625 56 
Q 37.15625 56 41.109375 55.140625 
Q 45.0625 54.296875 48.78125 52.59375 
z
" id="DejaVuSans-63"/>
     <path d="M 45.40625 27.984375 
Q 45.40625 37.75 41.375 43.109375 
Q 37.359375 48.484375 30.078125 48.484375 
Q 22.859375 48.484375 18.828125 43.109375 
Q 14.796875 37.75 14.796875 27.984375 
Q 14.796875 18.265625 18.828125 12.890625 
Q 22.859375 7.515625 30.078125 7.515625 
Q 37.359375 7.515625 41.375 12.890625 
Q 45.40625 18.265625 45.40625 27.984375 
z
M 54.390625 6.78125 
Q 54.390625 -7.171875 48.1875 -13.984375 
Q 42 -20.796875 29.203125 -20.796875 
Q 24.46875 -20.796875 20.265625 -20.09375 
Q 16.0625 -19.390625 12.109375 -17.921875 
L 12.109375 -9.1875 
Q 16.0625 -11.328125 19.921875 -12.34375 
Q 23.78125 -13.375 27.78125 -13.375 
Q 36.625 -13.375 41.015625 -8.765625 
Q 45.40625 -4.15625 45.40625 5.171875 
L 45.40625 9.625 
Q 42.625 4.78125 38.28125 2.390625 
Q 33.9375 0 27.875 0 
Q 17.828125 0 11.671875 7.65625 
Q 5.515625 15.328125 5.515625 27.984375 
Q 5.515625 40.671875 11.671875 48.328125 
Q 17.828125 56 27.875 56 
Q 33.9375 56 38.28125 53.609375 
Q 42.625 51.21875 45.40625 46.390625 
L 45.40625 54.6875 
L 54.390625 54.6875 
z
" id="DejaVuSans-67"/>
    </defs>
    <g style="fill:#262626;" transform="translate(543.677004 274.710037)scale(0.1496 -0.1496)">
     <use xlink:href="#DejaVuSans-65"/>
     <use x="61.523438" xlink:href="#DejaVuSans-72"/>
     <use x="102.621094" xlink:href="#DejaVuSans-72"/>
     <use x="143.703125" xlink:href="#DejaVuSans-6f"/>
     <use x="204.884766" xlink:href="#DejaVuSans-72"/>
     <use x="245.998047" xlink:href="#DejaVuSans-5f"/>
     <use x="295.998047" xlink:href="#DejaVuSans-63"/>
     <use x="350.978516" xlink:href="#DejaVuSans-61"/>
     <use x="412.257812" xlink:href="#DejaVuSans-74"/>
     <use x="451.466797" xlink:href="#DejaVuSans-65"/>
     <use x="512.990234" xlink:href="#DejaVuSans-67"/>
     <use x="576.466797" xlink:href="#DejaVuSans-6f"/>
     <use x="637.648438" xlink:href="#DejaVuSans-72"/>
     <use x="678.761719" xlink:href="#DejaVuSans-79"/>
    </g>
   </g>
   <g id="PathCollection_4">
    <g>
     <use style="fill:#2ecc71;stroke:#2ecc71;stroke-width:0.48;" x="559.160817" xlink:href="#m9137542705" y="294.194825"/>
    </g>
   </g>
   <g id="text_18">
    <!-- Good -->
    <defs>
     <path d="M 59.515625 10.40625 
L 59.515625 29.984375 
L 43.40625 29.984375 
L 43.40625 38.09375 
L 69.28125 38.09375 
L 69.28125 6.78125 
Q 63.578125 2.734375 56.6875 0.65625 
Q 49.8125 -1.421875 42 -1.421875 
Q 24.90625 -1.421875 15.25 8.5625 
Q 5.609375 18.5625 5.609375 36.375 
Q 5.609375 54.25 15.25 64.234375 
Q 24.90625 74.21875 42 74.21875 
Q 49.125 74.21875 55.546875 72.453125 
Q 61.96875 70.703125 67.390625 67.28125 
L 67.390625 56.78125 
Q 61.921875 61.421875 55.765625 63.765625 
Q 49.609375 66.109375 42.828125 66.109375 
Q 29.4375 66.109375 22.71875 58.640625 
Q 16.015625 51.171875 16.015625 36.375 
Q 16.015625 21.625 22.71875 14.15625 
Q 29.4375 6.6875 42.828125 6.6875 
Q 48.046875 6.6875 52.140625 7.59375 
Q 56.25 8.5 59.515625 10.40625 
z
" id="DejaVuSans-47"/>
    </defs>
    <g style="fill:#262626;" transform="translate(587.960817 298.394825)scale(0.16 -0.16)">
     <use xlink:href="#DejaVuSans-47"/>
     <use x="77.490234" xlink:href="#DejaVuSans-6f"/>
     <use x="138.671875" xlink:href="#DejaVuSans-6f"/>
     <use x="199.853516" xlink:href="#DejaVuSans-64"/>
    </g>
   </g>
   <g id="PathCollection_5">
    <g>
     <use style="fill:#34495e;stroke:#34495e;stroke-width:0.48;" x="559.160817" xlink:href="#m47f700dfa5" y="317.679825"/>
    </g>
   </g>
   <g id="text_19">
    <!-- Average -->
    <g style="fill:#262626;" transform="translate(587.960817 321.879825)scale(0.16 -0.16)">
     <use xlink:href="#DejaVuSans-41"/>
     <use x="68.330078" xlink:href="#DejaVuSans-76"/>
     <use x="127.509766" xlink:href="#DejaVuSans-65"/>
     <use x="189.033203" xlink:href="#DejaVuSans-72"/>
     <use x="230.146484" xlink:href="#DejaVuSans-61"/>
     <use x="291.425781" xlink:href="#DejaVuSans-67"/>
     <use x="354.902344" xlink:href="#DejaVuSans-65"/>
    </g>
   </g>
   <g id="PathCollection_6">
    <g>
     <use style="fill:#e74c3c;stroke:#e74c3c;stroke-width:0.48;" x="559.160817" xlink:href="#m7d3284c558" y="341.164825"/>
    </g>
   </g>
   <g id="text_20">
    <!-- Bad -->
    <defs>
     <path d="M 19.671875 34.8125 
L 19.671875 8.109375 
L 35.5 8.109375 
Q 43.453125 8.109375 47.28125 11.40625 
Q 51.125 14.703125 51.125 21.484375 
Q 51.125 28.328125 47.28125 31.5625 
Q 43.453125 34.8125 35.5 34.8125 
z
M 19.671875 64.796875 
L 19.671875 42.828125 
L 34.28125 42.828125 
Q 41.5 42.828125 45.03125 45.53125 
Q 48.578125 48.25 48.578125 53.8125 
Q 48.578125 59.328125 45.03125 62.0625 
Q 41.5 64.796875 34.28125 64.796875 
z
M 9.8125 72.90625 
L 35.015625 72.90625 
Q 46.296875 72.90625 52.390625 68.21875 
Q 58.5 63.53125 58.5 54.890625 
Q 58.5 48.1875 55.375 44.234375 
Q 52.25 40.28125 46.1875 39.3125 
Q 53.46875 37.75 57.5 32.78125 
Q 61.53125 27.828125 61.53125 20.40625 
Q 61.53125 10.640625 54.890625 5.3125 
Q 48.25 0 35.984375 0 
L 9.8125 0 
z
" id="DejaVuSans-42"/>
    </defs>
    <g style="fill:#262626;" transform="translate(587.960817 345.364825)scale(0.16 -0.16)">
     <use xlink:href="#DejaVuSans-42"/>
     <use x="68.603516" xlink:href="#DejaVuSans-61"/>
     <use x="129.882812" xlink:href="#DejaVuSans-64"/>
    </g>
   </g>
  </g>
 </g>
 <defs>
  <clipPath id="pc68d767659">
   <rect height="486.328" width="478.267567" x="59.7935" y="70.7886"/>
  </clipPath>
 </defs>
</svg>
