<?xml version="1.0" encoding="utf-8" standalone="no"?>
<!DOCTYPE svg PUBLIC "-//W3C//DTD SVG 1.1//EN"
  "http://www.w3.org/Graphics/SVG/1.1/DTD/svg11.dtd">
<!-- Created with matplotlib (http://matplotlib.org/) -->
<svg height="612pt" version="1.1" viewBox="0 0 705 612" width="705pt" xmlns="http://www.w3.org/2000/svg" xmlns:xlink="http://www.w3.org/1999/xlink">
 <defs>
  <style type="text/css">
*{stroke-linecap:butt;stroke-linejoin:round;}
  </style>
 </defs>
 <g id="figure_1">
  <g id="patch_1">
   <path d="M 0 612.0351 
L 705.467996 612.0351 
L 705.467996 0 
L 0 0 
z
" style="fill:#ffffff;"/>
  </g>
  <g id="axes_1">
   <g id="patch_2">
    <path d="M 75.0585 557.1166 
L 527.368746 557.1166 
L 527.368746 70.7886 
L 75.0585 70.7886 
z
" style="fill:#eaeaf2;"/>
   </g>
   <g id="matplotlib.axis_1">
    <g id="xtick_1">
     <g id="line2d_1">
      <path clip-path="url(#p30b017198e)" d="M 93.404212 557.1166 
L 93.404212 70.7886 
" style="fill:none;stroke:#ffffff;stroke-linecap:round;stroke-width:1.6;"/>
     </g>
     <g id="line2d_2"/>
     <g id="text_1">
      <!-- 0 -->
      <defs>
       <path d="M 31.78125 66.40625 
Q 24.171875 66.40625 20.328125 58.90625 
Q 16.5 51.421875 16.5 36.375 
Q 16.5 21.390625 20.328125 13.890625 
Q 24.171875 6.390625 31.78125 6.390625 
Q 39.453125 6.390625 43.28125 13.890625 
Q 47.125 21.390625 47.125 36.375 
Q 47.125 51.421875 43.28125 58.90625 
Q 39.453125 66.40625 31.78125 66.40625 
z
M 31.78125 74.21875 
Q 44.046875 74.21875 50.515625 64.515625 
Q 56.984375 54.828125 56.984375 36.375 
Q 56.984375 17.96875 50.515625 8.265625 
Q 44.046875 -1.421875 31.78125 -1.421875 
Q 19.53125 -1.421875 13.0625 8.265625 
Q 6.59375 17.96875 6.59375 36.375 
Q 6.59375 54.828125 13.0625 64.515625 
Q 19.53125 74.21875 31.78125 74.21875 
z
" id="DejaVuSans-30"/>
      </defs>
      <g style="fill:#262626;" transform="translate(88.314212 580.4741)scale(0.16 -0.16)">
       <use xlink:href="#DejaVuSans-30"/>
      </g>
     </g>
    </g>
    <g id="xtick_2">
     <g id="line2d_3">
      <path clip-path="url(#p30b017198e)" d="M 150.003763 557.1166 
L 150.003763 70.7886 
" style="fill:none;stroke:#ffffff;stroke-linecap:round;stroke-width:1.6;"/>
     </g>
     <g id="line2d_4"/>
     <g id="text_2">
      <!-- 50 -->
      <defs>
       <path d="M 10.796875 72.90625 
L 49.515625 72.90625 
L 49.515625 64.59375 
L 19.828125 64.59375 
L 19.828125 46.734375 
Q 21.96875 47.46875 24.109375 47.828125 
Q 26.265625 48.1875 28.421875 48.1875 
Q 40.625 48.1875 47.75 41.5 
Q 54.890625 34.8125 54.890625 23.390625 
Q 54.890625 11.625 47.5625 5.09375 
Q 40.234375 -1.421875 26.90625 -1.421875 
Q 22.3125 -1.421875 17.546875 -0.640625 
Q 12.796875 0.140625 7.71875 1.703125 
L 7.71875 11.625 
Q 12.109375 9.234375 16.796875 8.0625 
Q 21.484375 6.890625 26.703125 6.890625 
Q 35.15625 6.890625 40.078125 11.328125 
Q 45.015625 15.765625 45.015625 23.390625 
Q 45.015625 31 40.078125 35.4375 
Q 35.15625 39.890625 26.703125 39.890625 
Q 22.75 39.890625 18.8125 39.015625 
Q 14.890625 38.140625 10.796875 36.28125 
z
" id="DejaVuSans-35"/>
      </defs>
      <g style="fill:#262626;" transform="translate(139.823763 580.4741)scale(0.16 -0.16)">
       <use xlink:href="#DejaVuSans-35"/>
       <use x="63.623047" xlink:href="#DejaVuSans-30"/>
      </g>
     </g>
    </g>
    <g id="xtick_3">
     <g id="line2d_5">
      <path clip-path="url(#p30b017198e)" d="M 206.603313 557.1166 
L 206.603313 70.7886 
" style="fill:none;stroke:#ffffff;stroke-linecap:round;stroke-width:1.6;"/>
     </g>
     <g id="line2d_6"/>
     <g id="text_3">
      <!-- 100 -->
      <defs>
       <path d="M 12.40625 8.296875 
L 28.515625 8.296875 
L 28.515625 63.921875 
L 10.984375 60.40625 
L 10.984375 69.390625 
L 28.421875 72.90625 
L 38.28125 72.90625 
L 38.28125 8.296875 
L 54.390625 8.296875 
L 54.390625 0 
L 12.40625 0 
z
" id="DejaVuSans-31"/>
      </defs>
      <g style="fill:#262626;" transform="translate(191.333313 580.4741)scale(0.16 -0.16)">
       <use xlink:href="#DejaVuSans-31"/>
       <use x="63.623047" xlink:href="#DejaVuSans-30"/>
       <use x="127.246094" xlink:href="#DejaVuSans-30"/>
      </g>
     </g>
    </g>
    <g id="xtick_4">
     <g id="line2d_7">
      <path clip-path="url(#p30b017198e)" d="M 263.202863 557.1166 
L 263.202863 70.7886 
" style="fill:none;stroke:#ffffff;stroke-linecap:round;stroke-width:1.6;"/>
     </g>
     <g id="line2d_8"/>
     <g id="text_4">
      <!-- 150 -->
      <g style="fill:#262626;" transform="translate(247.932863 580.4741)scale(0.16 -0.16)">
       <use xlink:href="#DejaVuSans-31"/>
       <use x="63.623047" xlink:href="#DejaVuSans-35"/>
       <use x="127.246094" xlink:href="#DejaVuSans-30"/>
      </g>
     </g>
    </g>
    <g id="xtick_5">
     <g id="line2d_9">
      <path clip-path="url(#p30b017198e)" d="M 319.802414 557.1166 
L 319.802414 70.7886 
" style="fill:none;stroke:#ffffff;stroke-linecap:round;stroke-width:1.6;"/>
     </g>
     <g id="line2d_10"/>
     <g id="text_5">
      <!-- 200 -->
      <defs>
       <path d="M 19.1875 8.296875 
L 53.609375 8.296875 
L 53.609375 0 
L 7.328125 0 
L 7.328125 8.296875 
Q 12.9375 14.109375 22.625 23.890625 
Q 32.328125 33.6875 34.8125 36.53125 
Q 39.546875 41.84375 41.421875 45.53125 
Q 43.3125 49.21875 43.3125 52.78125 
Q 43.3125 58.59375 39.234375 62.25 
Q 35.15625 65.921875 28.609375 65.921875 
Q 23.96875 65.921875 18.8125 64.3125 
Q 13.671875 62.703125 7.8125 59.421875 
L 7.8125 69.390625 
Q 13.765625 71.78125 18.9375 73 
Q 24.125 74.21875 28.421875 74.21875 
Q 39.75 74.21875 46.484375 68.546875 
Q 53.21875 62.890625 53.21875 53.421875 
Q 53.21875 48.921875 51.53125 44.890625 
Q 49.859375 40.875 45.40625 35.40625 
Q 44.1875 33.984375 37.640625 27.21875 
Q 31.109375 20.453125 19.1875 8.296875 
z
" id="DejaVuSans-32"/>
      </defs>
      <g style="fill:#262626;" transform="translate(304.532414 580.4741)scale(0.16 -0.16)">
       <use xlink:href="#DejaVuSans-32"/>
       <use x="63.623047" xlink:href="#DejaVuSans-30"/>
       <use x="127.246094" xlink:href="#DejaVuSans-30"/>
      </g>
     </g>
    </g>
    <g id="xtick_6">
     <g id="line2d_11">
      <path clip-path="url(#p30b017198e)" d="M 376.401964 557.1166 
L 376.401964 70.7886 
" style="fill:none;stroke:#ffffff;stroke-linecap:round;stroke-width:1.6;"/>
     </g>
     <g id="line2d_12"/>
     <g id="text_6">
      <!-- 250 -->
      <g style="fill:#262626;" transform="translate(361.131964 580.4741)scale(0.16 -0.16)">
       <use xlink:href="#DejaVuSans-32"/>
       <use x="63.623047" xlink:href="#DejaVuSans-35"/>
       <use x="127.246094" xlink:href="#DejaVuSans-30"/>
      </g>
     </g>
    </g>
    <g id="xtick_7">
     <g id="line2d_13">
      <path clip-path="url(#p30b017198e)" d="M 433.001514 557.1166 
L 433.001514 70.7886 
" style="fill:none;stroke:#ffffff;stroke-linecap:round;stroke-width:1.6;"/>
     </g>
     <g id="line2d_14"/>
     <g id="text_7">
      <!-- 300 -->
      <defs>
       <path d="M 40.578125 39.3125 
Q 47.65625 37.796875 51.625 33 
Q 55.609375 28.21875 55.609375 21.1875 
Q 55.609375 10.40625 48.1875 4.484375 
Q 40.765625 -1.421875 27.09375 -1.421875 
Q 22.515625 -1.421875 17.65625 -0.515625 
Q 12.796875 0.390625 7.625 2.203125 
L 7.625 11.71875 
Q 11.71875 9.328125 16.59375 8.109375 
Q 21.484375 6.890625 26.8125 6.890625 
Q 36.078125 6.890625 40.9375 10.546875 
Q 45.796875 14.203125 45.796875 21.1875 
Q 45.796875 27.640625 41.28125 31.265625 
Q 36.765625 34.90625 28.71875 34.90625 
L 20.21875 34.90625 
L 20.21875 43.015625 
L 29.109375 43.015625 
Q 36.375 43.015625 40.234375 45.921875 
Q 44.09375 48.828125 44.09375 54.296875 
Q 44.09375 59.90625 40.109375 62.90625 
Q 36.140625 65.921875 28.71875 65.921875 
Q 24.65625 65.921875 20.015625 65.03125 
Q 15.375 64.15625 9.8125 62.3125 
L 9.8125 71.09375 
Q 15.4375 72.65625 20.34375 73.4375 
Q 25.25 74.21875 29.59375 74.21875 
Q 40.828125 74.21875 47.359375 69.109375 
Q 53.90625 64.015625 53.90625 55.328125 
Q 53.90625 49.265625 50.4375 45.09375 
Q 46.96875 40.921875 40.578125 39.3125 
z
" id="DejaVuSans-33"/>
      </defs>
      <g style="fill:#262626;" transform="translate(417.731514 580.4741)scale(0.16 -0.16)">
       <use xlink:href="#DejaVuSans-33"/>
       <use x="63.623047" xlink:href="#DejaVuSans-30"/>
       <use x="127.246094" xlink:href="#DejaVuSans-30"/>
      </g>
     </g>
    </g>
    <g id="xtick_8">
     <g id="line2d_15">
      <path clip-path="url(#p30b017198e)" d="M 489.601065 557.1166 
L 489.601065 70.7886 
" style="fill:none;stroke:#ffffff;stroke-linecap:round;stroke-width:1.6;"/>
     </g>
     <g id="line2d_16"/>
     <g id="text_8">
      <!-- 350 -->
      <g style="fill:#262626;" transform="translate(474.331065 580.4741)scale(0.16 -0.16)">
       <use xlink:href="#DejaVuSans-33"/>
       <use x="63.623047" xlink:href="#DejaVuSans-35"/>
       <use x="127.246094" xlink:href="#DejaVuSans-30"/>
      </g>
     </g>
    </g>
    <g id="text_9">
     <!-- Absolute Error -->
     <defs>
      <path d="M 34.1875 63.1875 
L 20.796875 26.90625 
L 47.609375 26.90625 
z
M 28.609375 72.90625 
L 39.796875 72.90625 
L 67.578125 0 
L 57.328125 0 
L 50.6875 18.703125 
L 17.828125 18.703125 
L 11.1875 0 
L 0.78125 0 
z
" id="DejaVuSans-41"/>
      <path d="M 48.6875 27.296875 
Q 48.6875 37.203125 44.609375 42.84375 
Q 40.53125 48.484375 33.40625 48.484375 
Q 26.265625 48.484375 22.1875 42.84375 
Q 18.109375 37.203125 18.109375 27.296875 
Q 18.109375 17.390625 22.1875 11.75 
Q 26.265625 6.109375 33.40625 6.109375 
Q 40.53125 6.109375 44.609375 11.75 
Q 48.6875 17.390625 48.6875 27.296875 
z
M 18.109375 46.390625 
Q 20.953125 51.265625 25.265625 53.625 
Q 29.59375 56 35.59375 56 
Q 45.5625 56 51.78125 48.09375 
Q 58.015625 40.1875 58.015625 27.296875 
Q 58.015625 14.40625 51.78125 6.484375 
Q 45.5625 -1.421875 35.59375 -1.421875 
Q 29.59375 -1.421875 25.265625 0.953125 
Q 20.953125 3.328125 18.109375 8.203125 
L 18.109375 0 
L 9.078125 0 
L 9.078125 75.984375 
L 18.109375 75.984375 
z
" id="DejaVuSans-62"/>
      <path d="M 44.28125 53.078125 
L 44.28125 44.578125 
Q 40.484375 46.53125 36.375 47.5 
Q 32.28125 48.484375 27.875 48.484375 
Q 21.1875 48.484375 17.84375 46.4375 
Q 14.5 44.390625 14.5 40.28125 
Q 14.5 37.15625 16.890625 35.375 
Q 19.28125 33.59375 26.515625 31.984375 
L 29.59375 31.296875 
Q 39.15625 29.25 43.1875 25.515625 
Q 47.21875 21.78125 47.21875 15.09375 
Q 47.21875 7.46875 41.1875 3.015625 
Q 35.15625 -1.421875 24.609375 -1.421875 
Q 20.21875 -1.421875 15.453125 -0.5625 
Q 10.6875 0.296875 5.421875 2 
L 5.421875 11.28125 
Q 10.40625 8.6875 15.234375 7.390625 
Q 20.0625 6.109375 24.8125 6.109375 
Q 31.15625 6.109375 34.5625 8.28125 
Q 37.984375 10.453125 37.984375 14.40625 
Q 37.984375 18.0625 35.515625 20.015625 
Q 33.0625 21.96875 24.703125 23.78125 
L 21.578125 24.515625 
Q 13.234375 26.265625 9.515625 29.90625 
Q 5.8125 33.546875 5.8125 39.890625 
Q 5.8125 47.609375 11.28125 51.796875 
Q 16.75 56 26.8125 56 
Q 31.78125 56 36.171875 55.265625 
Q 40.578125 54.546875 44.28125 53.078125 
z
" id="DejaVuSans-73"/>
      <path d="M 30.609375 48.390625 
Q 23.390625 48.390625 19.1875 42.75 
Q 14.984375 37.109375 14.984375 27.296875 
Q 14.984375 17.484375 19.15625 11.84375 
Q 23.34375 6.203125 30.609375 6.203125 
Q 37.796875 6.203125 41.984375 11.859375 
Q 46.1875 17.53125 46.1875 27.296875 
Q 46.1875 37.015625 41.984375 42.703125 
Q 37.796875 48.390625 30.609375 48.390625 
z
M 30.609375 56 
Q 42.328125 56 49.015625 48.375 
Q 55.71875 40.765625 55.71875 27.296875 
Q 55.71875 13.875 49.015625 6.21875 
Q 42.328125 -1.421875 30.609375 -1.421875 
Q 18.84375 -1.421875 12.171875 6.21875 
Q 5.515625 13.875 5.515625 27.296875 
Q 5.515625 40.765625 12.171875 48.375 
Q 18.84375 56 30.609375 56 
z
" id="DejaVuSans-6f"/>
      <path d="M 9.421875 75.984375 
L 18.40625 75.984375 
L 18.40625 0 
L 9.421875 0 
z
" id="DejaVuSans-6c"/>
      <path d="M 8.5 21.578125 
L 8.5 54.6875 
L 17.484375 54.6875 
L 17.484375 21.921875 
Q 17.484375 14.15625 20.5 10.265625 
Q 23.53125 6.390625 29.59375 6.390625 
Q 36.859375 6.390625 41.078125 11.03125 
Q 45.3125 15.671875 45.3125 23.6875 
L 45.3125 54.6875 
L 54.296875 54.6875 
L 54.296875 0 
L 45.3125 0 
L 45.3125 8.40625 
Q 42.046875 3.421875 37.71875 1 
Q 33.40625 -1.421875 27.6875 -1.421875 
Q 18.265625 -1.421875 13.375 4.4375 
Q 8.5 10.296875 8.5 21.578125 
z
M 31.109375 56 
z
" id="DejaVuSans-75"/>
      <path d="M 18.3125 70.21875 
L 18.3125 54.6875 
L 36.8125 54.6875 
L 36.8125 47.703125 
L 18.3125 47.703125 
L 18.3125 18.015625 
Q 18.3125 11.328125 20.140625 9.421875 
Q 21.96875 7.515625 27.59375 7.515625 
L 36.8125 7.515625 
L 36.8125 0 
L 27.59375 0 
Q 17.1875 0 13.234375 3.875 
Q 9.28125 7.765625 9.28125 18.015625 
L 9.28125 47.703125 
L 2.6875 47.703125 
L 2.6875 54.6875 
L 9.28125 54.6875 
L 9.28125 70.21875 
z
" id="DejaVuSans-74"/>
      <path d="M 56.203125 29.59375 
L 56.203125 25.203125 
L 14.890625 25.203125 
Q 15.484375 15.921875 20.484375 11.0625 
Q 25.484375 6.203125 34.421875 6.203125 
Q 39.59375 6.203125 44.453125 7.46875 
Q 49.3125 8.734375 54.109375 11.28125 
L 54.109375 2.78125 
Q 49.265625 0.734375 44.1875 -0.34375 
Q 39.109375 -1.421875 33.890625 -1.421875 
Q 20.796875 -1.421875 13.15625 6.1875 
Q 5.515625 13.8125 5.515625 26.8125 
Q 5.515625 40.234375 12.765625 48.109375 
Q 20.015625 56 32.328125 56 
Q 43.359375 56 49.78125 48.890625 
Q 56.203125 41.796875 56.203125 29.59375 
z
M 47.21875 32.234375 
Q 47.125 39.59375 43.09375 43.984375 
Q 39.0625 48.390625 32.421875 48.390625 
Q 24.90625 48.390625 20.390625 44.140625 
Q 15.875 39.890625 15.1875 32.171875 
z
" id="DejaVuSans-65"/>
      <path id="DejaVuSans-20"/>
      <path d="M 9.8125 72.90625 
L 55.90625 72.90625 
L 55.90625 64.59375 
L 19.671875 64.59375 
L 19.671875 43.015625 
L 54.390625 43.015625 
L 54.390625 34.71875 
L 19.671875 34.71875 
L 19.671875 8.296875 
L 56.78125 8.296875 
L 56.78125 0 
L 9.8125 0 
z
" id="DejaVuSans-45"/>
      <path d="M 41.109375 46.296875 
Q 39.59375 47.171875 37.8125 47.578125 
Q 36.03125 48 33.890625 48 
Q 26.265625 48 22.1875 43.046875 
Q 18.109375 38.09375 18.109375 28.8125 
L 18.109375 0 
L 9.078125 0 
L 9.078125 54.6875 
L 18.109375 54.6875 
L 18.109375 46.1875 
Q 20.953125 51.171875 25.484375 53.578125 
Q 30.03125 56 36.53125 56 
Q 37.453125 56 38.578125 55.875 
Q 39.703125 55.765625 41.0625 55.515625 
z
" id="DejaVuSans-72"/>
     </defs>
     <g style="fill:#262626;" transform="translate(238.161623 601.17485)scale(0.176 -0.176)">
      <use xlink:href="#DejaVuSans-41"/>
      <use x="68.408203" xlink:href="#DejaVuSans-62"/>
      <use x="131.884766" xlink:href="#DejaVuSans-73"/>
      <use x="183.984375" xlink:href="#DejaVuSans-6f"/>
      <use x="245.166016" xlink:href="#DejaVuSans-6c"/>
      <use x="272.949219" xlink:href="#DejaVuSans-75"/>
      <use x="336.328125" xlink:href="#DejaVuSans-74"/>
      <use x="375.537109" xlink:href="#DejaVuSans-65"/>
      <use x="437.060547" xlink:href="#DejaVuSans-20"/>
      <use x="468.847656" xlink:href="#DejaVuSans-45"/>
      <use x="532.03125" xlink:href="#DejaVuSans-72"/>
      <use x="573.128906" xlink:href="#DejaVuSans-72"/>
      <use x="614.210938" xlink:href="#DejaVuSans-6f"/>
      <use x="675.392578" xlink:href="#DejaVuSans-72"/>
     </g>
    </g>
   </g>
   <g id="matplotlib.axis_2">
    <g id="ytick_1">
     <g id="line2d_17">
      <path clip-path="url(#p30b017198e)" d="M 75.0585 536.290689 
L 527.368746 536.290689 
" style="fill:none;stroke:#ffffff;stroke-linecap:round;stroke-width:1.6;"/>
     </g>
     <g id="line2d_18"/>
     <g id="text_10">
      <!-- 27.5 -->
      <defs>
       <path d="M 8.203125 72.90625 
L 55.078125 72.90625 
L 55.078125 68.703125 
L 28.609375 0 
L 18.3125 0 
L 43.21875 64.59375 
L 8.203125 64.59375 
z
" id="DejaVuSans-37"/>
       <path d="M 10.6875 12.40625 
L 21 12.40625 
L 21 0 
L 10.6875 0 
z
" id="DejaVuSans-2e"/>
      </defs>
      <g style="fill:#262626;" transform="translate(28.2335 542.369439)scale(0.16 -0.16)">
       <use xlink:href="#DejaVuSans-32"/>
       <use x="63.623047" xlink:href="#DejaVuSans-37"/>
       <use x="127.246094" xlink:href="#DejaVuSans-2e"/>
       <use x="159.033203" xlink:href="#DejaVuSans-35"/>
      </g>
     </g>
    </g>
    <g id="ytick_2">
     <g id="line2d_19">
      <path clip-path="url(#p30b017198e)" d="M 75.0585 457.439628 
L 527.368746 457.439628 
" style="fill:none;stroke:#ffffff;stroke-linecap:round;stroke-width:1.6;"/>
     </g>
     <g id="line2d_20"/>
     <g id="text_11">
      <!-- 28.0 -->
      <defs>
       <path d="M 31.78125 34.625 
Q 24.75 34.625 20.71875 30.859375 
Q 16.703125 27.09375 16.703125 20.515625 
Q 16.703125 13.921875 20.71875 10.15625 
Q 24.75 6.390625 31.78125 6.390625 
Q 38.8125 6.390625 42.859375 10.171875 
Q 46.921875 13.96875 46.921875 20.515625 
Q 46.921875 27.09375 42.890625 30.859375 
Q 38.875 34.625 31.78125 34.625 
z
M 21.921875 38.8125 
Q 15.578125 40.375 12.03125 44.71875 
Q 8.5 49.078125 8.5 55.328125 
Q 8.5 64.0625 14.71875 69.140625 
Q 20.953125 74.21875 31.78125 74.21875 
Q 42.671875 74.21875 48.875 69.140625 
Q 55.078125 64.0625 55.078125 55.328125 
Q 55.078125 49.078125 51.53125 44.71875 
Q 48 40.375 41.703125 38.8125 
Q 48.828125 37.15625 52.796875 32.3125 
Q 56.78125 27.484375 56.78125 20.515625 
Q 56.78125 9.90625 50.3125 4.234375 
Q 43.84375 -1.421875 31.78125 -1.421875 
Q 19.734375 -1.421875 13.25 4.234375 
Q 6.78125 9.90625 6.78125 20.515625 
Q 6.78125 27.484375 10.78125 32.3125 
Q 14.796875 37.15625 21.921875 38.8125 
z
M 18.3125 54.390625 
Q 18.3125 48.734375 21.84375 45.5625 
Q 25.390625 42.390625 31.78125 42.390625 
Q 38.140625 42.390625 41.71875 45.5625 
Q 45.3125 48.734375 45.3125 54.390625 
Q 45.3125 60.0625 41.71875 63.234375 
Q 38.140625 66.40625 31.78125 66.40625 
Q 25.390625 66.40625 21.84375 63.234375 
Q 18.3125 60.0625 18.3125 54.390625 
z
" id="DejaVuSans-38"/>
      </defs>
      <g style="fill:#262626;" transform="translate(28.2335 463.518378)scale(0.16 -0.16)">
       <use xlink:href="#DejaVuSans-32"/>
       <use x="63.623047" xlink:href="#DejaVuSans-38"/>
       <use x="127.246094" xlink:href="#DejaVuSans-2e"/>
       <use x="159.033203" xlink:href="#DejaVuSans-30"/>
      </g>
     </g>
    </g>
    <g id="ytick_3">
     <g id="line2d_21">
      <path clip-path="url(#p30b017198e)" d="M 75.0585 378.588567 
L 527.368746 378.588567 
" style="fill:none;stroke:#ffffff;stroke-linecap:round;stroke-width:1.6;"/>
     </g>
     <g id="line2d_22"/>
     <g id="text_12">
      <!-- 28.5 -->
      <g style="fill:#262626;" transform="translate(28.2335 384.667317)scale(0.16 -0.16)">
       <use xlink:href="#DejaVuSans-32"/>
       <use x="63.623047" xlink:href="#DejaVuSans-38"/>
       <use x="127.246094" xlink:href="#DejaVuSans-2e"/>
       <use x="159.033203" xlink:href="#DejaVuSans-35"/>
      </g>
     </g>
    </g>
    <g id="ytick_4">
     <g id="line2d_23">
      <path clip-path="url(#p30b017198e)" d="M 75.0585 299.737506 
L 527.368746 299.737506 
" style="fill:none;stroke:#ffffff;stroke-linecap:round;stroke-width:1.6;"/>
     </g>
     <g id="line2d_24"/>
     <g id="text_13">
      <!-- 29.0 -->
      <defs>
       <path d="M 10.984375 1.515625 
L 10.984375 10.5 
Q 14.703125 8.734375 18.5 7.8125 
Q 22.3125 6.890625 25.984375 6.890625 
Q 35.75 6.890625 40.890625 13.453125 
Q 46.046875 20.015625 46.78125 33.40625 
Q 43.953125 29.203125 39.59375 26.953125 
Q 35.25 24.703125 29.984375 24.703125 
Q 19.046875 24.703125 12.671875 31.3125 
Q 6.296875 37.9375 6.296875 49.421875 
Q 6.296875 60.640625 12.9375 67.421875 
Q 19.578125 74.21875 30.609375 74.21875 
Q 43.265625 74.21875 49.921875 64.515625 
Q 56.59375 54.828125 56.59375 36.375 
Q 56.59375 19.140625 48.40625 8.859375 
Q 40.234375 -1.421875 26.421875 -1.421875 
Q 22.703125 -1.421875 18.890625 -0.6875 
Q 15.09375 0.046875 10.984375 1.515625 
z
M 30.609375 32.421875 
Q 37.25 32.421875 41.125 36.953125 
Q 45.015625 41.5 45.015625 49.421875 
Q 45.015625 57.28125 41.125 61.84375 
Q 37.25 66.40625 30.609375 66.40625 
Q 23.96875 66.40625 20.09375 61.84375 
Q 16.21875 57.28125 16.21875 49.421875 
Q 16.21875 41.5 20.09375 36.953125 
Q 23.96875 32.421875 30.609375 32.421875 
z
" id="DejaVuSans-39"/>
      </defs>
      <g style="fill:#262626;" transform="translate(28.2335 305.816256)scale(0.16 -0.16)">
       <use xlink:href="#DejaVuSans-32"/>
       <use x="63.623047" xlink:href="#DejaVuSans-39"/>
       <use x="127.246094" xlink:href="#DejaVuSans-2e"/>
       <use x="159.033203" xlink:href="#DejaVuSans-30"/>
      </g>
     </g>
    </g>
    <g id="ytick_5">
     <g id="line2d_25">
      <path clip-path="url(#p30b017198e)" d="M 75.0585 220.886445 
L 527.368746 220.886445 
" style="fill:none;stroke:#ffffff;stroke-linecap:round;stroke-width:1.6;"/>
     </g>
     <g id="line2d_26"/>
     <g id="text_14">
      <!-- 29.5 -->
      <g style="fill:#262626;" transform="translate(28.2335 226.965195)scale(0.16 -0.16)">
       <use xlink:href="#DejaVuSans-32"/>
       <use x="63.623047" xlink:href="#DejaVuSans-39"/>
       <use x="127.246094" xlink:href="#DejaVuSans-2e"/>
       <use x="159.033203" xlink:href="#DejaVuSans-35"/>
      </g>
     </g>
    </g>
    <g id="ytick_6">
     <g id="line2d_27">
      <path clip-path="url(#p30b017198e)" d="M 75.0585 142.035384 
L 527.368746 142.035384 
" style="fill:none;stroke:#ffffff;stroke-linecap:round;stroke-width:1.6;"/>
     </g>
     <g id="line2d_28"/>
     <g id="text_15">
      <!-- 30.0 -->
      <g style="fill:#262626;" transform="translate(28.2335 148.114134)scale(0.16 -0.16)">
       <use xlink:href="#DejaVuSans-33"/>
       <use x="63.623047" xlink:href="#DejaVuSans-30"/>
       <use x="127.246094" xlink:href="#DejaVuSans-2e"/>
       <use x="159.033203" xlink:href="#DejaVuSans-30"/>
      </g>
     </g>
    </g>
    <g id="text_16">
     <!-- Temperature -->
     <defs>
      <path d="M -0.296875 72.90625 
L 61.375 72.90625 
L 61.375 64.59375 
L 35.5 64.59375 
L 35.5 0 
L 25.59375 0 
L 25.59375 64.59375 
L -0.296875 64.59375 
z
" id="DejaVuSans-54"/>
      <path d="M 52 44.1875 
Q 55.375 50.25 60.0625 53.125 
Q 64.75 56 71.09375 56 
Q 79.640625 56 84.28125 50.015625 
Q 88.921875 44.046875 88.921875 33.015625 
L 88.921875 0 
L 79.890625 0 
L 79.890625 32.71875 
Q 79.890625 40.578125 77.09375 44.375 
Q 74.3125 48.1875 68.609375 48.1875 
Q 61.625 48.1875 57.5625 43.546875 
Q 53.515625 38.921875 53.515625 30.90625 
L 53.515625 0 
L 44.484375 0 
L 44.484375 32.71875 
Q 44.484375 40.625 41.703125 44.40625 
Q 38.921875 48.1875 33.109375 48.1875 
Q 26.21875 48.1875 22.15625 43.53125 
Q 18.109375 38.875 18.109375 30.90625 
L 18.109375 0 
L 9.078125 0 
L 9.078125 54.6875 
L 18.109375 54.6875 
L 18.109375 46.1875 
Q 21.1875 51.21875 25.484375 53.609375 
Q 29.78125 56 35.6875 56 
Q 41.65625 56 45.828125 52.96875 
Q 50 49.953125 52 44.1875 
z
" id="DejaVuSans-6d"/>
      <path d="M 18.109375 8.203125 
L 18.109375 -20.796875 
L 9.078125 -20.796875 
L 9.078125 54.6875 
L 18.109375 54.6875 
L 18.109375 46.390625 
Q 20.953125 51.265625 25.265625 53.625 
Q 29.59375 56 35.59375 56 
Q 45.5625 56 51.78125 48.09375 
Q 58.015625 40.1875 58.015625 27.296875 
Q 58.015625 14.40625 51.78125 6.484375 
Q 45.5625 -1.421875 35.59375 -1.421875 
Q 29.59375 -1.421875 25.265625 0.953125 
Q 20.953125 3.328125 18.109375 8.203125 
z
M 48.6875 27.296875 
Q 48.6875 37.203125 44.609375 42.84375 
Q 40.53125 48.484375 33.40625 48.484375 
Q 26.265625 48.484375 22.1875 42.84375 
Q 18.109375 37.203125 18.109375 27.296875 
Q 18.109375 17.390625 22.1875 11.75 
Q 26.265625 6.109375 33.40625 6.109375 
Q 40.53125 6.109375 44.609375 11.75 
Q 48.6875 17.390625 48.6875 27.296875 
z
" id="DejaVuSans-70"/>
      <path d="M 34.28125 27.484375 
Q 23.390625 27.484375 19.1875 25 
Q 14.984375 22.515625 14.984375 16.5 
Q 14.984375 11.71875 18.140625 8.90625 
Q 21.296875 6.109375 26.703125 6.109375 
Q 34.1875 6.109375 38.703125 11.40625 
Q 43.21875 16.703125 43.21875 25.484375 
L 43.21875 27.484375 
z
M 52.203125 31.203125 
L 52.203125 0 
L 43.21875 0 
L 43.21875 8.296875 
Q 40.140625 3.328125 35.546875 0.953125 
Q 30.953125 -1.421875 24.3125 -1.421875 
Q 15.921875 -1.421875 10.953125 3.296875 
Q 6 8.015625 6 15.921875 
Q 6 25.140625 12.171875 29.828125 
Q 18.359375 34.515625 30.609375 34.515625 
L 43.21875 34.515625 
L 43.21875 35.40625 
Q 43.21875 41.609375 39.140625 45 
Q 35.0625 48.390625 27.6875 48.390625 
Q 23 48.390625 18.546875 47.265625 
Q 14.109375 46.140625 10.015625 43.890625 
L 10.015625 52.203125 
Q 14.9375 54.109375 19.578125 55.046875 
Q 24.21875 56 28.609375 56 
Q 40.484375 56 46.34375 49.84375 
Q 52.203125 43.703125 52.203125 31.203125 
z
" id="DejaVuSans-61"/>
     </defs>
     <g style="fill:#262626;" transform="translate(20.57325 371.35885)rotate(-90)scale(0.176 -0.176)">
      <use xlink:href="#DejaVuSans-54"/>
      <use x="60.818359" xlink:href="#DejaVuSans-65"/>
      <use x="122.341797" xlink:href="#DejaVuSans-6d"/>
      <use x="219.753906" xlink:href="#DejaVuSans-70"/>
      <use x="283.230469" xlink:href="#DejaVuSans-65"/>
      <use x="344.753906" xlink:href="#DejaVuSans-72"/>
      <use x="385.867188" xlink:href="#DejaVuSans-61"/>
      <use x="447.146484" xlink:href="#DejaVuSans-74"/>
      <use x="486.355469" xlink:href="#DejaVuSans-75"/>
      <use x="549.734375" xlink:href="#DejaVuSans-72"/>
      <use x="590.816406" xlink:href="#DejaVuSans-65"/>
     </g>
    </g>
   </g>
   <g id="PathCollection_1">
    <defs>
     <path d="M 0 5.6 
C 1.485137 5.6 2.909647 5.009949 3.959798 3.959798 
C 5.009949 2.909647 5.6 1.485137 5.6 0 
C 5.6 -1.485137 5.009949 -2.909647 3.959798 -3.959798 
C 2.909647 -5.009949 1.485137 -5.6 0 -5.6 
C -1.485137 -5.6 -2.909647 -5.009949 -3.959798 -3.959798 
C -5.009949 -2.909647 -5.6 -1.485137 -5.6 0 
C -5.6 1.485137 -5.009949 2.909647 -3.959798 3.959798 
C -2.909647 5.009949 -1.485137 5.6 0 5.6 
z
" id="m2548fc2ec9" style="stroke:#2ecc71;stroke-width:0.48;"/>
    </defs>
    <g clip-path="url(#p30b017198e)">
     <use style="fill:#2ecc71;stroke:#2ecc71;stroke-width:0.48;" x="120.904967" xlink:href="#m2548fc2ec9" y="286.858499"/>
     <use style="fill:#2ecc71;stroke:#2ecc71;stroke-width:0.48;" x="122.865097" xlink:href="#m2548fc2ec9" y="302.76013"/>
     <use style="fill:#2ecc71;stroke:#2ecc71;stroke-width:0.48;" x="117.671954" xlink:href="#m2548fc2ec9" y="292.99136"/>
     <use style="fill:#2ecc71;stroke:#2ecc71;stroke-width:0.48;" x="101.109468" xlink:href="#m2548fc2ec9" y="401.192538"/>
     <use style="fill:#2ecc71;stroke:#2ecc71;stroke-width:0.48;" x="103.947071" xlink:href="#m2548fc2ec9" y="370.396818"/>
     <use style="fill:#2ecc71;stroke:#2ecc71;stroke-width:0.48;" x="107.330185" xlink:href="#m2548fc2ec9" y="321.728191"/>
     <use style="fill:#2ecc71;stroke:#2ecc71;stroke-width:0.48;" x="95.631125" xlink:href="#m2548fc2ec9" y="316.646678"/>
     <use style="fill:#2ecc71;stroke:#2ecc71;stroke-width:0.48;" x="113.866756" xlink:href="#m2548fc2ec9" y="163.631813"/>
     <use style="fill:#2ecc71;stroke:#2ecc71;stroke-width:0.48;" x="99.456365" xlink:href="#m2548fc2ec9" y="283.748263"/>
     <use style="fill:#2ecc71;stroke:#2ecc71;stroke-width:0.48;" x="104.544529" xlink:href="#m2548fc2ec9" y="273.497625"/>
     <use style="fill:#2ecc71;stroke:#2ecc71;stroke-width:0.48;" x="119.854701" xlink:href="#m2548fc2ec9" y="221.762568"/>
     <use style="fill:#2ecc71;stroke:#2ecc71;stroke-width:0.48;" x="115.036768" xlink:href="#m2548fc2ec9" y="104.668742"/>
    </g>
   </g>
   <g id="PathCollection_2">
    <defs>
     <path d="M -0 7.919596 
L 7.919596 0 
L 0 -7.919596 
L -7.919596 -0 
z
" id="m04ea998f6d" style="stroke:#34495e;stroke-width:0.48;"/>
    </defs>
    <g clip-path="url(#p30b017198e)">
     <use style="fill:#34495e;stroke:#34495e;stroke-width:0.48;" x="128.176981" xlink:href="#m04ea998f6d" y="131.259072"/>
     <use style="fill:#34495e;stroke:#34495e;stroke-width:0.48;" x="138.226781" xlink:href="#m04ea998f6d" y="397.337597"/>
     <use style="fill:#34495e;stroke:#34495e;stroke-width:0.48;" x="133.728931" xlink:href="#m04ea998f6d" y="280.462802"/>
     <use style="fill:#34495e;stroke:#34495e;stroke-width:0.48;" x="150.317174" xlink:href="#m04ea998f6d" y="321.114905"/>
     <use style="fill:#34495e;stroke:#34495e;stroke-width:0.48;" x="129.274318" xlink:href="#m04ea998f6d" y="378.238118"/>
     <use style="fill:#34495e;stroke:#34495e;stroke-width:0.48;" x="135.709432" xlink:href="#m04ea998f6d" y="98.097821"/>
     <use style="fill:#34495e;stroke:#34495e;stroke-width:0.48;" x="139.268399" xlink:href="#m04ea998f6d" y="211.599542"/>
     <use style="fill:#34495e;stroke:#34495e;stroke-width:0.48;" x="152.07225" xlink:href="#m04ea998f6d" y="529.807379"/>
     <use style="fill:#34495e;stroke:#34495e;stroke-width:0.48;" x="125.616475" xlink:href="#m04ea998f6d" y="296.714882"/>
     <use style="fill:#34495e;stroke:#34495e;stroke-width:0.48;" x="141.02212" xlink:href="#m04ea998f6d" y="286.464244"/>
     <use style="fill:#34495e;stroke:#34495e;stroke-width:0.48;" x="133.898281" xlink:href="#m04ea998f6d" y="266.313417"/>
     <use style="fill:#34495e;stroke:#34495e;stroke-width:0.48;" x="132.260095" xlink:href="#m04ea998f6d" y="205.247651"/>
     <use style="fill:#34495e;stroke:#34495e;stroke-width:0.48;" x="155.522703" xlink:href="#m04ea998f6d" y="344.113131"/>
     <use style="fill:#34495e;stroke:#34495e;stroke-width:0.48;" x="136.042689" xlink:href="#m04ea998f6d" y="249.272827"/>
     <use style="fill:#34495e;stroke:#34495e;stroke-width:0.48;" x="169.772843" xlink:href="#m04ea998f6d" y="241.124884"/>
     <use style="fill:#34495e;stroke:#34495e;stroke-width:0.48;" x="162.332153" xlink:href="#m04ea998f6d" y="299.825118"/>
     <use style="fill:#34495e;stroke:#34495e;stroke-width:0.48;" x="143.211602" xlink:href="#m04ea998f6d" y="246.732071"/>
     <use style="fill:#34495e;stroke:#34495e;stroke-width:0.48;" x="151.453577" xlink:href="#m04ea998f6d" y="99.23678"/>
     <use style="fill:#34495e;stroke:#34495e;stroke-width:0.48;" x="138.703292" xlink:href="#m04ea998f6d" y="252.120226"/>
     <use style="fill:#34495e;stroke:#34495e;stroke-width:0.48;" x="159.253231" xlink:href="#m04ea998f6d" y="300.394598"/>
     <use style="fill:#34495e;stroke:#34495e;stroke-width:0.48;" x="140.867826" xlink:href="#m04ea998f6d" y="185.578692"/>
     <use style="fill:#34495e;stroke:#34495e;stroke-width:0.48;" x="126.392452" xlink:href="#m04ea998f6d" y="139.976495"/>
     <use style="fill:#34495e;stroke:#34495e;stroke-width:0.48;" x="188.950076" xlink:href="#m04ea998f6d" y="219.265618"/>
    </g>
   </g>
   <g id="PathCollection_3">
    <defs>
     <path d="M -5.6 5.6 
L 5.6 5.6 
L 5.6 -5.6 
L -5.6 -5.6 
z
" id="m2c03281f35" style="stroke:#e74c3c;stroke-width:0.48;"/>
    </defs>
    <g clip-path="url(#p30b017198e)">
     <use style="fill:#e74c3c;stroke:#e74c3c;stroke-width:0.48;" x="247.430901" xlink:href="#m2c03281f35" y="174.320513"/>
     <use style="fill:#e74c3c;stroke:#e74c3c;stroke-width:0.48;" x="306.79403" xlink:href="#m2c03281f35" y="198.063443"/>
     <use style="fill:#e74c3c;stroke:#e74c3c;stroke-width:0.48;" x="434.111211" xlink:href="#m2c03281f35" y="256.150392"/>
     <use style="fill:#e74c3c;stroke:#e74c3c;stroke-width:0.48;" x="412.438079" xlink:href="#m2c03281f35" y="183.826446"/>
     <use style="fill:#e74c3c;stroke:#e74c3c;stroke-width:0.48;" x="232.155578" xlink:href="#m2c03281f35" y="153.381176"/>
     <use style="fill:#e74c3c;stroke:#e74c3c;stroke-width:0.48;" x="216.467147" xlink:href="#m2c03281f35" y="240.774435"/>
     <use style="fill:#e74c3c;stroke:#e74c3c;stroke-width:0.48;" x="446.246471" xlink:href="#m2c03281f35" y="325.101264"/>
     <use style="fill:#e74c3c;stroke:#e74c3c;stroke-width:0.48;" x="371.609602" xlink:href="#m2c03281f35" y="292.071431"/>
     <use style="fill:#e74c3c;stroke:#e74c3c;stroke-width:0.48;" x="224.58602" xlink:href="#m2c03281f35" y="191.842971"/>
     <use style="fill:#e74c3c;stroke:#e74c3c;stroke-width:0.48;" x="193.271017" xlink:href="#m2c03281f35" y="172.655879"/>
     <use style="fill:#e74c3c;stroke:#e74c3c;stroke-width:0.48;" x="505.61775" xlink:href="#m2c03281f35" y="245.768335"/>
     <use style="fill:#e74c3c;stroke:#e74c3c;stroke-width:0.48;" x="364.443923" xlink:href="#m2c03281f35" y="185.666304"/>
    </g>
   </g>
   <g id="PolyCollection_1">
    <path clip-path="url(#p30b017198e)" d="M 75.0585 231.672569 
L 75.0585 303.637518 
L 79.62729 302.627595 
L 84.196081 300.736834 
L 88.764871 299.44904 
L 93.333661 298.34837 
L 97.902452 296.428621 
L 102.471242 295.171161 
L 107.040033 294.096164 
L 111.608823 293.280046 
L 116.177613 292.047376 
L 120.746404 290.817179 
L 125.315194 289.586982 
L 129.883984 288.082283 
L 134.452775 286.471612 
L 139.021565 285.555703 
L 143.590355 284.779909 
L 148.159146 284.006446 
L 152.727936 283.009498 
L 157.296727 282.245654 
L 161.865517 281.38314 
L 166.434307 280.657364 
L 171.003098 280.031006 
L 175.571888 279.37945 
L 180.140678 278.615143 
L 184.709469 277.841443 
L 189.278259 277.533218 
L 193.847049 276.531565 
L 198.41584 276.136013 
L 202.98463 275.795661 
L 207.55342 275.136982 
L 212.122211 274.782658 
L 216.691001 274.217828 
L 221.259792 273.513495 
L 225.828582 273.267154 
L 230.397372 272.734893 
L 234.966163 272.165722 
L 239.534953 271.748066 
L 244.103743 271.29518 
L 248.672534 270.709669 
L 253.241324 270.127312 
L 257.810114 269.544955 
L 262.378905 268.962599 
L 266.947695 268.669225 
L 271.516486 268.045456 
L 276.085276 267.272826 
L 280.654066 267.552918 
L 285.222857 267.14176 
L 289.791647 266.699845 
L 294.360437 266.563434 
L 298.929228 266.555486 
L 303.498018 266.547538 
L 308.066808 266.53959 
L 312.635599 266.549314 
L 317.204389 266.857659 
L 321.77318 266.955957 
L 326.34197 266.50193 
L 330.91076 266.745465 
L 335.479551 267.13775 
L 340.048341 267.5259 
L 344.617131 267.539793 
L 349.185922 267.371527 
L 353.754712 267.203246 
L 358.323502 267.606839 
L 362.892293 268.10985 
L 367.461083 268.176919 
L 372.029873 268.245088 
L 376.598664 268.102368 
L 381.167454 268.110734 
L 385.736245 268.279547 
L 390.305035 268.146318 
L 394.873825 268.10031 
L 399.442616 268.237457 
L 404.011406 268.16796 
L 408.580196 268.476116 
L 413.148987 268.749144 
L 417.717777 268.786087 
L 422.286567 268.845674 
L 426.855358 268.905261 
L 431.424148 268.964848 
L 435.992939 269.024435 
L 440.561729 269.516304 
L 445.130519 270.020796 
L 449.69931 270.525288 
L 454.2681 271.02124 
L 458.83689 270.97204 
L 463.405681 271.048125 
L 467.974471 271.323727 
L 472.543261 271.660751 
L 477.112052 271.997776 
L 481.680842 272.235622 
L 486.249633 272.156552 
L 490.818423 272.072928 
L 495.387213 272.341207 
L 499.956004 272.722334 
L 504.524794 272.68853 
L 509.093584 272.436155 
L 513.662375 272.729647 
L 518.231165 273.02314 
L 522.799955 273.248659 
L 527.368746 273.356219 
L 527.368746 128.741899 
L 527.368746 128.741899 
L 522.799955 130.372145 
L 518.231165 132.002392 
L 513.662375 133.632639 
L 509.093584 135.263468 
L 504.524794 136.898741 
L 499.956004 138.534014 
L 495.387213 140.169287 
L 490.818423 141.804559 
L 486.249633 143.439832 
L 481.680842 145.075105 
L 477.112052 146.710378 
L 472.543261 148.345651 
L 467.974471 149.980924 
L 463.405681 151.618247 
L 458.83689 153.262749 
L 454.2681 154.907251 
L 449.69931 156.551753 
L 445.130519 158.189439 
L 440.561729 159.617967 
L 435.992939 161.046495 
L 431.424148 162.475023 
L 426.855358 163.903551 
L 422.286567 165.332079 
L 417.717777 166.760607 
L 413.148987 168.189135 
L 408.580196 169.617663 
L 404.011406 171.046191 
L 399.442616 172.754468 
L 394.873825 174.64931 
L 390.305035 176.544152 
L 385.736245 178.127236 
L 381.167454 179.60866 
L 376.598664 181.090084 
L 372.029873 182.521062 
L 367.461083 183.861787 
L 362.892293 185.569163 
L 358.323502 187.048121 
L 353.754712 188.527078 
L 349.185922 190.006035 
L 344.617131 191.484993 
L 340.048341 192.9647 
L 335.479551 194.45935 
L 330.91076 195.693545 
L 326.34197 197.419674 
L 321.77318 198.896074 
L 317.204389 200.392461 
L 312.635599 201.888848 
L 308.066808 203.739833 
L 303.498018 205.736106 
L 298.929228 207.480613 
L 294.360437 207.984044 
L 289.791647 209.566749 
L 285.222857 211.020878 
L 280.654066 212.262732 
L 276.085276 213.399982 
L 271.516486 215.222026 
L 266.947695 216.640275 
L 262.378905 217.398268 
L 257.810114 217.878245 
L 253.241324 218.741516 
L 248.672534 219.421835 
L 244.103743 220.606879 
L 239.534953 221.712613 
L 234.966163 222.86972 
L 230.397372 223.508227 
L 225.828582 224.780628 
L 221.259792 225.905317 
L 216.691001 226.628978 
L 212.122211 227.50933 
L 207.55342 228.013913 
L 202.98463 228.405759 
L 198.41584 228.820523 
L 193.847049 229.324934 
L 189.278259 229.666213 
L 184.709469 230.153964 
L 180.140678 230.352731 
L 175.571888 230.380273 
L 171.003098 230.781054 
L 166.434307 231.084804 
L 161.865517 231.537115 
L 157.296727 231.591927 
L 152.727936 231.620828 
L 148.159146 231.78595 
L 143.590355 232.483895 
L 139.021565 232.594345 
L 134.452775 232.325555 
L 129.883984 232.374119 
L 125.315194 232.214395 
L 120.746404 232.14428 
L 116.177613 232.038022 
L 111.608823 232.183579 
L 107.040033 232.236952 
L 102.471242 231.759913 
L 97.902452 231.719837 
L 93.333661 231.649857 
L 88.764871 231.797107 
L 84.196081 231.550637 
L 79.62729 231.750018 
L 75.0585 231.672569 
z
" style="fill:#4c72b0;fill-opacity:0.15;"/>
   </g>
   <g id="line2d_29">
    <path clip-path="url(#p30b017198e)" d="M 75.0585 265.399237 
L 79.62729 264.917275 
L 84.196081 264.435313 
L 88.764871 263.953352 
L 93.333661 263.47139 
L 97.902452 262.989428 
L 102.471242 262.507466 
L 107.040033 262.025504 
L 111.608823 261.543542 
L 116.177613 261.061581 
L 120.746404 260.579619 
L 125.315194 260.097657 
L 129.883984 259.615695 
L 134.452775 259.133733 
L 139.021565 258.651771 
L 143.590355 258.16981 
L 148.159146 257.687848 
L 152.727936 257.205886 
L 157.296727 256.723924 
L 161.865517 256.241962 
L 166.434307 255.76 
L 171.003098 255.278039 
L 175.571888 254.796077 
L 180.140678 254.314115 
L 184.709469 253.832153 
L 189.278259 253.350191 
L 193.847049 252.868229 
L 198.41584 252.386268 
L 202.98463 251.904306 
L 207.55342 251.422344 
L 212.122211 250.940382 
L 216.691001 250.45842 
L 221.259792 249.976458 
L 225.828582 249.494497 
L 230.397372 249.012535 
L 234.966163 248.530573 
L 239.534953 248.048611 
L 244.103743 247.566649 
L 248.672534 247.084687 
L 253.241324 246.602726 
L 257.810114 246.120764 
L 262.378905 245.638802 
L 266.947695 245.15684 
L 271.516486 244.674878 
L 276.085276 244.192916 
L 280.654066 243.710955 
L 285.222857 243.228993 
L 289.791647 242.747031 
L 294.360437 242.265069 
L 298.929228 241.783107 
L 303.498018 241.301145 
L 308.066808 240.819184 
L 312.635599 240.337222 
L 317.204389 239.85526 
L 321.77318 239.373298 
L 326.34197 238.891336 
L 330.91076 238.409374 
L 335.479551 237.927413 
L 340.048341 237.445451 
L 344.617131 236.963489 
L 349.185922 236.481527 
L 353.754712 235.999565 
L 358.323502 235.517604 
L 362.892293 235.035642 
L 367.461083 234.55368 
L 372.029873 234.071718 
L 376.598664 233.589756 
L 381.167454 233.107794 
L 385.736245 232.625833 
L 390.305035 232.143871 
L 394.873825 231.661909 
L 399.442616 231.179947 
L 404.011406 230.697985 
L 408.580196 230.216023 
L 413.148987 229.734062 
L 417.717777 229.2521 
L 422.286567 228.770138 
L 426.855358 228.288176 
L 431.424148 227.806214 
L 435.992939 227.324252 
L 440.561729 226.842291 
L 445.130519 226.360329 
L 449.69931 225.878367 
L 454.2681 225.396405 
L 458.83689 224.914443 
L 463.405681 224.432481 
L 467.974471 223.95052 
L 472.543261 223.468558 
L 477.112052 222.986596 
L 481.680842 222.504634 
L 486.249633 222.022672 
L 490.818423 221.54071 
L 495.387213 221.058749 
L 499.956004 220.576787 
L 504.524794 220.094825 
L 509.093584 219.612863 
L 513.662375 219.130901 
L 518.231165 218.648939 
L 522.799955 218.166978 
L 527.368746 217.685016 
" style="fill:none;stroke:#4c72b0;stroke-linecap:round;stroke-width:4.2;"/>
   </g>
   <g id="patch_3">
    <path d="M 75.0585 557.1166 
L 75.0585 70.7886 
" style="fill:none;"/>
   </g>
   <g id="patch_4">
    <path d="M 75.0585 557.1166 
L 527.368746 557.1166 
" style="fill:none;"/>
   </g>
   <g id="text_17">
    <!-- Residual Analysis -->
    <defs>
     <path d="M 44.390625 34.1875 
Q 47.5625 33.109375 50.5625 29.59375 
Q 53.5625 26.078125 56.59375 19.921875 
L 66.609375 0 
L 56 0 
L 46.6875 18.703125 
Q 43.0625 26.03125 39.671875 28.421875 
Q 36.28125 30.8125 30.421875 30.8125 
L 19.671875 30.8125 
L 19.671875 0 
L 9.8125 0 
L 9.8125 72.90625 
L 32.078125 72.90625 
Q 44.578125 72.90625 50.734375 67.671875 
Q 56.890625 62.453125 56.890625 51.90625 
Q 56.890625 45.015625 53.6875 40.46875 
Q 50.484375 35.9375 44.390625 34.1875 
z
M 19.671875 64.796875 
L 19.671875 38.921875 
L 32.078125 38.921875 
Q 39.203125 38.921875 42.84375 42.21875 
Q 46.484375 45.515625 46.484375 51.90625 
Q 46.484375 58.296875 42.84375 61.546875 
Q 39.203125 64.796875 32.078125 64.796875 
z
" id="DejaVuSans-52"/>
     <path d="M 9.421875 54.6875 
L 18.40625 54.6875 
L 18.40625 0 
L 9.421875 0 
z
M 9.421875 75.984375 
L 18.40625 75.984375 
L 18.40625 64.59375 
L 9.421875 64.59375 
z
" id="DejaVuSans-69"/>
     <path d="M 45.40625 46.390625 
L 45.40625 75.984375 
L 54.390625 75.984375 
L 54.390625 0 
L 45.40625 0 
L 45.40625 8.203125 
Q 42.578125 3.328125 38.25 0.953125 
Q 33.9375 -1.421875 27.875 -1.421875 
Q 17.96875 -1.421875 11.734375 6.484375 
Q 5.515625 14.40625 5.515625 27.296875 
Q 5.515625 40.1875 11.734375 48.09375 
Q 17.96875 56 27.875 56 
Q 33.9375 56 38.25 53.625 
Q 42.578125 51.265625 45.40625 46.390625 
z
M 14.796875 27.296875 
Q 14.796875 17.390625 18.875 11.75 
Q 22.953125 6.109375 30.078125 6.109375 
Q 37.203125 6.109375 41.296875 11.75 
Q 45.40625 17.390625 45.40625 27.296875 
Q 45.40625 37.203125 41.296875 42.84375 
Q 37.203125 48.484375 30.078125 48.484375 
Q 22.953125 48.484375 18.875 42.84375 
Q 14.796875 37.203125 14.796875 27.296875 
z
" id="DejaVuSans-64"/>
     <path d="M 54.890625 33.015625 
L 54.890625 0 
L 45.90625 0 
L 45.90625 32.71875 
Q 45.90625 40.484375 42.875 44.328125 
Q 39.84375 48.1875 33.796875 48.1875 
Q 26.515625 48.1875 22.3125 43.546875 
Q 18.109375 38.921875 18.109375 30.90625 
L 18.109375 0 
L 9.078125 0 
L 9.078125 54.6875 
L 18.109375 54.6875 
L 18.109375 46.1875 
Q 21.34375 51.125 25.703125 53.5625 
Q 30.078125 56 35.796875 56 
Q 45.21875 56 50.046875 50.171875 
Q 54.890625 44.34375 54.890625 33.015625 
z
" id="DejaVuSans-6e"/>
     <path d="M 32.171875 -5.078125 
Q 28.375 -14.84375 24.75 -17.8125 
Q 21.140625 -20.796875 15.09375 -20.796875 
L 7.90625 -20.796875 
L 7.90625 -13.28125 
L 13.1875 -13.28125 
Q 16.890625 -13.28125 18.9375 -11.515625 
Q 21 -9.765625 23.484375 -3.21875 
L 25.09375 0.875 
L 2.984375 54.6875 
L 12.5 54.6875 
L 29.59375 11.921875 
L 46.6875 54.6875 
L 56.203125 54.6875 
z
" id="DejaVuSans-79"/>
    </defs>
    <g style="fill:#262626;" transform="translate(217.642623 21.789)scale(0.192 -0.192)">
     <use xlink:href="#DejaVuSans-52"/>
     <use x="69.419922" xlink:href="#DejaVuSans-65"/>
     <use x="130.943359" xlink:href="#DejaVuSans-73"/>
     <use x="183.042969" xlink:href="#DejaVuSans-69"/>
     <use x="210.826172" xlink:href="#DejaVuSans-64"/>
     <use x="274.302734" xlink:href="#DejaVuSans-75"/>
     <use x="337.681641" xlink:href="#DejaVuSans-61"/>
     <use x="398.960938" xlink:href="#DejaVuSans-6c"/>
     <use x="426.744141" xlink:href="#DejaVuSans-20"/>
     <use x="458.53125" xlink:href="#DejaVuSans-41"/>
     <use x="526.939453" xlink:href="#DejaVuSans-6e"/>
     <use x="590.318359" xlink:href="#DejaVuSans-61"/>
     <use x="651.597656" xlink:href="#DejaVuSans-6c"/>
     <use x="679.380859" xlink:href="#DejaVuSans-79"/>
     <use x="738.560547" xlink:href="#DejaVuSans-73"/>
     <use x="790.660156" xlink:href="#DejaVuSans-69"/>
     <use x="818.443359" xlink:href="#DejaVuSans-73"/>
    </g>
    <!-- Pearson: 0.125, p-value: 0.4026 -->
    <defs>
     <path d="M 19.671875 64.796875 
L 19.671875 37.40625 
L 32.078125 37.40625 
Q 38.96875 37.40625 42.71875 40.96875 
Q 46.484375 44.53125 46.484375 51.125 
Q 46.484375 57.671875 42.71875 61.234375 
Q 38.96875 64.796875 32.078125 64.796875 
z
M 9.8125 72.90625 
L 32.078125 72.90625 
Q 44.34375 72.90625 50.609375 67.359375 
Q 56.890625 61.8125 56.890625 51.125 
Q 56.890625 40.328125 50.609375 34.8125 
Q 44.34375 29.296875 32.078125 29.296875 
L 19.671875 29.296875 
L 19.671875 0 
L 9.8125 0 
z
" id="DejaVuSans-50"/>
     <path d="M 11.71875 12.40625 
L 22.015625 12.40625 
L 22.015625 0 
L 11.71875 0 
z
M 11.71875 51.703125 
L 22.015625 51.703125 
L 22.015625 39.3125 
L 11.71875 39.3125 
z
" id="DejaVuSans-3a"/>
     <path d="M 11.71875 12.40625 
L 22.015625 12.40625 
L 22.015625 4 
L 14.015625 -11.625 
L 7.71875 -11.625 
L 11.71875 4 
z
" id="DejaVuSans-2c"/>
     <path d="M 4.890625 31.390625 
L 31.203125 31.390625 
L 31.203125 23.390625 
L 4.890625 23.390625 
z
" id="DejaVuSans-2d"/>
     <path d="M 2.984375 54.6875 
L 12.5 54.6875 
L 29.59375 8.796875 
L 46.6875 54.6875 
L 56.203125 54.6875 
L 35.6875 0 
L 23.484375 0 
z
" id="DejaVuSans-76"/>
     <path d="M 37.796875 64.3125 
L 12.890625 25.390625 
L 37.796875 25.390625 
z
M 35.203125 72.90625 
L 47.609375 72.90625 
L 47.609375 25.390625 
L 58.015625 25.390625 
L 58.015625 17.1875 
L 47.609375 17.1875 
L 47.609375 0 
L 37.796875 0 
L 37.796875 17.1875 
L 4.890625 17.1875 
L 4.890625 26.703125 
z
" id="DejaVuSans-34"/>
     <path d="M 33.015625 40.375 
Q 26.375 40.375 22.484375 35.828125 
Q 18.609375 31.296875 18.609375 23.390625 
Q 18.609375 15.53125 22.484375 10.953125 
Q 26.375 6.390625 33.015625 6.390625 
Q 39.65625 6.390625 43.53125 10.953125 
Q 47.40625 15.53125 47.40625 23.390625 
Q 47.40625 31.296875 43.53125 35.828125 
Q 39.65625 40.375 33.015625 40.375 
z
M 52.59375 71.296875 
L 52.59375 62.3125 
Q 48.875 64.0625 45.09375 64.984375 
Q 41.3125 65.921875 37.59375 65.921875 
Q 27.828125 65.921875 22.671875 59.328125 
Q 17.53125 52.734375 16.796875 39.40625 
Q 19.671875 43.65625 24.015625 45.921875 
Q 28.375 48.1875 33.59375 48.1875 
Q 44.578125 48.1875 50.953125 41.515625 
Q 57.328125 34.859375 57.328125 23.390625 
Q 57.328125 12.15625 50.6875 5.359375 
Q 44.046875 -1.421875 33.015625 -1.421875 
Q 20.359375 -1.421875 13.671875 8.265625 
Q 6.984375 17.96875 6.984375 36.375 
Q 6.984375 53.65625 15.1875 63.9375 
Q 23.390625 74.21875 37.203125 74.21875 
Q 40.921875 74.21875 44.703125 73.484375 
Q 48.484375 72.75 52.59375 71.296875 
z
" id="DejaVuSans-36"/>
    </defs>
    <g style="fill:#262626;" transform="translate(147.210123 43.2888)scale(0.192 -0.192)">
     <use xlink:href="#DejaVuSans-50"/>
     <use x="60.255859" xlink:href="#DejaVuSans-65"/>
     <use x="121.779297" xlink:href="#DejaVuSans-61"/>
     <use x="183.058594" xlink:href="#DejaVuSans-72"/>
     <use x="224.171875" xlink:href="#DejaVuSans-73"/>
     <use x="276.271484" xlink:href="#DejaVuSans-6f"/>
     <use x="337.453125" xlink:href="#DejaVuSans-6e"/>
     <use x="400.832031" xlink:href="#DejaVuSans-3a"/>
     <use x="434.523438" xlink:href="#DejaVuSans-20"/>
     <use x="466.310547" xlink:href="#DejaVuSans-30"/>
     <use x="529.933594" xlink:href="#DejaVuSans-2e"/>
     <use x="561.720703" xlink:href="#DejaVuSans-31"/>
     <use x="625.34375" xlink:href="#DejaVuSans-32"/>
     <use x="688.966797" xlink:href="#DejaVuSans-35"/>
     <use x="752.589844" xlink:href="#DejaVuSans-2c"/>
     <use x="784.376953" xlink:href="#DejaVuSans-20"/>
     <use x="816.164062" xlink:href="#DejaVuSans-70"/>
     <use x="879.640625" xlink:href="#DejaVuSans-2d"/>
     <use x="915.693359" xlink:href="#DejaVuSans-76"/>
     <use x="974.873047" xlink:href="#DejaVuSans-61"/>
     <use x="1036.152344" xlink:href="#DejaVuSans-6c"/>
     <use x="1063.935547" xlink:href="#DejaVuSans-75"/>
     <use x="1127.314453" xlink:href="#DejaVuSans-65"/>
     <use x="1188.837891" xlink:href="#DejaVuSans-3a"/>
     <use x="1222.529297" xlink:href="#DejaVuSans-20"/>
     <use x="1254.316406" xlink:href="#DejaVuSans-30"/>
     <use x="1317.939453" xlink:href="#DejaVuSans-2e"/>
     <use x="1349.726562" xlink:href="#DejaVuSans-34"/>
     <use x="1413.349609" xlink:href="#DejaVuSans-30"/>
     <use x="1476.972656" xlink:href="#DejaVuSans-32"/>
     <use x="1540.595703" xlink:href="#DejaVuSans-36"/>
    </g>
    <!-- Spearman: 0.2236, p-value: 0.1308 -->
    <defs>
     <path d="M 53.515625 70.515625 
L 53.515625 60.890625 
Q 47.90625 63.578125 42.921875 64.890625 
Q 37.9375 66.21875 33.296875 66.21875 
Q 25.25 66.21875 20.875 63.09375 
Q 16.5 59.96875 16.5 54.203125 
Q 16.5 49.359375 19.40625 46.890625 
Q 22.3125 44.4375 30.421875 42.921875 
L 36.375 41.703125 
Q 47.40625 39.59375 52.65625 34.296875 
Q 57.90625 29 57.90625 20.125 
Q 57.90625 9.515625 50.796875 4.046875 
Q 43.703125 -1.421875 29.984375 -1.421875 
Q 24.8125 -1.421875 18.96875 -0.25 
Q 13.140625 0.921875 6.890625 3.21875 
L 6.890625 13.375 
Q 12.890625 10.015625 18.65625 8.296875 
Q 24.421875 6.59375 29.984375 6.59375 
Q 38.421875 6.59375 43.015625 9.90625 
Q 47.609375 13.234375 47.609375 19.390625 
Q 47.609375 24.75 44.3125 27.78125 
Q 41.015625 30.8125 33.5 32.328125 
L 27.484375 33.5 
Q 16.453125 35.6875 11.515625 40.375 
Q 6.59375 45.0625 6.59375 53.421875 
Q 6.59375 63.09375 13.40625 68.65625 
Q 20.21875 74.21875 32.171875 74.21875 
Q 37.3125 74.21875 42.625 73.28125 
Q 47.953125 72.359375 53.515625 70.515625 
z
" id="DejaVuSans-53"/>
    </defs>
    <g style="fill:#262626;" transform="translate(130.339623 64.7886)scale(0.192 -0.192)">
     <use xlink:href="#DejaVuSans-53"/>
     <use x="63.476562" xlink:href="#DejaVuSans-70"/>
     <use x="126.953125" xlink:href="#DejaVuSans-65"/>
     <use x="188.476562" xlink:href="#DejaVuSans-61"/>
     <use x="249.755859" xlink:href="#DejaVuSans-72"/>
     <use x="290.853516" xlink:href="#DejaVuSans-6d"/>
     <use x="388.265625" xlink:href="#DejaVuSans-61"/>
     <use x="449.544922" xlink:href="#DejaVuSans-6e"/>
     <use x="512.923828" xlink:href="#DejaVuSans-3a"/>
     <use x="546.615234" xlink:href="#DejaVuSans-20"/>
     <use x="578.402344" xlink:href="#DejaVuSans-30"/>
     <use x="642.025391" xlink:href="#DejaVuSans-2e"/>
     <use x="673.8125" xlink:href="#DejaVuSans-32"/>
     <use x="737.435547" xlink:href="#DejaVuSans-32"/>
     <use x="801.058594" xlink:href="#DejaVuSans-33"/>
     <use x="864.681641" xlink:href="#DejaVuSans-36"/>
     <use x="928.304688" xlink:href="#DejaVuSans-2c"/>
     <use x="960.091797" xlink:href="#DejaVuSans-20"/>
     <use x="991.878906" xlink:href="#DejaVuSans-70"/>
     <use x="1055.355469" xlink:href="#DejaVuSans-2d"/>
     <use x="1091.408203" xlink:href="#DejaVuSans-76"/>
     <use x="1150.587891" xlink:href="#DejaVuSans-61"/>
     <use x="1211.867188" xlink:href="#DejaVuSans-6c"/>
     <use x="1239.650391" xlink:href="#DejaVuSans-75"/>
     <use x="1303.029297" xlink:href="#DejaVuSans-65"/>
     <use x="1364.552734" xlink:href="#DejaVuSans-3a"/>
     <use x="1398.244141" xlink:href="#DejaVuSans-20"/>
     <use x="1430.03125" xlink:href="#DejaVuSans-30"/>
     <use x="1493.654297" xlink:href="#DejaVuSans-2e"/>
     <use x="1525.441406" xlink:href="#DejaVuSans-31"/>
     <use x="1589.064453" xlink:href="#DejaVuSans-33"/>
     <use x="1652.6875" xlink:href="#DejaVuSans-30"/>
     <use x="1716.310547" xlink:href="#DejaVuSans-38"/>
    </g>
   </g>
  </g>
  <g id="legend_1">
   <g id="text_18">
    <!-- norm_error_category -->
    <defs>
     <path d="M 50.984375 -16.609375 
L 50.984375 -23.578125 
L -0.984375 -23.578125 
L -0.984375 -16.609375 
z
" id="DejaVuSans-5f"/>
     <path d="M 48.78125 52.59375 
L 48.78125 44.1875 
Q 44.96875 46.296875 41.140625 47.34375 
Q 37.3125 48.390625 33.40625 48.390625 
Q 24.65625 48.390625 19.8125 42.84375 
Q 14.984375 37.3125 14.984375 27.296875 
Q 14.984375 17.28125 19.8125 11.734375 
Q 24.65625 6.203125 33.40625 6.203125 
Q 37.3125 6.203125 41.140625 7.25 
Q 44.96875 8.296875 48.78125 10.40625 
L 48.78125 2.09375 
Q 45.015625 0.34375 40.984375 -0.53125 
Q 36.96875 -1.421875 32.421875 -1.421875 
Q 20.0625 -1.421875 12.78125 6.34375 
Q 5.515625 14.109375 5.515625 27.296875 
Q 5.515625 40.671875 12.859375 48.328125 
Q 20.21875 56 33.015625 56 
Q 37.15625 56 41.109375 55.140625 
Q 45.0625 54.296875 48.78125 52.59375 
z
" id="DejaVuSans-63"/>
     <path d="M 45.40625 27.984375 
Q 45.40625 37.75 41.375 43.109375 
Q 37.359375 48.484375 30.078125 48.484375 
Q 22.859375 48.484375 18.828125 43.109375 
Q 14.796875 37.75 14.796875 27.984375 
Q 14.796875 18.265625 18.828125 12.890625 
Q 22.859375 7.515625 30.078125 7.515625 
Q 37.359375 7.515625 41.375 12.890625 
Q 45.40625 18.265625 45.40625 27.984375 
z
M 54.390625 6.78125 
Q 54.390625 -7.171875 48.1875 -13.984375 
Q 42 -20.796875 29.203125 -20.796875 
Q 24.46875 -20.796875 20.265625 -20.09375 
Q 16.0625 -19.390625 12.109375 -17.921875 
L 12.109375 -9.1875 
Q 16.0625 -11.328125 19.921875 -12.34375 
Q 23.78125 -13.375 27.78125 -13.375 
Q 36.625 -13.375 41.015625 -8.765625 
Q 45.40625 -4.15625 45.40625 5.171875 
L 45.40625 9.625 
Q 42.625 4.78125 38.28125 2.390625 
Q 33.9375 0 27.875 0 
Q 17.828125 0 11.671875 7.65625 
Q 5.515625 15.328125 5.515625 27.984375 
Q 5.515625 40.671875 11.671875 48.328125 
Q 17.828125 56 27.875 56 
Q 33.9375 56 38.28125 53.609375 
Q 42.625 51.21875 45.40625 46.390625 
L 45.40625 54.6875 
L 54.390625 54.6875 
z
" id="DejaVuSans-67"/>
    </defs>
    <g style="fill:#262626;" transform="translate(533.833721 274.710037)scale(0.1496 -0.1496)">
     <use xlink:href="#DejaVuSans-6e"/>
     <use x="63.378906" xlink:href="#DejaVuSans-6f"/>
     <use x="124.560547" xlink:href="#DejaVuSans-72"/>
     <use x="165.658203" xlink:href="#DejaVuSans-6d"/>
     <use x="263.070312" xlink:href="#DejaVuSans-5f"/>
     <use x="313.070312" xlink:href="#DejaVuSans-65"/>
     <use x="374.59375" xlink:href="#DejaVuSans-72"/>
     <use x="415.691406" xlink:href="#DejaVuSans-72"/>
     <use x="456.773438" xlink:href="#DejaVuSans-6f"/>
     <use x="517.955078" xlink:href="#DejaVuSans-72"/>
     <use x="559.068359" xlink:href="#DejaVuSans-5f"/>
     <use x="609.068359" xlink:href="#DejaVuSans-63"/>
     <use x="664.048828" xlink:href="#DejaVuSans-61"/>
     <use x="725.328125" xlink:href="#DejaVuSans-74"/>
     <use x="764.537109" xlink:href="#DejaVuSans-65"/>
     <use x="826.060547" xlink:href="#DejaVuSans-67"/>
     <use x="889.537109" xlink:href="#DejaVuSans-6f"/>
     <use x="950.71875" xlink:href="#DejaVuSans-72"/>
     <use x="991.832031" xlink:href="#DejaVuSans-79"/>
    </g>
   </g>
   <g id="PathCollection_4">
    <g>
     <use style="fill:#2ecc71;stroke:#2ecc71;stroke-width:0.48;" x="572.734608" xlink:href="#m2548fc2ec9" y="294.194825"/>
    </g>
   </g>
   <g id="text_19">
    <!-- Good -->
    <defs>
     <path d="M 59.515625 10.40625 
L 59.515625 29.984375 
L 43.40625 29.984375 
L 43.40625 38.09375 
L 69.28125 38.09375 
L 69.28125 6.78125 
Q 63.578125 2.734375 56.6875 0.65625 
Q 49.8125 -1.421875 42 -1.421875 
Q 24.90625 -1.421875 15.25 8.5625 
Q 5.609375 18.5625 5.609375 36.375 
Q 5.609375 54.25 15.25 64.234375 
Q 24.90625 74.21875 42 74.21875 
Q 49.125 74.21875 55.546875 72.453125 
Q 61.96875 70.703125 67.390625 67.28125 
L 67.390625 56.78125 
Q 61.921875 61.421875 55.765625 63.765625 
Q 49.609375 66.109375 42.828125 66.109375 
Q 29.4375 66.109375 22.71875 58.640625 
Q 16.015625 51.171875 16.015625 36.375 
Q 16.015625 21.625 22.71875 14.15625 
Q 29.4375 6.6875 42.828125 6.6875 
Q 48.046875 6.6875 52.140625 7.59375 
Q 56.25 8.5 59.515625 10.40625 
z
" id="DejaVuSans-47"/>
    </defs>
    <g style="fill:#262626;" transform="translate(601.534608 298.394825)scale(0.16 -0.16)">
     <use xlink:href="#DejaVuSans-47"/>
     <use x="77.490234" xlink:href="#DejaVuSans-6f"/>
     <use x="138.671875" xlink:href="#DejaVuSans-6f"/>
     <use x="199.853516" xlink:href="#DejaVuSans-64"/>
    </g>
   </g>
   <g id="PathCollection_5">
    <g>
     <use style="fill:#34495e;stroke:#34495e;stroke-width:0.48;" x="572.734608" xlink:href="#m04ea998f6d" y="317.679825"/>
    </g>
   </g>
   <g id="text_20">
    <!-- Average -->
    <g style="fill:#262626;" transform="translate(601.534608 321.879825)scale(0.16 -0.16)">
     <use xlink:href="#DejaVuSans-41"/>
     <use x="68.330078" xlink:href="#DejaVuSans-76"/>
     <use x="127.509766" xlink:href="#DejaVuSans-65"/>
     <use x="189.033203" xlink:href="#DejaVuSans-72"/>
     <use x="230.146484" xlink:href="#DejaVuSans-61"/>
     <use x="291.425781" xlink:href="#DejaVuSans-67"/>
     <use x="354.902344" xlink:href="#DejaVuSans-65"/>
    </g>
   </g>
   <g id="PathCollection_6">
    <g>
     <use style="fill:#e74c3c;stroke:#e74c3c;stroke-width:0.48;" x="572.734608" xlink:href="#m2c03281f35" y="341.164825"/>
    </g>
   </g>
   <g id="text_21">
    <!-- Bad -->
    <defs>
     <path d="M 19.671875 34.8125 
L 19.671875 8.109375 
L 35.5 8.109375 
Q 43.453125 8.109375 47.28125 11.40625 
Q 51.125 14.703125 51.125 21.484375 
Q 51.125 28.328125 47.28125 31.5625 
Q 43.453125 34.8125 35.5 34.8125 
z
M 19.671875 64.796875 
L 19.671875 42.828125 
L 34.28125 42.828125 
Q 41.5 42.828125 45.03125 45.53125 
Q 48.578125 48.25 48.578125 53.8125 
Q 48.578125 59.328125 45.03125 62.0625 
Q 41.5 64.796875 34.28125 64.796875 
z
M 9.8125 72.90625 
L 35.015625 72.90625 
Q 46.296875 72.90625 52.390625 68.21875 
Q 58.5 63.53125 58.5 54.890625 
Q 58.5 48.1875 55.375 44.234375 
Q 52.25 40.28125 46.1875 39.3125 
Q 53.46875 37.75 57.5 32.78125 
Q 61.53125 27.828125 61.53125 20.40625 
Q 61.53125 10.640625 54.890625 5.3125 
Q 48.25 0 35.984375 0 
L 9.8125 0 
z
" id="DejaVuSans-42"/>
    </defs>
    <g style="fill:#262626;" transform="translate(601.534608 345.364825)scale(0.16 -0.16)">
     <use xlink:href="#DejaVuSans-42"/>
     <use x="68.603516" xlink:href="#DejaVuSans-61"/>
     <use x="129.882812" xlink:href="#DejaVuSans-64"/>
    </g>
   </g>
  </g>
 </g>
 <defs>
  <clipPath id="p30b017198e">
   <rect height="486.328" width="452.310246" x="75.0585" y="70.7886"/>
  </clipPath>
 </defs>
</svg>
