<?xml version="1.0" encoding="utf-8" standalone="no"?>
<!DOCTYPE svg PUBLIC "-//W3C//DTD SVG 1.1//EN"
  "http://www.w3.org/Graphics/SVG/1.1/DTD/svg11.dtd">
<!-- Created with matplotlib (http://matplotlib.org/) -->
<svg height="612pt" version="1.1" viewBox="0 0 665 612" width="665pt" xmlns="http://www.w3.org/2000/svg" xmlns:xlink="http://www.w3.org/1999/xlink">
 <defs>
  <style type="text/css">
*{stroke-linecap:butt;stroke-linejoin:round;}
  </style>
 </defs>
 <g id="figure_1">
  <g id="patch_1">
   <path d="M 0 612.0351 
L 665.986067 612.0351 
L 665.986067 0 
L 0 0 
z
" style="fill:#ffffff;"/>
  </g>
  <g id="axes_1">
   <g id="patch_2">
    <path d="M 63.021 557.1166 
L 535.053817 557.1166 
L 535.053817 70.7886 
L 63.021 70.7886 
z
" style="fill:#eaeaf2;"/>
   </g>
   <g id="matplotlib.axis_1">
    <g id="xtick_1">
     <g id="line2d_1">
      <path clip-path="url(#p03b27950a6)" d="M 79.571875 557.1166 
L 79.571875 70.7886 
" style="fill:none;stroke:#ffffff;stroke-linecap:round;stroke-width:1.6;"/>
     </g>
     <g id="line2d_2"/>
     <g id="text_1">
      <!-- 0 -->
      <defs>
       <path d="M 31.78125 66.40625 
Q 24.171875 66.40625 20.328125 58.90625 
Q 16.5 51.421875 16.5 36.375 
Q 16.5 21.390625 20.328125 13.890625 
Q 24.171875 6.390625 31.78125 6.390625 
Q 39.453125 6.390625 43.28125 13.890625 
Q 47.125 21.390625 47.125 36.375 
Q 47.125 51.421875 43.28125 58.90625 
Q 39.453125 66.40625 31.78125 66.40625 
z
M 31.78125 74.21875 
Q 44.046875 74.21875 50.515625 64.515625 
Q 56.984375 54.828125 56.984375 36.375 
Q 56.984375 17.96875 50.515625 8.265625 
Q 44.046875 -1.421875 31.78125 -1.421875 
Q 19.53125 -1.421875 13.0625 8.265625 
Q 6.59375 17.96875 6.59375 36.375 
Q 6.59375 54.828125 13.0625 64.515625 
Q 19.53125 74.21875 31.78125 74.21875 
z
" id="DejaVuSans-30"/>
      </defs>
      <g style="fill:#262626;" transform="translate(74.481875 580.4741)scale(0.16 -0.16)">
       <use xlink:href="#DejaVuSans-30"/>
      </g>
     </g>
    </g>
    <g id="xtick_2">
     <g id="line2d_3">
      <path clip-path="url(#p03b27950a6)" d="M 164.312141 557.1166 
L 164.312141 70.7886 
" style="fill:none;stroke:#ffffff;stroke-linecap:round;stroke-width:1.6;"/>
     </g>
     <g id="line2d_4"/>
     <g id="text_2">
      <!-- 20 -->
      <defs>
       <path d="M 19.1875 8.296875 
L 53.609375 8.296875 
L 53.609375 0 
L 7.328125 0 
L 7.328125 8.296875 
Q 12.9375 14.109375 22.625 23.890625 
Q 32.328125 33.6875 34.8125 36.53125 
Q 39.546875 41.84375 41.421875 45.53125 
Q 43.3125 49.21875 43.3125 52.78125 
Q 43.3125 58.59375 39.234375 62.25 
Q 35.15625 65.921875 28.609375 65.921875 
Q 23.96875 65.921875 18.8125 64.3125 
Q 13.671875 62.703125 7.8125 59.421875 
L 7.8125 69.390625 
Q 13.765625 71.78125 18.9375 73 
Q 24.125 74.21875 28.421875 74.21875 
Q 39.75 74.21875 46.484375 68.546875 
Q 53.21875 62.890625 53.21875 53.421875 
Q 53.21875 48.921875 51.53125 44.890625 
Q 49.859375 40.875 45.40625 35.40625 
Q 44.1875 33.984375 37.640625 27.21875 
Q 31.109375 20.453125 19.1875 8.296875 
z
" id="DejaVuSans-32"/>
      </defs>
      <g style="fill:#262626;" transform="translate(154.132141 580.4741)scale(0.16 -0.16)">
       <use xlink:href="#DejaVuSans-32"/>
       <use x="63.623047" xlink:href="#DejaVuSans-30"/>
      </g>
     </g>
    </g>
    <g id="xtick_3">
     <g id="line2d_5">
      <path clip-path="url(#p03b27950a6)" d="M 249.052408 557.1166 
L 249.052408 70.7886 
" style="fill:none;stroke:#ffffff;stroke-linecap:round;stroke-width:1.6;"/>
     </g>
     <g id="line2d_6"/>
     <g id="text_3">
      <!-- 40 -->
      <defs>
       <path d="M 37.796875 64.3125 
L 12.890625 25.390625 
L 37.796875 25.390625 
z
M 35.203125 72.90625 
L 47.609375 72.90625 
L 47.609375 25.390625 
L 58.015625 25.390625 
L 58.015625 17.1875 
L 47.609375 17.1875 
L 47.609375 0 
L 37.796875 0 
L 37.796875 17.1875 
L 4.890625 17.1875 
L 4.890625 26.703125 
z
" id="DejaVuSans-34"/>
      </defs>
      <g style="fill:#262626;" transform="translate(238.872408 580.4741)scale(0.16 -0.16)">
       <use xlink:href="#DejaVuSans-34"/>
       <use x="63.623047" xlink:href="#DejaVuSans-30"/>
      </g>
     </g>
    </g>
    <g id="xtick_4">
     <g id="line2d_7">
      <path clip-path="url(#p03b27950a6)" d="M 333.792675 557.1166 
L 333.792675 70.7886 
" style="fill:none;stroke:#ffffff;stroke-linecap:round;stroke-width:1.6;"/>
     </g>
     <g id="line2d_8"/>
     <g id="text_4">
      <!-- 60 -->
      <defs>
       <path d="M 33.015625 40.375 
Q 26.375 40.375 22.484375 35.828125 
Q 18.609375 31.296875 18.609375 23.390625 
Q 18.609375 15.53125 22.484375 10.953125 
Q 26.375 6.390625 33.015625 6.390625 
Q 39.65625 6.390625 43.53125 10.953125 
Q 47.40625 15.53125 47.40625 23.390625 
Q 47.40625 31.296875 43.53125 35.828125 
Q 39.65625 40.375 33.015625 40.375 
z
M 52.59375 71.296875 
L 52.59375 62.3125 
Q 48.875 64.0625 45.09375 64.984375 
Q 41.3125 65.921875 37.59375 65.921875 
Q 27.828125 65.921875 22.671875 59.328125 
Q 17.53125 52.734375 16.796875 39.40625 
Q 19.671875 43.65625 24.015625 45.921875 
Q 28.375 48.1875 33.59375 48.1875 
Q 44.578125 48.1875 50.953125 41.515625 
Q 57.328125 34.859375 57.328125 23.390625 
Q 57.328125 12.15625 50.6875 5.359375 
Q 44.046875 -1.421875 33.015625 -1.421875 
Q 20.359375 -1.421875 13.671875 8.265625 
Q 6.984375 17.96875 6.984375 36.375 
Q 6.984375 53.65625 15.1875 63.9375 
Q 23.390625 74.21875 37.203125 74.21875 
Q 40.921875 74.21875 44.703125 73.484375 
Q 48.484375 72.75 52.59375 71.296875 
z
" id="DejaVuSans-36"/>
      </defs>
      <g style="fill:#262626;" transform="translate(323.612675 580.4741)scale(0.16 -0.16)">
       <use xlink:href="#DejaVuSans-36"/>
       <use x="63.623047" xlink:href="#DejaVuSans-30"/>
      </g>
     </g>
    </g>
    <g id="xtick_5">
     <g id="line2d_9">
      <path clip-path="url(#p03b27950a6)" d="M 418.532942 557.1166 
L 418.532942 70.7886 
" style="fill:none;stroke:#ffffff;stroke-linecap:round;stroke-width:1.6;"/>
     </g>
     <g id="line2d_10"/>
     <g id="text_5">
      <!-- 80 -->
      <defs>
       <path d="M 31.78125 34.625 
Q 24.75 34.625 20.71875 30.859375 
Q 16.703125 27.09375 16.703125 20.515625 
Q 16.703125 13.921875 20.71875 10.15625 
Q 24.75 6.390625 31.78125 6.390625 
Q 38.8125 6.390625 42.859375 10.171875 
Q 46.921875 13.96875 46.921875 20.515625 
Q 46.921875 27.09375 42.890625 30.859375 
Q 38.875 34.625 31.78125 34.625 
z
M 21.921875 38.8125 
Q 15.578125 40.375 12.03125 44.71875 
Q 8.5 49.078125 8.5 55.328125 
Q 8.5 64.0625 14.71875 69.140625 
Q 20.953125 74.21875 31.78125 74.21875 
Q 42.671875 74.21875 48.875 69.140625 
Q 55.078125 64.0625 55.078125 55.328125 
Q 55.078125 49.078125 51.53125 44.71875 
Q 48 40.375 41.703125 38.8125 
Q 48.828125 37.15625 52.796875 32.3125 
Q 56.78125 27.484375 56.78125 20.515625 
Q 56.78125 9.90625 50.3125 4.234375 
Q 43.84375 -1.421875 31.78125 -1.421875 
Q 19.734375 -1.421875 13.25 4.234375 
Q 6.78125 9.90625 6.78125 20.515625 
Q 6.78125 27.484375 10.78125 32.3125 
Q 14.796875 37.15625 21.921875 38.8125 
z
M 18.3125 54.390625 
Q 18.3125 48.734375 21.84375 45.5625 
Q 25.390625 42.390625 31.78125 42.390625 
Q 38.140625 42.390625 41.71875 45.5625 
Q 45.3125 48.734375 45.3125 54.390625 
Q 45.3125 60.0625 41.71875 63.234375 
Q 38.140625 66.40625 31.78125 66.40625 
Q 25.390625 66.40625 21.84375 63.234375 
Q 18.3125 60.0625 18.3125 54.390625 
z
" id="DejaVuSans-38"/>
      </defs>
      <g style="fill:#262626;" transform="translate(408.352942 580.4741)scale(0.16 -0.16)">
       <use xlink:href="#DejaVuSans-38"/>
       <use x="63.623047" xlink:href="#DejaVuSans-30"/>
      </g>
     </g>
    </g>
    <g id="xtick_6">
     <g id="line2d_11">
      <path clip-path="url(#p03b27950a6)" d="M 503.273208 557.1166 
L 503.273208 70.7886 
" style="fill:none;stroke:#ffffff;stroke-linecap:round;stroke-width:1.6;"/>
     </g>
     <g id="line2d_12"/>
     <g id="text_6">
      <!-- 100 -->
      <defs>
       <path d="M 12.40625 8.296875 
L 28.515625 8.296875 
L 28.515625 63.921875 
L 10.984375 60.40625 
L 10.984375 69.390625 
L 28.421875 72.90625 
L 38.28125 72.90625 
L 38.28125 8.296875 
L 54.390625 8.296875 
L 54.390625 0 
L 12.40625 0 
z
" id="DejaVuSans-31"/>
      </defs>
      <g style="fill:#262626;" transform="translate(488.003208 580.4741)scale(0.16 -0.16)">
       <use xlink:href="#DejaVuSans-31"/>
       <use x="63.623047" xlink:href="#DejaVuSans-30"/>
       <use x="127.246094" xlink:href="#DejaVuSans-30"/>
      </g>
     </g>
    </g>
    <g id="text_7">
     <!-- Absolute Error -->
     <defs>
      <path d="M 34.1875 63.1875 
L 20.796875 26.90625 
L 47.609375 26.90625 
z
M 28.609375 72.90625 
L 39.796875 72.90625 
L 67.578125 0 
L 57.328125 0 
L 50.6875 18.703125 
L 17.828125 18.703125 
L 11.1875 0 
L 0.78125 0 
z
" id="DejaVuSans-41"/>
      <path d="M 48.6875 27.296875 
Q 48.6875 37.203125 44.609375 42.84375 
Q 40.53125 48.484375 33.40625 48.484375 
Q 26.265625 48.484375 22.1875 42.84375 
Q 18.109375 37.203125 18.109375 27.296875 
Q 18.109375 17.390625 22.1875 11.75 
Q 26.265625 6.109375 33.40625 6.109375 
Q 40.53125 6.109375 44.609375 11.75 
Q 48.6875 17.390625 48.6875 27.296875 
z
M 18.109375 46.390625 
Q 20.953125 51.265625 25.265625 53.625 
Q 29.59375 56 35.59375 56 
Q 45.5625 56 51.78125 48.09375 
Q 58.015625 40.1875 58.015625 27.296875 
Q 58.015625 14.40625 51.78125 6.484375 
Q 45.5625 -1.421875 35.59375 -1.421875 
Q 29.59375 -1.421875 25.265625 0.953125 
Q 20.953125 3.328125 18.109375 8.203125 
L 18.109375 0 
L 9.078125 0 
L 9.078125 75.984375 
L 18.109375 75.984375 
z
" id="DejaVuSans-62"/>
      <path d="M 44.28125 53.078125 
L 44.28125 44.578125 
Q 40.484375 46.53125 36.375 47.5 
Q 32.28125 48.484375 27.875 48.484375 
Q 21.1875 48.484375 17.84375 46.4375 
Q 14.5 44.390625 14.5 40.28125 
Q 14.5 37.15625 16.890625 35.375 
Q 19.28125 33.59375 26.515625 31.984375 
L 29.59375 31.296875 
Q 39.15625 29.25 43.1875 25.515625 
Q 47.21875 21.78125 47.21875 15.09375 
Q 47.21875 7.46875 41.1875 3.015625 
Q 35.15625 -1.421875 24.609375 -1.421875 
Q 20.21875 -1.421875 15.453125 -0.5625 
Q 10.6875 0.296875 5.421875 2 
L 5.421875 11.28125 
Q 10.40625 8.6875 15.234375 7.390625 
Q 20.0625 6.109375 24.8125 6.109375 
Q 31.15625 6.109375 34.5625 8.28125 
Q 37.984375 10.453125 37.984375 14.40625 
Q 37.984375 18.0625 35.515625 20.015625 
Q 33.0625 21.96875 24.703125 23.78125 
L 21.578125 24.515625 
Q 13.234375 26.265625 9.515625 29.90625 
Q 5.8125 33.546875 5.8125 39.890625 
Q 5.8125 47.609375 11.28125 51.796875 
Q 16.75 56 26.8125 56 
Q 31.78125 56 36.171875 55.265625 
Q 40.578125 54.546875 44.28125 53.078125 
z
" id="DejaVuSans-73"/>
      <path d="M 30.609375 48.390625 
Q 23.390625 48.390625 19.1875 42.75 
Q 14.984375 37.109375 14.984375 27.296875 
Q 14.984375 17.484375 19.15625 11.84375 
Q 23.34375 6.203125 30.609375 6.203125 
Q 37.796875 6.203125 41.984375 11.859375 
Q 46.1875 17.53125 46.1875 27.296875 
Q 46.1875 37.015625 41.984375 42.703125 
Q 37.796875 48.390625 30.609375 48.390625 
z
M 30.609375 56 
Q 42.328125 56 49.015625 48.375 
Q 55.71875 40.765625 55.71875 27.296875 
Q 55.71875 13.875 49.015625 6.21875 
Q 42.328125 -1.421875 30.609375 -1.421875 
Q 18.84375 -1.421875 12.171875 6.21875 
Q 5.515625 13.875 5.515625 27.296875 
Q 5.515625 40.765625 12.171875 48.375 
Q 18.84375 56 30.609375 56 
z
" id="DejaVuSans-6f"/>
      <path d="M 9.421875 75.984375 
L 18.40625 75.984375 
L 18.40625 0 
L 9.421875 0 
z
" id="DejaVuSans-6c"/>
      <path d="M 8.5 21.578125 
L 8.5 54.6875 
L 17.484375 54.6875 
L 17.484375 21.921875 
Q 17.484375 14.15625 20.5 10.265625 
Q 23.53125 6.390625 29.59375 6.390625 
Q 36.859375 6.390625 41.078125 11.03125 
Q 45.3125 15.671875 45.3125 23.6875 
L 45.3125 54.6875 
L 54.296875 54.6875 
L 54.296875 0 
L 45.3125 0 
L 45.3125 8.40625 
Q 42.046875 3.421875 37.71875 1 
Q 33.40625 -1.421875 27.6875 -1.421875 
Q 18.265625 -1.421875 13.375 4.4375 
Q 8.5 10.296875 8.5 21.578125 
z
M 31.109375 56 
z
" id="DejaVuSans-75"/>
      <path d="M 18.3125 70.21875 
L 18.3125 54.6875 
L 36.8125 54.6875 
L 36.8125 47.703125 
L 18.3125 47.703125 
L 18.3125 18.015625 
Q 18.3125 11.328125 20.140625 9.421875 
Q 21.96875 7.515625 27.59375 7.515625 
L 36.8125 7.515625 
L 36.8125 0 
L 27.59375 0 
Q 17.1875 0 13.234375 3.875 
Q 9.28125 7.765625 9.28125 18.015625 
L 9.28125 47.703125 
L 2.6875 47.703125 
L 2.6875 54.6875 
L 9.28125 54.6875 
L 9.28125 70.21875 
z
" id="DejaVuSans-74"/>
      <path d="M 56.203125 29.59375 
L 56.203125 25.203125 
L 14.890625 25.203125 
Q 15.484375 15.921875 20.484375 11.0625 
Q 25.484375 6.203125 34.421875 6.203125 
Q 39.59375 6.203125 44.453125 7.46875 
Q 49.3125 8.734375 54.109375 11.28125 
L 54.109375 2.78125 
Q 49.265625 0.734375 44.1875 -0.34375 
Q 39.109375 -1.421875 33.890625 -1.421875 
Q 20.796875 -1.421875 13.15625 6.1875 
Q 5.515625 13.8125 5.515625 26.8125 
Q 5.515625 40.234375 12.765625 48.109375 
Q 20.015625 56 32.328125 56 
Q 43.359375 56 49.78125 48.890625 
Q 56.203125 41.796875 56.203125 29.59375 
z
M 47.21875 32.234375 
Q 47.125 39.59375 43.09375 43.984375 
Q 39.0625 48.390625 32.421875 48.390625 
Q 24.90625 48.390625 20.390625 44.140625 
Q 15.875 39.890625 15.1875 32.171875 
z
" id="DejaVuSans-65"/>
      <path id="DejaVuSans-20"/>
      <path d="M 9.8125 72.90625 
L 55.90625 72.90625 
L 55.90625 64.59375 
L 19.671875 64.59375 
L 19.671875 43.015625 
L 54.390625 43.015625 
L 54.390625 34.71875 
L 19.671875 34.71875 
L 19.671875 8.296875 
L 56.78125 8.296875 
L 56.78125 0 
L 9.8125 0 
z
" id="DejaVuSans-45"/>
      <path d="M 41.109375 46.296875 
Q 39.59375 47.171875 37.8125 47.578125 
Q 36.03125 48 33.890625 48 
Q 26.265625 48 22.1875 43.046875 
Q 18.109375 38.09375 18.109375 28.8125 
L 18.109375 0 
L 9.078125 0 
L 9.078125 54.6875 
L 18.109375 54.6875 
L 18.109375 46.1875 
Q 20.953125 51.171875 25.484375 53.578125 
Q 30.03125 56 36.53125 56 
Q 37.453125 56 38.578125 55.875 
Q 39.703125 55.765625 41.0625 55.515625 
z
" id="DejaVuSans-72"/>
     </defs>
     <g style="fill:#262626;" transform="translate(235.985409 601.17485)scale(0.176 -0.176)">
      <use xlink:href="#DejaVuSans-41"/>
      <use x="68.408203" xlink:href="#DejaVuSans-62"/>
      <use x="131.884766" xlink:href="#DejaVuSans-73"/>
      <use x="183.984375" xlink:href="#DejaVuSans-6f"/>
      <use x="245.166016" xlink:href="#DejaVuSans-6c"/>
      <use x="272.949219" xlink:href="#DejaVuSans-75"/>
      <use x="336.328125" xlink:href="#DejaVuSans-74"/>
      <use x="375.537109" xlink:href="#DejaVuSans-65"/>
      <use x="437.060547" xlink:href="#DejaVuSans-20"/>
      <use x="468.847656" xlink:href="#DejaVuSans-45"/>
      <use x="532.03125" xlink:href="#DejaVuSans-72"/>
      <use x="573.128906" xlink:href="#DejaVuSans-72"/>
      <use x="614.210938" xlink:href="#DejaVuSans-6f"/>
      <use x="675.392578" xlink:href="#DejaVuSans-72"/>
     </g>
    </g>
   </g>
   <g id="matplotlib.axis_2">
    <g id="ytick_1">
     <g id="line2d_13">
      <path clip-path="url(#p03b27950a6)" d="M 63.021 509.506778 
L 535.053817 509.506778 
" style="fill:none;stroke:#ffffff;stroke-linecap:round;stroke-width:1.6;"/>
     </g>
     <g id="line2d_14"/>
     <g id="text_8">
      <!-- −1 -->
      <defs>
       <path d="M 10.59375 35.5 
L 73.1875 35.5 
L 73.1875 27.203125 
L 10.59375 27.203125 
z
" id="DejaVuSans-2212"/>
      </defs>
      <g style="fill:#262626;" transform="translate(28.2335 515.585528)scale(0.16 -0.16)">
       <use xlink:href="#DejaVuSans-2212"/>
       <use x="83.789062" xlink:href="#DejaVuSans-31"/>
      </g>
     </g>
    </g>
    <g id="ytick_2">
     <g id="line2d_15">
      <path clip-path="url(#p03b27950a6)" d="M 63.021 422.155015 
L 535.053817 422.155015 
" style="fill:none;stroke:#ffffff;stroke-linecap:round;stroke-width:1.6;"/>
     </g>
     <g id="line2d_16"/>
     <g id="text_9">
      <!-- 0 -->
      <g style="fill:#262626;" transform="translate(41.641 428.233765)scale(0.16 -0.16)">
       <use xlink:href="#DejaVuSans-30"/>
      </g>
     </g>
    </g>
    <g id="ytick_3">
     <g id="line2d_17">
      <path clip-path="url(#p03b27950a6)" d="M 63.021 334.803252 
L 535.053817 334.803252 
" style="fill:none;stroke:#ffffff;stroke-linecap:round;stroke-width:1.6;"/>
     </g>
     <g id="line2d_18"/>
     <g id="text_10">
      <!-- 1 -->
      <g style="fill:#262626;" transform="translate(41.641 340.882002)scale(0.16 -0.16)">
       <use xlink:href="#DejaVuSans-31"/>
      </g>
     </g>
    </g>
    <g id="ytick_4">
     <g id="line2d_19">
      <path clip-path="url(#p03b27950a6)" d="M 63.021 247.451488 
L 535.053817 247.451488 
" style="fill:none;stroke:#ffffff;stroke-linecap:round;stroke-width:1.6;"/>
     </g>
     <g id="line2d_20"/>
     <g id="text_11">
      <!-- 2 -->
      <g style="fill:#262626;" transform="translate(41.641 253.530238)scale(0.16 -0.16)">
       <use xlink:href="#DejaVuSans-32"/>
      </g>
     </g>
    </g>
    <g id="ytick_5">
     <g id="line2d_21">
      <path clip-path="url(#p03b27950a6)" d="M 63.021 160.099725 
L 535.053817 160.099725 
" style="fill:none;stroke:#ffffff;stroke-linecap:round;stroke-width:1.6;"/>
     </g>
     <g id="line2d_22"/>
     <g id="text_12">
      <!-- 3 -->
      <defs>
       <path d="M 40.578125 39.3125 
Q 47.65625 37.796875 51.625 33 
Q 55.609375 28.21875 55.609375 21.1875 
Q 55.609375 10.40625 48.1875 4.484375 
Q 40.765625 -1.421875 27.09375 -1.421875 
Q 22.515625 -1.421875 17.65625 -0.515625 
Q 12.796875 0.390625 7.625 2.203125 
L 7.625 11.71875 
Q 11.71875 9.328125 16.59375 8.109375 
Q 21.484375 6.890625 26.8125 6.890625 
Q 36.078125 6.890625 40.9375 10.546875 
Q 45.796875 14.203125 45.796875 21.1875 
Q 45.796875 27.640625 41.28125 31.265625 
Q 36.765625 34.90625 28.71875 34.90625 
L 20.21875 34.90625 
L 20.21875 43.015625 
L 29.109375 43.015625 
Q 36.375 43.015625 40.234375 45.921875 
Q 44.09375 48.828125 44.09375 54.296875 
Q 44.09375 59.90625 40.109375 62.90625 
Q 36.140625 65.921875 28.71875 65.921875 
Q 24.65625 65.921875 20.015625 65.03125 
Q 15.375 64.15625 9.8125 62.3125 
L 9.8125 71.09375 
Q 15.4375 72.65625 20.34375 73.4375 
Q 25.25 74.21875 29.59375 74.21875 
Q 40.828125 74.21875 47.359375 69.109375 
Q 53.90625 64.015625 53.90625 55.328125 
Q 53.90625 49.265625 50.4375 45.09375 
Q 46.96875 40.921875 40.578125 39.3125 
z
" id="DejaVuSans-33"/>
      </defs>
      <g style="fill:#262626;" transform="translate(41.641 166.178475)scale(0.16 -0.16)">
       <use xlink:href="#DejaVuSans-33"/>
      </g>
     </g>
    </g>
    <g id="ytick_6">
     <g id="line2d_23">
      <path clip-path="url(#p03b27950a6)" d="M 63.021 72.747962 
L 535.053817 72.747962 
" style="fill:none;stroke:#ffffff;stroke-linecap:round;stroke-width:1.6;"/>
     </g>
     <g id="line2d_24"/>
     <g id="text_13">
      <!-- 4 -->
      <g style="fill:#262626;" transform="translate(41.641 78.826712)scale(0.16 -0.16)">
       <use xlink:href="#DejaVuSans-34"/>
      </g>
     </g>
    </g>
    <g id="text_14">
     <!-- Total Breeding Site Density -->
     <defs>
      <path d="M -0.296875 72.90625 
L 61.375 72.90625 
L 61.375 64.59375 
L 35.5 64.59375 
L 35.5 0 
L 25.59375 0 
L 25.59375 64.59375 
L -0.296875 64.59375 
z
" id="DejaVuSans-54"/>
      <path d="M 34.28125 27.484375 
Q 23.390625 27.484375 19.1875 25 
Q 14.984375 22.515625 14.984375 16.5 
Q 14.984375 11.71875 18.140625 8.90625 
Q 21.296875 6.109375 26.703125 6.109375 
Q 34.1875 6.109375 38.703125 11.40625 
Q 43.21875 16.703125 43.21875 25.484375 
L 43.21875 27.484375 
z
M 52.203125 31.203125 
L 52.203125 0 
L 43.21875 0 
L 43.21875 8.296875 
Q 40.140625 3.328125 35.546875 0.953125 
Q 30.953125 -1.421875 24.3125 -1.421875 
Q 15.921875 -1.421875 10.953125 3.296875 
Q 6 8.015625 6 15.921875 
Q 6 25.140625 12.171875 29.828125 
Q 18.359375 34.515625 30.609375 34.515625 
L 43.21875 34.515625 
L 43.21875 35.40625 
Q 43.21875 41.609375 39.140625 45 
Q 35.0625 48.390625 27.6875 48.390625 
Q 23 48.390625 18.546875 47.265625 
Q 14.109375 46.140625 10.015625 43.890625 
L 10.015625 52.203125 
Q 14.9375 54.109375 19.578125 55.046875 
Q 24.21875 56 28.609375 56 
Q 40.484375 56 46.34375 49.84375 
Q 52.203125 43.703125 52.203125 31.203125 
z
" id="DejaVuSans-61"/>
      <path d="M 19.671875 34.8125 
L 19.671875 8.109375 
L 35.5 8.109375 
Q 43.453125 8.109375 47.28125 11.40625 
Q 51.125 14.703125 51.125 21.484375 
Q 51.125 28.328125 47.28125 31.5625 
Q 43.453125 34.8125 35.5 34.8125 
z
M 19.671875 64.796875 
L 19.671875 42.828125 
L 34.28125 42.828125 
Q 41.5 42.828125 45.03125 45.53125 
Q 48.578125 48.25 48.578125 53.8125 
Q 48.578125 59.328125 45.03125 62.0625 
Q 41.5 64.796875 34.28125 64.796875 
z
M 9.8125 72.90625 
L 35.015625 72.90625 
Q 46.296875 72.90625 52.390625 68.21875 
Q 58.5 63.53125 58.5 54.890625 
Q 58.5 48.1875 55.375 44.234375 
Q 52.25 40.28125 46.1875 39.3125 
Q 53.46875 37.75 57.5 32.78125 
Q 61.53125 27.828125 61.53125 20.40625 
Q 61.53125 10.640625 54.890625 5.3125 
Q 48.25 0 35.984375 0 
L 9.8125 0 
z
" id="DejaVuSans-42"/>
      <path d="M 45.40625 46.390625 
L 45.40625 75.984375 
L 54.390625 75.984375 
L 54.390625 0 
L 45.40625 0 
L 45.40625 8.203125 
Q 42.578125 3.328125 38.25 0.953125 
Q 33.9375 -1.421875 27.875 -1.421875 
Q 17.96875 -1.421875 11.734375 6.484375 
Q 5.515625 14.40625 5.515625 27.296875 
Q 5.515625 40.1875 11.734375 48.09375 
Q 17.96875 56 27.875 56 
Q 33.9375 56 38.25 53.625 
Q 42.578125 51.265625 45.40625 46.390625 
z
M 14.796875 27.296875 
Q 14.796875 17.390625 18.875 11.75 
Q 22.953125 6.109375 30.078125 6.109375 
Q 37.203125 6.109375 41.296875 11.75 
Q 45.40625 17.390625 45.40625 27.296875 
Q 45.40625 37.203125 41.296875 42.84375 
Q 37.203125 48.484375 30.078125 48.484375 
Q 22.953125 48.484375 18.875 42.84375 
Q 14.796875 37.203125 14.796875 27.296875 
z
" id="DejaVuSans-64"/>
      <path d="M 9.421875 54.6875 
L 18.40625 54.6875 
L 18.40625 0 
L 9.421875 0 
z
M 9.421875 75.984375 
L 18.40625 75.984375 
L 18.40625 64.59375 
L 9.421875 64.59375 
z
" id="DejaVuSans-69"/>
      <path d="M 54.890625 33.015625 
L 54.890625 0 
L 45.90625 0 
L 45.90625 32.71875 
Q 45.90625 40.484375 42.875 44.328125 
Q 39.84375 48.1875 33.796875 48.1875 
Q 26.515625 48.1875 22.3125 43.546875 
Q 18.109375 38.921875 18.109375 30.90625 
L 18.109375 0 
L 9.078125 0 
L 9.078125 54.6875 
L 18.109375 54.6875 
L 18.109375 46.1875 
Q 21.34375 51.125 25.703125 53.5625 
Q 30.078125 56 35.796875 56 
Q 45.21875 56 50.046875 50.171875 
Q 54.890625 44.34375 54.890625 33.015625 
z
" id="DejaVuSans-6e"/>
      <path d="M 45.40625 27.984375 
Q 45.40625 37.75 41.375 43.109375 
Q 37.359375 48.484375 30.078125 48.484375 
Q 22.859375 48.484375 18.828125 43.109375 
Q 14.796875 37.75 14.796875 27.984375 
Q 14.796875 18.265625 18.828125 12.890625 
Q 22.859375 7.515625 30.078125 7.515625 
Q 37.359375 7.515625 41.375 12.890625 
Q 45.40625 18.265625 45.40625 27.984375 
z
M 54.390625 6.78125 
Q 54.390625 -7.171875 48.1875 -13.984375 
Q 42 -20.796875 29.203125 -20.796875 
Q 24.46875 -20.796875 20.265625 -20.09375 
Q 16.0625 -19.390625 12.109375 -17.921875 
L 12.109375 -9.1875 
Q 16.0625 -11.328125 19.921875 -12.34375 
Q 23.78125 -13.375 27.78125 -13.375 
Q 36.625 -13.375 41.015625 -8.765625 
Q 45.40625 -4.15625 45.40625 5.171875 
L 45.40625 9.625 
Q 42.625 4.78125 38.28125 2.390625 
Q 33.9375 0 27.875 0 
Q 17.828125 0 11.671875 7.65625 
Q 5.515625 15.328125 5.515625 27.984375 
Q 5.515625 40.671875 11.671875 48.328125 
Q 17.828125 56 27.875 56 
Q 33.9375 56 38.28125 53.609375 
Q 42.625 51.21875 45.40625 46.390625 
L 45.40625 54.6875 
L 54.390625 54.6875 
z
" id="DejaVuSans-67"/>
      <path d="M 53.515625 70.515625 
L 53.515625 60.890625 
Q 47.90625 63.578125 42.921875 64.890625 
Q 37.9375 66.21875 33.296875 66.21875 
Q 25.25 66.21875 20.875 63.09375 
Q 16.5 59.96875 16.5 54.203125 
Q 16.5 49.359375 19.40625 46.890625 
Q 22.3125 44.4375 30.421875 42.921875 
L 36.375 41.703125 
Q 47.40625 39.59375 52.65625 34.296875 
Q 57.90625 29 57.90625 20.125 
Q 57.90625 9.515625 50.796875 4.046875 
Q 43.703125 -1.421875 29.984375 -1.421875 
Q 24.8125 -1.421875 18.96875 -0.25 
Q 13.140625 0.921875 6.890625 3.21875 
L 6.890625 13.375 
Q 12.890625 10.015625 18.65625 8.296875 
Q 24.421875 6.59375 29.984375 6.59375 
Q 38.421875 6.59375 43.015625 9.90625 
Q 47.609375 13.234375 47.609375 19.390625 
Q 47.609375 24.75 44.3125 27.78125 
Q 41.015625 30.8125 33.5 32.328125 
L 27.484375 33.5 
Q 16.453125 35.6875 11.515625 40.375 
Q 6.59375 45.0625 6.59375 53.421875 
Q 6.59375 63.09375 13.40625 68.65625 
Q 20.21875 74.21875 32.171875 74.21875 
Q 37.3125 74.21875 42.625 73.28125 
Q 47.953125 72.359375 53.515625 70.515625 
z
" id="DejaVuSans-53"/>
      <path d="M 19.671875 64.796875 
L 19.671875 8.109375 
L 31.59375 8.109375 
Q 46.6875 8.109375 53.6875 14.9375 
Q 60.6875 21.78125 60.6875 36.53125 
Q 60.6875 51.171875 53.6875 57.984375 
Q 46.6875 64.796875 31.59375 64.796875 
z
M 9.8125 72.90625 
L 30.078125 72.90625 
Q 51.265625 72.90625 61.171875 64.09375 
Q 71.09375 55.28125 71.09375 36.53125 
Q 71.09375 17.671875 61.125 8.828125 
Q 51.171875 0 30.078125 0 
L 9.8125 0 
z
" id="DejaVuSans-44"/>
      <path d="M 32.171875 -5.078125 
Q 28.375 -14.84375 24.75 -17.8125 
Q 21.140625 -20.796875 15.09375 -20.796875 
L 7.90625 -20.796875 
L 7.90625 -13.28125 
L 13.1875 -13.28125 
Q 16.890625 -13.28125 18.9375 -11.515625 
Q 21 -9.765625 23.484375 -3.21875 
L 25.09375 0.875 
L 2.984375 54.6875 
L 12.5 54.6875 
L 29.59375 11.921875 
L 46.6875 54.6875 
L 56.203125 54.6875 
z
" id="DejaVuSans-79"/>
     </defs>
     <g style="fill:#262626;" transform="translate(20.57325 434.39435)rotate(-90)scale(0.176 -0.176)">
      <use xlink:href="#DejaVuSans-54"/>
      <use x="60.818359" xlink:href="#DejaVuSans-6f"/>
      <use x="122" xlink:href="#DejaVuSans-74"/>
      <use x="161.208984" xlink:href="#DejaVuSans-61"/>
      <use x="222.488281" xlink:href="#DejaVuSans-6c"/>
      <use x="250.271484" xlink:href="#DejaVuSans-20"/>
      <use x="282.058594" xlink:href="#DejaVuSans-42"/>
      <use x="350.662109" xlink:href="#DejaVuSans-72"/>
      <use x="391.744141" xlink:href="#DejaVuSans-65"/>
      <use x="453.267578" xlink:href="#DejaVuSans-65"/>
      <use x="514.791016" xlink:href="#DejaVuSans-64"/>
      <use x="578.267578" xlink:href="#DejaVuSans-69"/>
      <use x="606.050781" xlink:href="#DejaVuSans-6e"/>
      <use x="669.429688" xlink:href="#DejaVuSans-67"/>
      <use x="732.90625" xlink:href="#DejaVuSans-20"/>
      <use x="764.693359" xlink:href="#DejaVuSans-53"/>
      <use x="828.169922" xlink:href="#DejaVuSans-69"/>
      <use x="855.953125" xlink:href="#DejaVuSans-74"/>
      <use x="895.162109" xlink:href="#DejaVuSans-65"/>
      <use x="956.685547" xlink:href="#DejaVuSans-20"/>
      <use x="988.472656" xlink:href="#DejaVuSans-44"/>
      <use x="1065.474609" xlink:href="#DejaVuSans-65"/>
      <use x="1126.998047" xlink:href="#DejaVuSans-6e"/>
      <use x="1190.376953" xlink:href="#DejaVuSans-73"/>
      <use x="1242.476562" xlink:href="#DejaVuSans-69"/>
      <use x="1270.259766" xlink:href="#DejaVuSans-74"/>
      <use x="1309.46875" xlink:href="#DejaVuSans-79"/>
     </g>
    </g>
   </g>
   <g id="PathCollection_1">
    <defs>
     <path d="M 0 5.6 
C 1.485137 5.6 2.909647 5.009949 3.959798 3.959798 
C 5.009949 2.909647 5.6 1.485137 5.6 0 
C 5.6 -1.485137 5.009949 -2.909647 3.959798 -3.959798 
C 2.909647 -5.009949 1.485137 -5.6 0 -5.6 
C -1.485137 -5.6 -2.909647 -5.009949 -3.959798 -3.959798 
C -5.009949 -2.909647 -5.6 -1.485137 -5.6 0 
C -5.6 1.485137 -5.009949 2.909647 -3.959798 3.959798 
C -2.909647 5.009949 -1.485137 5.6 0 5.6 
z
" id="mea3ceb501a" style="stroke:#2ecc71;stroke-width:0.48;"/>
    </defs>
    <g clip-path="url(#p03b27950a6)">
     <use style="fill:#2ecc71;stroke:#2ecc71;stroke-width:0.48;" x="112.041114" xlink:href="#mea3ceb501a" y="373.162728"/>
     <use style="fill:#2ecc71;stroke:#2ecc71;stroke-width:0.48;" x="101.810391" xlink:href="#mea3ceb501a" y="384.24109"/>
     <use style="fill:#2ecc71;stroke:#2ecc71;stroke-width:0.48;" x="95.09777" xlink:href="#mea3ceb501a" y="342.697238"/>
     <use style="fill:#2ecc71;stroke:#2ecc71;stroke-width:0.48;" x="121.38087" xlink:href="#mea3ceb501a" y="405.753706"/>
     <use style="fill:#2ecc71;stroke:#2ecc71;stroke-width:0.48;" x="87.252965" xlink:href="#mea3ceb501a" y="371.814485"/>
     <use style="fill:#2ecc71;stroke:#2ecc71;stroke-width:0.48;" x="84.525952" xlink:href="#mea3ceb501a" y="276.563261"/>
     <use style="fill:#2ecc71;stroke:#2ecc71;stroke-width:0.48;" x="105.913704" xlink:href="#mea3ceb501a" y="350.163784"/>
     <use style="fill:#2ecc71;stroke:#2ecc71;stroke-width:0.48;" x="114.095627" xlink:href="#mea3ceb501a" y="303.070494"/>
     <use style="fill:#2ecc71;stroke:#2ecc71;stroke-width:0.48;" x="118.860743" xlink:href="#mea3ceb501a" y="299.619251"/>
     <use style="fill:#2ecc71;stroke:#2ecc71;stroke-width:0.48;" x="106.173961" xlink:href="#mea3ceb501a" y="93.868224"/>
     <use style="fill:#2ecc71;stroke:#2ecc71;stroke-width:0.48;" x="116.500007" xlink:href="#mea3ceb501a" y="105.470844"/>
     <use style="fill:#2ecc71;stroke:#2ecc71;stroke-width:0.48;" x="108.309067" xlink:href="#mea3ceb501a" y="298.319211"/>
    </g>
   </g>
   <g id="PathCollection_2">
    <defs>
     <path d="M -0 7.919596 
L 7.919596 0 
L 0 -7.919596 
L -7.919596 -0 
z
" id="m4952c028ad" style="stroke:#34495e;stroke-width:0.48;"/>
    </defs>
    <g clip-path="url(#p03b27950a6)">
     <use style="fill:#34495e;stroke:#34495e;stroke-width:0.48;" x="220.734618" xlink:href="#m4952c028ad" y="359.464816"/>
     <use style="fill:#34495e;stroke:#34495e;stroke-width:0.48;" x="212.257577" xlink:href="#m4952c028ad" y="416.017813"/>
     <use style="fill:#34495e;stroke:#34495e;stroke-width:0.48;" x="205.91029" xlink:href="#m4952c028ad" y="376.034616"/>
     <use style="fill:#34495e;stroke:#34495e;stroke-width:0.48;" x="200.440412" xlink:href="#m4952c028ad" y="417.370714"/>
     <use style="fill:#34495e;stroke:#34495e;stroke-width:0.48;" x="216.197366" xlink:href="#m4952c028ad" y="336.294714"/>
     <use style="fill:#34495e;stroke:#34495e;stroke-width:0.48;" x="154.110626" xlink:href="#m4952c028ad" y="391.364167"/>
     <use style="fill:#34495e;stroke:#34495e;stroke-width:0.48;" x="242.039302" xlink:href="#m4952c028ad" y="406.108291"/>
     <use style="fill:#34495e;stroke:#34495e;stroke-width:0.48;" x="160.814839" xlink:href="#m4952c028ad" y="281.40782"/>
     <use style="fill:#34495e;stroke:#34495e;stroke-width:0.48;" x="136.678978" xlink:href="#m4952c028ad" y="298.438506"/>
     <use style="fill:#34495e;stroke:#34495e;stroke-width:0.48;" x="189.021607" xlink:href="#m4952c028ad" y="385.157393"/>
     <use style="fill:#34495e;stroke:#34495e;stroke-width:0.48;" x="151.331821" xlink:href="#m4952c028ad" y="364.471553"/>
     <use style="fill:#34495e;stroke:#34495e;stroke-width:0.48;" x="124.582337" xlink:href="#m4952c028ad" y="383.950091"/>
     <use style="fill:#34495e;stroke:#34495e;stroke-width:0.48;" x="138.357878" xlink:href="#m4952c028ad" y="359.124132"/>
     <use style="fill:#34495e;stroke:#34495e;stroke-width:0.48;" x="138.273384" xlink:href="#m4952c028ad" y="347.684618"/>
     <use style="fill:#34495e;stroke:#34495e;stroke-width:0.48;" x="220.830678" xlink:href="#m4952c028ad" y="370.461622"/>
     <use style="fill:#34495e;stroke:#34495e;stroke-width:0.48;" x="232.279381" xlink:href="#m4952c028ad" y="337.68168"/>
     <use style="fill:#34495e;stroke:#34495e;stroke-width:0.48;" x="176.393413" xlink:href="#m4952c028ad" y="378.24405"/>
     <use style="fill:#34495e;stroke:#34495e;stroke-width:0.48;" x="174.398266" xlink:href="#m4952c028ad" y="369.792792"/>
     <use style="fill:#34495e;stroke:#34495e;stroke-width:0.48;" x="127.186667" xlink:href="#m4952c028ad" y="359.623119"/>
     <use style="fill:#34495e;stroke:#34495e;stroke-width:0.48;" x="227.498322" xlink:href="#m4952c028ad" y="335.005356"/>
     <use style="fill:#34495e;stroke:#34495e;stroke-width:0.48;" x="202.203683" xlink:href="#m4952c028ad" y="355.736527"/>
     <use style="fill:#34495e;stroke:#34495e;stroke-width:0.48;" x="151.251347" xlink:href="#m4952c028ad" y="339.14062"/>
     <use style="fill:#34495e;stroke:#34495e;stroke-width:0.48;" x="148.170159" xlink:href="#m4952c028ad" y="230.072603"/>
    </g>
   </g>
   <g id="PathCollection_3">
    <defs>
     <path d="M -5.6 5.6 
L 5.6 5.6 
L 5.6 -5.6 
L -5.6 -5.6 
z
" id="m8dc84a16ea" style="stroke:#e74c3c;stroke-width:0.48;"/>
    </defs>
    <g clip-path="url(#p03b27950a6)">
     <use style="fill:#e74c3c;stroke:#e74c3c;stroke-width:0.48;" x="367.792945" xlink:href="#m8dc84a16ea" y="401.441414"/>
     <use style="fill:#e74c3c;stroke:#e74c3c;stroke-width:0.48;" x="244.726091" xlink:href="#m8dc84a16ea" y="413.028851"/>
     <use style="fill:#e74c3c;stroke:#e74c3c;stroke-width:0.48;" x="300.756731" xlink:href="#m8dc84a16ea" y="376.521186"/>
     <use style="fill:#e74c3c;stroke:#e74c3c;stroke-width:0.48;" x="511.588471" xlink:href="#m8dc84a16ea" y="369.670997"/>
     <use style="fill:#e74c3c;stroke:#e74c3c;stroke-width:0.48;" x="275.666415" xlink:href="#m8dc84a16ea" y="391.899782"/>
     <use style="fill:#e74c3c;stroke:#e74c3c;stroke-width:0.48;" x="269.160979" xlink:href="#m8dc84a16ea" y="396.167386"/>
     <use style="fill:#e74c3c;stroke:#e74c3c;stroke-width:0.48;" x="294.499297" xlink:href="#m8dc84a16ea" y="384.822361"/>
     <use style="fill:#e74c3c;stroke:#e74c3c;stroke-width:0.48;" x="302.549308" xlink:href="#m8dc84a16ea" y="365.957381"/>
     <use style="fill:#e74c3c;stroke:#e74c3c;stroke-width:0.48;" x="299.283507" xlink:href="#m8dc84a16ea" y="372.881382"/>
     <use style="fill:#e74c3c;stroke:#e74c3c;stroke-width:0.48;" x="258.364021" xlink:href="#m8dc84a16ea" y="387.882122"/>
     <use style="fill:#e74c3c;stroke:#e74c3c;stroke-width:0.48;" x="259.188255" xlink:href="#m8dc84a16ea" y="312.981057"/>
     <use style="fill:#e74c3c;stroke:#e74c3c;stroke-width:0.48;" x="271.089212" xlink:href="#m8dc84a16ea" y="370.802594"/>
    </g>
   </g>
   <g id="PolyCollection_1">
    <path clip-path="url(#p03b27950a6)" d="M 63.021 262.463712 
L 63.021 345.392342 
L 67.789008 346.021638 
L 72.557017 346.673369 
L 77.325025 347.314625 
L 82.093033 347.955881 
L 86.861041 348.595424 
L 91.62905 349.20312 
L 96.397058 349.757445 
L 101.165066 350.311771 
L 105.933074 350.950951 
L 110.701083 351.79715 
L 115.469091 352.438855 
L 120.237099 353.078255 
L 125.005107 353.524293 
L 129.773116 354.091791 
L 134.541124 354.632024 
L 139.309132 355.290452 
L 144.07714 355.848491 
L 148.845149 356.412833 
L 153.613157 357.32755 
L 158.381165 358.201154 
L 163.149173 358.842255 
L 167.917182 359.687805 
L 172.68519 360.321916 
L 177.453198 361.075562 
L 182.221206 361.893394 
L 186.989215 362.880489 
L 191.757223 363.668606 
L 196.525231 364.427185 
L 201.293239 365.809785 
L 206.061248 367.063282 
L 210.829256 368.193794 
L 215.597264 369.144826 
L 220.365272 370.394712 
L 225.133281 372.068846 
L 229.901289 373.84623 
L 234.669297 375.663136 
L 239.437305 377.394092 
L 244.205314 379.163679 
L 248.973322 380.768611 
L 253.74133 383.01602 
L 258.509339 385.167124 
L 263.277347 387.403898 
L 268.045355 389.426763 
L 272.813363 391.687089 
L 277.581372 394.088224 
L 282.34938 396.79889 
L 287.117388 399.236258 
L 291.885396 401.657487 
L 296.653405 404.163974 
L 301.421413 406.494458 
L 306.189421 408.978718 
L 310.957429 411.290453 
L 315.725438 413.788421 
L 320.493446 416.116236 
L 325.261454 418.597995 
L 330.029462 421.39247 
L 334.797471 423.959595 
L 339.565479 426.639068 
L 344.333487 429.32232 
L 349.101495 432.003017 
L 353.869504 434.683713 
L 358.637512 437.364409 
L 363.40552 440.00086 
L 368.173528 442.623689 
L 372.941537 445.246518 
L 377.709545 447.869347 
L 382.477553 450.48533 
L 387.245561 452.863812 
L 392.01357 455.602361 
L 396.781578 458.350997 
L 401.549586 460.977672 
L 406.317594 463.59665 
L 411.085603 466.214974 
L 415.853611 468.804281 
L 420.621619 471.421774 
L 425.389627 474.079727 
L 430.157636 476.704946 
L 434.925644 479.330166 
L 439.693652 481.955386 
L 444.461661 484.642822 
L 449.229669 487.34134 
L 453.997677 490.039858 
L 458.765685 492.738375 
L 463.533694 495.435676 
L 468.301702 498.131803 
L 473.06971 500.82793 
L 477.837718 503.524057 
L 482.605727 506.219465 
L 487.373735 508.911982 
L 492.141743 511.604499 
L 496.909751 514.297016 
L 501.67776 516.989533 
L 506.445768 519.68205 
L 511.213776 522.301836 
L 515.981784 524.843625 
L 520.749793 527.385414 
L 525.517801 529.927203 
L 530.285809 532.468993 
L 535.053817 535.010782 
L 535.053817 397.634831 
L 535.053817 397.634831 
L 530.285809 397.09738 
L 525.517801 396.510184 
L 520.749793 395.754448 
L 515.981784 394.998712 
L 511.213776 394.274253 
L 506.445768 393.612538 
L 501.67776 392.990014 
L 496.909751 392.469226 
L 492.141743 391.948438 
L 487.373735 391.427867 
L 482.605727 390.914834 
L 477.837718 390.401801 
L 473.06971 389.934281 
L 468.301702 389.36423 
L 463.533694 388.836657 
L 458.765685 388.076933 
L 453.997677 387.299974 
L 449.229669 386.514263 
L 444.461661 385.681738 
L 439.693652 384.849213 
L 434.925644 384.117885 
L 430.157636 383.523237 
L 425.389627 382.929204 
L 420.621619 382.38142 
L 415.853611 381.883522 
L 411.085603 381.387423 
L 406.317594 380.806651 
L 401.549586 380.396431 
L 396.781578 379.794792 
L 392.01357 379.02348 
L 387.245561 378.360978 
L 382.477553 377.630443 
L 377.709545 377.103002 
L 372.941537 376.576243 
L 368.173528 375.901909 
L 363.40552 375.160866 
L 358.637512 374.310352 
L 353.869504 373.554795 
L 349.101495 372.810422 
L 344.333487 371.827816 
L 339.565479 371.314416 
L 334.797471 370.722087 
L 330.029462 369.949309 
L 325.261454 368.685525 
L 320.493446 367.853269 
L 315.725438 367.213036 
L 310.957429 366.180465 
L 306.189421 365.12423 
L 301.421413 363.959659 
L 296.653405 362.504712 
L 291.885396 361.036086 
L 287.117388 360.112699 
L 282.34938 358.751679 
L 277.581372 357.689157 
L 272.813363 356.324686 
L 268.045355 355.133714 
L 263.277347 353.586715 
L 258.509339 352.349116 
L 253.74133 350.806782 
L 248.973322 349.474148 
L 244.205314 348.106854 
L 239.437305 346.512815 
L 234.669297 344.999838 
L 229.901289 343.542281 
L 225.133281 342.06261 
L 220.365272 340.614502 
L 215.597264 339.152679 
L 210.829256 336.985833 
L 206.061248 335.281004 
L 201.293239 333.234756 
L 196.525231 331.693091 
L 191.757223 329.731265 
L 186.989215 327.732114 
L 182.221206 325.783199 
L 177.453198 323.541861 
L 172.68519 320.817313 
L 167.917182 318.540455 
L 163.149173 316.455615 
L 158.381165 313.751057 
L 153.613157 311.48668 
L 148.845149 309.166596 
L 144.07714 306.756845 
L 139.309132 303.975898 
L 134.541124 301.75377 
L 129.773116 299.594014 
L 125.005107 296.936209 
L 120.237099 294.177501 
L 115.469091 291.155185 
L 110.701083 288.302378 
L 105.933074 285.632004 
L 101.165066 282.71984 
L 96.397058 279.807677 
L 91.62905 277.129043 
L 86.861041 275.132523 
L 82.093033 272.817272 
L 77.325025 270.503528 
L 72.557017 267.911295 
L 67.789008 265.187504 
L 63.021 262.463712 
z
" style="fill:#4c72b0;fill-opacity:0.15;"/>
   </g>
   <g id="line2d_25">
    <path clip-path="url(#p03b27950a6)" d="M 63.021 310.191759 
L 67.789008 311.570513 
L 72.557017 312.949268 
L 77.325025 314.328023 
L 82.093033 315.706777 
L 86.861041 317.085532 
L 91.62905 318.464287 
L 96.397058 319.843041 
L 101.165066 321.221796 
L 105.933074 322.60055 
L 110.701083 323.979305 
L 115.469091 325.35806 
L 120.237099 326.736814 
L 125.005107 328.115569 
L 129.773116 329.494324 
L 134.541124 330.873078 
L 139.309132 332.251833 
L 144.07714 333.630587 
L 148.845149 335.009342 
L 153.613157 336.388097 
L 158.381165 337.766851 
L 163.149173 339.145606 
L 167.917182 340.52436 
L 172.68519 341.903115 
L 177.453198 343.28187 
L 182.221206 344.660624 
L 186.989215 346.039379 
L 191.757223 347.418134 
L 196.525231 348.796888 
L 201.293239 350.175643 
L 206.061248 351.554397 
L 210.829256 352.933152 
L 215.597264 354.311907 
L 220.365272 355.690661 
L 225.133281 357.069416 
L 229.901289 358.448171 
L 234.669297 359.826925 
L 239.437305 361.20568 
L 244.205314 362.584434 
L 248.973322 363.963189 
L 253.74133 365.341944 
L 258.509339 366.720698 
L 263.277347 368.099453 
L 268.045355 369.478208 
L 272.813363 370.856962 
L 277.581372 372.235717 
L 282.34938 373.614471 
L 287.117388 374.993226 
L 291.885396 376.371981 
L 296.653405 377.750735 
L 301.421413 379.12949 
L 306.189421 380.508245 
L 310.957429 381.886999 
L 315.725438 383.265754 
L 320.493446 384.644508 
L 325.261454 386.023263 
L 330.029462 387.402018 
L 334.797471 388.780772 
L 339.565479 390.159527 
L 344.333487 391.538282 
L 349.101495 392.917036 
L 353.869504 394.295791 
L 358.637512 395.674545 
L 363.40552 397.0533 
L 368.173528 398.432055 
L 372.941537 399.810809 
L 377.709545 401.189564 
L 382.477553 402.568319 
L 387.245561 403.947073 
L 392.01357 405.325828 
L 396.781578 406.704582 
L 401.549586 408.083337 
L 406.317594 409.462092 
L 411.085603 410.840846 
L 415.853611 412.219601 
L 420.621619 413.598356 
L 425.389627 414.97711 
L 430.157636 416.355865 
L 434.925644 417.734619 
L 439.693652 419.113374 
L 444.461661 420.492129 
L 449.229669 421.870883 
L 453.997677 423.249638 
L 458.765685 424.628392 
L 463.533694 426.007147 
L 468.301702 427.385902 
L 473.06971 428.764656 
L 477.837718 430.143411 
L 482.605727 431.522166 
L 487.373735 432.90092 
L 492.141743 434.279675 
L 496.909751 435.658429 
L 501.67776 437.037184 
L 506.445768 438.415939 
L 511.213776 439.794693 
L 515.981784 441.173448 
L 520.749793 442.552203 
L 525.517801 443.930957 
L 530.285809 445.309712 
L 535.053817 446.688466 
" style="fill:none;stroke:#4c72b0;stroke-linecap:round;stroke-width:4.2;"/>
   </g>
   <g id="patch_3">
    <path d="M 63.021 557.1166 
L 63.021 70.7886 
" style="fill:none;"/>
   </g>
   <g id="patch_4">
    <path d="M 63.021 557.1166 
L 535.053817 557.1166 
" style="fill:none;"/>
   </g>
   <g id="text_15">
    <!-- Residual Analysis -->
    <defs>
     <path d="M 44.390625 34.1875 
Q 47.5625 33.109375 50.5625 29.59375 
Q 53.5625 26.078125 56.59375 19.921875 
L 66.609375 0 
L 56 0 
L 46.6875 18.703125 
Q 43.0625 26.03125 39.671875 28.421875 
Q 36.28125 30.8125 30.421875 30.8125 
L 19.671875 30.8125 
L 19.671875 0 
L 9.8125 0 
L 9.8125 72.90625 
L 32.078125 72.90625 
Q 44.578125 72.90625 50.734375 67.671875 
Q 56.890625 62.453125 56.890625 51.90625 
Q 56.890625 45.015625 53.6875 40.46875 
Q 50.484375 35.9375 44.390625 34.1875 
z
M 19.671875 64.796875 
L 19.671875 38.921875 
L 32.078125 38.921875 
Q 39.203125 38.921875 42.84375 42.21875 
Q 46.484375 45.515625 46.484375 51.90625 
Q 46.484375 58.296875 42.84375 61.546875 
Q 39.203125 64.796875 32.078125 64.796875 
z
" id="DejaVuSans-52"/>
    </defs>
    <g style="fill:#262626;" transform="translate(215.466409 21.789)scale(0.192 -0.192)">
     <use xlink:href="#DejaVuSans-52"/>
     <use x="69.419922" xlink:href="#DejaVuSans-65"/>
     <use x="130.943359" xlink:href="#DejaVuSans-73"/>
     <use x="183.042969" xlink:href="#DejaVuSans-69"/>
     <use x="210.826172" xlink:href="#DejaVuSans-64"/>
     <use x="274.302734" xlink:href="#DejaVuSans-75"/>
     <use x="337.681641" xlink:href="#DejaVuSans-61"/>
     <use x="398.960938" xlink:href="#DejaVuSans-6c"/>
     <use x="426.744141" xlink:href="#DejaVuSans-20"/>
     <use x="458.53125" xlink:href="#DejaVuSans-41"/>
     <use x="526.939453" xlink:href="#DejaVuSans-6e"/>
     <use x="590.318359" xlink:href="#DejaVuSans-61"/>
     <use x="651.597656" xlink:href="#DejaVuSans-6c"/>
     <use x="679.380859" xlink:href="#DejaVuSans-79"/>
     <use x="738.560547" xlink:href="#DejaVuSans-73"/>
     <use x="790.660156" xlink:href="#DejaVuSans-69"/>
     <use x="818.443359" xlink:href="#DejaVuSans-73"/>
    </g>
    <!-- Pearson: -0.3725, p-value: 0.0099 -->
    <defs>
     <path d="M 19.671875 64.796875 
L 19.671875 37.40625 
L 32.078125 37.40625 
Q 38.96875 37.40625 42.71875 40.96875 
Q 46.484375 44.53125 46.484375 51.125 
Q 46.484375 57.671875 42.71875 61.234375 
Q 38.96875 64.796875 32.078125 64.796875 
z
M 9.8125 72.90625 
L 32.078125 72.90625 
Q 44.34375 72.90625 50.609375 67.359375 
Q 56.890625 61.8125 56.890625 51.125 
Q 56.890625 40.328125 50.609375 34.8125 
Q 44.34375 29.296875 32.078125 29.296875 
L 19.671875 29.296875 
L 19.671875 0 
L 9.8125 0 
z
" id="DejaVuSans-50"/>
     <path d="M 11.71875 12.40625 
L 22.015625 12.40625 
L 22.015625 0 
L 11.71875 0 
z
M 11.71875 51.703125 
L 22.015625 51.703125 
L 22.015625 39.3125 
L 11.71875 39.3125 
z
" id="DejaVuSans-3a"/>
     <path d="M 4.890625 31.390625 
L 31.203125 31.390625 
L 31.203125 23.390625 
L 4.890625 23.390625 
z
" id="DejaVuSans-2d"/>
     <path d="M 10.6875 12.40625 
L 21 12.40625 
L 21 0 
L 10.6875 0 
z
" id="DejaVuSans-2e"/>
     <path d="M 8.203125 72.90625 
L 55.078125 72.90625 
L 55.078125 68.703125 
L 28.609375 0 
L 18.3125 0 
L 43.21875 64.59375 
L 8.203125 64.59375 
z
" id="DejaVuSans-37"/>
     <path d="M 10.796875 72.90625 
L 49.515625 72.90625 
L 49.515625 64.59375 
L 19.828125 64.59375 
L 19.828125 46.734375 
Q 21.96875 47.46875 24.109375 47.828125 
Q 26.265625 48.1875 28.421875 48.1875 
Q 40.625 48.1875 47.75 41.5 
Q 54.890625 34.8125 54.890625 23.390625 
Q 54.890625 11.625 47.5625 5.09375 
Q 40.234375 -1.421875 26.90625 -1.421875 
Q 22.3125 -1.421875 17.546875 -0.640625 
Q 12.796875 0.140625 7.71875 1.703125 
L 7.71875 11.625 
Q 12.109375 9.234375 16.796875 8.0625 
Q 21.484375 6.890625 26.703125 6.890625 
Q 35.15625 6.890625 40.078125 11.328125 
Q 45.015625 15.765625 45.015625 23.390625 
Q 45.015625 31 40.078125 35.4375 
Q 35.15625 39.890625 26.703125 39.890625 
Q 22.75 39.890625 18.8125 39.015625 
Q 14.890625 38.140625 10.796875 36.28125 
z
" id="DejaVuSans-35"/>
     <path d="M 11.71875 12.40625 
L 22.015625 12.40625 
L 22.015625 4 
L 14.015625 -11.625 
L 7.71875 -11.625 
L 11.71875 4 
z
" id="DejaVuSans-2c"/>
     <path d="M 18.109375 8.203125 
L 18.109375 -20.796875 
L 9.078125 -20.796875 
L 9.078125 54.6875 
L 18.109375 54.6875 
L 18.109375 46.390625 
Q 20.953125 51.265625 25.265625 53.625 
Q 29.59375 56 35.59375 56 
Q 45.5625 56 51.78125 48.09375 
Q 58.015625 40.1875 58.015625 27.296875 
Q 58.015625 14.40625 51.78125 6.484375 
Q 45.5625 -1.421875 35.59375 -1.421875 
Q 29.59375 -1.421875 25.265625 0.953125 
Q 20.953125 3.328125 18.109375 8.203125 
z
M 48.6875 27.296875 
Q 48.6875 37.203125 44.609375 42.84375 
Q 40.53125 48.484375 33.40625 48.484375 
Q 26.265625 48.484375 22.1875 42.84375 
Q 18.109375 37.203125 18.109375 27.296875 
Q 18.109375 17.390625 22.1875 11.75 
Q 26.265625 6.109375 33.40625 6.109375 
Q 40.53125 6.109375 44.609375 11.75 
Q 48.6875 17.390625 48.6875 27.296875 
z
" id="DejaVuSans-70"/>
     <path d="M 2.984375 54.6875 
L 12.5 54.6875 
L 29.59375 8.796875 
L 46.6875 54.6875 
L 56.203125 54.6875 
L 35.6875 0 
L 23.484375 0 
z
" id="DejaVuSans-76"/>
     <path d="M 10.984375 1.515625 
L 10.984375 10.5 
Q 14.703125 8.734375 18.5 7.8125 
Q 22.3125 6.890625 25.984375 6.890625 
Q 35.75 6.890625 40.890625 13.453125 
Q 46.046875 20.015625 46.78125 33.40625 
Q 43.953125 29.203125 39.59375 26.953125 
Q 35.25 24.703125 29.984375 24.703125 
Q 19.046875 24.703125 12.671875 31.3125 
Q 6.296875 37.9375 6.296875 49.421875 
Q 6.296875 60.640625 12.9375 67.421875 
Q 19.578125 74.21875 30.609375 74.21875 
Q 43.265625 74.21875 49.921875 64.515625 
Q 56.59375 54.828125 56.59375 36.375 
Q 56.59375 19.140625 48.40625 8.859375 
Q 40.234375 -1.421875 26.421875 -1.421875 
Q 22.703125 -1.421875 18.890625 -0.6875 
Q 15.09375 0.046875 10.984375 1.515625 
z
M 30.609375 32.421875 
Q 37.25 32.421875 41.125 36.953125 
Q 45.015625 41.5 45.015625 49.421875 
Q 45.015625 57.28125 41.125 61.84375 
Q 37.25 66.40625 30.609375 66.40625 
Q 23.96875 66.40625 20.09375 61.84375 
Q 16.21875 57.28125 16.21875 49.421875 
Q 16.21875 41.5 20.09375 36.953125 
Q 23.96875 32.421875 30.609375 32.421875 
z
" id="DejaVuSans-39"/>
    </defs>
    <g style="fill:#262626;" transform="translate(135.462409 43.2888)scale(0.192 -0.192)">
     <use xlink:href="#DejaVuSans-50"/>
     <use x="60.255859" xlink:href="#DejaVuSans-65"/>
     <use x="121.779297" xlink:href="#DejaVuSans-61"/>
     <use x="183.058594" xlink:href="#DejaVuSans-72"/>
     <use x="224.171875" xlink:href="#DejaVuSans-73"/>
     <use x="276.271484" xlink:href="#DejaVuSans-6f"/>
     <use x="337.453125" xlink:href="#DejaVuSans-6e"/>
     <use x="400.832031" xlink:href="#DejaVuSans-3a"/>
     <use x="434.523438" xlink:href="#DejaVuSans-20"/>
     <use x="466.310547" xlink:href="#DejaVuSans-2d"/>
     <use x="502.394531" xlink:href="#DejaVuSans-30"/>
     <use x="566.017578" xlink:href="#DejaVuSans-2e"/>
     <use x="597.804688" xlink:href="#DejaVuSans-33"/>
     <use x="661.427734" xlink:href="#DejaVuSans-37"/>
     <use x="725.050781" xlink:href="#DejaVuSans-32"/>
     <use x="788.673828" xlink:href="#DejaVuSans-35"/>
     <use x="852.296875" xlink:href="#DejaVuSans-2c"/>
     <use x="884.083984" xlink:href="#DejaVuSans-20"/>
     <use x="915.871094" xlink:href="#DejaVuSans-70"/>
     <use x="979.347656" xlink:href="#DejaVuSans-2d"/>
     <use x="1015.400391" xlink:href="#DejaVuSans-76"/>
     <use x="1074.580078" xlink:href="#DejaVuSans-61"/>
     <use x="1135.859375" xlink:href="#DejaVuSans-6c"/>
     <use x="1163.642578" xlink:href="#DejaVuSans-75"/>
     <use x="1227.021484" xlink:href="#DejaVuSans-65"/>
     <use x="1288.544922" xlink:href="#DejaVuSans-3a"/>
     <use x="1322.236328" xlink:href="#DejaVuSans-20"/>
     <use x="1354.023438" xlink:href="#DejaVuSans-30"/>
     <use x="1417.646484" xlink:href="#DejaVuSans-2e"/>
     <use x="1449.433594" xlink:href="#DejaVuSans-30"/>
     <use x="1513.056641" xlink:href="#DejaVuSans-30"/>
     <use x="1576.679688" xlink:href="#DejaVuSans-39"/>
     <use x="1640.302734" xlink:href="#DejaVuSans-39"/>
    </g>
    <!-- Spearman: -0.4285, p-value: 0.0027 -->
    <defs>
     <path d="M 52 44.1875 
Q 55.375 50.25 60.0625 53.125 
Q 64.75 56 71.09375 56 
Q 79.640625 56 84.28125 50.015625 
Q 88.921875 44.046875 88.921875 33.015625 
L 88.921875 0 
L 79.890625 0 
L 79.890625 32.71875 
Q 79.890625 40.578125 77.09375 44.375 
Q 74.3125 48.1875 68.609375 48.1875 
Q 61.625 48.1875 57.5625 43.546875 
Q 53.515625 38.921875 53.515625 30.90625 
L 53.515625 0 
L 44.484375 0 
L 44.484375 32.71875 
Q 44.484375 40.625 41.703125 44.40625 
Q 38.921875 48.1875 33.109375 48.1875 
Q 26.21875 48.1875 22.15625 43.53125 
Q 18.109375 38.875 18.109375 30.90625 
L 18.109375 0 
L 9.078125 0 
L 9.078125 54.6875 
L 18.109375 54.6875 
L 18.109375 46.1875 
Q 21.1875 51.21875 25.484375 53.609375 
Q 29.78125 56 35.6875 56 
Q 41.65625 56 45.828125 52.96875 
Q 50 49.953125 52 44.1875 
z
" id="DejaVuSans-6d"/>
    </defs>
    <g style="fill:#262626;" transform="translate(124.699909 64.7886)scale(0.192 -0.192)">
     <use xlink:href="#DejaVuSans-53"/>
     <use x="63.476562" xlink:href="#DejaVuSans-70"/>
     <use x="126.953125" xlink:href="#DejaVuSans-65"/>
     <use x="188.476562" xlink:href="#DejaVuSans-61"/>
     <use x="249.755859" xlink:href="#DejaVuSans-72"/>
     <use x="290.853516" xlink:href="#DejaVuSans-6d"/>
     <use x="388.265625" xlink:href="#DejaVuSans-61"/>
     <use x="449.544922" xlink:href="#DejaVuSans-6e"/>
     <use x="512.923828" xlink:href="#DejaVuSans-3a"/>
     <use x="546.615234" xlink:href="#DejaVuSans-20"/>
     <use x="578.402344" xlink:href="#DejaVuSans-2d"/>
     <use x="614.486328" xlink:href="#DejaVuSans-30"/>
     <use x="678.109375" xlink:href="#DejaVuSans-2e"/>
     <use x="709.896484" xlink:href="#DejaVuSans-34"/>
     <use x="773.519531" xlink:href="#DejaVuSans-32"/>
     <use x="837.142578" xlink:href="#DejaVuSans-38"/>
     <use x="900.765625" xlink:href="#DejaVuSans-35"/>
     <use x="964.388672" xlink:href="#DejaVuSans-2c"/>
     <use x="996.175781" xlink:href="#DejaVuSans-20"/>
     <use x="1027.962891" xlink:href="#DejaVuSans-70"/>
     <use x="1091.439453" xlink:href="#DejaVuSans-2d"/>
     <use x="1127.492188" xlink:href="#DejaVuSans-76"/>
     <use x="1186.671875" xlink:href="#DejaVuSans-61"/>
     <use x="1247.951172" xlink:href="#DejaVuSans-6c"/>
     <use x="1275.734375" xlink:href="#DejaVuSans-75"/>
     <use x="1339.113281" xlink:href="#DejaVuSans-65"/>
     <use x="1400.636719" xlink:href="#DejaVuSans-3a"/>
     <use x="1434.328125" xlink:href="#DejaVuSans-20"/>
     <use x="1466.115234" xlink:href="#DejaVuSans-30"/>
     <use x="1529.738281" xlink:href="#DejaVuSans-2e"/>
     <use x="1561.525391" xlink:href="#DejaVuSans-30"/>
     <use x="1625.148438" xlink:href="#DejaVuSans-30"/>
     <use x="1688.771484" xlink:href="#DejaVuSans-32"/>
     <use x="1752.394531" xlink:href="#DejaVuSans-37"/>
    </g>
   </g>
  </g>
  <g id="legend_1">
   <g id="text_16">
    <!-- error_category -->
    <defs>
     <path d="M 50.984375 -16.609375 
L 50.984375 -23.578125 
L -0.984375 -23.578125 
L -0.984375 -16.609375 
z
" id="DejaVuSans-5f"/>
     <path d="M 48.78125 52.59375 
L 48.78125 44.1875 
Q 44.96875 46.296875 41.140625 47.34375 
Q 37.3125 48.390625 33.40625 48.390625 
Q 24.65625 48.390625 19.8125 42.84375 
Q 14.984375 37.3125 14.984375 27.296875 
Q 14.984375 17.28125 19.8125 11.734375 
Q 24.65625 6.203125 33.40625 6.203125 
Q 37.3125 6.203125 41.140625 7.25 
Q 44.96875 8.296875 48.78125 10.40625 
L 48.78125 2.09375 
Q 45.015625 0.34375 40.984375 -0.53125 
Q 36.96875 -1.421875 32.421875 -1.421875 
Q 20.0625 -1.421875 12.78125 6.34375 
Q 5.515625 14.109375 5.515625 27.296875 
Q 5.515625 40.671875 12.859375 48.328125 
Q 20.21875 56 33.015625 56 
Q 37.15625 56 41.109375 55.140625 
Q 45.0625 54.296875 48.78125 52.59375 
z
" id="DejaVuSans-63"/>
    </defs>
    <g style="fill:#262626;" transform="translate(540.669755 274.710037)scale(0.1496 -0.1496)">
     <use xlink:href="#DejaVuSans-65"/>
     <use x="61.523438" xlink:href="#DejaVuSans-72"/>
     <use x="102.621094" xlink:href="#DejaVuSans-72"/>
     <use x="143.703125" xlink:href="#DejaVuSans-6f"/>
     <use x="204.884766" xlink:href="#DejaVuSans-72"/>
     <use x="245.998047" xlink:href="#DejaVuSans-5f"/>
     <use x="295.998047" xlink:href="#DejaVuSans-63"/>
     <use x="350.978516" xlink:href="#DejaVuSans-61"/>
     <use x="412.257812" xlink:href="#DejaVuSans-74"/>
     <use x="451.466797" xlink:href="#DejaVuSans-65"/>
     <use x="512.990234" xlink:href="#DejaVuSans-67"/>
     <use x="576.466797" xlink:href="#DejaVuSans-6f"/>
     <use x="637.648438" xlink:href="#DejaVuSans-72"/>
     <use x="678.761719" xlink:href="#DejaVuSans-79"/>
    </g>
   </g>
   <g id="PathCollection_4">
    <g>
     <use style="fill:#2ecc71;stroke:#2ecc71;stroke-width:0.48;" x="556.153567" xlink:href="#mea3ceb501a" y="294.194825"/>
    </g>
   </g>
   <g id="text_17">
    <!-- Good -->
    <defs>
     <path d="M 59.515625 10.40625 
L 59.515625 29.984375 
L 43.40625 29.984375 
L 43.40625 38.09375 
L 69.28125 38.09375 
L 69.28125 6.78125 
Q 63.578125 2.734375 56.6875 0.65625 
Q 49.8125 -1.421875 42 -1.421875 
Q 24.90625 -1.421875 15.25 8.5625 
Q 5.609375 18.5625 5.609375 36.375 
Q 5.609375 54.25 15.25 64.234375 
Q 24.90625 74.21875 42 74.21875 
Q 49.125 74.21875 55.546875 72.453125 
Q 61.96875 70.703125 67.390625 67.28125 
L 67.390625 56.78125 
Q 61.921875 61.421875 55.765625 63.765625 
Q 49.609375 66.109375 42.828125 66.109375 
Q 29.4375 66.109375 22.71875 58.640625 
Q 16.015625 51.171875 16.015625 36.375 
Q 16.015625 21.625 22.71875 14.15625 
Q 29.4375 6.6875 42.828125 6.6875 
Q 48.046875 6.6875 52.140625 7.59375 
Q 56.25 8.5 59.515625 10.40625 
z
" id="DejaVuSans-47"/>
    </defs>
    <g style="fill:#262626;" transform="translate(584.953567 298.394825)scale(0.16 -0.16)">
     <use xlink:href="#DejaVuSans-47"/>
     <use x="77.490234" xlink:href="#DejaVuSans-6f"/>
     <use x="138.671875" xlink:href="#DejaVuSans-6f"/>
     <use x="199.853516" xlink:href="#DejaVuSans-64"/>
    </g>
   </g>
   <g id="PathCollection_5">
    <g>
     <use style="fill:#34495e;stroke:#34495e;stroke-width:0.48;" x="556.153567" xlink:href="#m4952c028ad" y="317.679825"/>
    </g>
   </g>
   <g id="text_18">
    <!-- Average -->
    <g style="fill:#262626;" transform="translate(584.953567 321.879825)scale(0.16 -0.16)">
     <use xlink:href="#DejaVuSans-41"/>
     <use x="68.330078" xlink:href="#DejaVuSans-76"/>
     <use x="127.509766" xlink:href="#DejaVuSans-65"/>
     <use x="189.033203" xlink:href="#DejaVuSans-72"/>
     <use x="230.146484" xlink:href="#DejaVuSans-61"/>
     <use x="291.425781" xlink:href="#DejaVuSans-67"/>
     <use x="354.902344" xlink:href="#DejaVuSans-65"/>
    </g>
   </g>
   <g id="PathCollection_6">
    <g>
     <use style="fill:#e74c3c;stroke:#e74c3c;stroke-width:0.48;" x="556.153567" xlink:href="#m8dc84a16ea" y="341.164825"/>
    </g>
   </g>
   <g id="text_19">
    <!-- Bad -->
    <g style="fill:#262626;" transform="translate(584.953567 345.364825)scale(0.16 -0.16)">
     <use xlink:href="#DejaVuSans-42"/>
     <use x="68.603516" xlink:href="#DejaVuSans-61"/>
     <use x="129.882812" xlink:href="#DejaVuSans-64"/>
    </g>
   </g>
  </g>
 </g>
 <defs>
  <clipPath id="p03b27950a6">
   <rect height="486.328" width="472.032817" x="63.021" y="70.7886"/>
  </clipPath>
 </defs>
</svg>
