<?xml version="1.0" encoding="utf-8" standalone="no"?>
<!DOCTYPE svg PUBLIC "-//W3C//DTD SVG 1.1//EN"
  "http://www.w3.org/Graphics/SVG/1.1/DTD/svg11.dtd">
<!-- Created with matplotlib (http://matplotlib.org/) -->
<svg height="605pt" version="1.1" viewBox="0 0 737 605" width="737pt" xmlns="http://www.w3.org/2000/svg" xmlns:xlink="http://www.w3.org/1999/xlink">
 <defs>
  <style type="text/css">
*{stroke-linecap:butt;stroke-linejoin:round;}
  </style>
 </defs>
 <g id="figure_1">
  <g id="patch_1">
   <path d="M 0 605.065125 
L 737.891743 605.065125 
L 737.891743 0 
L 0 0 
z
" style="fill:#ffffff;"/>
  </g>
  <g id="axes_1">
   <g id="patch_2">
    <path d="M 98.911875 533.84575 
L 500.248243 533.84575 
L 500.248243 85.18575 
L 98.911875 85.18575 
z
" style="fill:#eaeaf2;"/>
   </g>
   <g id="matplotlib.axis_1">
    <g id="xtick_1">
     <g id="line2d_1">
      <path clip-path="url(#p337e887ba7)" d="M 111.682056 533.84575 
L 111.682056 85.18575 
" style="fill:none;stroke:#ffffff;stroke-linecap:round;stroke-width:2;"/>
     </g>
     <g id="text_1">
      <!-- 0 -->
      <defs>
       <path d="M 31.78125 66.40625 
Q 24.171875 66.40625 20.328125 58.90625 
Q 16.5 51.421875 16.5 36.375 
Q 16.5 21.390625 20.328125 13.890625 
Q 24.171875 6.390625 31.78125 6.390625 
Q 39.453125 6.390625 43.28125 13.890625 
Q 47.125 21.390625 47.125 36.375 
Q 47.125 51.421875 43.28125 58.90625 
Q 39.453125 66.40625 31.78125 66.40625 
z
M 31.78125 74.21875 
Q 44.046875 74.21875 50.515625 64.515625 
Q 56.984375 54.828125 56.984375 36.375 
Q 56.984375 17.96875 50.515625 8.265625 
Q 44.046875 -1.421875 31.78125 -1.421875 
Q 19.53125 -1.421875 13.0625 8.265625 
Q 6.59375 17.96875 6.59375 36.375 
Q 6.59375 54.828125 13.0625 64.515625 
Q 19.53125 74.21875 31.78125 74.21875 
z
" id="DejaVuSans-30"/>
      </defs>
      <g style="fill:#262626;" transform="translate(104.683306 566.062312)scale(0.22 -0.22)">
       <use xlink:href="#DejaVuSans-30"/>
      </g>
     </g>
    </g>
    <g id="xtick_2">
     <g id="line2d_2">
      <path clip-path="url(#p337e887ba7)" d="M 225.58521 533.84575 
L 225.58521 85.18575 
" style="fill:none;stroke:#ffffff;stroke-linecap:round;stroke-width:2;"/>
     </g>
     <g id="text_2">
      <!-- 20 -->
      <defs>
       <path d="M 19.1875 8.296875 
L 53.609375 8.296875 
L 53.609375 0 
L 7.328125 0 
L 7.328125 8.296875 
Q 12.9375 14.109375 22.625 23.890625 
Q 32.328125 33.6875 34.8125 36.53125 
Q 39.546875 41.84375 41.421875 45.53125 
Q 43.3125 49.21875 43.3125 52.78125 
Q 43.3125 58.59375 39.234375 62.25 
Q 35.15625 65.921875 28.609375 65.921875 
Q 23.96875 65.921875 18.8125 64.3125 
Q 13.671875 62.703125 7.8125 59.421875 
L 7.8125 69.390625 
Q 13.765625 71.78125 18.9375 73 
Q 24.125 74.21875 28.421875 74.21875 
Q 39.75 74.21875 46.484375 68.546875 
Q 53.21875 62.890625 53.21875 53.421875 
Q 53.21875 48.921875 51.53125 44.890625 
Q 49.859375 40.875 45.40625 35.40625 
Q 44.1875 33.984375 37.640625 27.21875 
Q 31.109375 20.453125 19.1875 8.296875 
z
" id="DejaVuSans-32"/>
      </defs>
      <g style="fill:#262626;" transform="translate(211.58771 566.062312)scale(0.22 -0.22)">
       <use xlink:href="#DejaVuSans-32"/>
       <use x="63.623047" xlink:href="#DejaVuSans-30"/>
      </g>
     </g>
    </g>
    <g id="xtick_3">
     <g id="line2d_3">
      <path clip-path="url(#p337e887ba7)" d="M 339.488364 533.84575 
L 339.488364 85.18575 
" style="fill:none;stroke:#ffffff;stroke-linecap:round;stroke-width:2;"/>
     </g>
     <g id="text_3">
      <!-- 40 -->
      <defs>
       <path d="M 37.796875 64.3125 
L 12.890625 25.390625 
L 37.796875 25.390625 
z
M 35.203125 72.90625 
L 47.609375 72.90625 
L 47.609375 25.390625 
L 58.015625 25.390625 
L 58.015625 17.1875 
L 47.609375 17.1875 
L 47.609375 0 
L 37.796875 0 
L 37.796875 17.1875 
L 4.890625 17.1875 
L 4.890625 26.703125 
z
" id="DejaVuSans-34"/>
      </defs>
      <g style="fill:#262626;" transform="translate(325.490864 566.062312)scale(0.22 -0.22)">
       <use xlink:href="#DejaVuSans-34"/>
       <use x="63.623047" xlink:href="#DejaVuSans-30"/>
      </g>
     </g>
    </g>
    <g id="xtick_4">
     <g id="line2d_4">
      <path clip-path="url(#p337e887ba7)" d="M 453.391518 533.84575 
L 453.391518 85.18575 
" style="fill:none;stroke:#ffffff;stroke-linecap:round;stroke-width:2;"/>
     </g>
     <g id="text_4">
      <!-- 60 -->
      <defs>
       <path d="M 33.015625 40.375 
Q 26.375 40.375 22.484375 35.828125 
Q 18.609375 31.296875 18.609375 23.390625 
Q 18.609375 15.53125 22.484375 10.953125 
Q 26.375 6.390625 33.015625 6.390625 
Q 39.65625 6.390625 43.53125 10.953125 
Q 47.40625 15.53125 47.40625 23.390625 
Q 47.40625 31.296875 43.53125 35.828125 
Q 39.65625 40.375 33.015625 40.375 
z
M 52.59375 71.296875 
L 52.59375 62.3125 
Q 48.875 64.0625 45.09375 64.984375 
Q 41.3125 65.921875 37.59375 65.921875 
Q 27.828125 65.921875 22.671875 59.328125 
Q 17.53125 52.734375 16.796875 39.40625 
Q 19.671875 43.65625 24.015625 45.921875 
Q 28.375 48.1875 33.59375 48.1875 
Q 44.578125 48.1875 50.953125 41.515625 
Q 57.328125 34.859375 57.328125 23.390625 
Q 57.328125 12.15625 50.6875 5.359375 
Q 44.046875 -1.421875 33.015625 -1.421875 
Q 20.359375 -1.421875 13.671875 8.265625 
Q 6.984375 17.96875 6.984375 36.375 
Q 6.984375 53.65625 15.1875 63.9375 
Q 23.390625 74.21875 37.203125 74.21875 
Q 40.921875 74.21875 44.703125 73.484375 
Q 48.484375 72.75 52.59375 71.296875 
z
" id="DejaVuSans-36"/>
      </defs>
      <g style="fill:#262626;" transform="translate(439.394018 566.062312)scale(0.22 -0.22)">
       <use xlink:href="#DejaVuSans-36"/>
       <use x="63.623047" xlink:href="#DejaVuSans-30"/>
      </g>
     </g>
    </g>
    <g id="text_5">
     <!-- Symmetric Absolute Percentage Error -->
     <defs>
      <path d="M 53.515625 70.515625 
L 53.515625 60.890625 
Q 47.90625 63.578125 42.921875 64.890625 
Q 37.9375 66.21875 33.296875 66.21875 
Q 25.25 66.21875 20.875 63.09375 
Q 16.5 59.96875 16.5 54.203125 
Q 16.5 49.359375 19.40625 46.890625 
Q 22.3125 44.4375 30.421875 42.921875 
L 36.375 41.703125 
Q 47.40625 39.59375 52.65625 34.296875 
Q 57.90625 29 57.90625 20.125 
Q 57.90625 9.515625 50.796875 4.046875 
Q 43.703125 -1.421875 29.984375 -1.421875 
Q 24.8125 -1.421875 18.96875 -0.25 
Q 13.140625 0.921875 6.890625 3.21875 
L 6.890625 13.375 
Q 12.890625 10.015625 18.65625 8.296875 
Q 24.421875 6.59375 29.984375 6.59375 
Q 38.421875 6.59375 43.015625 9.90625 
Q 47.609375 13.234375 47.609375 19.390625 
Q 47.609375 24.75 44.3125 27.78125 
Q 41.015625 30.8125 33.5 32.328125 
L 27.484375 33.5 
Q 16.453125 35.6875 11.515625 40.375 
Q 6.59375 45.0625 6.59375 53.421875 
Q 6.59375 63.09375 13.40625 68.65625 
Q 20.21875 74.21875 32.171875 74.21875 
Q 37.3125 74.21875 42.625 73.28125 
Q 47.953125 72.359375 53.515625 70.515625 
z
" id="DejaVuSans-53"/>
      <path d="M 32.171875 -5.078125 
Q 28.375 -14.84375 24.75 -17.8125 
Q 21.140625 -20.796875 15.09375 -20.796875 
L 7.90625 -20.796875 
L 7.90625 -13.28125 
L 13.1875 -13.28125 
Q 16.890625 -13.28125 18.9375 -11.515625 
Q 21 -9.765625 23.484375 -3.21875 
L 25.09375 0.875 
L 2.984375 54.6875 
L 12.5 54.6875 
L 29.59375 11.921875 
L 46.6875 54.6875 
L 56.203125 54.6875 
z
" id="DejaVuSans-79"/>
      <path d="M 52 44.1875 
Q 55.375 50.25 60.0625 53.125 
Q 64.75 56 71.09375 56 
Q 79.640625 56 84.28125 50.015625 
Q 88.921875 44.046875 88.921875 33.015625 
L 88.921875 0 
L 79.890625 0 
L 79.890625 32.71875 
Q 79.890625 40.578125 77.09375 44.375 
Q 74.3125 48.1875 68.609375 48.1875 
Q 61.625 48.1875 57.5625 43.546875 
Q 53.515625 38.921875 53.515625 30.90625 
L 53.515625 0 
L 44.484375 0 
L 44.484375 32.71875 
Q 44.484375 40.625 41.703125 44.40625 
Q 38.921875 48.1875 33.109375 48.1875 
Q 26.21875 48.1875 22.15625 43.53125 
Q 18.109375 38.875 18.109375 30.90625 
L 18.109375 0 
L 9.078125 0 
L 9.078125 54.6875 
L 18.109375 54.6875 
L 18.109375 46.1875 
Q 21.1875 51.21875 25.484375 53.609375 
Q 29.78125 56 35.6875 56 
Q 41.65625 56 45.828125 52.96875 
Q 50 49.953125 52 44.1875 
z
" id="DejaVuSans-6d"/>
      <path d="M 56.203125 29.59375 
L 56.203125 25.203125 
L 14.890625 25.203125 
Q 15.484375 15.921875 20.484375 11.0625 
Q 25.484375 6.203125 34.421875 6.203125 
Q 39.59375 6.203125 44.453125 7.46875 
Q 49.3125 8.734375 54.109375 11.28125 
L 54.109375 2.78125 
Q 49.265625 0.734375 44.1875 -0.34375 
Q 39.109375 -1.421875 33.890625 -1.421875 
Q 20.796875 -1.421875 13.15625 6.1875 
Q 5.515625 13.8125 5.515625 26.8125 
Q 5.515625 40.234375 12.765625 48.109375 
Q 20.015625 56 32.328125 56 
Q 43.359375 56 49.78125 48.890625 
Q 56.203125 41.796875 56.203125 29.59375 
z
M 47.21875 32.234375 
Q 47.125 39.59375 43.09375 43.984375 
Q 39.0625 48.390625 32.421875 48.390625 
Q 24.90625 48.390625 20.390625 44.140625 
Q 15.875 39.890625 15.1875 32.171875 
z
" id="DejaVuSans-65"/>
      <path d="M 18.3125 70.21875 
L 18.3125 54.6875 
L 36.8125 54.6875 
L 36.8125 47.703125 
L 18.3125 47.703125 
L 18.3125 18.015625 
Q 18.3125 11.328125 20.140625 9.421875 
Q 21.96875 7.515625 27.59375 7.515625 
L 36.8125 7.515625 
L 36.8125 0 
L 27.59375 0 
Q 17.1875 0 13.234375 3.875 
Q 9.28125 7.765625 9.28125 18.015625 
L 9.28125 47.703125 
L 2.6875 47.703125 
L 2.6875 54.6875 
L 9.28125 54.6875 
L 9.28125 70.21875 
z
" id="DejaVuSans-74"/>
      <path d="M 41.109375 46.296875 
Q 39.59375 47.171875 37.8125 47.578125 
Q 36.03125 48 33.890625 48 
Q 26.265625 48 22.1875 43.046875 
Q 18.109375 38.09375 18.109375 28.8125 
L 18.109375 0 
L 9.078125 0 
L 9.078125 54.6875 
L 18.109375 54.6875 
L 18.109375 46.1875 
Q 20.953125 51.171875 25.484375 53.578125 
Q 30.03125 56 36.53125 56 
Q 37.453125 56 38.578125 55.875 
Q 39.703125 55.765625 41.0625 55.515625 
z
" id="DejaVuSans-72"/>
      <path d="M 9.421875 54.6875 
L 18.40625 54.6875 
L 18.40625 0 
L 9.421875 0 
z
M 9.421875 75.984375 
L 18.40625 75.984375 
L 18.40625 64.59375 
L 9.421875 64.59375 
z
" id="DejaVuSans-69"/>
      <path d="M 48.78125 52.59375 
L 48.78125 44.1875 
Q 44.96875 46.296875 41.140625 47.34375 
Q 37.3125 48.390625 33.40625 48.390625 
Q 24.65625 48.390625 19.8125 42.84375 
Q 14.984375 37.3125 14.984375 27.296875 
Q 14.984375 17.28125 19.8125 11.734375 
Q 24.65625 6.203125 33.40625 6.203125 
Q 37.3125 6.203125 41.140625 7.25 
Q 44.96875 8.296875 48.78125 10.40625 
L 48.78125 2.09375 
Q 45.015625 0.34375 40.984375 -0.53125 
Q 36.96875 -1.421875 32.421875 -1.421875 
Q 20.0625 -1.421875 12.78125 6.34375 
Q 5.515625 14.109375 5.515625 27.296875 
Q 5.515625 40.671875 12.859375 48.328125 
Q 20.21875 56 33.015625 56 
Q 37.15625 56 41.109375 55.140625 
Q 45.0625 54.296875 48.78125 52.59375 
z
" id="DejaVuSans-63"/>
      <path id="DejaVuSans-20"/>
      <path d="M 34.1875 63.1875 
L 20.796875 26.90625 
L 47.609375 26.90625 
z
M 28.609375 72.90625 
L 39.796875 72.90625 
L 67.578125 0 
L 57.328125 0 
L 50.6875 18.703125 
L 17.828125 18.703125 
L 11.1875 0 
L 0.78125 0 
z
" id="DejaVuSans-41"/>
      <path d="M 48.6875 27.296875 
Q 48.6875 37.203125 44.609375 42.84375 
Q 40.53125 48.484375 33.40625 48.484375 
Q 26.265625 48.484375 22.1875 42.84375 
Q 18.109375 37.203125 18.109375 27.296875 
Q 18.109375 17.390625 22.1875 11.75 
Q 26.265625 6.109375 33.40625 6.109375 
Q 40.53125 6.109375 44.609375 11.75 
Q 48.6875 17.390625 48.6875 27.296875 
z
M 18.109375 46.390625 
Q 20.953125 51.265625 25.265625 53.625 
Q 29.59375 56 35.59375 56 
Q 45.5625 56 51.78125 48.09375 
Q 58.015625 40.1875 58.015625 27.296875 
Q 58.015625 14.40625 51.78125 6.484375 
Q 45.5625 -1.421875 35.59375 -1.421875 
Q 29.59375 -1.421875 25.265625 0.953125 
Q 20.953125 3.328125 18.109375 8.203125 
L 18.109375 0 
L 9.078125 0 
L 9.078125 75.984375 
L 18.109375 75.984375 
z
" id="DejaVuSans-62"/>
      <path d="M 44.28125 53.078125 
L 44.28125 44.578125 
Q 40.484375 46.53125 36.375 47.5 
Q 32.28125 48.484375 27.875 48.484375 
Q 21.1875 48.484375 17.84375 46.4375 
Q 14.5 44.390625 14.5 40.28125 
Q 14.5 37.15625 16.890625 35.375 
Q 19.28125 33.59375 26.515625 31.984375 
L 29.59375 31.296875 
Q 39.15625 29.25 43.1875 25.515625 
Q 47.21875 21.78125 47.21875 15.09375 
Q 47.21875 7.46875 41.1875 3.015625 
Q 35.15625 -1.421875 24.609375 -1.421875 
Q 20.21875 -1.421875 15.453125 -0.5625 
Q 10.6875 0.296875 5.421875 2 
L 5.421875 11.28125 
Q 10.40625 8.6875 15.234375 7.390625 
Q 20.0625 6.109375 24.8125 6.109375 
Q 31.15625 6.109375 34.5625 8.28125 
Q 37.984375 10.453125 37.984375 14.40625 
Q 37.984375 18.0625 35.515625 20.015625 
Q 33.0625 21.96875 24.703125 23.78125 
L 21.578125 24.515625 
Q 13.234375 26.265625 9.515625 29.90625 
Q 5.8125 33.546875 5.8125 39.890625 
Q 5.8125 47.609375 11.28125 51.796875 
Q 16.75 56 26.8125 56 
Q 31.78125 56 36.171875 55.265625 
Q 40.578125 54.546875 44.28125 53.078125 
z
" id="DejaVuSans-73"/>
      <path d="M 30.609375 48.390625 
Q 23.390625 48.390625 19.1875 42.75 
Q 14.984375 37.109375 14.984375 27.296875 
Q 14.984375 17.484375 19.15625 11.84375 
Q 23.34375 6.203125 30.609375 6.203125 
Q 37.796875 6.203125 41.984375 11.859375 
Q 46.1875 17.53125 46.1875 27.296875 
Q 46.1875 37.015625 41.984375 42.703125 
Q 37.796875 48.390625 30.609375 48.390625 
z
M 30.609375 56 
Q 42.328125 56 49.015625 48.375 
Q 55.71875 40.765625 55.71875 27.296875 
Q 55.71875 13.875 49.015625 6.21875 
Q 42.328125 -1.421875 30.609375 -1.421875 
Q 18.84375 -1.421875 12.171875 6.21875 
Q 5.515625 13.875 5.515625 27.296875 
Q 5.515625 40.765625 12.171875 48.375 
Q 18.84375 56 30.609375 56 
z
" id="DejaVuSans-6f"/>
      <path d="M 9.421875 75.984375 
L 18.40625 75.984375 
L 18.40625 0 
L 9.421875 0 
z
" id="DejaVuSans-6c"/>
      <path d="M 8.5 21.578125 
L 8.5 54.6875 
L 17.484375 54.6875 
L 17.484375 21.921875 
Q 17.484375 14.15625 20.5 10.265625 
Q 23.53125 6.390625 29.59375 6.390625 
Q 36.859375 6.390625 41.078125 11.03125 
Q 45.3125 15.671875 45.3125 23.6875 
L 45.3125 54.6875 
L 54.296875 54.6875 
L 54.296875 0 
L 45.3125 0 
L 45.3125 8.40625 
Q 42.046875 3.421875 37.71875 1 
Q 33.40625 -1.421875 27.6875 -1.421875 
Q 18.265625 -1.421875 13.375 4.4375 
Q 8.5 10.296875 8.5 21.578125 
z
M 31.109375 56 
z
" id="DejaVuSans-75"/>
      <path d="M 19.671875 64.796875 
L 19.671875 37.40625 
L 32.078125 37.40625 
Q 38.96875 37.40625 42.71875 40.96875 
Q 46.484375 44.53125 46.484375 51.125 
Q 46.484375 57.671875 42.71875 61.234375 
Q 38.96875 64.796875 32.078125 64.796875 
z
M 9.8125 72.90625 
L 32.078125 72.90625 
Q 44.34375 72.90625 50.609375 67.359375 
Q 56.890625 61.8125 56.890625 51.125 
Q 56.890625 40.328125 50.609375 34.8125 
Q 44.34375 29.296875 32.078125 29.296875 
L 19.671875 29.296875 
L 19.671875 0 
L 9.8125 0 
z
" id="DejaVuSans-50"/>
      <path d="M 54.890625 33.015625 
L 54.890625 0 
L 45.90625 0 
L 45.90625 32.71875 
Q 45.90625 40.484375 42.875 44.328125 
Q 39.84375 48.1875 33.796875 48.1875 
Q 26.515625 48.1875 22.3125 43.546875 
Q 18.109375 38.921875 18.109375 30.90625 
L 18.109375 0 
L 9.078125 0 
L 9.078125 54.6875 
L 18.109375 54.6875 
L 18.109375 46.1875 
Q 21.34375 51.125 25.703125 53.5625 
Q 30.078125 56 35.796875 56 
Q 45.21875 56 50.046875 50.171875 
Q 54.890625 44.34375 54.890625 33.015625 
z
" id="DejaVuSans-6e"/>
      <path d="M 34.28125 27.484375 
Q 23.390625 27.484375 19.1875 25 
Q 14.984375 22.515625 14.984375 16.5 
Q 14.984375 11.71875 18.140625 8.90625 
Q 21.296875 6.109375 26.703125 6.109375 
Q 34.1875 6.109375 38.703125 11.40625 
Q 43.21875 16.703125 43.21875 25.484375 
L 43.21875 27.484375 
z
M 52.203125 31.203125 
L 52.203125 0 
L 43.21875 0 
L 43.21875 8.296875 
Q 40.140625 3.328125 35.546875 0.953125 
Q 30.953125 -1.421875 24.3125 -1.421875 
Q 15.921875 -1.421875 10.953125 3.296875 
Q 6 8.015625 6 15.921875 
Q 6 25.140625 12.171875 29.828125 
Q 18.359375 34.515625 30.609375 34.515625 
L 43.21875 34.515625 
L 43.21875 35.40625 
Q 43.21875 41.609375 39.140625 45 
Q 35.0625 48.390625 27.6875 48.390625 
Q 23 48.390625 18.546875 47.265625 
Q 14.109375 46.140625 10.015625 43.890625 
L 10.015625 52.203125 
Q 14.9375 54.109375 19.578125 55.046875 
Q 24.21875 56 28.609375 56 
Q 40.484375 56 46.34375 49.84375 
Q 52.203125 43.703125 52.203125 31.203125 
z
" id="DejaVuSans-61"/>
      <path d="M 45.40625 27.984375 
Q 45.40625 37.75 41.375 43.109375 
Q 37.359375 48.484375 30.078125 48.484375 
Q 22.859375 48.484375 18.828125 43.109375 
Q 14.796875 37.75 14.796875 27.984375 
Q 14.796875 18.265625 18.828125 12.890625 
Q 22.859375 7.515625 30.078125 7.515625 
Q 37.359375 7.515625 41.375 12.890625 
Q 45.40625 18.265625 45.40625 27.984375 
z
M 54.390625 6.78125 
Q 54.390625 -7.171875 48.1875 -13.984375 
Q 42 -20.796875 29.203125 -20.796875 
Q 24.46875 -20.796875 20.265625 -20.09375 
Q 16.0625 -19.390625 12.109375 -17.921875 
L 12.109375 -9.1875 
Q 16.0625 -11.328125 19.921875 -12.34375 
Q 23.78125 -13.375 27.78125 -13.375 
Q 36.625 -13.375 41.015625 -8.765625 
Q 45.40625 -4.15625 45.40625 5.171875 
L 45.40625 9.625 
Q 42.625 4.78125 38.28125 2.390625 
Q 33.9375 0 27.875 0 
Q 17.828125 0 11.671875 7.65625 
Q 5.515625 15.328125 5.515625 27.984375 
Q 5.515625 40.671875 11.671875 48.328125 
Q 17.828125 56 27.875 56 
Q 33.9375 56 38.28125 53.609375 
Q 42.625 51.21875 45.40625 46.390625 
L 45.40625 54.6875 
L 54.390625 54.6875 
z
" id="DejaVuSans-67"/>
      <path d="M 9.8125 72.90625 
L 55.90625 72.90625 
L 55.90625 64.59375 
L 19.671875 64.59375 
L 19.671875 43.015625 
L 54.390625 43.015625 
L 54.390625 34.71875 
L 19.671875 34.71875 
L 19.671875 8.296875 
L 56.78125 8.296875 
L 56.78125 0 
L 9.8125 0 
z
" id="DejaVuSans-45"/>
     </defs>
     <g style="fill:#262626;" transform="translate(72.731309 592.873875)scale(0.24 -0.24)">
      <use xlink:href="#DejaVuSans-53"/>
      <use x="63.476562" xlink:href="#DejaVuSans-79"/>
      <use x="122.65625" xlink:href="#DejaVuSans-6d"/>
      <use x="220.068359" xlink:href="#DejaVuSans-6d"/>
      <use x="317.480469" xlink:href="#DejaVuSans-65"/>
      <use x="379.003906" xlink:href="#DejaVuSans-74"/>
      <use x="418.212891" xlink:href="#DejaVuSans-72"/>
      <use x="459.326172" xlink:href="#DejaVuSans-69"/>
      <use x="487.109375" xlink:href="#DejaVuSans-63"/>
      <use x="542.089844" xlink:href="#DejaVuSans-20"/>
      <use x="573.876953" xlink:href="#DejaVuSans-41"/>
      <use x="642.285156" xlink:href="#DejaVuSans-62"/>
      <use x="705.761719" xlink:href="#DejaVuSans-73"/>
      <use x="757.861328" xlink:href="#DejaVuSans-6f"/>
      <use x="819.042969" xlink:href="#DejaVuSans-6c"/>
      <use x="846.826172" xlink:href="#DejaVuSans-75"/>
      <use x="910.205078" xlink:href="#DejaVuSans-74"/>
      <use x="949.414062" xlink:href="#DejaVuSans-65"/>
      <use x="1010.9375" xlink:href="#DejaVuSans-20"/>
      <use x="1042.724609" xlink:href="#DejaVuSans-50"/>
      <use x="1102.980469" xlink:href="#DejaVuSans-65"/>
      <use x="1164.503906" xlink:href="#DejaVuSans-72"/>
      <use x="1205.585938" xlink:href="#DejaVuSans-63"/>
      <use x="1260.566406" xlink:href="#DejaVuSans-65"/>
      <use x="1322.089844" xlink:href="#DejaVuSans-6e"/>
      <use x="1385.46875" xlink:href="#DejaVuSans-74"/>
      <use x="1424.677734" xlink:href="#DejaVuSans-61"/>
      <use x="1485.957031" xlink:href="#DejaVuSans-67"/>
      <use x="1549.433594" xlink:href="#DejaVuSans-65"/>
      <use x="1610.957031" xlink:href="#DejaVuSans-20"/>
      <use x="1642.744141" xlink:href="#DejaVuSans-45"/>
      <use x="1705.927734" xlink:href="#DejaVuSans-72"/>
      <use x="1747.025391" xlink:href="#DejaVuSans-72"/>
      <use x="1788.107422" xlink:href="#DejaVuSans-6f"/>
      <use x="1849.289062" xlink:href="#DejaVuSans-72"/>
     </g>
    </g>
   </g>
   <g id="matplotlib.axis_2">
    <g id="ytick_1">
     <g id="line2d_5">
      <path clip-path="url(#p337e887ba7)" d="M 98.911875 514.003141 
L 500.248243 514.003141 
" style="fill:none;stroke:#ffffff;stroke-linecap:round;stroke-width:2;"/>
     </g>
     <g id="text_6">
      <!-- 27.5 -->
      <defs>
       <path d="M 8.203125 72.90625 
L 55.078125 72.90625 
L 55.078125 68.703125 
L 28.609375 0 
L 18.3125 0 
L 43.21875 64.59375 
L 8.203125 64.59375 
z
" id="DejaVuSans-37"/>
       <path d="M 10.6875 12.40625 
L 21 12.40625 
L 21 0 
L 10.6875 0 
z
" id="DejaVuSans-2e"/>
       <path d="M 10.796875 72.90625 
L 49.515625 72.90625 
L 49.515625 64.59375 
L 19.828125 64.59375 
L 19.828125 46.734375 
Q 21.96875 47.46875 24.109375 47.828125 
Q 26.265625 48.1875 28.421875 48.1875 
Q 40.625 48.1875 47.75 41.5 
Q 54.890625 34.8125 54.890625 23.390625 
Q 54.890625 11.625 47.5625 5.09375 
Q 40.234375 -1.421875 26.90625 -1.421875 
Q 22.3125 -1.421875 17.546875 -0.640625 
Q 12.796875 0.140625 7.71875 1.703125 
L 7.71875 11.625 
Q 12.109375 9.234375 16.796875 8.0625 
Q 21.484375 6.890625 26.703125 6.890625 
Q 35.15625 6.890625 40.078125 11.328125 
Q 45.015625 15.765625 45.015625 23.390625 
Q 45.015625 31 40.078125 35.4375 
Q 35.15625 39.890625 26.703125 39.890625 
Q 22.75 39.890625 18.8125 39.015625 
Q 14.890625 38.140625 10.796875 36.28125 
z
" id="DejaVuSans-35"/>
      </defs>
      <g style="fill:#262626;" transform="translate(34.4275 522.361422)scale(0.22 -0.22)">
       <use xlink:href="#DejaVuSans-32"/>
       <use x="63.623047" xlink:href="#DejaVuSans-37"/>
       <use x="127.246094" xlink:href="#DejaVuSans-2e"/>
       <use x="159.033203" xlink:href="#DejaVuSans-35"/>
      </g>
     </g>
    </g>
    <g id="ytick_2">
     <g id="line2d_6">
      <path clip-path="url(#p337e887ba7)" d="M 98.911875 441.482738 
L 500.248243 441.482738 
" style="fill:none;stroke:#ffffff;stroke-linecap:round;stroke-width:2;"/>
     </g>
     <g id="text_7">
      <!-- 28.0 -->
      <defs>
       <path d="M 31.78125 34.625 
Q 24.75 34.625 20.71875 30.859375 
Q 16.703125 27.09375 16.703125 20.515625 
Q 16.703125 13.921875 20.71875 10.15625 
Q 24.75 6.390625 31.78125 6.390625 
Q 38.8125 6.390625 42.859375 10.171875 
Q 46.921875 13.96875 46.921875 20.515625 
Q 46.921875 27.09375 42.890625 30.859375 
Q 38.875 34.625 31.78125 34.625 
z
M 21.921875 38.8125 
Q 15.578125 40.375 12.03125 44.71875 
Q 8.5 49.078125 8.5 55.328125 
Q 8.5 64.0625 14.71875 69.140625 
Q 20.953125 74.21875 31.78125 74.21875 
Q 42.671875 74.21875 48.875 69.140625 
Q 55.078125 64.0625 55.078125 55.328125 
Q 55.078125 49.078125 51.53125 44.71875 
Q 48 40.375 41.703125 38.8125 
Q 48.828125 37.15625 52.796875 32.3125 
Q 56.78125 27.484375 56.78125 20.515625 
Q 56.78125 9.90625 50.3125 4.234375 
Q 43.84375 -1.421875 31.78125 -1.421875 
Q 19.734375 -1.421875 13.25 4.234375 
Q 6.78125 9.90625 6.78125 20.515625 
Q 6.78125 27.484375 10.78125 32.3125 
Q 14.796875 37.15625 21.921875 38.8125 
z
M 18.3125 54.390625 
Q 18.3125 48.734375 21.84375 45.5625 
Q 25.390625 42.390625 31.78125 42.390625 
Q 38.140625 42.390625 41.71875 45.5625 
Q 45.3125 48.734375 45.3125 54.390625 
Q 45.3125 60.0625 41.71875 63.234375 
Q 38.140625 66.40625 31.78125 66.40625 
Q 25.390625 66.40625 21.84375 63.234375 
Q 18.3125 60.0625 18.3125 54.390625 
z
" id="DejaVuSans-38"/>
      </defs>
      <g style="fill:#262626;" transform="translate(34.4275 449.841019)scale(0.22 -0.22)">
       <use xlink:href="#DejaVuSans-32"/>
       <use x="63.623047" xlink:href="#DejaVuSans-38"/>
       <use x="127.246094" xlink:href="#DejaVuSans-2e"/>
       <use x="159.033203" xlink:href="#DejaVuSans-30"/>
      </g>
     </g>
    </g>
    <g id="ytick_3">
     <g id="line2d_7">
      <path clip-path="url(#p337e887ba7)" d="M 98.911875 368.962336 
L 500.248243 368.962336 
" style="fill:none;stroke:#ffffff;stroke-linecap:round;stroke-width:2;"/>
     </g>
     <g id="text_8">
      <!-- 28.5 -->
      <g style="fill:#262626;" transform="translate(34.4275 377.320617)scale(0.22 -0.22)">
       <use xlink:href="#DejaVuSans-32"/>
       <use x="63.623047" xlink:href="#DejaVuSans-38"/>
       <use x="127.246094" xlink:href="#DejaVuSans-2e"/>
       <use x="159.033203" xlink:href="#DejaVuSans-35"/>
      </g>
     </g>
    </g>
    <g id="ytick_4">
     <g id="line2d_8">
      <path clip-path="url(#p337e887ba7)" d="M 98.911875 296.441933 
L 500.248243 296.441933 
" style="fill:none;stroke:#ffffff;stroke-linecap:round;stroke-width:2;"/>
     </g>
     <g id="text_9">
      <!-- 29.0 -->
      <defs>
       <path d="M 10.984375 1.515625 
L 10.984375 10.5 
Q 14.703125 8.734375 18.5 7.8125 
Q 22.3125 6.890625 25.984375 6.890625 
Q 35.75 6.890625 40.890625 13.453125 
Q 46.046875 20.015625 46.78125 33.40625 
Q 43.953125 29.203125 39.59375 26.953125 
Q 35.25 24.703125 29.984375 24.703125 
Q 19.046875 24.703125 12.671875 31.3125 
Q 6.296875 37.9375 6.296875 49.421875 
Q 6.296875 60.640625 12.9375 67.421875 
Q 19.578125 74.21875 30.609375 74.21875 
Q 43.265625 74.21875 49.921875 64.515625 
Q 56.59375 54.828125 56.59375 36.375 
Q 56.59375 19.140625 48.40625 8.859375 
Q 40.234375 -1.421875 26.421875 -1.421875 
Q 22.703125 -1.421875 18.890625 -0.6875 
Q 15.09375 0.046875 10.984375 1.515625 
z
M 30.609375 32.421875 
Q 37.25 32.421875 41.125 36.953125 
Q 45.015625 41.5 45.015625 49.421875 
Q 45.015625 57.28125 41.125 61.84375 
Q 37.25 66.40625 30.609375 66.40625 
Q 23.96875 66.40625 20.09375 61.84375 
Q 16.21875 57.28125 16.21875 49.421875 
Q 16.21875 41.5 20.09375 36.953125 
Q 23.96875 32.421875 30.609375 32.421875 
z
" id="DejaVuSans-39"/>
      </defs>
      <g style="fill:#262626;" transform="translate(34.4275 304.800214)scale(0.22 -0.22)">
       <use xlink:href="#DejaVuSans-32"/>
       <use x="63.623047" xlink:href="#DejaVuSans-39"/>
       <use x="127.246094" xlink:href="#DejaVuSans-2e"/>
       <use x="159.033203" xlink:href="#DejaVuSans-30"/>
      </g>
     </g>
    </g>
    <g id="ytick_5">
     <g id="line2d_9">
      <path clip-path="url(#p337e887ba7)" d="M 98.911875 223.92153 
L 500.248243 223.92153 
" style="fill:none;stroke:#ffffff;stroke-linecap:round;stroke-width:2;"/>
     </g>
     <g id="text_10">
      <!-- 29.5 -->
      <g style="fill:#262626;" transform="translate(34.4275 232.279812)scale(0.22 -0.22)">
       <use xlink:href="#DejaVuSans-32"/>
       <use x="63.623047" xlink:href="#DejaVuSans-39"/>
       <use x="127.246094" xlink:href="#DejaVuSans-2e"/>
       <use x="159.033203" xlink:href="#DejaVuSans-35"/>
      </g>
     </g>
    </g>
    <g id="ytick_6">
     <g id="line2d_10">
      <path clip-path="url(#p337e887ba7)" d="M 98.911875 151.401128 
L 500.248243 151.401128 
" style="fill:none;stroke:#ffffff;stroke-linecap:round;stroke-width:2;"/>
     </g>
     <g id="text_11">
      <!-- 30.0 -->
      <defs>
       <path d="M 40.578125 39.3125 
Q 47.65625 37.796875 51.625 33 
Q 55.609375 28.21875 55.609375 21.1875 
Q 55.609375 10.40625 48.1875 4.484375 
Q 40.765625 -1.421875 27.09375 -1.421875 
Q 22.515625 -1.421875 17.65625 -0.515625 
Q 12.796875 0.390625 7.625 2.203125 
L 7.625 11.71875 
Q 11.71875 9.328125 16.59375 8.109375 
Q 21.484375 6.890625 26.8125 6.890625 
Q 36.078125 6.890625 40.9375 10.546875 
Q 45.796875 14.203125 45.796875 21.1875 
Q 45.796875 27.640625 41.28125 31.265625 
Q 36.765625 34.90625 28.71875 34.90625 
L 20.21875 34.90625 
L 20.21875 43.015625 
L 29.109375 43.015625 
Q 36.375 43.015625 40.234375 45.921875 
Q 44.09375 48.828125 44.09375 54.296875 
Q 44.09375 59.90625 40.109375 62.90625 
Q 36.140625 65.921875 28.71875 65.921875 
Q 24.65625 65.921875 20.015625 65.03125 
Q 15.375 64.15625 9.8125 62.3125 
L 9.8125 71.09375 
Q 15.4375 72.65625 20.34375 73.4375 
Q 25.25 74.21875 29.59375 74.21875 
Q 40.828125 74.21875 47.359375 69.109375 
Q 53.90625 64.015625 53.90625 55.328125 
Q 53.90625 49.265625 50.4375 45.09375 
Q 46.96875 40.921875 40.578125 39.3125 
z
" id="DejaVuSans-33"/>
      </defs>
      <g style="fill:#262626;" transform="translate(34.4275 159.759409)scale(0.22 -0.22)">
       <use xlink:href="#DejaVuSans-33"/>
       <use x="63.623047" xlink:href="#DejaVuSans-30"/>
       <use x="127.246094" xlink:href="#DejaVuSans-2e"/>
       <use x="159.033203" xlink:href="#DejaVuSans-30"/>
      </g>
     </g>
    </g>
    <g id="text_12">
     <!-- Temperature -->
     <defs>
      <path d="M -0.296875 72.90625 
L 61.375 72.90625 
L 61.375 64.59375 
L 35.5 64.59375 
L 35.5 0 
L 25.59375 0 
L 25.59375 64.59375 
L -0.296875 64.59375 
z
" id="DejaVuSans-54"/>
      <path d="M 18.109375 8.203125 
L 18.109375 -20.796875 
L 9.078125 -20.796875 
L 9.078125 54.6875 
L 18.109375 54.6875 
L 18.109375 46.390625 
Q 20.953125 51.265625 25.265625 53.625 
Q 29.59375 56 35.59375 56 
Q 45.5625 56 51.78125 48.09375 
Q 58.015625 40.1875 58.015625 27.296875 
Q 58.015625 14.40625 51.78125 6.484375 
Q 45.5625 -1.421875 35.59375 -1.421875 
Q 29.59375 -1.421875 25.265625 0.953125 
Q 20.953125 3.328125 18.109375 8.203125 
z
M 48.6875 27.296875 
Q 48.6875 37.203125 44.609375 42.84375 
Q 40.53125 48.484375 33.40625 48.484375 
Q 26.265625 48.484375 22.1875 42.84375 
Q 18.109375 37.203125 18.109375 27.296875 
Q 18.109375 17.390625 22.1875 11.75 
Q 26.265625 6.109375 33.40625 6.109375 
Q 40.53125 6.109375 44.609375 11.75 
Q 48.6875 17.390625 48.6875 27.296875 
z
" id="DejaVuSans-70"/>
     </defs>
     <g style="fill:#262626;" transform="translate(25.43625 387.797)rotate(-90)scale(0.24 -0.24)">
      <use xlink:href="#DejaVuSans-54"/>
      <use x="60.818359" xlink:href="#DejaVuSans-65"/>
      <use x="122.341797" xlink:href="#DejaVuSans-6d"/>
      <use x="219.753906" xlink:href="#DejaVuSans-70"/>
      <use x="283.230469" xlink:href="#DejaVuSans-65"/>
      <use x="344.753906" xlink:href="#DejaVuSans-72"/>
      <use x="385.867188" xlink:href="#DejaVuSans-61"/>
      <use x="447.146484" xlink:href="#DejaVuSans-74"/>
      <use x="486.355469" xlink:href="#DejaVuSans-75"/>
      <use x="549.734375" xlink:href="#DejaVuSans-72"/>
      <use x="590.816406" xlink:href="#DejaVuSans-65"/>
     </g>
    </g>
   </g>
   <g id="PathCollection_1">
    <defs>
     <path d="M 0 6 
C 1.591219 6 3.117479 5.367802 4.242641 4.242641 
C 5.367802 3.117479 6 1.591219 6 0 
C 6 -1.591219 5.367802 -3.117479 4.242641 -4.242641 
C 3.117479 -5.367802 1.591219 -6 0 -6 
C -1.591219 -6 -3.117479 -5.367802 -4.242641 -4.242641 
C -5.367802 -3.117479 -6 -1.591219 -6 0 
C -6 1.591219 -5.367802 3.117479 -4.242641 4.242641 
C -3.117479 5.367802 -1.591219 6 0 6 
z
" id="me43f9edc2d" style="stroke:#2ecc71;stroke-width:2;"/>
    </defs>
    <g clip-path="url(#p337e887ba7)">
     <use style="fill:#2ecc71;stroke:#2ecc71;stroke-width:2;" x="180.058002" xlink:href="#me43f9edc2d" y="290.23741"/>
     <use style="fill:#2ecc71;stroke:#2ecc71;stroke-width:2;" x="130.427036" xlink:href="#me43f9edc2d" y="389.751518"/>
     <use style="fill:#2ecc71;stroke:#2ecc71;stroke-width:2;" x="139.498483" xlink:href="#me43f9edc2d" y="361.428272"/>
     <use style="fill:#2ecc71;stroke:#2ecc71;stroke-width:2;" x="182.620375" xlink:href="#me43f9edc2d" y="293.661984"/>
     <use style="fill:#2ecc71;stroke:#2ecc71;stroke-width:2;" x="149.009575" xlink:href="#me43f9edc2d" y="316.667067"/>
     <use style="fill:#2ecc71;stroke:#2ecc71;stroke-width:2;" x="117.229399" xlink:href="#me43f9edc2d" y="311.99353"/>
     <use style="fill:#2ecc71;stroke:#2ecc71;stroke-width:2;" x="158.889809" xlink:href="#me43f9edc2d" y="171.26366"/>
     <use style="fill:#2ecc71;stroke:#2ecc71;stroke-width:2;" x="126.510154" xlink:href="#me43f9edc2d" y="281.736407"/>
     <use style="fill:#2ecc71;stroke:#2ecc71;stroke-width:2;" x="138.39177" xlink:href="#me43f9edc2d" y="272.308755"/>
     <use style="fill:#2ecc71;stroke:#2ecc71;stroke-width:2;" x="187.021603" xlink:href="#me43f9edc2d" y="224.727313"/>
     <use style="fill:#2ecc71;stroke:#2ecc71;stroke-width:2;" x="161.353644" xlink:href="#me43f9edc2d" y="117.034515"/>
    </g>
   </g>
   <g id="PathCollection_2">
    <defs>
     <path d="M -0 8.485281 
L 8.485281 0 
L 0 -8.485281 
L -8.485281 -0 
z
" id="m85e451c842" style="stroke:#34495e;stroke-width:2;"/>
    </defs>
    <g clip-path="url(#p337e887ba7)">
     <use style="fill:#34495e;stroke:#34495e;stroke-width:2;" x="215.02763" xlink:href="#m85e451c842" y="141.490006"/>
     <use style="fill:#34495e;stroke:#34495e;stroke-width:2;" x="190.426723" xlink:href="#m85e451c842" y="284.596934"/>
     <use style="fill:#34495e;stroke:#34495e;stroke-width:2;" x="252.268979" xlink:href="#m85e451c842" y="386.206076"/>
     <use style="fill:#34495e;stroke:#34495e;stroke-width:2;" x="196.878902" xlink:href="#m85e451c842" y="299.221882"/>
     <use style="fill:#34495e;stroke:#34495e;stroke-width:2;" x="235.104065" xlink:href="#m85e451c842" y="278.714723"/>
     <use style="fill:#34495e;stroke:#34495e;stroke-width:2;" x="302.924839" xlink:href="#m85e451c842" y="316.10302"/>
     <use style="fill:#34495e;stroke:#34495e;stroke-width:2;" x="218.90294" xlink:href="#m85e451c842" y="368.640023"/>
     <use style="fill:#34495e;stroke:#34495e;stroke-width:2;" x="201.34779" xlink:href="#m85e451c842" y="110.991148"/>
     <use style="fill:#34495e;stroke:#34495e;stroke-width:2;" x="207.620309" xlink:href="#m85e451c842" y="215.380239"/>
     <use style="fill:#34495e;stroke:#34495e;stroke-width:2;" x="228.89121" xlink:href="#m85e451c842" y="508.040352"/>
     <use style="fill:#34495e;stroke:#34495e;stroke-width:2;" x="210.651235" xlink:href="#m85e451c842" y="284.234332"/>
     <use style="fill:#34495e;stroke:#34495e;stroke-width:2;" x="235.735302" xlink:href="#m85e451c842" y="265.70134"/>
     <use style="fill:#34495e;stroke:#34495e;stroke-width:2;" x="229.676959" xlink:href="#m85e451c842" y="209.538317"/>
     <use style="fill:#34495e;stroke:#34495e;stroke-width:2;" x="243.828995" xlink:href="#m85e451c842" y="250.028875"/>
     <use style="fill:#34495e;stroke:#34495e;stroke-width:2;" x="255.334316" xlink:href="#m85e451c842" y="242.5351"/>
     <use style="fill:#34495e;stroke:#34495e;stroke-width:2;" x="244.60476" xlink:href="#m85e451c842" y="296.522511"/>
     <use style="fill:#34495e;stroke:#34495e;stroke-width:2;" x="214.381258" xlink:href="#m85e451c842" y="247.692107"/>
     <use style="fill:#34495e;stroke:#34495e;stroke-width:2;" x="286.005747" xlink:href="#m85e451c842" y="179.563218"/>
     <use style="fill:#34495e;stroke:#34495e;stroke-width:2;" x="254.137415" xlink:href="#m85e451c842" y="252.647668"/>
     <use style="fill:#34495e;stroke:#34495e;stroke-width:2;" x="240.005107" xlink:href="#m85e451c842" y="297.04627"/>
     <use style="fill:#34495e;stroke:#34495e;stroke-width:2;" x="210.386129" xlink:href="#m85e451c842" y="191.448506"/>
     <use style="fill:#34495e;stroke:#34495e;stroke-width:2;" x="208.819364" xlink:href="#m85e451c842" y="149.50754"/>
    </g>
   </g>
   <g id="PathCollection_3">
    <defs>
     <path d="M -6 6 
L 6 6 
L 6 -6 
L -6 -6 
z
" id="m3d7a97343d" style="stroke:#e74c3c;stroke-width:2;"/>
    </defs>
    <g clip-path="url(#p337e887ba7)">
     <use style="fill:#e74c3c;stroke:#e74c3c;stroke-width:2;" x="342.267989" xlink:href="#m3d7a97343d" y="181.094204"/>
     <use style="fill:#e74c3c;stroke:#e74c3c;stroke-width:2;" x="453.837284" xlink:href="#m3d7a97343d" y="256.354266"/>
     <use style="fill:#e74c3c;stroke:#e74c3c;stroke-width:2;" x="444.802951" xlink:href="#m3d7a97343d" y="189.836941"/>
     <use style="fill:#e74c3c;stroke:#e74c3c;stroke-width:2;" x="328.089518" xlink:href="#m3d7a97343d" y="161.836008"/>
     <use style="fill:#e74c3c;stroke:#e74c3c;stroke-width:2;" x="327.030989" xlink:href="#m3d7a97343d" y="337.254804"/>
     <use style="fill:#e74c3c;stroke:#e74c3c;stroke-width:2;" x="458.600555" xlink:href="#m3d7a97343d" y="319.769329"/>
     <use style="fill:#e74c3c;stroke:#e74c3c;stroke-width:2;" x="425.675773" xlink:href="#m3d7a97343d" y="289.391338"/>
     <use style="fill:#e74c3c;stroke:#e74c3c;stroke-width:2;" x="320.61462" xlink:href="#m3d7a97343d" y="197.209849"/>
     <use style="fill:#e74c3c;stroke:#e74c3c;stroke-width:2;" x="308.060182" xlink:href="#m3d7a97343d" y="112.038665"/>
     <use style="fill:#e74c3c;stroke:#e74c3c;stroke-width:2;" x="479.295265" xlink:href="#m3d7a97343d" y="246.805746"/>
     <use style="fill:#e74c3c;stroke:#e74c3c;stroke-width:2;" x="421.994933" xlink:href="#m3d7a97343d" y="191.529084"/>
    </g>
   </g>
   <g id="PolyCollection_1">
    <defs>
     <path d="M 98.911875 -374.408256 
L 98.911875 -288.736919 
L 102.965778 -289.845855 
L 107.01968 -291.153051 
L 111.073583 -292.465659 
L 115.127486 -293.629442 
L 119.181389 -294.702226 
L 123.235291 -295.775009 
L 127.289194 -297.057635 
L 131.343097 -298.158763 
L 135.396999 -299.485292 
L 139.450902 -300.623849 
L 143.504805 -301.546576 
L 147.558708 -302.243402 
L 151.61261 -303.242741 
L 155.666513 -304.308084 
L 159.720416 -305.373427 
L 163.774318 -306.438771 
L 167.828221 -307.459398 
L 171.882124 -308.459301 
L 175.936027 -309.24307 
L 179.989929 -310.090409 
L 184.043832 -310.862524 
L 188.097735 -311.579745 
L 192.151637 -312.406754 
L 196.20554 -313.178869 
L 200.259443 -313.913342 
L 204.313346 -314.723098 
L 208.367248 -315.520404 
L 212.421151 -316.267328 
L 216.475054 -317.034247 
L 220.528956 -317.801473 
L 224.582859 -318.578976 
L 228.636762 -319.34459 
L 232.690664 -320.165838 
L 236.744567 -320.930297 
L 240.79847 -321.709213 
L 244.852373 -322.451477 
L 248.906275 -323.079673 
L 252.960178 -323.654379 
L 257.014081 -324.111267 
L 261.067983 -324.661564 
L 265.121886 -325.432744 
L 269.175789 -326.064911 
L 273.229692 -326.715325 
L 277.283594 -327.270093 
L 281.337497 -327.815383 
L 285.3914 -328.467139 
L 289.445302 -328.792515 
L 293.499205 -329.107778 
L 297.553108 -329.43451 
L 301.607011 -329.792713 
L 305.660913 -330.073789 
L 309.714816 -330.403333 
L 313.768719 -330.575531 
L 317.822621 -330.739576 
L 321.876524 -330.844333 
L 325.930427 -330.999947 
L 329.98433 -331.148439 
L 334.038232 -331.523503 
L 338.092135 -331.445991 
L 342.146038 -331.493387 
L 346.19994 -331.407945 
L 350.253843 -331.628743 
L 354.307746 -331.648001 
L 358.361649 -331.576826 
L 362.415551 -331.516009 
L 366.469454 -331.463212 
L 370.523357 -331.651266 
L 374.577259 -331.839321 
L 378.631162 -331.652239 
L 382.685065 -331.371221 
L 386.738968 -331.116282 
L 390.79287 -330.872264 
L 394.846773 -330.628245 
L 398.900676 -331.076043 
L 402.954578 -330.99341 
L 407.008481 -330.84548 
L 411.062384 -330.704845 
L 415.116287 -330.665777 
L 419.170189 -330.587785 
L 423.224092 -330.505082 
L 427.277995 -330.607027 
L 431.331897 -330.132523 
L 435.3858 -329.83738 
L 439.439703 -329.691541 
L 443.493606 -329.548432 
L 447.547508 -329.405323 
L 451.601411 -329.262214 
L 455.655314 -329.012644 
L 459.709216 -328.810368 
L 463.763119 -328.803453 
L 467.817022 -328.69802 
L 471.870925 -328.591328 
L 475.924827 -328.485573 
L 479.97873 -328.380158 
L 484.032633 -328.274744 
L 488.086535 -328.155266 
L 492.140438 -328.041978 
L 496.194341 -327.855108 
L 500.248243 -327.668239 
L 500.248243 -437.502162 
L 500.248243 -437.502162 
L 496.194341 -436.184359 
L 492.140438 -434.866556 
L 488.086535 -433.548754 
L 484.032633 -432.230761 
L 479.97873 -430.912548 
L 475.924827 -429.594334 
L 471.870925 -428.276121 
L 467.817022 -427.010179 
L 463.763119 -425.756788 
L 459.709216 -424.430485 
L 455.655314 -423.077851 
L 451.601411 -421.724583 
L 447.547508 -420.387815 
L 443.493606 -419.070819 
L 439.439703 -417.734082 
L 435.3858 -416.416604 
L 431.331897 -415.099127 
L 427.277995 -413.781649 
L 423.224092 -412.463909 
L 419.170189 -411.146107 
L 415.116287 -409.828304 
L 411.062384 -408.510501 
L 407.008481 -407.199321 
L 402.954578 -405.92227 
L 398.900676 -404.637451 
L 394.846773 -403.266621 
L 390.79287 -401.924351 
L 386.738968 -400.606873 
L 382.685065 -399.287271 
L 378.631162 -397.919875 
L 374.577259 -396.594482 
L 370.523357 -395.452041 
L 366.469454 -394.292503 
L 362.415551 -393.235364 
L 358.361649 -392.45908 
L 354.307746 -391.810562 
L 350.253843 -391.011723 
L 346.19994 -390.001114 
L 342.146038 -388.990505 
L 338.092135 -388.39371 
L 334.038232 -387.588623 
L 329.98433 -386.910995 
L 325.930427 -386.146736 
L 321.876524 -385.503905 
L 317.822621 -384.634508 
L 313.768719 -383.311195 
L 309.714816 -383.000381 
L 305.660913 -381.711666 
L 301.607011 -380.502431 
L 297.553108 -379.430566 
L 293.499205 -378.86216 
L 289.445302 -377.482084 
L 285.3914 -376.364519 
L 281.337497 -375.50528 
L 277.283594 -374.279458 
L 273.229692 -373.833243 
L 269.175789 -372.864008 
L 265.121886 -372.353048 
L 261.067983 -372.145346 
L 257.014081 -372.326804 
L 252.960178 -371.779725 
L 248.906275 -371.35097 
L 244.852373 -370.782907 
L 240.79847 -370.014308 
L 236.744567 -370.19297 
L 232.690664 -369.925938 
L 228.636762 -369.708823 
L 224.582859 -369.846188 
L 220.528956 -369.584816 
L 216.475054 -369.654411 
L 212.421151 -369.642007 
L 208.367248 -369.261148 
L 204.313346 -368.910587 
L 200.259443 -369.278831 
L 196.20554 -369.115569 
L 192.151637 -369.277219 
L 188.097735 -369.134749 
L 184.043832 -369.343719 
L 179.989929 -369.557118 
L 175.936027 -369.68715 
L 171.882124 -369.929526 
L 167.828221 -369.962747 
L 163.774318 -370.219144 
L 159.720416 -370.502762 
L 155.666513 -370.663167 
L 151.61261 -370.746404 
L 147.558708 -371.053815 
L 143.504805 -370.991451 
L 139.450902 -371.298408 
L 135.396999 -371.184196 
L 131.343097 -371.542138 
L 127.289194 -371.949418 
L 123.235291 -372.356232 
L 119.181389 -372.729811 
L 115.127486 -372.952823 
L 111.073583 -373.470408 
L 107.01968 -373.733407 
L 102.965778 -374.093746 
L 98.911875 -374.408256 
z
" id="m2489705e6e" style="stroke:#ffffff;stroke-opacity:0.15;stroke-width:2;"/>
    </defs>
    <g clip-path="url(#p337e887ba7)">
     <use style="fill:#4c72b0;fill-opacity:0.15;stroke:#ffffff;stroke-opacity:0.15;stroke-width:2;" x="0" xlink:href="#m2489705e6e" y="605.065125"/>
    </g>
   </g>
   <g id="line2d_11">
    <path clip-path="url(#p337e887ba7)" d="M 98.911875 275.585386 
L 102.965778 275.080483 
L 107.01968 274.575581 
L 111.073583 274.070678 
L 115.127486 273.565776 
L 119.181389 273.060873 
L 123.235291 272.55597 
L 127.289194 272.051068 
L 131.343097 271.546165 
L 135.396999 271.041262 
L 139.450902 270.53636 
L 143.504805 270.031457 
L 147.558708 269.526554 
L 151.61261 269.021652 
L 155.666513 268.516749 
L 159.720416 268.011846 
L 163.774318 267.506944 
L 167.828221 267.002041 
L 171.882124 266.497138 
L 175.936027 265.992236 
L 179.989929 265.487333 
L 184.043832 264.98243 
L 188.097735 264.477528 
L 192.151637 263.972625 
L 196.20554 263.467722 
L 200.259443 262.96282 
L 204.313346 262.457917 
L 208.367248 261.953014 
L 212.421151 261.448112 
L 216.475054 260.943209 
L 220.528956 260.438306 
L 224.582859 259.933404 
L 228.636762 259.428501 
L 232.690664 258.923598 
L 236.744567 258.418696 
L 240.79847 257.913793 
L 244.852373 257.40889 
L 248.906275 256.903988 
L 252.960178 256.399085 
L 257.014081 255.894182 
L 261.067983 255.38928 
L 265.121886 254.884377 
L 269.175789 254.379474 
L 273.229692 253.874572 
L 277.283594 253.369669 
L 281.337497 252.864766 
L 285.3914 252.359864 
L 289.445302 251.854961 
L 293.499205 251.350058 
L 297.553108 250.845156 
L 301.607011 250.340253 
L 305.660913 249.83535 
L 309.714816 249.330448 
L 313.768719 248.825545 
L 317.822621 248.320642 
L 321.876524 247.81574 
L 325.930427 247.310837 
L 329.98433 246.805934 
L 334.038232 246.301032 
L 338.092135 245.796129 
L 342.146038 245.291226 
L 346.19994 244.786324 
L 350.253843 244.281421 
L 354.307746 243.776518 
L 358.361649 243.271616 
L 362.415551 242.766713 
L 366.469454 242.26181 
L 370.523357 241.756908 
L 374.577259 241.252005 
L 378.631162 240.747102 
L 382.685065 240.2422 
L 386.738968 239.737297 
L 390.79287 239.232394 
L 394.846773 238.727492 
L 398.900676 238.222589 
L 402.954578 237.717686 
L 407.008481 237.212784 
L 411.062384 236.707881 
L 415.116287 236.202978 
L 419.170189 235.698076 
L 423.224092 235.193173 
L 427.277995 234.68827 
L 431.331897 234.183368 
L 435.3858 233.678465 
L 439.439703 233.173562 
L 443.493606 232.66866 
L 447.547508 232.163757 
L 451.601411 231.658854 
L 455.655314 231.153952 
L 459.709216 230.649049 
L 463.763119 230.144146 
L 467.817022 229.639244 
L 471.870925 229.134341 
L 475.924827 228.629438 
L 479.97873 228.124536 
L 484.032633 227.619633 
L 488.086535 227.11473 
L 492.140438 226.609828 
L 496.194341 226.104925 
L 500.248243 225.600022 
" style="fill:none;stroke:#4c72b0;stroke-linecap:round;stroke-width:4.5;"/>
   </g>
   <g id="patch_3">
    <path d="M 98.911875 533.84575 
L 98.911875 85.18575 
" style="fill:none;stroke:#ffffff;stroke-linecap:square;stroke-linejoin:miter;stroke-width:2.5;"/>
   </g>
   <g id="patch_4">
    <path d="M 98.911875 533.84575 
L 500.248243 533.84575 
" style="fill:none;stroke:#ffffff;stroke-linecap:square;stroke-linejoin:miter;stroke-width:2.5;"/>
   </g>
   <g id="text_13">
    <!-- Residual Analysis -->
    <defs>
     <path d="M 44.390625 34.1875 
Q 47.5625 33.109375 50.5625 29.59375 
Q 53.5625 26.078125 56.59375 19.921875 
L 66.609375 0 
L 56 0 
L 46.6875 18.703125 
Q 43.0625 26.03125 39.671875 28.421875 
Q 36.28125 30.8125 30.421875 30.8125 
L 19.671875 30.8125 
L 19.671875 0 
L 9.8125 0 
L 9.8125 72.90625 
L 32.078125 72.90625 
Q 44.578125 72.90625 50.734375 67.671875 
Q 56.890625 62.453125 56.890625 51.90625 
Q 56.890625 45.015625 53.6875 40.46875 
Q 50.484375 35.9375 44.390625 34.1875 
z
M 19.671875 64.796875 
L 19.671875 38.921875 
L 32.078125 38.921875 
Q 39.203125 38.921875 42.84375 42.21875 
Q 46.484375 45.515625 46.484375 51.90625 
Q 46.484375 58.296875 42.84375 61.546875 
Q 39.203125 64.796875 32.078125 64.796875 
z
" id="DejaVuSans-52"/>
     <path d="M 45.40625 46.390625 
L 45.40625 75.984375 
L 54.390625 75.984375 
L 54.390625 0 
L 45.40625 0 
L 45.40625 8.203125 
Q 42.578125 3.328125 38.25 0.953125 
Q 33.9375 -1.421875 27.875 -1.421875 
Q 17.96875 -1.421875 11.734375 6.484375 
Q 5.515625 14.40625 5.515625 27.296875 
Q 5.515625 40.1875 11.734375 48.09375 
Q 17.96875 56 27.875 56 
Q 33.9375 56 38.25 53.625 
Q 42.578125 51.265625 45.40625 46.390625 
z
M 14.796875 27.296875 
Q 14.796875 17.390625 18.875 11.75 
Q 22.953125 6.109375 30.078125 6.109375 
Q 37.203125 6.109375 41.296875 11.75 
Q 45.40625 17.390625 45.40625 27.296875 
Q 45.40625 37.203125 41.296875 42.84375 
Q 37.203125 48.484375 30.078125 48.484375 
Q 22.953125 48.484375 18.875 42.84375 
Q 14.796875 37.203125 14.796875 27.296875 
z
" id="DejaVuSans-64"/>
    </defs>
    <g style="fill:#262626;" transform="translate(195.116309 25.43625)scale(0.24 -0.24)">
     <use xlink:href="#DejaVuSans-52"/>
     <use x="69.419922" xlink:href="#DejaVuSans-65"/>
     <use x="130.943359" xlink:href="#DejaVuSans-73"/>
     <use x="183.042969" xlink:href="#DejaVuSans-69"/>
     <use x="210.826172" xlink:href="#DejaVuSans-64"/>
     <use x="274.302734" xlink:href="#DejaVuSans-75"/>
     <use x="337.681641" xlink:href="#DejaVuSans-61"/>
     <use x="398.960938" xlink:href="#DejaVuSans-6c"/>
     <use x="426.744141" xlink:href="#DejaVuSans-20"/>
     <use x="458.53125" xlink:href="#DejaVuSans-41"/>
     <use x="526.939453" xlink:href="#DejaVuSans-6e"/>
     <use x="590.318359" xlink:href="#DejaVuSans-61"/>
     <use x="651.597656" xlink:href="#DejaVuSans-6c"/>
     <use x="679.380859" xlink:href="#DejaVuSans-79"/>
     <use x="738.560547" xlink:href="#DejaVuSans-73"/>
     <use x="790.660156" xlink:href="#DejaVuSans-69"/>
     <use x="818.443359" xlink:href="#DejaVuSans-73"/>
    </g>
    <!-- Pearson: 0.1465, p-value: 0.3426 -->
    <defs>
     <path d="M 11.71875 12.40625 
L 22.015625 12.40625 
L 22.015625 0 
L 11.71875 0 
z
M 11.71875 51.703125 
L 22.015625 51.703125 
L 22.015625 39.3125 
L 11.71875 39.3125 
z
" id="DejaVuSans-3a"/>
     <path d="M 12.40625 8.296875 
L 28.515625 8.296875 
L 28.515625 63.921875 
L 10.984375 60.40625 
L 10.984375 69.390625 
L 28.421875 72.90625 
L 38.28125 72.90625 
L 38.28125 8.296875 
L 54.390625 8.296875 
L 54.390625 0 
L 12.40625 0 
z
" id="DejaVuSans-31"/>
     <path d="M 11.71875 12.40625 
L 22.015625 12.40625 
L 22.015625 4 
L 14.015625 -11.625 
L 7.71875 -11.625 
L 11.71875 4 
z
" id="DejaVuSans-2c"/>
     <path d="M 4.890625 31.390625 
L 31.203125 31.390625 
L 31.203125 23.390625 
L 4.890625 23.390625 
z
" id="DejaVuSans-2d"/>
     <path d="M 2.984375 54.6875 
L 12.5 54.6875 
L 29.59375 8.796875 
L 46.6875 54.6875 
L 56.203125 54.6875 
L 35.6875 0 
L 23.484375 0 
z
" id="DejaVuSans-76"/>
    </defs>
    <g style="fill:#262626;" transform="translate(99.440684 52.311)scale(0.24 -0.24)">
     <use xlink:href="#DejaVuSans-50"/>
     <use x="60.255859" xlink:href="#DejaVuSans-65"/>
     <use x="121.779297" xlink:href="#DejaVuSans-61"/>
     <use x="183.058594" xlink:href="#DejaVuSans-72"/>
     <use x="224.171875" xlink:href="#DejaVuSans-73"/>
     <use x="276.271484" xlink:href="#DejaVuSans-6f"/>
     <use x="337.453125" xlink:href="#DejaVuSans-6e"/>
     <use x="400.832031" xlink:href="#DejaVuSans-3a"/>
     <use x="434.523438" xlink:href="#DejaVuSans-20"/>
     <use x="466.310547" xlink:href="#DejaVuSans-30"/>
     <use x="529.933594" xlink:href="#DejaVuSans-2e"/>
     <use x="561.720703" xlink:href="#DejaVuSans-31"/>
     <use x="625.34375" xlink:href="#DejaVuSans-34"/>
     <use x="688.966797" xlink:href="#DejaVuSans-36"/>
     <use x="752.589844" xlink:href="#DejaVuSans-35"/>
     <use x="816.212891" xlink:href="#DejaVuSans-2c"/>
     <use x="848" xlink:href="#DejaVuSans-20"/>
     <use x="879.787109" xlink:href="#DejaVuSans-70"/>
     <use x="943.263672" xlink:href="#DejaVuSans-2d"/>
     <use x="979.316406" xlink:href="#DejaVuSans-76"/>
     <use x="1038.496094" xlink:href="#DejaVuSans-61"/>
     <use x="1099.775391" xlink:href="#DejaVuSans-6c"/>
     <use x="1127.558594" xlink:href="#DejaVuSans-75"/>
     <use x="1190.9375" xlink:href="#DejaVuSans-65"/>
     <use x="1252.460938" xlink:href="#DejaVuSans-3a"/>
     <use x="1286.152344" xlink:href="#DejaVuSans-20"/>
     <use x="1317.939453" xlink:href="#DejaVuSans-30"/>
     <use x="1381.5625" xlink:href="#DejaVuSans-2e"/>
     <use x="1413.349609" xlink:href="#DejaVuSans-33"/>
     <use x="1476.972656" xlink:href="#DejaVuSans-34"/>
     <use x="1540.595703" xlink:href="#DejaVuSans-32"/>
     <use x="1604.21875" xlink:href="#DejaVuSans-36"/>
    </g>
    <!-- Spearman: 0.1667, p-value: 0.2794 -->
    <g style="fill:#262626;" transform="translate(85.987559 79.18575)scale(0.24 -0.24)">
     <use xlink:href="#DejaVuSans-53"/>
     <use x="63.476562" xlink:href="#DejaVuSans-70"/>
     <use x="126.953125" xlink:href="#DejaVuSans-65"/>
     <use x="188.476562" xlink:href="#DejaVuSans-61"/>
     <use x="249.755859" xlink:href="#DejaVuSans-72"/>
     <use x="290.853516" xlink:href="#DejaVuSans-6d"/>
     <use x="388.265625" xlink:href="#DejaVuSans-61"/>
     <use x="449.544922" xlink:href="#DejaVuSans-6e"/>
     <use x="512.923828" xlink:href="#DejaVuSans-3a"/>
     <use x="546.615234" xlink:href="#DejaVuSans-20"/>
     <use x="578.402344" xlink:href="#DejaVuSans-30"/>
     <use x="642.025391" xlink:href="#DejaVuSans-2e"/>
     <use x="673.8125" xlink:href="#DejaVuSans-31"/>
     <use x="737.435547" xlink:href="#DejaVuSans-36"/>
     <use x="801.058594" xlink:href="#DejaVuSans-36"/>
     <use x="864.681641" xlink:href="#DejaVuSans-37"/>
     <use x="928.304688" xlink:href="#DejaVuSans-2c"/>
     <use x="960.091797" xlink:href="#DejaVuSans-20"/>
     <use x="991.878906" xlink:href="#DejaVuSans-70"/>
     <use x="1055.355469" xlink:href="#DejaVuSans-2d"/>
     <use x="1091.408203" xlink:href="#DejaVuSans-76"/>
     <use x="1150.587891" xlink:href="#DejaVuSans-61"/>
     <use x="1211.867188" xlink:href="#DejaVuSans-6c"/>
     <use x="1239.650391" xlink:href="#DejaVuSans-75"/>
     <use x="1303.029297" xlink:href="#DejaVuSans-65"/>
     <use x="1364.552734" xlink:href="#DejaVuSans-3a"/>
     <use x="1398.244141" xlink:href="#DejaVuSans-20"/>
     <use x="1430.03125" xlink:href="#DejaVuSans-30"/>
     <use x="1493.654297" xlink:href="#DejaVuSans-2e"/>
     <use x="1525.441406" xlink:href="#DejaVuSans-32"/>
     <use x="1589.064453" xlink:href="#DejaVuSans-37"/>
     <use x="1652.6875" xlink:href="#DejaVuSans-39"/>
     <use x="1716.310547" xlink:href="#DejaVuSans-34"/>
    </g>
   </g>
  </g>
  <g id="legend_1">
   <g id="text_14">
    <!-- norm_error_category -->
    <defs>
     <path d="M 50.984375 -16.609375 
L 50.984375 -23.578125 
L -0.984375 -23.578125 
L -0.984375 -16.609375 
z
" id="DejaVuSans-5f"/>
    </defs>
    <g style="fill:#262626;" transform="translate(503.681368 259.440187)scale(0.204 -0.204)">
     <use xlink:href="#DejaVuSans-6e"/>
     <use x="63.378906" xlink:href="#DejaVuSans-6f"/>
     <use x="124.560547" xlink:href="#DejaVuSans-72"/>
     <use x="165.658203" xlink:href="#DejaVuSans-6d"/>
     <use x="263.070312" xlink:href="#DejaVuSans-5f"/>
     <use x="313.070312" xlink:href="#DejaVuSans-65"/>
     <use x="374.59375" xlink:href="#DejaVuSans-72"/>
     <use x="415.691406" xlink:href="#DejaVuSans-72"/>
     <use x="456.773438" xlink:href="#DejaVuSans-6f"/>
     <use x="517.955078" xlink:href="#DejaVuSans-72"/>
     <use x="559.068359" xlink:href="#DejaVuSans-5f"/>
     <use x="609.068359" xlink:href="#DejaVuSans-63"/>
     <use x="664.048828" xlink:href="#DejaVuSans-61"/>
     <use x="725.328125" xlink:href="#DejaVuSans-74"/>
     <use x="764.537109" xlink:href="#DejaVuSans-65"/>
     <use x="826.060547" xlink:href="#DejaVuSans-67"/>
     <use x="889.537109" xlink:href="#DejaVuSans-6f"/>
     <use x="950.71875" xlink:href="#DejaVuSans-72"/>
     <use x="991.832031" xlink:href="#DejaVuSans-79"/>
    </g>
   </g>
   <g id="PathCollection_4">
    <g>
     <use style="fill:#2ecc71;stroke:#2ecc71;stroke-width:2;" x="556.276712" xlink:href="#me43f9edc2d" y="286.191688"/>
    </g>
   </g>
   <g id="text_15">
    <!-- Good -->
    <defs>
     <path d="M 59.515625 10.40625 
L 59.515625 29.984375 
L 43.40625 29.984375 
L 43.40625 38.09375 
L 69.28125 38.09375 
L 69.28125 6.78125 
Q 63.578125 2.734375 56.6875 0.65625 
Q 49.8125 -1.421875 42 -1.421875 
Q 24.90625 -1.421875 15.25 8.5625 
Q 5.609375 18.5625 5.609375 36.375 
Q 5.609375 54.25 15.25 64.234375 
Q 24.90625 74.21875 42 74.21875 
Q 49.125 74.21875 55.546875 72.453125 
Q 61.96875 70.703125 67.390625 67.28125 
L 67.390625 56.78125 
Q 61.921875 61.421875 55.765625 63.765625 
Q 49.609375 66.109375 42.828125 66.109375 
Q 29.4375 66.109375 22.71875 58.640625 
Q 16.015625 51.171875 16.015625 36.375 
Q 16.015625 21.625 22.71875 14.15625 
Q 29.4375 6.6875 42.828125 6.6875 
Q 48.046875 6.6875 52.140625 7.59375 
Q 56.25 8.5 59.515625 10.40625 
z
" id="DejaVuSans-47"/>
    </defs>
    <g style="fill:#262626;" transform="translate(595.876712 291.966687)scale(0.22 -0.22)">
     <use xlink:href="#DejaVuSans-47"/>
     <use x="77.490234" xlink:href="#DejaVuSans-6f"/>
     <use x="138.671875" xlink:href="#DejaVuSans-6f"/>
     <use x="199.853516" xlink:href="#DejaVuSans-64"/>
    </g>
   </g>
   <g id="PathCollection_5">
    <g>
     <use style="fill:#34495e;stroke:#34495e;stroke-width:2;" x="556.276712" xlink:href="#m85e451c842" y="318.483563"/>
    </g>
   </g>
   <g id="text_16">
    <!-- Average -->
    <g style="fill:#262626;" transform="translate(595.876712 324.258562)scale(0.22 -0.22)">
     <use xlink:href="#DejaVuSans-41"/>
     <use x="68.330078" xlink:href="#DejaVuSans-76"/>
     <use x="127.509766" xlink:href="#DejaVuSans-65"/>
     <use x="189.033203" xlink:href="#DejaVuSans-72"/>
     <use x="230.146484" xlink:href="#DejaVuSans-61"/>
     <use x="291.425781" xlink:href="#DejaVuSans-67"/>
     <use x="354.902344" xlink:href="#DejaVuSans-65"/>
    </g>
   </g>
   <g id="PathCollection_6">
    <g>
     <use style="fill:#e74c3c;stroke:#e74c3c;stroke-width:2;" x="556.276712" xlink:href="#m3d7a97343d" y="350.775438"/>
    </g>
   </g>
   <g id="text_17">
    <!-- Bad -->
    <defs>
     <path d="M 19.671875 34.8125 
L 19.671875 8.109375 
L 35.5 8.109375 
Q 43.453125 8.109375 47.28125 11.40625 
Q 51.125 14.703125 51.125 21.484375 
Q 51.125 28.328125 47.28125 31.5625 
Q 43.453125 34.8125 35.5 34.8125 
z
M 19.671875 64.796875 
L 19.671875 42.828125 
L 34.28125 42.828125 
Q 41.5 42.828125 45.03125 45.53125 
Q 48.578125 48.25 48.578125 53.8125 
Q 48.578125 59.328125 45.03125 62.0625 
Q 41.5 64.796875 34.28125 64.796875 
z
M 9.8125 72.90625 
L 35.015625 72.90625 
Q 46.296875 72.90625 52.390625 68.21875 
Q 58.5 63.53125 58.5 54.890625 
Q 58.5 48.1875 55.375 44.234375 
Q 52.25 40.28125 46.1875 39.3125 
Q 53.46875 37.75 57.5 32.78125 
Q 61.53125 27.828125 61.53125 20.40625 
Q 61.53125 10.640625 54.890625 5.3125 
Q 48.25 0 35.984375 0 
L 9.8125 0 
z
" id="DejaVuSans-42"/>
    </defs>
    <g style="fill:#262626;" transform="translate(595.876712 356.550437)scale(0.22 -0.22)">
     <use xlink:href="#DejaVuSans-42"/>
     <use x="68.603516" xlink:href="#DejaVuSans-61"/>
     <use x="129.882812" xlink:href="#DejaVuSans-64"/>
    </g>
   </g>
  </g>
 </g>
 <defs>
  <clipPath id="p337e887ba7">
   <rect height="448.66" width="401.336368" x="98.911875" y="85.18575"/>
  </clipPath>
 </defs>
</svg>
